%TF.GenerationSoftware,Altium Limited,Altium Designer,20.1.8 (145)*%
G04 Layer_Color=39423*
%FSLAX45Y45*%
%MOMM*%
%TF.SameCoordinates,58819124-5082-48BE-93C4-8F50621AB512*%
%TF.FilePolarity,Negative*%
%TF.FileFunction,Soldermask,Top*%
%TF.Part,Single*%
G01*
G75*
%TA.AperFunction,ComponentPad*%
%ADD19C,1.80320*%
%TA.AperFunction,ConnectorPad*%
%ADD21R,1.00320X0.60320*%
%ADD22R,0.60320X1.00320*%
%TA.AperFunction,BGAPad,CuDef*%
%ADD23R,1.65320X1.65320*%
%TA.AperFunction,SMDPad,CuDef*%
%ADD24R,0.90320X0.90320*%
G36*
X10045000Y7551500D02*
X9880000D01*
Y7650500D01*
X9946000Y7716500D01*
X10045000D01*
Y7551500D01*
D02*
G37*
D19*
X11176000Y7874000D02*
D03*
Y7620000D02*
D03*
Y7366000D02*
D03*
Y7112000D02*
D03*
Y6858000D02*
D03*
Y6604000D02*
D03*
Y6350000D02*
D03*
Y6096000D02*
D03*
Y5842000D02*
D03*
Y5588000D02*
D03*
X9144000Y7874000D02*
D03*
Y7620000D02*
D03*
Y7366000D02*
D03*
Y7112000D02*
D03*
Y6858000D02*
D03*
Y6604000D02*
D03*
Y6350000D02*
D03*
Y6096000D02*
D03*
Y5842000D02*
D03*
Y5588000D02*
D03*
D21*
X9570000Y7836500D02*
D03*
Y7756500D02*
D03*
Y7676500D02*
D03*
Y7596500D02*
D03*
Y7516500D02*
D03*
Y7436500D02*
D03*
Y7356500D02*
D03*
Y7276500D02*
D03*
Y7196500D02*
D03*
Y7116500D02*
D03*
Y7036500D02*
D03*
X10750000D02*
D03*
Y7116500D02*
D03*
Y7196500D02*
D03*
Y7276500D02*
D03*
Y7356500D02*
D03*
Y7436500D02*
D03*
Y7516500D02*
D03*
Y7596500D02*
D03*
Y7676500D02*
D03*
Y7756500D02*
D03*
Y7836500D02*
D03*
D22*
X9680000Y6946500D02*
D03*
X9760000D02*
D03*
X9840000D02*
D03*
X9920000D02*
D03*
X10000000D02*
D03*
X10080000D02*
D03*
X10160000D02*
D03*
X10240000D02*
D03*
X10320000D02*
D03*
X10400000D02*
D03*
X10480000D02*
D03*
X10560000D02*
D03*
X10640000D02*
D03*
Y7926500D02*
D03*
X10560000D02*
D03*
X10480000D02*
D03*
X10400000D02*
D03*
X10320000D02*
D03*
X10240000D02*
D03*
X10160000D02*
D03*
X10080000D02*
D03*
X10000000D02*
D03*
X9920000D02*
D03*
X9840000D02*
D03*
X9760000D02*
D03*
X9680000D02*
D03*
D23*
X10160000Y7436500D02*
D03*
X10357500Y7634000D02*
D03*
X10160000D02*
D03*
X9962500Y7436500D02*
D03*
Y7239000D02*
D03*
X10160000D02*
D03*
X10357500D02*
D03*
Y7436500D02*
D03*
D24*
X9565000Y7931500D02*
D03*
Y6941500D02*
D03*
X10755000D02*
D03*
Y7931500D02*
D03*
%TF.MD5,8d417709fb1fa94c74dd8537b1dc653e*%
M02*
