%TF.GenerationSoftware,Altium Limited,Altium Designer,20.1.8 (145)*%
G04 Layer_Physical_Order=3*
G04 Layer_Color=16440176*
%FSLAX45Y45*%
%MOMM*%
%TF.SameCoordinates,58819124-5082-48BE-93C4-8F50621AB512*%
%TF.FilePolarity,Positive*%
%TF.FileFunction,Copper,L3,Inr,Signal*%
%TF.Part,Single*%
G01*
G75*
%TA.AperFunction,ComponentPad*%
%ADD17C,1.60000*%
%TA.AperFunction,ViaPad*%
%ADD18C,0.80000*%
G36*
X11340604Y5423396D02*
X8979396D01*
Y8038604D01*
X9486254D01*
Y7996500D01*
X9490280Y7986780D01*
X9500000Y7982753D01*
X10820000D01*
X10829720Y7986780D01*
X10833746Y7996500D01*
Y8038604D01*
X11340604D01*
Y5423396D01*
D02*
G37*
%LPC*%
G36*
X11176000Y7967500D02*
X11151800Y7964314D01*
X11129250Y7954973D01*
X11109886Y7940114D01*
X11095027Y7920750D01*
X11085686Y7898200D01*
X11082500Y7874000D01*
X11085686Y7849800D01*
X11095027Y7827250D01*
X11109886Y7807886D01*
X11129250Y7793027D01*
X11151800Y7783686D01*
X11176000Y7780500D01*
X11200200Y7783686D01*
X11222750Y7793027D01*
X11242114Y7807886D01*
X11256973Y7827250D01*
X11266314Y7849800D01*
X11269500Y7874000D01*
X11266314Y7898200D01*
X11256973Y7920750D01*
X11242114Y7940114D01*
X11222750Y7954973D01*
X11200200Y7964314D01*
X11176000Y7967500D01*
D02*
G37*
G36*
X9144000D02*
X9119800Y7964314D01*
X9097250Y7954973D01*
X9077886Y7940114D01*
X9063027Y7920750D01*
X9053686Y7898200D01*
X9050500Y7874000D01*
X9053686Y7849800D01*
X9063027Y7827250D01*
X9077886Y7807886D01*
X9097250Y7793027D01*
X9119800Y7783686D01*
X9144000Y7780500D01*
X9168200Y7783686D01*
X9190750Y7793027D01*
X9210114Y7807886D01*
X9224973Y7827250D01*
X9234314Y7849800D01*
X9237500Y7874000D01*
X9234314Y7898200D01*
X9224973Y7920750D01*
X9210114Y7940114D01*
X9190750Y7954973D01*
X9168200Y7964314D01*
X9144000Y7967500D01*
D02*
G37*
G36*
X11176000Y7713500D02*
X11151800Y7710314D01*
X11129250Y7700973D01*
X11109886Y7686114D01*
X11095027Y7666750D01*
X11085686Y7644200D01*
X11082500Y7620000D01*
X11085686Y7595800D01*
X11095027Y7573250D01*
X11109886Y7553886D01*
X11129250Y7539027D01*
X11151800Y7529686D01*
X11176000Y7526500D01*
X11200200Y7529686D01*
X11222750Y7539027D01*
X11242114Y7553886D01*
X11256973Y7573250D01*
X11266314Y7595800D01*
X11269500Y7620000D01*
X11266314Y7644200D01*
X11256973Y7666750D01*
X11242114Y7686114D01*
X11222750Y7700973D01*
X11200200Y7710314D01*
X11176000Y7713500D01*
D02*
G37*
G36*
X9144000D02*
X9119800Y7710314D01*
X9097250Y7700973D01*
X9077886Y7686114D01*
X9063027Y7666750D01*
X9053686Y7644200D01*
X9050500Y7620000D01*
X9053686Y7595800D01*
X9063027Y7573250D01*
X9077886Y7553886D01*
X9097250Y7539027D01*
X9119800Y7529686D01*
X9144000Y7526500D01*
X9168200Y7529686D01*
X9190750Y7539027D01*
X9210114Y7553886D01*
X9224973Y7573250D01*
X9234314Y7595800D01*
X9237500Y7620000D01*
X9234314Y7644200D01*
X9224973Y7666750D01*
X9210114Y7686114D01*
X9190750Y7700973D01*
X9168200Y7710314D01*
X9144000Y7713500D01*
D02*
G37*
G36*
X9388048Y7631448D02*
X9367486Y7627358D01*
X9350054Y7615710D01*
X9338406Y7598278D01*
X9334316Y7577716D01*
X9338406Y7557153D01*
X9350054Y7539721D01*
X9367486Y7528073D01*
X9388048Y7523983D01*
X9408611Y7528073D01*
X9426043Y7539721D01*
X9437691Y7557153D01*
X9441781Y7577716D01*
X9437691Y7598278D01*
X9426043Y7615710D01*
X9408611Y7627358D01*
X9388048Y7631448D01*
D02*
G37*
G36*
X9417700Y7490232D02*
X9397137Y7486142D01*
X9379705Y7474495D01*
X9368058Y7457063D01*
X9363968Y7436500D01*
X9368058Y7415937D01*
X9379705Y7398505D01*
X9397137Y7386858D01*
X9417700Y7382768D01*
X9438263Y7386858D01*
X9455695Y7398505D01*
X9467342Y7415937D01*
X9471432Y7436500D01*
X9467342Y7457063D01*
X9455695Y7474495D01*
X9438263Y7486142D01*
X9417700Y7490232D01*
D02*
G37*
G36*
X11176000Y7459500D02*
X11151800Y7456314D01*
X11129250Y7446973D01*
X11109886Y7432114D01*
X11095027Y7412750D01*
X11085686Y7390200D01*
X11082500Y7366000D01*
X11085686Y7341800D01*
X11095027Y7319250D01*
X11109886Y7299886D01*
X11129250Y7285027D01*
X11151800Y7275686D01*
X11176000Y7272500D01*
X11200200Y7275686D01*
X11222750Y7285027D01*
X11242114Y7299886D01*
X11256973Y7319250D01*
X11266314Y7341800D01*
X11269500Y7366000D01*
X11266314Y7390200D01*
X11256973Y7412750D01*
X11242114Y7432114D01*
X11222750Y7446973D01*
X11200200Y7456314D01*
X11176000Y7459500D01*
D02*
G37*
G36*
X9144000D02*
X9119800Y7456314D01*
X9097250Y7446973D01*
X9077886Y7432114D01*
X9063027Y7412750D01*
X9053686Y7390200D01*
X9050500Y7366000D01*
X9053686Y7341800D01*
X9063027Y7319250D01*
X9077886Y7299886D01*
X9097250Y7285027D01*
X9119800Y7275686D01*
X9144000Y7272500D01*
X9168200Y7275686D01*
X9190750Y7285027D01*
X9210114Y7299886D01*
X9224973Y7319250D01*
X9234314Y7341800D01*
X9237500Y7366000D01*
X9234314Y7390200D01*
X9224973Y7412750D01*
X9210114Y7432114D01*
X9190750Y7446973D01*
X9168200Y7456314D01*
X9144000Y7459500D01*
D02*
G37*
G36*
X9403680Y7330232D02*
X9383117Y7326142D01*
X9365685Y7314495D01*
X9354038Y7297063D01*
X9349948Y7276500D01*
X9354038Y7255937D01*
X9365685Y7238505D01*
X9383117Y7226858D01*
X9403680Y7222768D01*
X9424243Y7226858D01*
X9441675Y7238505D01*
X9453322Y7255937D01*
X9457412Y7276500D01*
X9453322Y7297063D01*
X9441675Y7314495D01*
X9424243Y7326142D01*
X9403680Y7330232D01*
D02*
G37*
G36*
X9144000Y7205500D02*
X9119800Y7202314D01*
X9097250Y7192973D01*
X9077886Y7178114D01*
X9063027Y7158750D01*
X9053686Y7136200D01*
X9050500Y7112000D01*
X9053686Y7087801D01*
X9063027Y7065251D01*
X9077886Y7045886D01*
X9097250Y7031027D01*
X9119800Y7021686D01*
X9144000Y7018501D01*
X9168200Y7021686D01*
X9190750Y7031027D01*
X9210114Y7045886D01*
X9224973Y7065251D01*
X9234314Y7087801D01*
X9237500Y7112000D01*
X9234314Y7136200D01*
X9224973Y7158750D01*
X9210114Y7178114D01*
X9190750Y7192973D01*
X9168200Y7202314D01*
X9144000Y7205500D01*
D02*
G37*
G36*
X11176000Y7205500D02*
X11151800Y7202314D01*
X11129250Y7192973D01*
X11109886Y7178114D01*
X11095027Y7158750D01*
X11085686Y7136200D01*
X11082500Y7112000D01*
X11085686Y7087800D01*
X11095027Y7065250D01*
X11109886Y7045886D01*
X11129250Y7031027D01*
X11151800Y7021686D01*
X11176000Y7018500D01*
X11200200Y7021686D01*
X11222750Y7031027D01*
X11242114Y7045886D01*
X11256973Y7065250D01*
X11266314Y7087800D01*
X11269500Y7112000D01*
X11266314Y7136200D01*
X11256973Y7158750D01*
X11242114Y7178114D01*
X11222750Y7192973D01*
X11200200Y7202314D01*
X11176000Y7205500D01*
D02*
G37*
G36*
Y6951500D02*
X11151800Y6948314D01*
X11129250Y6938973D01*
X11109886Y6924114D01*
X11095027Y6904750D01*
X11085686Y6882200D01*
X11082500Y6858000D01*
X11085686Y6833800D01*
X11095027Y6811250D01*
X11109886Y6791886D01*
X11129250Y6777027D01*
X11151800Y6767686D01*
X11176000Y6764500D01*
X11200200Y6767686D01*
X11222750Y6777027D01*
X11242114Y6791886D01*
X11256973Y6811250D01*
X11266314Y6833800D01*
X11269500Y6858000D01*
X11266314Y6882200D01*
X11256973Y6904750D01*
X11242114Y6924114D01*
X11222750Y6938973D01*
X11200200Y6948314D01*
X11176000Y6951500D01*
D02*
G37*
G36*
X9144000D02*
X9119800Y6948314D01*
X9097250Y6938973D01*
X9077886Y6924114D01*
X9063027Y6904750D01*
X9053686Y6882200D01*
X9050500Y6858000D01*
X9053686Y6833800D01*
X9063027Y6811250D01*
X9077886Y6791886D01*
X9097250Y6777027D01*
X9119800Y6767686D01*
X9144000Y6764500D01*
X9168200Y6767686D01*
X9190750Y6777027D01*
X9210114Y6791886D01*
X9224973Y6811250D01*
X9234314Y6833800D01*
X9237500Y6858000D01*
X9234314Y6882200D01*
X9224973Y6904750D01*
X9210114Y6924114D01*
X9190750Y6938973D01*
X9168200Y6948314D01*
X9144000Y6951500D01*
D02*
G37*
G36*
X10149711Y6836583D02*
X10129148Y6832493D01*
X10111716Y6820845D01*
X10100069Y6803413D01*
X10095979Y6782851D01*
X10100069Y6762288D01*
X10111716Y6744856D01*
X10129148Y6733208D01*
X10149711Y6729118D01*
X10170274Y6733208D01*
X10187706Y6744856D01*
X10199353Y6762288D01*
X10203443Y6782851D01*
X10199353Y6803413D01*
X10187706Y6820845D01*
X10170274Y6832493D01*
X10149711Y6836583D01*
D02*
G37*
G36*
X10012410Y6819029D02*
X9991847Y6814939D01*
X9974415Y6803291D01*
X9962767Y6785859D01*
X9958677Y6765297D01*
X9962767Y6744734D01*
X9974415Y6727302D01*
X9991847Y6715654D01*
X10012410Y6711564D01*
X10032972Y6715654D01*
X10050404Y6727302D01*
X10062052Y6744734D01*
X10066142Y6765297D01*
X10062052Y6785859D01*
X10050404Y6803291D01*
X10032972Y6814939D01*
X10012410Y6819029D01*
D02*
G37*
G36*
X9760000Y6751552D02*
X9739437Y6747462D01*
X9722005Y6735814D01*
X9710358Y6718382D01*
X9706268Y6697819D01*
X9710358Y6677257D01*
X9722005Y6659825D01*
X9739437Y6648177D01*
X9760000Y6644087D01*
X9780563Y6648177D01*
X9797995Y6659825D01*
X9809642Y6677257D01*
X9813732Y6697819D01*
X9809642Y6718382D01*
X9797995Y6735814D01*
X9780563Y6747462D01*
X9760000Y6751552D01*
D02*
G37*
G36*
X9632366Y6704359D02*
X9611803Y6700269D01*
X9594371Y6688621D01*
X9582724Y6671189D01*
X9578633Y6650626D01*
X9582724Y6630064D01*
X9594371Y6612632D01*
X9611803Y6600984D01*
X9632366Y6596894D01*
X9652928Y6600984D01*
X9670360Y6612632D01*
X9682008Y6630064D01*
X9686098Y6650626D01*
X9682008Y6671189D01*
X9670360Y6688621D01*
X9652928Y6700269D01*
X9632366Y6704359D01*
D02*
G37*
G36*
X10308178Y6697498D02*
X10287615Y6693407D01*
X10270183Y6681760D01*
X10258535Y6664328D01*
X10254445Y6643765D01*
X10258535Y6623203D01*
X10270183Y6605771D01*
X10287615Y6594123D01*
X10308178Y6590033D01*
X10328740Y6594123D01*
X10346172Y6605771D01*
X10357820Y6623203D01*
X10361910Y6643765D01*
X10357820Y6664328D01*
X10346172Y6681760D01*
X10328740Y6693407D01*
X10308178Y6697498D01*
D02*
G37*
G36*
X10178996Y6694124D02*
X10158434Y6690033D01*
X10141002Y6678386D01*
X10129354Y6660954D01*
X10125264Y6640391D01*
X10129354Y6619829D01*
X10141002Y6602396D01*
X10158434Y6590749D01*
X10178996Y6586659D01*
X10199559Y6590749D01*
X10216991Y6602396D01*
X10228638Y6619829D01*
X10232729Y6640391D01*
X10228638Y6660954D01*
X10216991Y6678386D01*
X10199559Y6690033D01*
X10178996Y6694124D01*
D02*
G37*
G36*
X11176000Y6697500D02*
X11151800Y6694314D01*
X11129250Y6684973D01*
X11109886Y6670114D01*
X11095027Y6650750D01*
X11085686Y6628200D01*
X11082500Y6604000D01*
X11085686Y6579800D01*
X11095027Y6557250D01*
X11109886Y6537886D01*
X11129250Y6523027D01*
X11151800Y6513686D01*
X11176000Y6510500D01*
X11200200Y6513686D01*
X11222750Y6523027D01*
X11242114Y6537886D01*
X11256973Y6557250D01*
X11266314Y6579800D01*
X11269500Y6604000D01*
X11266314Y6628200D01*
X11256973Y6650750D01*
X11242114Y6670114D01*
X11222750Y6684973D01*
X11200200Y6694314D01*
X11176000Y6697500D01*
D02*
G37*
G36*
X9144000D02*
X9119800Y6694314D01*
X9097250Y6684973D01*
X9077886Y6670114D01*
X9063027Y6650750D01*
X9053686Y6628200D01*
X9050500Y6604000D01*
X9053686Y6579800D01*
X9063027Y6557250D01*
X9077886Y6537886D01*
X9097250Y6523027D01*
X9119800Y6513686D01*
X9144000Y6510500D01*
X9168200Y6513686D01*
X9190750Y6523027D01*
X9210114Y6537886D01*
X9224973Y6557250D01*
X9234314Y6579800D01*
X9237500Y6604000D01*
X9234314Y6628200D01*
X9224973Y6650750D01*
X9210114Y6670114D01*
X9190750Y6684973D01*
X9168200Y6694314D01*
X9144000Y6697500D01*
D02*
G37*
G36*
X11176000Y6443500D02*
X11151800Y6440314D01*
X11129250Y6430973D01*
X11109886Y6416114D01*
X11095027Y6396750D01*
X11085686Y6374200D01*
X11082500Y6350000D01*
X11085686Y6325800D01*
X11095027Y6303250D01*
X11109886Y6283886D01*
X11129250Y6269027D01*
X11151800Y6259686D01*
X11176000Y6256500D01*
X11200200Y6259686D01*
X11222750Y6269027D01*
X11242114Y6283886D01*
X11256973Y6303250D01*
X11266314Y6325800D01*
X11269500Y6350000D01*
X11266314Y6374200D01*
X11256973Y6396750D01*
X11242114Y6416114D01*
X11222750Y6430973D01*
X11200200Y6440314D01*
X11176000Y6443500D01*
D02*
G37*
G36*
X9144000D02*
X9119800Y6440314D01*
X9097250Y6430973D01*
X9077886Y6416114D01*
X9063027Y6396750D01*
X9053686Y6374200D01*
X9050500Y6350000D01*
X9053686Y6325800D01*
X9063027Y6303250D01*
X9077886Y6283886D01*
X9097250Y6269027D01*
X9119800Y6259686D01*
X9144000Y6256500D01*
X9168200Y6259686D01*
X9190750Y6269027D01*
X9210114Y6283886D01*
X9224973Y6303250D01*
X9234314Y6325800D01*
X9237500Y6350000D01*
X9234314Y6374200D01*
X9224973Y6396750D01*
X9210114Y6416114D01*
X9190750Y6430973D01*
X9168200Y6440314D01*
X9144000Y6443500D01*
D02*
G37*
G36*
X11176000Y6189500D02*
X11151800Y6186314D01*
X11129250Y6176973D01*
X11109886Y6162114D01*
X11095027Y6142750D01*
X11085686Y6120200D01*
X11082500Y6096000D01*
X11085686Y6071800D01*
X11095027Y6049250D01*
X11109886Y6029886D01*
X11129250Y6015027D01*
X11151800Y6005686D01*
X11176000Y6002500D01*
X11200200Y6005686D01*
X11222750Y6015027D01*
X11242114Y6029886D01*
X11256973Y6049250D01*
X11266314Y6071800D01*
X11269500Y6096000D01*
X11266314Y6120200D01*
X11256973Y6142750D01*
X11242114Y6162114D01*
X11222750Y6176973D01*
X11200200Y6186314D01*
X11176000Y6189500D01*
D02*
G37*
G36*
Y5935500D02*
X11151800Y5932314D01*
X11129250Y5922973D01*
X11109886Y5908114D01*
X11095027Y5888750D01*
X11085686Y5866200D01*
X11082500Y5842000D01*
X11085686Y5817800D01*
X11095027Y5795250D01*
X11109886Y5775886D01*
X11129250Y5761027D01*
X11151800Y5751686D01*
X11176000Y5748500D01*
X11200200Y5751686D01*
X11222750Y5761027D01*
X11242114Y5775886D01*
X11256973Y5795250D01*
X11266314Y5817800D01*
X11269500Y5842000D01*
X11266314Y5866200D01*
X11256973Y5888750D01*
X11242114Y5908114D01*
X11222750Y5922973D01*
X11200200Y5932314D01*
X11176000Y5935500D01*
D02*
G37*
G36*
Y5681500D02*
X11151800Y5678314D01*
X11129250Y5668973D01*
X11109886Y5654114D01*
X11095027Y5634750D01*
X11085686Y5612200D01*
X11082500Y5588000D01*
X11085686Y5563800D01*
X11095027Y5541250D01*
X11109886Y5521886D01*
X11129250Y5507027D01*
X11151800Y5497686D01*
X11176000Y5494500D01*
X11200200Y5497686D01*
X11222750Y5507027D01*
X11242114Y5521886D01*
X11256973Y5541250D01*
X11266314Y5563800D01*
X11269500Y5588000D01*
X11266314Y5612200D01*
X11256973Y5634750D01*
X11242114Y5654114D01*
X11222750Y5668973D01*
X11200200Y5678314D01*
X11176000Y5681500D01*
D02*
G37*
%LPD*%
D17*
Y7874000D02*
D03*
Y7620000D02*
D03*
Y7366000D02*
D03*
Y7112000D02*
D03*
Y6858000D02*
D03*
Y6604000D02*
D03*
Y6350000D02*
D03*
Y6096000D02*
D03*
Y5842000D02*
D03*
Y5588000D02*
D03*
X9144000Y7874000D02*
D03*
Y7620000D02*
D03*
Y7366000D02*
D03*
Y7112000D02*
D03*
Y6858000D02*
D03*
Y6604000D02*
D03*
Y6350000D02*
D03*
Y6096000D02*
D03*
Y5842000D02*
D03*
Y5588000D02*
D03*
D18*
X10617200Y7772400D02*
D03*
X9702800Y7772398D02*
D03*
X10851200Y6941500D02*
D03*
X9476740D02*
D03*
Y7036500D02*
D03*
X9632366Y6650626D02*
D03*
X9565000Y6845300D02*
D03*
X10755000D02*
D03*
X9817100Y7099300D02*
D03*
X10502900D02*
D03*
Y7772399D02*
D03*
X9817100D02*
D03*
Y7660216D02*
D03*
X9931400Y7099300D02*
D03*
X10045700D02*
D03*
X10160000D02*
D03*
X10274300Y7772400D02*
D03*
X10160000D02*
D03*
X10045700D02*
D03*
X9931400D02*
D03*
X10388600D02*
D03*
X10502900Y7660216D02*
D03*
Y7548033D02*
D03*
Y7435849D02*
D03*
Y7323666D02*
D03*
Y7211483D02*
D03*
X10388600Y7099300D02*
D03*
X10274300D02*
D03*
X9817100Y7211483D02*
D03*
Y7323666D02*
D03*
Y7435849D02*
D03*
Y7548033D02*
D03*
X9760000Y6697819D02*
D03*
X10012410Y6765297D02*
D03*
X10149711Y6782851D02*
D03*
X10178996Y6640391D02*
D03*
X10308178Y6643765D02*
D03*
X9403680Y7276500D02*
D03*
X9417700Y7436500D02*
D03*
X9388048Y7577716D02*
D03*
%TF.MD5,098f41b3d0ea308edbc5786a94314512*%
M02*
