%TF.GenerationSoftware,Altium Limited,Altium Designer,20.1.8 (145)*%
G04 Layer_Physical_Order=1*
G04 Layer_Color=2232046*
%FSLAX45Y45*%
%MOMM*%
%TF.SameCoordinates,58819124-5082-48BE-93C4-8F50621AB512*%
%TF.FilePolarity,Positive*%
%TF.FileFunction,Copper,L1,Top,Signal*%
%TF.Part,Single*%
G01*
G75*
%TA.AperFunction,ConnectorPad*%
%ADD10R,0.80000X0.40000*%
%ADD11R,0.40000X0.80000*%
%TA.AperFunction,BGAPad,CuDef*%
%ADD12R,1.45000X1.45000*%
%TA.AperFunction,SMDPad,CuDef*%
%ADD13R,0.60000X0.60000*%
%ADD14R,0.70000X0.70000*%
%TA.AperFunction,Conductor*%
%ADD15C,0.12700*%
%ADD16C,0.38100*%
%TA.AperFunction,ComponentPad*%
%ADD17C,1.60000*%
%TA.AperFunction,ViaPad*%
%ADD18C,0.80000*%
G36*
X11340604Y5423396D02*
X8979396D01*
Y8038604D01*
X9486254D01*
Y7996500D01*
X9490280Y7986780D01*
X9500000Y7982753D01*
X10820000D01*
X10829720Y7986780D01*
X10833746Y7996500D01*
Y8038604D01*
X11340604D01*
Y5423396D01*
D02*
G37*
%LPC*%
G36*
X10802700Y7869200D02*
X10697300D01*
Y7803800D01*
X10802700D01*
Y7869200D01*
D02*
G37*
G36*
X11176000Y7967500D02*
X11151800Y7964314D01*
X11129250Y7954973D01*
X11109886Y7940114D01*
X11095027Y7920750D01*
X11085686Y7898200D01*
X11082500Y7874000D01*
X11085686Y7849800D01*
X11095027Y7827250D01*
X11097954Y7823435D01*
X10824092Y7549573D01*
X10763650D01*
X10761774Y7549200D01*
X10697300D01*
Y7483800D01*
X10802700D01*
Y7510727D01*
X10832138D01*
X10839571Y7512205D01*
X10845872Y7516416D01*
X11125421Y7795965D01*
X11129250Y7793027D01*
X11151800Y7783686D01*
X11176000Y7780500D01*
X11200200Y7783686D01*
X11222750Y7793027D01*
X11242114Y7807886D01*
X11256973Y7827250D01*
X11266314Y7849800D01*
X11269500Y7874000D01*
X11266314Y7898200D01*
X11256973Y7920750D01*
X11242114Y7940114D01*
X11222750Y7954973D01*
X11200200Y7964314D01*
X11176000Y7967500D01*
D02*
G37*
G36*
X10802700Y7789200D02*
X10697300D01*
Y7723800D01*
X10802700D01*
Y7789200D01*
D02*
G37*
G36*
Y7709200D02*
X10697300D01*
Y7643800D01*
X10802700D01*
Y7709200D01*
D02*
G37*
G36*
X9144000Y7967500D02*
X9119800Y7964314D01*
X9097250Y7954973D01*
X9077886Y7940114D01*
X9063027Y7920750D01*
X9053686Y7898200D01*
X9050500Y7874000D01*
X9053686Y7849800D01*
X9063027Y7827250D01*
X9077886Y7807886D01*
X9097250Y7793027D01*
X9119800Y7783686D01*
X9144000Y7780500D01*
X9168200Y7783686D01*
X9182577Y7789642D01*
X9318610Y7653610D01*
X9329112Y7646592D01*
X9341500Y7644128D01*
X9517300D01*
Y7643800D01*
X9622700D01*
Y7709200D01*
X9517300D01*
Y7708872D01*
X9354909D01*
X9228358Y7835423D01*
X9234314Y7849800D01*
X9237500Y7874000D01*
X9234314Y7898200D01*
X9224973Y7920750D01*
X9210114Y7940114D01*
X9190750Y7954973D01*
X9168200Y7964314D01*
X9144000Y7967500D01*
D02*
G37*
G36*
X10802700Y7629200D02*
X10697300D01*
Y7563800D01*
X10802700D01*
Y7629200D01*
D02*
G37*
G36*
X9622700D02*
X9517300D01*
Y7563800D01*
X9622700D01*
Y7629200D01*
D02*
G37*
G36*
X11176000Y7713500D02*
X11151800Y7710314D01*
X11129250Y7700973D01*
X11109886Y7686114D01*
X11095027Y7666750D01*
X11085686Y7644200D01*
X11082500Y7620000D01*
X11085686Y7595800D01*
X11095027Y7573250D01*
X11097960Y7569428D01*
X10984455Y7455923D01*
X10802700D01*
Y7469200D01*
X10697300D01*
Y7403800D01*
X10802700D01*
Y7417077D01*
X10992500D01*
X10999933Y7418555D01*
X11006234Y7422766D01*
X11125428Y7541960D01*
X11129250Y7539027D01*
X11151800Y7529686D01*
X11176000Y7526500D01*
X11200200Y7529686D01*
X11222750Y7539027D01*
X11242114Y7553886D01*
X11256973Y7573250D01*
X11266314Y7595800D01*
X11269500Y7620000D01*
X11266314Y7644200D01*
X11256973Y7666750D01*
X11242114Y7686114D01*
X11222750Y7700973D01*
X11200200Y7710314D01*
X11176000Y7713500D01*
D02*
G37*
G36*
X9388048Y7631448D02*
X9367486Y7627358D01*
X9350054Y7615710D01*
X9338406Y7598278D01*
X9334316Y7577716D01*
X9338406Y7557153D01*
X9350054Y7539721D01*
X9367486Y7528073D01*
X9388048Y7523983D01*
X9408611Y7528073D01*
X9409577Y7528719D01*
X9435530Y7502766D01*
X9441831Y7498555D01*
X9449264Y7497077D01*
X9517300D01*
Y7483800D01*
X9622700D01*
Y7549200D01*
X9517300D01*
Y7535923D01*
X9457309D01*
X9437045Y7556187D01*
X9437691Y7557153D01*
X9441781Y7577716D01*
X9437691Y7598278D01*
X9426043Y7615710D01*
X9408611Y7627358D01*
X9388048Y7631448D01*
D02*
G37*
G36*
X9417700Y7490232D02*
X9397137Y7486142D01*
X9379705Y7474495D01*
X9368058Y7457063D01*
X9363968Y7436500D01*
X9368058Y7415937D01*
X9379705Y7398505D01*
X9397137Y7386858D01*
X9417700Y7382768D01*
X9438263Y7386858D01*
X9455695Y7398505D01*
X9467342Y7415937D01*
X9467569Y7417077D01*
X9517300D01*
Y7403800D01*
X9622700D01*
Y7469200D01*
X9517300D01*
Y7455923D01*
X9467569D01*
X9467342Y7457063D01*
X9455695Y7474495D01*
X9438263Y7486142D01*
X9417700Y7490232D01*
D02*
G37*
G36*
X10802700Y7389200D02*
X10697300D01*
Y7323800D01*
X10802700D01*
Y7389200D01*
D02*
G37*
G36*
X9622700D02*
X9517300D01*
Y7323800D01*
X9622700D01*
Y7389200D01*
D02*
G37*
G36*
X11176000Y7459500D02*
X11151800Y7456314D01*
X11129250Y7446973D01*
X11109886Y7432114D01*
X11095027Y7412750D01*
X11085686Y7390200D01*
X11082500Y7366000D01*
X11085686Y7341800D01*
X11095027Y7319250D01*
X11109886Y7299886D01*
X11129250Y7285027D01*
X11151800Y7275686D01*
X11176000Y7272500D01*
X11200200Y7275686D01*
X11222750Y7285027D01*
X11242114Y7299886D01*
X11256973Y7319250D01*
X11266314Y7341800D01*
X11269500Y7366000D01*
X11266314Y7390200D01*
X11256973Y7412750D01*
X11242114Y7432114D01*
X11222750Y7446973D01*
X11200200Y7456314D01*
X11176000Y7459500D01*
D02*
G37*
G36*
X10802700Y7309200D02*
X10697300D01*
Y7243800D01*
X10802700D01*
Y7309200D01*
D02*
G37*
G36*
X9403680Y7330232D02*
X9383117Y7326142D01*
X9365685Y7314495D01*
X9354038Y7297063D01*
X9349948Y7276500D01*
X9354038Y7255937D01*
X9365685Y7238505D01*
X9383117Y7226858D01*
X9403680Y7222768D01*
X9424243Y7226858D01*
X9441675Y7238505D01*
X9453322Y7255937D01*
X9453549Y7257077D01*
X9517300D01*
Y7243800D01*
X9622700D01*
Y7309200D01*
X9517300D01*
Y7295923D01*
X9453549D01*
X9453322Y7297063D01*
X9441675Y7314495D01*
X9424243Y7326142D01*
X9403680Y7330232D01*
D02*
G37*
G36*
X9622700Y7229200D02*
X9517300D01*
Y7163800D01*
X9622700D01*
Y7229200D01*
D02*
G37*
G36*
Y7149200D02*
X9517300D01*
Y7083800D01*
X9622700D01*
Y7149200D01*
D02*
G37*
G36*
X11176000Y7205500D02*
X11151800Y7202314D01*
X11129250Y7192973D01*
X11109886Y7178114D01*
X11095027Y7158750D01*
X11085686Y7136200D01*
X11082500Y7112000D01*
X11085686Y7087800D01*
X11095027Y7065250D01*
X11109886Y7045886D01*
X11129250Y7031027D01*
X11151800Y7021686D01*
X11176000Y7018500D01*
X11200200Y7021686D01*
X11222750Y7031027D01*
X11242114Y7045886D01*
X11256973Y7065250D01*
X11266314Y7087800D01*
X11269500Y7112000D01*
X11266314Y7136200D01*
X11256973Y7158750D01*
X11242114Y7178114D01*
X11222750Y7192973D01*
X11200200Y7202314D01*
X11176000Y7205500D01*
D02*
G37*
G36*
X10802700Y7069200D02*
X10697300D01*
Y7003800D01*
X10802700D01*
Y7069200D01*
D02*
G37*
G36*
X10672700Y6999200D02*
X10607300D01*
Y6893800D01*
X10672700D01*
Y6999200D01*
D02*
G37*
G36*
X10112700D02*
X10047300D01*
Y6893800D01*
X10112700D01*
Y6999200D01*
D02*
G37*
G36*
X9952700D02*
X9887300D01*
Y6893800D01*
X9952700D01*
Y6999200D01*
D02*
G37*
G36*
X11176000Y6951500D02*
X11151800Y6948314D01*
X11129250Y6938973D01*
X11109886Y6924114D01*
X11095027Y6904750D01*
X11085686Y6882200D01*
X11082500Y6858000D01*
X11085686Y6833800D01*
X11095027Y6811250D01*
X11109886Y6791886D01*
X11129250Y6777027D01*
X11151800Y6767686D01*
X11176000Y6764500D01*
X11200200Y6767686D01*
X11222750Y6777027D01*
X11242114Y6791886D01*
X11256973Y6811250D01*
X11266314Y6833800D01*
X11269500Y6858000D01*
X11266314Y6882200D01*
X11256973Y6904750D01*
X11242114Y6924114D01*
X11222750Y6938973D01*
X11200200Y6948314D01*
X11176000Y6951500D01*
D02*
G37*
G36*
X9144000D02*
X9119800Y6948314D01*
X9097250Y6938973D01*
X9077886Y6924114D01*
X9063027Y6904750D01*
X9053686Y6882200D01*
X9050500Y6858000D01*
X9053686Y6833800D01*
X9063027Y6811250D01*
X9077886Y6791886D01*
X9097250Y6777027D01*
X9119800Y6767686D01*
X9144000Y6764500D01*
X9168200Y6767686D01*
X9190750Y6777027D01*
X9210114Y6791886D01*
X9224973Y6811250D01*
X9234314Y6833800D01*
X9237500Y6858000D01*
X9234314Y6882200D01*
X9224973Y6904750D01*
X9210114Y6924114D01*
X9190750Y6938973D01*
X9168200Y6948314D01*
X9144000Y6951500D01*
D02*
G37*
G36*
X10192700Y6999200D02*
X10127300D01*
Y6893800D01*
X10130288D01*
Y6832719D01*
X10129148Y6832493D01*
X10111716Y6820845D01*
X10100069Y6803413D01*
X10095979Y6782851D01*
X10100069Y6762288D01*
X10111716Y6744856D01*
X10129148Y6733208D01*
X10149711Y6729118D01*
X10170274Y6733208D01*
X10187706Y6744856D01*
X10199353Y6762288D01*
X10203443Y6782851D01*
X10199353Y6803413D01*
X10187706Y6820845D01*
X10170274Y6832493D01*
X10169134Y6832719D01*
Y6893800D01*
X10192700D01*
Y6999200D01*
D02*
G37*
G36*
X10032700D02*
X9967300D01*
Y6893800D01*
X9992987D01*
Y6815165D01*
X9991847Y6814939D01*
X9974415Y6803291D01*
X9962767Y6785859D01*
X9958677Y6765297D01*
X9962767Y6744734D01*
X9974415Y6727302D01*
X9991847Y6715654D01*
X10012410Y6711564D01*
X10032972Y6715654D01*
X10050404Y6727302D01*
X10062052Y6744734D01*
X10066142Y6765297D01*
X10062052Y6785859D01*
X10050404Y6803291D01*
X10032972Y6814939D01*
X10031833Y6815165D01*
Y6893800D01*
X10032700D01*
Y6999200D01*
D02*
G37*
G36*
X10272700D02*
X10207300D01*
Y6893800D01*
X10220577D01*
Y6709440D01*
X10200524Y6689388D01*
X10199559Y6690033D01*
X10178996Y6694124D01*
X10158434Y6690033D01*
X10141002Y6678386D01*
X10129354Y6660954D01*
X10125264Y6640391D01*
X10129354Y6619829D01*
X10141002Y6602396D01*
X10158434Y6590749D01*
X10178996Y6586659D01*
X10199559Y6590749D01*
X10216991Y6602396D01*
X10228638Y6619829D01*
X10232729Y6640391D01*
X10228638Y6660954D01*
X10227993Y6661919D01*
X10253734Y6687661D01*
X10257945Y6693962D01*
X10259423Y6701395D01*
Y6893800D01*
X10272700D01*
Y6999200D01*
D02*
G37*
G36*
X9792700D02*
X9727300D01*
Y6893800D01*
X9740577D01*
Y6747688D01*
X9739437Y6747462D01*
X9722005Y6735814D01*
X9710358Y6718382D01*
X9706268Y6697819D01*
X9710358Y6677257D01*
X9722005Y6659825D01*
X9739437Y6648177D01*
X9760000Y6644087D01*
X9780563Y6648177D01*
X9797995Y6659825D01*
X9809642Y6677257D01*
X9813732Y6697819D01*
X9809642Y6718382D01*
X9797995Y6735814D01*
X9780563Y6747462D01*
X9779423Y6747688D01*
Y6893800D01*
X9792700D01*
Y6999200D01*
D02*
G37*
G36*
X9712700D02*
X9647300D01*
Y6893800D01*
X9660577D01*
Y6789470D01*
X9618632Y6747524D01*
X9614421Y6741223D01*
X9612943Y6733790D01*
Y6700495D01*
X9611803Y6700269D01*
X9594371Y6688621D01*
X9582724Y6671189D01*
X9578633Y6650626D01*
X9582724Y6630064D01*
X9594371Y6612632D01*
X9611803Y6600984D01*
X9632366Y6596894D01*
X9652928Y6600984D01*
X9670360Y6612632D01*
X9682008Y6630064D01*
X9686098Y6650626D01*
X9682008Y6671189D01*
X9670360Y6688621D01*
X9652928Y6700269D01*
X9651789Y6700495D01*
Y6725744D01*
X9693734Y6767690D01*
X9697945Y6773991D01*
X9699423Y6781424D01*
Y6893800D01*
X9712700D01*
Y6999200D01*
D02*
G37*
G36*
X10352700D02*
X10287300D01*
Y6893800D01*
X10288754D01*
Y6693634D01*
X10287615Y6693407D01*
X10270183Y6681760D01*
X10258535Y6664328D01*
X10254445Y6643765D01*
X10258535Y6623203D01*
X10270183Y6605771D01*
X10287615Y6594123D01*
X10308178Y6590033D01*
X10328740Y6594123D01*
X10346172Y6605771D01*
X10357820Y6623203D01*
X10361910Y6643765D01*
X10357820Y6664328D01*
X10346172Y6681760D01*
X10328740Y6693407D01*
X10327601Y6693634D01*
Y6893800D01*
X10352700D01*
Y6999200D01*
D02*
G37*
G36*
X9144000Y7713500D02*
X9119800Y7710314D01*
X9097250Y7700973D01*
X9077886Y7686114D01*
X9063027Y7666750D01*
X9053686Y7644200D01*
X9050500Y7620000D01*
X9053686Y7595800D01*
X9063027Y7573250D01*
X9077886Y7553886D01*
X9097250Y7539027D01*
X9119800Y7529686D01*
X9144000Y7526500D01*
X9168200Y7529686D01*
X9190750Y7539027D01*
X9194572Y7541960D01*
X9261737Y7474795D01*
Y7260510D01*
X9263215Y7253077D01*
X9267426Y7246775D01*
X9381307Y7132894D01*
Y6727921D01*
X9382785Y6720488D01*
X9386996Y6714187D01*
X9569162Y6532020D01*
X9569163Y6532019D01*
X9575464Y6527809D01*
X9582897Y6526331D01*
X10366214D01*
X10373648Y6527809D01*
X10379949Y6532019D01*
X10413734Y6565805D01*
X10417945Y6572106D01*
X10419423Y6579539D01*
Y6893800D01*
X10432700D01*
Y6999200D01*
X10367300D01*
Y6893800D01*
X10380577D01*
Y6587585D01*
X10358169Y6565177D01*
X9590942D01*
X9420153Y6735966D01*
Y7140940D01*
X9418675Y7148373D01*
X9414464Y7154674D01*
X9300583Y7268555D01*
Y7482840D01*
X9299105Y7490273D01*
X9294894Y7496574D01*
X9222040Y7569428D01*
X9224973Y7573250D01*
X9234314Y7595800D01*
X9237500Y7620000D01*
X9234314Y7644200D01*
X9224973Y7666750D01*
X9210114Y7686114D01*
X9190750Y7700973D01*
X9168200Y7710314D01*
X9144000Y7713500D01*
D02*
G37*
G36*
X11176000Y6697500D02*
X11151800Y6694314D01*
X11129250Y6684973D01*
X11109886Y6670114D01*
X11095027Y6650750D01*
X11085686Y6628200D01*
X11082500Y6604000D01*
X11085686Y6579800D01*
X11095027Y6557250D01*
X11109886Y6537886D01*
X11129250Y6523027D01*
X11151800Y6513686D01*
X11176000Y6510500D01*
X11200200Y6513686D01*
X11222750Y6523027D01*
X11242114Y6537886D01*
X11256973Y6557250D01*
X11266314Y6579800D01*
X11269500Y6604000D01*
X11266314Y6628200D01*
X11256973Y6650750D01*
X11242114Y6670114D01*
X11222750Y6684973D01*
X11200200Y6694314D01*
X11176000Y6697500D01*
D02*
G37*
G36*
X9144000Y7459500D02*
X9119800Y7456314D01*
X9097250Y7446973D01*
X9077886Y7432114D01*
X9063027Y7412750D01*
X9053686Y7390200D01*
X9050500Y7366000D01*
X9053686Y7341800D01*
X9063027Y7319250D01*
X9077886Y7299886D01*
X9097250Y7285027D01*
X9119800Y7275686D01*
X9144000Y7272500D01*
X9149087Y7273170D01*
X9149277Y7272217D01*
X9153487Y7265916D01*
X9319432Y7099970D01*
Y6684965D01*
X9320911Y6677532D01*
X9325121Y6671231D01*
X9568646Y6427707D01*
X9574947Y6423496D01*
X9582380Y6422018D01*
X10388224D01*
X10395657Y6423496D01*
X10401958Y6427707D01*
X10493734Y6519483D01*
X10497945Y6525785D01*
X10499424Y6533218D01*
X10499423Y6533219D01*
Y6893800D01*
X10512700D01*
Y6999200D01*
X10447300D01*
Y6893800D01*
X10460577D01*
Y6541263D01*
X10380178Y6460864D01*
X9590425D01*
X9358279Y6693011D01*
Y7108016D01*
X9356800Y7115449D01*
X9352590Y7121750D01*
X9198995Y7275345D01*
X9200099Y7292201D01*
X9210114Y7299886D01*
X9224973Y7319250D01*
X9234314Y7341800D01*
X9237500Y7366000D01*
X9234314Y7390200D01*
X9224973Y7412750D01*
X9210114Y7432114D01*
X9190750Y7446973D01*
X9168200Y7456314D01*
X9144000Y7459500D01*
D02*
G37*
G36*
Y7205500D02*
X9119800Y7202314D01*
X9097250Y7192973D01*
X9077886Y7178114D01*
X9063027Y7158750D01*
X9053686Y7136200D01*
X9050500Y7112000D01*
X9053686Y7087801D01*
X9063027Y7065251D01*
X9077886Y7045886D01*
X9097250Y7031027D01*
X9119800Y7021686D01*
X9144000Y7018501D01*
X9168200Y7021686D01*
X9190750Y7031027D01*
X9194572Y7033960D01*
X9256344Y6972188D01*
Y6626504D01*
X9257822Y6619071D01*
X9262033Y6612770D01*
X9564898Y6309905D01*
X9564899Y6309904D01*
X9571200Y6305694D01*
X9578633Y6304215D01*
X10422325D01*
X10429758Y6305694D01*
X10436059Y6309904D01*
X10573734Y6447579D01*
X10577945Y6453880D01*
X10579423Y6461313D01*
Y6893800D01*
X10592700D01*
Y6999200D01*
X10527300D01*
Y6893800D01*
X10540577D01*
Y6469359D01*
X10414280Y6343061D01*
X9586678D01*
X9295190Y6634550D01*
Y6980232D01*
X9295190Y6980233D01*
X9293712Y6987666D01*
X9289501Y6993967D01*
X9222040Y7061428D01*
X9224973Y7065251D01*
X9234314Y7087801D01*
X9237500Y7112000D01*
X9234314Y7136200D01*
X9224973Y7158750D01*
X9210114Y7178114D01*
X9190750Y7192973D01*
X9168200Y7202314D01*
X9144000Y7205500D01*
D02*
G37*
G36*
X11176000Y6443500D02*
X11151800Y6440314D01*
X11129250Y6430973D01*
X11109886Y6416114D01*
X11095027Y6396750D01*
X11085686Y6374200D01*
X11082500Y6350000D01*
X11085686Y6325800D01*
X11095027Y6303250D01*
X11109886Y6283886D01*
X11129250Y6269027D01*
X11151800Y6259686D01*
X11176000Y6256500D01*
X11200200Y6259686D01*
X11222750Y6269027D01*
X11242114Y6283886D01*
X11256973Y6303250D01*
X11266314Y6325800D01*
X11269500Y6350000D01*
X11266314Y6374200D01*
X11256973Y6396750D01*
X11242114Y6416114D01*
X11222750Y6430973D01*
X11200200Y6440314D01*
X11176000Y6443500D01*
D02*
G37*
G36*
X10802700Y7149200D02*
X10697300D01*
Y7083800D01*
X10802700D01*
Y7097077D01*
X10836462D01*
X10910334Y7023205D01*
Y6472088D01*
X10597068Y6158822D01*
X9616647D01*
X9222040Y6553428D01*
X9224973Y6557250D01*
X9234314Y6579800D01*
X9237500Y6604000D01*
X9234314Y6628200D01*
X9224973Y6650750D01*
X9210114Y6670114D01*
X9190750Y6684973D01*
X9168200Y6694314D01*
X9144000Y6697500D01*
X9119800Y6694314D01*
X9097250Y6684973D01*
X9077886Y6670114D01*
X9063027Y6650750D01*
X9053686Y6628200D01*
X9050500Y6604000D01*
X9053686Y6579800D01*
X9063027Y6557250D01*
X9077886Y6537886D01*
X9097250Y6523027D01*
X9119800Y6513686D01*
X9144000Y6510500D01*
X9168200Y6513686D01*
X9190750Y6523027D01*
X9194572Y6525960D01*
X9594867Y6125665D01*
X9594867Y6125664D01*
X9601169Y6121454D01*
X9608602Y6119975D01*
X9608603Y6119975D01*
X10605113D01*
X10612546Y6121454D01*
X10618847Y6125664D01*
X10943491Y6450308D01*
X10947702Y6456609D01*
X10949180Y6464042D01*
Y7031249D01*
X10949181Y7031250D01*
X10947702Y7038683D01*
X10943491Y7044985D01*
X10858242Y7130234D01*
X10851941Y7134444D01*
X10844508Y7135923D01*
X10802700D01*
Y7149200D01*
D02*
G37*
G36*
Y7229200D02*
X10697300D01*
Y7163800D01*
X10802700D01*
Y7177077D01*
X10872635D01*
X10972525Y7077186D01*
Y6351059D01*
X10624692Y6003226D01*
X9518243D01*
X9222040Y6299428D01*
X9224973Y6303250D01*
X9234314Y6325800D01*
X9237500Y6350000D01*
X9234314Y6374200D01*
X9224973Y6396750D01*
X9210114Y6416114D01*
X9190750Y6430973D01*
X9168200Y6440314D01*
X9144000Y6443500D01*
X9119800Y6440314D01*
X9097250Y6430973D01*
X9077886Y6416114D01*
X9063027Y6396750D01*
X9053686Y6374200D01*
X9050500Y6350000D01*
X9053686Y6325800D01*
X9063027Y6303250D01*
X9077886Y6283886D01*
X9097250Y6269027D01*
X9119800Y6259686D01*
X9144000Y6256500D01*
X9168200Y6259686D01*
X9190750Y6269027D01*
X9194572Y6271960D01*
X9496463Y5970068D01*
X9502765Y5965858D01*
X9510197Y5964379D01*
X10632738D01*
X10640171Y5965858D01*
X10646472Y5970068D01*
X11005682Y6329279D01*
X11005683Y6329279D01*
X11009893Y6335581D01*
X11011372Y6343013D01*
Y7085231D01*
X11009893Y7092664D01*
X11005683Y7098966D01*
X11005682Y7098966D01*
X10894414Y7210234D01*
X10888113Y7214445D01*
X10880680Y7215923D01*
X10802700D01*
Y7229200D01*
D02*
G37*
G36*
X11176000Y6189500D02*
X11151800Y6186314D01*
X11129250Y6176973D01*
X11109886Y6162114D01*
X11095027Y6142750D01*
X11085686Y6120200D01*
X11082500Y6096000D01*
X11085686Y6071800D01*
X11095027Y6049250D01*
X11109886Y6029886D01*
X11129250Y6015027D01*
X11151800Y6005686D01*
X11176000Y6002500D01*
X11200200Y6005686D01*
X11222750Y6015027D01*
X11242114Y6029886D01*
X11256973Y6049250D01*
X11266314Y6071800D01*
X11269500Y6096000D01*
X11266314Y6120200D01*
X11256973Y6142750D01*
X11242114Y6162114D01*
X11222750Y6176973D01*
X11200200Y6186314D01*
X11176000Y6189500D01*
D02*
G37*
G36*
Y5935500D02*
X11151800Y5932314D01*
X11129250Y5922973D01*
X11109886Y5908114D01*
X11095027Y5888750D01*
X11085686Y5866200D01*
X11082500Y5842000D01*
X11085686Y5817800D01*
X11095027Y5795250D01*
X11109886Y5775886D01*
X11129250Y5761027D01*
X11151800Y5751686D01*
X11176000Y5748500D01*
X11200200Y5751686D01*
X11222750Y5761027D01*
X11242114Y5775886D01*
X11256973Y5795250D01*
X11266314Y5817800D01*
X11269500Y5842000D01*
X11266314Y5866200D01*
X11256973Y5888750D01*
X11242114Y5908114D01*
X11222750Y5922973D01*
X11200200Y5932314D01*
X11176000Y5935500D01*
D02*
G37*
G36*
Y5681500D02*
X11151800Y5678314D01*
X11129250Y5668973D01*
X11109886Y5654114D01*
X11095027Y5634750D01*
X11085686Y5612200D01*
X11082500Y5588000D01*
X11085686Y5563800D01*
X11095027Y5541250D01*
X11109886Y5521886D01*
X11129250Y5507027D01*
X11151800Y5497686D01*
X11176000Y5494500D01*
X11200200Y5497686D01*
X11222750Y5507027D01*
X11242114Y5521886D01*
X11256973Y5541250D01*
X11266314Y5563800D01*
X11269500Y5588000D01*
X11266314Y5612200D01*
X11256973Y5634750D01*
X11242114Y5654114D01*
X11222750Y5668973D01*
X11200200Y5678314D01*
X11176000Y5681500D01*
D02*
G37*
%LPD*%
D10*
X9570000Y7836500D02*
D03*
Y7756500D02*
D03*
Y7676500D02*
D03*
Y7596500D02*
D03*
Y7516500D02*
D03*
Y7436500D02*
D03*
Y7356500D02*
D03*
Y7276500D02*
D03*
Y7196500D02*
D03*
Y7116500D02*
D03*
Y7036500D02*
D03*
X10750000D02*
D03*
Y7116500D02*
D03*
Y7196500D02*
D03*
Y7276500D02*
D03*
Y7356500D02*
D03*
Y7436500D02*
D03*
Y7516500D02*
D03*
Y7596500D02*
D03*
Y7676500D02*
D03*
Y7756500D02*
D03*
Y7836500D02*
D03*
D11*
X9680000Y6946500D02*
D03*
X9760000D02*
D03*
X9840000D02*
D03*
X9920000D02*
D03*
X10000000D02*
D03*
X10080000D02*
D03*
X10160000D02*
D03*
X10240000D02*
D03*
X10320000D02*
D03*
X10400000D02*
D03*
X10480000D02*
D03*
X10560000D02*
D03*
X10640000D02*
D03*
Y7926500D02*
D03*
X10560000D02*
D03*
X10480000D02*
D03*
X10400000D02*
D03*
X10320000D02*
D03*
X10240000D02*
D03*
X10160000D02*
D03*
X10080000D02*
D03*
X10000000D02*
D03*
X9920000D02*
D03*
X9840000D02*
D03*
X9760000D02*
D03*
X9680000D02*
D03*
D12*
X10160000Y7436500D02*
D03*
X10357500Y7634000D02*
D03*
X10160000D02*
D03*
X9962500Y7436500D02*
D03*
Y7239000D02*
D03*
X10160000D02*
D03*
X10357500D02*
D03*
Y7436500D02*
D03*
D13*
X9962500Y7634000D02*
D03*
D14*
X9565000Y7931500D02*
D03*
Y6941500D02*
D03*
X10755000D02*
D03*
Y7931500D02*
D03*
D15*
X10832138Y7530150D02*
X11175988Y7874000D01*
X11176000D01*
X10763650Y7530150D02*
X10832138D01*
X10750000Y7516500D02*
X10763650Y7530150D01*
X10605113Y6139398D02*
X10929757Y6464042D01*
Y7031250D01*
X10844508Y7116500D02*
X10929757Y7031250D01*
X10991949Y6343013D02*
Y7085231D01*
X10632738Y5983803D02*
X10991949Y6343013D01*
X10880680Y7196500D02*
X10991949Y7085231D01*
X9281160Y7260510D02*
X9400730Y7140940D01*
Y6727921D02*
X9582897Y6545754D01*
X9400730Y6727921D02*
Y7140940D01*
X9632366Y6650626D02*
Y6733790D01*
X9680000Y6781424D02*
Y6946500D01*
X9632366Y6733790D02*
X9680000Y6781424D01*
X9760000Y6697819D02*
Y6946500D01*
X10560000Y6461313D02*
Y6946500D01*
X10422325Y6323638D02*
X10560000Y6461313D01*
X10388224Y6441441D02*
X10480000Y6533218D01*
Y6946500D01*
X9608602Y6139398D02*
X10605113D01*
X9144000Y6604000D02*
X9608602Y6139398D01*
X9144000Y6350000D02*
X9510197Y5983803D01*
X10632738D01*
X9582380Y6441441D02*
X10388224D01*
X9578633Y6323638D02*
X10422325D01*
X9338856Y6684965D02*
X9582380Y6441441D01*
X9275767Y6626504D02*
X9578633Y6323638D01*
X9582897Y6545754D02*
X10366214D01*
X10400000Y6579539D01*
Y6946500D01*
X9275767Y6626504D02*
Y6980233D01*
X9338856Y6684965D02*
Y7108016D01*
X9167221Y7279650D02*
X9338856Y7108016D01*
X9144000Y7112000D02*
X9275767Y6980233D01*
X9144000Y7366000D02*
X9167221Y7342779D01*
Y7279650D02*
Y7342779D01*
X9281160Y7260510D02*
Y7482840D01*
X10012410Y6765297D02*
Y6934090D01*
X10000000Y6946500D02*
X10012410Y6934090D01*
X10149711Y6782851D02*
Y6935071D01*
X10149141Y6935641D02*
X10149711Y6935071D01*
X10149141Y6935641D02*
X10160000Y6946500D01*
X10240000Y6701395D02*
Y6946500D01*
X10178996Y6640391D02*
X10240000Y6701395D01*
X10308178Y6643765D02*
Y6934678D01*
X10320000Y6946500D01*
X9403680Y7276500D02*
X9570000D01*
X9417700Y7436500D02*
X9570000D01*
X9449264Y7516500D02*
X9570000D01*
X9388048Y7577716D02*
X9449264Y7516500D01*
X9144000Y7620000D02*
X9281160Y7482840D01*
X10750000Y7116500D02*
X10844508D01*
X10750000Y7196500D02*
X10880680D01*
X10992500Y7436500D02*
X11176000Y7620000D01*
X10750000Y7436500D02*
X10992500D01*
D16*
X9144000Y7874000D02*
X9341500Y7676500D01*
X9570000D01*
D17*
X11176000Y7874000D02*
D03*
Y7620000D02*
D03*
Y7366000D02*
D03*
Y7112000D02*
D03*
Y6858000D02*
D03*
Y6604000D02*
D03*
Y6350000D02*
D03*
Y6096000D02*
D03*
Y5842000D02*
D03*
Y5588000D02*
D03*
X9144000Y7874000D02*
D03*
Y7620000D02*
D03*
Y7366000D02*
D03*
Y7112000D02*
D03*
Y6858000D02*
D03*
Y6604000D02*
D03*
Y6350000D02*
D03*
Y6096000D02*
D03*
Y5842000D02*
D03*
Y5588000D02*
D03*
D18*
X10617200Y7772400D02*
D03*
X9702800Y7772398D02*
D03*
X10851200Y6941500D02*
D03*
X9476740D02*
D03*
Y7036500D02*
D03*
X9632366Y6650626D02*
D03*
X9565000Y6845300D02*
D03*
X10755000D02*
D03*
X9817100Y7099300D02*
D03*
X10502900D02*
D03*
Y7772399D02*
D03*
X9817100D02*
D03*
Y7660216D02*
D03*
X9931400Y7099300D02*
D03*
X10045700D02*
D03*
X10160000D02*
D03*
X10274300Y7772400D02*
D03*
X10160000D02*
D03*
X10045700D02*
D03*
X9931400D02*
D03*
X10388600D02*
D03*
X10502900Y7660216D02*
D03*
Y7548033D02*
D03*
Y7435849D02*
D03*
Y7323666D02*
D03*
Y7211483D02*
D03*
X10388600Y7099300D02*
D03*
X10274300D02*
D03*
X9817100Y7211483D02*
D03*
Y7323666D02*
D03*
Y7435849D02*
D03*
Y7548033D02*
D03*
X9760000Y6697819D02*
D03*
X10012410Y6765297D02*
D03*
X10149711Y6782851D02*
D03*
X10178996Y6640391D02*
D03*
X10308178Y6643765D02*
D03*
X9403680Y7276500D02*
D03*
X9417700Y7436500D02*
D03*
X9388048Y7577716D02*
D03*
%TF.MD5,aca09905e20cdb15a5acbf7ec8fd09c6*%
M02*
