%TF.GenerationSoftware,Altium Limited,Altium Designer,20.1.8 (145)*%
G04 Layer_Physical_Order=4*
G04 Layer_Color=16728128*
%FSLAX45Y45*%
%MOMM*%
%TF.SameCoordinates,58819124-5082-48BE-93C4-8F50621AB512*%
%TF.FilePolarity,Positive*%
%TF.FileFunction,Copper,L4,Bot,Signal*%
%TF.Part,Single*%
G01*
G75*
%TA.AperFunction,Conductor*%
%ADD15C,0.12700*%
%TA.AperFunction,ComponentPad*%
%ADD17C,1.60000*%
%TA.AperFunction,ViaPad*%
%ADD18C,0.80000*%
G36*
X11340604Y5423396D02*
X8979396D01*
Y8038604D01*
X9486254D01*
Y7996500D01*
X9490280Y7986780D01*
X9500000Y7982753D01*
X10820000D01*
X10829720Y7986780D01*
X10833746Y7996500D01*
Y8038604D01*
X11340604D01*
Y5423396D01*
D02*
G37*
%LPC*%
G36*
X11176000Y7967500D02*
X11151800Y7964314D01*
X11129250Y7954973D01*
X11109886Y7940114D01*
X11095027Y7920750D01*
X11085686Y7898200D01*
X11082500Y7874000D01*
X11085686Y7849800D01*
X11095027Y7827250D01*
X11109886Y7807886D01*
X11129250Y7793027D01*
X11151800Y7783686D01*
X11176000Y7780500D01*
X11200200Y7783686D01*
X11222750Y7793027D01*
X11242114Y7807886D01*
X11256973Y7827250D01*
X11266314Y7849800D01*
X11269500Y7874000D01*
X11266314Y7898200D01*
X11256973Y7920750D01*
X11242114Y7940114D01*
X11222750Y7954973D01*
X11200200Y7964314D01*
X11176000Y7967500D01*
D02*
G37*
G36*
X9144000D02*
X9119800Y7964314D01*
X9097250Y7954973D01*
X9077886Y7940114D01*
X9063027Y7920750D01*
X9053686Y7898200D01*
X9050500Y7874000D01*
X9053686Y7849800D01*
X9063027Y7827250D01*
X9077886Y7807886D01*
X9097250Y7793027D01*
X9119800Y7783686D01*
X9144000Y7780500D01*
X9168200Y7783686D01*
X9190750Y7793027D01*
X9210114Y7807886D01*
X9224973Y7827250D01*
X9234314Y7849800D01*
X9237500Y7874000D01*
X9234314Y7898200D01*
X9224973Y7920750D01*
X9210114Y7940114D01*
X9190750Y7954973D01*
X9168200Y7964314D01*
X9144000Y7967500D01*
D02*
G37*
G36*
X11176000Y7713500D02*
X11151800Y7710314D01*
X11129250Y7700973D01*
X11109886Y7686114D01*
X11095027Y7666750D01*
X11085686Y7644200D01*
X11082500Y7620000D01*
X11085686Y7595800D01*
X11095027Y7573250D01*
X11109886Y7553886D01*
X11129250Y7539027D01*
X11151800Y7529686D01*
X11176000Y7526500D01*
X11200200Y7529686D01*
X11222750Y7539027D01*
X11242114Y7553886D01*
X11256973Y7573250D01*
X11266314Y7595800D01*
X11269500Y7620000D01*
X11266314Y7644200D01*
X11256973Y7666750D01*
X11242114Y7686114D01*
X11222750Y7700973D01*
X11200200Y7710314D01*
X11176000Y7713500D01*
D02*
G37*
G36*
X9144000D02*
X9119800Y7710314D01*
X9097250Y7700973D01*
X9077886Y7686114D01*
X9063027Y7666750D01*
X9053686Y7644200D01*
X9050500Y7620000D01*
X9053686Y7595800D01*
X9063027Y7573250D01*
X9077886Y7553886D01*
X9097250Y7539027D01*
X9119800Y7529686D01*
X9144000Y7526500D01*
X9168200Y7529686D01*
X9190750Y7539027D01*
X9210114Y7553886D01*
X9224973Y7573250D01*
X9234314Y7595800D01*
X9237500Y7620000D01*
X9234314Y7644200D01*
X9224973Y7666750D01*
X9210114Y7686114D01*
X9190750Y7700973D01*
X9168200Y7710314D01*
X9144000Y7713500D01*
D02*
G37*
G36*
X11176000Y7459500D02*
X11151800Y7456314D01*
X11129250Y7446973D01*
X11109886Y7432114D01*
X11095027Y7412750D01*
X11085686Y7390200D01*
X11082500Y7366000D01*
X11085686Y7341800D01*
X11095027Y7319250D01*
X11097960Y7315428D01*
X10900748Y7118217D01*
X10896538Y7111916D01*
X10895059Y7104483D01*
Y6877785D01*
X10680463Y6663188D01*
X10358046D01*
X10357820Y6664328D01*
X10346172Y6681760D01*
X10328740Y6693407D01*
X10308178Y6697498D01*
X10287615Y6693407D01*
X10270183Y6681760D01*
X10258535Y6664328D01*
X10254445Y6643765D01*
X10258535Y6623203D01*
X10270183Y6605771D01*
X10287615Y6594123D01*
X10308178Y6590033D01*
X10328740Y6594123D01*
X10346172Y6605771D01*
X10357820Y6623203D01*
X10358046Y6624342D01*
X10688508D01*
X10695941Y6625821D01*
X10702242Y6630031D01*
X10928217Y6856006D01*
X10932427Y6862307D01*
X10933906Y6869740D01*
Y7096437D01*
X11125428Y7287960D01*
X11129250Y7285027D01*
X11151800Y7275686D01*
X11176000Y7272500D01*
X11200200Y7275686D01*
X11222750Y7285027D01*
X11242114Y7299886D01*
X11256973Y7319250D01*
X11266314Y7341800D01*
X11269500Y7366000D01*
X11266314Y7390200D01*
X11256973Y7412750D01*
X11242114Y7432114D01*
X11222750Y7446973D01*
X11200200Y7456314D01*
X11176000Y7459500D01*
D02*
G37*
G36*
X9144000D02*
X9119800Y7456314D01*
X9097250Y7446973D01*
X9077886Y7432114D01*
X9063027Y7412750D01*
X9053686Y7390200D01*
X9050500Y7366000D01*
X9053686Y7341800D01*
X9063027Y7319250D01*
X9077886Y7299886D01*
X9097250Y7285027D01*
X9119800Y7275686D01*
X9144000Y7272500D01*
X9168200Y7275686D01*
X9190750Y7285027D01*
X9210114Y7299886D01*
X9224973Y7319250D01*
X9234314Y7341800D01*
X9237500Y7366000D01*
X9234314Y7390200D01*
X9224973Y7412750D01*
X9210114Y7432114D01*
X9190750Y7446973D01*
X9168200Y7456314D01*
X9144000Y7459500D01*
D02*
G37*
G36*
Y7205500D02*
X9119800Y7202314D01*
X9097250Y7192973D01*
X9077886Y7178114D01*
X9063027Y7158750D01*
X9053686Y7136200D01*
X9050500Y7112000D01*
X9053686Y7087801D01*
X9063027Y7065251D01*
X9077886Y7045886D01*
X9097250Y7031027D01*
X9119800Y7021686D01*
X9144000Y7018501D01*
X9168200Y7021686D01*
X9190750Y7031027D01*
X9210114Y7045886D01*
X9224973Y7065251D01*
X9234314Y7087801D01*
X9237500Y7112000D01*
X9234314Y7136200D01*
X9224973Y7158750D01*
X9210114Y7178114D01*
X9190750Y7192973D01*
X9168200Y7202314D01*
X9144000Y7205500D01*
D02*
G37*
G36*
X11176000Y7205500D02*
X11151800Y7202314D01*
X11129250Y7192973D01*
X11109886Y7178114D01*
X11095027Y7158750D01*
X11085686Y7136200D01*
X11082500Y7112000D01*
X11085686Y7087800D01*
X11095027Y7065250D01*
X11097960Y7061428D01*
X10976457Y6939925D01*
X10972246Y6933624D01*
X10970768Y6926191D01*
Y6844206D01*
X10647712Y6521150D01*
X10325706D01*
X10227993Y6618863D01*
X10228638Y6619829D01*
X10232729Y6640391D01*
X10228638Y6660954D01*
X10216991Y6678386D01*
X10199559Y6690033D01*
X10178996Y6694124D01*
X10158434Y6690033D01*
X10141002Y6678386D01*
X10129354Y6660954D01*
X10125264Y6640391D01*
X10129354Y6619829D01*
X10141002Y6602396D01*
X10158434Y6590749D01*
X10178996Y6586659D01*
X10199559Y6590749D01*
X10200524Y6591394D01*
X10303926Y6487993D01*
X10310227Y6483782D01*
X10317660Y6482304D01*
X10655758D01*
X10663191Y6483782D01*
X10669492Y6487993D01*
X11003925Y6822426D01*
X11008135Y6828727D01*
X11009614Y6836160D01*
Y6918145D01*
X11125428Y7033960D01*
X11129250Y7031027D01*
X11151800Y7021686D01*
X11176000Y7018500D01*
X11200200Y7021686D01*
X11222750Y7031027D01*
X11242114Y7045886D01*
X11256973Y7065250D01*
X11266314Y7087800D01*
X11269500Y7112000D01*
X11266314Y7136200D01*
X11256973Y7158750D01*
X11242114Y7178114D01*
X11222750Y7192973D01*
X11200200Y7202314D01*
X11176000Y7205500D01*
D02*
G37*
G36*
Y6951500D02*
X11151800Y6948314D01*
X11129250Y6938973D01*
X11109886Y6924114D01*
X11095027Y6904750D01*
X11085686Y6882200D01*
X11082500Y6858000D01*
X11085686Y6833800D01*
X11095027Y6811250D01*
X11097960Y6807428D01*
X10740585Y6450053D01*
X10231933D01*
X10106506Y6575481D01*
Y6712035D01*
X10128268Y6733797D01*
X10129148Y6733208D01*
X10149711Y6729118D01*
X10170274Y6733208D01*
X10187706Y6744856D01*
X10199353Y6762288D01*
X10203443Y6782851D01*
X10199353Y6803413D01*
X10187706Y6820845D01*
X10170274Y6832493D01*
X10149711Y6836583D01*
X10129148Y6832493D01*
X10111716Y6820845D01*
X10100069Y6803413D01*
X10095979Y6782851D01*
X10100069Y6762288D01*
X10100771Y6761237D01*
X10073348Y6733814D01*
X10069138Y6727513D01*
X10067660Y6720080D01*
Y6567435D01*
X10069138Y6560002D01*
X10073348Y6553701D01*
X10210154Y6416896D01*
X10216455Y6412686D01*
X10223888Y6411207D01*
X10223889Y6411207D01*
X10748630D01*
X10756063Y6412686D01*
X10762365Y6416896D01*
X11125428Y6779960D01*
X11129250Y6777027D01*
X11151800Y6767686D01*
X11176000Y6764500D01*
X11200200Y6767686D01*
X11222750Y6777027D01*
X11242114Y6791886D01*
X11256973Y6811250D01*
X11266314Y6833800D01*
X11269500Y6858000D01*
X11266314Y6882200D01*
X11256973Y6904750D01*
X11242114Y6924114D01*
X11222750Y6938973D01*
X11200200Y6948314D01*
X11176000Y6951500D01*
D02*
G37*
G36*
X9484301Y7686745D02*
X9335391D01*
X9327957Y7685266D01*
X9321656Y7681056D01*
X9285318Y7644718D01*
X9281108Y7638417D01*
X9279630Y7630984D01*
Y7471254D01*
X9281108Y7463821D01*
X9285318Y7457520D01*
X9320072Y7422766D01*
X9320073Y7422766D01*
X9326374Y7418555D01*
X9333807Y7417077D01*
X9333808Y7417077D01*
X9367831D01*
X9368058Y7415937D01*
X9379705Y7398505D01*
X9397137Y7386858D01*
X9417700Y7382768D01*
X9438263Y7386858D01*
X9455695Y7398505D01*
X9467342Y7415937D01*
X9471432Y7436500D01*
X9467342Y7457063D01*
X9455695Y7474495D01*
X9438263Y7486142D01*
X9417700Y7490232D01*
X9397137Y7486142D01*
X9379705Y7474495D01*
X9368058Y7457063D01*
X9367831Y7455923D01*
X9341852D01*
X9318476Y7479299D01*
Y7622939D01*
X9343436Y7647899D01*
X9476256D01*
X9548565Y7575590D01*
Y7161322D01*
X9550043Y7153889D01*
X9554254Y7147588D01*
X9905359Y6796483D01*
Y6521384D01*
X9906837Y6513951D01*
X9911047Y6507650D01*
X10143994Y6274703D01*
X10150296Y6270492D01*
X10157729Y6269014D01*
X10860437D01*
X10867870Y6270492D01*
X10874171Y6274703D01*
X11125428Y6525960D01*
X11129250Y6523027D01*
X11151800Y6513686D01*
X11176000Y6510500D01*
X11200200Y6513686D01*
X11222750Y6523027D01*
X11242114Y6537886D01*
X11256973Y6557250D01*
X11266314Y6579800D01*
X11269500Y6604000D01*
X11266314Y6628200D01*
X11256973Y6650750D01*
X11242114Y6670114D01*
X11222750Y6684973D01*
X11200200Y6694314D01*
X11176000Y6697500D01*
X11151800Y6694314D01*
X11129250Y6684973D01*
X11109886Y6670114D01*
X11095027Y6650750D01*
X11085686Y6628200D01*
X11082500Y6604000D01*
X11085686Y6579800D01*
X11095027Y6557250D01*
X11097960Y6553428D01*
X10852392Y6307860D01*
X10165774D01*
X9944205Y6529429D01*
Y6804527D01*
X9944205Y6804528D01*
X9942726Y6811961D01*
X9938516Y6818262D01*
X9587411Y7169367D01*
Y7583635D01*
X9585933Y7591068D01*
X9581722Y7597369D01*
X9498036Y7681056D01*
X9491734Y7685266D01*
X9484301Y7686745D01*
D02*
G37*
G36*
X9144000Y6697500D02*
X9119800Y6694314D01*
X9097250Y6684973D01*
X9077886Y6670114D01*
X9063027Y6650750D01*
X9053686Y6628200D01*
X9050500Y6604000D01*
X9053686Y6579800D01*
X9063027Y6557250D01*
X9077886Y6537886D01*
X9097250Y6523027D01*
X9119800Y6513686D01*
X9144000Y6510500D01*
X9168200Y6513686D01*
X9190750Y6523027D01*
X9210114Y6537886D01*
X9224973Y6557250D01*
X9234314Y6579800D01*
X9237500Y6604000D01*
X9234314Y6628200D01*
X9224973Y6650750D01*
X9210114Y6670114D01*
X9190750Y6684973D01*
X9168200Y6694314D01*
X9144000Y6697500D01*
D02*
G37*
G36*
X9388048Y7631448D02*
X9367486Y7627358D01*
X9350054Y7615710D01*
X9338406Y7598278D01*
X9334316Y7577716D01*
X9338406Y7557153D01*
X9350054Y7539721D01*
X9367486Y7528073D01*
X9388048Y7523983D01*
X9408611Y7528073D01*
X9426043Y7539721D01*
X9437691Y7557153D01*
X9437917Y7558292D01*
X9460601D01*
X9490209Y7528684D01*
Y7135712D01*
X9491687Y7128279D01*
X9495898Y7121978D01*
X9833434Y6784442D01*
Y6474814D01*
X9834913Y6467381D01*
X9839123Y6461080D01*
X10099550Y6200652D01*
X10105852Y6196442D01*
X10113285Y6194963D01*
X11040386D01*
X11047819Y6196442D01*
X11054121Y6200652D01*
X11125428Y6271960D01*
X11129250Y6269027D01*
X11151800Y6259686D01*
X11176000Y6256500D01*
X11200200Y6259686D01*
X11222750Y6269027D01*
X11242114Y6283886D01*
X11256973Y6303250D01*
X11266314Y6325800D01*
X11269500Y6350000D01*
X11266314Y6374200D01*
X11256973Y6396750D01*
X11242114Y6416114D01*
X11222750Y6430973D01*
X11200200Y6440314D01*
X11176000Y6443500D01*
X11151800Y6440314D01*
X11129250Y6430973D01*
X11109886Y6416114D01*
X11095027Y6396750D01*
X11085686Y6374200D01*
X11082500Y6350000D01*
X11085686Y6325800D01*
X11095027Y6303250D01*
X11097960Y6299428D01*
X11032341Y6233809D01*
X10121330D01*
X9872280Y6482859D01*
Y6792486D01*
X9872280Y6792487D01*
X9870802Y6799920D01*
X9866591Y6806221D01*
X9866591Y6806222D01*
X9529055Y7143758D01*
Y7536730D01*
X9527577Y7544163D01*
X9523366Y7550464D01*
X9482380Y7591450D01*
X9476079Y7595660D01*
X9468646Y7597139D01*
X9437917D01*
X9437691Y7598278D01*
X9426043Y7615710D01*
X9408611Y7627358D01*
X9388048Y7631448D01*
D02*
G37*
G36*
X9144000Y6443500D02*
X9119800Y6440314D01*
X9097250Y6430973D01*
X9077886Y6416114D01*
X9063027Y6396750D01*
X9053686Y6374200D01*
X9050500Y6350000D01*
X9053686Y6325800D01*
X9063027Y6303250D01*
X9077886Y6283886D01*
X9097250Y6269027D01*
X9119800Y6259686D01*
X9144000Y6256500D01*
X9168200Y6259686D01*
X9190750Y6269027D01*
X9210114Y6283886D01*
X9224973Y6303250D01*
X9234314Y6325800D01*
X9237500Y6350000D01*
X9234314Y6374200D01*
X9224973Y6396750D01*
X9210114Y6416114D01*
X9190750Y6430973D01*
X9168200Y6440314D01*
X9144000Y6443500D01*
D02*
G37*
G36*
X9760000Y6751552D02*
X9739437Y6747462D01*
X9722005Y6735814D01*
X9710358Y6718382D01*
X9706268Y6697819D01*
X9710358Y6677257D01*
X9722005Y6659825D01*
X9739437Y6648177D01*
X9740577Y6647951D01*
Y6420541D01*
X9742055Y6413108D01*
X9746266Y6406807D01*
X10070806Y6082266D01*
X10070807Y6082266D01*
X10077108Y6078055D01*
X10084541Y6076577D01*
X11085057D01*
X11085686Y6071800D01*
X11095027Y6049250D01*
X11109886Y6029886D01*
X11129250Y6015027D01*
X11151800Y6005686D01*
X11176000Y6002500D01*
X11200200Y6005686D01*
X11222750Y6015027D01*
X11242114Y6029886D01*
X11256973Y6049250D01*
X11266314Y6071800D01*
X11269500Y6096000D01*
X11266314Y6120200D01*
X11256973Y6142750D01*
X11242114Y6162114D01*
X11222750Y6176973D01*
X11200200Y6186314D01*
X11176000Y6189500D01*
X11151800Y6186314D01*
X11129250Y6176973D01*
X11109886Y6162114D01*
X11095027Y6142750D01*
X11085686Y6120200D01*
X11085057Y6115423D01*
X10092586D01*
X9779423Y6428587D01*
Y6647951D01*
X9780563Y6648177D01*
X9797995Y6659825D01*
X9809642Y6677257D01*
X9813732Y6697819D01*
X9809642Y6718382D01*
X9797995Y6735814D01*
X9780563Y6747462D01*
X9760000Y6751552D01*
D02*
G37*
G36*
X9632366Y6704359D02*
X9611803Y6700269D01*
X9594371Y6688621D01*
X9582724Y6671189D01*
X9578633Y6650626D01*
X9582724Y6630064D01*
X9594371Y6612632D01*
X9611803Y6600984D01*
X9612943Y6600757D01*
Y6357180D01*
X9614421Y6349747D01*
X9618632Y6343446D01*
X10133812Y5828266D01*
X10140113Y5824055D01*
X10147546Y5822577D01*
X11085057D01*
X11085686Y5817800D01*
X11095027Y5795250D01*
X11109886Y5775886D01*
X11129250Y5761027D01*
X11151800Y5751686D01*
X11176000Y5748500D01*
X11200200Y5751686D01*
X11222750Y5761027D01*
X11242114Y5775886D01*
X11256973Y5795250D01*
X11266314Y5817800D01*
X11269500Y5842000D01*
X11266314Y5866200D01*
X11256973Y5888750D01*
X11242114Y5908114D01*
X11222750Y5922973D01*
X11200200Y5932314D01*
X11176000Y5935500D01*
X11151800Y5932314D01*
X11129250Y5922973D01*
X11109886Y5908114D01*
X11095027Y5888750D01*
X11085686Y5866200D01*
X11085057Y5861423D01*
X10155591D01*
X9651789Y6365226D01*
Y6600757D01*
X9652928Y6600984D01*
X9670360Y6612632D01*
X9682008Y6630064D01*
X9686098Y6650626D01*
X9682008Y6671189D01*
X9670360Y6688621D01*
X9652928Y6700269D01*
X9632366Y6704359D01*
D02*
G37*
G36*
X9403680Y7330232D02*
X9383117Y7326142D01*
X9365685Y7314495D01*
X9354038Y7297063D01*
X9349948Y7276500D01*
X9354038Y7255937D01*
X9365685Y7238505D01*
X9383117Y7226858D01*
X9384257Y7226631D01*
Y6395728D01*
X9385735Y6388295D01*
X9389946Y6381993D01*
X10197673Y5574266D01*
X10197673Y5574266D01*
X10203975Y5570055D01*
X10211408Y5568577D01*
X10211409Y5568577D01*
X11085057D01*
X11085686Y5563800D01*
X11095027Y5541250D01*
X11109886Y5521886D01*
X11129250Y5507027D01*
X11151800Y5497686D01*
X11176000Y5494500D01*
X11200200Y5497686D01*
X11222750Y5507027D01*
X11242114Y5521886D01*
X11256973Y5541250D01*
X11266314Y5563800D01*
X11269500Y5588000D01*
X11266314Y5612200D01*
X11256973Y5634750D01*
X11242114Y5654114D01*
X11222750Y5668973D01*
X11200200Y5678314D01*
X11176000Y5681500D01*
X11151800Y5678314D01*
X11129250Y5668973D01*
X11109886Y5654114D01*
X11095027Y5634750D01*
X11085686Y5612200D01*
X11085057Y5607423D01*
X10219453D01*
X9423103Y6403773D01*
Y7226631D01*
X9424243Y7226858D01*
X9441675Y7238505D01*
X9453322Y7255937D01*
X9457412Y7276500D01*
X9453322Y7297063D01*
X9441675Y7314495D01*
X9424243Y7326142D01*
X9403680Y7330232D01*
D02*
G37*
G36*
X9144000Y6951500D02*
X9119800Y6948314D01*
X9097250Y6938973D01*
X9077886Y6924114D01*
X9063027Y6904750D01*
X9053686Y6882200D01*
X9050500Y6858000D01*
X9053686Y6833800D01*
X9063027Y6811250D01*
X9077886Y6791886D01*
X9097250Y6777027D01*
X9119800Y6767686D01*
X9144000Y6764500D01*
X9168200Y6767686D01*
X9190750Y6777027D01*
X9194572Y6779960D01*
X9297297Y6677235D01*
Y5902960D01*
X9298775Y5895527D01*
X9302986Y5889226D01*
X9748826Y5443385D01*
X9755128Y5439175D01*
X9762561Y5437696D01*
X11222919D01*
X11230352Y5439175D01*
X11236654Y5443385D01*
X11315931Y5522662D01*
X11320141Y5528963D01*
X11321619Y5536396D01*
Y6670844D01*
X11320141Y6678277D01*
X11315931Y6684578D01*
X11254334Y6746175D01*
X11248032Y6750385D01*
X11240599Y6751864D01*
X11124040D01*
X11124039Y6751864D01*
X11116606Y6750385D01*
X11110305Y6746175D01*
X10745062Y6380932D01*
X10196383D01*
X10031833Y6545483D01*
Y6715428D01*
X10032972Y6715654D01*
X10050404Y6727302D01*
X10062052Y6744734D01*
X10066142Y6765297D01*
X10062052Y6785859D01*
X10050404Y6803291D01*
X10032972Y6814939D01*
X10012410Y6819029D01*
X9991847Y6814939D01*
X9974415Y6803291D01*
X9962767Y6785859D01*
X9958677Y6765297D01*
X9962767Y6744734D01*
X9974415Y6727302D01*
X9991847Y6715654D01*
X9992987Y6715428D01*
Y6537437D01*
X9994465Y6530004D01*
X9998675Y6523703D01*
X10174603Y6347775D01*
X10174604Y6347774D01*
X10180905Y6343564D01*
X10188338Y6342085D01*
X10188340Y6342086D01*
X10753107D01*
X10760540Y6343564D01*
X10766842Y6347774D01*
X11132085Y6713018D01*
X11232554D01*
X11282773Y6662798D01*
Y5544442D01*
X11214874Y5476543D01*
X9770606D01*
X9336143Y5911005D01*
Y6685280D01*
X9334665Y6692713D01*
X9330454Y6699014D01*
X9222040Y6807428D01*
X9224973Y6811250D01*
X9234314Y6833800D01*
X9237500Y6858000D01*
X9234314Y6882200D01*
X9224973Y6904750D01*
X9210114Y6924114D01*
X9190750Y6938973D01*
X9168200Y6948314D01*
X9144000Y6951500D01*
D02*
G37*
%LPD*%
D15*
X10914483Y7104483D02*
X11176000Y7366000D01*
X10688508Y6643765D02*
X10914483Y6869740D01*
Y7104483D01*
X9509632Y7135712D02*
X9852857Y6792487D01*
X9509632Y7135712D02*
Y7536730D01*
X9852857Y6474814D02*
Y6792487D01*
X9567988Y7161322D02*
Y7583635D01*
X9924782Y6521384D02*
Y6804528D01*
X9567988Y7161322D02*
X9924782Y6804528D01*
X9632366Y6357180D02*
Y6650626D01*
Y6357180D02*
X10147546Y5842000D01*
X9760000Y6420541D02*
X10084541Y6096000D01*
X9760000Y6420541D02*
Y6697819D01*
X10308178Y6643765D02*
X10688508D01*
X10223888Y6430630D02*
X10748630D01*
X10087083Y6567435D02*
X10223888Y6430630D01*
X10087083Y6567435D02*
Y6720080D01*
X10188338Y6361509D02*
X10753107D01*
X10012410Y6537437D02*
Y6765297D01*
Y6537437D02*
X10188338Y6361509D01*
X10157729Y6288437D02*
X10860437D01*
X9924782Y6521384D02*
X10157729Y6288437D01*
X10113285Y6214386D02*
X11040386D01*
X9852857Y6474814D02*
X10113285Y6214386D01*
X10084541Y6096000D02*
X11176000D01*
X10178996Y6640391D02*
X10317660Y6501727D01*
X10655758D02*
X10990191Y6836160D01*
X10317660Y6501727D02*
X10655758D01*
X10748630Y6430630D02*
X11176000Y6858000D01*
X10753107Y6361509D02*
X11124039Y6732441D01*
X10860437Y6288437D02*
X11176000Y6604000D01*
X11124039Y6732441D02*
X11240599D01*
X11302196Y6670844D01*
X9316720Y5902960D02*
X9762561Y5457119D01*
X11222919D02*
X11302196Y5536396D01*
X9762561Y5457119D02*
X11222919D01*
X11302196Y5536396D02*
Y6670844D01*
X9316720Y5902960D02*
Y6685280D01*
X9144000Y6858000D02*
X9316720Y6685280D01*
X11040386Y6214386D02*
X11176000Y6350000D01*
X10990191Y6836160D02*
Y6926191D01*
X11176000Y7112000D01*
X9333807Y7436500D02*
X9417700D01*
X9299053Y7471254D02*
Y7630984D01*
Y7471254D02*
X9333807Y7436500D01*
X9484301Y7667322D02*
X9567988Y7583635D01*
X10087083Y6720080D02*
X10149711Y6782708D01*
Y6782851D01*
X9388048Y7577716D02*
X9468646D01*
X9509632Y7536730D01*
X9335391Y7667322D02*
X9484301D01*
X9299053Y7630984D02*
X9335391Y7667322D01*
X10147546Y5842000D02*
X11176000D01*
X9403680Y6395728D02*
Y7276500D01*
Y6395728D02*
X10211408Y5588000D01*
X11176000D01*
X9403080Y7277100D02*
X9403680Y7276500D01*
D17*
X11176000Y7874000D02*
D03*
Y7620000D02*
D03*
Y7366000D02*
D03*
Y7112000D02*
D03*
Y6858000D02*
D03*
Y6604000D02*
D03*
Y6350000D02*
D03*
Y6096000D02*
D03*
Y5842000D02*
D03*
Y5588000D02*
D03*
X9144000Y7874000D02*
D03*
Y7620000D02*
D03*
Y7366000D02*
D03*
Y7112000D02*
D03*
Y6858000D02*
D03*
Y6604000D02*
D03*
Y6350000D02*
D03*
Y6096000D02*
D03*
Y5842000D02*
D03*
Y5588000D02*
D03*
D18*
X10617200Y7772400D02*
D03*
X9702800Y7772398D02*
D03*
X10851200Y6941500D02*
D03*
X9476740D02*
D03*
Y7036500D02*
D03*
X9632366Y6650626D02*
D03*
X9565000Y6845300D02*
D03*
X10755000D02*
D03*
X9817100Y7099300D02*
D03*
X10502900D02*
D03*
Y7772399D02*
D03*
X9817100D02*
D03*
Y7660216D02*
D03*
X9931400Y7099300D02*
D03*
X10045700D02*
D03*
X10160000D02*
D03*
X10274300Y7772400D02*
D03*
X10160000D02*
D03*
X10045700D02*
D03*
X9931400D02*
D03*
X10388600D02*
D03*
X10502900Y7660216D02*
D03*
Y7548033D02*
D03*
Y7435849D02*
D03*
Y7323666D02*
D03*
Y7211483D02*
D03*
X10388600Y7099300D02*
D03*
X10274300D02*
D03*
X9817100Y7211483D02*
D03*
Y7323666D02*
D03*
Y7435849D02*
D03*
Y7548033D02*
D03*
X9760000Y6697819D02*
D03*
X10012410Y6765297D02*
D03*
X10149711Y6782851D02*
D03*
X10178996Y6640391D02*
D03*
X10308178Y6643765D02*
D03*
X9403680Y7276500D02*
D03*
X9417700Y7436500D02*
D03*
X9388048Y7577716D02*
D03*
%TF.MD5,815f2798b5a4424dbcaf128ac81b310e*%
M02*
