%TF.GenerationSoftware,Altium Limited,Altium Designer,20.1.8 (145)*%
G04 Layer_Color=0*
%FSLAX45Y45*%
%MOMM*%
%TF.SameCoordinates,58819124-5082-48BE-93C4-8F50621AB512*%
%TF.FilePolarity,Positive*%
%TF.FileFunction,Plated,1,4,PTH,Drill*%
%TF.Part,Single*%
G01*
G75*
%TA.AperFunction,ComponentDrill*%
%ADD26C,0.85000*%
%TA.AperFunction,ViaDrill,NotFilled*%
%ADD27C,0.40000*%
D26*
X11176000Y7874000D02*
D03*
Y7620000D02*
D03*
Y7366000D02*
D03*
Y7112000D02*
D03*
Y6858000D02*
D03*
Y6604000D02*
D03*
Y6350000D02*
D03*
Y6096000D02*
D03*
Y5842000D02*
D03*
Y5588000D02*
D03*
X9144000Y7874000D02*
D03*
Y7620000D02*
D03*
Y7366000D02*
D03*
Y7112000D02*
D03*
Y6858000D02*
D03*
Y6604000D02*
D03*
Y6350000D02*
D03*
Y6096000D02*
D03*
Y5842000D02*
D03*
Y5588000D02*
D03*
D27*
X10617200Y7772400D02*
D03*
X9702800Y7772398D02*
D03*
X10851200Y6941500D02*
D03*
X9476740D02*
D03*
Y7036500D02*
D03*
X9632366Y6650626D02*
D03*
X9565000Y6845300D02*
D03*
X10755000D02*
D03*
X9817100Y7099300D02*
D03*
X10502900D02*
D03*
Y7772399D02*
D03*
X9817100D02*
D03*
Y7660216D02*
D03*
X9931400Y7099300D02*
D03*
X10045700D02*
D03*
X10160000D02*
D03*
X10274300Y7772400D02*
D03*
X10160000D02*
D03*
X10045700D02*
D03*
X9931400D02*
D03*
X10388600D02*
D03*
X10502900Y7660216D02*
D03*
Y7548033D02*
D03*
Y7435849D02*
D03*
Y7323666D02*
D03*
Y7211483D02*
D03*
X10388600Y7099300D02*
D03*
X10274300D02*
D03*
X9817100Y7211483D02*
D03*
Y7323666D02*
D03*
Y7435849D02*
D03*
Y7548033D02*
D03*
X9760000Y6697819D02*
D03*
X10012410Y6765297D02*
D03*
X10149711Y6782851D02*
D03*
X10178996Y6640391D02*
D03*
X10308178Y6643765D02*
D03*
X9403680Y7276500D02*
D03*
X9417700Y7436500D02*
D03*
X9388048Y7577716D02*
D03*
%TF.MD5,beb1b53e64787b71965586d66911d066*%
M02*
