%TF.GenerationSoftware,Altium Limited,Altium Designer,20.1.8 (145)*%
G04 Layer_Color=16711833*
%FSLAX45Y45*%
%MOMM*%
%TF.SameCoordinates,4FE69ECD-ABF1-445D-A2E8-605A74DE355E*%
%TF.FilePolarity,Negative*%
%TF.FileFunction,Soldermask,Bot*%
%TF.Part,Single*%
G01*
G75*
%TA.AperFunction,ViaPad*%
%ADD34C,3.60000*%
%TA.AperFunction,ComponentPad*%
%ADD40C,1.32600*%
%ADD41C,1.57600*%
G04:AMPARAMS|DCode=42|XSize=1.576mm|YSize=1.526mm|CornerRadius=0.21925mm|HoleSize=0mm|Usage=FLASHONLY|Rotation=180.000|XOffset=0mm|YOffset=0mm|HoleType=Round|Shape=RoundedRectangle|*
%AMROUNDEDRECTD42*
21,1,1.57600,1.08750,0,0,180.0*
21,1,1.13750,1.52600,0,0,180.0*
1,1,0.43850,-0.56875,0.54375*
1,1,0.43850,0.56875,0.54375*
1,1,0.43850,0.56875,-0.54375*
1,1,0.43850,-0.56875,-0.54375*
%
%ADD42ROUNDEDRECTD42*%
%ADD43O,1.57600X1.52600*%
%ADD44C,1.60000*%
G04:AMPARAMS|DCode=45|XSize=1.6mm|YSize=1.6mm|CornerRadius=0.2285mm|HoleSize=0mm|Usage=FLASHONLY|Rotation=180.000|XOffset=0mm|YOffset=0mm|HoleType=Round|Shape=RoundedRectangle|*
%AMROUNDEDRECTD45*
21,1,1.60000,1.14300,0,0,180.0*
21,1,1.14300,1.60000,0,0,180.0*
1,1,0.45700,-0.57150,0.57150*
1,1,0.45700,0.57150,0.57150*
1,1,0.45700,0.57150,-0.57150*
1,1,0.45700,-0.57150,-0.57150*
%
%ADD45ROUNDEDRECTD45*%
D34*
X200000Y200000D02*
D03*
Y2600000D02*
D03*
X5400000D02*
D03*
D40*
X742340Y1973580D02*
D03*
X942340D02*
D03*
X1142340D02*
D03*
X1342340D02*
D03*
D41*
X5461000Y1016000D02*
D03*
Y762000D02*
D03*
X127000Y2159000D02*
D03*
Y1905000D02*
D03*
Y635000D02*
D03*
Y889000D02*
D03*
X5461000Y1905000D02*
D03*
Y1651000D02*
D03*
D42*
X1616204Y247460D02*
D03*
X2693799Y908317D02*
D03*
D43*
X1362204Y247460D02*
D03*
X1108204D02*
D03*
X854204D02*
D03*
X600204D02*
D03*
Y501460D02*
D03*
X854204D02*
D03*
X1108204D02*
D03*
X1362204D02*
D03*
X1616204D02*
D03*
X2947799Y908318D02*
D03*
X3201799Y908317D02*
D03*
Y1162317D02*
D03*
X2947799Y1162317D02*
D03*
X2693799Y1162317D02*
D03*
D44*
X2367280Y242570D02*
D03*
D45*
X2621280D02*
D03*
%TF.MD5,a43cc1479e2ef4cddeafb43820b32b10*%
M02*
