%TF.GenerationSoftware,Altium Limited,Altium Designer,20.1.8 (145)*%
G04 Layer_Color=16777215*
%FSLAX45Y45*%
%MOMM*%
%TF.SameCoordinates,4FE69ECD-ABF1-445D-A2E8-605A74DE355E*%
%TF.FilePolarity,Positive*%
%TF.FileFunction,Legend,Top*%
%TF.Part,Single*%
G01*
G75*
%TA.AperFunction,NonConductor*%
%ADD38C,0.15240*%
%ADD39C,0.12700*%
%ADD46C,0.60000*%
%ADD47C,0.25000*%
%ADD48C,0.10160*%
%ADD49C,0.20320*%
%ADD50C,0.20000*%
%ADD51C,0.25400*%
G36*
X1423900Y845820D02*
X1398500Y871220D01*
X1423900Y896620D01*
Y845820D01*
D02*
G37*
G36*
X1572490Y848106D02*
X1549376Y871220D01*
X1572490Y894334D01*
Y848106D01*
D02*
G37*
G36*
X3200964Y1466443D02*
X3177850Y1489558D01*
X3200964Y1512671D01*
Y1466443D01*
D02*
G37*
G36*
X3052374Y1464157D02*
X3026974Y1489557D01*
X3052374Y1514957D01*
Y1464157D01*
D02*
G37*
G36*
X2645997Y81148D02*
X2596564D01*
Y97125D01*
X2645997D01*
Y81148D01*
D02*
G37*
G36*
X2373864Y96302D02*
X2404807D01*
Y83299D01*
X2373864D01*
Y52027D01*
X2360697D01*
Y83299D01*
X2329753D01*
Y96302D01*
X2360697D01*
Y127245D01*
X2373864D01*
Y96302D01*
D02*
G37*
D38*
X1297957Y2748255D02*
X1247173D01*
Y2710168D01*
X1272565Y2722863D01*
X1285261D01*
X1297957Y2710168D01*
Y2684776D01*
X1285261Y2672080D01*
X1259869D01*
X1247173Y2684776D01*
X1323348Y2748255D02*
Y2697472D01*
X1348740Y2672080D01*
X1374132Y2697472D01*
Y2748255D01*
X1399524Y2735559D02*
X1412220Y2748255D01*
X1437612D01*
X1450307Y2735559D01*
Y2684776D01*
X1437612Y2672080D01*
X1412220D01*
X1399524Y2684776D01*
Y2735559D01*
X1033801Y2748255D02*
X1084584D01*
X1059192D01*
Y2672080D01*
X1109976Y2748255D02*
X1160759Y2672080D01*
Y2748255D02*
X1109976Y2672080D01*
X820441D02*
Y2748255D01*
X858528D01*
X871224Y2735559D01*
Y2710168D01*
X858528Y2697472D01*
X820441D01*
X845832D02*
X871224Y2672080D01*
X896616Y2748255D02*
X947399Y2672080D01*
Y2748255D02*
X896616Y2672080D01*
X589297Y2735559D02*
X576601Y2748255D01*
X551209D01*
X538513Y2735559D01*
Y2684776D01*
X551209Y2672080D01*
X576601D01*
X589297Y2684776D01*
Y2710168D01*
X563905D01*
X614688Y2672080D02*
Y2748255D01*
X665472Y2672080D01*
Y2748255D01*
X690864D02*
Y2672080D01*
X728952D01*
X741647Y2684776D01*
Y2735559D01*
X728952Y2748255D01*
X690864D01*
D39*
X2303559Y2090017D02*
X2293402Y2100174D01*
X2273088D01*
X2262932Y2090017D01*
Y2079861D01*
X2273088Y2069704D01*
X2293402D01*
X2303559Y2059547D01*
Y2049391D01*
X2293402Y2039234D01*
X2273088D01*
X2262932Y2049391D01*
X2323872Y2039234D02*
X2344185D01*
X2334029D01*
Y2100174D01*
X2323872Y2090017D01*
X2488714Y1390104D02*
X2499293Y1400684D01*
X2520453D01*
X2531033Y1390104D01*
Y1379525D01*
X2520453Y1368945D01*
X2509873D01*
X2520453D01*
X2531033Y1358365D01*
Y1347785D01*
X2520453Y1337205D01*
X2499293D01*
X2488714Y1347785D01*
X2552193Y1400684D02*
Y1358365D01*
X2573353Y1337205D01*
X2594513Y1358365D01*
Y1400684D01*
X2615672Y1390104D02*
X2626252Y1400684D01*
X2647412D01*
X2657992Y1390104D01*
Y1379525D01*
X2647412Y1368945D01*
X2636832D01*
X2647412D01*
X2657992Y1358365D01*
Y1347785D01*
X2647412Y1337205D01*
X2626252D01*
X2615672Y1347785D01*
X1701873Y1290865D02*
X1659553D01*
Y1259125D01*
X1680713Y1269705D01*
X1691293D01*
X1701873Y1259125D01*
Y1237966D01*
X1691293Y1227386D01*
X1670133D01*
X1659553Y1237966D01*
X1723032Y1290865D02*
Y1248545D01*
X1744192Y1227386D01*
X1765352Y1248545D01*
Y1290865D01*
X1828831Y1280285D02*
X1818252Y1290865D01*
X1797092D01*
X1786512Y1280285D01*
Y1269705D01*
X1797092Y1259125D01*
X1818252D01*
X1828831Y1248545D01*
Y1237966D01*
X1818252Y1227386D01*
X1797092D01*
X1786512Y1237966D01*
X2020207Y1285943D02*
X2009627Y1296523D01*
X1988467D01*
X1977888Y1285943D01*
Y1243623D01*
X1988467Y1233044D01*
X2009627D01*
X2020207Y1243623D01*
Y1264783D01*
X1999047D01*
X2041367Y1233044D02*
Y1296523D01*
X2083687Y1233044D01*
Y1296523D01*
X2104846D02*
Y1233044D01*
X2136586D01*
X2147166Y1243623D01*
Y1285943D01*
X2136586Y1296523D01*
X2104846D01*
X1753983Y194708D02*
X1764562Y184128D01*
X1785722D01*
X1796302Y194708D01*
Y237027D01*
X1785722Y247607D01*
X1764562D01*
X1753983Y237027D01*
Y226448D01*
X1764562Y215868D01*
X1796302D01*
X1817462Y247607D02*
Y205288D01*
X1838622Y184128D01*
X1859782Y205288D01*
Y247607D01*
X1880941Y237027D02*
X1891521Y247607D01*
X1912681D01*
X1923261Y237027D01*
Y194708D01*
X1912681Y184128D01*
X1891521D01*
X1880941Y194708D01*
Y237027D01*
X1721412Y430398D02*
X1679092D01*
Y398658D01*
X1700252Y409238D01*
X1710832D01*
X1721412Y398658D01*
Y377498D01*
X1710832Y366918D01*
X1689672D01*
X1679092Y377498D01*
X1742572Y430398D02*
Y388078D01*
X1763731Y366918D01*
X1784891Y388078D01*
Y430398D01*
X1806051Y419818D02*
X1816631Y430398D01*
X1837791D01*
X1848371Y419818D01*
Y377498D01*
X1837791Y366918D01*
X1816631D01*
X1806051Y377498D01*
Y419818D01*
X3105237Y2370405D02*
Y2431346D01*
X3135707D01*
X3145864Y2421189D01*
Y2400876D01*
X3135707Y2390719D01*
X3105237D01*
X3125550D02*
X3145864Y2370405D01*
X3166177D02*
X3186490D01*
X3176334D01*
Y2431346D01*
X3166177Y2421189D01*
X3257587Y2431346D02*
X3237274Y2421189D01*
X3216961Y2400876D01*
Y2380562D01*
X3227117Y2370405D01*
X3247431D01*
X3257587Y2380562D01*
Y2390719D01*
X3247431Y2400876D01*
X3216961D01*
X3522997Y2575550D02*
Y2524767D01*
X3533153Y2514610D01*
X3553467D01*
X3563623Y2524767D01*
Y2575550D01*
X3614407Y2514610D02*
Y2575550D01*
X3583937Y2545080D01*
X3624563D01*
X2713689Y1497982D02*
Y1558922D01*
X2744159D01*
X2754316Y1548766D01*
Y1528452D01*
X2744159Y1518295D01*
X2713689D01*
X2734003D02*
X2754316Y1497982D01*
X2774629D02*
X2794943D01*
X2784786D01*
Y1558922D01*
X2774629Y1548766D01*
X2825413Y1508139D02*
X2835570Y1497982D01*
X2855883D01*
X2866040Y1508139D01*
Y1548766D01*
X2855883Y1558922D01*
X2835570D01*
X2825413Y1548766D01*
Y1538609D01*
X2835570Y1528452D01*
X2866040D01*
X2712177Y1635558D02*
Y1696499D01*
X2742648D01*
X2752804Y1686342D01*
Y1666028D01*
X2742648Y1655872D01*
X2712177D01*
X2732491D02*
X2752804Y1635558D01*
X2773118D02*
X2793431D01*
X2783274D01*
Y1696499D01*
X2773118Y1686342D01*
X2823901D02*
X2834058Y1696499D01*
X2854371D01*
X2864528Y1686342D01*
Y1676185D01*
X2854371Y1666028D01*
X2864528Y1655872D01*
Y1645715D01*
X2854371Y1635558D01*
X2834058D01*
X2823901Y1645715D01*
Y1655872D01*
X2834058Y1666028D01*
X2823901Y1676185D01*
Y1686342D01*
X2834058Y1666028D02*
X2854371D01*
X1362558Y1723190D02*
Y1784130D01*
X1393028D01*
X1403185Y1773973D01*
Y1753660D01*
X1393028Y1743503D01*
X1362558D01*
X1382872D02*
X1403185Y1723190D01*
X1423498D02*
X1443812D01*
X1433655D01*
Y1784130D01*
X1423498Y1773973D01*
X1514909Y1784130D02*
X1474282D01*
Y1753660D01*
X1494595Y1763816D01*
X1504752D01*
X1514909Y1753660D01*
Y1733346D01*
X1504752Y1723190D01*
X1484438D01*
X1474282Y1733346D01*
X2491031Y2020908D02*
Y2081848D01*
X2521501D01*
X2531658Y2071691D01*
Y2051378D01*
X2521501Y2041221D01*
X2491031D01*
X2511345D02*
X2531658Y2020908D01*
X2551972D02*
X2572285D01*
X2562128D01*
Y2081848D01*
X2551972Y2071691D01*
X2633225Y2020908D02*
Y2081848D01*
X2602755Y2051378D01*
X2643382D01*
X1403732Y1314372D02*
Y1375312D01*
X1434202D01*
X1444358Y1365155D01*
Y1344842D01*
X1434202Y1334685D01*
X1403732D01*
X1424045D02*
X1444358Y1314372D01*
X1505298D02*
X1464672D01*
X1505298Y1354999D01*
Y1365155D01*
X1495142Y1375312D01*
X1474828D01*
X1464672Y1365155D01*
X1971043Y990607D02*
Y1031233D01*
X1960887Y1041390D01*
X1940573D01*
X1930417Y1031233D01*
Y990607D01*
X1940573Y980450D01*
X1960887D01*
X1950730Y1000763D02*
X1971043Y980450D01*
X1960887D02*
X1971043Y990607D01*
X2031983Y980450D02*
X1991357D01*
X2031983Y1021077D01*
Y1031233D01*
X2021827Y1041390D01*
X2001513D01*
X1991357Y1031233D01*
X2933696Y1590931D02*
Y1651871D01*
X2964166D01*
X2974322Y1641715D01*
Y1621401D01*
X2964166Y1611244D01*
X2933696D01*
X2954009D02*
X2974322Y1590931D01*
X2994636Y1651871D02*
X3035263D01*
Y1641715D01*
X2994636Y1601088D01*
Y1590931D01*
X2932342Y1521591D02*
Y1460651D01*
X2962812D01*
X2972968Y1470807D01*
Y1511434D01*
X2962812Y1521591D01*
X2932342D01*
X2993282Y1460651D02*
X3013595D01*
X3003438D01*
Y1521591D01*
X2993282Y1511434D01*
X2894353Y1850463D02*
Y1911404D01*
X2924823D01*
X2934979Y1901247D01*
Y1880934D01*
X2924823Y1870777D01*
X2894353D01*
X2914666D02*
X2934979Y1850463D01*
X2955293D02*
X2975606D01*
X2965449D01*
Y1911404D01*
X2955293Y1901247D01*
X3006076D02*
X3016233Y1911404D01*
X3036546D01*
X3046703Y1901247D01*
Y1891090D01*
X3036546Y1880934D01*
X3026390D01*
X3036546D01*
X3046703Y1870777D01*
Y1860620D01*
X3036546Y1850463D01*
X3016233D01*
X3006076Y1860620D01*
X2930622Y801808D02*
X2910308D01*
X2920465D01*
Y751025D01*
X2910308Y740868D01*
X2900152D01*
X2889995Y751025D01*
X2991562Y740868D02*
X2950935D01*
X2991562Y781495D01*
Y791651D01*
X2981405Y801808D01*
X2961092D01*
X2950935Y791651D01*
X182897Y1701810D02*
Y1762750D01*
X213367D01*
X223523Y1752593D01*
Y1732280D01*
X213367Y1722123D01*
X182897D01*
X203210D02*
X223523Y1701810D01*
X284463Y1762750D02*
X264150Y1752593D01*
X243837Y1732280D01*
Y1711967D01*
X253993Y1701810D01*
X274307D01*
X284463Y1711967D01*
Y1722123D01*
X274307Y1732280D01*
X243837D01*
X121920Y1148087D02*
Y1188713D01*
X111763Y1198870D01*
X91450D01*
X81293Y1188713D01*
Y1148087D01*
X91450Y1137930D01*
X111763D01*
X101607Y1158243D02*
X121920Y1137930D01*
X111763D02*
X121920Y1148087D01*
X142233Y1137930D02*
X162547D01*
X152390D01*
Y1198870D01*
X142233Y1188713D01*
X538738Y1188730D02*
Y1249670D01*
X569208D01*
X579364Y1239514D01*
Y1219200D01*
X569208Y1209044D01*
X538738D01*
X559051D02*
X579364Y1188730D01*
X640305Y1249670D02*
X599678D01*
Y1219200D01*
X619991Y1229357D01*
X630148D01*
X640305Y1219200D01*
Y1198887D01*
X630148Y1188730D01*
X609834D01*
X599678Y1198887D01*
X347993Y693430D02*
Y754370D01*
X378463D01*
X388620Y744213D01*
Y723900D01*
X378463Y713743D01*
X347993D01*
X368307D02*
X388620Y693430D01*
X408933D02*
X429247D01*
X419090D01*
Y754370D01*
X408933Y744213D01*
X312437Y1699270D02*
Y1760210D01*
X342907D01*
X353063Y1750053D01*
Y1729740D01*
X342907Y1719583D01*
X312437D01*
X332750D02*
X353063Y1699270D01*
X403847D02*
Y1760210D01*
X373377Y1729740D01*
X414003D01*
X1404791Y1226186D02*
Y1287126D01*
X1435261D01*
X1445417Y1276969D01*
Y1256656D01*
X1435261Y1246499D01*
X1404791D01*
X1425104D02*
X1445417Y1226186D01*
X1465731D02*
X1486044D01*
X1475888D01*
Y1287126D01*
X1465731Y1276969D01*
X1516514Y1287126D02*
X1557141D01*
Y1276969D01*
X1516514Y1236342D01*
Y1226186D01*
X1508776Y789930D02*
Y728990D01*
X1539246D01*
X1549403Y739147D01*
Y779773D01*
X1539246Y789930D01*
X1508776D01*
X1610343Y728990D02*
X1569716D01*
X1610343Y769617D01*
Y779773D01*
X1600187Y789930D01*
X1579873D01*
X1569716Y779773D01*
X1005788Y1642889D02*
X944847D01*
Y1673359D01*
X955004Y1683516D01*
X975318D01*
X985474Y1673359D01*
Y1642889D01*
Y1663203D02*
X1005788Y1683516D01*
Y1703829D02*
Y1724143D01*
Y1713986D01*
X944847D01*
X955004Y1703829D01*
X1005788Y1795240D02*
Y1754613D01*
X965161Y1795240D01*
X955004D01*
X944847Y1785083D01*
Y1764770D01*
X955004Y1754613D01*
X644036Y1665029D02*
X583096D01*
Y1695499D01*
X593253Y1705655D01*
X613566D01*
X623723Y1695499D01*
Y1665029D01*
Y1685342D02*
X644036Y1705655D01*
Y1725969D02*
Y1746282D01*
Y1736126D01*
X583096D01*
X593253Y1725969D01*
Y1776752D02*
X583096Y1786909D01*
Y1807222D01*
X593253Y1817379D01*
X633880D01*
X644036Y1807222D01*
Y1786909D01*
X633880Y1776752D01*
X593253D01*
X1851751Y2073246D02*
Y2022463D01*
X1861907Y2012306D01*
X1882221D01*
X1892377Y2022463D01*
Y2073246D01*
X1953318D02*
X1912691D01*
Y2042776D01*
X1933004Y2052933D01*
X1943161D01*
X1953318Y2042776D01*
Y2022463D01*
X1943161Y2012306D01*
X1922848D01*
X1912691Y2022463D01*
X2411382Y938788D02*
Y888004D01*
X2421539Y877847D01*
X2441852D01*
X2452009Y888004D01*
Y938788D01*
X2512949Y877847D02*
X2472322D01*
X2512949Y918474D01*
Y928631D01*
X2502793Y938788D01*
X2482479D01*
X2472322Y928631D01*
X2294204Y415510D02*
Y364727D01*
X2304361Y354570D01*
X2324674D01*
X2334831Y364727D01*
Y415510D01*
X2355144Y354570D02*
X2375458D01*
X2365301D01*
Y415510D01*
X2355144Y405354D01*
X1181117Y1602730D02*
Y1551947D01*
X1191273Y1541790D01*
X1211587D01*
X1221743Y1551947D01*
Y1602730D01*
X1242057Y1592573D02*
X1252213Y1602730D01*
X1272527D01*
X1282683Y1592573D01*
Y1582417D01*
X1272527Y1572260D01*
X1262370D01*
X1272527D01*
X1282683Y1562103D01*
Y1551947D01*
X1272527Y1541790D01*
X1252213D01*
X1242057Y1551947D01*
X2900847Y1719660D02*
Y1780600D01*
X2931317D01*
X2941474Y1770444D01*
Y1750130D01*
X2931317Y1739973D01*
X2900847D01*
X2921161D02*
X2941474Y1719660D01*
X2961787D02*
X2982101D01*
X2971944D01*
Y1780600D01*
X2961787Y1770444D01*
X3012571Y1719660D02*
X3032884D01*
X3022728D01*
Y1780600D01*
X3012571Y1770444D01*
X5242425Y1211975D02*
Y1272915D01*
X5272895D01*
X5283052Y1262758D01*
Y1242445D01*
X5272895Y1232288D01*
X5242425D01*
X5262739D02*
X5283052Y1211975D01*
X5303365Y1262758D02*
X5313522Y1272915D01*
X5333835D01*
X5343992Y1262758D01*
Y1252602D01*
X5333835Y1242445D01*
X5343992Y1232288D01*
Y1222132D01*
X5333835Y1211975D01*
X5313522D01*
X5303365Y1222132D01*
Y1232288D01*
X5313522Y1242445D01*
X5303365Y1252602D01*
Y1262758D01*
X5313522Y1242445D02*
X5333835D01*
X5404930Y1213348D02*
Y1274289D01*
X5435400D01*
X5445557Y1264132D01*
Y1243818D01*
X5435400Y1233662D01*
X5404930D01*
X5425243D02*
X5445557Y1213348D01*
X5465870Y1223505D02*
X5476027Y1213348D01*
X5496340D01*
X5506497Y1223505D01*
Y1264132D01*
X5496340Y1274289D01*
X5476027D01*
X5465870Y1264132D01*
Y1253975D01*
X5476027Y1243818D01*
X5506497D01*
X2781317Y83830D02*
Y144770D01*
X2811787D01*
X2821943Y134613D01*
Y114300D01*
X2811787Y104143D01*
X2781317D01*
X2801630D02*
X2821943Y83830D01*
X2842257Y134613D02*
X2852413Y144770D01*
X2872727D01*
X2882883Y134613D01*
Y124457D01*
X2872727Y114300D01*
X2862570D01*
X2872727D01*
X2882883Y104143D01*
Y93987D01*
X2872727Y83830D01*
X2852413D01*
X2842257Y93987D01*
X2847949Y530182D02*
Y570808D01*
X2837792Y580965D01*
X2817479D01*
X2807322Y570808D01*
Y530182D01*
X2817479Y520025D01*
X2837792D01*
X2827635Y540338D02*
X2847949Y520025D01*
X2837792D02*
X2847949Y530182D01*
X2868262Y570808D02*
X2878419Y580965D01*
X2898732D01*
X2908889Y570808D01*
Y560652D01*
X2898732Y550495D01*
X2888576D01*
X2898732D01*
X2908889Y540338D01*
Y530182D01*
X2898732Y520025D01*
X2878419D01*
X2868262Y530182D01*
X1626057Y1388404D02*
X1615901Y1398561D01*
X1595587D01*
X1585430Y1388404D01*
Y1347777D01*
X1595587Y1337621D01*
X1615901D01*
X1626057Y1347777D01*
X1686997Y1398561D02*
X1666684Y1388404D01*
X1646371Y1368091D01*
Y1347777D01*
X1656527Y1337621D01*
X1676841D01*
X1686997Y1347777D01*
Y1357934D01*
X1676841Y1368091D01*
X1646371D01*
X1625882Y2361094D02*
X1615725Y2371251D01*
X1595412D01*
X1585255Y2361094D01*
Y2320467D01*
X1595412Y2310311D01*
X1615725D01*
X1625882Y2320467D01*
X1646195Y2361094D02*
X1656352Y2371251D01*
X1676665D01*
X1686822Y2361094D01*
Y2350937D01*
X1676665Y2340781D01*
X1686822Y2330624D01*
Y2320467D01*
X1676665Y2310311D01*
X1656352D01*
X1646195Y2320467D01*
Y2330624D01*
X1656352Y2340781D01*
X1646195Y2350937D01*
Y2361094D01*
X1656352Y2340781D02*
X1676665D01*
X2323380Y1495349D02*
X2313224Y1505505D01*
X2292910D01*
X2282754Y1495349D01*
Y1454722D01*
X2292910Y1444565D01*
X2313224D01*
X2323380Y1454722D01*
X2343694Y1505505D02*
X2384321D01*
Y1495349D01*
X2343694Y1454722D01*
Y1444565D01*
X5363048Y2093346D02*
X5352892Y2103502D01*
X5332578D01*
X5322421Y2093346D01*
Y2052719D01*
X5332578Y2042562D01*
X5352892D01*
X5363048Y2052719D01*
X5423988Y2103502D02*
X5383362D01*
Y2073032D01*
X5403675Y2083189D01*
X5413832D01*
X5423988Y2073032D01*
Y2052719D01*
X5413832Y2042562D01*
X5393518D01*
X5383362Y2052719D01*
X2521825Y1200440D02*
X2511668Y1210597D01*
X2491355D01*
X2481198Y1200440D01*
Y1159813D01*
X2491355Y1149657D01*
X2511668D01*
X2521825Y1159813D01*
X2542138Y1200440D02*
X2552295Y1210597D01*
X2572609D01*
X2582765Y1200440D01*
Y1190283D01*
X2572609Y1180127D01*
X2562452D01*
X2572609D01*
X2582765Y1169970D01*
Y1159813D01*
X2572609Y1149657D01*
X2552295D01*
X2542138Y1159813D01*
X1800863Y632453D02*
X1790707Y642610D01*
X1770393D01*
X1760237Y632453D01*
Y591827D01*
X1770393Y581670D01*
X1790707D01*
X1800863Y591827D01*
X1861803Y581670D02*
X1821177D01*
X1861803Y622297D01*
Y632453D01*
X1851647Y642610D01*
X1831333D01*
X1821177Y632453D01*
X2105942Y115227D02*
X2095785Y125384D01*
X2075472D01*
X2065315Y115227D01*
Y74600D01*
X2075472Y64443D01*
X2095785D01*
X2105942Y74600D01*
X2126255Y64443D02*
X2146569D01*
X2136412D01*
Y125384D01*
X2126255Y115227D01*
X1121954Y718813D02*
X1111798Y728970D01*
X1091484D01*
X1081328Y718813D01*
Y678187D01*
X1091484Y668030D01*
X1111798D01*
X1121954Y678187D01*
X1172738Y668030D02*
Y728970D01*
X1142268Y698500D01*
X1182895D01*
X449583Y2316470D02*
X429270D01*
X439427D01*
Y2265687D01*
X429270Y2255530D01*
X419113D01*
X408957Y2265687D01*
X469897Y2306313D02*
X480053Y2316470D01*
X500367D01*
X510523Y2306313D01*
Y2296157D01*
X500367Y2286000D01*
X490210D01*
X500367D01*
X510523Y2275843D01*
Y2265687D01*
X500367Y2255530D01*
X480053D01*
X469897Y2265687D01*
D46*
X851560Y1073380D02*
G03*
X851560Y1073380I-30000J0D01*
G01*
X2059400Y1549040D02*
G03*
X2059400Y1549040I-30000J0D01*
G01*
D47*
X713980Y870800D02*
G03*
X713980Y870800I-12500J0D01*
G01*
X2231900Y1469040D02*
G03*
X2231900Y1469040I-12500J0D01*
G01*
X2162242Y1069669D02*
G03*
X2162242Y1069669I-12500J0D01*
G01*
X169982Y1032943D02*
G03*
X169982Y1032943I-12500J0D01*
G01*
D48*
X423607Y0D02*
G03*
X0Y423607I-223607J200000D01*
G01*
X5176392Y2799999D02*
G03*
X5600000Y2376393I223608J-199999D01*
G01*
X0Y2376392D02*
G03*
X423607Y2799999I200000J223607D01*
G01*
X2672080Y88900D02*
G03*
X2672080Y88900I-50800J0D01*
G01*
X2418080D02*
G03*
X2418080Y88900I-50800J0D01*
G01*
X1381680Y934740D02*
Y1386860D01*
X721280Y934740D02*
Y1386860D01*
X1381680D01*
X721280Y934740D02*
X1381680D01*
X1688260Y1990660D02*
X2153080D01*
X1688260Y1467420D02*
X2153080D01*
X1688260D02*
Y1990660D01*
X2153080Y1467420D02*
Y1990660D01*
X2202180Y1071880D02*
X2379980D01*
X2202180Y746760D02*
X2379980D01*
X2202180D02*
Y1071880D01*
X2379980Y746760D02*
Y1071880D01*
X542340Y1883580D02*
Y2653580D01*
X1542340D01*
Y1883580D02*
Y2653580D01*
X542340Y1883580D02*
X1542340D01*
X184982Y1255443D02*
X484982D01*
X184982Y1075443D02*
X484982D01*
Y1255443D01*
X184982Y1075443D02*
Y1255443D01*
X2466360Y453980D02*
Y633980D01*
Y453980D02*
X2786360D01*
X2466360Y633980D02*
X2786360Y633981D01*
X2786360Y453980D01*
X2402150Y614861D02*
X2402150Y434861D01*
X2082150Y614861D02*
X2402150Y614861D01*
X2082150Y434861D02*
X2402150D01*
X2082150D02*
Y614861D01*
X1711980Y951060D02*
X1711980Y771060D01*
X2031980Y771060D01*
X1711980Y951060D02*
X2031980D01*
Y771060D02*
Y951060D01*
X3062668Y2225287D02*
Y2342127D01*
Y2225287D02*
X3311588D01*
Y2342127D01*
X3062668D02*
X3311588D01*
X1685520Y812800D02*
Y929640D01*
X1561060Y906220D02*
Y929640D01*
Y812800D02*
Y836220D01*
X1423900Y845820D02*
Y896620D01*
X1436600Y812800D02*
X1685520D01*
X1436600Y929640D02*
X1685520D01*
X1436600Y812800D02*
Y929640D01*
X1398500Y871220D02*
X1423900Y845820D01*
X1398500Y871220D02*
X1423900Y896620D01*
X1436600Y1061720D02*
X1685520D01*
Y944880D02*
Y1061720D01*
X1436600Y944880D02*
X1685520D01*
X1436600D02*
Y1061720D01*
X3065074Y1677817D02*
X3313994Y1677818D01*
Y1560977D02*
Y1677818D01*
X3065074Y1560977D02*
X3313994Y1560977D01*
X3065074Y1560977D02*
Y1677817D01*
X3313994Y1431137D02*
Y1547977D01*
X3189534Y1524557D02*
Y1547977D01*
Y1431137D02*
Y1454557D01*
X3052374Y1464157D02*
Y1514957D01*
X3065074Y1431137D02*
X3313994D01*
X3065074Y1547977D02*
X3313994D01*
X3065074Y1431137D02*
Y1547977D01*
X3026974Y1489557D02*
X3052374Y1464157D01*
X3026974Y1489557D02*
X3052374Y1514957D01*
X1340671Y641269D02*
Y758109D01*
X1211131Y641269D02*
X1470211D01*
X1211131D02*
Y758109D01*
X1470211D01*
Y641269D02*
Y758109D01*
X168263Y1427123D02*
X285103D01*
Y1676043D01*
X168263D02*
X285103D01*
X168263Y1427123D02*
Y1676043D01*
X297907D02*
X414747D01*
X297907Y1427123D02*
Y1676043D01*
Y1427123D02*
X414747D01*
Y1676043D01*
X2441980Y1607963D02*
Y1724803D01*
Y1607963D02*
X2690900D01*
Y1724803D01*
X2441980D02*
X2690900D01*
X2441980Y1469605D02*
Y1586445D01*
Y1469605D02*
X2690900D01*
Y1586445D01*
X2441980D02*
X2690900D01*
X1090700Y1694180D02*
Y1811020D01*
Y1694180D02*
X1339620D01*
Y1811020D01*
X1090700D02*
X1339620D01*
X2441980Y1884680D02*
Y2001520D01*
Y1884680D02*
X2690900D01*
Y2001520D01*
X2441980D02*
X2690900D01*
X2462166Y1100896D02*
Y1258376D01*
X2167526Y1100896D02*
X2462166D01*
X2167526D02*
Y1258376D01*
X2462166D01*
X2314846Y1100896D02*
Y1258376D01*
X5227772Y2125769D02*
Y2283249D01*
X5522412D01*
Y2125769D02*
Y2283249D01*
X5227772Y2125769D02*
X5522412D01*
X5375092D02*
Y2283249D01*
X2252705Y147320D02*
Y304800D01*
X1958065Y147320D02*
X2252705D01*
X1958065D02*
Y304800D01*
X2252705D01*
X2105385Y147320D02*
Y304800D01*
X1685520Y1076960D02*
Y1193800D01*
X1436600D02*
X1685520D01*
X1436600Y1076960D02*
Y1193800D01*
Y1076960D02*
X1685520D01*
X2205711Y1311360D02*
Y1428200D01*
X2076171Y1428200D02*
X2335251D01*
Y1311359D02*
Y1428200D01*
X2076171Y1311359D02*
X2335251D01*
X2076171D02*
Y1428200D01*
X1835140Y1311360D02*
Y1428200D01*
X1705600Y1311360D02*
X1964680D01*
X1705600D02*
Y1428200D01*
X1964680D01*
Y1311360D02*
Y1428200D01*
X1889751Y651680D02*
X2047231D01*
X2047231Y357040D01*
X1889750D02*
X2047231D01*
X1889750D02*
X1889751Y651680D01*
X1889750Y504360D02*
X2047231D01*
X660718Y1593045D02*
Y1841965D01*
X777558D01*
Y1593045D02*
Y1841965D01*
X660718Y1593045D02*
X777558D01*
X1572070Y2286190D02*
X1688910D01*
X1572070Y2027110D02*
Y2286190D01*
Y2027110D02*
X1688910D01*
Y2286190D01*
X1572070Y2156650D02*
X1688910D01*
X3065074Y1936818D02*
X3313994D01*
Y1819978D02*
Y1936818D01*
X3065074Y1819978D02*
X3313994D01*
X3065074D02*
Y1936818D01*
Y1690138D02*
Y1806978D01*
Y1690138D02*
X3313994D01*
Y1806978D01*
X3065074D02*
X3313994D01*
X2890240Y161608D02*
Y410528D01*
X2773400Y161608D02*
X2890240D01*
X2773400D02*
Y410528D01*
X2890240D01*
X5236672Y1294150D02*
X5353512D01*
Y1543070D01*
X5236672D02*
X5353512D01*
X5236672Y1294150D02*
Y1543070D01*
X801120Y1593045D02*
Y1841965D01*
X917960D01*
Y1593045D02*
Y1841965D01*
X801120Y1593045D02*
X917960D01*
X275521Y774700D02*
X524441D01*
X275521D02*
Y891540D01*
X524441D01*
Y774700D02*
Y891540D01*
X5366672Y1294150D02*
X5483512D01*
Y1543070D01*
X5366672D02*
X5483512D01*
X5366672Y1294150D02*
Y1543070D01*
X533641Y920520D02*
X650481D01*
Y1169440D01*
X533641D02*
X650481D01*
X533641Y920520D02*
Y1169440D01*
D49*
X2292639Y2478077D02*
Y2577784D01*
Y2312784D02*
Y2376744D01*
X2043979Y2577784D02*
X2534199D01*
X2043979Y2312784D02*
X2534199D01*
X1995439Y2742784D02*
X2595439D01*
X2292639Y2376744D02*
X2335091Y2478077D01*
D50*
X1995439Y2142784D02*
Y2742784D01*
X2595439Y2142784D02*
Y2742784D01*
X1995439Y2142784D02*
X2595439D01*
D51*
X5107057Y779569D02*
X5107057Y17569D01*
X5107057Y2443269D02*
X5107057Y2379769D01*
X4903857Y2443269D02*
X5107057D01*
X3481457D02*
X3684657D01*
X3481457Y2367069D02*
Y2443269D01*
Y17569D02*
Y779570D01*
Y17569D02*
X5107057Y17569D01*
%TF.MD5,b40c3df140c5979370e980288bcfe049*%
M02*
