%TF.GenerationSoftware,Altium Limited,Altium Designer,20.1.8 (145)*%
G04 Layer_Color=12040119*
%FSLAX45Y45*%
%MOMM*%
%TF.SameCoordinates,4FE69ECD-ABF1-445D-A2E8-605A74DE355E*%
%TF.FilePolarity,Positive*%
%TF.FileFunction,Paste,Top*%
%TF.Part,Single*%
G01*
G75*
%TA.AperFunction,SMDPad,CuDef*%
%ADD10O,0.45000X1.40000*%
%ADD11O,1.40000X0.45000*%
G04:AMPARAMS|DCode=12|XSize=2.1mm|YSize=1mm|CornerRadius=0.05mm|HoleSize=0mm|Usage=FLASHONLY|Rotation=180.000|XOffset=0mm|YOffset=0mm|HoleType=Round|Shape=RoundedRectangle|*
%AMROUNDEDRECTD12*
21,1,2.10000,0.90000,0,0,180.0*
21,1,2.00000,1.00000,0,0,180.0*
1,1,0.10000,-1.00000,0.45000*
1,1,0.10000,1.00000,0.45000*
1,1,0.10000,1.00000,-0.45000*
1,1,0.10000,-1.00000,-0.45000*
%
%ADD12ROUNDEDRECTD12*%
G04:AMPARAMS|DCode=13|XSize=0.6mm|YSize=1.05mm|CornerRadius=0.03mm|HoleSize=0mm|Usage=FLASHONLY|Rotation=90.000|XOffset=0mm|YOffset=0mm|HoleType=Round|Shape=RoundedRectangle|*
%AMROUNDEDRECTD13*
21,1,0.60000,0.99000,0,0,90.0*
21,1,0.54000,1.05000,0,0,90.0*
1,1,0.06000,0.49500,0.27000*
1,1,0.06000,0.49500,-0.27000*
1,1,0.06000,-0.49500,-0.27000*
1,1,0.06000,-0.49500,0.27000*
%
%ADD13ROUNDEDRECTD13*%
G04:AMPARAMS|DCode=14|XSize=0.5mm|YSize=1.05mm|CornerRadius=0.025mm|HoleSize=0mm|Usage=FLASHONLY|Rotation=180.000|XOffset=0mm|YOffset=0mm|HoleType=Round|Shape=RoundedRectangle|*
%AMROUNDEDRECTD14*
21,1,0.50000,1.00000,0,0,180.0*
21,1,0.45000,1.05000,0,0,180.0*
1,1,0.05000,-0.22500,0.50000*
1,1,0.05000,0.22500,0.50000*
1,1,0.05000,0.22500,-0.50000*
1,1,0.05000,-0.22500,-0.50000*
%
%ADD14ROUNDEDRECTD14*%
G04:AMPARAMS|DCode=15|XSize=0.6mm|YSize=1.1mm|CornerRadius=0.03mm|HoleSize=0mm|Usage=FLASHONLY|Rotation=0.000|XOffset=0mm|YOffset=0mm|HoleType=Round|Shape=RoundedRectangle|*
%AMROUNDEDRECTD15*
21,1,0.60000,1.04000,0,0,0.0*
21,1,0.54000,1.10000,0,0,0.0*
1,1,0.06000,0.27000,-0.52000*
1,1,0.06000,-0.27000,-0.52000*
1,1,0.06000,-0.27000,0.52000*
1,1,0.06000,0.27000,0.52000*
%
%ADD15ROUNDEDRECTD15*%
G04:AMPARAMS|DCode=16|XSize=0.85mm|YSize=0.85mm|CornerRadius=0.0425mm|HoleSize=0mm|Usage=FLASHONLY|Rotation=90.000|XOffset=0mm|YOffset=0mm|HoleType=Round|Shape=RoundedRectangle|*
%AMROUNDEDRECTD16*
21,1,0.85000,0.76500,0,0,90.0*
21,1,0.76500,0.85000,0,0,90.0*
1,1,0.08500,0.38250,0.38250*
1,1,0.08500,0.38250,-0.38250*
1,1,0.08500,-0.38250,-0.38250*
1,1,0.08500,-0.38250,0.38250*
%
%ADD16ROUNDEDRECTD16*%
%TA.AperFunction,ConnectorPad*%
G04:AMPARAMS|DCode=17|XSize=1.1mm|YSize=2.3mm|CornerRadius=0.0055mm|HoleSize=0mm|Usage=FLASHONLY|Rotation=270.000|XOffset=0mm|YOffset=0mm|HoleType=Round|Shape=RoundedRectangle|*
%AMROUNDEDRECTD17*
21,1,1.10000,2.28900,0,0,270.0*
21,1,1.08900,2.30000,0,0,270.0*
1,1,0.01100,-1.14450,-0.54450*
1,1,0.01100,-1.14450,0.54450*
1,1,0.01100,1.14450,0.54450*
1,1,0.01100,1.14450,-0.54450*
%
%ADD17ROUNDEDRECTD17*%
G04:AMPARAMS|DCode=18|XSize=1.1mm|YSize=2.3mm|CornerRadius=0.0055mm|HoleSize=0mm|Usage=FLASHONLY|Rotation=0.000|XOffset=0mm|YOffset=0mm|HoleType=Round|Shape=RoundedRectangle|*
%AMROUNDEDRECTD18*
21,1,1.10000,2.28900,0,0,0.0*
21,1,1.08900,2.30000,0,0,0.0*
1,1,0.01100,0.54450,-1.14450*
1,1,0.01100,-0.54450,-1.14450*
1,1,0.01100,-0.54450,1.14450*
1,1,0.01100,0.54450,1.14450*
%
%ADD18ROUNDEDRECTD18*%
%TA.AperFunction,SMDPad,CuDef*%
G04:AMPARAMS|DCode=19|XSize=0.85mm|YSize=0.9mm|CornerRadius=0.0425mm|HoleSize=0mm|Usage=FLASHONLY|Rotation=270.000|XOffset=0mm|YOffset=0mm|HoleType=Round|Shape=RoundedRectangle|*
%AMROUNDEDRECTD19*
21,1,0.85000,0.81500,0,0,270.0*
21,1,0.76500,0.90000,0,0,270.0*
1,1,0.08500,-0.40750,-0.38250*
1,1,0.08500,-0.40750,0.38250*
1,1,0.08500,0.40750,0.38250*
1,1,0.08500,0.40750,-0.38250*
%
%ADD19ROUNDEDRECTD19*%
G04:AMPARAMS|DCode=20|XSize=0.85mm|YSize=0.85mm|CornerRadius=0.0425mm|HoleSize=0mm|Usage=FLASHONLY|Rotation=180.000|XOffset=0mm|YOffset=0mm|HoleType=Round|Shape=RoundedRectangle|*
%AMROUNDEDRECTD20*
21,1,0.85000,0.76500,0,0,180.0*
21,1,0.76500,0.85000,0,0,180.0*
1,1,0.08500,-0.38250,0.38250*
1,1,0.08500,0.38250,0.38250*
1,1,0.08500,0.38250,-0.38250*
1,1,0.08500,-0.38250,-0.38250*
%
%ADD20ROUNDEDRECTD20*%
G04:AMPARAMS|DCode=21|XSize=1.275mm|YSize=0.9mm|CornerRadius=0.045mm|HoleSize=0mm|Usage=FLASHONLY|Rotation=90.000|XOffset=0mm|YOffset=0mm|HoleType=Round|Shape=RoundedRectangle|*
%AMROUNDEDRECTD21*
21,1,1.27500,0.81000,0,0,90.0*
21,1,1.18500,0.90000,0,0,90.0*
1,1,0.09000,0.40500,0.59250*
1,1,0.09000,0.40500,-0.59250*
1,1,0.09000,-0.40500,-0.59250*
1,1,0.09000,-0.40500,0.59250*
%
%ADD21ROUNDEDRECTD21*%
G04:AMPARAMS|DCode=23|XSize=1.275mm|YSize=0.9mm|CornerRadius=0.045mm|HoleSize=0mm|Usage=FLASHONLY|Rotation=180.000|XOffset=0mm|YOffset=0mm|HoleType=Round|Shape=RoundedRectangle|*
%AMROUNDEDRECTD23*
21,1,1.27500,0.81000,0,0,180.0*
21,1,1.18500,0.90000,0,0,180.0*
1,1,0.09000,-0.59250,0.40500*
1,1,0.09000,0.59250,0.40500*
1,1,0.09000,0.59250,-0.40500*
1,1,0.09000,-0.59250,-0.40500*
%
%ADD23ROUNDEDRECTD23*%
G04:AMPARAMS|DCode=24|XSize=0.85mm|YSize=0.9mm|CornerRadius=0.0425mm|HoleSize=0mm|Usage=FLASHONLY|Rotation=0.000|XOffset=0mm|YOffset=0mm|HoleType=Round|Shape=RoundedRectangle|*
%AMROUNDEDRECTD24*
21,1,0.85000,0.81500,0,0,0.0*
21,1,0.76500,0.90000,0,0,0.0*
1,1,0.08500,0.38250,-0.40750*
1,1,0.08500,-0.38250,-0.40750*
1,1,0.08500,-0.38250,0.40750*
1,1,0.08500,0.38250,0.40750*
%
%ADD24ROUNDEDRECTD24*%
D10*
X1343980Y1453300D02*
D03*
X1278980D02*
D03*
X1213980D02*
D03*
X1148980D02*
D03*
X1083980D02*
D03*
X1018980D02*
D03*
X953980D02*
D03*
X888980D02*
D03*
X823980D02*
D03*
X758980D02*
D03*
X1343980Y868300D02*
D03*
X1278980D02*
D03*
X1213980D02*
D03*
X1148980D02*
D03*
X1083980D02*
D03*
X1018980D02*
D03*
X953980D02*
D03*
X888980D02*
D03*
X823980D02*
D03*
X758980D02*
D03*
D11*
X1624400Y1924040D02*
D03*
Y1859040D02*
D03*
Y1794040D02*
D03*
Y1729040D02*
D03*
Y1664040D02*
D03*
Y1599040D02*
D03*
Y1534040D02*
D03*
X2214400Y1924040D02*
D03*
Y1859040D02*
D03*
Y1794040D02*
D03*
Y1729040D02*
D03*
Y1664040D02*
D03*
Y1599040D02*
D03*
Y1534040D02*
D03*
D12*
X1872639Y2667784D02*
D03*
X2712638D02*
D03*
X1872639Y2217784D02*
D03*
X2712638D02*
D03*
D13*
X2146080Y1004320D02*
D03*
Y909320D02*
D03*
Y814320D02*
D03*
X2436080D02*
D03*
Y1004320D02*
D03*
D14*
X239981Y1297943D02*
D03*
X334982D02*
D03*
X429981D02*
D03*
Y1032943D02*
D03*
X334982D02*
D03*
X239981D02*
D03*
D15*
X2531360Y668980D02*
D03*
X2721360D02*
D03*
X2626360Y418980D02*
D03*
X2242150Y399861D02*
D03*
X2337150Y649861D02*
D03*
X2147150D02*
D03*
X1871980Y986060D02*
D03*
X1776980Y736060D02*
D03*
X1966980D02*
D03*
D16*
X3252128Y2283707D02*
D03*
X3122128D02*
D03*
X1626060Y871220D02*
D03*
X1496060D02*
D03*
X1496060Y1003300D02*
D03*
X1626060D02*
D03*
X3124534Y1619398D02*
D03*
X3254533Y1619398D02*
D03*
Y1489557D02*
D03*
X3124534Y1489558D02*
D03*
X2631440Y1666383D02*
D03*
X2501440D02*
D03*
X2631440Y1528025D02*
D03*
X2501440D02*
D03*
X1280160Y1752600D02*
D03*
X1150160D02*
D03*
X2631440Y1943100D02*
D03*
X2501440D02*
D03*
X1496060Y1135380D02*
D03*
X1626060D02*
D03*
X3124534Y1878398D02*
D03*
X3254534D02*
D03*
Y1748558D02*
D03*
X3124534D02*
D03*
X464982Y833120D02*
D03*
X334982D02*
D03*
D17*
X5066577Y878629D02*
D03*
Y2074969D02*
D03*
X3524477Y2278169D02*
D03*
X5066577Y1076749D02*
D03*
Y1277409D02*
D03*
Y1475529D02*
D03*
Y1678729D02*
D03*
Y1876849D02*
D03*
Y2275629D02*
D03*
X3524477Y2077509D02*
D03*
Y1879389D02*
D03*
X3527017Y1678729D02*
D03*
Y1478069D02*
D03*
Y1279949D02*
D03*
Y1076749D02*
D03*
Y878629D02*
D03*
D18*
X4797177Y2473909D02*
D03*
X4599057Y2473909D02*
D03*
X4400937Y2473909D02*
D03*
X4197737D02*
D03*
X3999617Y2473909D02*
D03*
X3796417Y2473909D02*
D03*
D19*
X1273171Y699689D02*
D03*
X1408171D02*
D03*
X2273211Y1369780D02*
D03*
X2138211D02*
D03*
X1767640D02*
D03*
X1902640D02*
D03*
D20*
X226683Y1616583D02*
D03*
Y1486583D02*
D03*
X356327Y1486583D02*
D03*
Y1616583D02*
D03*
X719138Y1652505D02*
D03*
Y1782505D02*
D03*
X2831820Y351068D02*
D03*
Y221068D02*
D03*
X5295092Y1483609D02*
D03*
Y1353609D02*
D03*
X859540Y1652505D02*
D03*
Y1782505D02*
D03*
X5425092Y1483609D02*
D03*
Y1353609D02*
D03*
X592061Y1109980D02*
D03*
Y979980D02*
D03*
D21*
X2402466Y1179636D02*
D03*
X2227226D02*
D03*
X5287472Y2204509D02*
D03*
X5462712D02*
D03*
X2193005Y226060D02*
D03*
X2017765D02*
D03*
D23*
X1968491Y591980D02*
D03*
Y416740D02*
D03*
D24*
X1630490Y2224150D02*
D03*
Y2089150D02*
D03*
%TF.MD5,29884fe7e9f61b395404498c1f304d7d*%
M02*
