%TF.GenerationSoftware,Altium Limited,Altium Designer,20.1.8 (145)*%
G04 Layer_Physical_Order=1*
G04 Layer_Color=2232046*
%FSLAX45Y45*%
%MOMM*%
%TF.SameCoordinates,4FE69ECD-ABF1-445D-A2E8-605A74DE355E*%
%TF.FilePolarity,Positive*%
%TF.FileFunction,Copper,L1,Top,Signal*%
%TF.Part,Single*%
G01*
G75*
%TA.AperFunction,SMDPad,CuDef*%
%ADD10O,0.45000X1.40000*%
%ADD11O,1.40000X0.45000*%
G04:AMPARAMS|DCode=12|XSize=2.1mm|YSize=1mm|CornerRadius=0.05mm|HoleSize=0mm|Usage=FLASHONLY|Rotation=180.000|XOffset=0mm|YOffset=0mm|HoleType=Round|Shape=RoundedRectangle|*
%AMROUNDEDRECTD12*
21,1,2.10000,0.90000,0,0,180.0*
21,1,2.00000,1.00000,0,0,180.0*
1,1,0.10000,-1.00000,0.45000*
1,1,0.10000,1.00000,0.45000*
1,1,0.10000,1.00000,-0.45000*
1,1,0.10000,-1.00000,-0.45000*
%
%ADD12ROUNDEDRECTD12*%
G04:AMPARAMS|DCode=13|XSize=0.6mm|YSize=1.05mm|CornerRadius=0.03mm|HoleSize=0mm|Usage=FLASHONLY|Rotation=90.000|XOffset=0mm|YOffset=0mm|HoleType=Round|Shape=RoundedRectangle|*
%AMROUNDEDRECTD13*
21,1,0.60000,0.99000,0,0,90.0*
21,1,0.54000,1.05000,0,0,90.0*
1,1,0.06000,0.49500,0.27000*
1,1,0.06000,0.49500,-0.27000*
1,1,0.06000,-0.49500,-0.27000*
1,1,0.06000,-0.49500,0.27000*
%
%ADD13ROUNDEDRECTD13*%
G04:AMPARAMS|DCode=14|XSize=0.5mm|YSize=1.05mm|CornerRadius=0.025mm|HoleSize=0mm|Usage=FLASHONLY|Rotation=180.000|XOffset=0mm|YOffset=0mm|HoleType=Round|Shape=RoundedRectangle|*
%AMROUNDEDRECTD14*
21,1,0.50000,1.00000,0,0,180.0*
21,1,0.45000,1.05000,0,0,180.0*
1,1,0.05000,-0.22500,0.50000*
1,1,0.05000,0.22500,0.50000*
1,1,0.05000,0.22500,-0.50000*
1,1,0.05000,-0.22500,-0.50000*
%
%ADD14ROUNDEDRECTD14*%
G04:AMPARAMS|DCode=15|XSize=0.6mm|YSize=1.1mm|CornerRadius=0.03mm|HoleSize=0mm|Usage=FLASHONLY|Rotation=0.000|XOffset=0mm|YOffset=0mm|HoleType=Round|Shape=RoundedRectangle|*
%AMROUNDEDRECTD15*
21,1,0.60000,1.04000,0,0,0.0*
21,1,0.54000,1.10000,0,0,0.0*
1,1,0.06000,0.27000,-0.52000*
1,1,0.06000,-0.27000,-0.52000*
1,1,0.06000,-0.27000,0.52000*
1,1,0.06000,0.27000,0.52000*
%
%ADD15ROUNDEDRECTD15*%
G04:AMPARAMS|DCode=16|XSize=0.85mm|YSize=0.85mm|CornerRadius=0.0425mm|HoleSize=0mm|Usage=FLASHONLY|Rotation=90.000|XOffset=0mm|YOffset=0mm|HoleType=Round|Shape=RoundedRectangle|*
%AMROUNDEDRECTD16*
21,1,0.85000,0.76500,0,0,90.0*
21,1,0.76500,0.85000,0,0,90.0*
1,1,0.08500,0.38250,0.38250*
1,1,0.08500,0.38250,-0.38250*
1,1,0.08500,-0.38250,-0.38250*
1,1,0.08500,-0.38250,0.38250*
%
%ADD16ROUNDEDRECTD16*%
%TA.AperFunction,ConnectorPad*%
G04:AMPARAMS|DCode=17|XSize=1.1mm|YSize=2.3mm|CornerRadius=0.0055mm|HoleSize=0mm|Usage=FLASHONLY|Rotation=270.000|XOffset=0mm|YOffset=0mm|HoleType=Round|Shape=RoundedRectangle|*
%AMROUNDEDRECTD17*
21,1,1.10000,2.28900,0,0,270.0*
21,1,1.08900,2.30000,0,0,270.0*
1,1,0.01100,-1.14450,-0.54450*
1,1,0.01100,-1.14450,0.54450*
1,1,0.01100,1.14450,0.54450*
1,1,0.01100,1.14450,-0.54450*
%
%ADD17ROUNDEDRECTD17*%
G04:AMPARAMS|DCode=18|XSize=1.1mm|YSize=2.3mm|CornerRadius=0.0055mm|HoleSize=0mm|Usage=FLASHONLY|Rotation=0.000|XOffset=0mm|YOffset=0mm|HoleType=Round|Shape=RoundedRectangle|*
%AMROUNDEDRECTD18*
21,1,1.10000,2.28900,0,0,0.0*
21,1,1.08900,2.30000,0,0,0.0*
1,1,0.01100,0.54450,-1.14450*
1,1,0.01100,-0.54450,-1.14450*
1,1,0.01100,-0.54450,1.14450*
1,1,0.01100,0.54450,1.14450*
%
%ADD18ROUNDEDRECTD18*%
%TA.AperFunction,SMDPad,CuDef*%
G04:AMPARAMS|DCode=19|XSize=0.85mm|YSize=0.9mm|CornerRadius=0.0425mm|HoleSize=0mm|Usage=FLASHONLY|Rotation=270.000|XOffset=0mm|YOffset=0mm|HoleType=Round|Shape=RoundedRectangle|*
%AMROUNDEDRECTD19*
21,1,0.85000,0.81500,0,0,270.0*
21,1,0.76500,0.90000,0,0,270.0*
1,1,0.08500,-0.40750,-0.38250*
1,1,0.08500,-0.40750,0.38250*
1,1,0.08500,0.40750,0.38250*
1,1,0.08500,0.40750,-0.38250*
%
%ADD19ROUNDEDRECTD19*%
G04:AMPARAMS|DCode=20|XSize=0.85mm|YSize=0.85mm|CornerRadius=0.0425mm|HoleSize=0mm|Usage=FLASHONLY|Rotation=180.000|XOffset=0mm|YOffset=0mm|HoleType=Round|Shape=RoundedRectangle|*
%AMROUNDEDRECTD20*
21,1,0.85000,0.76500,0,0,180.0*
21,1,0.76500,0.85000,0,0,180.0*
1,1,0.08500,-0.38250,0.38250*
1,1,0.08500,0.38250,0.38250*
1,1,0.08500,0.38250,-0.38250*
1,1,0.08500,-0.38250,-0.38250*
%
%ADD20ROUNDEDRECTD20*%
G04:AMPARAMS|DCode=21|XSize=1.275mm|YSize=0.9mm|CornerRadius=0.045mm|HoleSize=0mm|Usage=FLASHONLY|Rotation=90.000|XOffset=0mm|YOffset=0mm|HoleType=Round|Shape=RoundedRectangle|*
%AMROUNDEDRECTD21*
21,1,1.27500,0.81000,0,0,90.0*
21,1,1.18500,0.90000,0,0,90.0*
1,1,0.09000,0.40500,0.59250*
1,1,0.09000,0.40500,-0.59250*
1,1,0.09000,-0.40500,-0.59250*
1,1,0.09000,-0.40500,0.59250*
%
%ADD21ROUNDEDRECTD21*%
%ADD22C,1.00000*%
G04:AMPARAMS|DCode=23|XSize=1.275mm|YSize=0.9mm|CornerRadius=0.045mm|HoleSize=0mm|Usage=FLASHONLY|Rotation=180.000|XOffset=0mm|YOffset=0mm|HoleType=Round|Shape=RoundedRectangle|*
%AMROUNDEDRECTD23*
21,1,1.27500,0.81000,0,0,180.0*
21,1,1.18500,0.90000,0,0,180.0*
1,1,0.09000,-0.59250,0.40500*
1,1,0.09000,0.59250,0.40500*
1,1,0.09000,0.59250,-0.40500*
1,1,0.09000,-0.59250,-0.40500*
%
%ADD23ROUNDEDRECTD23*%
G04:AMPARAMS|DCode=24|XSize=0.85mm|YSize=0.9mm|CornerRadius=0.0425mm|HoleSize=0mm|Usage=FLASHONLY|Rotation=0.000|XOffset=0mm|YOffset=0mm|HoleType=Round|Shape=RoundedRectangle|*
%AMROUNDEDRECTD24*
21,1,0.85000,0.81500,0,0,0.0*
21,1,0.76500,0.90000,0,0,0.0*
1,1,0.08500,0.38250,-0.40750*
1,1,0.08500,-0.38250,-0.40750*
1,1,0.08500,-0.38250,0.40750*
1,1,0.08500,0.38250,0.40750*
%
%ADD24ROUNDEDRECTD24*%
%TA.AperFunction,Conductor*%
%ADD25C,0.15240*%
%ADD26C,0.12700*%
%ADD27C,0.20320*%
%ADD28C,0.30480*%
%ADD29C,0.25400*%
%TA.AperFunction,ComponentPad*%
%ADD30C,1.25000*%
%ADD31C,1.50000*%
G04:AMPARAMS|DCode=32|XSize=1.5mm|YSize=1.45mm|CornerRadius=0.18125mm|HoleSize=0mm|Usage=FLASHONLY|Rotation=180.000|XOffset=0mm|YOffset=0mm|HoleType=Round|Shape=RoundedRectangle|*
%AMROUNDEDRECTD32*
21,1,1.50000,1.08750,0,0,180.0*
21,1,1.13750,1.45000,0,0,180.0*
1,1,0.36250,-0.56875,0.54375*
1,1,0.36250,0.56875,0.54375*
1,1,0.36250,0.56875,-0.54375*
1,1,0.36250,-0.56875,-0.54375*
%
%ADD32ROUNDEDRECTD32*%
%ADD33O,1.50000X1.45000*%
%TA.AperFunction,ViaPad*%
%ADD34C,3.60000*%
%TA.AperFunction,ComponentPad*%
%ADD35C,1.52400*%
G04:AMPARAMS|DCode=36|XSize=1.524mm|YSize=1.524mm|CornerRadius=0.1905mm|HoleSize=0mm|Usage=FLASHONLY|Rotation=180.000|XOffset=0mm|YOffset=0mm|HoleType=Round|Shape=RoundedRectangle|*
%AMROUNDEDRECTD36*
21,1,1.52400,1.14300,0,0,180.0*
21,1,1.14300,1.52400,0,0,180.0*
1,1,0.38100,-0.57150,0.57150*
1,1,0.38100,0.57150,0.57150*
1,1,0.38100,0.57150,-0.57150*
1,1,0.38100,-0.57150,-0.57150*
%
%ADD36ROUNDEDRECTD36*%
%TA.AperFunction,ViaPad*%
%ADD37C,0.56000*%
G36*
X5417859Y2781311D02*
X5435544Y2778688D01*
X5452888Y2774343D01*
X5469722Y2768320D01*
X5485884Y2760676D01*
X5501220Y2751484D01*
X5515580Y2740833D01*
X5528828Y2728826D01*
X5540835Y2715579D01*
X5551485Y2701218D01*
X5560677Y2685883D01*
X5568321Y2669720D01*
X5574344Y2652886D01*
X5578689Y2635543D01*
X5581312Y2617857D01*
X5582156Y2600680D01*
X5582067Y2600000D01*
Y800000D01*
X5582156Y799320D01*
X5581312Y782142D01*
X5578689Y764457D01*
X5574344Y747113D01*
X5568321Y730279D01*
X5560677Y714117D01*
X5551485Y698781D01*
X5540834Y684421D01*
X5528827Y671173D01*
X5515580Y659166D01*
X5501219Y648515D01*
X5485884Y639324D01*
X5469721Y631679D01*
X5452887Y625656D01*
X5435544Y621311D01*
X5417858Y618688D01*
X5400680Y617844D01*
X5400000Y617934D01*
X3068580Y617933D01*
X3050800Y617966D01*
X3037592Y617225D01*
X3033595Y616545D01*
X3024550Y615008D01*
X3011838Y611346D01*
X2999617Y606284D01*
X2988038Y599885D01*
X2977250Y592230D01*
X2967386Y583415D01*
X2958571Y573551D01*
X2950916Y562762D01*
X2944517Y551184D01*
X2939454Y538962D01*
X2935792Y526250D01*
X2934255Y517206D01*
X2933575Y513209D01*
X2932834Y500000D01*
X2932867D01*
Y17933D01*
X200000D01*
X199320Y17844D01*
X182142Y18688D01*
X164457Y21311D01*
X147113Y25656D01*
X130279Y31679D01*
X114117Y39323D01*
X98781Y48515D01*
X84420Y59166D01*
X71173Y71173D01*
X59166Y84420D01*
X48515Y98781D01*
X39323Y114117D01*
X31679Y130279D01*
X25656Y147113D01*
X21311Y164457D01*
X18688Y182142D01*
X17852Y199149D01*
X17934Y199769D01*
Y2599999D01*
X17844Y2600680D01*
X18688Y2617856D01*
X21311Y2635542D01*
X25656Y2652885D01*
X31679Y2669720D01*
X39323Y2685882D01*
X48515Y2701218D01*
X59166Y2715579D01*
X71173Y2728826D01*
X84420Y2740833D01*
X98781Y2751484D01*
X114117Y2760675D01*
X130279Y2768320D01*
X147113Y2774343D01*
X164457Y2778688D01*
X182142Y2781311D01*
X199320Y2782155D01*
X200000Y2782065D01*
X5400000D01*
X5400680Y2782155D01*
X5417859Y2781311D01*
D02*
G37*
%LPC*%
G36*
X2812639Y2730637D02*
X2612638D01*
X2608018Y2730028D01*
X2603712Y2728245D01*
X2600015Y2725408D01*
X2597178Y2721710D01*
X2595394Y2717405D01*
X2594786Y2712784D01*
Y2686998D01*
X1990491D01*
Y2712784D01*
X1989883Y2717405D01*
X1988099Y2721710D01*
X1985262Y2725408D01*
X1981565Y2728245D01*
X1977259Y2730028D01*
X1972639Y2730637D01*
X1772639D01*
X1768018Y2730028D01*
X1763712Y2728245D01*
X1760015Y2725408D01*
X1757178Y2721710D01*
X1755394Y2717405D01*
X1754786Y2712784D01*
Y2686998D01*
X1070690D01*
X1065717Y2686344D01*
X1061083Y2684424D01*
X1057104Y2681371D01*
X1057103Y2681370D01*
X560453Y2184721D01*
X557400Y2180741D01*
X555480Y2176107D01*
X554825Y2171134D01*
X554826Y2171132D01*
Y1716333D01*
X554825Y1716331D01*
X555480Y1711358D01*
X557400Y1706723D01*
X560453Y1702744D01*
X605824Y1657374D01*
Y1550159D01*
X605823Y1550157D01*
X606478Y1545184D01*
X608398Y1540550D01*
X611451Y1536570D01*
X663740Y1484282D01*
Y1362188D01*
X663740Y1362185D01*
X664395Y1357213D01*
X666315Y1352578D01*
X669368Y1348599D01*
X1053559Y964408D01*
X1049390Y950510D01*
X1038630Y945209D01*
X1032516Y948478D01*
X1025880Y950491D01*
X1018980Y951170D01*
X1012347Y950517D01*
X992567Y970297D01*
Y984643D01*
X992567Y984645D01*
X991912Y989618D01*
X989993Y994252D01*
X986940Y998232D01*
X986939Y998232D01*
X953996Y1031175D01*
X950016Y1034229D01*
X945382Y1036148D01*
X940409Y1036803D01*
X940407Y1036803D01*
X902434D01*
X642887Y1296350D01*
Y1461607D01*
X642887Y1461609D01*
X642232Y1466583D01*
X640313Y1471217D01*
X637259Y1475196D01*
X637258Y1475197D01*
X518436Y1594020D01*
X514456Y1597073D01*
X509822Y1598993D01*
X504849Y1599648D01*
X504847Y1599648D01*
X411673D01*
Y1654833D01*
X411091Y1659258D01*
X409383Y1663381D01*
X406666Y1666922D01*
X403125Y1669639D01*
X399002Y1671347D01*
X394577Y1671930D01*
X318077D01*
X313652Y1671347D01*
X309529Y1669639D01*
X305988Y1666922D01*
X303271Y1663381D01*
X301563Y1659258D01*
X300981Y1654833D01*
Y1635798D01*
X282029Y1635797D01*
Y1654833D01*
X281446Y1659258D01*
X279738Y1663381D01*
X277022Y1666922D01*
X273481Y1669639D01*
X269358Y1671347D01*
X264933Y1671929D01*
X188432D01*
X184008Y1671347D01*
X179884Y1669639D01*
X176344Y1666922D01*
X173627Y1663381D01*
X171919Y1659258D01*
X171336Y1654833D01*
Y1578333D01*
X171919Y1573908D01*
X173627Y1569785D01*
X176344Y1566244D01*
X179884Y1563527D01*
X184008Y1561819D01*
X188432Y1561237D01*
X264933D01*
X269358Y1561819D01*
X273481Y1563527D01*
X277022Y1566244D01*
X279738Y1569785D01*
X281446Y1573908D01*
X282029Y1578333D01*
Y1597369D01*
X300981Y1597369D01*
Y1578333D01*
X301563Y1573908D01*
X303271Y1569785D01*
X305988Y1566244D01*
X309529Y1563527D01*
X313652Y1561819D01*
X318077Y1561237D01*
X392338D01*
X392477Y1561219D01*
X392479Y1561219D01*
X496890D01*
X604458Y1453651D01*
Y1288393D01*
X604458Y1288391D01*
X605113Y1283418D01*
X607033Y1278784D01*
X610086Y1274804D01*
X880888Y1004003D01*
X880889Y1004002D01*
X884868Y1000948D01*
X889502Y999029D01*
X894475Y998374D01*
X894477Y998374D01*
X932450D01*
X954139Y976686D01*
Y968384D01*
X954082Y962243D01*
X949060Y953814D01*
X940444Y948478D01*
X934329Y945209D01*
X933361Y944414D01*
X927342Y940811D01*
X915618D01*
X909599Y944414D01*
X908631Y945209D01*
X902516Y948478D01*
X895880Y950491D01*
X888980Y951170D01*
X882080Y950491D01*
X875444Y948478D01*
X869329Y945209D01*
X868360Y944414D01*
X862341Y940811D01*
X850619D01*
X844600Y944414D01*
X843631Y945209D01*
X837516Y948478D01*
X830880Y950491D01*
X823980Y951170D01*
X817080Y950491D01*
X810444Y948478D01*
X804329Y945209D01*
X803361Y944414D01*
X797342Y940811D01*
X790951D01*
X775652Y954463D01*
Y1036801D01*
X775652Y1036803D01*
X774997Y1041775D01*
X773078Y1046410D01*
X770024Y1050389D01*
X770023Y1050390D01*
X732997Y1087417D01*
X729018Y1090470D01*
X724383Y1092390D01*
X719410Y1093045D01*
X719408Y1093044D01*
X648629D01*
X647408Y1094266D01*
Y1148230D01*
X646825Y1152655D01*
X645117Y1156778D01*
X642400Y1160319D01*
X638860Y1163036D01*
X634736Y1164744D01*
X630311Y1165326D01*
X575888D01*
Y1358959D01*
X575888Y1358961D01*
X575233Y1363934D01*
X573313Y1368568D01*
X570260Y1372548D01*
X570259Y1372549D01*
X493868Y1448939D01*
X495500Y1467099D01*
X495506Y1467138D01*
X501701Y1472222D01*
X506787Y1478419D01*
X510566Y1485490D01*
X512893Y1493161D01*
X513679Y1501140D01*
X512893Y1509119D01*
X510566Y1516790D01*
X506787Y1523861D01*
X501701Y1530058D01*
X495503Y1535145D01*
X488433Y1538924D01*
X480761Y1541251D01*
X472782Y1542037D01*
X464804Y1541251D01*
X457132Y1538924D01*
X450061Y1535145D01*
X443864Y1530058D01*
X438778Y1523861D01*
X434999Y1516790D01*
X432671Y1509119D01*
X431886Y1501140D01*
X432671Y1493161D01*
X434999Y1485490D01*
X438778Y1478419D01*
X443864Y1472222D01*
X450061Y1467135D01*
X453568Y1465261D01*
Y1442854D01*
X453568Y1442852D01*
X454223Y1437879D01*
X456142Y1433245D01*
X459196Y1429265D01*
X537459Y1351002D01*
Y1153045D01*
X537297Y1152655D01*
X536715Y1148230D01*
Y1071730D01*
X537297Y1067305D01*
X539006Y1063182D01*
X541722Y1059641D01*
X545263Y1056924D01*
X549386Y1055216D01*
X553811Y1054634D01*
X630311D01*
X634736Y1055216D01*
X635282Y1055442D01*
X635697Y1055270D01*
X640670Y1054615D01*
X640672Y1054616D01*
X711451D01*
X737223Y1028844D01*
Y943481D01*
X733969Y940811D01*
X729571Y935451D01*
X726302Y929336D01*
X724289Y922700D01*
X723610Y915800D01*
Y820800D01*
X724289Y813900D01*
X726302Y807264D01*
X729571Y801149D01*
X733969Y795789D01*
X739329Y791391D01*
X745444Y788122D01*
X752080Y786109D01*
X758980Y785430D01*
X765880Y786109D01*
X772516Y788122D01*
X778631Y791391D01*
X779599Y792186D01*
X785618Y795789D01*
X788904D01*
X802992Y782729D01*
X803221Y764139D01*
X768867Y729786D01*
X599104D01*
X599102Y729786D01*
X594129Y729131D01*
X589495Y727211D01*
X585516Y724158D01*
X585515Y724157D01*
X457587Y596229D01*
X454533Y592250D01*
X452614Y587615D01*
X451959Y582642D01*
X451959Y582640D01*
Y376493D01*
X451959Y376491D01*
X452614Y371518D01*
X454533Y366884D01*
X457587Y362904D01*
X526396Y294095D01*
X523761Y290151D01*
X518821Y280135D01*
X515231Y269559D01*
X513052Y258605D01*
X512322Y247460D01*
X513052Y236315D01*
X515231Y225361D01*
X518821Y214785D01*
X523761Y204769D01*
X529966Y195482D01*
X537330Y187085D01*
X545727Y179721D01*
X555013Y173516D01*
X565030Y168576D01*
X575606Y164986D01*
X586560Y162808D01*
X597704Y162077D01*
X602704D01*
X613849Y162808D01*
X624803Y164986D01*
X635379Y168576D01*
X645396Y173516D01*
X654682Y179721D01*
X663079Y187085D01*
X670443Y195482D01*
X676648Y204769D01*
X681588Y214785D01*
X685178Y225361D01*
X687357Y236315D01*
X688087Y247460D01*
X687357Y258605D01*
X685178Y269559D01*
X681588Y280135D01*
X676648Y290151D01*
X670443Y299438D01*
X663079Y307835D01*
X654682Y315199D01*
X645396Y321404D01*
X635379Y326344D01*
X624803Y329934D01*
X613849Y332112D01*
X602704Y332843D01*
X597704D01*
X586560Y332112D01*
X575606Y329934D01*
X565030Y326344D01*
X555013Y321404D01*
X554066Y320771D01*
X490388Y384450D01*
Y574683D01*
X607061Y691357D01*
X776824D01*
X776826Y691357D01*
X781799Y692012D01*
X786434Y693931D01*
X790413Y696985D01*
X837566Y744137D01*
X837567Y744138D01*
X840620Y748118D01*
X842540Y752752D01*
X843195Y757725D01*
X843194Y757727D01*
Y781472D01*
X860974Y789234D01*
X869766Y781084D01*
Y697606D01*
X824723Y652564D01*
X784643D01*
X784641Y652565D01*
X779668Y651910D01*
X775034Y649990D01*
X771055Y646937D01*
X771054Y646936D01*
X711998Y587880D01*
X708945Y583901D01*
X707025Y579267D01*
X706370Y574293D01*
X706370Y574291D01*
Y376082D01*
X706370Y376080D01*
X707025Y371106D01*
X708945Y366472D01*
X711998Y362493D01*
X780396Y294095D01*
X777761Y290151D01*
X772821Y280135D01*
X769231Y269559D01*
X767052Y258605D01*
X766322Y247460D01*
X767052Y236315D01*
X769231Y225361D01*
X772821Y214785D01*
X777761Y204769D01*
X783966Y195482D01*
X791330Y187085D01*
X799727Y179721D01*
X809013Y173516D01*
X819030Y168576D01*
X829606Y164986D01*
X840560Y162808D01*
X851704Y162077D01*
X856704D01*
X867849Y162808D01*
X878803Y164986D01*
X889379Y168576D01*
X899396Y173516D01*
X908682Y179721D01*
X917079Y187085D01*
X924443Y195482D01*
X930648Y204769D01*
X935588Y214785D01*
X939178Y225361D01*
X941357Y236315D01*
X942087Y247460D01*
X941357Y258605D01*
X939178Y269559D01*
X935588Y280135D01*
X930648Y290151D01*
X924443Y299438D01*
X917079Y307835D01*
X908682Y315199D01*
X899396Y321404D01*
X889379Y326344D01*
X878803Y329934D01*
X867849Y332112D01*
X856704Y332843D01*
X851704D01*
X840560Y332112D01*
X829606Y329934D01*
X819030Y326344D01*
X809013Y321404D01*
X808066Y320771D01*
X744799Y384039D01*
Y566334D01*
X792600Y614136D01*
X832680D01*
X832682Y614135D01*
X837655Y614790D01*
X842289Y616710D01*
X846269Y619763D01*
X902566Y676060D01*
X902567Y676061D01*
X905620Y680041D01*
X907539Y684675D01*
X908195Y689648D01*
X908194Y689650D01*
Y781473D01*
X925974Y789235D01*
X934766Y781084D01*
Y646222D01*
X934765Y646220D01*
X935421Y641247D01*
X937340Y636613D01*
X940393Y632633D01*
X963142Y609885D01*
Y178284D01*
X963142Y178282D01*
X963797Y173309D01*
X965716Y168675D01*
X968770Y164695D01*
X1023468Y109997D01*
X1023468Y109996D01*
X1027448Y106943D01*
X1032082Y105023D01*
X1037055Y104369D01*
X1414492D01*
X1414494Y104368D01*
X1419467Y105023D01*
X1424101Y106943D01*
X1428081Y109996D01*
X1487449Y169365D01*
X1531921D01*
X1531923Y169364D01*
X1536896Y170019D01*
X1538191Y170556D01*
X1542121Y167331D01*
X1547476Y164469D01*
X1553287Y162706D01*
X1559329Y162111D01*
X1673079D01*
X1679122Y162706D01*
X1684932Y164469D01*
X1690287Y167331D01*
X1694981Y171183D01*
X1698833Y175877D01*
X1701695Y181232D01*
X1703458Y187042D01*
X1704053Y193085D01*
Y301835D01*
X1703458Y307878D01*
X1701695Y313688D01*
X1698833Y319043D01*
X1694981Y323737D01*
X1690287Y327589D01*
X1684932Y330451D01*
X1679122Y332214D01*
X1673079Y332809D01*
X1559329D01*
X1553287Y332214D01*
X1547476Y330451D01*
X1542121Y327589D01*
X1537427Y323737D01*
X1533575Y319043D01*
X1530713Y313688D01*
X1528950Y307878D01*
X1528355Y301835D01*
Y212184D01*
X1523964Y207793D01*
X1479492D01*
X1479490Y207794D01*
X1474517Y207139D01*
X1469883Y205219D01*
X1465904Y202166D01*
X1465903Y202165D01*
X1406535Y142797D01*
X1045014D01*
X1001571Y186241D01*
Y617842D01*
X1001571Y617844D01*
X1000916Y622816D01*
X998996Y627451D01*
X995943Y631430D01*
X995942Y631431D01*
X973194Y654179D01*
Y791157D01*
X973631Y791391D01*
X974600Y792186D01*
X980619Y795789D01*
X992341D01*
X998360Y792186D01*
X999329Y791391D01*
X1005444Y788122D01*
X1012080Y786109D01*
X1018980Y785430D01*
X1025880Y786109D01*
X1032516Y788122D01*
X1038631Y791391D01*
X1039599Y792186D01*
X1045618Y795789D01*
X1057342D01*
X1063361Y792186D01*
X1064329Y791391D01*
X1070444Y788122D01*
X1077080Y786109D01*
X1083980Y785430D01*
X1090880Y786109D01*
X1097516Y788122D01*
X1103631Y791391D01*
X1104600Y792186D01*
X1110619Y795789D01*
X1122341D01*
X1128360Y792186D01*
X1129329Y791391D01*
X1135444Y788122D01*
X1138820Y787098D01*
Y868300D01*
Y949502D01*
X1135444Y948478D01*
X1129329Y945209D01*
X1128360Y944414D01*
X1122341Y940811D01*
X1119056D01*
X1103194Y955516D01*
Y961158D01*
X1103195Y961160D01*
X1102540Y966133D01*
X1100620Y970767D01*
X1097567Y974747D01*
X1097566Y974748D01*
X702169Y1370145D01*
Y1492238D01*
X702169Y1492240D01*
X701514Y1497213D01*
X699595Y1501847D01*
X696541Y1505827D01*
X696540Y1505828D01*
X644252Y1558116D01*
Y1665333D01*
X643597Y1670306D01*
X641678Y1674940D01*
X638625Y1678919D01*
X638624Y1678920D01*
X593254Y1724290D01*
Y2163175D01*
X1078649Y2648570D01*
X1754786D01*
Y2622784D01*
X1755394Y2618164D01*
X1757178Y2613858D01*
X1760015Y2610160D01*
X1763712Y2607323D01*
X1768018Y2605540D01*
X1772639Y2604932D01*
X1972639D01*
X1977259Y2605540D01*
X1981565Y2607323D01*
X1985262Y2610160D01*
X1988099Y2613858D01*
X1989883Y2618164D01*
X1990491Y2622784D01*
Y2648570D01*
X2594786D01*
Y2622784D01*
X2595394Y2618164D01*
X2597178Y2613858D01*
X2600015Y2610160D01*
X2603712Y2607323D01*
X2608018Y2605540D01*
X2612638Y2604932D01*
X2812639D01*
X2817259Y2605540D01*
X2821565Y2607323D01*
X2825262Y2610160D01*
X2828099Y2613858D01*
X2829883Y2618164D01*
X2830491Y2622784D01*
Y2712784D01*
X2829883Y2717405D01*
X2828099Y2721710D01*
X2825262Y2725408D01*
X2821565Y2728245D01*
X2817259Y2730028D01*
X2812639Y2730637D01*
D02*
G37*
G36*
X3657600Y2553580D02*
X3649621Y2552794D01*
X3641950Y2550467D01*
X3634879Y2546688D01*
X3628682Y2541602D01*
X3623595Y2535404D01*
X3621721Y2531898D01*
X3213622D01*
X3208649Y2531243D01*
X3204014Y2529323D01*
X3200035Y2526270D01*
X3200034Y2526269D01*
X3097516Y2423751D01*
X2653245D01*
X2653243Y2423751D01*
X2648270Y2423096D01*
X2643636Y2421177D01*
X2639657Y2418123D01*
X2639656Y2418122D01*
X2523873Y2302340D01*
X2520820Y2298361D01*
X2518900Y2293726D01*
X2518245Y2288753D01*
X2518246Y2288751D01*
Y2122985D01*
X2518245Y2122983D01*
X2518900Y2118010D01*
X2520820Y2113376D01*
X2523873Y2109397D01*
X2576076Y2057195D01*
Y1979252D01*
X2576075Y1979250D01*
X2576094Y1979111D01*
Y1904850D01*
X2576676Y1900425D01*
X2578384Y1896302D01*
X2581101Y1892761D01*
X2584642Y1890044D01*
X2588765Y1888336D01*
X2593190Y1887754D01*
X2669690D01*
X2674115Y1888336D01*
X2678238Y1890044D01*
X2681779Y1892761D01*
X2684496Y1896302D01*
X2686204Y1900425D01*
X2686786Y1904850D01*
Y1981350D01*
X2686204Y1985775D01*
X2684496Y1989898D01*
X2681779Y1993439D01*
X2678238Y1996156D01*
X2674115Y1997864D01*
X2669690Y1998446D01*
X2614504D01*
Y2065151D01*
X2614505Y2065153D01*
X2613850Y2070126D01*
X2611930Y2074760D01*
X2608877Y2078740D01*
X2608876Y2078741D01*
X2556674Y2130942D01*
Y2280794D01*
X2661202Y2385322D01*
X3105473D01*
X3105475Y2385322D01*
X3110448Y2385977D01*
X3115082Y2387897D01*
X3119062Y2390950D01*
X3221581Y2493469D01*
X3621721D01*
X3623595Y2489962D01*
X3628682Y2483765D01*
X3634879Y2478679D01*
X3641950Y2474900D01*
X3649621Y2472572D01*
X3657600Y2471787D01*
X3665579Y2472572D01*
X3673250Y2474900D01*
X3680321Y2478679D01*
X3686518Y2483765D01*
X3691605Y2489962D01*
X3695384Y2497033D01*
X3697711Y2504705D01*
X3698497Y2512683D01*
X3697711Y2520662D01*
X3695384Y2528334D01*
X3691605Y2535404D01*
X3686518Y2541602D01*
X3680321Y2546688D01*
X3673250Y2550467D01*
X3665579Y2552794D01*
X3657600Y2553580D01*
D02*
G37*
G36*
X3631749Y2439784D02*
X3631747Y2439784D01*
X3403874D01*
X3403872Y2439784D01*
X3398899Y2439129D01*
X3394264Y2437209D01*
X3390285Y2434156D01*
X3390284Y2434155D01*
X3295044Y2338915D01*
X3291430D01*
X3290378Y2339054D01*
X3213877D01*
X3209453Y2338471D01*
X3205329Y2336763D01*
X3201789Y2334046D01*
X3199072Y2330506D01*
X3197364Y2326382D01*
X3196781Y2321958D01*
Y2245457D01*
X3197364Y2241032D01*
X3199072Y2236909D01*
X3201789Y2233368D01*
X3205329Y2230652D01*
X3209453Y2228943D01*
X3213877Y2228361D01*
X3290378D01*
X3294803Y2228943D01*
X3298926Y2230652D01*
X3302467Y2233368D01*
X3305183Y2236909D01*
X3306892Y2241032D01*
X3307474Y2245457D01*
Y2301075D01*
X3307977Y2301141D01*
X3312611Y2303061D01*
X3316590Y2306114D01*
X3411831Y2401355D01*
X3623790D01*
X3670843Y2354302D01*
Y2334639D01*
X3670843Y2334637D01*
X3671497Y2329664D01*
X3673417Y2325030D01*
X3676470Y2321050D01*
X3726809Y2270712D01*
X3726810Y2270711D01*
X3730789Y2267658D01*
X3735423Y2265738D01*
X3740396Y2265083D01*
X3963816D01*
X4167516Y2061384D01*
X4167516Y2061383D01*
X4171496Y2058329D01*
X4176130Y2056410D01*
X4181103Y2055755D01*
X4181105Y2055755D01*
X4938762D01*
Y2020519D01*
X4939218Y2017060D01*
X4940553Y2013837D01*
X4942677Y2011070D01*
X4945444Y2008946D01*
X4948668Y2007611D01*
X4952126Y2007155D01*
X5181027D01*
X5184486Y2007611D01*
X5187709Y2008946D01*
X5190477Y2011070D01*
X5192600Y2013837D01*
X5193936Y2017060D01*
X5194391Y2020519D01*
Y2129419D01*
X5193936Y2132878D01*
X5192600Y2136102D01*
X5190477Y2138869D01*
X5187709Y2140993D01*
X5184486Y2142328D01*
X5181027Y2142784D01*
X4952126D01*
X4948668Y2142328D01*
X4945444Y2140993D01*
X4942677Y2138869D01*
X4940553Y2136102D01*
X4939218Y2132878D01*
X4938762Y2129419D01*
Y2094184D01*
X4189062D01*
X3985362Y2297884D01*
X3981382Y2300938D01*
X3976748Y2302857D01*
X3971775Y2303512D01*
X3971773Y2303512D01*
X3748355D01*
X3709271Y2342596D01*
Y2362261D01*
X3708617Y2367234D01*
X3706697Y2371868D01*
X3703644Y2375848D01*
X3703643Y2375849D01*
X3645336Y2434156D01*
X3641356Y2437209D01*
X3636722Y2439129D01*
X3631749Y2439784D01*
D02*
G37*
G36*
X4653507Y2601724D02*
X4544607D01*
X4541148Y2601268D01*
X4537924Y2599933D01*
X4535157Y2597809D01*
X4533033Y2595042D01*
X4531698Y2591819D01*
X4531242Y2588360D01*
Y2359459D01*
X4531698Y2356000D01*
X4533033Y2352777D01*
X4535157Y2350010D01*
X4537924Y2347886D01*
X4541148Y2346551D01*
X4544607Y2346095D01*
X4653507D01*
X4656966Y2346551D01*
X4660189Y2347886D01*
X4662956Y2350010D01*
X4665080Y2352777D01*
X4666415Y2356000D01*
X4666871Y2359459D01*
Y2588360D01*
X4666415Y2591819D01*
X4665080Y2595042D01*
X4662956Y2597809D01*
X4660189Y2599933D01*
X4656966Y2601268D01*
X4653507Y2601724D01*
D02*
G37*
G36*
X4054067D02*
X3945167D01*
X3941708Y2601268D01*
X3938484Y2599933D01*
X3935717Y2597809D01*
X3933593Y2595042D01*
X3932258Y2591819D01*
X3931802Y2588360D01*
Y2359459D01*
X3932258Y2356000D01*
X3933593Y2352777D01*
X3935717Y2350010D01*
X3938484Y2347886D01*
X3941708Y2346551D01*
X3945167Y2346095D01*
X4054067D01*
X4057526Y2346551D01*
X4060749Y2347886D01*
X4063516Y2350010D01*
X4065640Y2352777D01*
X4066975Y2356000D01*
X4067431Y2359459D01*
Y2588360D01*
X4066975Y2591819D01*
X4065640Y2595042D01*
X4063516Y2597809D01*
X4060749Y2599933D01*
X4057526Y2601268D01*
X4054067Y2601724D01*
D02*
G37*
G36*
X4851627Y2601724D02*
X4742727D01*
X4739268Y2601268D01*
X4736044Y2599933D01*
X4733277Y2597809D01*
X4731153Y2595041D01*
X4729818Y2591818D01*
X4729362Y2588359D01*
Y2359459D01*
X4729818Y2356000D01*
X4731153Y2352777D01*
X4733277Y2350009D01*
X4736044Y2347885D01*
X4739268Y2346550D01*
X4742727Y2346095D01*
X4851627D01*
X4855086Y2346550D01*
X4858309Y2347885D01*
X4861076Y2350009D01*
X4863200Y2352777D01*
X4864535Y2356000D01*
X4864991Y2359459D01*
Y2588359D01*
X4864535Y2591818D01*
X4863200Y2595041D01*
X4861076Y2597809D01*
X4858309Y2599933D01*
X4855086Y2601268D01*
X4851627Y2601724D01*
D02*
G37*
G36*
X4455387D02*
X4346487D01*
X4343028Y2601268D01*
X4339804Y2599933D01*
X4337037Y2597809D01*
X4334913Y2595041D01*
X4333578Y2591818D01*
X4333122Y2588359D01*
Y2359459D01*
X4333578Y2356000D01*
X4334913Y2352777D01*
X4337037Y2350009D01*
X4339804Y2347885D01*
X4343028Y2346550D01*
X4346487Y2346095D01*
X4455387D01*
X4458846Y2346550D01*
X4462069Y2347885D01*
X4464836Y2350009D01*
X4466960Y2352777D01*
X4468295Y2356000D01*
X4468751Y2359459D01*
Y2588359D01*
X4468295Y2591818D01*
X4466960Y2595041D01*
X4464836Y2597809D01*
X4462069Y2599933D01*
X4458846Y2601268D01*
X4455387Y2601724D01*
D02*
G37*
G36*
X4252187D02*
X4143287D01*
X4139828Y2601268D01*
X4136604Y2599933D01*
X4133837Y2597809D01*
X4131713Y2595041D01*
X4130378Y2591818D01*
X4129922Y2588359D01*
Y2359459D01*
X4130378Y2356000D01*
X4131713Y2352777D01*
X4133837Y2350009D01*
X4136604Y2347885D01*
X4139828Y2346550D01*
X4143287Y2346095D01*
X4252187D01*
X4255646Y2346550D01*
X4258869Y2347885D01*
X4261636Y2350009D01*
X4263760Y2352777D01*
X4265095Y2356000D01*
X4265551Y2359459D01*
Y2588359D01*
X4265095Y2591818D01*
X4263760Y2595041D01*
X4261636Y2597809D01*
X4258869Y2599933D01*
X4255646Y2601268D01*
X4252187Y2601724D01*
D02*
G37*
G36*
X3850867D02*
X3741967D01*
X3738508Y2601268D01*
X3735285Y2599933D01*
X3732517Y2597809D01*
X3730393Y2595041D01*
X3729058Y2591818D01*
X3728603Y2588359D01*
Y2359459D01*
X3729058Y2356000D01*
X3730393Y2352777D01*
X3732517Y2350009D01*
X3735285Y2347885D01*
X3738508Y2346550D01*
X3741967Y2346095D01*
X3850867D01*
X3854326Y2346550D01*
X3857549Y2347885D01*
X3860317Y2350009D01*
X3862441Y2352777D01*
X3863776Y2356000D01*
X3864231Y2359459D01*
Y2588359D01*
X3863776Y2591818D01*
X3862441Y2595041D01*
X3860317Y2597809D01*
X3857549Y2599933D01*
X3854326Y2601268D01*
X3850867Y2601724D01*
D02*
G37*
G36*
X3638927Y2345983D02*
X3534637D01*
Y2288329D01*
X3652291D01*
Y2332619D01*
X3651835Y2336078D01*
X3650500Y2339301D01*
X3648376Y2342069D01*
X3645609Y2344193D01*
X3642386Y2345528D01*
X3638927Y2345983D01*
D02*
G37*
G36*
X3514317D02*
X3410026D01*
X3406567Y2345528D01*
X3403344Y2344193D01*
X3400577Y2342069D01*
X3398453Y2339301D01*
X3397118Y2336078D01*
X3396662Y2332619D01*
Y2288329D01*
X3514317D01*
Y2345983D01*
D02*
G37*
G36*
X4967015Y2708214D02*
X3116957D01*
X3110989Y2707429D01*
X3105428Y2705125D01*
X3100653Y2701461D01*
X2929229Y2530037D01*
X2571213D01*
X2565245Y2529251D01*
X2559684Y2526948D01*
X2554909Y2523283D01*
X2037641Y2006016D01*
X2033977Y2001241D01*
X2031673Y1995680D01*
X2030888Y1989712D01*
Y1564331D01*
X2031673Y1558363D01*
X2033977Y1552802D01*
X2037641Y1548027D01*
X2067932Y1517736D01*
X2072707Y1514072D01*
X2078268Y1511768D01*
X2084236Y1510983D01*
X2140287D01*
X2141890Y1509029D01*
X2147249Y1504630D01*
X2153365Y1501362D01*
X2160000Y1499349D01*
X2166900Y1498670D01*
X2232164D01*
Y1425087D01*
X2228036Y1424544D01*
X2223913Y1422835D01*
X2220372Y1420119D01*
X2217655Y1416578D01*
X2215947Y1412455D01*
X2215365Y1408030D01*
Y1331529D01*
X2215947Y1327105D01*
X2217655Y1322981D01*
X2220372Y1319441D01*
X2223913Y1316724D01*
X2228036Y1315016D01*
X2232461Y1314433D01*
X2313961D01*
X2318386Y1315016D01*
X2322509Y1316724D01*
X2326050Y1319441D01*
X2328766Y1322981D01*
X2330475Y1327105D01*
X2331057Y1331529D01*
Y1346722D01*
X2362675D01*
X2364952Y1341226D01*
X2370108Y1332812D01*
X2376518Y1325307D01*
X2384022Y1318898D01*
X2392437Y1313741D01*
X2397933Y1311464D01*
Y1256234D01*
X2361966D01*
X2357476Y1255643D01*
X2353291Y1253910D01*
X2349699Y1251153D01*
X2346941Y1247560D01*
X2345208Y1243376D01*
X2344617Y1238886D01*
Y1120386D01*
X2345208Y1115896D01*
X2346941Y1111712D01*
X2349699Y1108119D01*
X2353291Y1105362D01*
X2357476Y1103629D01*
X2361966Y1103038D01*
X2392483D01*
Y1047155D01*
X2386580D01*
X2382481Y1046616D01*
X2378662Y1045034D01*
X2375383Y1042517D01*
X2372866Y1039238D01*
X2371284Y1035419D01*
X2370745Y1031320D01*
Y977320D01*
X2371284Y973222D01*
X2372866Y969402D01*
X2375383Y966123D01*
X2378662Y963606D01*
X2382481Y962024D01*
X2386580Y961485D01*
X2485580D01*
X2489679Y962024D01*
X2493498Y963606D01*
X2496777Y966123D01*
X2499294Y969402D01*
X2500876Y973222D01*
X2501415Y977320D01*
Y1031320D01*
X2500876Y1035419D01*
X2499294Y1039238D01*
X2496777Y1042517D01*
X2493498Y1045034D01*
X2489679Y1046616D01*
X2485580Y1047155D01*
X2438597D01*
Y1103038D01*
X2442966D01*
X2447456Y1103629D01*
X2451640Y1105362D01*
X2455233Y1108119D01*
X2457990Y1111712D01*
X2459723Y1115896D01*
X2460314Y1120386D01*
Y1136258D01*
X2610170D01*
X2612415Y1129643D01*
X2617355Y1119626D01*
X2623560Y1110340D01*
X2630924Y1101943D01*
X2639321Y1094579D01*
X2648607Y1088374D01*
X2658624Y1083434D01*
X2669200Y1079844D01*
X2680154Y1077665D01*
X2691299Y1076935D01*
X2696299D01*
X2707443Y1077665D01*
X2718397Y1079844D01*
X2728973Y1083434D01*
X2738990Y1088374D01*
X2748276Y1094579D01*
X2756673Y1101943D01*
X2764037Y1110340D01*
X2770242Y1119626D01*
X2775182Y1129643D01*
X2778772Y1140219D01*
X2780951Y1151173D01*
X2781682Y1162317D01*
X2780951Y1173462D01*
X2778772Y1184416D01*
X2775182Y1194992D01*
X2770242Y1205009D01*
X2764037Y1214295D01*
X2756673Y1222692D01*
X2748276Y1230056D01*
X2738990Y1236261D01*
X2728973Y1241201D01*
X2718397Y1244791D01*
X2714294Y1245607D01*
Y1280115D01*
X2998202Y1564023D01*
X3089654D01*
X3089874Y1564052D01*
X3162784D01*
X3167209Y1564634D01*
X3171332Y1566342D01*
X3174873Y1569059D01*
X3177590Y1572600D01*
X3179298Y1576723D01*
X3179881Y1581148D01*
Y1657648D01*
X3179298Y1662073D01*
X3177590Y1666196D01*
X3174873Y1669737D01*
X3171332Y1672454D01*
X3167209Y1674162D01*
X3162784Y1674744D01*
X3145030D01*
Y1693212D01*
X3162784D01*
X3167209Y1693794D01*
X3171332Y1695502D01*
X3174873Y1698219D01*
X3177590Y1701760D01*
X3179298Y1705883D01*
X3179881Y1710308D01*
Y1786808D01*
X3179298Y1791233D01*
X3177590Y1795356D01*
X3174873Y1798897D01*
X3171332Y1801614D01*
X3167209Y1803322D01*
X3162784Y1803904D01*
X3145030D01*
Y1823052D01*
X3162784D01*
X3167209Y1823634D01*
X3171332Y1825343D01*
X3174873Y1828059D01*
X3177590Y1831600D01*
X3179298Y1835723D01*
X3179881Y1840148D01*
Y1916648D01*
X3179298Y1921073D01*
X3177590Y1925197D01*
X3174873Y1928737D01*
X3171332Y1931454D01*
X3167209Y1933162D01*
X3162784Y1933745D01*
X3086284D01*
X3081859Y1933162D01*
X3077736Y1931454D01*
X3074195Y1928737D01*
X3071478Y1925197D01*
X3069770Y1921073D01*
X3069188Y1916648D01*
Y1840148D01*
X3069770Y1835723D01*
X3071478Y1831600D01*
X3074195Y1828059D01*
X3077736Y1825343D01*
X3081859Y1823634D01*
X3086284Y1823052D01*
X3104039D01*
Y1803904D01*
X3086284D01*
X3081859Y1803322D01*
X3077736Y1801614D01*
X3074195Y1798897D01*
X3071478Y1795356D01*
X3069770Y1791233D01*
X3069188Y1786808D01*
Y1710308D01*
X3069770Y1705883D01*
X3071478Y1701760D01*
X3074195Y1698219D01*
X3077736Y1695502D01*
X3081859Y1693794D01*
X3086284Y1693212D01*
X3104039D01*
Y1674744D01*
X3086284D01*
X3081859Y1674162D01*
X3077736Y1672454D01*
X3074195Y1669737D01*
X3071478Y1666196D01*
X3069770Y1662073D01*
X3069188Y1657648D01*
Y1605013D01*
X2989713D01*
X2984408Y1604315D01*
X2979465Y1602268D01*
X2975221Y1599010D01*
X2679307Y1303096D01*
X2676050Y1298852D01*
X2674002Y1293909D01*
X2673304Y1288604D01*
Y1245607D01*
X2669200Y1244791D01*
X2658624Y1241201D01*
X2648607Y1236261D01*
X2639321Y1230056D01*
X2630924Y1222692D01*
X2623560Y1214295D01*
X2617355Y1205009D01*
X2612415Y1194992D01*
X2608825Y1184416D01*
X2608419Y1182373D01*
X2460314D01*
Y1238886D01*
X2459723Y1243376D01*
X2457990Y1247560D01*
X2455233Y1251153D01*
X2451640Y1253910D01*
X2447456Y1255643D01*
X2444048Y1256092D01*
Y1311464D01*
X2449543Y1313741D01*
X2457958Y1318898D01*
X2465463Y1325307D01*
X2471872Y1332812D01*
X2477029Y1341226D01*
X2480806Y1350344D01*
X2483110Y1359941D01*
X2483884Y1369780D01*
X2483110Y1379618D01*
X2480806Y1389215D01*
X2477029Y1398333D01*
X2471872Y1406748D01*
X2465463Y1414252D01*
X2457958Y1420662D01*
X2449543Y1425818D01*
X2440426Y1429595D01*
X2430829Y1431899D01*
X2420990Y1432673D01*
X2411152Y1431899D01*
X2401555Y1429595D01*
X2392437Y1425818D01*
X2384022Y1420662D01*
X2376518Y1414252D01*
X2370108Y1406748D01*
X2364952Y1398333D01*
X2362675Y1392837D01*
X2331057D01*
Y1408030D01*
X2330475Y1412455D01*
X2328766Y1416578D01*
X2326050Y1420119D01*
X2322509Y1422835D01*
X2318386Y1424544D01*
X2313961Y1425126D01*
X2278279D01*
Y1502882D01*
X2281551Y1504630D01*
X2286911Y1509029D01*
X2291310Y1514389D01*
X2294578Y1520504D01*
X2296591Y1527139D01*
X2297270Y1534040D01*
X2296591Y1540940D01*
X2294578Y1547576D01*
X2291310Y1553691D01*
X2290515Y1554659D01*
X2286911Y1560678D01*
Y1563964D01*
X2301616Y1579826D01*
X2329668D01*
X2358905Y1550589D01*
X2358906Y1550588D01*
X2362885Y1547535D01*
X2367520Y1545615D01*
X2372492Y1544960D01*
X2372494Y1544961D01*
X2446094D01*
Y1489775D01*
X2446676Y1485350D01*
X2448384Y1481227D01*
X2451101Y1477686D01*
X2454642Y1474969D01*
X2458765Y1473261D01*
X2463190Y1472679D01*
X2539690D01*
X2544115Y1473261D01*
X2548238Y1474969D01*
X2551779Y1477686D01*
X2554496Y1481227D01*
X2556204Y1485350D01*
X2556786Y1489775D01*
Y1566275D01*
X2556204Y1570700D01*
X2554496Y1574823D01*
X2551779Y1578364D01*
X2548238Y1581081D01*
X2544115Y1582789D01*
X2539690Y1583371D01*
X2465429D01*
X2465290Y1583390D01*
X2465288Y1583389D01*
X2380451D01*
X2351214Y1612627D01*
X2347234Y1615680D01*
X2342600Y1617600D01*
X2337627Y1618255D01*
X2337625Y1618254D01*
X2301228D01*
X2293466Y1636034D01*
X2301616Y1644826D01*
X2446094D01*
Y1628133D01*
X2446676Y1623708D01*
X2448384Y1619585D01*
X2451101Y1616044D01*
X2454642Y1613327D01*
X2458765Y1611619D01*
X2463190Y1611037D01*
X2539690D01*
X2544115Y1611619D01*
X2548238Y1613327D01*
X2551779Y1616044D01*
X2554496Y1619585D01*
X2556204Y1623708D01*
X2556786Y1628133D01*
Y1704633D01*
X2556204Y1709058D01*
X2554496Y1713181D01*
X2551779Y1716722D01*
X2548238Y1719439D01*
X2544115Y1721147D01*
X2539690Y1721730D01*
X2463190D01*
X2458765Y1721147D01*
X2454642Y1719439D01*
X2451101Y1716722D01*
X2448384Y1713181D01*
X2446676Y1709058D01*
X2446094Y1704633D01*
Y1683254D01*
X2301228D01*
X2293466Y1701034D01*
X2301616Y1709826D01*
X2349952D01*
X2349954Y1709825D01*
X2354926Y1710480D01*
X2359561Y1712400D01*
X2363540Y1715453D01*
X2397464Y1749377D01*
X2645205D01*
X2645207Y1749377D01*
X2650180Y1750032D01*
X2654814Y1751952D01*
X2658794Y1755005D01*
X2779067Y1875278D01*
X2779068Y1875279D01*
X2782121Y1879259D01*
X2784041Y1883893D01*
X2784696Y1888866D01*
X2784696Y1888868D01*
Y1972704D01*
X3040334Y2228343D01*
X3085976D01*
X3085978Y2228343D01*
X3086117Y2228361D01*
X3160378D01*
X3164803Y2228943D01*
X3168926Y2230652D01*
X3172467Y2233368D01*
X3175183Y2236909D01*
X3176892Y2241032D01*
X3177474Y2245457D01*
Y2321958D01*
X3176892Y2326382D01*
X3175183Y2330506D01*
X3172467Y2334046D01*
X3168926Y2336763D01*
X3164803Y2338471D01*
X3160378Y2339054D01*
X3083877D01*
X3079453Y2338471D01*
X3075329Y2336763D01*
X3071789Y2334046D01*
X3069072Y2330506D01*
X3067364Y2326382D01*
X3066781Y2321958D01*
Y2266772D01*
X3032375D01*
X3027402Y2266117D01*
X3022768Y2264197D01*
X3018788Y2261144D01*
X3018788Y2261143D01*
X2751895Y1994250D01*
X2748841Y1990271D01*
X2746922Y1985636D01*
X2746267Y1980664D01*
X2746267Y1980662D01*
Y1896825D01*
X2637248Y1787806D01*
X2389507D01*
X2389505Y1787806D01*
X2384532Y1787151D01*
X2379898Y1785232D01*
X2375919Y1782178D01*
X2375918Y1782177D01*
X2341995Y1748254D01*
X2301228D01*
X2293466Y1766034D01*
X2301616Y1774826D01*
X2320142D01*
X2320144Y1774825D01*
X2325117Y1775480D01*
X2329751Y1777400D01*
X2333731Y1780453D01*
X2441013Y1887736D01*
X2465288D01*
X2465290Y1887735D01*
X2465429Y1887754D01*
X2539690D01*
X2544115Y1888336D01*
X2548238Y1890044D01*
X2551779Y1892761D01*
X2554496Y1896302D01*
X2556204Y1900425D01*
X2556786Y1904850D01*
Y1981350D01*
X2556204Y1985775D01*
X2554496Y1989898D01*
X2551779Y1993439D01*
X2548238Y1996156D01*
X2544115Y1997864D01*
X2539690Y1998446D01*
X2463190D01*
X2458765Y1997864D01*
X2454642Y1996156D01*
X2451101Y1993439D01*
X2448384Y1989898D01*
X2446676Y1985775D01*
X2446094Y1981350D01*
Y1937604D01*
X2433054Y1926165D01*
X2428081Y1925509D01*
X2423447Y1923590D01*
X2419467Y1920537D01*
X2419467Y1920536D01*
X2312185Y1813254D01*
X2291543D01*
X2291310Y1813691D01*
X2290515Y1814659D01*
X2286911Y1820678D01*
Y1832401D01*
X2290515Y1838421D01*
X2291310Y1839389D01*
X2294578Y1845504D01*
X2296591Y1852140D01*
X2297270Y1859040D01*
X2296591Y1865940D01*
X2294578Y1872576D01*
X2291310Y1878691D01*
X2290515Y1879659D01*
X2286911Y1885678D01*
Y1897401D01*
X2290515Y1903420D01*
X2291310Y1904389D01*
X2294578Y1910504D01*
X2295602Y1913880D01*
X2214400D01*
X2133198D01*
X2134222Y1910504D01*
X2137491Y1904389D01*
X2138286Y1903420D01*
X2141890Y1897401D01*
Y1885678D01*
X2138286Y1879659D01*
X2137491Y1878691D01*
X2134222Y1872576D01*
X2132210Y1865940D01*
X2131530Y1859040D01*
X2132210Y1852140D01*
X2134222Y1845504D01*
X2137491Y1839389D01*
X2138286Y1838421D01*
X2141890Y1832401D01*
Y1820678D01*
X2138286Y1814659D01*
X2137491Y1813691D01*
X2134222Y1807576D01*
X2132210Y1800940D01*
X2131530Y1794040D01*
X2132210Y1787139D01*
X2134222Y1780504D01*
X2137491Y1774389D01*
X2138286Y1773420D01*
X2141890Y1767401D01*
Y1755678D01*
X2138286Y1749659D01*
X2137491Y1748691D01*
X2134222Y1742576D01*
X2132210Y1735940D01*
X2131530Y1729040D01*
X2132210Y1722140D01*
X2134222Y1715504D01*
X2137491Y1709389D01*
X2138286Y1708421D01*
X2141890Y1702401D01*
Y1690678D01*
X2138286Y1684659D01*
X2137491Y1683691D01*
X2134222Y1677576D01*
X2132210Y1670940D01*
X2131530Y1664040D01*
X2132210Y1657139D01*
X2134222Y1650504D01*
X2137491Y1644389D01*
X2138286Y1643420D01*
X2141890Y1637401D01*
Y1625678D01*
X2138286Y1619659D01*
X2137491Y1618691D01*
X2134222Y1612576D01*
X2132210Y1605940D01*
X2131530Y1599040D01*
X2132210Y1592140D01*
X2134222Y1585504D01*
X2137491Y1579389D01*
X2138286Y1578421D01*
X2141458Y1573122D01*
X2141436Y1572991D01*
X2134495Y1557097D01*
X2093787D01*
X2077002Y1573881D01*
Y1980161D01*
X2580763Y2483922D01*
X2938779D01*
X2944747Y2484708D01*
X2950308Y2487011D01*
X2955083Y2490675D01*
X3126508Y2662100D01*
X4957465D01*
X5229803Y2389761D01*
Y2276775D01*
X5194391D01*
Y2330079D01*
X5193936Y2333538D01*
X5192600Y2336762D01*
X5190477Y2339529D01*
X5187709Y2341653D01*
X5184486Y2342988D01*
X5181027Y2343444D01*
X4952126D01*
X4948668Y2342988D01*
X4945444Y2341653D01*
X4942677Y2339529D01*
X4940553Y2336762D01*
X4939218Y2333538D01*
X4938762Y2330079D01*
Y2221179D01*
X4939218Y2217720D01*
X4940553Y2214497D01*
X4942677Y2211730D01*
X4945444Y2209606D01*
X4948668Y2208271D01*
X4952126Y2207815D01*
X5181027D01*
X5184486Y2208271D01*
X5187709Y2209606D01*
X5190477Y2211730D01*
X5192600Y2214497D01*
X5193936Y2217720D01*
X5194391Y2221179D01*
Y2230661D01*
X5229624D01*
Y2145259D01*
X5230215Y2140769D01*
X5231948Y2136585D01*
X5234705Y2132992D01*
X5238298Y2130235D01*
X5242482Y2128502D01*
X5246972Y2127911D01*
X5275878D01*
Y1538956D01*
X5256842D01*
X5252417Y1538373D01*
X5248294Y1536665D01*
X5244753Y1533948D01*
X5242036Y1530408D01*
X5240328Y1526284D01*
X5239746Y1521860D01*
Y1445359D01*
X5240328Y1440934D01*
X5242036Y1436811D01*
X5244753Y1433270D01*
X5248294Y1430554D01*
X5252417Y1428846D01*
X5256842Y1428263D01*
X5333342D01*
X5337767Y1428846D01*
X5341890Y1430554D01*
X5345431Y1433270D01*
X5348148Y1436811D01*
X5349856Y1440934D01*
X5350438Y1445359D01*
Y1464395D01*
X5369746D01*
Y1445359D01*
X5370328Y1440934D01*
X5372036Y1436811D01*
X5374753Y1433270D01*
X5378294Y1430554D01*
X5382417Y1428846D01*
X5386842Y1428263D01*
X5463342D01*
X5467767Y1428846D01*
X5471890Y1430554D01*
X5475431Y1433270D01*
X5478148Y1436811D01*
X5479856Y1440934D01*
X5480438Y1445359D01*
Y1521860D01*
X5479856Y1526284D01*
X5478148Y1530408D01*
X5475431Y1533948D01*
X5471890Y1536665D01*
X5467767Y1538373D01*
X5463342Y1538956D01*
X5386842D01*
X5382417Y1538373D01*
X5378294Y1536665D01*
X5374753Y1533948D01*
X5372036Y1530408D01*
X5370328Y1526284D01*
X5369746Y1521860D01*
Y1502824D01*
X5350438D01*
Y1521860D01*
X5349856Y1526284D01*
X5348148Y1530408D01*
X5345431Y1533948D01*
X5341890Y1536665D01*
X5337767Y1538373D01*
X5333342Y1538956D01*
X5314306D01*
Y2127911D01*
X5327972D01*
X5332462Y2128502D01*
X5336646Y2130235D01*
X5340239Y2132992D01*
X5342996Y2136585D01*
X5344729Y2140769D01*
X5345320Y2145259D01*
Y2263760D01*
X5344729Y2268249D01*
X5342996Y2272434D01*
X5340239Y2276026D01*
X5336646Y2278784D01*
X5332462Y2280517D01*
X5327972Y2281108D01*
X5275918D01*
Y2399312D01*
X5275132Y2405279D01*
X5272829Y2410840D01*
X5269164Y2415616D01*
X4983319Y2701461D01*
X4978544Y2705125D01*
X4972983Y2707429D01*
X4967015Y2708214D01*
D02*
G37*
G36*
X1668740Y2281996D02*
X1640650D01*
Y2234310D01*
X1685836D01*
Y2264900D01*
X1685254Y2269325D01*
X1683546Y2273448D01*
X1680829Y2276989D01*
X1677288Y2279705D01*
X1673165Y2281414D01*
X1668740Y2281996D01*
D02*
G37*
G36*
X1620330D02*
X1592240D01*
X1587815Y2281414D01*
X1583692Y2279705D01*
X1580151Y2276989D01*
X1577434Y2273448D01*
X1575726Y2269325D01*
X1575144Y2264900D01*
Y2234310D01*
X1620330D01*
Y2281996D01*
D02*
G37*
G36*
X2812639Y2280637D02*
X2722799D01*
Y2227944D01*
X2830491D01*
Y2262784D01*
X2829883Y2267404D01*
X2828099Y2271710D01*
X2825262Y2275408D01*
X2821565Y2278245D01*
X2817259Y2280028D01*
X2812639Y2280637D01*
D02*
G37*
G36*
X1972639D02*
X1882798D01*
Y2227944D01*
X1990491D01*
Y2262784D01*
X1989883Y2267404D01*
X1988099Y2271710D01*
X1985262Y2275408D01*
X1981565Y2278245D01*
X1977259Y2280028D01*
X1972639Y2280637D01*
D02*
G37*
G36*
X1862478D02*
X1772639D01*
X1768018Y2280028D01*
X1763712Y2278245D01*
X1760015Y2275408D01*
X1757178Y2271710D01*
X1755394Y2267404D01*
X1754786Y2262784D01*
Y2227944D01*
X1862478D01*
Y2280637D01*
D02*
G37*
G36*
X2702479D02*
X2612638D01*
X2608018Y2280028D01*
X2603712Y2278245D01*
X2600015Y2275408D01*
X2597178Y2271710D01*
X2595394Y2267404D01*
X2594786Y2262784D01*
Y2227944D01*
X2702479D01*
Y2280637D01*
D02*
G37*
G36*
X5503212Y2281108D02*
X5472872D01*
Y2214669D01*
X5520560D01*
Y2263760D01*
X5519969Y2268249D01*
X5518236Y2272434D01*
X5515479Y2276026D01*
X5511886Y2278784D01*
X5507702Y2280517D01*
X5503212Y2281108D01*
D02*
G37*
G36*
X5452552D02*
X5422212D01*
X5417722Y2280517D01*
X5413538Y2278784D01*
X5409945Y2276026D01*
X5407188Y2272434D01*
X5405455Y2268249D01*
X5404863Y2263760D01*
Y2214669D01*
X5452552D01*
Y2281108D01*
D02*
G37*
G36*
X3652291Y2268009D02*
X3534637D01*
Y2210355D01*
X3638927D01*
X3642386Y2210810D01*
X3645609Y2212145D01*
X3648376Y2214269D01*
X3650500Y2217037D01*
X3651835Y2220260D01*
X3652291Y2223719D01*
Y2268009D01*
D02*
G37*
G36*
X3514317D02*
X3396662D01*
Y2223719D01*
X3397118Y2220260D01*
X3398453Y2217037D01*
X3400577Y2214269D01*
X3403344Y2212145D01*
X3406567Y2210810D01*
X3410026Y2210355D01*
X3514317D01*
Y2268009D01*
D02*
G37*
G36*
X3699667Y2170774D02*
X3699665Y2170774D01*
X3098858D01*
X3098856Y2170774D01*
X3093883Y2170119D01*
X3089249Y2168200D01*
X3085269Y2165146D01*
X3085269Y2165145D01*
X2829674Y1909551D01*
X2826621Y1905571D01*
X2824701Y1900937D01*
X2824046Y1895964D01*
X2824046Y1895962D01*
Y1841527D01*
X2704267Y1721748D01*
X2667592D01*
X2667590Y1721748D01*
X2667451Y1721730D01*
X2593190D01*
X2588765Y1721147D01*
X2584642Y1719439D01*
X2581101Y1716722D01*
X2578384Y1713181D01*
X2576676Y1709058D01*
X2576094Y1704633D01*
Y1628133D01*
X2576676Y1623708D01*
X2578384Y1619585D01*
X2581101Y1616044D01*
X2584642Y1613327D01*
X2588765Y1611619D01*
X2593190Y1611037D01*
X2669690D01*
X2674115Y1611619D01*
X2678238Y1613327D01*
X2681779Y1616044D01*
X2684496Y1619585D01*
X2686204Y1623708D01*
X2686786Y1628133D01*
Y1683319D01*
X2712224D01*
X2712226Y1683319D01*
X2717199Y1683974D01*
X2721833Y1685893D01*
X2725813Y1688947D01*
X2856846Y1819981D01*
X2856847Y1819981D01*
X2859901Y1823961D01*
X2861820Y1828595D01*
X2862475Y1833568D01*
X2862475Y1833570D01*
Y1888005D01*
X3106815Y2132345D01*
X3396324D01*
X3396662Y2131959D01*
Y2048074D01*
X3104446D01*
X3099473Y2047419D01*
X3094839Y2045499D01*
X3090859Y2042446D01*
X3090858Y2042445D01*
X2905608Y1857195D01*
X2902555Y1853215D01*
X2900635Y1848581D01*
X2899980Y1843608D01*
X2899980Y1843606D01*
Y1784384D01*
X2698986Y1583389D01*
X2667592D01*
X2667590Y1583390D01*
X2667451Y1583371D01*
X2593190D01*
X2588765Y1582789D01*
X2584642Y1581081D01*
X2581101Y1578364D01*
X2578384Y1574823D01*
X2576676Y1570700D01*
X2576094Y1566275D01*
Y1489775D01*
X2576676Y1485350D01*
X2578384Y1481227D01*
X2581101Y1477686D01*
X2584642Y1474969D01*
X2588765Y1473261D01*
X2593190Y1472679D01*
X2669690D01*
X2674115Y1473261D01*
X2678238Y1474969D01*
X2681779Y1477686D01*
X2684496Y1481227D01*
X2686204Y1485350D01*
X2686786Y1489775D01*
Y1544961D01*
X2706943D01*
X2706945Y1544960D01*
X2711918Y1545615D01*
X2716552Y1547535D01*
X2720532Y1550588D01*
X2932780Y1762837D01*
X2932781Y1762838D01*
X2935835Y1766817D01*
X2937754Y1771452D01*
X2938409Y1776425D01*
X2938409Y1776427D01*
Y1835649D01*
X3112404Y2009645D01*
X3475824D01*
X3475826Y2009645D01*
X3476210Y2009695D01*
X3638927D01*
X3642386Y2010151D01*
X3645609Y2011486D01*
X3648376Y2013610D01*
X3650500Y2016377D01*
X3651835Y2019600D01*
X3652291Y2023059D01*
Y2131959D01*
X3652629Y2132345D01*
X3691708D01*
X4110259Y1713794D01*
X4110260Y1713793D01*
X4114240Y1710740D01*
X4118874Y1708820D01*
X4123847Y1708165D01*
X4123849Y1708165D01*
X4938762D01*
Y1624279D01*
X4939218Y1620820D01*
X4940553Y1617597D01*
X4942677Y1614829D01*
X4945445Y1612705D01*
X4948668Y1611370D01*
X4952126Y1610915D01*
X5181027D01*
X5184486Y1611370D01*
X5187709Y1612705D01*
X5190477Y1614829D01*
X5192600Y1617597D01*
X5193936Y1620820D01*
X5194391Y1624279D01*
Y1733179D01*
X5193936Y1736638D01*
X5192600Y1739861D01*
X5190477Y1742629D01*
X5187709Y1744753D01*
X5184486Y1746088D01*
X5181027Y1746543D01*
X5018312D01*
X5017926Y1746594D01*
X5017924Y1746594D01*
X4131806D01*
X3713253Y2165146D01*
X3709274Y2168200D01*
X3704640Y2170119D01*
X3699667Y2170774D01*
D02*
G37*
G36*
X137160Y2246222D02*
Y2169160D01*
X214222D01*
X214136Y2170472D01*
X211893Y2181747D01*
X208198Y2192633D01*
X203113Y2202944D01*
X196726Y2212503D01*
X189146Y2221146D01*
X180503Y2228726D01*
X170944Y2235113D01*
X160633Y2240198D01*
X149747Y2243893D01*
X138472Y2246136D01*
X137160Y2246222D01*
D02*
G37*
G36*
X116840D02*
X115528Y2246136D01*
X104253Y2243893D01*
X93367Y2240198D01*
X83056Y2235113D01*
X73497Y2228726D01*
X64854Y2221146D01*
X57274Y2212503D01*
X50887Y2202944D01*
X45802Y2192633D01*
X42107Y2181747D01*
X39864Y2170472D01*
X39778Y2169160D01*
X116840D01*
Y2246222D01*
D02*
G37*
G36*
X1685836Y2213990D02*
X1640650D01*
Y2166304D01*
X1668740D01*
X1673165Y2166886D01*
X1677288Y2168594D01*
X1680829Y2171311D01*
X1683546Y2174852D01*
X1685254Y2178975D01*
X1685836Y2183400D01*
Y2213990D01*
D02*
G37*
G36*
X1620330D02*
X1575144D01*
Y2183400D01*
X1575726Y2178975D01*
X1577434Y2174852D01*
X1580151Y2171311D01*
X1583692Y2168594D01*
X1587815Y2166886D01*
X1592240Y2166304D01*
X1620330D01*
Y2213990D01*
D02*
G37*
G36*
X2830491Y2207624D02*
X2722799D01*
Y2154931D01*
X2812639D01*
X2817259Y2155540D01*
X2821565Y2157323D01*
X2825262Y2160160D01*
X2828099Y2163858D01*
X2829883Y2168164D01*
X2830491Y2172784D01*
Y2207624D01*
D02*
G37*
G36*
X2702479D02*
X2594786D01*
Y2172784D01*
X2595394Y2168164D01*
X2597178Y2163858D01*
X2600015Y2160160D01*
X2603712Y2157323D01*
X2608018Y2155540D01*
X2612638Y2154931D01*
X2702479D01*
Y2207624D01*
D02*
G37*
G36*
X1990491D02*
X1882798D01*
Y2154931D01*
X1972639D01*
X1977259Y2155540D01*
X1981565Y2157323D01*
X1985262Y2160160D01*
X1988099Y2163858D01*
X1989883Y2168164D01*
X1990491Y2172784D01*
Y2207624D01*
D02*
G37*
G36*
X1862478D02*
X1754786D01*
Y2172784D01*
X1755394Y2168164D01*
X1757178Y2163858D01*
X1760015Y2160160D01*
X1763712Y2157323D01*
X1768018Y2155540D01*
X1772639Y2154931D01*
X1862478D01*
Y2207624D01*
D02*
G37*
G36*
X5520560Y2194349D02*
X5472872D01*
Y2127911D01*
X5503212D01*
X5507702Y2128502D01*
X5511886Y2130235D01*
X5515479Y2132992D01*
X5518236Y2136585D01*
X5519969Y2140769D01*
X5520560Y2145259D01*
Y2194349D01*
D02*
G37*
G36*
X5452552D02*
X5404863D01*
Y2145259D01*
X5405455Y2140769D01*
X5407188Y2136585D01*
X5409945Y2132992D01*
X5413538Y2130235D01*
X5417722Y2128502D01*
X5422212Y2127911D01*
X5452552D01*
Y2194349D01*
D02*
G37*
G36*
X214222Y2148840D02*
X137160D01*
Y2071778D01*
X138472Y2071864D01*
X149747Y2074107D01*
X160633Y2077802D01*
X170944Y2082887D01*
X180503Y2089274D01*
X189146Y2096854D01*
X196726Y2105497D01*
X203113Y2115056D01*
X208198Y2125367D01*
X211893Y2136253D01*
X214136Y2147528D01*
X214222Y2148840D01*
D02*
G37*
G36*
X116840D02*
X39778D01*
X39864Y2147528D01*
X42107Y2136253D01*
X45802Y2125367D01*
X50887Y2115056D01*
X57274Y2105497D01*
X64854Y2096854D01*
X73497Y2089274D01*
X83056Y2082887D01*
X93367Y2077802D01*
X104253Y2074107D01*
X115528Y2071864D01*
X116840Y2071778D01*
Y2148840D01*
D02*
G37*
G36*
X1668740Y2146996D02*
X1592240D01*
X1587815Y2146414D01*
X1583692Y2144706D01*
X1580151Y2141989D01*
X1577434Y2138448D01*
X1575726Y2134325D01*
X1575144Y2129900D01*
Y2072265D01*
X1400210D01*
X1394905Y2071567D01*
X1389962Y2069519D01*
X1385718Y2066262D01*
X1364945Y2045490D01*
X1354140Y2048084D01*
X1342340Y2049012D01*
X1330540Y2048084D01*
X1319030Y2045321D01*
X1308094Y2040791D01*
X1298002Y2034606D01*
X1289001Y2026919D01*
X1281314Y2017918D01*
X1275129Y2007826D01*
X1270599Y1996890D01*
X1267836Y1985380D01*
X1266908Y1973580D01*
X1267836Y1961780D01*
X1270599Y1950270D01*
X1275129Y1939334D01*
X1281314Y1929242D01*
X1289001Y1920241D01*
X1298002Y1912554D01*
X1308094Y1906369D01*
X1319030Y1901839D01*
X1330540Y1899076D01*
X1342340Y1898148D01*
X1354140Y1899076D01*
X1365650Y1901839D01*
X1376586Y1906369D01*
X1386678Y1912554D01*
X1395679Y1920241D01*
X1403366Y1929242D01*
X1409551Y1939334D01*
X1414080Y1950270D01*
X1416844Y1961780D01*
X1417772Y1973580D01*
X1416844Y1985380D01*
X1414080Y1996890D01*
X1409551Y2007826D01*
X1405185Y2014950D01*
X1410218Y2025561D01*
X1415341Y2031275D01*
X1594360D01*
X1594582Y2031304D01*
X1665148D01*
X1665370Y2031275D01*
X1711663D01*
X1760684Y1982253D01*
Y1943254D01*
X1701543D01*
X1701310Y1943691D01*
X1696911Y1949050D01*
X1691551Y1953449D01*
X1685436Y1956718D01*
X1678801Y1958730D01*
X1671900Y1959410D01*
X1576900D01*
X1570000Y1958730D01*
X1563364Y1956718D01*
X1557249Y1953449D01*
X1551889Y1949050D01*
X1547491Y1943691D01*
X1544222Y1937575D01*
X1542210Y1930940D01*
X1541530Y1924040D01*
X1542210Y1917139D01*
X1544222Y1910504D01*
X1547491Y1904389D01*
X1548286Y1903420D01*
X1551889Y1897401D01*
Y1885678D01*
X1548286Y1879659D01*
X1547491Y1878691D01*
X1544222Y1872576D01*
X1542210Y1865940D01*
X1541530Y1859040D01*
X1542210Y1852140D01*
X1544222Y1845504D01*
X1547491Y1839389D01*
X1548286Y1838421D01*
X1551889Y1832401D01*
Y1829116D01*
X1537184Y1813254D01*
X1469655D01*
X1410944Y1871966D01*
X1406964Y1875019D01*
X1402330Y1876938D01*
X1397357Y1877593D01*
X1397355Y1877593D01*
X1101201D01*
X1096228Y1876938D01*
X1091594Y1875019D01*
X1087614Y1871966D01*
X1087614Y1871965D01*
X940393Y1724745D01*
X937340Y1720765D01*
X935421Y1716131D01*
X934765Y1711158D01*
X934766Y1711156D01*
Y1530443D01*
X934329Y1530210D01*
X933361Y1529415D01*
X927342Y1525811D01*
X915618D01*
X909599Y1529415D01*
X908631Y1530210D01*
X902516Y1533478D01*
X895880Y1535491D01*
X888980Y1536170D01*
X882080Y1535491D01*
X875444Y1533478D01*
X869329Y1530210D01*
X868360Y1529415D01*
X862341Y1525811D01*
X859056D01*
X843194Y1540516D01*
Y1597158D01*
X897790D01*
X902215Y1597741D01*
X906338Y1599449D01*
X909879Y1602166D01*
X912596Y1605706D01*
X914304Y1609830D01*
X914886Y1614255D01*
Y1690755D01*
X914304Y1695180D01*
X912596Y1699303D01*
X909879Y1702844D01*
X906338Y1705560D01*
X902215Y1707269D01*
X897790Y1707851D01*
X821290D01*
X816865Y1707269D01*
X812742Y1705560D01*
X809201Y1702844D01*
X806484Y1699303D01*
X804776Y1695180D01*
X804194Y1690755D01*
Y1614255D01*
X804766Y1609909D01*
Y1530443D01*
X804329Y1530210D01*
X803361Y1529415D01*
X797342Y1525811D01*
X785618D01*
X779599Y1529415D01*
X778631Y1530210D01*
X772516Y1533478D01*
X765880Y1535491D01*
X758980Y1536170D01*
X752080Y1535491D01*
X751606Y1535347D01*
X738352Y1548601D01*
Y1597158D01*
X757388D01*
X761813Y1597741D01*
X765936Y1599449D01*
X769477Y1602166D01*
X772194Y1605706D01*
X773902Y1609830D01*
X774484Y1614255D01*
Y1690755D01*
X773902Y1695180D01*
X772194Y1699303D01*
X769477Y1702844D01*
X765936Y1705560D01*
X761813Y1707269D01*
X757388Y1707851D01*
X680888D01*
X676463Y1707269D01*
X672340Y1705560D01*
X668799Y1702844D01*
X666082Y1699303D01*
X664374Y1695180D01*
X663791Y1690755D01*
Y1614255D01*
X664374Y1609830D01*
X666082Y1605706D01*
X668799Y1602166D01*
X672340Y1599449D01*
X676463Y1597741D01*
X680888Y1597158D01*
X699923D01*
Y1540644D01*
X699923Y1540642D01*
X700578Y1535669D01*
X702498Y1531035D01*
X705551Y1527056D01*
X724433Y1508174D01*
X724289Y1507701D01*
X723610Y1500800D01*
Y1405800D01*
X724289Y1398900D01*
X726302Y1392264D01*
X729571Y1386149D01*
X733969Y1380789D01*
X739329Y1376391D01*
X745444Y1373122D01*
X752080Y1371110D01*
X758980Y1370430D01*
X765880Y1371110D01*
X772516Y1373122D01*
X778631Y1376391D01*
X779599Y1377186D01*
X785618Y1380789D01*
X797342D01*
X803361Y1377186D01*
X804329Y1376391D01*
X810444Y1373122D01*
X817080Y1371110D01*
X823980Y1370430D01*
X830880Y1371110D01*
X837516Y1373122D01*
X843631Y1376391D01*
X844600Y1377186D01*
X850619Y1380789D01*
X853904D01*
X869766Y1366084D01*
Y1269132D01*
X869766Y1269130D01*
X870420Y1264157D01*
X872340Y1259523D01*
X875393Y1255543D01*
X1069248Y1061690D01*
X1068093Y1057885D01*
X1067307Y1049906D01*
X1068093Y1041927D01*
X1070421Y1034255D01*
X1074200Y1027185D01*
X1079286Y1020988D01*
X1085483Y1015901D01*
X1092554Y1012122D01*
X1100226Y1009795D01*
X1108204Y1009009D01*
X1116183Y1009795D01*
X1123855Y1012122D01*
X1130925Y1015901D01*
X1137123Y1020988D01*
X1142209Y1027185D01*
X1145988Y1034255D01*
X1148315Y1041927D01*
X1149101Y1049906D01*
X1148315Y1057885D01*
X1145988Y1065556D01*
X1142209Y1072627D01*
X1137123Y1078824D01*
X1130925Y1083910D01*
X1123855Y1087690D01*
X1116183Y1090017D01*
X1108204Y1090803D01*
X1100226Y1090017D01*
X1096421Y1088863D01*
X908195Y1277089D01*
Y1376158D01*
X908631Y1376391D01*
X909599Y1377186D01*
X915618Y1380789D01*
X927342D01*
X933361Y1377186D01*
X934329Y1376391D01*
X940444Y1373122D01*
X947080Y1371110D01*
X953980Y1370430D01*
X960880Y1371110D01*
X967516Y1373122D01*
X973631Y1376391D01*
X974600Y1377186D01*
X980619Y1380789D01*
X992341D01*
X998360Y1377186D01*
X999329Y1376391D01*
X1005444Y1373122D01*
X1012080Y1371110D01*
X1018980Y1370430D01*
X1025880Y1371110D01*
X1032516Y1373122D01*
X1038631Y1376391D01*
X1039599Y1377186D01*
X1045618Y1380789D01*
X1057342D01*
X1063361Y1377186D01*
X1064329Y1376391D01*
X1070444Y1373122D01*
X1077080Y1371110D01*
X1083980Y1370430D01*
X1090880Y1371110D01*
X1097516Y1373122D01*
X1103631Y1376391D01*
X1104600Y1377186D01*
X1110619Y1380789D01*
X1122341D01*
X1128360Y1377186D01*
X1129329Y1376391D01*
X1135444Y1373122D01*
X1142080Y1371110D01*
X1148980Y1370430D01*
X1155880Y1371110D01*
X1162516Y1373122D01*
X1168631Y1376391D01*
X1169599Y1377186D01*
X1175618Y1380789D01*
X1178904D01*
X1194766Y1366084D01*
Y1268436D01*
X1194765Y1268434D01*
X1195421Y1263461D01*
X1197340Y1258827D01*
X1200393Y1254847D01*
X1223576Y1231665D01*
X1223577Y1231664D01*
X1227556Y1228611D01*
X1232190Y1226691D01*
X1237163Y1226036D01*
X1237165Y1226036D01*
X1555018D01*
X1575533Y1205522D01*
X1576292Y1202042D01*
X1575721Y1185718D01*
X1573004Y1182178D01*
X1571296Y1178055D01*
X1570714Y1173630D01*
Y1097130D01*
X1571296Y1092705D01*
X1573004Y1088582D01*
X1575721Y1085041D01*
X1579262Y1082324D01*
X1583385Y1080616D01*
X1587810Y1080033D01*
X1662071D01*
X1662210Y1080015D01*
X1662212Y1080015D01*
X1705156D01*
X1712739Y1072432D01*
Y864659D01*
X1712739Y864657D01*
X1713394Y859684D01*
X1715313Y855049D01*
X1718367Y851070D01*
X1734116Y835321D01*
Y772412D01*
X1734115Y772410D01*
X1734145Y772188D01*
Y684060D01*
X1734684Y679962D01*
X1736266Y676142D01*
X1738783Y672863D01*
X1742062Y670346D01*
X1745881Y668764D01*
X1749980Y668225D01*
X1803980D01*
X1808078Y668764D01*
X1811898Y670346D01*
X1815177Y672863D01*
X1817694Y676142D01*
X1819276Y679962D01*
X1819815Y684060D01*
Y788060D01*
X1819276Y792158D01*
X1817694Y795978D01*
X1815177Y799257D01*
X1811898Y801774D01*
X1808078Y803356D01*
X1803980Y803895D01*
X1772544D01*
Y843278D01*
X1772545Y843280D01*
X1771890Y848253D01*
X1769970Y852887D01*
X1766917Y856867D01*
X1766916Y856867D01*
X1751168Y872616D01*
Y1080391D01*
X1750513Y1085364D01*
X1748593Y1089998D01*
X1745540Y1093978D01*
X1745539Y1093979D01*
X1726701Y1112816D01*
X1722722Y1115870D01*
X1718087Y1117789D01*
X1713115Y1118444D01*
X1713113Y1118444D01*
X1681406D01*
Y1173630D01*
X1680824Y1178055D01*
X1679116Y1182178D01*
X1676399Y1185719D01*
X1672858Y1188436D01*
X1668735Y1190144D01*
X1664310Y1190726D01*
X1619284D01*
Y1208156D01*
X1619285Y1208158D01*
X1618629Y1213131D01*
X1616710Y1217765D01*
X1613657Y1221745D01*
X1613656Y1221746D01*
X1576564Y1258837D01*
X1572585Y1261891D01*
X1567950Y1263811D01*
X1562977Y1264465D01*
X1562975Y1264465D01*
X1245122D01*
X1233194Y1276393D01*
Y1366473D01*
X1250974Y1374234D01*
X1259766Y1366084D01*
Y1342341D01*
X1259765Y1342339D01*
X1260420Y1337367D01*
X1262340Y1332732D01*
X1265393Y1328753D01*
X1305872Y1288274D01*
X1305873Y1288273D01*
X1309853Y1285220D01*
X1314487Y1283300D01*
X1319460Y1282645D01*
X1319462Y1282645D01*
X1621251D01*
X1769165Y1134732D01*
Y913918D01*
X1769164Y913916D01*
X1769819Y908943D01*
X1771739Y904309D01*
X1774792Y900329D01*
X1845397Y829725D01*
X1845398Y829724D01*
X1849378Y826670D01*
X1854012Y824751D01*
X1858985Y824096D01*
X2016684D01*
X2020289Y821330D01*
X2024923Y819411D01*
X2029896Y818756D01*
X2080745D01*
Y787320D01*
X2081284Y783222D01*
X2082866Y779403D01*
X2085383Y776123D01*
X2088662Y773607D01*
X2092481Y772024D01*
X2096580Y771485D01*
X2195580D01*
X2199679Y772024D01*
X2203498Y773607D01*
X2206777Y776123D01*
X2209294Y779403D01*
X2210876Y783222D01*
X2211415Y787320D01*
Y841320D01*
X2210876Y845419D01*
X2209294Y849238D01*
X2207824Y851153D01*
X2206777Y855376D01*
Y868264D01*
X2207824Y872487D01*
X2209294Y874402D01*
X2210876Y878222D01*
X2211415Y882320D01*
Y899160D01*
X2146080D01*
X2080745D01*
Y882320D01*
X2081284Y878222D01*
X2082866Y874403D01*
X2078547Y862398D01*
X2074462Y857184D01*
X2037768D01*
X2034163Y859950D01*
X2029529Y861870D01*
X2024556Y862525D01*
X2024554Y862525D01*
X1866944D01*
X1807593Y921875D01*
Y1142689D01*
X1807594Y1142691D01*
X1806938Y1147664D01*
X1805019Y1152298D01*
X1801966Y1156277D01*
X1801965Y1156278D01*
X1642797Y1315446D01*
X1638817Y1318500D01*
X1634183Y1320420D01*
X1629210Y1321074D01*
X1629208Y1321074D01*
X1327418D01*
X1298194Y1350299D01*
Y1376158D01*
X1298631Y1376391D01*
X1299599Y1377186D01*
X1305618Y1380789D01*
X1317342D01*
X1323361Y1377186D01*
X1324329Y1376391D01*
X1330444Y1373122D01*
X1337080Y1371110D01*
X1343980Y1370430D01*
X1350880Y1371110D01*
X1357516Y1373122D01*
X1363631Y1376391D01*
X1368991Y1380789D01*
X1373389Y1386149D01*
X1376658Y1392264D01*
X1378671Y1398900D01*
X1379350Y1405800D01*
Y1500800D01*
X1378832Y1506057D01*
X1423478Y1550703D01*
X1443791D01*
X1443793Y1550702D01*
X1448766Y1551357D01*
X1453400Y1553277D01*
X1457379Y1556330D01*
X1480875Y1579826D01*
X1547258D01*
X1547491Y1579389D01*
X1548286Y1578421D01*
X1551889Y1572401D01*
Y1560678D01*
X1548286Y1554659D01*
X1547491Y1553691D01*
X1544222Y1547576D01*
X1542210Y1540940D01*
X1541530Y1534040D01*
X1542210Y1527139D01*
X1544222Y1520504D01*
X1547491Y1514389D01*
X1551889Y1509029D01*
X1557249Y1504630D01*
X1563364Y1501362D01*
X1570000Y1499349D01*
X1576900Y1498670D01*
X1671900D01*
X1678801Y1499349D01*
X1685436Y1501362D01*
X1691551Y1504630D01*
X1696911Y1509029D01*
X1700616Y1513545D01*
X1760684D01*
Y1425126D01*
X1726890D01*
X1722465Y1424544D01*
X1718342Y1422835D01*
X1714801Y1420119D01*
X1712084Y1416578D01*
X1710376Y1412455D01*
X1709794Y1408030D01*
Y1331529D01*
X1710376Y1327105D01*
X1712084Y1322981D01*
X1714801Y1319441D01*
X1718342Y1316724D01*
X1722465Y1315016D01*
X1726890Y1314433D01*
X1783565D01*
Y1264468D01*
X1784263Y1259164D01*
X1786310Y1254221D01*
X1789568Y1249976D01*
X1820832Y1218711D01*
X1817495Y1210653D01*
X1815191Y1201057D01*
X1814416Y1191218D01*
X1815191Y1181379D01*
X1817495Y1171783D01*
X1821271Y1162665D01*
X1826428Y1154250D01*
X1832838Y1146745D01*
X1840342Y1140336D01*
X1848757Y1135179D01*
X1856815Y1131842D01*
Y1053896D01*
X1844980D01*
X1840882Y1053356D01*
X1837062Y1051774D01*
X1833783Y1049257D01*
X1831266Y1045978D01*
X1829684Y1042159D01*
X1829145Y1038060D01*
Y934060D01*
X1829684Y929962D01*
X1831266Y926143D01*
X1833783Y922863D01*
X1837062Y920347D01*
X1840882Y918764D01*
X1844980Y918225D01*
X1898980D01*
X1903078Y918764D01*
X1906898Y920347D01*
X1910177Y922863D01*
X1912694Y926143D01*
X1914276Y929962D01*
X1914815Y934060D01*
Y983825D01*
X2080745D01*
Y977320D01*
X2081284Y973222D01*
X2082866Y969402D01*
X2084336Y967487D01*
X2085383Y963265D01*
Y950375D01*
X2084336Y946153D01*
X2082866Y944238D01*
X2081284Y940418D01*
X2080745Y936320D01*
Y919480D01*
X2146080D01*
X2211415D01*
Y936320D01*
X2210876Y940418D01*
X2209294Y944238D01*
X2207824Y946153D01*
X2206777Y950375D01*
Y963265D01*
X2207824Y967487D01*
X2209294Y969402D01*
X2210876Y973222D01*
X2211415Y977320D01*
Y1031320D01*
X2210876Y1035419D01*
X2209294Y1039238D01*
X2206777Y1042517D01*
X2203498Y1045034D01*
X2199679Y1046616D01*
X2195580Y1047155D01*
X2096580D01*
X2092481Y1046616D01*
X2088662Y1045034D01*
X2085383Y1042517D01*
X2082866Y1039238D01*
X2081284Y1035419D01*
X2080745Y1031320D01*
Y1024815D01*
X1914815D01*
Y1038060D01*
X1914276Y1042159D01*
X1912694Y1045978D01*
X1910177Y1049257D01*
X1906898Y1051774D01*
X1903078Y1053356D01*
X1898980Y1053896D01*
X1897805D01*
Y1131842D01*
X1905863Y1135179D01*
X1914278Y1140336D01*
X1921783Y1146745D01*
X1928192Y1154250D01*
X1933349Y1162665D01*
X1937126Y1171783D01*
X1939429Y1181379D01*
X1940204Y1191218D01*
X1939429Y1201057D01*
X1937126Y1210653D01*
X1933349Y1219771D01*
X1928192Y1228186D01*
X1921783Y1235691D01*
X1914278Y1242100D01*
X1905863Y1247257D01*
X1896746Y1251034D01*
X1887149Y1253337D01*
X1877310Y1254112D01*
X1867471Y1253337D01*
X1857875Y1251034D01*
X1849817Y1247696D01*
X1824555Y1272957D01*
Y1326263D01*
X1824904Y1327105D01*
X1825486Y1331529D01*
Y1408030D01*
X1824904Y1412455D01*
X1823196Y1416578D01*
X1820479Y1420119D01*
X1816938Y1422835D01*
X1812815Y1424544D01*
X1808390Y1425126D01*
X1801674D01*
Y1534040D01*
Y1924040D01*
Y1990743D01*
X1800976Y1996047D01*
X1798929Y2000990D01*
X1795672Y2005235D01*
X1734644Y2066262D01*
X1730400Y2069519D01*
X1725457Y2071567D01*
X1720152Y2072265D01*
X1685836D01*
Y2129900D01*
X1685254Y2134325D01*
X1683546Y2138448D01*
X1680829Y2141989D01*
X1677288Y2144706D01*
X1673165Y2146414D01*
X1668740Y2146996D01*
D02*
G37*
G36*
X752500Y2048213D02*
Y1983740D01*
X816973D01*
X816844Y1985380D01*
X814080Y1996890D01*
X809551Y2007826D01*
X803366Y2017918D01*
X795679Y2026919D01*
X786678Y2034606D01*
X776585Y2040791D01*
X765650Y2045321D01*
X754140Y2048084D01*
X752500Y2048213D01*
D02*
G37*
G36*
X732180D02*
X730540Y2048084D01*
X719030Y2045321D01*
X708094Y2040791D01*
X698002Y2034606D01*
X689001Y2026919D01*
X681314Y2017918D01*
X675129Y2007826D01*
X670599Y1996890D01*
X667836Y1985380D01*
X667707Y1983740D01*
X732180D01*
Y2048213D01*
D02*
G37*
G36*
X2261900Y1959410D02*
X2224560D01*
Y1934200D01*
X2295602D01*
X2294578Y1937575D01*
X2291310Y1943691D01*
X2286911Y1949050D01*
X2281551Y1953449D01*
X2275436Y1956718D01*
X2268801Y1958730D01*
X2261900Y1959410D01*
D02*
G37*
G36*
X2204240D02*
X2166900D01*
X2160000Y1958730D01*
X2153365Y1956718D01*
X2147249Y1953449D01*
X2141890Y1949050D01*
X2137491Y1943691D01*
X2134222Y1937575D01*
X2133198Y1934200D01*
X2204240D01*
Y1959410D01*
D02*
G37*
G36*
X5471160Y1992222D02*
Y1915160D01*
X5548222D01*
X5548136Y1916472D01*
X5545893Y1927747D01*
X5542198Y1938633D01*
X5537113Y1948944D01*
X5530726Y1958503D01*
X5523146Y1967146D01*
X5514503Y1974726D01*
X5504944Y1981113D01*
X5494633Y1986198D01*
X5483747Y1989893D01*
X5472472Y1992136D01*
X5471160Y1992222D01*
D02*
G37*
G36*
X5450840D02*
X5449528Y1992136D01*
X5438253Y1989893D01*
X5427367Y1986198D01*
X5417056Y1981113D01*
X5407497Y1974726D01*
X5398854Y1967146D01*
X5391274Y1958503D01*
X5384887Y1948944D01*
X5379802Y1938633D01*
X5376107Y1927747D01*
X5373864Y1916472D01*
X5373778Y1915160D01*
X5450840D01*
Y1992222D01*
D02*
G37*
G36*
X137160D02*
Y1915160D01*
X214222D01*
X214136Y1916472D01*
X211893Y1927747D01*
X208198Y1938633D01*
X203113Y1948944D01*
X196726Y1958503D01*
X189146Y1967146D01*
X180503Y1974726D01*
X170944Y1981113D01*
X160633Y1986198D01*
X149747Y1989893D01*
X138472Y1992136D01*
X137160Y1992222D01*
D02*
G37*
G36*
X116840D02*
X115528Y1992136D01*
X104253Y1989893D01*
X93367Y1986198D01*
X83056Y1981113D01*
X73497Y1974726D01*
X64854Y1967146D01*
X57274Y1958503D01*
X50887Y1948944D01*
X45802Y1938633D01*
X42107Y1927747D01*
X39864Y1916472D01*
X39778Y1915160D01*
X116840D01*
Y1992222D01*
D02*
G37*
G36*
X816973Y1963420D02*
X752500D01*
Y1898947D01*
X754140Y1899076D01*
X765650Y1901839D01*
X776585Y1906369D01*
X786678Y1912554D01*
X795679Y1920241D01*
X803366Y1929242D01*
X809551Y1939334D01*
X814080Y1950270D01*
X816844Y1961780D01*
X816973Y1963420D01*
D02*
G37*
G36*
X732180D02*
X667707D01*
X667836Y1961780D01*
X670599Y1950270D01*
X675129Y1939334D01*
X681314Y1929242D01*
X689001Y1920241D01*
X698002Y1912554D01*
X708094Y1906369D01*
X719030Y1901839D01*
X730540Y1899076D01*
X732180Y1898947D01*
Y1963420D01*
D02*
G37*
G36*
X3638927Y1947204D02*
X3410026D01*
X3406567Y1946748D01*
X3403344Y1945413D01*
X3400577Y1943289D01*
X3398453Y1940522D01*
X3397118Y1937298D01*
X3396662Y1933839D01*
Y1898604D01*
X3309881D01*
Y1916648D01*
X3309298Y1921073D01*
X3307590Y1925197D01*
X3304873Y1928737D01*
X3301332Y1931454D01*
X3297209Y1933162D01*
X3292784Y1933745D01*
X3216284D01*
X3211859Y1933162D01*
X3207736Y1931454D01*
X3204195Y1928737D01*
X3201478Y1925197D01*
X3199770Y1921073D01*
X3199188Y1916648D01*
Y1840148D01*
X3199770Y1835723D01*
X3201478Y1831600D01*
X3204195Y1828059D01*
X3207736Y1825343D01*
X3211859Y1823634D01*
X3216284Y1823052D01*
X3292784D01*
X3297209Y1823634D01*
X3301332Y1825343D01*
X3304873Y1828059D01*
X3307590Y1831600D01*
X3309298Y1835723D01*
X3309881Y1840148D01*
Y1860175D01*
X3396662D01*
Y1824939D01*
X3397118Y1821480D01*
X3398453Y1818257D01*
X3400577Y1815490D01*
X3403344Y1813366D01*
X3406567Y1812031D01*
X3410026Y1811575D01*
X3638927D01*
X3642386Y1812031D01*
X3645609Y1813366D01*
X3648376Y1815490D01*
X3650500Y1818257D01*
X3651835Y1821480D01*
X3652291Y1824939D01*
Y1933839D01*
X3651835Y1937298D01*
X3650500Y1940522D01*
X3648376Y1943289D01*
X3645609Y1945413D01*
X3642386Y1946748D01*
X3638927Y1947204D01*
D02*
G37*
G36*
X1142340Y2049012D02*
X1130540Y2048084D01*
X1119030Y2045321D01*
X1108094Y2040791D01*
X1098002Y2034606D01*
X1089001Y2026919D01*
X1081314Y2017918D01*
X1075129Y2007826D01*
X1070599Y1996890D01*
X1067836Y1985380D01*
X1066907Y1973580D01*
X1067836Y1961780D01*
X1070599Y1950270D01*
X1073299Y1943753D01*
X1007392Y1877846D01*
X952024D01*
X952022Y1877846D01*
X947049Y1877191D01*
X942415Y1875272D01*
X938435Y1872219D01*
X938434Y1872217D01*
X904086Y1837869D01*
X895692D01*
X895690Y1837869D01*
X895551Y1837851D01*
X821290D01*
X816865Y1837269D01*
X812742Y1835560D01*
X809201Y1832844D01*
X806484Y1829303D01*
X804776Y1825180D01*
X804194Y1820755D01*
Y1744255D01*
X804776Y1739830D01*
X806484Y1735706D01*
X809201Y1732166D01*
X812742Y1729449D01*
X816865Y1727741D01*
X821290Y1727158D01*
X897790D01*
X902215Y1727741D01*
X906338Y1729449D01*
X909879Y1732166D01*
X912596Y1735706D01*
X914304Y1739830D01*
X914886Y1744255D01*
Y1799814D01*
X917018Y1800095D01*
X921652Y1802015D01*
X925632Y1805068D01*
X959981Y1839417D01*
X1015349D01*
X1015351Y1839417D01*
X1020324Y1840072D01*
X1024958Y1841992D01*
X1028937Y1845045D01*
X1097163Y1913270D01*
X1098002Y1912554D01*
X1108094Y1906369D01*
X1119030Y1901839D01*
X1130540Y1899076D01*
X1142340Y1898148D01*
X1154140Y1899076D01*
X1165650Y1901839D01*
X1176585Y1906369D01*
X1186678Y1912554D01*
X1195679Y1920241D01*
X1203366Y1929242D01*
X1209551Y1939334D01*
X1214080Y1950270D01*
X1216844Y1961780D01*
X1217772Y1973580D01*
X1216844Y1985380D01*
X1214080Y1996890D01*
X1209551Y2007826D01*
X1203366Y2017918D01*
X1195679Y2026919D01*
X1186678Y2034606D01*
X1176585Y2040791D01*
X1165650Y2045321D01*
X1154140Y2048084D01*
X1142340Y2049012D01*
D02*
G37*
G36*
X942340D02*
X930540Y2048084D01*
X919030Y2045321D01*
X908094Y2040791D01*
X898002Y2034606D01*
X889001Y2026919D01*
X881314Y2017918D01*
X875129Y2007826D01*
X870599Y1996890D01*
X867836Y1985380D01*
X866908Y1973580D01*
X867836Y1961780D01*
X870599Y1950270D01*
X871448Y1948222D01*
X819930Y1896705D01*
X801273D01*
X796300Y1896050D01*
X791666Y1894130D01*
X787687Y1891077D01*
X787686Y1891076D01*
X741701Y1845092D01*
X738648Y1841112D01*
X737297Y1837851D01*
X680888D01*
X676463Y1837269D01*
X672340Y1835560D01*
X668799Y1832844D01*
X666082Y1829303D01*
X664374Y1825180D01*
X663791Y1820755D01*
Y1744255D01*
X664374Y1739830D01*
X666082Y1735706D01*
X668799Y1732166D01*
X672340Y1729449D01*
X676463Y1727741D01*
X680888Y1727158D01*
X757388D01*
X761813Y1727741D01*
X765936Y1729449D01*
X769477Y1732166D01*
X772194Y1735706D01*
X773902Y1739830D01*
X774484Y1744255D01*
Y1818516D01*
X774502Y1818655D01*
X774502Y1818657D01*
Y1823546D01*
X809232Y1858276D01*
X827887D01*
X827889Y1858276D01*
X832862Y1858930D01*
X837496Y1860850D01*
X841476Y1863904D01*
X893754Y1916182D01*
X898002Y1912554D01*
X908094Y1906369D01*
X919030Y1901839D01*
X930540Y1899076D01*
X942340Y1898148D01*
X954140Y1899076D01*
X965650Y1901839D01*
X976586Y1906369D01*
X986678Y1912554D01*
X995679Y1920241D01*
X1003366Y1929242D01*
X1009551Y1939334D01*
X1014081Y1950270D01*
X1016844Y1961780D01*
X1017772Y1973580D01*
X1016844Y1985380D01*
X1014081Y1996890D01*
X1009551Y2007826D01*
X1003366Y2017918D01*
X995679Y2026919D01*
X986678Y2034606D01*
X976586Y2040791D01*
X965650Y2045321D01*
X954140Y2048084D01*
X942340Y2049012D01*
D02*
G37*
G36*
X5548222Y1894840D02*
X5471160D01*
Y1817778D01*
X5472472Y1817864D01*
X5483747Y1820107D01*
X5494633Y1823802D01*
X5504944Y1828887D01*
X5514503Y1835274D01*
X5523146Y1842854D01*
X5530726Y1851497D01*
X5537113Y1861056D01*
X5542198Y1871367D01*
X5545893Y1882253D01*
X5548136Y1893528D01*
X5548222Y1894840D01*
D02*
G37*
G36*
X5450840D02*
X5373778D01*
X5373864Y1893528D01*
X5376107Y1882253D01*
X5379802Y1871367D01*
X5384887Y1861056D01*
X5391274Y1851497D01*
X5398854Y1842854D01*
X5407497Y1835274D01*
X5417056Y1828887D01*
X5427367Y1823802D01*
X5438253Y1820107D01*
X5449528Y1817864D01*
X5450840Y1817778D01*
Y1894840D01*
D02*
G37*
G36*
X214222D02*
X137160D01*
Y1817778D01*
X138472Y1817864D01*
X149747Y1820107D01*
X160633Y1823802D01*
X170944Y1828887D01*
X180503Y1835274D01*
X189146Y1842854D01*
X196726Y1851497D01*
X203113Y1861056D01*
X208198Y1871367D01*
X211893Y1882253D01*
X214136Y1893528D01*
X214222Y1894840D01*
D02*
G37*
G36*
X116840D02*
X39778D01*
X39864Y1893528D01*
X42107Y1882253D01*
X45802Y1871367D01*
X50887Y1861056D01*
X57274Y1851497D01*
X64854Y1842854D01*
X73497Y1835274D01*
X83056Y1828887D01*
X93367Y1823802D01*
X104253Y1820107D01*
X115528Y1817864D01*
X116840Y1817778D01*
Y1894840D01*
D02*
G37*
G36*
X3762416Y2243077D02*
X3754437Y2242291D01*
X3746765Y2239964D01*
X3739695Y2236185D01*
X3733497Y2231098D01*
X3728411Y2224901D01*
X3724632Y2217830D01*
X3722305Y2210159D01*
X3721519Y2202180D01*
X3722305Y2194201D01*
X3724632Y2186530D01*
X3728411Y2179459D01*
X3733497Y2173262D01*
X3739695Y2168175D01*
X3746765Y2164396D01*
X3754437Y2162069D01*
X3762416Y2161283D01*
X3770394Y2162069D01*
X3778066Y2164396D01*
X3785137Y2168175D01*
X3791334Y2173262D01*
X3796420Y2179459D01*
X3798294Y2182966D01*
X3824901D01*
X4144603Y1863264D01*
X4144604Y1863263D01*
X4148584Y1860209D01*
X4153218Y1858290D01*
X4158191Y1857635D01*
X4158193Y1857635D01*
X4938762D01*
Y1822399D01*
X4939218Y1818940D01*
X4940553Y1815717D01*
X4942677Y1812950D01*
X4945444Y1810826D01*
X4948668Y1809491D01*
X4952126Y1809035D01*
X5181027D01*
X5184486Y1809491D01*
X5187709Y1810826D01*
X5190477Y1812950D01*
X5192600Y1815717D01*
X5193936Y1818940D01*
X5194391Y1822399D01*
Y1931299D01*
X5193936Y1934758D01*
X5192600Y1937982D01*
X5190477Y1940749D01*
X5187709Y1942873D01*
X5184486Y1944208D01*
X5181027Y1944664D01*
X4952126D01*
X4948668Y1944208D01*
X4945444Y1942873D01*
X4942677Y1940749D01*
X4940553Y1937982D01*
X4939218Y1934758D01*
X4938762Y1931299D01*
Y1896064D01*
X4166149D01*
X3846447Y2215767D01*
X3842467Y2218820D01*
X3837833Y2220740D01*
X3832860Y2221395D01*
X3832858Y2221394D01*
X3798294D01*
X3796420Y2224901D01*
X3791334Y2231098D01*
X3785137Y2236185D01*
X3778066Y2239964D01*
X3770394Y2242291D01*
X3762416Y2243077D01*
D02*
G37*
G36*
X428220Y1735097D02*
X428218Y1735096D01*
X168406D01*
X168404Y1735097D01*
X163431Y1734442D01*
X158797Y1732522D01*
X154817Y1729469D01*
X154816Y1729468D01*
X93773Y1668425D01*
X90720Y1664445D01*
X88800Y1659811D01*
X88145Y1654838D01*
X88146Y1654836D01*
Y1232102D01*
X88145Y1232100D01*
X88800Y1227127D01*
X90720Y1222493D01*
X93773Y1218513D01*
X202117Y1110169D01*
Y1051595D01*
X202117Y1051593D01*
X202150Y1051338D01*
Y982943D01*
X202673Y978975D01*
X204204Y975277D01*
X206641Y972102D01*
X209816Y969666D01*
X213513Y968134D01*
X217481Y967612D01*
X262482D01*
X266450Y968134D01*
X270147Y969666D01*
X273322Y972102D01*
X275759Y975277D01*
X277290Y978975D01*
X277813Y982943D01*
Y1082943D01*
X277290Y1086911D01*
X275759Y1090608D01*
X273322Y1093784D01*
X270147Y1096220D01*
X266450Y1097751D01*
X262482Y1098274D01*
X240546D01*
Y1118126D01*
X240546Y1118128D01*
X239891Y1123101D01*
X237972Y1127735D01*
X234918Y1131715D01*
X234917Y1131716D01*
X126574Y1240059D01*
Y1646879D01*
X176363Y1696668D01*
X420261D01*
X437667Y1679262D01*
X434999Y1674270D01*
X432671Y1666599D01*
X431886Y1658620D01*
X432671Y1650641D01*
X434999Y1642970D01*
X438778Y1635899D01*
X443864Y1629702D01*
X450061Y1624615D01*
X457132Y1620836D01*
X464804Y1618509D01*
X472782Y1617723D01*
X480761Y1618509D01*
X488433Y1620836D01*
X495503Y1624615D01*
X501701Y1629702D01*
X506787Y1635899D01*
X510566Y1642970D01*
X512893Y1650641D01*
X513679Y1658620D01*
X512893Y1666599D01*
X510566Y1674270D01*
X506787Y1681341D01*
X501701Y1687538D01*
X495503Y1692625D01*
X488433Y1696404D01*
X480761Y1698731D01*
X472782Y1699517D01*
X471851Y1699425D01*
X441807Y1729469D01*
X437827Y1732522D01*
X433193Y1734442D01*
X428220Y1735097D01*
D02*
G37*
G36*
X5471160Y1738222D02*
Y1661160D01*
X5548222D01*
X5548136Y1662472D01*
X5545893Y1673747D01*
X5542198Y1684633D01*
X5537113Y1694944D01*
X5530726Y1704503D01*
X5523146Y1713146D01*
X5514503Y1720726D01*
X5504944Y1727113D01*
X5494633Y1732198D01*
X5483747Y1735893D01*
X5472472Y1738136D01*
X5471160Y1738222D01*
D02*
G37*
G36*
X5450840D02*
X5449528Y1738136D01*
X5438253Y1735893D01*
X5427367Y1732198D01*
X5417056Y1727113D01*
X5407497Y1720726D01*
X5398854Y1713146D01*
X5391274Y1704503D01*
X5384887Y1694944D01*
X5379802Y1684633D01*
X5376107Y1673747D01*
X5373864Y1662472D01*
X5373778Y1661160D01*
X5450840D01*
Y1738222D01*
D02*
G37*
G36*
X3292784Y1803904D02*
X3216284D01*
X3211859Y1803322D01*
X3207736Y1801614D01*
X3204195Y1798897D01*
X3201478Y1795356D01*
X3199770Y1791233D01*
X3199188Y1786808D01*
Y1710308D01*
X3199770Y1705883D01*
X3201478Y1701760D01*
X3204195Y1698219D01*
X3207736Y1695502D01*
X3211859Y1693794D01*
X3216284Y1693212D01*
X3290545D01*
X3290684Y1693193D01*
X3290686Y1693194D01*
X3335159D01*
Y1322851D01*
X3247937Y1235629D01*
X3246990Y1236261D01*
X3236973Y1241201D01*
X3226397Y1244791D01*
X3215443Y1246970D01*
X3204299Y1247700D01*
X3199299D01*
X3188154Y1246970D01*
X3177200Y1244791D01*
X3166624Y1241201D01*
X3156607Y1236261D01*
X3147321Y1230056D01*
X3138924Y1222692D01*
X3131560Y1214295D01*
X3125355Y1205009D01*
X3120415Y1194992D01*
X3116825Y1184416D01*
X3114647Y1173462D01*
X3113916Y1162317D01*
X3114647Y1151173D01*
X3116825Y1140219D01*
X3120415Y1129643D01*
X3125355Y1119626D01*
X3131560Y1110340D01*
X3138924Y1101943D01*
X3147321Y1094579D01*
X3156607Y1088374D01*
X3166624Y1083434D01*
X3177200Y1079844D01*
X3188154Y1077665D01*
X3199299Y1076935D01*
X3204299D01*
X3215443Y1077665D01*
X3226397Y1079844D01*
X3236973Y1083434D01*
X3246990Y1088374D01*
X3256276Y1094579D01*
X3264673Y1101943D01*
X3272037Y1110340D01*
X3278242Y1119626D01*
X3283182Y1129643D01*
X3286772Y1140219D01*
X3288951Y1151173D01*
X3289682Y1162317D01*
X3288951Y1173462D01*
X3286772Y1184416D01*
X3283182Y1194992D01*
X3278242Y1205009D01*
X3275607Y1208953D01*
X3367959Y1301304D01*
X3367960Y1301305D01*
X3371013Y1305285D01*
X3372933Y1309919D01*
X3373587Y1314892D01*
Y1693194D01*
X3399202D01*
Y1624279D01*
X3399658Y1620820D01*
X3400993Y1617597D01*
X3403117Y1614829D01*
X3405884Y1612705D01*
X3409107Y1611370D01*
X3412566Y1610915D01*
X3641467D01*
X3644926Y1611370D01*
X3648149Y1612705D01*
X3650916Y1614829D01*
X3653040Y1617597D01*
X3654375Y1620820D01*
X3654831Y1624279D01*
Y1733179D01*
X3654375Y1736638D01*
X3653040Y1739861D01*
X3650916Y1742629D01*
X3648149Y1744753D01*
X3644926Y1746088D01*
X3641467Y1746543D01*
X3412566D01*
X3409107Y1746088D01*
X3405884Y1744753D01*
X3403117Y1742629D01*
X3400993Y1739861D01*
X3399658Y1736638D01*
X3399202Y1733179D01*
Y1731622D01*
X3309881D01*
Y1786808D01*
X3309298Y1791233D01*
X3307590Y1795356D01*
X3304873Y1798897D01*
X3301332Y1801614D01*
X3297209Y1803322D01*
X3292784Y1803904D01*
D02*
G37*
G36*
X5548222Y1640840D02*
X5471160D01*
Y1563778D01*
X5472472Y1563864D01*
X5483747Y1566107D01*
X5494633Y1569802D01*
X5504944Y1574887D01*
X5514503Y1581274D01*
X5523146Y1588854D01*
X5530726Y1597497D01*
X5537113Y1607056D01*
X5542198Y1617367D01*
X5545893Y1628253D01*
X5548136Y1639528D01*
X5548222Y1640840D01*
D02*
G37*
G36*
X5450840D02*
X5373778D01*
X5373864Y1639528D01*
X5376107Y1628253D01*
X5379802Y1617367D01*
X5384887Y1607056D01*
X5391274Y1597497D01*
X5398854Y1588854D01*
X5407497Y1581274D01*
X5417056Y1574887D01*
X5427367Y1569802D01*
X5438253Y1566107D01*
X5449528Y1563864D01*
X5450840Y1563778D01*
Y1640840D01*
D02*
G37*
G36*
X264933Y1541929D02*
X236843D01*
Y1496743D01*
X282029D01*
Y1524833D01*
X281446Y1529258D01*
X279738Y1533381D01*
X277022Y1536922D01*
X273481Y1539639D01*
X269358Y1541347D01*
X264933Y1541929D01*
D02*
G37*
G36*
X216523D02*
X188432D01*
X184008Y1541347D01*
X179884Y1539639D01*
X176344Y1536922D01*
X173627Y1533381D01*
X171919Y1529258D01*
X171336Y1524833D01*
Y1496743D01*
X216523D01*
Y1541929D01*
D02*
G37*
G36*
X3292784Y1674744D02*
X3216283D01*
X3211858Y1674162D01*
X3207735Y1672454D01*
X3204195Y1669737D01*
X3201478Y1666196D01*
X3199770Y1662073D01*
X3199187Y1657648D01*
Y1581148D01*
X3199770Y1576723D01*
X3201478Y1572600D01*
X3204195Y1569059D01*
X3207735Y1566342D01*
X3211858Y1564634D01*
X3216283Y1564051D01*
X3235319D01*
Y1544903D01*
X3216283D01*
X3211858Y1544321D01*
X3207735Y1542613D01*
X3204195Y1539896D01*
X3201478Y1536355D01*
X3199770Y1532232D01*
X3199187Y1527807D01*
Y1451307D01*
X3199770Y1446882D01*
X3201478Y1442759D01*
X3204195Y1439218D01*
X3207735Y1436501D01*
X3211858Y1434793D01*
X3216283Y1434210D01*
X3292784D01*
X3297209Y1434793D01*
X3301332Y1436501D01*
X3304872Y1439218D01*
X3307589Y1442759D01*
X3309297Y1446882D01*
X3309880Y1451307D01*
Y1527807D01*
X3309297Y1532232D01*
X3307589Y1536355D01*
X3304872Y1539896D01*
X3301332Y1542613D01*
X3297209Y1544321D01*
X3292784Y1544903D01*
X3273748D01*
Y1564051D01*
X3292784D01*
X3297209Y1564634D01*
X3301332Y1566342D01*
X3304872Y1569059D01*
X3307589Y1572600D01*
X3309297Y1576723D01*
X3309880Y1581148D01*
Y1657648D01*
X3309297Y1662073D01*
X3307589Y1666196D01*
X3304872Y1669737D01*
X3301332Y1672454D01*
X3297209Y1674162D01*
X3292784Y1674744D01*
D02*
G37*
G36*
X282029Y1476423D02*
X236843D01*
Y1431237D01*
X264933D01*
X269358Y1431819D01*
X273481Y1433527D01*
X277022Y1436244D01*
X279738Y1439785D01*
X281446Y1443908D01*
X282029Y1448333D01*
Y1476423D01*
D02*
G37*
G36*
X216523D02*
X171336D01*
Y1448333D01*
X171919Y1443908D01*
X173627Y1439785D01*
X176344Y1436244D01*
X179884Y1433527D01*
X184008Y1431819D01*
X188432Y1431237D01*
X216523D01*
Y1476423D01*
D02*
G37*
G36*
X3641467Y1545884D02*
X3412566D01*
X3409107Y1545428D01*
X3405884Y1544093D01*
X3403117Y1541969D01*
X3400993Y1539202D01*
X3399658Y1535978D01*
X3399202Y1532519D01*
Y1423619D01*
X3399658Y1420160D01*
X3400993Y1416937D01*
X3403117Y1414170D01*
X3405884Y1412046D01*
X3409107Y1410711D01*
X3412566Y1410255D01*
X3641467D01*
X3644926Y1410711D01*
X3648149Y1412046D01*
X3650916Y1414170D01*
X3653040Y1416937D01*
X3654375Y1420160D01*
X3654831Y1423619D01*
Y1532519D01*
X3654375Y1535978D01*
X3653040Y1539202D01*
X3650916Y1541969D01*
X3648149Y1544093D01*
X3644926Y1545428D01*
X3641467Y1545884D01*
D02*
G37*
G36*
X5181027Y1543344D02*
X4952126D01*
X4948668Y1542888D01*
X4945444Y1541553D01*
X4942677Y1539429D01*
X4940553Y1536662D01*
X4939218Y1533438D01*
X4938762Y1529979D01*
Y1421079D01*
X4939218Y1417620D01*
X4940553Y1414397D01*
X4942677Y1411630D01*
X4945444Y1409506D01*
X4948668Y1408171D01*
X4952126Y1407715D01*
X5181027D01*
X5184486Y1408171D01*
X5187709Y1409506D01*
X5190477Y1411630D01*
X5192600Y1414397D01*
X5193936Y1417620D01*
X5194391Y1421079D01*
Y1529979D01*
X5193936Y1533438D01*
X5192600Y1536662D01*
X5190477Y1539429D01*
X5187709Y1541553D01*
X5184486Y1542888D01*
X5181027Y1543344D01*
D02*
G37*
G36*
X2178961Y1425126D02*
X2148371D01*
Y1379940D01*
X2196057D01*
Y1408030D01*
X2195475Y1412455D01*
X2193767Y1416578D01*
X2191050Y1420119D01*
X2187509Y1422835D01*
X2183386Y1424544D01*
X2178961Y1425126D01*
D02*
G37*
G36*
X1943390D02*
X1912800D01*
Y1379940D01*
X1960486D01*
Y1408030D01*
X1959904Y1412455D01*
X1958195Y1416578D01*
X1955479Y1420119D01*
X1951938Y1422835D01*
X1947815Y1424544D01*
X1943390Y1425126D01*
D02*
G37*
G36*
X1892480D02*
X1861890D01*
X1857465Y1424544D01*
X1853342Y1422835D01*
X1849801Y1420119D01*
X1847084Y1416578D01*
X1845376Y1412455D01*
X1844794Y1408030D01*
Y1379940D01*
X1892480D01*
Y1425126D01*
D02*
G37*
G36*
X2128051D02*
X2097461D01*
X2093036Y1424544D01*
X2088913Y1422835D01*
X2085372Y1420119D01*
X2082655Y1416578D01*
X2080947Y1412455D01*
X2080365Y1408030D01*
Y1379940D01*
X2128051D01*
Y1425126D01*
D02*
G37*
G36*
X2196057Y1359620D02*
X2148371D01*
Y1314433D01*
X2178961D01*
X2183386Y1315016D01*
X2187509Y1316724D01*
X2191050Y1319441D01*
X2193767Y1322981D01*
X2195475Y1327105D01*
X2196057Y1331529D01*
Y1359620D01*
D02*
G37*
G36*
X2128051D02*
X2080365D01*
Y1331529D01*
X2080947Y1327105D01*
X2082655Y1322981D01*
X2085372Y1319441D01*
X2088913Y1316724D01*
X2093036Y1315016D01*
X2097461Y1314433D01*
X2128051D01*
Y1359620D01*
D02*
G37*
G36*
X1960486D02*
X1912800D01*
Y1314433D01*
X1943390D01*
X1947815Y1315016D01*
X1951938Y1316724D01*
X1955479Y1319441D01*
X1958195Y1322981D01*
X1959904Y1327105D01*
X1960486Y1331529D01*
Y1359620D01*
D02*
G37*
G36*
X1892480D02*
X1844794D01*
Y1331529D01*
X1845376Y1327105D01*
X1847084Y1322981D01*
X1849801Y1319441D01*
X1853342Y1316724D01*
X1857465Y1315016D01*
X1861890Y1314433D01*
X1892480D01*
Y1359620D01*
D02*
G37*
G36*
X357482Y1363274D02*
X345142D01*
Y1308103D01*
X372813D01*
Y1347943D01*
X372290Y1351911D01*
X370759Y1355608D01*
X368322Y1358784D01*
X365147Y1361220D01*
X361450Y1362751D01*
X357482Y1363274D01*
D02*
G37*
G36*
X324822D02*
X312481D01*
X308513Y1362751D01*
X304816Y1361220D01*
X301641Y1358784D01*
X299204Y1355608D01*
X297673Y1351911D01*
X297151Y1347943D01*
Y1308103D01*
X324822D01*
Y1363274D01*
D02*
G37*
G36*
X5333342Y1408956D02*
X5256842D01*
X5252417Y1408373D01*
X5248294Y1406665D01*
X5244753Y1403948D01*
X5242036Y1400408D01*
X5240328Y1396284D01*
X5239746Y1391860D01*
Y1345274D01*
X5115226D01*
X5114844Y1345224D01*
X4952126D01*
X4948668Y1344768D01*
X4945444Y1343433D01*
X4942677Y1341309D01*
X4940553Y1338542D01*
X4939218Y1335318D01*
X4938762Y1331859D01*
Y1247974D01*
X4215839D01*
X4215837Y1247974D01*
X4210865Y1247319D01*
X4206230Y1245399D01*
X4202251Y1242346D01*
X4202250Y1242345D01*
X3671949Y712045D01*
X2973437D01*
X2821733Y863748D01*
X2817754Y866801D01*
X2813120Y868721D01*
X2808147Y869376D01*
X2808144Y869376D01*
X2781648D01*
Y962693D01*
X2781053Y968735D01*
X2779290Y974546D01*
X2776428Y979901D01*
X2772576Y984594D01*
X2767882Y988447D01*
X2762527Y991309D01*
X2756716Y993071D01*
X2750674Y993667D01*
X2636924D01*
X2630881Y993071D01*
X2625071Y991309D01*
X2619716Y988447D01*
X2615022Y984594D01*
X2611170Y979901D01*
X2608308Y974546D01*
X2606545Y968735D01*
X2605950Y962693D01*
Y853942D01*
X2606545Y847900D01*
X2608308Y842089D01*
X2611170Y836734D01*
X2615022Y832041D01*
X2619716Y828188D01*
X2625071Y825326D01*
X2630881Y823564D01*
X2636924Y822968D01*
X2750674D01*
X2756716Y823564D01*
X2762527Y825326D01*
X2767882Y828188D01*
X2771243Y830947D01*
X2800187D01*
X2951890Y679245D01*
X2951891Y679243D01*
X2955871Y676190D01*
X2960505Y674271D01*
X2965478Y673616D01*
X2965480Y673616D01*
X3679906D01*
X3679908Y673616D01*
X3684881Y674270D01*
X3689516Y676190D01*
X3693495Y679243D01*
X4223796Y1209545D01*
X5017924D01*
X5017926Y1209545D01*
X5018310Y1209595D01*
X5181027D01*
X5184486Y1210051D01*
X5187709Y1211386D01*
X5190477Y1213510D01*
X5192600Y1216277D01*
X5193936Y1219500D01*
X5194391Y1222959D01*
Y1306845D01*
X5242022D01*
X5242036Y1306811D01*
X5244753Y1303270D01*
X5248294Y1300554D01*
X5252417Y1298846D01*
X5256842Y1298263D01*
X5333342D01*
X5337767Y1298846D01*
X5341890Y1300554D01*
X5345431Y1303270D01*
X5348148Y1306811D01*
X5349856Y1310934D01*
X5350438Y1315359D01*
Y1391860D01*
X5349856Y1396284D01*
X5348148Y1400408D01*
X5345431Y1403948D01*
X5341890Y1406665D01*
X5337767Y1408373D01*
X5333342Y1408956D01*
D02*
G37*
G36*
X394577Y1541930D02*
X318077D01*
X313652Y1541347D01*
X309529Y1539639D01*
X305988Y1536922D01*
X303271Y1533381D01*
X301563Y1529258D01*
X300981Y1524833D01*
Y1448333D01*
X301563Y1443908D01*
X303271Y1439785D01*
X305988Y1436244D01*
X309529Y1433527D01*
X313652Y1431819D01*
X318077Y1431237D01*
X373263D01*
Y1407994D01*
X373262Y1407992D01*
X373917Y1403019D01*
X375837Y1398385D01*
X378890Y1394406D01*
X392117Y1381179D01*
Y1316595D01*
X392117Y1316593D01*
X392150Y1316338D01*
Y1247943D01*
X392673Y1243975D01*
X394204Y1240277D01*
X396641Y1237102D01*
X399816Y1234666D01*
X403513Y1233134D01*
X407481Y1232612D01*
X452481D01*
X456449Y1233134D01*
X460147Y1234666D01*
X463322Y1237102D01*
X465759Y1240277D01*
X467290Y1243975D01*
X467812Y1247943D01*
Y1347943D01*
X467290Y1351911D01*
X465759Y1355608D01*
X463322Y1358784D01*
X460147Y1361220D01*
X456449Y1362751D01*
X452481Y1363274D01*
X430546D01*
Y1389136D01*
X430546Y1389138D01*
X429891Y1394111D01*
X427971Y1398745D01*
X424918Y1402725D01*
X424917Y1402725D01*
X411691Y1415951D01*
Y1450431D01*
X411692Y1450433D01*
X411673Y1450572D01*
Y1524833D01*
X411091Y1529258D01*
X409383Y1533381D01*
X406666Y1536922D01*
X403125Y1539639D01*
X399002Y1541347D01*
X394577Y1541930D01*
D02*
G37*
G36*
X372813Y1287783D02*
X345142D01*
Y1232612D01*
X357482D01*
X361450Y1233134D01*
X365147Y1234666D01*
X368322Y1237102D01*
X370759Y1240277D01*
X372290Y1243975D01*
X372813Y1247943D01*
Y1287783D01*
D02*
G37*
G36*
X324822D02*
X297151D01*
Y1247943D01*
X297673Y1243975D01*
X299204Y1240277D01*
X301641Y1237102D01*
X304816Y1234666D01*
X308513Y1233134D01*
X312481Y1232612D01*
X324822D01*
Y1287783D01*
D02*
G37*
G36*
X3162784Y1544904D02*
X3086284D01*
X3081859Y1544322D01*
X3077736Y1542613D01*
X3074195Y1539897D01*
X3071478Y1536356D01*
X3069770Y1532233D01*
X3069187Y1527808D01*
Y1453546D01*
X3069169Y1453408D01*
X3069169Y1453406D01*
Y1285984D01*
X3059194Y1276009D01*
X3056140Y1272029D01*
X3054220Y1267395D01*
X3053566Y1262422D01*
X3053566Y1262420D01*
Y1104378D01*
X3053566Y1104376D01*
X3054220Y1099403D01*
X3056140Y1094768D01*
X3059194Y1090789D01*
X3126439Y1023544D01*
X3126440Y1023543D01*
X3130419Y1020489D01*
X3135054Y1018570D01*
X3140027Y1017915D01*
X3140029Y1017915D01*
X3252864D01*
X3252866Y1017915D01*
X3257839Y1018569D01*
X3262473Y1020489D01*
X3266452Y1023543D01*
X3360164Y1117254D01*
X3360165Y1117255D01*
X3363218Y1121234D01*
X3365138Y1125868D01*
X3365792Y1130842D01*
Y1166060D01*
X3411817Y1212085D01*
X3478364D01*
X3478366Y1212085D01*
X3478750Y1212135D01*
X3641467D01*
X3644926Y1212591D01*
X3648149Y1213926D01*
X3650916Y1216050D01*
X3653040Y1218817D01*
X3654375Y1222040D01*
X3654831Y1225499D01*
Y1334399D01*
X3654375Y1337858D01*
X3653040Y1341082D01*
X3650916Y1343849D01*
X3648149Y1345973D01*
X3644926Y1347308D01*
X3641467Y1347764D01*
X3412566D01*
X3409107Y1347308D01*
X3405884Y1345973D01*
X3403117Y1343849D01*
X3400993Y1341082D01*
X3399658Y1337858D01*
X3399202Y1334399D01*
Y1249901D01*
X3398885Y1249859D01*
X3394251Y1247939D01*
X3390271Y1244886D01*
X3390270Y1244885D01*
X3332991Y1187606D01*
X3329938Y1183627D01*
X3328018Y1178992D01*
X3327363Y1174019D01*
X3327364Y1174017D01*
Y1138800D01*
X3244907Y1056344D01*
X3147986D01*
X3091995Y1112335D01*
Y1254463D01*
X3101969Y1264438D01*
X3101970Y1264439D01*
X3105024Y1268419D01*
X3106943Y1273053D01*
X3107598Y1278026D01*
X3107598Y1278028D01*
Y1434211D01*
X3162784D01*
X3167209Y1434794D01*
X3171332Y1436502D01*
X3174873Y1439219D01*
X3177590Y1442759D01*
X3179298Y1446883D01*
X3179880Y1451307D01*
Y1527808D01*
X3179298Y1532233D01*
X3177590Y1536356D01*
X3174873Y1539897D01*
X3171332Y1542613D01*
X3167209Y1544322D01*
X3162784Y1544904D01*
D02*
G37*
G36*
X2267726Y1256234D02*
X2237385D01*
Y1189796D01*
X2285074D01*
Y1238886D01*
X2284483Y1243376D01*
X2282750Y1247560D01*
X2279993Y1251153D01*
X2276400Y1253910D01*
X2272216Y1255643D01*
X2267726Y1256234D01*
D02*
G37*
G36*
X2217065D02*
X2186726D01*
X2182236Y1255643D01*
X2178052Y1253910D01*
X2174459Y1251153D01*
X2171702Y1247560D01*
X2169968Y1243376D01*
X2169377Y1238886D01*
Y1189796D01*
X2217065D01*
Y1256234D01*
D02*
G37*
G36*
X2062480Y1227860D02*
Y1175978D01*
X2114362D01*
X2112135Y1185253D01*
X2108359Y1194371D01*
X2103202Y1202786D01*
X2096793Y1210291D01*
X2089288Y1216700D01*
X2080873Y1221857D01*
X2071755Y1225634D01*
X2062480Y1227860D01*
D02*
G37*
G36*
X2042160D02*
X2032885Y1225634D01*
X2023767Y1221857D01*
X2015352Y1216700D01*
X2007847Y1210291D01*
X2001438Y1202786D01*
X1996281Y1194371D01*
X1992505Y1185253D01*
X1990278Y1175978D01*
X2042160D01*
Y1227860D01*
D02*
G37*
G36*
X2957959Y1247198D02*
Y1172477D01*
X3035016D01*
X3034951Y1173462D01*
X3032772Y1184416D01*
X3029182Y1194992D01*
X3024242Y1205009D01*
X3018037Y1214295D01*
X3010673Y1222692D01*
X3002276Y1230056D01*
X2992990Y1236261D01*
X2982973Y1241201D01*
X2972397Y1244791D01*
X2961443Y1246970D01*
X2957959Y1247198D01*
D02*
G37*
G36*
X2937639D02*
X2934154Y1246970D01*
X2923200Y1244791D01*
X2912624Y1241201D01*
X2902607Y1236261D01*
X2893321Y1230056D01*
X2884924Y1222692D01*
X2877560Y1214295D01*
X2871355Y1205009D01*
X2866415Y1194992D01*
X2862825Y1184416D01*
X2860647Y1173462D01*
X2860582Y1172477D01*
X2937639D01*
Y1247198D01*
D02*
G37*
G36*
X2114362Y1155658D02*
X2062480D01*
Y1103776D01*
X2071755Y1106003D01*
X2080873Y1109779D01*
X2089288Y1114936D01*
X2096793Y1121345D01*
X2103202Y1128850D01*
X2108359Y1137265D01*
X2112135Y1146383D01*
X2114362Y1155658D01*
D02*
G37*
G36*
X2042160D02*
X1990278D01*
X1992505Y1146383D01*
X1996281Y1137265D01*
X2001438Y1128850D01*
X2007847Y1121345D01*
X2015352Y1114936D01*
X2023767Y1109779D01*
X2032885Y1106003D01*
X2042160Y1103776D01*
Y1155658D01*
D02*
G37*
G36*
X2285074Y1169476D02*
X2237385D01*
Y1103038D01*
X2267726D01*
X2272216Y1103629D01*
X2276400Y1105362D01*
X2279993Y1108119D01*
X2282750Y1111712D01*
X2284483Y1115896D01*
X2285074Y1120386D01*
Y1169476D01*
D02*
G37*
G36*
X2217065D02*
X2169377D01*
Y1120386D01*
X2169968Y1115896D01*
X2171702Y1111712D01*
X2174459Y1108119D01*
X2178052Y1105362D01*
X2182236Y1103629D01*
X2186726Y1103038D01*
X2217065D01*
Y1169476D01*
D02*
G37*
G36*
X3035016Y1152157D02*
X2957959D01*
Y1077437D01*
X2961443Y1077665D01*
X2972397Y1079844D01*
X2982973Y1083434D01*
X2992990Y1088373D01*
X3002276Y1094578D01*
X3010673Y1101942D01*
X3018037Y1110339D01*
X3024242Y1119626D01*
X3029182Y1129643D01*
X3032772Y1140218D01*
X3034951Y1151172D01*
X3035016Y1152157D01*
D02*
G37*
G36*
X2937639D02*
X2860582D01*
X2860647Y1151172D01*
X2862825Y1140218D01*
X2866415Y1129643D01*
X2871355Y1119626D01*
X2877560Y1110339D01*
X2884924Y1101942D01*
X2893321Y1094578D01*
X2902607Y1088373D01*
X2912624Y1083434D01*
X2923200Y1079844D01*
X2934154Y1077665D01*
X2937639Y1077437D01*
Y1152157D01*
D02*
G37*
G36*
X3641467Y1144564D02*
X3412566D01*
X3409107Y1144108D01*
X3405884Y1142773D01*
X3403117Y1140649D01*
X3400993Y1137882D01*
X3399658Y1134658D01*
X3399202Y1131199D01*
Y1047314D01*
X3327878D01*
X3327876Y1047314D01*
X3322903Y1046659D01*
X3318269Y1044739D01*
X3314290Y1041686D01*
X3314289Y1041685D01*
X3251711Y979107D01*
X3246990Y982261D01*
X3236973Y987201D01*
X3226397Y990791D01*
X3215443Y992970D01*
X3204299Y993700D01*
X3199299D01*
X3188154Y992970D01*
X3177200Y990791D01*
X3166624Y987201D01*
X3156607Y982261D01*
X3147321Y976056D01*
X3138924Y968692D01*
X3131560Y960295D01*
X3125355Y951009D01*
X3120415Y940992D01*
X3116825Y930416D01*
X3114647Y919462D01*
X3113916Y908317D01*
X3114647Y897173D01*
X3116825Y886219D01*
X3120415Y875643D01*
X3125355Y865626D01*
X3131560Y856340D01*
X3138924Y847943D01*
X3147321Y840579D01*
X3156607Y834374D01*
X3166624Y829434D01*
X3177200Y825844D01*
X3188154Y823665D01*
X3199299Y822935D01*
X3204299D01*
X3215443Y823665D01*
X3226397Y825844D01*
X3236973Y829434D01*
X3246990Y834374D01*
X3256276Y840579D01*
X3264673Y847943D01*
X3272037Y856340D01*
X3278242Y865626D01*
X3283182Y875643D01*
X3286772Y886219D01*
X3288951Y897173D01*
X3289682Y908317D01*
X3288951Y919462D01*
X3286772Y930416D01*
X3283182Y940992D01*
X3278242Y951009D01*
X3278129Y951179D01*
X3335835Y1008885D01*
X3478364D01*
X3478366Y1008885D01*
X3478750Y1008935D01*
X3641467D01*
X3644926Y1009391D01*
X3648149Y1010726D01*
X3650916Y1012850D01*
X3653040Y1015617D01*
X3654375Y1018840D01*
X3654831Y1022299D01*
Y1131199D01*
X3654375Y1134658D01*
X3653040Y1137882D01*
X3650916Y1140649D01*
X3648149Y1142773D01*
X3644926Y1144108D01*
X3641467Y1144564D01*
D02*
G37*
G36*
X5471160Y1103222D02*
Y1026160D01*
X5548222D01*
X5548136Y1027472D01*
X5545893Y1038747D01*
X5542198Y1049633D01*
X5537113Y1059944D01*
X5530726Y1069503D01*
X5523146Y1078146D01*
X5514503Y1085726D01*
X5504944Y1092113D01*
X5494633Y1097198D01*
X5483747Y1100893D01*
X5472472Y1103136D01*
X5471160Y1103222D01*
D02*
G37*
G36*
X5450840D02*
X5449528Y1103136D01*
X5438253Y1100893D01*
X5427367Y1097198D01*
X5417056Y1092113D01*
X5407497Y1085726D01*
X5398854Y1078146D01*
X5391274Y1069503D01*
X5384887Y1059944D01*
X5379802Y1049633D01*
X5376107Y1038747D01*
X5373864Y1027472D01*
X5373778Y1026160D01*
X5450840D01*
Y1103222D01*
D02*
G37*
G36*
X5181027Y1144564D02*
X4952126D01*
X4948668Y1144108D01*
X4945444Y1142773D01*
X4942677Y1140649D01*
X4940553Y1137882D01*
X4939218Y1134658D01*
X4938762Y1131199D01*
Y1022299D01*
X4939218Y1018840D01*
X4940553Y1015617D01*
X4942677Y1012850D01*
X4945444Y1010726D01*
X4948668Y1009391D01*
X4952126Y1008935D01*
X5181027D01*
X5184486Y1009391D01*
X5187709Y1010726D01*
X5190477Y1012850D01*
X5192600Y1015617D01*
X5193936Y1018840D01*
X5194391Y1022299D01*
Y1131199D01*
X5193936Y1134658D01*
X5192600Y1137882D01*
X5190477Y1140649D01*
X5187709Y1142773D01*
X5184486Y1144108D01*
X5181027Y1144564D01*
D02*
G37*
G36*
X630311Y1035326D02*
X602221D01*
Y990140D01*
X647408D01*
Y1018230D01*
X646825Y1022655D01*
X645117Y1026778D01*
X642400Y1030319D01*
X638860Y1033036D01*
X634736Y1034744D01*
X630311Y1035326D01*
D02*
G37*
G36*
X581901D02*
X553811D01*
X549386Y1034744D01*
X545263Y1033036D01*
X541722Y1030319D01*
X539006Y1026778D01*
X537297Y1022655D01*
X536715Y1018230D01*
Y990140D01*
X581901D01*
Y1035326D01*
D02*
G37*
G36*
X1534310Y1190726D02*
X1457810D01*
X1453385Y1190144D01*
X1449262Y1188436D01*
X1445721Y1185719D01*
X1443004Y1182178D01*
X1441296Y1178055D01*
X1440714Y1173630D01*
Y1097130D01*
X1441296Y1092705D01*
X1443004Y1088582D01*
X1445721Y1085041D01*
X1449262Y1082324D01*
X1453385Y1080616D01*
X1457810Y1080033D01*
X1475565D01*
Y1058646D01*
X1457810D01*
X1453385Y1058064D01*
X1449262Y1056356D01*
X1445721Y1053639D01*
X1443004Y1050098D01*
X1441296Y1045975D01*
X1440714Y1041550D01*
Y1024055D01*
X1300267D01*
X1294962Y1023357D01*
X1290019Y1021309D01*
X1285775Y1018052D01*
X1264488Y996765D01*
X1261230Y992520D01*
X1259183Y987577D01*
X1258485Y982272D01*
Y944516D01*
X1258360Y944414D01*
X1252341Y940811D01*
X1240619D01*
X1234600Y944414D01*
X1233631Y945209D01*
X1227516Y948478D01*
X1220880Y950491D01*
X1213980Y951170D01*
X1207080Y950491D01*
X1200444Y948478D01*
X1194329Y945209D01*
X1193361Y944414D01*
X1187342Y940811D01*
X1175618D01*
X1169599Y944414D01*
X1168631Y945209D01*
X1162516Y948478D01*
X1159140Y949502D01*
Y868300D01*
Y787098D01*
X1162516Y788122D01*
X1168631Y791391D01*
X1169599Y792186D01*
X1175618Y795789D01*
X1187342D01*
X1193361Y792186D01*
X1194329Y791391D01*
X1200444Y788122D01*
X1207080Y786109D01*
X1213980Y785430D01*
X1220880Y786109D01*
X1227516Y788122D01*
X1233631Y791391D01*
X1234600Y792186D01*
X1240619Y795789D01*
X1242239D01*
X1258485Y780554D01*
Y755036D01*
X1232421D01*
X1227996Y754453D01*
X1223873Y752745D01*
X1220332Y750028D01*
X1217615Y746487D01*
X1215907Y742364D01*
X1215325Y737939D01*
Y665025D01*
X1215296Y664809D01*
Y424709D01*
X1215995Y419405D01*
X1218042Y414462D01*
X1221299Y410217D01*
X1270882Y360634D01*
X1275127Y357377D01*
X1280070Y355329D01*
X1285375Y354631D01*
X1489870D01*
X1495175Y355329D01*
X1500118Y357377D01*
X1504362Y360634D01*
X1571168Y427440D01*
X1581030Y422576D01*
X1591606Y418986D01*
X1602560Y416808D01*
X1613704Y416077D01*
X1618704D01*
X1629849Y416808D01*
X1640803Y418986D01*
X1651379Y422576D01*
X1661396Y427516D01*
X1670682Y433721D01*
X1679079Y441085D01*
X1686443Y449482D01*
X1692648Y458769D01*
X1697588Y468785D01*
X1700852Y478403D01*
X1721429D01*
X1723705Y472907D01*
X1728862Y464492D01*
X1735271Y456987D01*
X1742776Y450578D01*
X1751191Y445421D01*
X1760308Y441645D01*
X1769905Y439341D01*
X1779744Y438566D01*
X1789582Y439341D01*
X1799179Y441645D01*
X1808297Y445421D01*
X1816712Y450578D01*
X1824216Y456987D01*
X1830626Y464492D01*
X1835782Y472907D01*
X1839559Y482025D01*
X1841863Y491621D01*
X1842637Y501460D01*
X1841863Y511299D01*
X1839559Y520895D01*
X1837283Y526391D01*
X1855124Y544232D01*
X1893626D01*
X1894216Y542806D01*
X1896974Y539213D01*
X1900566Y536456D01*
X1904751Y534723D01*
X1909241Y534132D01*
X2027741D01*
X2032231Y534723D01*
X2036415Y536456D01*
X2040008Y539213D01*
X2042765Y542806D01*
X2044498Y546990D01*
X2045089Y551480D01*
Y596497D01*
X2104494D01*
X2104854Y593762D01*
X2106436Y589943D01*
X2108953Y586664D01*
X2112233Y584147D01*
X2116052Y582565D01*
X2120150Y582026D01*
X2174150D01*
X2178249Y582565D01*
X2182068Y584147D01*
X2185347Y586664D01*
X2187864Y589943D01*
X2189446Y593762D01*
X2189985Y597861D01*
Y701861D01*
X2189446Y705959D01*
X2187864Y709778D01*
X2185347Y713058D01*
X2182068Y715574D01*
X2178249Y717157D01*
X2174150Y717696D01*
X2120150D01*
X2116052Y717157D01*
X2112233Y715574D01*
X2108953Y713058D01*
X2106436Y709778D01*
X2104854Y705959D01*
X2104315Y701861D01*
Y642612D01*
X2041646D01*
X2040008Y644747D01*
X2036415Y647504D01*
X2032231Y649237D01*
X2027741Y649828D01*
X1990037D01*
Y668225D01*
X1993980D01*
X1998078Y668764D01*
X2001897Y670346D01*
X2005177Y672863D01*
X2007693Y676142D01*
X2009276Y679962D01*
X2009815Y684060D01*
Y788060D01*
X2009276Y792158D01*
X2007693Y795978D01*
X2005177Y799257D01*
X2001897Y801774D01*
X1998078Y803356D01*
X1993980Y803895D01*
X1939980D01*
X1935881Y803356D01*
X1932062Y801774D01*
X1928783Y799257D01*
X1926266Y795978D01*
X1924684Y792158D01*
X1924144Y788060D01*
Y684060D01*
X1924684Y679962D01*
X1926266Y676142D01*
X1928783Y672863D01*
X1932062Y670346D01*
X1935881Y668764D01*
X1939980Y668225D01*
X1943922D01*
Y649828D01*
X1909241D01*
X1904751Y649237D01*
X1900566Y647504D01*
X1896974Y644747D01*
X1894216Y641154D01*
X1892483Y636970D01*
X1891892Y632480D01*
Y590347D01*
X1845573D01*
X1839605Y589561D01*
X1834044Y587258D01*
X1829269Y583593D01*
X1804675Y558999D01*
X1799179Y561275D01*
X1789582Y563579D01*
X1779744Y564354D01*
X1769905Y563579D01*
X1760308Y561275D01*
X1751191Y557499D01*
X1742776Y552342D01*
X1735271Y545933D01*
X1728862Y538428D01*
X1723705Y530013D01*
X1721429Y524517D01*
X1700852D01*
X1697588Y534135D01*
X1692648Y544151D01*
X1686443Y553438D01*
X1679079Y561835D01*
X1670682Y569199D01*
X1661396Y575404D01*
X1651379Y580344D01*
X1640803Y583934D01*
X1629849Y586112D01*
X1618704Y586843D01*
X1613704D01*
X1602560Y586112D01*
X1591606Y583934D01*
X1581030Y580344D01*
X1571013Y575404D01*
X1561727Y569199D01*
X1553330Y561835D01*
X1545966Y553438D01*
X1539761Y544151D01*
X1534821Y534135D01*
X1531231Y523559D01*
X1529052Y512605D01*
X1528322Y501460D01*
X1529052Y490315D01*
X1531231Y479361D01*
X1534821Y468785D01*
X1539761Y458769D01*
X1541670Y455911D01*
X1481381Y395622D01*
X1293864D01*
X1256287Y433199D01*
Y644343D01*
X1313921D01*
X1318346Y644925D01*
X1322469Y646633D01*
X1326010Y649350D01*
X1328727Y652891D01*
X1330435Y657014D01*
X1331017Y661439D01*
Y737939D01*
X1330435Y742364D01*
X1328727Y746487D01*
X1326010Y750028D01*
X1322469Y752745D01*
X1318346Y754453D01*
X1313921Y755036D01*
X1299475D01*
Y792084D01*
X1299599Y792186D01*
X1305618Y795789D01*
X1317342D01*
X1323361Y792186D01*
X1324329Y791391D01*
X1330444Y788122D01*
X1337080Y786109D01*
X1343980Y785430D01*
X1350880Y786109D01*
X1357516Y788122D01*
X1363631Y791391D01*
X1368991Y795789D01*
X1373389Y801149D01*
X1376658Y807264D01*
X1378671Y813900D01*
X1379350Y820800D01*
Y850725D01*
X1440713D01*
Y832970D01*
X1441296Y828545D01*
X1443004Y824422D01*
X1445721Y820881D01*
X1449262Y818164D01*
X1453385Y816456D01*
X1457810Y815874D01*
X1534310D01*
X1538735Y816456D01*
X1542858Y818164D01*
X1546399Y820881D01*
X1549116Y824422D01*
X1550824Y828545D01*
X1551406Y832970D01*
Y909470D01*
X1550824Y913895D01*
X1549116Y918018D01*
X1546399Y921559D01*
X1542858Y924276D01*
X1538735Y925984D01*
X1534310Y926566D01*
X1457810D01*
X1453385Y925984D01*
X1449262Y924276D01*
X1445721Y921559D01*
X1443004Y918018D01*
X1441296Y913895D01*
X1440713Y909470D01*
Y891715D01*
X1379350D01*
Y915800D01*
X1378671Y922700D01*
X1376658Y929336D01*
X1373389Y935451D01*
X1368991Y940811D01*
X1363631Y945209D01*
X1357516Y948478D01*
X1350880Y950491D01*
X1343980Y951170D01*
X1337080Y950491D01*
X1330444Y948478D01*
X1324329Y945209D01*
X1323361Y944414D01*
X1317342Y940811D01*
X1315721D01*
X1299475Y956046D01*
Y973783D01*
X1308757Y983064D01*
X1440714D01*
Y965050D01*
X1441296Y960625D01*
X1443004Y956502D01*
X1445721Y952961D01*
X1449262Y950244D01*
X1453385Y948536D01*
X1457810Y947953D01*
X1534310D01*
X1538735Y948536D01*
X1542858Y950244D01*
X1546399Y952961D01*
X1549116Y956502D01*
X1550824Y960625D01*
X1551406Y965050D01*
Y1041550D01*
X1550824Y1045975D01*
X1549116Y1050098D01*
X1546399Y1053639D01*
X1542858Y1056356D01*
X1538735Y1058064D01*
X1534310Y1058646D01*
X1516556D01*
Y1080033D01*
X1534310D01*
X1538735Y1080616D01*
X1542858Y1082324D01*
X1546399Y1085041D01*
X1549116Y1088582D01*
X1550824Y1092705D01*
X1551406Y1097130D01*
Y1173630D01*
X1550824Y1178055D01*
X1549116Y1182178D01*
X1546399Y1185719D01*
X1542858Y1188436D01*
X1538735Y1190144D01*
X1534310Y1190726D01*
D02*
G37*
G36*
X5463342Y1408956D02*
X5386842D01*
X5382417Y1408373D01*
X5378294Y1406665D01*
X5374753Y1403948D01*
X5372036Y1400408D01*
X5370328Y1396284D01*
X5369746Y1391860D01*
Y1317598D01*
X5369727Y1317459D01*
X5369728Y1317457D01*
Y1265930D01*
X5269613Y1165816D01*
X5266560Y1161836D01*
X5264640Y1157202D01*
X5263985Y1152229D01*
X5263986Y1152227D01*
Y1003139D01*
X5207340Y946494D01*
X5115229D01*
X5115227Y946494D01*
X5114843Y946444D01*
X4952126D01*
X4948668Y945988D01*
X4945444Y944653D01*
X4942677Y942529D01*
X4940553Y939762D01*
X4939218Y936538D01*
X4938762Y933079D01*
Y824179D01*
X4939218Y820720D01*
X4940553Y817497D01*
X4942677Y814730D01*
X4945444Y812606D01*
X4948668Y811271D01*
X4952126Y810815D01*
X5181027D01*
X5184486Y811271D01*
X5187709Y812606D01*
X5190477Y814730D01*
X5192600Y817497D01*
X5193936Y820720D01*
X5194391Y824179D01*
Y908065D01*
X5215297D01*
X5215299Y908065D01*
X5220272Y908720D01*
X5224906Y910640D01*
X5228886Y913693D01*
X5296786Y981593D01*
X5296787Y981594D01*
X5299840Y985573D01*
X5301760Y990208D01*
X5302415Y995180D01*
X5302414Y995182D01*
Y1144270D01*
X5402529Y1244385D01*
X5405582Y1248364D01*
X5407502Y1252998D01*
X5408157Y1257971D01*
X5408156Y1257973D01*
Y1298263D01*
X5463342D01*
X5467767Y1298846D01*
X5471890Y1300554D01*
X5475431Y1303270D01*
X5478148Y1306811D01*
X5479856Y1310934D01*
X5480438Y1315359D01*
Y1391860D01*
X5479856Y1396284D01*
X5478148Y1400408D01*
X5475431Y1403948D01*
X5471890Y1406665D01*
X5467767Y1408373D01*
X5463342Y1408956D01*
D02*
G37*
G36*
X5548222Y1005840D02*
X5471160D01*
Y928778D01*
X5472472Y928864D01*
X5483747Y931107D01*
X5494633Y934802D01*
X5504944Y939887D01*
X5514503Y946274D01*
X5523146Y953854D01*
X5530726Y962497D01*
X5537113Y972056D01*
X5542198Y982367D01*
X5545893Y993253D01*
X5548136Y1004528D01*
X5548222Y1005840D01*
D02*
G37*
G36*
X5450840D02*
X5373778D01*
X5373864Y1004528D01*
X5376107Y993253D01*
X5379802Y982367D01*
X5384887Y972056D01*
X5391274Y962497D01*
X5398854Y953854D01*
X5407497Y946274D01*
X5417056Y939887D01*
X5427367Y934802D01*
X5438253Y931107D01*
X5449528Y928864D01*
X5450840Y928778D01*
Y1005840D01*
D02*
G37*
G36*
X647408Y969820D02*
X602221D01*
Y924634D01*
X630311D01*
X634736Y925216D01*
X638860Y926924D01*
X642400Y929641D01*
X645117Y933182D01*
X646825Y937305D01*
X647408Y941730D01*
Y969820D01*
D02*
G37*
G36*
X581901D02*
X536715D01*
Y941730D01*
X537297Y937305D01*
X539006Y933182D01*
X541722Y929641D01*
X545263Y926924D01*
X549386Y925216D01*
X553811Y924634D01*
X581901D01*
Y969820D01*
D02*
G37*
G36*
X137160Y976222D02*
Y899160D01*
X214222D01*
X214136Y900472D01*
X211893Y911747D01*
X208198Y922633D01*
X203113Y932944D01*
X196726Y942503D01*
X189146Y951146D01*
X180503Y958726D01*
X170944Y965113D01*
X160633Y970198D01*
X149747Y973893D01*
X138472Y976136D01*
X137160Y976222D01*
D02*
G37*
G36*
X116840D02*
X115528Y976136D01*
X104253Y973893D01*
X93367Y970198D01*
X83056Y965113D01*
X73497Y958726D01*
X64854Y951146D01*
X57274Y942503D01*
X50887Y932944D01*
X45802Y922633D01*
X42107Y911747D01*
X39864Y900472D01*
X39778Y899160D01*
X116840D01*
Y976222D01*
D02*
G37*
G36*
X1664310Y1058646D02*
X1587810D01*
X1583385Y1058064D01*
X1579262Y1056356D01*
X1575721Y1053639D01*
X1573004Y1050098D01*
X1571296Y1045975D01*
X1570714Y1041550D01*
Y965050D01*
X1571296Y960625D01*
X1573004Y956502D01*
X1575721Y952961D01*
X1579262Y950244D01*
X1583385Y948536D01*
X1587810Y947953D01*
X1606846D01*
Y926566D01*
X1587810D01*
X1583385Y925984D01*
X1579262Y924276D01*
X1575721Y921559D01*
X1573004Y918018D01*
X1571296Y913895D01*
X1570714Y909470D01*
Y832970D01*
X1571296Y828545D01*
X1573004Y824422D01*
X1575721Y820881D01*
X1579262Y818164D01*
X1583385Y816456D01*
X1587810Y815874D01*
X1664310D01*
X1668735Y816456D01*
X1672858Y818164D01*
X1676399Y820881D01*
X1679116Y824422D01*
X1680824Y828545D01*
X1681406Y832970D01*
Y909470D01*
X1680824Y913895D01*
X1679116Y918018D01*
X1676399Y921559D01*
X1672858Y924276D01*
X1668735Y925984D01*
X1664310Y926566D01*
X1645274D01*
Y947953D01*
X1664310D01*
X1668735Y948536D01*
X1672858Y950244D01*
X1676399Y952961D01*
X1679116Y956502D01*
X1680824Y960625D01*
X1681406Y965050D01*
Y1041550D01*
X1680824Y1045975D01*
X1679116Y1050098D01*
X1676399Y1053639D01*
X1672858Y1056356D01*
X1668735Y1058064D01*
X1664310Y1058646D01*
D02*
G37*
G36*
X2950299Y993701D02*
X2945299D01*
X2934154Y992970D01*
X2923200Y990791D01*
X2912624Y987201D01*
X2902607Y982261D01*
X2893321Y976056D01*
X2884924Y968693D01*
X2877560Y960296D01*
X2871355Y951009D01*
X2866415Y940992D01*
X2862825Y930416D01*
X2860647Y919462D01*
X2859916Y908318D01*
X2860647Y897173D01*
X2862825Y886219D01*
X2866415Y875643D01*
X2871355Y865626D01*
X2877560Y856340D01*
X2884924Y847943D01*
X2893321Y840579D01*
X2902607Y834374D01*
X2912624Y829434D01*
X2923200Y825844D01*
X2934154Y823665D01*
X2945299Y822935D01*
X2950299D01*
X2961443Y823665D01*
X2972397Y825844D01*
X2982973Y829434D01*
X2992990Y834374D01*
X2993937Y835006D01*
X3071305Y757638D01*
X3071306Y757637D01*
X3075286Y754584D01*
X3079920Y752664D01*
X3084893Y752009D01*
X3084895Y752009D01*
X3306006D01*
X3306008Y752009D01*
X3310981Y752664D01*
X3315615Y754584D01*
X3319595Y757637D01*
X3372723Y810765D01*
X3478364D01*
X3478366Y810765D01*
X3478750Y810815D01*
X3641467D01*
X3644926Y811271D01*
X3648149Y812606D01*
X3650916Y814730D01*
X3653040Y817497D01*
X3654375Y820720D01*
X3654831Y824179D01*
Y933079D01*
X3654375Y936538D01*
X3653040Y939762D01*
X3650916Y942529D01*
X3648149Y944653D01*
X3644926Y945988D01*
X3641467Y946444D01*
X3412566D01*
X3409107Y945988D01*
X3405884Y944653D01*
X3403117Y942529D01*
X3400993Y939762D01*
X3399658Y936538D01*
X3399202Y933079D01*
Y849194D01*
X3364764D01*
X3359791Y848539D01*
X3355157Y846619D01*
X3351177Y843566D01*
X3351176Y843565D01*
X3298049Y790438D01*
X3092852D01*
X3021607Y861683D01*
X3024242Y865626D01*
X3029182Y875643D01*
X3032772Y886219D01*
X3034951Y897173D01*
X3035682Y908318D01*
X3034951Y919462D01*
X3032772Y930416D01*
X3029182Y940992D01*
X3024242Y951009D01*
X3018037Y960296D01*
X3010673Y968693D01*
X3002276Y976056D01*
X2992990Y982261D01*
X2982973Y987201D01*
X2972397Y990791D01*
X2961443Y992970D01*
X2950299Y993701D01*
D02*
G37*
G36*
X214222Y878840D02*
X137160D01*
Y801778D01*
X138472Y801864D01*
X149747Y804107D01*
X160633Y807802D01*
X170944Y812887D01*
X180503Y819274D01*
X189146Y826854D01*
X196726Y835497D01*
X203113Y845056D01*
X208198Y855367D01*
X211893Y866253D01*
X214136Y877528D01*
X214222Y878840D01*
D02*
G37*
G36*
X116840D02*
X39778D01*
X39864Y877528D01*
X42107Y866253D01*
X45802Y855367D01*
X50887Y845056D01*
X57274Y835497D01*
X64854Y826854D01*
X73497Y819274D01*
X83056Y812887D01*
X93367Y807802D01*
X104253Y804107D01*
X115528Y801864D01*
X116840Y801778D01*
Y878840D01*
D02*
G37*
G36*
X262482Y1363274D02*
X217481D01*
X213513Y1362751D01*
X209816Y1361220D01*
X206641Y1358784D01*
X204204Y1355608D01*
X202673Y1351911D01*
X202150Y1347943D01*
Y1247943D01*
X202673Y1243975D01*
X204204Y1240277D01*
X206641Y1237102D01*
X209816Y1234666D01*
X213513Y1233134D01*
X217481Y1232612D01*
X239417D01*
Y1213774D01*
X239417Y1213772D01*
X240072Y1208799D01*
X241991Y1204164D01*
X245045Y1200185D01*
X284378Y1160851D01*
X284379Y1160850D01*
X288359Y1157797D01*
X292993Y1155878D01*
X297966Y1155222D01*
X297968Y1155223D01*
X351620D01*
X392117Y1114726D01*
Y1051595D01*
X392117Y1051593D01*
X392150Y1051338D01*
Y982943D01*
X392673Y978975D01*
X394204Y975277D01*
X396641Y972102D01*
X399816Y969666D01*
X403513Y968134D01*
X407481Y967612D01*
X410317D01*
Y876034D01*
X410218Y875795D01*
X409635Y871370D01*
Y794870D01*
X410218Y790445D01*
X411926Y786322D01*
X414643Y782781D01*
X418183Y780064D01*
X422306Y778356D01*
X426731Y777774D01*
X503232D01*
X507657Y778356D01*
X511780Y780064D01*
X515321Y782781D01*
X518037Y786322D01*
X519745Y790445D01*
X520328Y794870D01*
Y871370D01*
X519745Y875795D01*
X518037Y879918D01*
X515321Y883459D01*
X511780Y886176D01*
X507657Y887884D01*
X503232Y888466D01*
X448745D01*
Y967612D01*
X452481D01*
X456449Y968134D01*
X460147Y969666D01*
X463322Y972102D01*
X465759Y975277D01*
X467290Y978975D01*
X467812Y982943D01*
Y1082943D01*
X467290Y1086911D01*
X465759Y1090608D01*
X463322Y1093784D01*
X460147Y1096220D01*
X456449Y1097751D01*
X452481Y1098274D01*
X430546D01*
Y1122683D01*
X430546Y1122685D01*
X429891Y1127658D01*
X427971Y1132292D01*
X424918Y1136271D01*
X424917Y1136272D01*
X373166Y1188024D01*
X369186Y1191077D01*
X364552Y1192997D01*
X359579Y1193652D01*
X359577Y1193651D01*
X305925D01*
X277846Y1221731D01*
Y1279291D01*
X277846Y1279293D01*
X277813Y1279547D01*
Y1347943D01*
X277290Y1351911D01*
X275759Y1355608D01*
X273322Y1358784D01*
X270147Y1361220D01*
X266450Y1362751D01*
X262482Y1363274D01*
D02*
G37*
G36*
X5471160Y849222D02*
Y772160D01*
X5548222D01*
X5548136Y773472D01*
X5545893Y784747D01*
X5542198Y795633D01*
X5537113Y805944D01*
X5530726Y815503D01*
X5523146Y824146D01*
X5514503Y831726D01*
X5504944Y838113D01*
X5494633Y843198D01*
X5483747Y846893D01*
X5472472Y849136D01*
X5471160Y849222D01*
D02*
G37*
G36*
X5450840D02*
X5449528Y849136D01*
X5438253Y846893D01*
X5427367Y843198D01*
X5417056Y838113D01*
X5407497Y831726D01*
X5398854Y824146D01*
X5391274Y815503D01*
X5384887Y805944D01*
X5379802Y795633D01*
X5376107Y784747D01*
X5373864Y773472D01*
X5373778Y772160D01*
X5450840D01*
Y849222D01*
D02*
G37*
G36*
X2485580Y857156D02*
X2386580D01*
X2382481Y856616D01*
X2378662Y855034D01*
X2375383Y852517D01*
X2372866Y849238D01*
X2371284Y845419D01*
X2370745Y841320D01*
Y787320D01*
X2371284Y783222D01*
X2372866Y779403D01*
X2375383Y776123D01*
X2378662Y773607D01*
X2382481Y772024D01*
X2386580Y771485D01*
X2485580D01*
X2489679Y772024D01*
X2493498Y773607D01*
X2496777Y776123D01*
X2499294Y779403D01*
X2500876Y783222D01*
X2501415Y787320D01*
Y841320D01*
X2500876Y845419D01*
X2499294Y849238D01*
X2496777Y852517D01*
X2493498Y855034D01*
X2489679Y856616D01*
X2485580Y857156D01*
D02*
G37*
G36*
X1448921Y755036D02*
X1418331D01*
Y709849D01*
X1466017D01*
Y737939D01*
X1465435Y742364D01*
X1463727Y746487D01*
X1461010Y750028D01*
X1457469Y752745D01*
X1453346Y754453D01*
X1448921Y755036D01*
D02*
G37*
G36*
X1398011D02*
X1367421D01*
X1362996Y754453D01*
X1358873Y752745D01*
X1355332Y750028D01*
X1352615Y746487D01*
X1350907Y742364D01*
X1350325Y737939D01*
Y709849D01*
X1398011D01*
Y755036D01*
D02*
G37*
G36*
X2558360Y736815D02*
X2541520D01*
Y679140D01*
X2574196D01*
Y720980D01*
X2573656Y725079D01*
X2572074Y728898D01*
X2569558Y732177D01*
X2566278Y734694D01*
X2562459Y736276D01*
X2558360Y736815D01*
D02*
G37*
G36*
X2521200D02*
X2504360D01*
X2500262Y736276D01*
X2496443Y734694D01*
X2493163Y732177D01*
X2490647Y728898D01*
X2489065Y725079D01*
X2488525Y720980D01*
Y679140D01*
X2521200D01*
Y736815D01*
D02*
G37*
G36*
X5548222Y751840D02*
X5471160D01*
Y674778D01*
X5472472Y674864D01*
X5483747Y677107D01*
X5494633Y680802D01*
X5504944Y685887D01*
X5514503Y692274D01*
X5523146Y699854D01*
X5530726Y708497D01*
X5537113Y718056D01*
X5542198Y728367D01*
X5545893Y739253D01*
X5548136Y750528D01*
X5548222Y751840D01*
D02*
G37*
G36*
X5450840D02*
X5373778D01*
X5373864Y750528D01*
X5376107Y739253D01*
X5379802Y728367D01*
X5384887Y718056D01*
X5391274Y708497D01*
X5398854Y699854D01*
X5407497Y692274D01*
X5417056Y685887D01*
X5427367Y680802D01*
X5438253Y677107D01*
X5449528Y674864D01*
X5450840Y674778D01*
Y751840D01*
D02*
G37*
G36*
X2364150Y717696D02*
X2347310D01*
Y660021D01*
X2379985D01*
Y701861D01*
X2379446Y705959D01*
X2377864Y709778D01*
X2375347Y713058D01*
X2372068Y715574D01*
X2368249Y717157D01*
X2364150Y717696D01*
D02*
G37*
G36*
X2326990D02*
X2310150D01*
X2306052Y717157D01*
X2302232Y715574D01*
X2298953Y713058D01*
X2296436Y709778D01*
X2294854Y705959D01*
X2294315Y701861D01*
Y660021D01*
X2326990D01*
Y717696D01*
D02*
G37*
G36*
X137160Y722222D02*
Y645160D01*
X214222D01*
X214136Y646472D01*
X211893Y657747D01*
X208198Y668633D01*
X203113Y678944D01*
X196726Y688503D01*
X189146Y697146D01*
X180503Y704726D01*
X170944Y711113D01*
X160633Y716198D01*
X149747Y719893D01*
X138472Y722136D01*
X137160Y722222D01*
D02*
G37*
G36*
X116840D02*
X115528Y722136D01*
X104253Y719893D01*
X93367Y716198D01*
X83056Y711113D01*
X73497Y704726D01*
X64854Y697146D01*
X57274Y688503D01*
X50887Y678944D01*
X45802Y668633D01*
X42107Y657747D01*
X39864Y646472D01*
X39778Y645160D01*
X116840D01*
Y722222D01*
D02*
G37*
G36*
X1466017Y689529D02*
X1418331D01*
Y644343D01*
X1448921D01*
X1453346Y644925D01*
X1457469Y646633D01*
X1461010Y649350D01*
X1463727Y652891D01*
X1465435Y657014D01*
X1466017Y661439D01*
Y689529D01*
D02*
G37*
G36*
X1398011D02*
X1350325D01*
Y661439D01*
X1350907Y657014D01*
X1352615Y652891D01*
X1355332Y649350D01*
X1358873Y646633D01*
X1362996Y644925D01*
X1367421Y644343D01*
X1398011D01*
Y689529D01*
D02*
G37*
G36*
X2574196Y658820D02*
X2541520D01*
Y601145D01*
X2558360D01*
X2562459Y601684D01*
X2566278Y603267D01*
X2569558Y605783D01*
X2572074Y609063D01*
X2573656Y612882D01*
X2574196Y616980D01*
Y658820D01*
D02*
G37*
G36*
X2521200D02*
X2488525D01*
Y616980D01*
X2489065Y612882D01*
X2490647Y609063D01*
X2493163Y605783D01*
X2496443Y603267D01*
X2500262Y601684D01*
X2504360Y601145D01*
X2521200D01*
Y658820D01*
D02*
G37*
G36*
X2379985Y639701D02*
X2347310D01*
Y582026D01*
X2364150D01*
X2368249Y582565D01*
X2372068Y584147D01*
X2375347Y586664D01*
X2377864Y589943D01*
X2379446Y593762D01*
X2379985Y597861D01*
Y639701D01*
D02*
G37*
G36*
X2326990D02*
X2294315D01*
Y597861D01*
X2294854Y593762D01*
X2296436Y589943D01*
X2298953Y586664D01*
X2302232Y584147D01*
X2306052Y582565D01*
X2310150Y582026D01*
X2326990D01*
Y639701D01*
D02*
G37*
G36*
X214222Y624840D02*
X137160D01*
Y547778D01*
X138472Y547864D01*
X149747Y550107D01*
X160633Y553802D01*
X170944Y558887D01*
X180503Y565274D01*
X189146Y572854D01*
X196726Y581497D01*
X203113Y591056D01*
X208198Y601367D01*
X211893Y612253D01*
X214136Y623528D01*
X214222Y624840D01*
D02*
G37*
G36*
X116840D02*
X39778D01*
X39864Y623528D01*
X42107Y612253D01*
X45802Y601367D01*
X50887Y591056D01*
X57274Y581497D01*
X64854Y572854D01*
X73497Y565274D01*
X83056Y558887D01*
X93367Y553802D01*
X104253Y550107D01*
X115528Y547864D01*
X116840Y547778D01*
Y624840D01*
D02*
G37*
G36*
X864364Y586341D02*
Y511620D01*
X941421D01*
X941357Y512605D01*
X939178Y523559D01*
X935588Y534135D01*
X930648Y544151D01*
X924443Y553438D01*
X917079Y561835D01*
X908682Y569199D01*
X899396Y575404D01*
X889379Y580344D01*
X878803Y583934D01*
X867849Y586112D01*
X864364Y586341D01*
D02*
G37*
G36*
X844044D02*
X840560Y586112D01*
X829606Y583934D01*
X819030Y580344D01*
X809013Y575404D01*
X799727Y569199D01*
X791330Y561835D01*
X783966Y553438D01*
X777761Y544151D01*
X772821Y534135D01*
X769231Y523559D01*
X767052Y512605D01*
X766988Y511620D01*
X844044D01*
Y586341D01*
D02*
G37*
G36*
X2027741Y474588D02*
X1978651D01*
Y426900D01*
X2045089D01*
Y457240D01*
X2044498Y461730D01*
X2042765Y465914D01*
X2040008Y469507D01*
X2036415Y472264D01*
X2032231Y473997D01*
X2027741Y474588D01*
D02*
G37*
G36*
X1958331D02*
X1909241D01*
X1904751Y473997D01*
X1900566Y472264D01*
X1896974Y469507D01*
X1894216Y465914D01*
X1892483Y461730D01*
X1891892Y457240D01*
Y426900D01*
X1958331D01*
Y474588D01*
D02*
G37*
G36*
X941421Y491300D02*
X864364D01*
Y416579D01*
X867849Y416808D01*
X878803Y418986D01*
X889379Y422576D01*
X899396Y427516D01*
X908682Y433721D01*
X917079Y441085D01*
X924443Y449482D01*
X930648Y458769D01*
X935588Y468785D01*
X939178Y479361D01*
X941357Y490315D01*
X941421Y491300D01*
D02*
G37*
G36*
X844044D02*
X766988D01*
X767052Y490315D01*
X769231Y479361D01*
X772821Y468785D01*
X777761Y458769D01*
X783966Y449482D01*
X791330Y441085D01*
X799727Y433721D01*
X809013Y427516D01*
X819030Y422576D01*
X829606Y418986D01*
X840560Y416808D01*
X844044Y416579D01*
Y491300D01*
D02*
G37*
G36*
X1364704Y586843D02*
X1359704D01*
X1348560Y586112D01*
X1337606Y583934D01*
X1327030Y580344D01*
X1317013Y575404D01*
X1307727Y569199D01*
X1299330Y561835D01*
X1291966Y553438D01*
X1285761Y544151D01*
X1280821Y534135D01*
X1277231Y523559D01*
X1275052Y512605D01*
X1274322Y501460D01*
X1275052Y490315D01*
X1277231Y479361D01*
X1280821Y468785D01*
X1285761Y458769D01*
X1291966Y449482D01*
X1299330Y441085D01*
X1307727Y433721D01*
X1317013Y427516D01*
X1327030Y422576D01*
X1337606Y418986D01*
X1348560Y416808D01*
X1359704Y416077D01*
X1364704D01*
X1375849Y416808D01*
X1386803Y418986D01*
X1397379Y422576D01*
X1407396Y427516D01*
X1416682Y433721D01*
X1425079Y441085D01*
X1432443Y449482D01*
X1438648Y458769D01*
X1443588Y468785D01*
X1447178Y479361D01*
X1449357Y490315D01*
X1450087Y501460D01*
X1449357Y512605D01*
X1447178Y523559D01*
X1443588Y534135D01*
X1438648Y544151D01*
X1432443Y553438D01*
X1425079Y561835D01*
X1416682Y569199D01*
X1407396Y575404D01*
X1397379Y580344D01*
X1386803Y583934D01*
X1375849Y586112D01*
X1364704Y586843D01*
D02*
G37*
G36*
X1108204Y766671D02*
X1100226Y765885D01*
X1092554Y763558D01*
X1085483Y759779D01*
X1079286Y754693D01*
X1074200Y748496D01*
X1070421Y741425D01*
X1068093Y733753D01*
X1067307Y725775D01*
X1068093Y717796D01*
X1070421Y710124D01*
X1074200Y703053D01*
X1079286Y696856D01*
X1085483Y691770D01*
X1088990Y689896D01*
Y585004D01*
X1083606Y583934D01*
X1073030Y580344D01*
X1063013Y575404D01*
X1053727Y569199D01*
X1045330Y561835D01*
X1037966Y553438D01*
X1031761Y544151D01*
X1026821Y534135D01*
X1023231Y523559D01*
X1021052Y512605D01*
X1020322Y501460D01*
X1021052Y490315D01*
X1023231Y479361D01*
X1026821Y468785D01*
X1031761Y458769D01*
X1037966Y449482D01*
X1045330Y441085D01*
X1053727Y433721D01*
X1063013Y427516D01*
X1073030Y422576D01*
X1083606Y418986D01*
X1094560Y416808D01*
X1105704Y416077D01*
X1110704D01*
X1121849Y416808D01*
X1132803Y418986D01*
X1143379Y422576D01*
X1153396Y427516D01*
X1162682Y433721D01*
X1171079Y441085D01*
X1178443Y449482D01*
X1184648Y458769D01*
X1189588Y468785D01*
X1193178Y479361D01*
X1195357Y490315D01*
X1196087Y501460D01*
X1195357Y512605D01*
X1193178Y523559D01*
X1189588Y534135D01*
X1184648Y544151D01*
X1178443Y553438D01*
X1171079Y561835D01*
X1162682Y569199D01*
X1153396Y575404D01*
X1143379Y580344D01*
X1132803Y583934D01*
X1127419Y585004D01*
Y689896D01*
X1130925Y691770D01*
X1137123Y696856D01*
X1142209Y703053D01*
X1145988Y710124D01*
X1148315Y717796D01*
X1149101Y725775D01*
X1148315Y733753D01*
X1145988Y741425D01*
X1142209Y748496D01*
X1137123Y754693D01*
X1130925Y759779D01*
X1123855Y763558D01*
X1116183Y765885D01*
X1108204Y766671D01*
D02*
G37*
G36*
X602704Y586843D02*
X597704D01*
X586560Y586112D01*
X575606Y583934D01*
X565030Y580344D01*
X555013Y575404D01*
X545727Y569199D01*
X537330Y561835D01*
X529966Y553438D01*
X523761Y544151D01*
X518821Y534135D01*
X515231Y523559D01*
X513052Y512605D01*
X512322Y501460D01*
X513052Y490315D01*
X515231Y479361D01*
X518821Y468785D01*
X523761Y458769D01*
X529966Y449482D01*
X537330Y441085D01*
X545727Y433721D01*
X555013Y427516D01*
X565030Y422576D01*
X575606Y418986D01*
X586560Y416808D01*
X597704Y416077D01*
X602704D01*
X613849Y416808D01*
X624803Y418986D01*
X635379Y422576D01*
X645396Y427516D01*
X654682Y433721D01*
X663079Y441085D01*
X670443Y449482D01*
X676648Y458769D01*
X681588Y468785D01*
X685178Y479361D01*
X687357Y490315D01*
X688087Y501460D01*
X687357Y512605D01*
X685178Y523559D01*
X681588Y534135D01*
X676648Y544151D01*
X670443Y553438D01*
X663079Y561835D01*
X654682Y569199D01*
X645396Y575404D01*
X635379Y580344D01*
X624803Y583934D01*
X613849Y586112D01*
X602704Y586843D01*
D02*
G37*
G36*
X2045089Y406580D02*
X1978651D01*
Y358892D01*
X2027741D01*
X2032231Y359483D01*
X2036415Y361216D01*
X2040008Y363973D01*
X2042765Y367566D01*
X2044498Y371750D01*
X2045089Y376240D01*
Y406580D01*
D02*
G37*
G36*
X1958331D02*
X1891892D01*
Y376240D01*
X1892483Y371750D01*
X1894216Y367566D01*
X1896974Y363973D01*
X1900566Y361216D01*
X1904751Y359483D01*
X1909241Y358892D01*
X1958331D01*
Y406580D01*
D02*
G37*
G36*
X2748360Y736815D02*
X2694360D01*
X2690262Y736276D01*
X2686443Y734694D01*
X2683163Y732177D01*
X2680647Y728898D01*
X2679064Y725079D01*
X2678525Y720980D01*
Y616980D01*
X2679064Y612882D01*
X2680647Y609063D01*
X2683163Y605783D01*
X2686443Y603267D01*
X2690262Y601684D01*
X2694360Y601145D01*
X2725796D01*
Y529063D01*
X2725796Y529061D01*
X2726451Y524088D01*
X2728370Y519454D01*
X2731424Y515475D01*
X2776606Y470293D01*
Y390322D01*
X2776474Y389318D01*
Y312818D01*
X2777056Y308393D01*
X2778764Y304270D01*
X2781481Y300729D01*
X2785022Y298012D01*
X2789145Y296304D01*
X2793570Y295722D01*
X2870070D01*
X2874495Y296304D01*
X2878618Y298012D01*
X2882159Y300729D01*
X2884876Y304270D01*
X2886584Y308393D01*
X2887166Y312818D01*
Y389318D01*
X2886584Y393743D01*
X2884876Y397866D01*
X2882159Y401407D01*
X2878618Y404124D01*
X2874495Y405832D01*
X2870070Y406414D01*
X2815035D01*
Y478249D01*
X2815035Y478252D01*
X2814380Y483225D01*
X2812460Y487859D01*
X2809407Y491838D01*
X2809406Y491839D01*
X2764225Y537021D01*
Y645330D01*
X2764196Y645550D01*
Y720980D01*
X2763656Y725079D01*
X2762074Y728898D01*
X2759558Y732177D01*
X2756278Y734694D01*
X2752459Y736276D01*
X2748360Y736815D01*
D02*
G37*
G36*
X1118364Y332341D02*
Y257620D01*
X1195421D01*
X1195357Y258605D01*
X1193178Y269559D01*
X1189588Y280135D01*
X1184648Y290151D01*
X1178443Y299438D01*
X1171079Y307835D01*
X1162682Y315199D01*
X1153396Y321404D01*
X1143379Y326344D01*
X1132803Y329934D01*
X1121849Y332112D01*
X1118364Y332341D01*
D02*
G37*
G36*
X1098044D02*
X1094560Y332112D01*
X1083606Y329934D01*
X1073030Y326344D01*
X1063013Y321404D01*
X1053727Y315199D01*
X1045330Y307835D01*
X1037966Y299438D01*
X1031761Y290151D01*
X1026821Y280135D01*
X1023231Y269559D01*
X1021052Y258605D01*
X1020988Y257620D01*
X1098044D01*
Y332341D01*
D02*
G37*
G36*
X2058265Y302658D02*
X2027925D01*
Y236220D01*
X2075613D01*
Y285310D01*
X2075022Y289800D01*
X2073289Y293984D01*
X2070532Y297577D01*
X2066939Y300334D01*
X2062755Y302067D01*
X2058265Y302658D01*
D02*
G37*
G36*
X2007605D02*
X1977265D01*
X1972775Y302067D01*
X1968591Y300334D01*
X1964998Y297577D01*
X1962241Y293984D01*
X1960508Y289800D01*
X1959917Y285310D01*
Y236220D01*
X2007605D01*
Y302658D01*
D02*
G37*
G36*
X1195421Y237300D02*
X1118364D01*
Y162579D01*
X1121849Y162808D01*
X1132803Y164986D01*
X1143379Y168576D01*
X1153396Y173516D01*
X1162682Y179721D01*
X1171079Y187085D01*
X1178443Y195482D01*
X1184648Y204769D01*
X1189588Y214785D01*
X1193178Y225361D01*
X1195357Y236315D01*
X1195421Y237300D01*
D02*
G37*
G36*
X1098044D02*
X1020988D01*
X1021052Y236315D01*
X1023231Y225361D01*
X1026821Y214785D01*
X1031761Y204769D01*
X1037966Y195482D01*
X1045330Y187085D01*
X1053727Y179721D01*
X1063013Y173516D01*
X1073030Y168576D01*
X1083606Y164986D01*
X1094560Y162808D01*
X1098044Y162579D01*
Y237300D01*
D02*
G37*
G36*
X1364704Y332843D02*
X1359704D01*
X1348560Y332112D01*
X1337606Y329934D01*
X1327030Y326344D01*
X1317013Y321404D01*
X1307727Y315199D01*
X1299330Y307835D01*
X1291966Y299438D01*
X1285761Y290151D01*
X1280821Y280135D01*
X1277231Y269559D01*
X1275052Y258605D01*
X1274322Y247460D01*
X1275052Y236315D01*
X1277231Y225361D01*
X1280821Y214785D01*
X1285761Y204769D01*
X1291966Y195482D01*
X1299330Y187085D01*
X1307727Y179721D01*
X1317013Y173516D01*
X1327030Y168576D01*
X1337606Y164986D01*
X1348560Y162808D01*
X1359704Y162077D01*
X1364704D01*
X1375849Y162808D01*
X1386803Y164986D01*
X1397379Y168576D01*
X1407396Y173516D01*
X1416682Y179721D01*
X1425079Y187085D01*
X1432443Y195482D01*
X1438648Y204769D01*
X1443588Y214785D01*
X1447178Y225361D01*
X1449357Y236315D01*
X1450087Y247460D01*
X1449357Y258605D01*
X1447178Y269559D01*
X1443588Y280135D01*
X1438648Y290151D01*
X1432443Y299438D01*
X1425079Y307835D01*
X1416682Y315199D01*
X1407396Y321404D01*
X1397379Y326344D01*
X1386803Y329934D01*
X1375849Y332112D01*
X1364704Y332843D01*
D02*
G37*
G36*
X2653360Y486815D02*
X2599360D01*
X2595262Y486276D01*
X2591443Y484693D01*
X2588163Y482177D01*
X2585647Y478897D01*
X2584064Y475078D01*
X2583525Y470980D01*
Y366980D01*
X2584064Y362881D01*
X2585647Y359062D01*
X2588163Y355783D01*
X2591443Y353266D01*
X2595262Y351684D01*
X2598179Y351300D01*
Y331624D01*
X2564130D01*
X2557906Y331011D01*
X2551921Y329195D01*
X2546406Y326247D01*
X2541571Y322279D01*
X2537603Y317445D01*
X2534655Y311929D01*
X2532839Y305944D01*
X2532227Y299720D01*
Y185420D01*
X2532839Y179196D01*
X2534655Y173211D01*
X2537603Y167695D01*
X2541571Y162861D01*
X2546406Y158893D01*
X2551921Y155945D01*
X2557906Y154129D01*
X2564130Y153516D01*
X2678430D01*
X2684654Y154129D01*
X2690639Y155945D01*
X2696155Y158893D01*
X2700990Y162861D01*
X2704957Y167695D01*
X2707905Y173211D01*
X2709721Y179196D01*
X2710334Y185420D01*
Y299720D01*
X2709721Y305944D01*
X2707905Y311929D01*
X2704957Y317445D01*
X2700990Y322279D01*
X2696155Y326247D01*
X2690639Y329195D01*
X2684654Y331011D01*
X2678430Y331624D01*
X2654541D01*
Y351300D01*
X2657459Y351684D01*
X2661278Y353266D01*
X2664558Y355783D01*
X2667074Y359062D01*
X2668656Y362881D01*
X2669196Y366980D01*
Y470980D01*
X2668656Y475078D01*
X2667074Y478897D01*
X2664558Y482177D01*
X2661278Y484693D01*
X2657459Y486276D01*
X2653360Y486815D01*
D02*
G37*
G36*
X2075613Y215900D02*
X2027925D01*
Y149462D01*
X2058265D01*
X2062755Y150053D01*
X2066939Y151786D01*
X2070532Y154543D01*
X2073289Y158136D01*
X2075022Y162320D01*
X2075613Y166810D01*
Y215900D01*
D02*
G37*
G36*
X2007605D02*
X1959917D01*
Y166810D01*
X1960508Y162320D01*
X1962241Y158136D01*
X1964998Y154543D01*
X1968591Y151786D01*
X1972775Y150053D01*
X1977265Y149462D01*
X2007605D01*
Y215900D01*
D02*
G37*
G36*
X357482Y1098274D02*
X312481D01*
X308513Y1097751D01*
X304816Y1096220D01*
X301641Y1093784D01*
X299204Y1090608D01*
X297673Y1086911D01*
X297151Y1082943D01*
Y982943D01*
X297673Y978975D01*
X299204Y975277D01*
X301641Y972102D01*
X304816Y969666D01*
X308513Y968134D01*
X312481Y967612D01*
X315767D01*
Y888466D01*
X296731D01*
X292307Y887884D01*
X288183Y886176D01*
X284643Y883459D01*
X281926Y879918D01*
X280218Y875795D01*
X279635Y871370D01*
Y794870D01*
X280218Y790445D01*
X281926Y786322D01*
X284643Y782781D01*
X288183Y780064D01*
X292307Y778356D01*
X296731Y777774D01*
X332459D01*
Y365298D01*
X332459Y365296D01*
X333114Y360323D01*
X335033Y355689D01*
X338087Y351710D01*
X404916Y284881D01*
Y241161D01*
X404916Y241159D01*
X405570Y236186D01*
X407490Y231552D01*
X410544Y227573D01*
X558872Y79244D01*
X558873Y79243D01*
X562852Y76190D01*
X567487Y74270D01*
X572460Y73615D01*
X572462Y73616D01*
X905813D01*
X932483Y46946D01*
X932484Y46945D01*
X936463Y43891D01*
X941098Y41972D01*
X946071Y41317D01*
X946073Y41317D01*
X1432183D01*
X1432185Y41317D01*
X1437158Y41972D01*
X1441792Y43891D01*
X1445772Y46945D01*
X1472442Y73616D01*
X1706079D01*
X1706081Y73615D01*
X1711054Y74270D01*
X1715688Y76190D01*
X1719668Y79243D01*
X1730430Y90005D01*
X1778118D01*
X1778171Y89785D01*
X1781948Y80667D01*
X1787105Y72252D01*
X1793514Y64747D01*
X1801019Y58338D01*
X1809434Y53181D01*
X1818551Y49405D01*
X1828148Y47101D01*
X1837987Y46326D01*
X1847825Y47101D01*
X1857422Y49405D01*
X1866540Y53181D01*
X1874955Y58338D01*
X1882459Y64747D01*
X1888869Y72252D01*
X1894025Y80667D01*
X1897802Y89785D01*
X1897855Y90006D01*
X2185050D01*
X2210021Y65034D01*
X2210022Y65033D01*
X2214002Y61980D01*
X2218636Y60061D01*
X2223609Y59406D01*
X2223611Y59406D01*
X2758318D01*
X2758320Y59406D01*
X2763293Y60060D01*
X2767927Y61980D01*
X2771907Y65033D01*
X2809256Y102383D01*
X2809257Y102383D01*
X2812310Y106363D01*
X2814230Y110997D01*
X2814885Y115970D01*
X2814884Y115972D01*
Y165722D01*
X2870070D01*
X2874495Y166304D01*
X2878618Y168012D01*
X2882159Y170729D01*
X2884876Y174270D01*
X2886584Y178393D01*
X2887166Y182818D01*
Y259318D01*
X2886584Y263743D01*
X2884876Y267866D01*
X2882159Y271407D01*
X2878618Y274124D01*
X2874495Y275832D01*
X2870070Y276414D01*
X2793570D01*
X2789145Y275832D01*
X2785022Y274124D01*
X2781481Y271407D01*
X2778764Y267866D01*
X2777056Y263743D01*
X2776474Y259318D01*
Y185057D01*
X2776455Y184918D01*
X2776456Y184916D01*
Y123929D01*
X2750361Y97834D01*
X2231568D01*
X2212219Y117183D01*
Y149462D01*
X2233505D01*
X2237995Y150053D01*
X2242179Y151786D01*
X2245772Y154543D01*
X2248529Y158136D01*
X2250262Y162320D01*
X2250853Y166810D01*
Y216951D01*
X2282095D01*
X2284971Y208476D01*
X2290125Y198024D01*
X2296600Y188335D01*
X2304284Y179573D01*
X2313045Y171890D01*
X2322735Y165415D01*
X2333187Y160261D01*
X2344222Y156515D01*
X2355652Y154241D01*
X2367280Y153479D01*
X2378909Y154241D01*
X2390339Y156515D01*
X2401374Y160261D01*
X2411826Y165415D01*
X2421515Y171890D01*
X2430277Y179573D01*
X2437961Y188335D01*
X2444435Y198024D01*
X2449589Y208476D01*
X2453335Y219512D01*
X2455609Y230941D01*
X2456371Y242570D01*
X2455609Y254199D01*
X2453335Y265628D01*
X2449589Y276664D01*
X2444435Y287116D01*
X2437961Y296805D01*
X2430277Y305567D01*
X2421515Y313250D01*
X2411826Y319725D01*
X2401374Y324879D01*
X2390339Y328625D01*
X2378909Y330898D01*
X2367280Y331661D01*
X2355652Y330898D01*
X2344222Y328625D01*
X2333187Y324879D01*
X2322735Y319725D01*
X2313045Y313250D01*
X2304284Y305567D01*
X2296600Y296805D01*
X2290125Y287116D01*
X2284971Y276664D01*
X2282094Y268189D01*
X2250853D01*
Y285310D01*
X2250842Y285399D01*
Y332025D01*
X2269150D01*
X2273248Y332565D01*
X2277068Y334147D01*
X2280347Y336664D01*
X2282864Y339943D01*
X2284446Y343762D01*
X2284985Y347861D01*
Y451861D01*
X2284446Y455959D01*
X2282864Y459778D01*
X2280347Y463058D01*
X2277068Y465574D01*
X2273248Y467157D01*
X2269150Y467696D01*
X2215150D01*
X2211051Y467157D01*
X2207232Y465574D01*
X2203953Y463058D01*
X2201436Y459778D01*
X2199854Y455959D01*
X2199315Y451861D01*
Y347861D01*
X2199603Y345669D01*
Y302658D01*
X2152505D01*
X2148015Y302067D01*
X2143831Y300334D01*
X2140238Y297577D01*
X2137481Y293984D01*
X2135748Y289800D01*
X2135157Y285310D01*
Y166810D01*
X2135748Y162320D01*
X2137481Y158136D01*
X2140238Y154543D01*
X2143831Y151786D01*
X2148015Y150053D01*
X2152505Y149462D01*
X2173791D01*
Y128434D01*
X1897855D01*
X1897802Y128655D01*
X1894025Y137773D01*
X1888869Y146188D01*
X1882459Y153693D01*
X1874955Y160102D01*
X1866540Y165259D01*
X1857422Y169035D01*
X1847825Y171339D01*
X1837987Y172114D01*
X1828148Y171339D01*
X1818551Y169035D01*
X1809434Y165259D01*
X1801019Y160102D01*
X1793514Y153693D01*
X1787105Y146188D01*
X1781948Y137773D01*
X1778171Y128655D01*
X1778118Y128434D01*
X1722473D01*
X1722471Y128434D01*
X1717498Y127780D01*
X1712864Y125860D01*
X1708884Y122806D01*
X1708884Y122805D01*
X1698122Y112044D01*
X1464486D01*
X1464483Y112044D01*
X1459511Y111390D01*
X1454876Y109470D01*
X1450897Y106417D01*
X1450896Y106416D01*
X1424226Y79746D01*
X954030D01*
X927359Y106417D01*
X923379Y109470D01*
X918745Y111389D01*
X913772Y112044D01*
X913770Y112044D01*
X580418D01*
X443345Y249118D01*
Y292838D01*
X443345Y292840D01*
X442690Y297812D01*
X440770Y302447D01*
X437717Y306426D01*
X437716Y306427D01*
X370888Y373256D01*
Y777774D01*
X373232D01*
X377657Y778356D01*
X381780Y780064D01*
X385321Y782781D01*
X388037Y786322D01*
X389745Y790445D01*
X390328Y794870D01*
Y871370D01*
X389745Y875795D01*
X388037Y879918D01*
X385321Y883459D01*
X381780Y886176D01*
X377657Y887884D01*
X373232Y888466D01*
X354196D01*
Y967612D01*
X357482D01*
X361450Y968134D01*
X365147Y969666D01*
X368322Y972102D01*
X370759Y975277D01*
X372290Y978975D01*
X372813Y982943D01*
Y1082943D01*
X372290Y1086911D01*
X370759Y1090608D01*
X368322Y1093784D01*
X365147Y1096220D01*
X361450Y1097751D01*
X357482Y1098274D01*
D02*
G37*
%LPD*%
G36*
X1448108Y1780454D02*
X1448109Y1780453D01*
X1452089Y1777400D01*
X1456723Y1775480D01*
X1461696Y1774825D01*
X1461698Y1774826D01*
X1537572D01*
X1545334Y1757046D01*
X1537184Y1748254D01*
X1335506D01*
Y1790850D01*
X1334924Y1795275D01*
X1333216Y1799398D01*
X1330499Y1802939D01*
X1326958Y1805656D01*
X1322835Y1807364D01*
X1318410Y1807946D01*
X1241910D01*
X1237485Y1807364D01*
X1233362Y1805656D01*
X1229821Y1802939D01*
X1227104Y1799398D01*
X1225396Y1795275D01*
X1224814Y1790850D01*
Y1714350D01*
X1225396Y1709925D01*
X1227104Y1705802D01*
X1229821Y1702261D01*
X1233362Y1699544D01*
X1237485Y1697836D01*
X1241910Y1697254D01*
X1318410D01*
X1322835Y1697836D01*
X1326958Y1699544D01*
X1330499Y1702261D01*
X1333216Y1705802D01*
X1334883Y1709826D01*
X1537586D01*
X1545349Y1692046D01*
X1537189Y1683243D01*
X1404829D01*
X1404827Y1683243D01*
X1399854Y1682588D01*
X1395220Y1680668D01*
X1391240Y1677615D01*
X1391240Y1677614D01*
X1367780Y1654154D01*
X1151477D01*
X1146504Y1653500D01*
X1141870Y1651580D01*
X1137890Y1648527D01*
X1137890Y1648526D01*
X1070393Y1581030D01*
X1067340Y1577050D01*
X1065420Y1572416D01*
X1064765Y1567443D01*
X1064766Y1567441D01*
Y1540127D01*
X1046986Y1532365D01*
X1038194Y1540516D01*
Y1634086D01*
X1101685Y1697577D01*
X1109453D01*
X1111910Y1697254D01*
X1188410D01*
X1192835Y1697836D01*
X1196958Y1699544D01*
X1200499Y1702261D01*
X1203216Y1705802D01*
X1204924Y1709925D01*
X1205506Y1714350D01*
Y1790850D01*
X1204924Y1795275D01*
X1203216Y1799398D01*
X1200499Y1802939D01*
X1196958Y1805656D01*
X1192835Y1807364D01*
X1188410Y1807946D01*
X1111910D01*
X1107485Y1807364D01*
X1103362Y1805656D01*
X1099821Y1802939D01*
X1097104Y1799398D01*
X1095396Y1795275D01*
X1094814Y1790850D01*
Y1753303D01*
X1093726Y1736006D01*
X1088753Y1735351D01*
X1084119Y1733431D01*
X1080140Y1730378D01*
X1080139Y1730377D01*
X1005393Y1655632D01*
X1002340Y1651652D01*
X1000420Y1647018D01*
X999765Y1642045D01*
X999766Y1642043D01*
Y1540128D01*
X981986Y1532366D01*
X973194Y1540516D01*
Y1703199D01*
X1109160Y1839164D01*
X1389398D01*
X1448108Y1780454D01*
D02*
G37*
G36*
X1545324Y1627034D02*
X1537184Y1618254D01*
X1472918D01*
X1472916Y1618255D01*
X1467943Y1617600D01*
X1463309Y1615680D01*
X1459329Y1612627D01*
X1459328Y1612626D01*
X1435834Y1589131D01*
X1415521D01*
X1415519Y1589131D01*
X1410546Y1588476D01*
X1405912Y1586557D01*
X1401932Y1583504D01*
X1401932Y1583503D01*
X1353212Y1534783D01*
X1350880Y1535491D01*
X1343980Y1536170D01*
X1337080Y1535491D01*
X1330444Y1533478D01*
X1324329Y1530210D01*
X1323361Y1529415D01*
X1317342Y1525811D01*
X1305618D01*
X1299599Y1529415D01*
X1298631Y1530210D01*
X1292516Y1533478D01*
X1285880Y1535491D01*
X1278980Y1536170D01*
X1272079Y1535491D01*
X1265444Y1533478D01*
X1259329Y1530210D01*
X1258360Y1529415D01*
X1252341Y1525811D01*
X1240619D01*
X1234600Y1529415D01*
X1233631Y1530210D01*
X1227516Y1533478D01*
X1220880Y1535491D01*
X1213980Y1536170D01*
X1207080Y1535491D01*
X1200444Y1533478D01*
X1194329Y1530210D01*
X1193361Y1529415D01*
X1187342Y1525811D01*
X1175618D01*
X1169599Y1529415D01*
X1168631Y1530210D01*
X1162516Y1533478D01*
X1155880Y1535491D01*
X1148980Y1536170D01*
X1142080Y1535491D01*
X1135444Y1533478D01*
X1129329Y1530210D01*
X1128360Y1529415D01*
X1122341Y1525811D01*
X1119056D01*
X1103194Y1540516D01*
Y1559484D01*
X1159436Y1615726D01*
X1375737D01*
X1375739Y1615725D01*
X1380711Y1616380D01*
X1385346Y1618300D01*
X1389325Y1621353D01*
X1412786Y1644814D01*
X1537562D01*
X1545324Y1627034D01*
D02*
G37*
G36*
X1760684Y1554535D02*
X1700616D01*
X1700515Y1554659D01*
X1700132Y1555298D01*
X1697128Y1572765D01*
X1700515Y1578421D01*
X1701310Y1579389D01*
X1704578Y1585504D01*
X1706591Y1592140D01*
X1707270Y1599040D01*
X1706591Y1605940D01*
X1704578Y1612576D01*
X1701310Y1618691D01*
X1700515Y1619659D01*
X1696911Y1625678D01*
Y1637401D01*
X1700515Y1643420D01*
X1701310Y1644389D01*
X1704578Y1650504D01*
X1706591Y1657139D01*
X1707270Y1664040D01*
X1706591Y1670940D01*
X1704578Y1677576D01*
X1701310Y1683691D01*
X1700515Y1684659D01*
X1696911Y1690678D01*
Y1702401D01*
X1700515Y1708421D01*
X1701310Y1709389D01*
X1704578Y1715504D01*
X1706591Y1722140D01*
X1707270Y1729040D01*
X1706591Y1735940D01*
X1704578Y1742576D01*
X1701310Y1748691D01*
X1700515Y1749659D01*
X1696911Y1755678D01*
Y1767401D01*
X1700515Y1773420D01*
X1701310Y1774389D01*
X1704578Y1780504D01*
X1706591Y1787139D01*
X1707270Y1794040D01*
X1706591Y1800940D01*
X1704578Y1807576D01*
X1701310Y1813691D01*
X1700515Y1814659D01*
X1696911Y1820678D01*
Y1832401D01*
X1700515Y1838421D01*
X1701310Y1839389D01*
X1704578Y1845504D01*
X1706591Y1852140D01*
X1707270Y1859040D01*
X1706591Y1865940D01*
X1704578Y1872576D01*
X1701310Y1878691D01*
X1700515Y1879659D01*
X1696911Y1885678D01*
Y1888964D01*
X1711616Y1904826D01*
X1760684D01*
Y1554535D01*
D02*
G37*
D10*
X1343980Y1453300D02*
D03*
X1278980D02*
D03*
X1213980D02*
D03*
X1148980D02*
D03*
X1083980D02*
D03*
X1018980D02*
D03*
X953980D02*
D03*
X888980D02*
D03*
X823980D02*
D03*
X758980D02*
D03*
X1343980Y868300D02*
D03*
X1278980D02*
D03*
X1213980D02*
D03*
X1148980D02*
D03*
X1083980D02*
D03*
X1018980D02*
D03*
X953980D02*
D03*
X888980D02*
D03*
X823980D02*
D03*
X758980D02*
D03*
D11*
X1624400Y1924040D02*
D03*
Y1859040D02*
D03*
Y1794040D02*
D03*
Y1729040D02*
D03*
Y1664040D02*
D03*
Y1599040D02*
D03*
Y1534040D02*
D03*
X2214400Y1924040D02*
D03*
Y1859040D02*
D03*
Y1794040D02*
D03*
Y1729040D02*
D03*
Y1664040D02*
D03*
Y1599040D02*
D03*
Y1534040D02*
D03*
D12*
X1872639Y2667784D02*
D03*
X2712638D02*
D03*
X1872639Y2217784D02*
D03*
X2712638D02*
D03*
D13*
X2146080Y1004320D02*
D03*
Y909320D02*
D03*
Y814320D02*
D03*
X2436080D02*
D03*
Y1004320D02*
D03*
D14*
X239981Y1297943D02*
D03*
X334982D02*
D03*
X429981D02*
D03*
Y1032943D02*
D03*
X334982D02*
D03*
X239981D02*
D03*
D15*
X2531360Y668980D02*
D03*
X2721360D02*
D03*
X2626360Y418980D02*
D03*
X2242150Y399861D02*
D03*
X2337150Y649861D02*
D03*
X2147150D02*
D03*
X1871980Y986060D02*
D03*
X1776980Y736060D02*
D03*
X1966980D02*
D03*
D16*
X3252128Y2283707D02*
D03*
X3122128D02*
D03*
X1626060Y871220D02*
D03*
X1496060D02*
D03*
X1496060Y1003300D02*
D03*
X1626060D02*
D03*
X3124534Y1619398D02*
D03*
X3254533Y1619398D02*
D03*
Y1489557D02*
D03*
X3124534Y1489558D02*
D03*
X2631440Y1666383D02*
D03*
X2501440D02*
D03*
X2631440Y1528025D02*
D03*
X2501440D02*
D03*
X1280160Y1752600D02*
D03*
X1150160D02*
D03*
X2631440Y1943100D02*
D03*
X2501440D02*
D03*
X1496060Y1135380D02*
D03*
X1626060D02*
D03*
X3124534Y1878398D02*
D03*
X3254534D02*
D03*
Y1748558D02*
D03*
X3124534D02*
D03*
X464982Y833120D02*
D03*
X334982D02*
D03*
D17*
X5066577Y878629D02*
D03*
Y2074969D02*
D03*
X3524477Y2278169D02*
D03*
X5066577Y1076749D02*
D03*
Y1277409D02*
D03*
Y1475529D02*
D03*
Y1678729D02*
D03*
Y1876849D02*
D03*
Y2275629D02*
D03*
X3524477Y2077509D02*
D03*
Y1879389D02*
D03*
X3527017Y1678729D02*
D03*
Y1478069D02*
D03*
Y1279949D02*
D03*
Y1076749D02*
D03*
Y878629D02*
D03*
D18*
X4797177Y2473909D02*
D03*
X4599057Y2473909D02*
D03*
X4400937Y2473909D02*
D03*
X4197737D02*
D03*
X3999617Y2473909D02*
D03*
X3796417Y2473909D02*
D03*
D19*
X1273171Y699689D02*
D03*
X1408171D02*
D03*
X2273211Y1369780D02*
D03*
X2138211D02*
D03*
X1767640D02*
D03*
X1902640D02*
D03*
D20*
X226683Y1616583D02*
D03*
Y1486583D02*
D03*
X356327Y1486583D02*
D03*
Y1616583D02*
D03*
X719138Y1652505D02*
D03*
Y1782505D02*
D03*
X2831820Y351068D02*
D03*
Y221068D02*
D03*
X5295092Y1483609D02*
D03*
Y1353609D02*
D03*
X859540Y1652505D02*
D03*
Y1782505D02*
D03*
X5425092Y1483609D02*
D03*
Y1353609D02*
D03*
X592061Y1109980D02*
D03*
Y979980D02*
D03*
D21*
X2402466Y1179636D02*
D03*
X2227226D02*
D03*
X5287472Y2204509D02*
D03*
X5462712D02*
D03*
X2193005Y226060D02*
D03*
X2017765D02*
D03*
D22*
X2420990Y1369780D02*
D03*
X1877310Y1191218D02*
D03*
X2052320Y1165818D02*
D03*
X1837987Y109220D02*
D03*
X1779744Y501460D02*
D03*
D23*
X1968491Y591980D02*
D03*
Y416740D02*
D03*
D24*
X1630490Y2224150D02*
D03*
Y2089150D02*
D03*
D25*
X1616204Y501460D02*
X1616204D01*
X1285375Y375126D02*
X1489870D01*
X1616204Y501460D01*
X1346900Y871220D02*
X1496060D01*
X1495800Y1003560D02*
X1496060Y1003300D01*
X1300267Y1003560D02*
X1495800D01*
X1496060Y1135380D02*
X1496060Y1135379D01*
X1496060Y1003300D02*
X1496060Y1003300D01*
Y1135379D01*
X1278980Y982272D02*
X1300267Y1003560D01*
X1877310Y1001550D02*
Y1191218D01*
X1871980Y996220D02*
X1877310Y1001550D01*
X1804060Y1264468D02*
X1877310Y1191218D01*
X1804060Y1264468D02*
Y1334900D01*
X1769180Y1369780D02*
X1804060Y1334900D01*
X1766450Y1369780D02*
X1769180D01*
X1871980Y996220D02*
X1880080Y1004320D01*
X2146080D01*
X1766450Y1369780D02*
X1781179Y1384509D01*
X1665370Y2051770D02*
X1720152D01*
X1781179Y1924040D02*
Y1990743D01*
X1720152Y2051770D02*
X1781179Y1990743D01*
X1322020Y1973580D02*
X1400210Y2051770D01*
X1594360D01*
X1630490Y2087900D02*
Y2089150D01*
Y2086650D02*
Y2087900D01*
X1594360Y2051770D02*
X1630490Y2087900D01*
Y2086650D02*
X1665370Y2051770D01*
X1278980Y868300D02*
Y982272D01*
Y705498D02*
Y868300D01*
X1273171Y699689D02*
X1278980Y705498D01*
X1270672Y699689D02*
X1270672D01*
X1235792Y664809D02*
X1270672Y699689D01*
X1235792Y424709D02*
Y664809D01*
X1781179Y1384509D02*
Y1534040D01*
Y1924040D01*
X1624400Y1534040D02*
X1781179D01*
X2693799Y1288604D02*
X2989713Y1584518D01*
X2693799Y1162317D02*
Y1288604D01*
X2989713Y1584518D02*
X3089654D01*
X3124534Y1748558D02*
Y1878398D01*
X3124535Y1619398D02*
Y1748558D01*
X3089654Y1584518D02*
X3124535Y1619398D01*
X1343980Y868300D02*
X1346900Y871220D01*
X1235792Y424709D02*
X1285375Y375126D01*
D26*
X1731953Y864657D02*
X1753330Y843280D01*
X1731953Y864657D02*
Y1080391D01*
X1753330Y772410D02*
Y843280D01*
X1776980Y736060D02*
Y748760D01*
X1753330Y772410D02*
X1776980Y748760D01*
X1858985Y843310D02*
X2024556D01*
X2029896Y837970D01*
X2122430D01*
X2146080Y814320D01*
X1788379Y913916D02*
X1858985Y843310D01*
X1626060Y1135380D02*
X1662210Y1099230D01*
X1600070Y1161370D02*
X1626060Y1135380D01*
X2745010Y529061D02*
Y645330D01*
X2795820Y387068D02*
Y478252D01*
X2745010Y529061D02*
X2795820Y478252D01*
Y387068D02*
X2831820Y351068D01*
X2721360Y668980D02*
X2745010Y645330D01*
X1662210Y1099230D02*
X1713115D01*
X1600070Y1161370D02*
Y1208158D01*
X1626060Y871220D02*
Y1003300D01*
X923979Y1973580D02*
X942340D01*
X827889Y1877490D02*
X923979Y1973580D01*
X801273Y1877490D02*
X827889D01*
X755288Y1831505D02*
X801273Y1877490D01*
X755288Y1818655D02*
Y1831505D01*
X719138Y1782505D02*
X755288Y1818655D01*
X952022Y1858632D02*
X1015351D01*
X1130299Y1973580D02*
X1142340D01*
X1015351Y1858632D02*
X1130299Y1973580D01*
X912045Y1818655D02*
X952022Y1858632D01*
X3832860Y2202180D02*
X4158191Y1876849D01*
X3762416Y2202180D02*
X3832860D01*
X3740396Y2284298D02*
X3971775D01*
X3690057Y2334637D02*
X3740396Y2284298D01*
X3971775D02*
X4181103Y2074969D01*
X4158191Y1876849D02*
X5066577D01*
X3213622Y2512683D02*
X3657600D01*
X3690057Y2334637D02*
Y2362261D01*
X3631749Y2420569D02*
X3690057Y2362261D01*
X3403872Y2420569D02*
X3631749D01*
X4181103Y2074969D02*
X5066576D01*
X2653243Y2404537D02*
X3105475D01*
X3213622Y2512683D01*
X1872639Y2667784D02*
X2712638D01*
X1070690D02*
X1872639D01*
X574040Y2171134D02*
X1070690Y2667784D01*
X1713115Y1099230D02*
X1731953Y1080391D01*
X1319460Y1301860D02*
X1629210D01*
X1788379Y913916D02*
Y1142691D01*
X1629210Y1301860D02*
X1788379Y1142691D01*
X1278980Y1342339D02*
X1319460Y1301860D01*
X1237163Y1245251D02*
X1562977D01*
X1213980Y1268434D02*
Y1453300D01*
Y1268434D02*
X1237163Y1245251D01*
X1562977D02*
X1600070Y1208158D01*
X1278980Y1342339D02*
Y1453300D01*
X895690Y1818655D02*
X912045D01*
X2537460Y2122983D02*
Y2288753D01*
X2653243Y2404537D01*
X2712226Y1702533D02*
X2843261Y1833568D01*
Y1895964D02*
X3098856Y2151560D01*
X2843261Y1833568D02*
Y1895964D01*
X2645207Y1768592D02*
X2765481Y1888866D01*
Y1980664D02*
X3032375Y2247557D01*
X2765481Y1888866D02*
Y1980664D01*
X3032375Y2247557D02*
X3085978D01*
X2595290Y1979250D02*
Y2065153D01*
X2537460Y2122983D02*
X2595290Y2065153D01*
Y1979250D02*
X2631440Y1943100D01*
X2389505Y1768592D02*
X2645207D01*
X953980Y1711158D02*
X1101201Y1858379D01*
X1397357D01*
X859540Y1782505D02*
X895690Y1818655D01*
X2214400Y1729040D02*
X2349954D01*
X2389505Y1768592D01*
X2214400Y1599040D02*
X2337627D01*
X2372492Y1564175D01*
X2465290D01*
X2214400Y1664040D02*
X2501440D01*
X2189000D02*
X2214400D01*
X2433054Y1906950D02*
X2465290D01*
X1624389Y1664028D02*
X1624400Y1664040D01*
X1404827Y1664028D02*
X1624389D01*
X1375739Y1634940D02*
X1404827Y1664028D01*
X1037055Y123583D02*
X1414494D01*
X982356Y178282D02*
Y617844D01*
Y178282D02*
X1037055Y123583D01*
X725585Y376080D02*
X854204Y247460D01*
X725585Y376080D02*
Y574293D01*
X784641Y633350D02*
X832682D01*
X725585Y574293D02*
X784641Y633350D01*
X946071Y60532D02*
X1432185D01*
X1464483Y92830D02*
X1706081D01*
X1432185Y60532D02*
X1464483Y92830D01*
X1479490Y188579D02*
X1531923D01*
X1414494Y123583D02*
X1479490Y188579D01*
X1531923D02*
X1590804Y247460D01*
X471173Y376491D02*
Y582642D01*
Y376491D02*
X600204Y247460D01*
X572460Y92830D02*
X913772D01*
X424130Y241159D02*
Y292840D01*
Y241159D02*
X572460Y92830D01*
X953980Y646220D02*
X982356Y617844D01*
X953980Y646220D02*
Y868300D01*
X1108204Y501460D02*
Y725775D01*
X574040Y1716331D02*
X625038Y1665333D01*
X574040Y1716331D02*
Y2171134D01*
X5267542Y1326060D02*
X5295092Y1353609D01*
X5115226Y1326060D02*
X5267542D01*
X5283200Y995180D02*
Y1152229D01*
X5388942Y1257971D02*
Y1317459D01*
X5283200Y1152229D02*
X5388942Y1257971D01*
Y1317459D02*
X5425092Y1353609D01*
X1837987Y109220D02*
X2193005D01*
X1787187D02*
X1837987D01*
X1722471Y109220D02*
X1787186D01*
X1706081Y92830D02*
X1722471Y109220D01*
X3085978Y2247557D02*
X3122128Y2283707D01*
X3288121Y2319701D02*
X3303004D01*
X3403872Y2420569D01*
X3252128Y2283707D02*
X3288121Y2319701D01*
X1093726Y1716791D02*
X1114351D01*
X1018980Y1453300D02*
Y1642045D01*
X1093726Y1716791D01*
X1114351D02*
X1150160Y1752600D01*
X1280160D02*
X1303720Y1729040D01*
X1624400D01*
X953980Y1453300D02*
Y1711158D01*
X1397357Y1858379D02*
X1461696Y1794040D01*
X392477Y1580433D02*
X504849D01*
X623673Y1288391D02*
Y1461609D01*
X504849Y1580433D02*
X623673Y1461609D01*
X556673Y1145368D02*
Y1358961D01*
X472782Y1442852D02*
Y1501140D01*
Y1442852D02*
X556673Y1358961D01*
Y1145368D02*
X592061Y1109980D01*
X592823D02*
X604520D01*
X640670Y1073830D01*
X682955Y1362185D02*
Y1492240D01*
X625038Y1550157D02*
Y1665333D01*
Y1550157D02*
X682955Y1492240D01*
X640670Y1073830D02*
X719410D01*
X756438Y1036803D01*
Y870842D02*
Y1036803D01*
Y870842D02*
X758980Y868300D01*
X168404Y1715882D02*
X428220D01*
X3072780Y1104376D02*
Y1262422D01*
X3088384Y1278026D02*
Y1453408D01*
X3072780Y1262422D02*
X3088384Y1278026D01*
X3679908Y692830D02*
X4215837Y1228759D01*
X5017926D01*
X5066577Y1277409D01*
X1624400Y1924040D02*
X1781179D01*
X3088384Y1453408D02*
X3124534Y1489558D01*
X2919195Y1776425D02*
Y1843608D01*
X2706945Y1564175D02*
X2919195Y1776425D01*
Y1843608D02*
X3104446Y2028859D01*
X3098856Y2151560D02*
X3699667D01*
X3104446Y2028859D02*
X3475826D01*
X3254534Y1878398D02*
X3255525Y1879389D01*
X3524477D01*
X3254534Y1748558D02*
X3290684Y1712408D01*
X3493338D01*
X3354373Y1314892D02*
Y1712408D01*
X3354373Y1712408D01*
X3493338D02*
X3527017Y1678729D01*
X429531Y868571D02*
X464982Y833120D01*
X429531Y1032492D02*
X429981Y1032943D01*
X429531Y868571D02*
Y1032492D01*
X411331Y1051593D02*
X429981Y1032943D01*
X392477Y1407992D02*
Y1450433D01*
X411331Y1316593D02*
Y1389138D01*
X392477Y1407992D02*
X411331Y1389138D01*
X356327Y1486583D02*
X392477Y1450433D01*
X107360Y1232100D02*
X221332Y1118128D01*
X107360Y1654838D02*
X168404Y1715882D01*
X107360Y1232100D02*
Y1654838D01*
X334982Y833120D02*
X351673Y816428D01*
Y365296D02*
Y816428D01*
X334982Y833120D02*
Y1032943D01*
X428220Y1715882D02*
X485482Y1658620D01*
X894475Y1017589D02*
X940409D01*
X623673Y1288391D02*
X894475Y1017589D01*
X682955Y1362185D02*
X1083980Y961160D01*
X471173Y582642D02*
X599102Y710571D01*
X776826D02*
X823980Y757725D01*
X599102Y710571D02*
X776826D01*
X832682Y633350D02*
X888980Y689648D01*
X1151477Y1634940D02*
X1375739D01*
X1343980Y1498378D02*
X1415519Y1569917D01*
X1343980Y1453300D02*
Y1498378D01*
X1415519Y1569917D02*
X1443793D01*
X3403858Y1231299D02*
X3478366D01*
X3346578Y1130842D02*
Y1174019D01*
X3403858Y1231299D01*
X3201799Y1162317D02*
X3354373Y1314892D01*
X5295092Y1483609D02*
Y2141009D01*
X5215299Y927280D02*
X5283200Y995180D01*
X5066576Y1277410D02*
X5115226Y1326060D01*
X5295092Y1483609D02*
X5425092D01*
X5115227Y927280D02*
X5215299D01*
X5066577Y878629D02*
X5115227Y927280D01*
X351673Y365296D02*
X424130Y292840D01*
X1787186Y109220D02*
X1787187Y109220D01*
X913772Y92830D02*
X946071Y60532D01*
X411331Y1316593D02*
X429981Y1297943D01*
X2320144Y1794040D02*
X2433054Y1906950D01*
X2465290D02*
X2501440Y1943100D01*
X258631Y1213772D02*
X297966Y1174437D01*
X359579D02*
X411331Y1122685D01*
X297966Y1174437D02*
X359579D01*
X411331Y1051593D02*
Y1122685D01*
X258631Y1213772D02*
Y1279293D01*
X239981Y1297943D02*
X258631Y1279293D01*
X356327Y1616583D02*
X392477Y1580433D01*
X2947799Y908318D02*
X3084893Y771224D01*
X3306008D02*
X3364764Y829979D01*
X3084893Y771224D02*
X3306008D01*
X3201799Y908317D02*
X3208094D01*
X3327876Y1028099D02*
X3478366D01*
X3208094Y908317D02*
X3327876Y1028099D01*
X3140027Y1037129D02*
X3252866D01*
X3346578Y1130842D01*
X3478366Y1028099D02*
X3527017Y1076749D01*
X3478366Y1231299D02*
X3527017Y1279949D01*
X3072780Y1104376D02*
X3140027Y1037129D01*
X2667590Y1564175D02*
X2706945D01*
X3475826Y2028859D02*
X3524477Y2077509D01*
X2808147Y850161D02*
X2965478Y692830D01*
X3679908D01*
X2751955Y850161D02*
X2808147D01*
X2693799Y908317D02*
X2751955Y850161D01*
X3364764Y829979D02*
X3478366D01*
X3527017Y878629D01*
X221332Y1051593D02*
Y1118128D01*
Y1051593D02*
X239981Y1032943D01*
X226683Y1616583D02*
X356327Y1616583D01*
X2193005Y109220D02*
Y226060D01*
X2214400Y1794040D02*
X2320144D01*
X2465290Y1564175D02*
X2501440Y1528025D01*
X2631440D02*
X2667590Y1564175D01*
Y1702533D02*
X2712226D01*
X2631440Y1666383D02*
X2667590Y1702533D01*
X823980Y1453300D02*
Y1616945D01*
X859540Y1652505D01*
X719138Y1540642D02*
X758980Y1500800D01*
X719138Y1540642D02*
Y1652505D01*
X758980Y1453300D02*
Y1500800D01*
X1083980Y1567443D02*
X1151477Y1634940D01*
X1083980Y1453300D02*
Y1567443D01*
X1443793Y1569917D02*
X1472916Y1599040D01*
X2193005Y109220D02*
X2193009D01*
X2223609Y78620D02*
X2758320D01*
X2193009Y109220D02*
X2223609Y78620D01*
X2758320D02*
X2795670Y115970D01*
Y184918D01*
X888980Y1453300D02*
X888980Y1453300D01*
Y1269130D02*
Y1453300D01*
Y1269130D02*
X1108204Y1049906D01*
X1083980Y868300D02*
Y961160D01*
X940409Y1017589D02*
X973353Y984645D01*
Y962337D02*
Y984645D01*
X3699667Y2151560D02*
X4123847Y1727380D01*
X1018980Y868300D02*
Y916710D01*
X973353Y962337D02*
X1018980Y916710D01*
X4123847Y1727380D02*
X5017926D01*
X5066577Y1678729D01*
X1472916Y1599040D02*
X1624400D01*
X3254534Y1489557D02*
Y1619398D01*
X2795670Y184918D02*
X2831820Y221068D01*
X888980Y689648D02*
Y868300D01*
X1461696Y1794040D02*
X1624400D01*
X823980Y757725D02*
Y868300D01*
D27*
X1779744Y501460D02*
X1845573Y567289D01*
X1943800D02*
X1968491Y591980D01*
X1845573Y567289D02*
X1943800D01*
X1966980Y603651D02*
Y746220D01*
X1968491Y591980D02*
Y603651D01*
X1984394Y619554D01*
X2127310D01*
X1616204Y501460D02*
X1779744D01*
X2938779Y2506979D02*
X3116957Y2685157D01*
X4967015D01*
X5252860Y2399312D01*
X2571213Y2506979D02*
X2938779D01*
X2053945Y1564331D02*
Y1989712D01*
X2571213Y2506979D01*
X2415540Y1024160D02*
X2435380Y1004320D01*
X2415540Y1024160D02*
Y1146242D01*
X2435380Y1004320D02*
X2436080D01*
X2402466Y1159316D02*
X2415540Y1146242D01*
X2214400Y1534040D02*
X2243821D01*
X2084236D02*
X2214400D01*
X2243821D02*
X2255222Y1522639D01*
Y1387769D02*
Y1522639D01*
Y1387769D02*
X2273211Y1369779D01*
X2053945Y1564331D02*
X2084236Y1534040D01*
X2402466Y1159316D02*
X2402466Y1159316D01*
X5088488Y2253718D02*
X5252632D01*
X5066577Y2275629D02*
X5088488Y2253718D01*
X5287472Y2204509D02*
Y2218878D01*
X5252632Y2253718D02*
X5287472Y2218878D01*
X2147150Y639394D02*
Y649861D01*
X2420990Y1177841D02*
Y1369780D01*
X2402466Y1159316D02*
X2420990Y1177841D01*
X2273211Y1369779D02*
X2420990D01*
X2420990Y1369780D01*
X2402466Y1159316D02*
X2690797D01*
X2693799Y1162317D01*
X5252860Y2253718D02*
Y2399312D01*
X2127310Y619554D02*
X2147150Y639394D01*
D28*
X2621280Y242570D02*
Y244632D01*
X2626360Y247650D02*
Y418980D01*
X2621280Y242570D02*
X2626360Y247650D01*
D29*
X2225222Y250457D02*
Y382933D01*
X2242150Y399861D01*
X2217335Y242570D02*
X2225222Y250457D01*
X2217335Y242570D02*
X2367280D01*
X2209515D02*
X2217335D01*
X2193005Y226060D02*
X2209515Y242570D01*
X2367280D02*
X2367280Y242570D01*
D30*
X742340Y1973580D02*
D03*
X942340D02*
D03*
X1142340D02*
D03*
X1342340D02*
D03*
D31*
X5461000Y1016000D02*
D03*
Y762000D02*
D03*
X127000Y2159000D02*
D03*
Y1905000D02*
D03*
Y635000D02*
D03*
Y889000D02*
D03*
X5461000Y1905000D02*
D03*
Y1651000D02*
D03*
D32*
X1616204Y247460D02*
D03*
X2693799Y908317D02*
D03*
D33*
X1362204Y247460D02*
D03*
X1108204D02*
D03*
X854204D02*
D03*
X600204D02*
D03*
Y501460D02*
D03*
X854204D02*
D03*
X1108204D02*
D03*
X1362204D02*
D03*
X1616204D02*
D03*
X2947799Y908318D02*
D03*
X3201799Y908317D02*
D03*
Y1162317D02*
D03*
X2947799Y1162317D02*
D03*
X2693799Y1162317D02*
D03*
D34*
X200000Y200000D02*
D03*
Y2600000D02*
D03*
X5400000D02*
D03*
D35*
X2367280Y242570D02*
D03*
D36*
X2621280D02*
D03*
D37*
X2227226Y1074032D02*
D03*
X5377180Y2204509D02*
D03*
X5138501Y2373219D02*
D03*
X3881055Y2331348D02*
D03*
X3864228Y2237248D02*
D03*
X3781562Y2136202D02*
D03*
X4910877Y1829799D02*
D03*
Y2027919D02*
D03*
X3762416Y2202180D02*
D03*
X3657600Y2512683D02*
D03*
X3187700Y2603500D02*
D03*
X2600960Y604740D02*
D03*
X2462110Y732384D02*
D03*
Y668562D02*
D03*
Y604740D02*
D03*
X2054860Y909320D02*
D03*
X2237386D02*
D03*
X1788410Y1209198D02*
D03*
X1645951Y1218580D02*
D03*
X1371507Y1348910D02*
D03*
X1393570Y954980D02*
D03*
X1420170Y1198201D02*
D03*
X1706280Y798220D02*
D03*
X1846749Y797032D02*
D03*
X1878474Y890360D02*
D03*
X987865Y1811582D02*
D03*
X886460Y1869440D02*
D03*
X1243666Y1912436D02*
D03*
X2408284Y1815642D02*
D03*
X3025795Y2300461D02*
D03*
X504029Y1719802D02*
D03*
X577988Y1573833D02*
D03*
X538293Y1480450D02*
D03*
X458354Y1390742D02*
D03*
X2488166Y1108456D02*
D03*
X710878Y2754219D02*
D03*
X2905020Y45780D02*
D03*
X3041334Y1632838D02*
D03*
X2353172Y1309553D02*
D03*
X2488166Y1210176D02*
D03*
X2105302Y1584900D02*
D03*
X1732859Y1582360D02*
D03*
X3368777Y1926439D02*
D03*
X3042124Y1536198D02*
D03*
X3328967Y1813478D02*
D03*
X3103723Y1961598D02*
D03*
X3041334Y1899209D02*
D03*
X382481Y947711D02*
D03*
X393480Y1207075D02*
D03*
X604391Y1241134D02*
D03*
X670723Y1307880D02*
D03*
X841930Y1269749D02*
D03*
X913963Y1064638D02*
D03*
X642602Y1714307D02*
D03*
X1356250Y1681990D02*
D03*
X2833639Y889706D02*
D03*
X3411534Y1172437D02*
D03*
X3371317Y1265297D02*
D03*
X3401423Y1383903D02*
D03*
X3307323Y1408773D02*
D03*
X3401423Y1584563D02*
D03*
X3119830Y1242934D02*
D03*
X3357424Y1075149D02*
D03*
X3124041Y992878D02*
D03*
X3130696Y818274D02*
D03*
X3272902D02*
D03*
X3049698Y739880D02*
D03*
X3341203D02*
D03*
X5547360Y1371600D02*
D03*
X675881Y980440D02*
D03*
X398723Y623960D02*
D03*
X657860Y147320D02*
D03*
X1497330Y139880D02*
D03*
X894284Y45780D02*
D03*
X965558Y107581D02*
D03*
X3700999Y2593176D02*
D03*
X3539265Y2613016D02*
D03*
X2323995Y1924179D02*
D03*
X2324796Y1865231D02*
D03*
X2386216Y1616990D02*
D03*
X2398542Y1711090D02*
D03*
X50860Y1221740D02*
D03*
X2418240Y1517125D02*
D03*
X2714640Y1517758D02*
D03*
Y1638409D02*
D03*
Y1771486D02*
D03*
X2714829Y1979261D02*
D03*
X2418240Y1954000D02*
D03*
X2323917Y1546212D02*
D03*
X3335859Y2439917D02*
D03*
X50860Y1652177D02*
D03*
X341335Y1126143D02*
D03*
X334982Y1390957D02*
D03*
X398723Y486385D02*
D03*
X1864040Y618160D02*
D03*
X1161794Y611120D02*
D03*
X1001030Y760202D02*
D03*
X1408171Y616466D02*
D03*
X472782Y1658620D02*
D03*
Y1501140D02*
D03*
X226683Y1402080D02*
D03*
X2712638Y2125980D02*
D03*
X3368776Y2278169D02*
D03*
X2484120Y2753995D02*
D03*
X3700716Y2418140D02*
D03*
X1261299Y1292948D02*
D03*
X672088Y1569646D02*
D03*
X1732859Y1485720D02*
D03*
X1732497Y1876990D02*
D03*
Y1971090D02*
D03*
X1545991Y2224150D02*
D03*
X1714989D02*
D03*
X1630490Y2310874D02*
D03*
X1872639Y2125980D02*
D03*
X1155505Y978645D02*
D03*
X4910877Y1680330D02*
D03*
X776930Y1561397D02*
D03*
X1167664Y760186D02*
D03*
X2227226Y1285240D02*
D03*
X2139926Y1179636D02*
D03*
X2138211Y1286679D02*
D03*
X2053011Y1370499D02*
D03*
X2138211Y1452880D02*
D03*
X5547360Y2204509D02*
D03*
X5462712Y2099874D02*
D03*
X5222277Y2080260D02*
D03*
X5195473Y2177405D02*
D03*
X1495335Y700914D02*
D03*
X1407566Y782983D02*
D03*
X1931692Y226060D02*
D03*
X2104267Y225860D02*
D03*
X1108204Y1049906D02*
D03*
X936030Y1345203D02*
D03*
X2214400Y1988820D02*
D03*
X1992365Y330717D02*
D03*
X1864396Y416740D02*
D03*
X2072585D02*
D03*
X757338Y757621D02*
D03*
X1902640Y1286679D02*
D03*
Y1452880D02*
D03*
X1988820Y1369780D02*
D03*
X1463283Y1524553D02*
D03*
X3368777Y2104509D02*
D03*
X1002345Y1692985D02*
D03*
X1413107Y1776090D02*
D03*
X1483972Y45780D02*
D03*
X2600960Y668562D02*
D03*
X2600960Y732384D02*
D03*
X2531360Y574260D02*
D03*
Y762864D02*
D03*
X841930Y709136D02*
D03*
X1424304Y1616967D02*
D03*
X1108204Y725775D02*
D03*
X3680176Y2104509D02*
D03*
X1148553Y1565478D02*
D03*
X1069216Y1623848D02*
D03*
X1512976Y1843885D02*
D03*
X5089128Y645780D02*
D03*
X4395820D02*
D03*
X3702512D02*
D03*
X2104805Y1924179D02*
D03*
X906930Y1561397D02*
D03*
X920920Y970539D02*
D03*
X3680931Y2753995D02*
D03*
X3679482Y2278169D02*
D03*
X4620214Y2753995D02*
D03*
X2169160Y45780D02*
D03*
X1548883Y2741295D02*
D03*
X3523811Y2373519D02*
D03*
%TF.MD5,acf2e471a2c5969382a3ba4471df64dd*%
M02*
