%TF.GenerationSoftware,Altium Limited,Altium Designer,20.1.8 (145)*%
G04 Layer_Color=0*
%FSLAX45Y45*%
%MOMM*%
%TF.SameCoordinates,4FE69ECD-ABF1-445D-A2E8-605A74DE355E*%
%TF.FilePolarity,Positive*%
%TF.FileFunction,Plated,1,4,PTH,Drill*%
%TF.Part,Single*%
G01*
G75*
%TA.AperFunction,ComponentDrill*%
%ADD68C,0.75000*%
%ADD69C,0.95000*%
%TA.AperFunction,OtherDrill,Pad Free-1 (2mm,2mm)*%
%ADD70C,2.20000*%
%TA.AperFunction,OtherDrill,Pad Free-1 (2mm,26mm)*%
%ADD71C,2.20000*%
%TA.AperFunction,OtherDrill,Pad Free-1 (54mm,26mm)*%
%ADD72C,2.20000*%
%TA.AperFunction,ViaDrill,NotFilled*%
%ADD73C,0.30000*%
D68*
X742340Y1973580D02*
D03*
X942340D02*
D03*
X1142340D02*
D03*
X1342340D02*
D03*
D69*
X5461000Y1016000D02*
D03*
Y762000D02*
D03*
X127000Y2159000D02*
D03*
Y1905000D02*
D03*
Y635000D02*
D03*
Y889000D02*
D03*
X5461000Y1905000D02*
D03*
Y1651000D02*
D03*
X1616204Y247460D02*
D03*
X1362204D02*
D03*
X1108204D02*
D03*
X854204D02*
D03*
X600204D02*
D03*
Y501460D02*
D03*
X854204D02*
D03*
X1108204D02*
D03*
X1362204D02*
D03*
X1616204D02*
D03*
X2693799Y908317D02*
D03*
X2947799Y908318D02*
D03*
X3201799Y908317D02*
D03*
Y1162317D02*
D03*
X2947799Y1162317D02*
D03*
X2693799Y1162317D02*
D03*
X2367280Y242570D02*
D03*
X2621280D02*
D03*
D70*
X200000Y200000D02*
D03*
D71*
Y2600000D02*
D03*
D72*
X5400000D02*
D03*
D73*
X2227226Y1074032D02*
D03*
X5377180Y2204509D02*
D03*
X5138501Y2373219D02*
D03*
X3881055Y2331348D02*
D03*
X3864228Y2237248D02*
D03*
X3781562Y2136202D02*
D03*
X4910877Y1829799D02*
D03*
Y2027919D02*
D03*
X3762416Y2202180D02*
D03*
X3657600Y2512683D02*
D03*
X3187700Y2603500D02*
D03*
X2600960Y604740D02*
D03*
X2462110Y732384D02*
D03*
Y668562D02*
D03*
Y604740D02*
D03*
X2054860Y909320D02*
D03*
X2237386D02*
D03*
X1788410Y1209198D02*
D03*
X1645951Y1218580D02*
D03*
X1371507Y1348910D02*
D03*
X1393570Y954980D02*
D03*
X1420170Y1198201D02*
D03*
X1706280Y798220D02*
D03*
X1846749Y797032D02*
D03*
X1878474Y890360D02*
D03*
X987865Y1811582D02*
D03*
X886460Y1869440D02*
D03*
X1243666Y1912436D02*
D03*
X2408284Y1815642D02*
D03*
X3025795Y2300461D02*
D03*
X504029Y1719802D02*
D03*
X577988Y1573833D02*
D03*
X538293Y1480450D02*
D03*
X458354Y1390742D02*
D03*
X2488166Y1108456D02*
D03*
X710878Y2754219D02*
D03*
X2905020Y45780D02*
D03*
X3041334Y1632838D02*
D03*
X2353172Y1309553D02*
D03*
X2488166Y1210176D02*
D03*
X2105302Y1584900D02*
D03*
X1732859Y1582360D02*
D03*
X3368777Y1926439D02*
D03*
X3042124Y1536198D02*
D03*
X3328967Y1813478D02*
D03*
X3103723Y1961598D02*
D03*
X3041334Y1899209D02*
D03*
X382481Y947711D02*
D03*
X393480Y1207075D02*
D03*
X604391Y1241134D02*
D03*
X670723Y1307880D02*
D03*
X841930Y1269749D02*
D03*
X913963Y1064638D02*
D03*
X642602Y1714307D02*
D03*
X1356250Y1681990D02*
D03*
X2833639Y889706D02*
D03*
X3411534Y1172437D02*
D03*
X3371317Y1265297D02*
D03*
X3401423Y1383903D02*
D03*
X3307323Y1408773D02*
D03*
X3401423Y1584563D02*
D03*
X3119830Y1242934D02*
D03*
X3357424Y1075149D02*
D03*
X3124041Y992878D02*
D03*
X3130696Y818274D02*
D03*
X3272902D02*
D03*
X3049698Y739880D02*
D03*
X3341203D02*
D03*
X5547360Y1371600D02*
D03*
X675881Y980440D02*
D03*
X398723Y623960D02*
D03*
X657860Y147320D02*
D03*
X1497330Y139880D02*
D03*
X894284Y45780D02*
D03*
X965558Y107581D02*
D03*
X3700999Y2593176D02*
D03*
X3539265Y2613016D02*
D03*
X2323995Y1924179D02*
D03*
X2324796Y1865231D02*
D03*
X2386216Y1616990D02*
D03*
X2398542Y1711090D02*
D03*
X50860Y1221740D02*
D03*
X2418240Y1517125D02*
D03*
X2714640Y1517758D02*
D03*
Y1638409D02*
D03*
Y1771486D02*
D03*
X2714829Y1979261D02*
D03*
X2418240Y1954000D02*
D03*
X2323917Y1546212D02*
D03*
X3335859Y2439917D02*
D03*
X50860Y1652177D02*
D03*
X341335Y1126143D02*
D03*
X334982Y1390957D02*
D03*
X398723Y486385D02*
D03*
X1864040Y618160D02*
D03*
X1161794Y611120D02*
D03*
X1001030Y760202D02*
D03*
X1408171Y616466D02*
D03*
X472782Y1658620D02*
D03*
Y1501140D02*
D03*
X226683Y1402080D02*
D03*
X2712638Y2125980D02*
D03*
X3368776Y2278169D02*
D03*
X2484120Y2753995D02*
D03*
X3700716Y2418140D02*
D03*
X1261299Y1292948D02*
D03*
X672088Y1569646D02*
D03*
X1732859Y1485720D02*
D03*
X1732497Y1876990D02*
D03*
Y1971090D02*
D03*
X1545991Y2224150D02*
D03*
X1714989D02*
D03*
X1630490Y2310874D02*
D03*
X1872639Y2125980D02*
D03*
X1155505Y978645D02*
D03*
X4910877Y1680330D02*
D03*
X776930Y1561397D02*
D03*
X1167664Y760186D02*
D03*
X2227226Y1285240D02*
D03*
X2139926Y1179636D02*
D03*
X2138211Y1286679D02*
D03*
X2053011Y1370499D02*
D03*
X2138211Y1452880D02*
D03*
X5547360Y2204509D02*
D03*
X5462712Y2099874D02*
D03*
X5222277Y2080260D02*
D03*
X5195473Y2177405D02*
D03*
X1495335Y700914D02*
D03*
X1407566Y782983D02*
D03*
X1931692Y226060D02*
D03*
X2104267Y225860D02*
D03*
X1108204Y1049906D02*
D03*
X936030Y1345203D02*
D03*
X2214400Y1988820D02*
D03*
X1992365Y330717D02*
D03*
X1864396Y416740D02*
D03*
X2072585D02*
D03*
X757338Y757621D02*
D03*
X1902640Y1286679D02*
D03*
Y1452880D02*
D03*
X1988820Y1369780D02*
D03*
X1463283Y1524553D02*
D03*
X3368777Y2104509D02*
D03*
X1002345Y1692985D02*
D03*
X1413107Y1776090D02*
D03*
X1483972Y45780D02*
D03*
X2600960Y668562D02*
D03*
X2600960Y732384D02*
D03*
X2531360Y574260D02*
D03*
Y762864D02*
D03*
X841930Y709136D02*
D03*
X1424304Y1616967D02*
D03*
X1108204Y725775D02*
D03*
X3680176Y2104509D02*
D03*
X1148553Y1565478D02*
D03*
X1069216Y1623848D02*
D03*
X1512976Y1843885D02*
D03*
X5089128Y645780D02*
D03*
X4395820D02*
D03*
X3702512D02*
D03*
X2104805Y1924179D02*
D03*
X906930Y1561397D02*
D03*
X920920Y970539D02*
D03*
X3680931Y2753995D02*
D03*
X3679482Y2278169D02*
D03*
X4620214Y2753995D02*
D03*
X2169160Y45780D02*
D03*
X1548883Y2741295D02*
D03*
X3523811Y2373519D02*
D03*
%TF.MD5,055ac218aac382c3f706adc2d6f23cd6*%
M02*
