%TF.GenerationSoftware,Altium Limited,Altium Designer,20.1.8 (145)*%
G04 Layer_Color=65535*
%FSLAX45Y45*%
%MOMM*%
%TF.SameCoordinates,F34F671C-B0F6-4AC1-94B4-1D61ADA518EE*%
%TF.FilePolarity,Positive*%
%TF.FileFunction,Legend,Bot*%
%TF.Part,Single*%
G01*
G75*
%TA.AperFunction,NonConductor*%
%ADD41C,0.20000*%
%ADD42C,0.40000*%
%ADD43C,0.25400*%
%ADD44C,0.20320*%
%ADD45C,0.12700*%
G36*
X3132499Y5201305D02*
X2927510D01*
Y5429995D01*
X3132499D01*
Y5201305D01*
D02*
G37*
G36*
X1847969Y5203336D02*
X1652053D01*
Y5429989D01*
X1847969D01*
Y5203336D01*
D02*
G37*
G36*
X416595Y2923267D02*
X418120Y2922989D01*
X419368Y2922435D01*
X420339Y2921880D01*
X421310Y2921325D01*
X421865Y2920770D01*
X422281Y2920493D01*
X422419Y2920354D01*
X423390Y2919245D01*
X424083Y2918135D01*
X424500Y2917026D01*
X424777Y2915916D01*
X425054Y2915084D01*
X425193Y2914391D01*
Y2913836D01*
Y2913697D01*
Y2912588D01*
X425054Y2911479D01*
X424916Y2910646D01*
Y2910508D01*
Y2910369D01*
X424638Y2909121D01*
X424222Y2908011D01*
X424083Y2907318D01*
X423945Y2907179D01*
Y2907041D01*
X423390Y2905931D01*
X423113Y2904822D01*
X422835Y2903990D01*
X422697Y2903851D01*
Y2903712D01*
X400785Y2844355D01*
X400091Y2842137D01*
X399398Y2840195D01*
X399120Y2839363D01*
X398843Y2838808D01*
X398704Y2838392D01*
Y2838253D01*
X397734Y2836173D01*
X397179Y2835202D01*
X396763Y2834370D01*
X396347Y2833677D01*
X396069Y2833122D01*
X395931Y2832845D01*
X395792Y2832706D01*
X394405Y2831042D01*
X392880Y2829655D01*
X392186Y2829239D01*
X391631Y2828823D01*
X391354Y2828684D01*
X391215Y2828546D01*
X390106Y2827991D01*
X388858Y2827713D01*
X386639Y2827159D01*
X385668D01*
X384975Y2827020D01*
X384281D01*
X382756Y2827159D01*
X381369Y2827297D01*
X380259Y2827575D01*
X379289Y2827852D01*
X378456Y2828129D01*
X377902Y2828268D01*
X377486Y2828546D01*
X377347D01*
X375405Y2829932D01*
X374019Y2831319D01*
X373464Y2831874D01*
X373048Y2832290D01*
X372909Y2832567D01*
X372770Y2832706D01*
X371661Y2834648D01*
X370690Y2836451D01*
X370274Y2837283D01*
X370135Y2837837D01*
X369858Y2838253D01*
Y2838392D01*
X369026Y2840750D01*
X368610Y2841721D01*
X368333Y2842691D01*
X368055Y2843385D01*
X367916Y2843939D01*
X367778Y2844217D01*
Y2844355D01*
X345727Y2903712D01*
X345172Y2905238D01*
X344895Y2906486D01*
X344618Y2907179D01*
X344479Y2907457D01*
X344063Y2908566D01*
X343647Y2909676D01*
X343508Y2910369D01*
X343369Y2910508D01*
Y2910646D01*
X343092Y2911895D01*
X342953Y2912865D01*
Y2913559D01*
Y2913836D01*
X343231Y2915500D01*
X343647Y2916887D01*
X343924Y2917442D01*
X344063Y2917858D01*
X344340Y2918135D01*
Y2918274D01*
X345450Y2919800D01*
X346559Y2921048D01*
X347114Y2921464D01*
X347530Y2921741D01*
X347807Y2922019D01*
X347946D01*
X349749Y2922851D01*
X351413Y2923267D01*
X352106Y2923405D01*
X353077D01*
X354325Y2923267D01*
X355435Y2923128D01*
X356544Y2922851D01*
X357376Y2922573D01*
X358070Y2922157D01*
X358486Y2921880D01*
X358763Y2921741D01*
X358902Y2921602D01*
X360289Y2920216D01*
X361260Y2918967D01*
X361537Y2918413D01*
X361814Y2918135D01*
X361953Y2917858D01*
Y2917719D01*
X362230Y2916887D01*
X362646Y2915778D01*
X363479Y2913420D01*
X363895Y2912449D01*
X364172Y2911617D01*
X364311Y2911063D01*
X364449Y2910785D01*
X383865Y2850458D01*
X403281Y2910924D01*
X403974Y2913004D01*
X404806Y2914807D01*
X405500Y2916332D01*
X406055Y2917719D01*
X406609Y2918690D01*
X407025Y2919522D01*
X407303Y2919938D01*
X407441Y2920077D01*
X408412Y2921186D01*
X409522Y2922019D01*
X410770Y2922573D01*
X412018Y2922989D01*
X413266Y2923267D01*
X414237Y2923405D01*
X415069D01*
X416595Y2923267D01*
D02*
G37*
G36*
X292472D02*
X295662Y2922851D01*
X298713Y2922296D01*
X301348Y2921741D01*
X303428Y2921186D01*
X304399Y2920909D01*
X305231Y2920632D01*
X305786Y2920354D01*
X306202Y2920216D01*
X306479Y2920077D01*
X306618D01*
X309530Y2918690D01*
X312304Y2917165D01*
X314662Y2915500D01*
X316881Y2913975D01*
X318545Y2912588D01*
X319793Y2911479D01*
X320625Y2910646D01*
X320764Y2910508D01*
X320903Y2910369D01*
X322983Y2907873D01*
X324924Y2905238D01*
X326589Y2902741D01*
X327837Y2900384D01*
X328808Y2898304D01*
X329224Y2897333D01*
X329640Y2896639D01*
X329917Y2895946D01*
X330056Y2895530D01*
X330194Y2895253D01*
Y2895114D01*
X331304Y2891647D01*
X331997Y2888180D01*
X332552Y2884851D01*
X332968Y2881800D01*
X333107Y2880275D01*
X333245Y2879026D01*
Y2877917D01*
X333384Y2876946D01*
Y2876114D01*
Y2875559D01*
Y2875143D01*
Y2875005D01*
Y2872508D01*
X333245Y2870012D01*
X332968Y2867793D01*
X332691Y2865852D01*
X332552Y2864326D01*
X332275Y2863078D01*
X332136Y2862246D01*
Y2862107D01*
Y2861968D01*
X331581Y2859749D01*
X331027Y2857530D01*
X330333Y2855589D01*
X329778Y2853925D01*
X329085Y2852399D01*
X328669Y2851290D01*
X328392Y2850596D01*
X328253Y2850319D01*
X327282Y2848377D01*
X326173Y2846713D01*
X325202Y2845188D01*
X324231Y2843939D01*
X323538Y2842969D01*
X322844Y2842137D01*
X322428Y2841721D01*
X322289Y2841582D01*
X320625Y2839502D01*
X318961Y2837699D01*
X317297Y2836173D01*
X315910Y2834925D01*
X314662Y2833954D01*
X313691Y2833261D01*
X313136Y2832845D01*
X312859Y2832706D01*
X310917Y2831597D01*
X308976Y2830764D01*
X307173Y2830071D01*
X305509Y2829378D01*
X303983Y2828962D01*
X302874Y2828684D01*
X302180Y2828407D01*
X301903D01*
X297188Y2827575D01*
X294969Y2827297D01*
X292888Y2827159D01*
X291086D01*
X289699Y2827020D01*
X288451D01*
X284983Y2827159D01*
X281655Y2827436D01*
X278743Y2827991D01*
X276246Y2828546D01*
X274166Y2829100D01*
X273334Y2829378D01*
X272641Y2829655D01*
X272086Y2829794D01*
X271670Y2829932D01*
X271531Y2830071D01*
X271392D01*
X268757Y2831319D01*
X266261Y2832706D01*
X264181Y2834093D01*
X262517Y2835341D01*
X261130Y2836451D01*
X260020Y2837421D01*
X259466Y2837976D01*
X259188Y2838253D01*
X257524Y2840195D01*
X255998Y2841998D01*
X254750Y2843801D01*
X253780Y2845326D01*
X253086Y2846713D01*
X252531Y2847823D01*
X252254Y2848377D01*
X252115Y2848655D01*
X251422Y2850596D01*
X250867Y2852399D01*
X250451Y2854063D01*
X250174Y2855450D01*
X250035Y2856698D01*
X249896Y2857530D01*
Y2858224D01*
Y2858363D01*
X250035Y2859749D01*
X250312Y2860998D01*
X250728Y2862107D01*
X251283Y2863078D01*
X251838Y2863910D01*
X252254Y2864465D01*
X252531Y2864742D01*
X252670Y2864881D01*
X253780Y2865852D01*
X254889Y2866545D01*
X255998Y2866961D01*
X256969Y2867377D01*
X257940Y2867516D01*
X258633Y2867654D01*
X259327D01*
X260852Y2867516D01*
X262239Y2867238D01*
X263349Y2866822D01*
X264181Y2866406D01*
X264874Y2865852D01*
X265290Y2865435D01*
X265568Y2865158D01*
X265706Y2865019D01*
X266955Y2862939D01*
X268064Y2860998D01*
X268341Y2860304D01*
X268619Y2859611D01*
X268896Y2859195D01*
Y2859056D01*
X270006Y2856421D01*
X271254Y2854063D01*
X272641Y2852122D01*
X273889Y2850458D01*
X274998Y2849209D01*
X275969Y2848377D01*
X276524Y2847823D01*
X276801Y2847684D01*
X278881Y2846436D01*
X280962Y2845604D01*
X283042Y2844910D01*
X284983Y2844494D01*
X286786Y2844217D01*
X288173Y2844078D01*
X289421D01*
X291918Y2844217D01*
X294275Y2844633D01*
X296217Y2845049D01*
X298020Y2845742D01*
X299545Y2846297D01*
X300516Y2846713D01*
X301209Y2847129D01*
X301487Y2847268D01*
X303290Y2848655D01*
X304815Y2850180D01*
X306202Y2851844D01*
X307312Y2853370D01*
X308282Y2854895D01*
X308837Y2856005D01*
X309253Y2856837D01*
X309392Y2856976D01*
Y2857114D01*
X310363Y2859749D01*
X311056Y2862662D01*
X311472Y2865574D01*
X311749Y2868348D01*
X312027Y2870705D01*
Y2871815D01*
X312165Y2872647D01*
Y2873479D01*
Y2874034D01*
Y2874311D01*
Y2874450D01*
X312027Y2877224D01*
X311888Y2879859D01*
X311611Y2882355D01*
X311195Y2884574D01*
X310640Y2886793D01*
X310085Y2888734D01*
X309530Y2890399D01*
X308976Y2892063D01*
X308421Y2893450D01*
X307866Y2894698D01*
X307312Y2895669D01*
X306757Y2896501D01*
X306341Y2897194D01*
X306063Y2897610D01*
X305786Y2897888D01*
Y2898026D01*
X304538Y2899552D01*
X303290Y2900800D01*
X301903Y2901909D01*
X300377Y2902880D01*
X298991Y2903712D01*
X297604Y2904267D01*
X294969Y2905376D01*
X292472Y2905931D01*
X291502Y2906070D01*
X290669Y2906209D01*
X289837Y2906347D01*
X288867D01*
X286370Y2906209D01*
X284151Y2905793D01*
X282210Y2905376D01*
X280684Y2904822D01*
X279297Y2904128D01*
X278327Y2903712D01*
X277633Y2903296D01*
X277494Y2903158D01*
X275830Y2901771D01*
X274305Y2900245D01*
X272918Y2898720D01*
X271808Y2897055D01*
X270838Y2895669D01*
X270006Y2894559D01*
X269590Y2893727D01*
X269451Y2893588D01*
Y2893450D01*
X268619Y2891924D01*
X267925Y2890676D01*
X267093Y2889566D01*
X266538Y2888734D01*
X265984Y2888041D01*
X265568Y2887625D01*
X265429Y2887348D01*
X265290Y2887209D01*
X264458Y2886654D01*
X263487Y2886238D01*
X261407Y2885683D01*
X260575Y2885545D01*
X259882Y2885406D01*
X259188D01*
X257801Y2885545D01*
X256553Y2885822D01*
X255444Y2886238D01*
X254473Y2886793D01*
X253780Y2887348D01*
X253225Y2887764D01*
X252947Y2888041D01*
X252809Y2888180D01*
X251977Y2889289D01*
X251283Y2890399D01*
X250867Y2891369D01*
X250451Y2892479D01*
X250312Y2893311D01*
X250174Y2894004D01*
Y2894420D01*
Y2894559D01*
X250312Y2896917D01*
X250867Y2899136D01*
X251699Y2901355D01*
X252531Y2903296D01*
X253502Y2904960D01*
X254196Y2906347D01*
X254750Y2907179D01*
X255028Y2907318D01*
Y2907457D01*
X256969Y2909953D01*
X259188Y2912172D01*
X261407Y2914114D01*
X263626Y2915639D01*
X265706Y2917026D01*
X267232Y2917997D01*
X267925Y2918413D01*
X268341Y2918690D01*
X268619Y2918829D01*
X268757D01*
X272224Y2920354D01*
X275692Y2921464D01*
X279020Y2922296D01*
X282210Y2922851D01*
X283597Y2922989D01*
X284983Y2923128D01*
X286093Y2923267D01*
X287064Y2923405D01*
X289005D01*
X292472Y2923267D01*
D02*
G37*
G36*
X196503D02*
X199693Y2922851D01*
X202744Y2922296D01*
X205379Y2921741D01*
X207459Y2921186D01*
X208430Y2920909D01*
X209262Y2920632D01*
X209817Y2920354D01*
X210233Y2920216D01*
X210510Y2920077D01*
X210649D01*
X213561Y2918690D01*
X216335Y2917165D01*
X218692Y2915500D01*
X220911Y2913975D01*
X222576Y2912588D01*
X223824Y2911479D01*
X224656Y2910646D01*
X224795Y2910508D01*
X224933Y2910369D01*
X227014Y2907873D01*
X228955Y2905238D01*
X230619Y2902741D01*
X231867Y2900384D01*
X232838Y2898304D01*
X233254Y2897333D01*
X233670Y2896639D01*
X233948Y2895946D01*
X234086Y2895530D01*
X234225Y2895253D01*
Y2895114D01*
X235335Y2891647D01*
X236028Y2888180D01*
X236583Y2884851D01*
X236999Y2881800D01*
X237137Y2880275D01*
X237276Y2879026D01*
Y2877917D01*
X237415Y2876946D01*
Y2876114D01*
Y2875559D01*
Y2875143D01*
Y2875005D01*
Y2872508D01*
X237276Y2870012D01*
X236999Y2867793D01*
X236721Y2865852D01*
X236583Y2864326D01*
X236305Y2863078D01*
X236167Y2862246D01*
Y2862107D01*
Y2861968D01*
X235612Y2859749D01*
X235057Y2857530D01*
X234364Y2855589D01*
X233809Y2853925D01*
X233116Y2852399D01*
X232700Y2851290D01*
X232422Y2850596D01*
X232284Y2850319D01*
X231313Y2848377D01*
X230203Y2846713D01*
X229232Y2845188D01*
X228262Y2843939D01*
X227568Y2842969D01*
X226875Y2842137D01*
X226459Y2841721D01*
X226320Y2841582D01*
X224656Y2839502D01*
X222992Y2837699D01*
X221327Y2836173D01*
X219941Y2834925D01*
X218692Y2833954D01*
X217722Y2833261D01*
X217167Y2832845D01*
X216890Y2832706D01*
X214948Y2831597D01*
X213006Y2830764D01*
X211204Y2830071D01*
X209539Y2829378D01*
X208014Y2828962D01*
X206904Y2828684D01*
X206211Y2828407D01*
X205934D01*
X201218Y2827575D01*
X198999Y2827297D01*
X196919Y2827159D01*
X195116D01*
X193729Y2827020D01*
X192481D01*
X189014Y2827159D01*
X185686Y2827436D01*
X182773Y2827991D01*
X180277Y2828546D01*
X178197Y2829100D01*
X177365Y2829378D01*
X176671Y2829655D01*
X176116Y2829794D01*
X175700Y2829932D01*
X175562Y2830071D01*
X175423D01*
X172788Y2831319D01*
X170292Y2832706D01*
X168211Y2834093D01*
X166547Y2835341D01*
X165160Y2836451D01*
X164051Y2837421D01*
X163496Y2837976D01*
X163219Y2838253D01*
X161555Y2840195D01*
X160029Y2841998D01*
X158781Y2843801D01*
X157810Y2845326D01*
X157117Y2846713D01*
X156562Y2847823D01*
X156285Y2848377D01*
X156146Y2848655D01*
X155453Y2850596D01*
X154898Y2852399D01*
X154482Y2854063D01*
X154204Y2855450D01*
X154066Y2856698D01*
X153927Y2857530D01*
Y2858224D01*
Y2858363D01*
X154066Y2859749D01*
X154343Y2860998D01*
X154759Y2862107D01*
X155314Y2863078D01*
X155869Y2863910D01*
X156285Y2864465D01*
X156562Y2864742D01*
X156701Y2864881D01*
X157810Y2865852D01*
X158920Y2866545D01*
X160029Y2866961D01*
X161000Y2867377D01*
X161971Y2867516D01*
X162664Y2867654D01*
X163358D01*
X164883Y2867516D01*
X166270Y2867238D01*
X167379Y2866822D01*
X168211Y2866406D01*
X168905Y2865852D01*
X169321Y2865435D01*
X169598Y2865158D01*
X169737Y2865019D01*
X170985Y2862939D01*
X172095Y2860998D01*
X172372Y2860304D01*
X172649Y2859611D01*
X172927Y2859195D01*
Y2859056D01*
X174036Y2856421D01*
X175284Y2854063D01*
X176671Y2852122D01*
X177919Y2850458D01*
X179029Y2849209D01*
X180000Y2848377D01*
X180554Y2847823D01*
X180832Y2847684D01*
X182912Y2846436D01*
X184992Y2845604D01*
X187073Y2844910D01*
X189014Y2844494D01*
X190817Y2844217D01*
X192204Y2844078D01*
X193452D01*
X195948Y2844217D01*
X198306Y2844633D01*
X200248Y2845049D01*
X202050Y2845742D01*
X203576Y2846297D01*
X204547Y2846713D01*
X205240Y2847129D01*
X205517Y2847268D01*
X207320Y2848655D01*
X208846Y2850180D01*
X210233Y2851844D01*
X211342Y2853370D01*
X212313Y2854895D01*
X212868Y2856005D01*
X213284Y2856837D01*
X213422Y2856976D01*
Y2857114D01*
X214393Y2859749D01*
X215087Y2862662D01*
X215503Y2865574D01*
X215780Y2868348D01*
X216057Y2870705D01*
Y2871815D01*
X216196Y2872647D01*
Y2873479D01*
Y2874034D01*
Y2874311D01*
Y2874450D01*
X216057Y2877224D01*
X215919Y2879859D01*
X215641Y2882355D01*
X215225Y2884574D01*
X214671Y2886793D01*
X214116Y2888734D01*
X213561Y2890399D01*
X213006Y2892063D01*
X212452Y2893450D01*
X211897Y2894698D01*
X211342Y2895669D01*
X210787Y2896501D01*
X210371Y2897194D01*
X210094Y2897610D01*
X209817Y2897888D01*
Y2898026D01*
X208569Y2899552D01*
X207320Y2900800D01*
X205934Y2901909D01*
X204408Y2902880D01*
X203021Y2903712D01*
X201634Y2904267D01*
X198999Y2905376D01*
X196503Y2905931D01*
X195532Y2906070D01*
X194700Y2906209D01*
X193868Y2906347D01*
X192897D01*
X190401Y2906209D01*
X188182Y2905793D01*
X186240Y2905376D01*
X184715Y2904822D01*
X183328Y2904128D01*
X182357Y2903712D01*
X181664Y2903296D01*
X181525Y2903158D01*
X179861Y2901771D01*
X178335Y2900245D01*
X176949Y2898720D01*
X175839Y2897055D01*
X174868Y2895669D01*
X174036Y2894559D01*
X173620Y2893727D01*
X173481Y2893588D01*
Y2893450D01*
X172649Y2891924D01*
X171956Y2890676D01*
X171124Y2889566D01*
X170569Y2888734D01*
X170014Y2888041D01*
X169598Y2887625D01*
X169460Y2887348D01*
X169321Y2887209D01*
X168489Y2886654D01*
X167518Y2886238D01*
X165438Y2885683D01*
X164606Y2885545D01*
X163912Y2885406D01*
X163219D01*
X161832Y2885545D01*
X160584Y2885822D01*
X159474Y2886238D01*
X158504Y2886793D01*
X157810Y2887348D01*
X157255Y2887764D01*
X156978Y2888041D01*
X156839Y2888180D01*
X156007Y2889289D01*
X155314Y2890399D01*
X154898Y2891369D01*
X154482Y2892479D01*
X154343Y2893311D01*
X154204Y2894004D01*
Y2894420D01*
Y2894559D01*
X154343Y2896917D01*
X154898Y2899136D01*
X155730Y2901355D01*
X156562Y2903296D01*
X157533Y2904960D01*
X158226Y2906347D01*
X158781Y2907179D01*
X159058Y2907318D01*
Y2907457D01*
X161000Y2909953D01*
X163219Y2912172D01*
X165438Y2914114D01*
X167657Y2915639D01*
X169737Y2917026D01*
X171263Y2917997D01*
X171956Y2918413D01*
X172372Y2918690D01*
X172649Y2918829D01*
X172788D01*
X176255Y2920354D01*
X179722Y2921464D01*
X183051Y2922296D01*
X186240Y2922851D01*
X187627Y2922989D01*
X189014Y2923128D01*
X190124Y2923267D01*
X191094Y2923405D01*
X193036D01*
X196503Y2923267D01*
D02*
G37*
G36*
X579249Y2924247D02*
X580497Y2924108D01*
X581606Y2923692D01*
X582577Y2923415D01*
X583409Y2922998D01*
X583964Y2922582D01*
X584380Y2922444D01*
X584519Y2922305D01*
X585628Y2921473D01*
X586460Y2920641D01*
X587292Y2919809D01*
X587847Y2918838D01*
X588402Y2918145D01*
X588679Y2917451D01*
X588818Y2917035D01*
X588957Y2916896D01*
X589234Y2915926D01*
X589511Y2914677D01*
X589789Y2912320D01*
X589927Y2911349D01*
Y2910517D01*
Y2909962D01*
Y2909685D01*
Y2839649D01*
X589789Y2837708D01*
X589511Y2835905D01*
X589095Y2834518D01*
X588541Y2833270D01*
X588125Y2832299D01*
X587709Y2831606D01*
X587431Y2831190D01*
X587292Y2831051D01*
X586183Y2830080D01*
X585074Y2829248D01*
X583825Y2828693D01*
X582716Y2828416D01*
X581606Y2828139D01*
X580774Y2828000D01*
X580081D01*
X578555Y2828139D01*
X577169Y2828416D01*
X575920Y2828971D01*
X574950Y2829525D01*
X574117Y2830080D01*
X573563Y2830635D01*
X573147Y2830912D01*
X573008Y2831051D01*
X572037Y2832299D01*
X571344Y2833686D01*
X570789Y2835211D01*
X570512Y2836598D01*
X570234Y2837846D01*
X570096Y2838817D01*
Y2839511D01*
Y2839788D01*
Y2891795D01*
X537921Y2839095D01*
X536811Y2837430D01*
X535841Y2836044D01*
X535425Y2835489D01*
X535286Y2835073D01*
X535009Y2834934D01*
Y2834795D01*
X533899Y2833409D01*
X532790Y2832299D01*
X531958Y2831467D01*
X531819Y2831328D01*
X531680Y2831190D01*
X530293Y2830080D01*
X528906Y2829387D01*
X528352Y2829109D01*
X528074Y2828971D01*
X527797Y2828832D01*
X527658D01*
X525994Y2828416D01*
X524330Y2828139D01*
X523636Y2828000D01*
X522666D01*
X520724Y2828139D01*
X518921Y2828555D01*
X517396Y2829248D01*
X516148Y2830080D01*
X515038Y2831051D01*
X514067Y2832160D01*
X513374Y2833409D01*
X512680Y2834657D01*
X511848Y2837014D01*
X511571Y2838124D01*
X511432Y2839095D01*
Y2839927D01*
X511294Y2840620D01*
Y2841036D01*
Y2841175D01*
Y2912597D01*
X511432Y2914677D01*
X511710Y2916342D01*
X512126Y2917867D01*
X512680Y2919115D01*
X513235Y2920086D01*
X513651Y2920780D01*
X513929Y2921196D01*
X514067Y2921334D01*
X515177Y2922305D01*
X516286Y2923137D01*
X517534Y2923692D01*
X518644Y2923969D01*
X519753Y2924247D01*
X520585Y2924385D01*
X521279D01*
X522804Y2924247D01*
X524191Y2923969D01*
X525439Y2923415D01*
X526410Y2922860D01*
X527242Y2922305D01*
X527797Y2921750D01*
X528213Y2921473D01*
X528352Y2921334D01*
X529184Y2920086D01*
X529739Y2918699D01*
X530293Y2917174D01*
X530571Y2915787D01*
X530709Y2914539D01*
X530848Y2913568D01*
Y2912875D01*
Y2912597D01*
Y2859897D01*
X563716Y2912458D01*
X564826Y2914261D01*
X565796Y2915787D01*
X566212Y2916342D01*
X566490Y2916758D01*
X566767Y2917035D01*
Y2917174D01*
X567738Y2918699D01*
X568709Y2919947D01*
X569402Y2920641D01*
X569541Y2920918D01*
X569680D01*
X570928Y2921889D01*
X572037Y2922721D01*
X572869Y2923276D01*
X573147Y2923415D01*
X573285D01*
X574811Y2923969D01*
X576336Y2924247D01*
X577030Y2924385D01*
X578001D01*
X579249Y2924247D01*
D02*
G37*
G36*
X666897Y2922582D02*
X668145Y2922444D01*
X669116Y2922166D01*
X669948Y2921889D01*
X670503Y2921750D01*
X670919Y2921473D01*
X671058D01*
X672028Y2920918D01*
X672860Y2920363D01*
X674109Y2918977D01*
X674663Y2918283D01*
X674941Y2917728D01*
X675079Y2917451D01*
X675218Y2917312D01*
X675634Y2916203D01*
X675912Y2915093D01*
X676328Y2912736D01*
Y2911765D01*
X676466Y2910933D01*
Y2910378D01*
Y2910240D01*
Y2842007D01*
X676328Y2839788D01*
X676050Y2837708D01*
X675495Y2836182D01*
X674941Y2834795D01*
X674525Y2833686D01*
X673970Y2832993D01*
X673693Y2832577D01*
X673554Y2832438D01*
X672306Y2831467D01*
X670780Y2830774D01*
X669255Y2830219D01*
X667729Y2829942D01*
X666342Y2829664D01*
X665233Y2829525D01*
X614058D01*
X612394Y2829664D01*
X610869Y2829942D01*
X609621Y2830219D01*
X608511Y2830774D01*
X607679Y2831190D01*
X606986Y2831467D01*
X606708Y2831744D01*
X606570Y2831883D01*
X605737Y2832854D01*
X605044Y2833825D01*
X604628Y2834795D01*
X604212Y2835766D01*
X604073Y2836737D01*
X603935Y2837430D01*
Y2837846D01*
Y2837985D01*
X604073Y2839372D01*
X604351Y2840481D01*
X604767Y2841591D01*
X605183Y2842423D01*
X605737Y2843116D01*
X606153Y2843671D01*
X606431Y2843949D01*
X606570Y2844087D01*
X607679Y2844919D01*
X608788Y2845474D01*
X610037Y2846029D01*
X611285Y2846306D01*
X612394Y2846445D01*
X613226Y2846584D01*
X655525D01*
Y2870021D01*
X618774D01*
X617110Y2870160D01*
X615584Y2870437D01*
X614336Y2870715D01*
X613365Y2871131D01*
X612533Y2871547D01*
X611978Y2871963D01*
X611701Y2872101D01*
X611562Y2872240D01*
X610730Y2873211D01*
X610175Y2874182D01*
X609621Y2875152D01*
X609343Y2876123D01*
X609205Y2876955D01*
X609066Y2877649D01*
Y2878065D01*
Y2878204D01*
X609205Y2879452D01*
X609482Y2880700D01*
X609898Y2881671D01*
X610314Y2882503D01*
X610730Y2883196D01*
X611146Y2883612D01*
X611423Y2883890D01*
X611562Y2884028D01*
X612533Y2884860D01*
X613781Y2885415D01*
X614891Y2885831D01*
X616139Y2886109D01*
X617110Y2886247D01*
X617942Y2886386D01*
X655525D01*
Y2906218D01*
X615584D01*
X613781Y2906356D01*
X612256Y2906634D01*
X611007Y2906911D01*
X609898Y2907327D01*
X609205Y2907743D01*
X608511Y2908159D01*
X608234Y2908298D01*
X608095Y2908437D01*
X607263Y2909407D01*
X606570Y2910378D01*
X606153Y2911349D01*
X605737Y2912320D01*
X605599Y2913291D01*
X605460Y2913984D01*
Y2914400D01*
Y2914539D01*
X605599Y2915787D01*
X605876Y2917035D01*
X606292Y2918006D01*
X606708Y2918838D01*
X607263Y2919531D01*
X607679Y2920086D01*
X607956Y2920363D01*
X608095Y2920502D01*
X609066Y2921334D01*
X610314Y2921889D01*
X611562Y2922305D01*
X612810Y2922582D01*
X613920Y2922721D01*
X614752Y2922860D01*
X665649D01*
X666897Y2922582D01*
D02*
G37*
G36*
X314939Y2722607D02*
X316187Y2722468D01*
X317297Y2722052D01*
X318268Y2721775D01*
X319100Y2721359D01*
X319654Y2720942D01*
X320070Y2720804D01*
X320209Y2720665D01*
X321319Y2719833D01*
X322151Y2719001D01*
X322983Y2718169D01*
X323538Y2717198D01*
X324092Y2716505D01*
X324370Y2715811D01*
X324508Y2715395D01*
X324647Y2715256D01*
X324924Y2714286D01*
X325202Y2713038D01*
X325479Y2710680D01*
X325618Y2709709D01*
Y2708877D01*
Y2708322D01*
Y2708045D01*
Y2638009D01*
X325479Y2636068D01*
X325202Y2634265D01*
X324786Y2632878D01*
X324231Y2631630D01*
X323815Y2630659D01*
X323399Y2629966D01*
X323122Y2629550D01*
X322983Y2629411D01*
X321873Y2628440D01*
X320764Y2627608D01*
X319516Y2627053D01*
X318406Y2626776D01*
X317297Y2626499D01*
X316465Y2626360D01*
X315771D01*
X314246Y2626499D01*
X312859Y2626776D01*
X311611Y2627331D01*
X310640Y2627886D01*
X309808Y2628440D01*
X309253Y2628995D01*
X308837Y2629272D01*
X308698Y2629411D01*
X307728Y2630659D01*
X307034Y2632046D01*
X306479Y2633572D01*
X306202Y2634958D01*
X305925Y2636207D01*
X305786Y2637177D01*
Y2637871D01*
Y2638148D01*
Y2690155D01*
X273611Y2637455D01*
X272502Y2635791D01*
X271531Y2634404D01*
X271115Y2633849D01*
X270976Y2633433D01*
X270699Y2633294D01*
Y2633156D01*
X269590Y2631769D01*
X268480Y2630659D01*
X267648Y2629827D01*
X267509Y2629688D01*
X267371Y2629550D01*
X265984Y2628440D01*
X264597Y2627747D01*
X264042Y2627469D01*
X263765Y2627331D01*
X263487Y2627192D01*
X263349D01*
X261685Y2626776D01*
X260020Y2626499D01*
X259327Y2626360D01*
X258356D01*
X256415Y2626499D01*
X254612Y2626915D01*
X253086Y2627608D01*
X251838Y2628440D01*
X250728Y2629411D01*
X249758Y2630521D01*
X249064Y2631769D01*
X248371Y2633017D01*
X247539Y2635374D01*
X247261Y2636484D01*
X247123Y2637455D01*
Y2638287D01*
X246984Y2638980D01*
Y2639396D01*
Y2639535D01*
Y2710957D01*
X247123Y2713038D01*
X247400Y2714702D01*
X247816Y2716227D01*
X248371Y2717475D01*
X248926Y2718446D01*
X249342Y2719140D01*
X249619Y2719556D01*
X249758Y2719694D01*
X250867Y2720665D01*
X251977Y2721497D01*
X253225Y2722052D01*
X254334Y2722329D01*
X255444Y2722607D01*
X256276Y2722745D01*
X256969D01*
X258495Y2722607D01*
X259882Y2722329D01*
X261130Y2721775D01*
X262101Y2721220D01*
X262933Y2720665D01*
X263487Y2720110D01*
X263903Y2719833D01*
X264042Y2719694D01*
X264874Y2718446D01*
X265429Y2717059D01*
X265984Y2715534D01*
X266261Y2714147D01*
X266400Y2712899D01*
X266538Y2711928D01*
Y2711235D01*
Y2710957D01*
Y2658257D01*
X299407Y2710819D01*
X300516Y2712621D01*
X301487Y2714147D01*
X301903Y2714702D01*
X302180Y2715118D01*
X302458Y2715395D01*
Y2715534D01*
X303428Y2717059D01*
X304399Y2718307D01*
X305093Y2719001D01*
X305231Y2719278D01*
X305370D01*
X306618Y2720249D01*
X307728Y2721081D01*
X308560Y2721636D01*
X308837Y2721775D01*
X308976D01*
X310501Y2722329D01*
X312027Y2722607D01*
X312720Y2722745D01*
X313691D01*
X314939Y2722607D01*
D02*
G37*
G36*
X387887D02*
X391770Y2722191D01*
X395237Y2721636D01*
X398150Y2721081D01*
X399536Y2720665D01*
X400646Y2720388D01*
X401617Y2720110D01*
X402587Y2719833D01*
X403142Y2719556D01*
X403697Y2719417D01*
X403974Y2719278D01*
X404113D01*
X407303Y2717891D01*
X410354Y2716366D01*
X412989Y2714702D01*
X415208Y2713176D01*
X417011Y2711789D01*
X418397Y2710680D01*
X419230Y2709848D01*
X419368Y2709709D01*
X419507Y2709570D01*
X421726Y2707074D01*
X423667Y2704578D01*
X425193Y2701943D01*
X426580Y2699585D01*
X427551Y2697505D01*
X427967Y2696534D01*
X428383Y2695841D01*
X428660Y2695147D01*
X428799Y2694731D01*
X428937Y2694454D01*
Y2694315D01*
X430047Y2690848D01*
X430740Y2687381D01*
X431295Y2684053D01*
X431711Y2681001D01*
X431850Y2679615D01*
X431988Y2678366D01*
Y2677257D01*
X432127Y2676286D01*
Y2675593D01*
Y2675038D01*
Y2674622D01*
Y2674483D01*
X431988Y2670462D01*
X431572Y2666717D01*
X431018Y2663389D01*
X430463Y2660338D01*
X430186Y2659089D01*
X429908Y2657980D01*
X429631Y2657009D01*
X429353Y2656038D01*
X429076Y2655484D01*
X428937Y2654929D01*
X428799Y2654652D01*
Y2654513D01*
X427412Y2651323D01*
X425886Y2648272D01*
X424361Y2645637D01*
X422697Y2643418D01*
X421310Y2641615D01*
X420200Y2640228D01*
X419507Y2639396D01*
X419230Y2639258D01*
Y2639119D01*
X416733Y2636900D01*
X414237Y2634958D01*
X411741Y2633294D01*
X409383Y2632046D01*
X407303Y2630937D01*
X406471Y2630521D01*
X405777Y2630104D01*
X405084Y2629966D01*
X404668Y2629688D01*
X404390Y2629550D01*
X404252D01*
X400923Y2628440D01*
X397456Y2627747D01*
X394128Y2627192D01*
X391077Y2626776D01*
X389829Y2626637D01*
X388580Y2626499D01*
X387471D01*
X386500Y2626360D01*
X384697D01*
X381369Y2626499D01*
X378179Y2626637D01*
X375267Y2627053D01*
X372770Y2627469D01*
X370690Y2627747D01*
X369858Y2628024D01*
X369165Y2628163D01*
X368610Y2628302D01*
X368194D01*
X367916Y2628440D01*
X367778D01*
X364865Y2629272D01*
X361953Y2630382D01*
X359179Y2631353D01*
X356683Y2632462D01*
X354603Y2633433D01*
X353771Y2633849D01*
X352939Y2634265D01*
X352384Y2634542D01*
X351968Y2634820D01*
X351690Y2634958D01*
X351552D01*
X349471Y2636207D01*
X348639Y2636761D01*
X347946Y2637316D01*
X347391Y2637732D01*
X346836Y2638148D01*
X346698Y2638287D01*
X346559Y2638426D01*
X345311Y2639951D01*
X344479Y2641199D01*
X344201Y2641754D01*
X343924Y2642170D01*
X343785Y2642447D01*
Y2642586D01*
X343231Y2644528D01*
X343092Y2646469D01*
X342953Y2647301D01*
Y2647995D01*
Y2648411D01*
Y2648549D01*
Y2665885D01*
X343092Y2667688D01*
X343231Y2669213D01*
X343508Y2670600D01*
X343924Y2671710D01*
X344340Y2672542D01*
X344618Y2673097D01*
X344756Y2673513D01*
X344895Y2673651D01*
X345727Y2674622D01*
X346420Y2675454D01*
X347391Y2676009D01*
X348085Y2676564D01*
X348778Y2676841D01*
X349333Y2677118D01*
X349749Y2677257D01*
X349888D01*
X352245Y2677812D01*
X353355Y2677950D01*
X354464D01*
X355435Y2678089D01*
X377624D01*
X379150Y2677950D01*
X380537Y2677673D01*
X381646Y2677396D01*
X382756Y2676980D01*
X383449Y2676425D01*
X384142Y2676148D01*
X384420Y2675870D01*
X384559Y2675732D01*
X385391Y2674761D01*
X385945Y2673790D01*
X386500Y2672819D01*
X386777Y2671848D01*
X386916Y2671016D01*
X387055Y2670323D01*
Y2669907D01*
Y2669768D01*
X386916Y2668243D01*
X386639Y2666994D01*
X386084Y2665885D01*
X385529Y2665053D01*
X384975Y2664359D01*
X384420Y2663943D01*
X384142Y2663666D01*
X384004Y2663527D01*
X382756Y2662973D01*
X381369Y2662557D01*
X379982Y2662140D01*
X378595Y2662002D01*
X377347Y2661863D01*
X376376Y2661724D01*
X362369D01*
Y2648965D01*
X366114Y2647163D01*
X367916Y2646469D01*
X369581Y2645776D01*
X370968Y2645360D01*
X371938Y2644944D01*
X372632Y2644805D01*
X372909Y2644666D01*
X374989Y2644112D01*
X377070Y2643834D01*
X379011Y2643557D01*
X380814Y2643279D01*
X382340D01*
X383449Y2643141D01*
X384559D01*
X386777Y2643279D01*
X388996Y2643557D01*
X390938Y2643834D01*
X392880Y2644389D01*
X394544Y2644944D01*
X396208Y2645637D01*
X397595Y2646469D01*
X398982Y2647163D01*
X400091Y2647856D01*
X401062Y2648688D01*
X402033Y2649382D01*
X402726Y2649936D01*
X403281Y2650491D01*
X403697Y2650907D01*
X403836Y2651046D01*
X403974Y2651184D01*
X405222Y2652849D01*
X406193Y2654513D01*
X407164Y2656454D01*
X407996Y2658396D01*
X409244Y2662279D01*
X410076Y2666162D01*
X410354Y2667965D01*
X410492Y2669629D01*
X410631Y2671155D01*
X410770Y2672403D01*
X410908Y2673513D01*
Y2674345D01*
Y2674899D01*
Y2675038D01*
X410770Y2677673D01*
X410631Y2680169D01*
X410354Y2682388D01*
X409938Y2684330D01*
X409660Y2685855D01*
X409383Y2687104D01*
X409244Y2687797D01*
X409106Y2688074D01*
X408412Y2690155D01*
X407580Y2692096D01*
X406748Y2693760D01*
X405916Y2695286D01*
X405084Y2696395D01*
X404529Y2697228D01*
X404113Y2697782D01*
X403974Y2697921D01*
X402587Y2699308D01*
X401201Y2700556D01*
X399814Y2701665D01*
X398566Y2702498D01*
X397456Y2703191D01*
X396624Y2703607D01*
X395931Y2703884D01*
X395792Y2704023D01*
X393989Y2704716D01*
X392047Y2705271D01*
X390245Y2705549D01*
X388580Y2705826D01*
X387194Y2705965D01*
X385945Y2706103D01*
X384975D01*
X382894Y2705965D01*
X380953Y2705826D01*
X379427Y2705549D01*
X378040Y2705271D01*
X376931Y2704855D01*
X376099Y2704578D01*
X375544Y2704439D01*
X375405Y2704300D01*
X374019Y2703607D01*
X372909Y2702914D01*
X371800Y2702081D01*
X370968Y2701388D01*
X370274Y2700833D01*
X369858Y2700279D01*
X369581Y2700001D01*
X369442Y2699863D01*
X368471Y2698753D01*
X367500Y2697644D01*
X365698Y2695009D01*
X364865Y2693899D01*
X364311Y2692928D01*
X363895Y2692374D01*
X363756Y2692096D01*
X362646Y2690848D01*
X361537Y2689877D01*
X360566Y2689323D01*
X360428Y2689045D01*
X360289D01*
X358763Y2688352D01*
X357238Y2688074D01*
X356683Y2687936D01*
X355851D01*
X354325Y2688074D01*
X352939Y2688352D01*
X351829Y2688768D01*
X350720Y2689323D01*
X349888Y2689877D01*
X349333Y2690293D01*
X348917Y2690571D01*
X348778Y2690709D01*
X347807Y2691819D01*
X347114Y2693067D01*
X346559Y2694176D01*
X346282Y2695286D01*
X346004Y2696257D01*
X345866Y2696950D01*
Y2697505D01*
Y2697644D01*
X346004Y2699030D01*
X346282Y2700279D01*
X346559Y2701665D01*
X346975Y2702775D01*
X347530Y2703884D01*
X347807Y2704716D01*
X348085Y2705271D01*
X348223Y2705410D01*
X349194Y2707074D01*
X350304Y2708600D01*
X351413Y2709986D01*
X352523Y2711235D01*
X353493Y2712205D01*
X354325Y2713038D01*
X354880Y2713592D01*
X355158Y2713731D01*
X356960Y2715118D01*
X358902Y2716366D01*
X360982Y2717475D01*
X362785Y2718446D01*
X364449Y2719140D01*
X365836Y2719694D01*
X366391Y2719833D01*
X366807Y2719972D01*
X366946Y2720110D01*
X367084D01*
X369858Y2720942D01*
X372770Y2721636D01*
X375544Y2722052D01*
X378040Y2722468D01*
X380398Y2722607D01*
X381369D01*
X382201Y2722745D01*
X383726D01*
X387887Y2722607D01*
D02*
G37*
G36*
X217028Y2721081D02*
X218970Y2720804D01*
X220634Y2720249D01*
X221882Y2719694D01*
X222992Y2719140D01*
X223685Y2718585D01*
X224101Y2718307D01*
X224240Y2718169D01*
X225211Y2716921D01*
X225904Y2715395D01*
X226459Y2713870D01*
X226736Y2712205D01*
X227014Y2710819D01*
X227152Y2709709D01*
Y2708877D01*
Y2708738D01*
Y2708600D01*
Y2642031D01*
Y2640367D01*
X227014Y2638980D01*
X226875Y2637593D01*
X226736Y2636484D01*
X226597Y2635652D01*
X226459Y2634958D01*
X226320Y2634542D01*
Y2634404D01*
X225904Y2633294D01*
X225349Y2632323D01*
X224795Y2631491D01*
X224101Y2630798D01*
X223546Y2630243D01*
X222992Y2629827D01*
X222714Y2629688D01*
X222576Y2629550D01*
X221327Y2628995D01*
X220079Y2628579D01*
X217444Y2628163D01*
X216196Y2628024D01*
X215225Y2627886D01*
X188043D01*
X185824Y2628024D01*
X183883Y2628163D01*
X182219Y2628302D01*
X180832D01*
X179722Y2628440D01*
X179168Y2628579D01*
X178890D01*
X176949Y2628995D01*
X175284Y2629411D01*
X173620Y2629827D01*
X172233Y2630382D01*
X170985Y2630798D01*
X170153Y2631214D01*
X169460Y2631353D01*
X169321Y2631491D01*
X167657Y2632323D01*
X165993Y2633294D01*
X164467Y2634404D01*
X163219Y2635374D01*
X162109Y2636207D01*
X161139Y2636900D01*
X160584Y2637455D01*
X160445Y2637593D01*
X158920Y2639119D01*
X157533Y2640644D01*
X156285Y2642309D01*
X155175Y2643834D01*
X154343Y2645082D01*
X153650Y2646053D01*
X153234Y2646747D01*
X153095Y2647024D01*
X151985Y2649104D01*
X151153Y2651323D01*
X150321Y2653403D01*
X149628Y2655345D01*
X149212Y2657009D01*
X148796Y2658396D01*
X148518Y2659228D01*
Y2659367D01*
Y2659505D01*
X147964Y2662140D01*
X147686Y2664775D01*
X147409Y2667410D01*
X147132Y2669768D01*
Y2671710D01*
X146993Y2673374D01*
Y2673929D01*
Y2674345D01*
Y2674622D01*
Y2674761D01*
X147132Y2679337D01*
X147548Y2683636D01*
X148241Y2687520D01*
X149212Y2691125D01*
X150321Y2694454D01*
X151431Y2697505D01*
X152679Y2700140D01*
X154066Y2702636D01*
X155314Y2704716D01*
X156701Y2706519D01*
X157810Y2708045D01*
X158920Y2709293D01*
X159890Y2710264D01*
X160584Y2710957D01*
X161000Y2711373D01*
X161139Y2711512D01*
X163496Y2713592D01*
X165715Y2715256D01*
X167934Y2716643D01*
X170014Y2717614D01*
X171817Y2718446D01*
X173065Y2718862D01*
X173620Y2719140D01*
X174036D01*
X174175Y2719278D01*
X174314D01*
X176949Y2719972D01*
X179861Y2720388D01*
X182635Y2720804D01*
X185131Y2720942D01*
X187350Y2721081D01*
X188321Y2721220D01*
X214809D01*
X217028Y2721081D01*
D02*
G37*
G36*
X224448Y2523516D02*
X227776Y2522961D01*
X230689Y2522268D01*
X233185Y2521297D01*
X235265Y2520326D01*
X236097Y2519910D01*
X236929Y2519633D01*
X237484Y2519217D01*
X237900Y2519078D01*
X238039Y2518801D01*
X238178D01*
X240674Y2516859D01*
X242893Y2514640D01*
X244696Y2512421D01*
X246221Y2510202D01*
X247469Y2508261D01*
X248302Y2506596D01*
X248579Y2506042D01*
X248856Y2505626D01*
X248995Y2505348D01*
Y2505210D01*
X249827Y2502852D01*
X250520Y2500494D01*
X251075Y2498137D01*
X251491Y2496056D01*
X251907Y2494254D01*
X252185Y2492728D01*
Y2492173D01*
X252323Y2491757D01*
Y2491619D01*
Y2491480D01*
X252601Y2488568D01*
X252878Y2485655D01*
X253017Y2482743D01*
X253155Y2480108D01*
X253294Y2477889D01*
Y2476918D01*
Y2476086D01*
Y2475393D01*
Y2474838D01*
Y2474560D01*
Y2474422D01*
Y2471787D01*
X253155Y2469152D01*
X253017Y2466933D01*
X252878Y2464853D01*
X252739Y2463188D01*
X252601Y2461940D01*
X252462Y2461108D01*
Y2460969D01*
Y2460831D01*
X252046Y2458473D01*
X251630Y2456393D01*
X251075Y2454313D01*
X250520Y2452510D01*
X250104Y2450984D01*
X249688Y2449875D01*
X249550Y2449181D01*
X249411Y2448904D01*
X247885Y2445575D01*
X246083Y2442524D01*
X244141Y2439889D01*
X242199Y2437809D01*
X240535Y2436006D01*
X239148Y2434758D01*
X238594Y2434342D01*
X238178Y2434065D01*
X238039Y2433787D01*
X237900D01*
X234849Y2431984D01*
X231798Y2430598D01*
X228886Y2429766D01*
X226112Y2429072D01*
X223754Y2428656D01*
X222784Y2428517D01*
X221952D01*
X221258Y2428379D01*
X220287D01*
X217098Y2428517D01*
X214185Y2429072D01*
X211550Y2429627D01*
X209331Y2430459D01*
X207390Y2431152D01*
X206003Y2431846D01*
X205448Y2431984D01*
X205032Y2432262D01*
X204893Y2432401D01*
X204755D01*
X202258Y2434065D01*
X200039Y2436006D01*
X198098Y2437948D01*
X196434Y2439889D01*
X195047Y2441554D01*
X194215Y2442941D01*
X193799Y2443495D01*
X193521Y2443911D01*
X193383Y2444050D01*
Y2444189D01*
X192134Y2446546D01*
X191164Y2448904D01*
X190332Y2451262D01*
X189777Y2453342D01*
X189222Y2455145D01*
X188945Y2456532D01*
X188806Y2457086D01*
X188667Y2457502D01*
Y2457641D01*
Y2457780D01*
X188251Y2460692D01*
X187835Y2463743D01*
X187558Y2466655D01*
X187419Y2469429D01*
X187281Y2471925D01*
Y2472896D01*
Y2473867D01*
Y2474560D01*
Y2475115D01*
Y2475393D01*
Y2475531D01*
Y2478998D01*
X187419Y2482188D01*
X187697Y2485239D01*
X187974Y2488151D01*
X188390Y2490648D01*
X188806Y2493144D01*
X189222Y2495363D01*
X189638Y2497305D01*
X190193Y2499108D01*
X190609Y2500633D01*
X191025Y2501881D01*
X191302Y2502991D01*
X191718Y2503823D01*
X191857Y2504516D01*
X192134Y2504794D01*
Y2504932D01*
X193244Y2507151D01*
X194353Y2509093D01*
X195602Y2510757D01*
X196572Y2512283D01*
X197543Y2513392D01*
X198375Y2514363D01*
X198930Y2514917D01*
X199069Y2515056D01*
X200733Y2516582D01*
X202397Y2517830D01*
X203923Y2519078D01*
X205448Y2519910D01*
X206835Y2520604D01*
X207806Y2521158D01*
X208499Y2521436D01*
X208777Y2521574D01*
X210857Y2522268D01*
X212937Y2522822D01*
X215017Y2523239D01*
X216820Y2523516D01*
X218484Y2523655D01*
X219733Y2523793D01*
X220842D01*
X224448Y2523516D01*
D02*
G37*
G36*
X383241Y2524487D02*
X384628Y2524071D01*
X386015Y2523655D01*
X386986Y2523100D01*
X387956Y2522406D01*
X388511Y2521990D01*
X388927Y2521574D01*
X389066Y2521436D01*
X390037Y2520187D01*
X390730Y2518662D01*
X391146Y2517136D01*
X391423Y2515611D01*
X391701Y2514224D01*
X391839Y2513115D01*
Y2512421D01*
Y2512283D01*
Y2512144D01*
Y2440583D01*
X391701Y2438503D01*
X391423Y2436561D01*
X391007Y2434897D01*
X390453Y2433649D01*
X389898Y2432678D01*
X389482Y2431846D01*
X389204Y2431430D01*
X389066Y2431291D01*
X387956Y2430320D01*
X386708Y2429488D01*
X385460Y2428933D01*
X384212Y2428656D01*
X383241Y2428379D01*
X382270Y2428240D01*
X381577D01*
X379913Y2428379D01*
X378387Y2428656D01*
X377139Y2429211D01*
X376029Y2429766D01*
X375059Y2430320D01*
X374504Y2430875D01*
X374088Y2431152D01*
X373949Y2431291D01*
X372978Y2432678D01*
X372146Y2434065D01*
X371592Y2435590D01*
X371314Y2437116D01*
X371037Y2438503D01*
X370898Y2439612D01*
Y2440306D01*
Y2440583D01*
Y2512144D01*
X371037Y2514363D01*
X371314Y2516166D01*
X371869Y2517830D01*
X372424Y2519078D01*
X372978Y2520049D01*
X373533Y2520881D01*
X373811Y2521297D01*
X373949Y2521436D01*
X375059Y2522545D01*
X376307Y2523239D01*
X377694Y2523793D01*
X378803Y2524209D01*
X379913Y2524487D01*
X380745Y2524625D01*
X381577D01*
X383241Y2524487D01*
D02*
G37*
G36*
X314731D02*
X318337Y2524071D01*
X321527Y2523516D01*
X324439Y2522961D01*
X325687Y2522545D01*
X326797Y2522268D01*
X327629Y2521990D01*
X328461Y2521713D01*
X329154Y2521436D01*
X329570Y2521297D01*
X329848Y2521158D01*
X329986D01*
X333037Y2519771D01*
X335672Y2518246D01*
X338169Y2516582D01*
X340249Y2515056D01*
X341913Y2513669D01*
X343161Y2512560D01*
X343993Y2511728D01*
X344132Y2511589D01*
X344271Y2511450D01*
X346351Y2508954D01*
X348154Y2506458D01*
X349680Y2503823D01*
X350928Y2501465D01*
X351898Y2499385D01*
X352315Y2498414D01*
X352592Y2497721D01*
X352869Y2497027D01*
X353008Y2496611D01*
X353147Y2496334D01*
Y2496195D01*
X354117Y2492867D01*
X354950Y2489400D01*
X355504Y2486071D01*
X355782Y2483159D01*
X355920Y2481772D01*
X356059Y2480524D01*
Y2479414D01*
X356198Y2478444D01*
Y2477750D01*
Y2477057D01*
Y2476779D01*
Y2476641D01*
X356059Y2472758D01*
X355782Y2469290D01*
X355227Y2465962D01*
X354672Y2463050D01*
X354533Y2461802D01*
X354256Y2460692D01*
X353979Y2459583D01*
X353701Y2458750D01*
X353563Y2458196D01*
X353424Y2457641D01*
X353285Y2457364D01*
Y2457225D01*
X352037Y2454035D01*
X350650Y2450984D01*
X349263Y2448349D01*
X347877Y2446130D01*
X346490Y2444189D01*
X345519Y2442802D01*
X345103Y2442386D01*
X344826Y2441970D01*
X344548Y2441831D01*
Y2441692D01*
X342191Y2439335D01*
X339833Y2437393D01*
X337475Y2435729D01*
X335118Y2434203D01*
X333176Y2433094D01*
X331512Y2432401D01*
X330957Y2432123D01*
X330541Y2431846D01*
X330264Y2431707D01*
X330125D01*
X326797Y2430598D01*
X323330Y2429766D01*
X320140Y2429072D01*
X317089Y2428656D01*
X315702Y2428517D01*
X314454Y2428379D01*
X313344D01*
X312374Y2428240D01*
X310571D01*
X306549Y2428379D01*
X302804Y2428795D01*
X299476Y2429349D01*
X296564Y2429904D01*
X295315Y2430182D01*
X294206Y2430459D01*
X293374Y2430736D01*
X292542Y2431014D01*
X291848Y2431291D01*
X291432Y2431430D01*
X291155Y2431568D01*
X291016D01*
X287965Y2432955D01*
X285191Y2434619D01*
X282695Y2436284D01*
X280615Y2437809D01*
X278951Y2439335D01*
X277564Y2440444D01*
X276870Y2441276D01*
X276593Y2441415D01*
Y2441554D01*
X274513Y2444189D01*
X272710Y2446824D01*
X271184Y2449320D01*
X269936Y2451816D01*
X268965Y2453897D01*
X268549Y2454729D01*
X268272Y2455422D01*
X267995Y2456115D01*
X267856Y2456532D01*
X267717Y2456809D01*
Y2456948D01*
X266746Y2460276D01*
X265914Y2463743D01*
X265360Y2467072D01*
X265082Y2470123D01*
X264944Y2471371D01*
X264805Y2472619D01*
Y2473728D01*
X264666Y2474699D01*
Y2475531D01*
Y2476086D01*
Y2476363D01*
Y2476502D01*
X264944Y2481772D01*
X265498Y2486487D01*
X265914Y2488706D01*
X266330Y2490786D01*
X266885Y2492728D01*
X267301Y2494531D01*
X267856Y2496195D01*
X268411Y2497582D01*
X268827Y2498830D01*
X269243Y2499801D01*
X269520Y2500633D01*
X269798Y2501188D01*
X270075Y2501604D01*
Y2501743D01*
X272294Y2505626D01*
X274790Y2508954D01*
X277425Y2511866D01*
X280060Y2514363D01*
X282418Y2516166D01*
X283389Y2516998D01*
X284221Y2517552D01*
X285053Y2518107D01*
X285608Y2518385D01*
X285885Y2518662D01*
X286024D01*
X287965Y2519771D01*
X290045Y2520604D01*
X294345Y2522129D01*
X298505Y2523239D01*
X302388Y2523932D01*
X304052Y2524071D01*
X305717Y2524348D01*
X307242Y2524487D01*
X308490D01*
X309461Y2524625D01*
X310848D01*
X314731Y2524487D01*
D02*
G37*
G36*
X579937Y2722607D02*
X581185Y2722329D01*
X582294Y2721913D01*
X583265Y2721497D01*
X583959Y2721081D01*
X584513Y2720665D01*
X584929Y2720388D01*
X585068Y2720249D01*
X586039Y2719278D01*
X586732Y2718446D01*
X587148Y2717475D01*
X587426Y2716643D01*
X587703Y2715811D01*
X587842Y2715256D01*
Y2714840D01*
Y2714702D01*
X587703Y2712621D01*
X587148Y2710680D01*
X587010Y2709986D01*
X586732Y2709432D01*
X586594Y2709016D01*
Y2708877D01*
X585484Y2706797D01*
X584236Y2704855D01*
X583820Y2704162D01*
X583404Y2703607D01*
X583127Y2703191D01*
X582988Y2703052D01*
X565930Y2676425D01*
X585900Y2647440D01*
X587426Y2644944D01*
X588674Y2642725D01*
X589506Y2640644D01*
X590061Y2638842D01*
X590338Y2637455D01*
X590477Y2636345D01*
X590616Y2635791D01*
Y2635513D01*
X590477Y2633988D01*
X590199Y2632601D01*
X589783Y2631353D01*
X589367Y2630521D01*
X588951Y2629688D01*
X588535Y2629134D01*
X588258Y2628856D01*
X588119Y2628718D01*
X587148Y2627886D01*
X586039Y2627331D01*
X584929Y2626915D01*
X583959Y2626637D01*
X583127Y2626499D01*
X582294Y2626360D01*
X581740D01*
X580076Y2626499D01*
X578689Y2626776D01*
X578134Y2626915D01*
X577718Y2627053D01*
X577579Y2627192D01*
X577441D01*
X576054Y2627747D01*
X575083Y2628440D01*
X574528Y2628995D01*
X574251Y2629134D01*
X573280Y2630104D01*
X572725Y2630798D01*
X572309Y2631353D01*
X572171Y2631491D01*
X571755Y2632046D01*
X571477Y2632601D01*
X570645Y2633988D01*
X570229Y2634542D01*
X569952Y2635097D01*
X569674Y2635374D01*
Y2635513D01*
X553310Y2661447D01*
X538054Y2636345D01*
X537222Y2634958D01*
X536390Y2633710D01*
X535835Y2632739D01*
X535281Y2631907D01*
X534865Y2631353D01*
X534587Y2630937D01*
X534310Y2630659D01*
Y2630521D01*
X533200Y2629272D01*
X532230Y2628440D01*
X531259Y2627747D01*
X531120Y2627608D01*
X530981D01*
X529317Y2626915D01*
X527653Y2626499D01*
X526960D01*
X526405Y2626360D01*
X525989D01*
X523909Y2626499D01*
X522383Y2627053D01*
X521690Y2627192D01*
X521274Y2627469D01*
X520996Y2627608D01*
X520857D01*
X519332Y2628579D01*
X518222Y2629688D01*
X517668Y2630521D01*
X517390Y2630659D01*
Y2630798D01*
X516697Y2632462D01*
X516281Y2633849D01*
X516142Y2634542D01*
Y2634958D01*
Y2635236D01*
Y2635374D01*
X516420Y2637316D01*
X516836Y2638980D01*
X517113Y2639674D01*
X517252Y2640228D01*
X517529Y2640506D01*
Y2640644D01*
X518084Y2641754D01*
X518777Y2643002D01*
X520164Y2645360D01*
X520857Y2646469D01*
X521412Y2647301D01*
X521828Y2647856D01*
X521967Y2647995D01*
X540412Y2676286D01*
X522799Y2702498D01*
X521135Y2705133D01*
X519887Y2707490D01*
X519055Y2709570D01*
X518361Y2711235D01*
X518084Y2712621D01*
X517945Y2713592D01*
X517806Y2714286D01*
Y2714424D01*
X517945Y2715672D01*
X518222Y2716782D01*
X518639Y2717753D01*
X519055Y2718585D01*
X519609Y2719278D01*
X520025Y2719833D01*
X520303Y2720110D01*
X520441Y2720249D01*
X521412Y2721081D01*
X522522Y2721636D01*
X523631Y2722191D01*
X524602Y2722468D01*
X525573Y2722607D01*
X526266Y2722745D01*
X526960D01*
X528485Y2722607D01*
X529733Y2722329D01*
X530565Y2722052D01*
X530704Y2721913D01*
X530843D01*
X531952Y2721220D01*
X532923Y2720526D01*
X533616Y2719972D01*
X533894Y2719833D01*
Y2719694D01*
X534865Y2718585D01*
X535697Y2717475D01*
X536251Y2716643D01*
X536529Y2716366D01*
Y2716227D01*
X537500Y2714702D01*
X538193Y2713454D01*
X538609Y2712899D01*
X538748Y2712483D01*
X539025Y2712205D01*
Y2712067D01*
X553032Y2690016D01*
X565514Y2711373D01*
X566901Y2713592D01*
X568010Y2715395D01*
X569120Y2716921D01*
X570090Y2718030D01*
X570784Y2719001D01*
X571338Y2719694D01*
X571616Y2719972D01*
X571755Y2720110D01*
X572725Y2720942D01*
X573835Y2721636D01*
X574944Y2722052D01*
X576054Y2722468D01*
X577024Y2722607D01*
X577857Y2722745D01*
X578550D01*
X579937Y2722607D01*
D02*
G37*
G36*
X663841Y2721081D02*
X665366Y2720804D01*
X666753Y2720388D01*
X667724Y2719972D01*
X668695Y2719556D01*
X669249Y2719140D01*
X669665Y2718862D01*
X669804Y2718724D01*
X670775Y2717753D01*
X671468Y2716782D01*
X671884Y2715672D01*
X672162Y2714563D01*
X672439Y2713592D01*
X672578Y2712899D01*
Y2712344D01*
Y2712205D01*
X672439Y2710819D01*
X672162Y2709570D01*
X671746Y2708461D01*
X671191Y2707490D01*
X670775Y2706797D01*
X670359Y2706242D01*
X670081Y2705965D01*
X669943Y2705826D01*
X668833Y2704994D01*
X667585Y2704439D01*
X666337Y2704023D01*
X664950Y2703746D01*
X663841Y2703607D01*
X662870Y2703468D01*
X643177D01*
Y2638703D01*
X643038Y2636623D01*
X642761Y2634681D01*
X642345Y2633017D01*
X641790Y2631769D01*
X641235Y2630798D01*
X640819Y2629966D01*
X640542Y2629550D01*
X640403Y2629411D01*
X639294Y2628440D01*
X638045Y2627608D01*
X636659Y2627053D01*
X635549Y2626776D01*
X634440Y2626499D01*
X633608Y2626360D01*
X632775D01*
X631111Y2626499D01*
X629586Y2626776D01*
X628338Y2627331D01*
X627228Y2627886D01*
X626257Y2628440D01*
X625703Y2628995D01*
X625287Y2629272D01*
X625148Y2629411D01*
X624177Y2630798D01*
X623484Y2632185D01*
X622929Y2633710D01*
X622652Y2635236D01*
X622374Y2636623D01*
X622235Y2637732D01*
Y2638426D01*
Y2638703D01*
Y2703468D01*
X603652D01*
X601849Y2703607D01*
X600185Y2703884D01*
X598798Y2704162D01*
X597688Y2704716D01*
X596718Y2705133D01*
X596163Y2705410D01*
X595747Y2705687D01*
X595608Y2705826D01*
X594637Y2706797D01*
X593944Y2707906D01*
X593528Y2708877D01*
X593112Y2709986D01*
X592973Y2710819D01*
X592834Y2711512D01*
Y2712067D01*
Y2712205D01*
X592973Y2713592D01*
X593251Y2714979D01*
X593667Y2716089D01*
X594221Y2716921D01*
X594776Y2717753D01*
X595192Y2718307D01*
X595469Y2718585D01*
X595608Y2718724D01*
X596718Y2719556D01*
X597966Y2720110D01*
X599353Y2720665D01*
X600601Y2720942D01*
X601849Y2721081D01*
X602820Y2721220D01*
X662038D01*
X663841Y2721081D01*
D02*
G37*
G36*
X578203Y2521947D02*
X579451Y2521669D01*
X580561Y2521253D01*
X581532Y2520837D01*
X582225Y2520421D01*
X582780Y2520005D01*
X583196Y2519728D01*
X583335Y2519589D01*
X584305Y2518618D01*
X584999Y2517786D01*
X585415Y2516815D01*
X585692Y2515983D01*
X585970Y2515151D01*
X586108Y2514596D01*
Y2514180D01*
Y2514042D01*
X585970Y2511961D01*
X585415Y2510020D01*
X585276Y2509326D01*
X584999Y2508772D01*
X584860Y2508356D01*
Y2508217D01*
X583751Y2506137D01*
X582503Y2504195D01*
X582086Y2503502D01*
X581670Y2502947D01*
X581393Y2502531D01*
X581254Y2502392D01*
X564196Y2475765D01*
X584167Y2446780D01*
X585692Y2444284D01*
X586940Y2442065D01*
X587773Y2439984D01*
X588327Y2438182D01*
X588605Y2436795D01*
X588743Y2435685D01*
X588882Y2435131D01*
Y2434853D01*
X588743Y2433328D01*
X588466Y2431941D01*
X588050Y2430693D01*
X587634Y2429861D01*
X587218Y2429028D01*
X586802Y2428474D01*
X586524Y2428196D01*
X586386Y2428058D01*
X585415Y2427226D01*
X584305Y2426671D01*
X583196Y2426255D01*
X582225Y2425977D01*
X581393Y2425839D01*
X580561Y2425700D01*
X580006D01*
X578342Y2425839D01*
X576955Y2426116D01*
X576400Y2426255D01*
X575984Y2426393D01*
X575846Y2426532D01*
X575707D01*
X574320Y2427087D01*
X573349Y2427780D01*
X572795Y2428335D01*
X572517Y2428474D01*
X571546Y2429444D01*
X570992Y2430138D01*
X570576Y2430693D01*
X570437Y2430831D01*
X570021Y2431386D01*
X569744Y2431941D01*
X568911Y2433328D01*
X568495Y2433882D01*
X568218Y2434437D01*
X567941Y2434714D01*
Y2434853D01*
X551576Y2460787D01*
X536321Y2435685D01*
X535489Y2434298D01*
X534657Y2433050D01*
X534102Y2432079D01*
X533547Y2431247D01*
X533131Y2430693D01*
X532854Y2430277D01*
X532576Y2429999D01*
Y2429861D01*
X531467Y2428612D01*
X530496Y2427780D01*
X529525Y2427087D01*
X529387Y2426948D01*
X529248D01*
X527584Y2426255D01*
X525919Y2425839D01*
X525226D01*
X524671Y2425700D01*
X524255D01*
X522175Y2425839D01*
X520649Y2426393D01*
X519956Y2426532D01*
X519540Y2426809D01*
X519263Y2426948D01*
X519124D01*
X517598Y2427919D01*
X516489Y2429028D01*
X515934Y2429861D01*
X515657Y2429999D01*
Y2430138D01*
X514963Y2431802D01*
X514547Y2433189D01*
X514409Y2433882D01*
Y2434298D01*
Y2434576D01*
Y2434714D01*
X514686Y2436656D01*
X515102Y2438320D01*
X515379Y2439014D01*
X515518Y2439568D01*
X515796Y2439846D01*
Y2439984D01*
X516350Y2441094D01*
X517044Y2442342D01*
X518431Y2444700D01*
X519124Y2445809D01*
X519679Y2446641D01*
X520095Y2447196D01*
X520233Y2447335D01*
X538678Y2475626D01*
X521066Y2501838D01*
X519401Y2504473D01*
X518153Y2506830D01*
X517321Y2508910D01*
X516628Y2510575D01*
X516350Y2511961D01*
X516212Y2512932D01*
X516073Y2513626D01*
Y2513764D01*
X516212Y2515012D01*
X516489Y2516122D01*
X516905Y2517093D01*
X517321Y2517925D01*
X517876Y2518618D01*
X518292Y2519173D01*
X518569Y2519450D01*
X518708Y2519589D01*
X519679Y2520421D01*
X520788Y2520976D01*
X521898Y2521531D01*
X522868Y2521808D01*
X523839Y2521947D01*
X524533Y2522085D01*
X525226D01*
X526752Y2521947D01*
X528000Y2521669D01*
X528832Y2521392D01*
X528970Y2521253D01*
X529109D01*
X530219Y2520560D01*
X531189Y2519866D01*
X531883Y2519312D01*
X532160Y2519173D01*
Y2519034D01*
X533131Y2517925D01*
X533963Y2516815D01*
X534518Y2515983D01*
X534795Y2515706D01*
Y2515567D01*
X535766Y2514042D01*
X536459Y2512794D01*
X536875Y2512239D01*
X537014Y2511823D01*
X537292Y2511545D01*
Y2511407D01*
X551299Y2489356D01*
X563780Y2510713D01*
X565167Y2512932D01*
X566276Y2514735D01*
X567386Y2516261D01*
X568357Y2517370D01*
X569050Y2518341D01*
X569605Y2519034D01*
X569882Y2519312D01*
X570021Y2519450D01*
X570992Y2520282D01*
X572101Y2520976D01*
X573211Y2521392D01*
X574320Y2521808D01*
X575291Y2521947D01*
X576123Y2522085D01*
X576816D01*
X578203Y2521947D01*
D02*
G37*
G36*
X664049Y2520421D02*
X666129Y2520144D01*
X667654Y2519589D01*
X669041Y2519034D01*
X670151Y2518480D01*
X670844Y2517925D01*
X671260Y2517647D01*
X671399Y2517509D01*
X672370Y2516261D01*
X673063Y2514735D01*
X673618Y2513210D01*
X673895Y2511545D01*
X674173Y2510159D01*
X674311Y2509049D01*
Y2508217D01*
Y2508078D01*
Y2507940D01*
Y2438043D01*
X674173Y2435963D01*
X673895Y2434160D01*
X673479Y2432496D01*
X672924Y2431247D01*
X672508Y2430277D01*
X672092Y2429444D01*
X671815Y2429028D01*
X671676Y2428890D01*
X670567Y2427780D01*
X669319Y2427087D01*
X667932Y2426532D01*
X666684Y2426116D01*
X665574Y2425839D01*
X664742Y2425700D01*
X663910D01*
X662246Y2425839D01*
X660720Y2426116D01*
X659472Y2426671D01*
X658363Y2427226D01*
X657392Y2427780D01*
X656837Y2428335D01*
X656421Y2428612D01*
X656282Y2428751D01*
X655312Y2430138D01*
X654618Y2431525D01*
X654063Y2433050D01*
X653786Y2434576D01*
X653509Y2435963D01*
X653370Y2437072D01*
Y2437766D01*
Y2438043D01*
Y2466057D01*
X646713D01*
X645188Y2465918D01*
X643940Y2465641D01*
X642830Y2465502D01*
X641859Y2465225D01*
X641305Y2464948D01*
X640888Y2464809D01*
X640750D01*
X639640Y2464254D01*
X638531Y2463561D01*
X637560Y2462867D01*
X636589Y2462035D01*
X635896Y2461342D01*
X635341Y2460787D01*
X634925Y2460371D01*
X634786Y2460232D01*
X633677Y2458984D01*
X632429Y2457597D01*
X631319Y2456210D01*
X630210Y2454824D01*
X629378Y2453714D01*
X628684Y2452743D01*
X628130Y2452189D01*
X627991Y2451911D01*
X620502Y2437904D01*
X619531Y2436379D01*
X618699Y2434992D01*
X617867Y2433744D01*
X617312Y2432912D01*
X616896Y2432079D01*
X616480Y2431525D01*
X616203Y2431247D01*
Y2431109D01*
X614955Y2429583D01*
X613706Y2428335D01*
X613152Y2427919D01*
X612736Y2427503D01*
X612458Y2427364D01*
X612320Y2427226D01*
X611349Y2426671D01*
X610378Y2426393D01*
X608575Y2425839D01*
X607743D01*
X607050Y2425700D01*
X606495D01*
X604415Y2425839D01*
X603444Y2426116D01*
X602750Y2426393D01*
X602057Y2426532D01*
X601641Y2426809D01*
X601364Y2426948D01*
X601225D01*
X599699Y2427919D01*
X598590Y2428890D01*
X597896Y2429722D01*
X597619Y2429861D01*
Y2429999D01*
X596787Y2431525D01*
X596371Y2432912D01*
X596232Y2433466D01*
Y2433882D01*
Y2434160D01*
Y2434298D01*
X596371Y2435131D01*
X596510Y2436101D01*
X597203Y2438320D01*
X597619Y2439291D01*
X598035Y2440123D01*
X598174Y2440817D01*
X598312Y2440955D01*
X599145Y2442758D01*
X599977Y2444700D01*
X600947Y2446364D01*
X601780Y2448028D01*
X602612Y2449415D01*
X603305Y2450524D01*
X603721Y2451218D01*
X603860Y2451495D01*
X605247Y2453575D01*
X606634Y2455656D01*
X607882Y2457459D01*
X609130Y2459123D01*
X610239Y2460510D01*
X611071Y2461619D01*
X611765Y2462174D01*
X611904Y2462451D01*
X613568Y2464254D01*
X615232Y2465641D01*
X616757Y2466889D01*
X618144Y2467721D01*
X619254Y2468276D01*
X620086Y2468692D01*
X620779Y2468969D01*
X620918D01*
X617035Y2469802D01*
X613568Y2471050D01*
X610655Y2472298D01*
X608298Y2473685D01*
X606356Y2475072D01*
X604969Y2476181D01*
X604553Y2476597D01*
X604137Y2476874D01*
X603860Y2477152D01*
X602750Y2478400D01*
X601780Y2479787D01*
X600393Y2482560D01*
X599283Y2485473D01*
X598451Y2488108D01*
X598035Y2490604D01*
X597896Y2491575D01*
Y2492407D01*
X597758Y2493239D01*
Y2493794D01*
Y2494071D01*
Y2494210D01*
X597896Y2496151D01*
X598035Y2497954D01*
X598312Y2499619D01*
X598590Y2501005D01*
X599006Y2502254D01*
X599283Y2503224D01*
X599422Y2503779D01*
X599561Y2504056D01*
X600254Y2505721D01*
X601086Y2507385D01*
X602057Y2508772D01*
X602889Y2509881D01*
X603582Y2510852D01*
X604276Y2511684D01*
X604692Y2512100D01*
X604831Y2512239D01*
X606079Y2513487D01*
X607466Y2514596D01*
X608714Y2515429D01*
X609823Y2516122D01*
X610794Y2516815D01*
X611626Y2517231D01*
X612181Y2517370D01*
X612320Y2517509D01*
X615509Y2518757D01*
X616896Y2519173D01*
X618283Y2519450D01*
X619531Y2519728D01*
X620363Y2519866D01*
X620918Y2520005D01*
X621195D01*
X622998Y2520144D01*
X624801Y2520282D01*
X626604Y2520421D01*
X628268Y2520560D01*
X661830D01*
X664049Y2520421D01*
D02*
G37*
%LPC*%
G36*
X3082499Y5379995D02*
X2977510D01*
X2989916D01*
X2988805Y5379810D01*
X2987323Y5379440D01*
X2985842Y5379070D01*
X2984176Y5378329D01*
X2982694Y5377218D01*
X2981213Y5375922D01*
X2981028Y5375737D01*
X2980657Y5375181D01*
X2980102Y5374255D01*
X2979361Y5372959D01*
X2978621Y5371293D01*
X2978065Y5369256D01*
X2977695Y5367034D01*
X2977510Y5364256D01*
Y5251305D01*
Y5268155D01*
X2977695Y5267229D01*
Y5266118D01*
X2977880Y5264822D01*
X2978250Y5263341D01*
X2979361Y5260193D01*
X2980287Y5258526D01*
X2981213Y5256860D01*
X2982509Y5255379D01*
X2983990Y5254082D01*
X2985657Y5252971D01*
X2987694Y5252046D01*
X2990101Y5251490D01*
X2992693Y5251305D01*
X2993989D01*
X2994915Y5251490D01*
X2997137Y5251860D01*
X2999359Y5252416D01*
X2999544D01*
X2999915Y5252601D01*
X3000285Y5252786D01*
X3001026Y5253157D01*
X3002877Y5254082D01*
X3004729Y5255564D01*
X3004914Y5255749D01*
X3005099Y5255934D01*
X3006210Y5257045D01*
X3007692Y5258526D01*
X3009173Y5260378D01*
Y5260563D01*
X3009543Y5260748D01*
X3009729Y5261304D01*
X3010284Y5262045D01*
X3011580Y5263896D01*
X3013062Y5266118D01*
X3056020Y5336481D01*
Y5267044D01*
Y5266674D01*
Y5265748D01*
X3056205Y5264452D01*
X3056576Y5262785D01*
X3056946Y5260934D01*
X3057687Y5258897D01*
X3058612Y5257045D01*
X3059909Y5255379D01*
X3060094Y5255193D01*
X3060649Y5254823D01*
X3061390Y5254082D01*
X3062501Y5253342D01*
X3063797Y5252601D01*
X3065464Y5251860D01*
X3067315Y5251490D01*
X3069352Y5251305D01*
X3082499D01*
X3070278D01*
X3071389Y5251490D01*
X3072870Y5251860D01*
X3074351Y5252231D01*
X3076018Y5252971D01*
X3077499Y5254082D01*
X3078981Y5255379D01*
X3079166Y5255564D01*
X3079536Y5256119D01*
X3080092Y5257045D01*
X3080647Y5258341D01*
X3081388Y5260008D01*
X3081943Y5261859D01*
X3082314Y5264267D01*
X3082499Y5266859D01*
Y5362590D01*
X3082314Y5363886D01*
X3081943Y5367034D01*
X3081573Y5368700D01*
X3081203Y5369996D01*
X3081017Y5370182D01*
X3080832Y5370737D01*
X3080462Y5371663D01*
X3079721Y5372589D01*
X3078981Y5373885D01*
X3077870Y5374996D01*
X3076759Y5376107D01*
X3075277Y5377218D01*
X3075092Y5377403D01*
X3074537Y5377588D01*
X3073796Y5378144D01*
X3072685Y5378699D01*
X3071389Y5379070D01*
X3069908Y5379625D01*
X3068241Y5379810D01*
X3066575Y5379995D01*
X3082499D01*
D02*
G37*
%LPD*%
G36*
X3064353Y5379810D02*
X3062316Y5379440D01*
X3060279Y5378699D01*
X3060094D01*
X3059723Y5378514D01*
X3058612Y5377773D01*
X3057131Y5376662D01*
X3055465Y5375366D01*
X3055279D01*
X3055094Y5374996D01*
X3054168Y5374070D01*
X3052872Y5372404D01*
X3051576Y5370367D01*
Y5370182D01*
X3051206Y5369811D01*
X3050835Y5369256D01*
X3050280Y5368515D01*
X3048984Y5366478D01*
X3047502Y5364071D01*
X3003618Y5293893D01*
Y5364256D01*
Y5364627D01*
Y5365552D01*
X3003433Y5366849D01*
X3003248Y5368515D01*
X3002877Y5370367D01*
X3002137Y5372404D01*
X3001396Y5374255D01*
X3000285Y5375922D01*
X3000100Y5376107D01*
X2999544Y5376477D01*
X2998804Y5377218D01*
X2997693Y5377959D01*
X2996397Y5378699D01*
X2994730Y5379440D01*
X2992878Y5379810D01*
X2990842Y5379995D01*
X3065278D01*
X3064353Y5379810D01*
D02*
G37*
%LPC*%
G36*
X1780934Y5379989D02*
X1745752D01*
X1744456Y5379804D01*
X1741308Y5379619D01*
X1737790Y5379433D01*
X1734087Y5379063D01*
X1730384Y5378322D01*
X1727236Y5377582D01*
X1726865D01*
X1725940Y5377211D01*
X1724458Y5376656D01*
X1722607Y5375915D01*
X1720570Y5374990D01*
X1718163Y5373693D01*
X1715941Y5372212D01*
X1713719Y5370360D01*
X1713534Y5370175D01*
X1712793Y5369435D01*
X1711682Y5368324D01*
X1710386Y5367027D01*
X1709090Y5365176D01*
X1707608Y5362954D01*
X1706312Y5360547D01*
X1705016Y5357954D01*
X1704831Y5357584D01*
X1704460Y5356658D01*
X1704090Y5355177D01*
X1703535Y5353325D01*
X1702979Y5350918D01*
X1702424Y5348140D01*
X1702238Y5345178D01*
X1702053Y5341845D01*
Y5345178D01*
Y5341845D01*
Y5339993D01*
X1702238Y5338697D01*
X1702424Y5337030D01*
X1702609Y5335179D01*
X1702979Y5333142D01*
X1703535Y5330920D01*
X1705016Y5326291D01*
X1705942Y5323884D01*
X1707053Y5321477D01*
X1708534Y5319069D01*
X1710201Y5316662D01*
X1712052Y5314625D01*
X1714089Y5312589D01*
X1714274Y5312403D01*
X1714645Y5312218D01*
X1715385Y5311663D01*
X1716311Y5311107D01*
X1717607Y5310367D01*
X1719089Y5309441D01*
X1720940Y5308515D01*
X1722977Y5307589D01*
X1725384Y5306663D01*
X1727976Y5305737D01*
X1730939Y5304997D01*
X1734087Y5304071D01*
X1737605Y5303515D01*
X1741308Y5302960D01*
X1745197Y5302775D01*
X1749456Y5302590D01*
X1770009D01*
Y5269815D01*
Y5269445D01*
Y5268519D01*
X1770194Y5267038D01*
X1770565Y5265371D01*
X1770935Y5263334D01*
X1771676Y5261298D01*
X1772787Y5259261D01*
X1774083Y5257594D01*
X1774268Y5257409D01*
X1774823Y5256854D01*
X1775564Y5256298D01*
X1776860Y5255557D01*
X1778156Y5254632D01*
X1780008Y5254076D01*
X1781860Y5253521D01*
X1784082Y5253335D01*
X1702053D01*
X1797969D01*
Y5364620D01*
X1797784Y5366102D01*
X1797414Y5368138D01*
X1797043Y5370175D01*
X1796303Y5372212D01*
X1795192Y5374249D01*
X1793896Y5375915D01*
X1793710Y5376100D01*
X1793155Y5376471D01*
X1792044Y5377211D01*
X1790748Y5377952D01*
X1788896Y5378693D01*
X1786674Y5379433D01*
X1783897Y5379804D01*
X1780934Y5379989D01*
D02*
G37*
%LPD*%
G36*
X1770009Y5324439D02*
X1753900D01*
X1752418Y5324624D01*
X1750382D01*
X1748160Y5324810D01*
X1745938Y5325180D01*
X1743716Y5325550D01*
X1741494Y5326106D01*
X1741308D01*
X1740568Y5326476D01*
X1739642Y5326846D01*
X1738346Y5327402D01*
X1735568Y5329068D01*
X1734272Y5330179D01*
X1733161Y5331475D01*
X1732976Y5331661D01*
X1732791Y5332216D01*
X1732235Y5332957D01*
X1731680Y5334068D01*
X1731309Y5335549D01*
X1730754Y5337216D01*
X1730569Y5339067D01*
X1730384Y5341289D01*
Y5341660D01*
Y5342585D01*
X1730569Y5343882D01*
X1730939Y5345548D01*
X1731495Y5347400D01*
X1732235Y5349437D01*
X1733346Y5351288D01*
X1734828Y5353140D01*
X1735013Y5353325D01*
X1735753Y5353881D01*
X1737235Y5354806D01*
X1739272Y5355732D01*
X1740568Y5356103D01*
X1741864Y5356473D01*
X1743716Y5357028D01*
X1745567Y5357399D01*
X1747604Y5357769D01*
X1750011Y5357954D01*
X1752604Y5358139D01*
X1770009D01*
Y5324439D01*
D02*
G37*
G36*
X1797969Y5253335D02*
X1785193D01*
X1786304Y5253521D01*
X1787785Y5253891D01*
X1789266Y5254446D01*
X1791118Y5255187D01*
X1792785Y5256113D01*
X1794266Y5257594D01*
X1794451Y5257779D01*
X1794821Y5258335D01*
X1795377Y5259446D01*
X1796118Y5260742D01*
X1796858Y5262409D01*
X1797414Y5264445D01*
X1797784Y5266853D01*
X1797969Y5269630D01*
Y5253335D01*
D02*
G37*
%LPC*%
G36*
X206211Y2704162D02*
X195532D01*
X192620Y2704023D01*
X189846Y2703884D01*
X187489Y2703607D01*
X185547Y2703330D01*
X183883Y2702914D01*
X182635Y2702636D01*
X181941Y2702498D01*
X181664Y2702359D01*
X179584Y2701527D01*
X177781Y2700279D01*
X176116Y2699030D01*
X174730Y2697644D01*
X173620Y2696257D01*
X172788Y2695147D01*
X172233Y2694454D01*
X172095Y2694315D01*
Y2694176D01*
X171401Y2692928D01*
X170846Y2691541D01*
X169876Y2688490D01*
X169182Y2685301D01*
X168628Y2682111D01*
X168350Y2679199D01*
Y2677950D01*
X168211Y2676980D01*
Y2676009D01*
Y2675315D01*
Y2674899D01*
Y2674761D01*
X168350Y2671432D01*
X168628Y2668381D01*
X169044Y2665469D01*
X169598Y2662834D01*
X170430Y2660476D01*
X171124Y2658257D01*
X171956Y2656454D01*
X172788Y2654652D01*
X173759Y2653126D01*
X174591Y2651878D01*
X175284Y2650768D01*
X175978Y2649936D01*
X176671Y2649243D01*
X177087Y2648827D01*
X177365Y2648549D01*
X177503Y2648411D01*
X178751Y2647579D01*
X180138Y2646885D01*
X180693Y2646608D01*
X181248Y2646330D01*
X181525Y2646192D01*
X181664D01*
X183467Y2645637D01*
X185131Y2645360D01*
X185686Y2645221D01*
X186240Y2645082D01*
X187627D01*
X188737Y2644944D01*
X206211D01*
Y2704162D01*
D02*
G37*
G36*
X220842Y2508677D02*
X220565D01*
X218762Y2508538D01*
X217098Y2508122D01*
X215711Y2507567D01*
X214601Y2507013D01*
X213769Y2506319D01*
X213076Y2505764D01*
X212660Y2505348D01*
X212521Y2505210D01*
X211412Y2503823D01*
X210579Y2502159D01*
X209747Y2500494D01*
X209193Y2498830D01*
X208777Y2497305D01*
X208499Y2496056D01*
X208222Y2495224D01*
Y2495086D01*
Y2494947D01*
X207806Y2492173D01*
X207390Y2489122D01*
X207112Y2486210D01*
X206974Y2483298D01*
X206835Y2480663D01*
Y2479553D01*
Y2478582D01*
Y2477889D01*
Y2477334D01*
Y2476918D01*
Y2476779D01*
Y2472619D01*
X207112Y2468874D01*
X207251Y2465546D01*
X207528Y2462911D01*
X207667Y2461663D01*
X207806Y2460692D01*
X207944Y2459860D01*
Y2459028D01*
X208083Y2458473D01*
X208222Y2458057D01*
Y2457918D01*
Y2457780D01*
X208777Y2455283D01*
X209331Y2453064D01*
X210025Y2451262D01*
X210718Y2449736D01*
X211412Y2448488D01*
X211966Y2447656D01*
X212244Y2447101D01*
X212382Y2446962D01*
X213492Y2445853D01*
X214879Y2445021D01*
X216266Y2444327D01*
X217514Y2443911D01*
X218623Y2443634D01*
X219594Y2443495D01*
X220426D01*
X222090Y2443634D01*
X223616Y2444050D01*
X225003Y2444605D01*
X226112Y2445159D01*
X226944Y2445714D01*
X227638Y2446269D01*
X228054Y2446685D01*
X228192Y2446824D01*
X229163Y2448210D01*
X230134Y2449875D01*
X230827Y2451678D01*
X231382Y2453342D01*
X231798Y2455006D01*
X232075Y2456254D01*
X232353Y2457086D01*
Y2457225D01*
Y2457364D01*
X232769Y2460276D01*
X233046Y2463327D01*
X233324Y2466517D01*
X233462Y2469568D01*
Y2472203D01*
X233601Y2473312D01*
Y2474283D01*
Y2475115D01*
Y2475670D01*
Y2476086D01*
Y2476225D01*
Y2479276D01*
X233462Y2482188D01*
X233324Y2484823D01*
X233185Y2487181D01*
X232908Y2489400D01*
X232630Y2491480D01*
X232353Y2493283D01*
X232075Y2494947D01*
X231937Y2496334D01*
X231659Y2497582D01*
X231382Y2498553D01*
X231105Y2499385D01*
X230966Y2500078D01*
X230827Y2500494D01*
X230689Y2500772D01*
Y2500910D01*
X230134Y2502297D01*
X229440Y2503545D01*
X228608Y2504516D01*
X227776Y2505348D01*
X226112Y2506735D01*
X224448Y2507706D01*
X222922Y2508261D01*
X221674Y2508538D01*
X220842Y2508677D01*
D02*
G37*
G36*
X311680Y2507567D02*
X310848D01*
X308213Y2507429D01*
X305717Y2507013D01*
X303498Y2506458D01*
X301556Y2505764D01*
X300031Y2505071D01*
X298782Y2504516D01*
X298089Y2504100D01*
X297812Y2503961D01*
X295731Y2502436D01*
X294067Y2500772D01*
X292542Y2498969D01*
X291294Y2497305D01*
X290323Y2495779D01*
X289629Y2494392D01*
X289213Y2493560D01*
X289075Y2493421D01*
Y2493283D01*
X287965Y2490648D01*
X287272Y2487735D01*
X286717Y2484962D01*
X286301Y2482327D01*
X286024Y2480108D01*
Y2479137D01*
X285885Y2478305D01*
Y2477612D01*
Y2477057D01*
Y2476779D01*
Y2476641D01*
X286024Y2472896D01*
X286440Y2469429D01*
X286994Y2466378D01*
X287549Y2463882D01*
X288243Y2461802D01*
X288520Y2460969D01*
X288797Y2460276D01*
X289075Y2459721D01*
X289213Y2459305D01*
X289352Y2459167D01*
Y2459028D01*
X290739Y2456532D01*
X292126Y2454451D01*
X293651Y2452648D01*
X295038Y2451123D01*
X296425Y2450013D01*
X297396Y2449320D01*
X298089Y2448765D01*
X298366Y2448627D01*
X300447Y2447517D01*
X302666Y2446685D01*
X304607Y2446130D01*
X306549Y2445714D01*
X308213Y2445437D01*
X309461Y2445298D01*
X310571D01*
X312512Y2445437D01*
X314315Y2445575D01*
X315841Y2445853D01*
X317366Y2446269D01*
X318476Y2446546D01*
X319446Y2446824D01*
X320001Y2446962D01*
X320140Y2447101D01*
X321665Y2447933D01*
X323191Y2448904D01*
X324439Y2449736D01*
X325687Y2450707D01*
X326519Y2451539D01*
X327351Y2452232D01*
X327767Y2452787D01*
X327906Y2452926D01*
X329016Y2454451D01*
X330125Y2456115D01*
X331096Y2457780D01*
X331789Y2459444D01*
X332344Y2460831D01*
X332760Y2461940D01*
X333037Y2462634D01*
X333176Y2462911D01*
X333731Y2465269D01*
X334147Y2467626D01*
X334563Y2469984D01*
X334702Y2472064D01*
X334840Y2473867D01*
X334979Y2475393D01*
Y2475947D01*
Y2476363D01*
Y2476502D01*
Y2476641D01*
X334840Y2479414D01*
X334702Y2481911D01*
X334424Y2484130D01*
X334008Y2486210D01*
X333731Y2487874D01*
X333453Y2488984D01*
X333315Y2489816D01*
X333176Y2490093D01*
X332344Y2492173D01*
X331512Y2494115D01*
X330680Y2495779D01*
X329848Y2497166D01*
X329154Y2498275D01*
X328600Y2499108D01*
X328183Y2499662D01*
X328045Y2499801D01*
X326797Y2501188D01*
X325548Y2502297D01*
X324300Y2503268D01*
X323052Y2504100D01*
X322081Y2504655D01*
X321249Y2505071D01*
X320695Y2505348D01*
X320556Y2505487D01*
X318892Y2506180D01*
X317227Y2506735D01*
X315563Y2507013D01*
X314038Y2507290D01*
X312790Y2507429D01*
X311680Y2507567D01*
D02*
G37*
G36*
X653370Y2504195D02*
X634648D01*
X632013Y2503918D01*
X629794Y2503779D01*
X628130Y2503502D01*
X626881Y2503224D01*
X626049Y2503086D01*
X625633Y2502808D01*
X625495D01*
X623414Y2501699D01*
X622721Y2501005D01*
X622027Y2500451D01*
X621473Y2499896D01*
X621057Y2499341D01*
X620918Y2499064D01*
X620779Y2498925D01*
X620225Y2497954D01*
X619670Y2496984D01*
X619254Y2495042D01*
X619115Y2494349D01*
X618976Y2493655D01*
Y2493239D01*
Y2493100D01*
X619115Y2491575D01*
X619254Y2490188D01*
X619670Y2488940D01*
X620086Y2487969D01*
X620502Y2487137D01*
X620779Y2486582D01*
X621057Y2486305D01*
X621195Y2486166D01*
X622027Y2485334D01*
X622998Y2484641D01*
X625217Y2483531D01*
X626049Y2483115D01*
X626881Y2482976D01*
X627436Y2482699D01*
X627575D01*
X629239Y2482422D01*
X631042Y2482144D01*
X632845Y2482006D01*
X634509Y2481867D01*
X636035Y2481728D01*
X653370D01*
Y2504195D01*
D02*
G37*
%LPD*%
D41*
X263415Y4850139D02*
G03*
X536166Y4850367I136585J-250139D01*
G01*
X263415Y4850139D02*
X536042D01*
X6400000Y997200D02*
Y1597200D01*
X5800000Y997200D02*
X6400000D01*
X5800000Y1597200D02*
X6400000D01*
D42*
X400137Y4914700D02*
G03*
X400137Y4914700I-7237J0D01*
G01*
D43*
X5962500Y5774759D02*
G03*
X6474759Y5262500I187500J-324760D01*
G01*
Y537500D02*
G03*
X5962500Y25240I-324760J-187500D01*
G01*
X537500D02*
G03*
X25240Y537500I-187500J324760D01*
G01*
Y5262500D02*
G03*
X537500Y5774759I324760J187500D01*
G01*
X4274565Y1531595D02*
X4325349D01*
X4299957D01*
Y1404637D01*
X4325349Y1379245D01*
X4350741D01*
X4376132Y1404637D01*
X4223782Y1531595D02*
Y1379245D01*
X4122215D01*
X3969864Y1506203D02*
X3995256Y1531595D01*
X4046039D01*
X4071431Y1506203D01*
Y1404637D01*
X4046039Y1379245D01*
X3995256D01*
X3969864Y1404637D01*
X3817513Y1531595D02*
X3868297D01*
X3842905D01*
Y1404637D01*
X3868297Y1379245D01*
X3893688D01*
X3919080Y1404637D01*
X3766730Y1531595D02*
Y1379245D01*
X3665162D01*
X3512812Y1506203D02*
X3538203Y1531595D01*
X3588987D01*
X3614379Y1506203D01*
Y1404637D01*
X3588987Y1379245D01*
X3538203D01*
X3512812Y1404637D01*
X3360461Y1531595D02*
X3411245D01*
X3385853D01*
Y1404637D01*
X3411245Y1379245D01*
X3436636D01*
X3462028Y1404637D01*
X3309677Y1531595D02*
Y1379245D01*
X3208110D01*
X3055759Y1506203D02*
X3081151Y1531595D01*
X3131935D01*
X3157327Y1506203D01*
Y1404637D01*
X3131935Y1379245D01*
X3081151D01*
X3055759Y1404637D01*
X2903409Y1531595D02*
X2954192D01*
X2928801D01*
Y1404637D01*
X2954192Y1379245D01*
X2979584D01*
X3004976Y1404637D01*
X2852625Y1531595D02*
Y1379245D01*
X2751058D01*
X2598707Y1506203D02*
X2624099Y1531595D01*
X2674883D01*
X2700275Y1506203D01*
Y1404637D01*
X2674883Y1379245D01*
X2624099D01*
X2598707Y1404637D01*
D44*
X6064707Y1257548D02*
X6166040Y1300000D01*
X5800000Y997200D02*
Y1597200D01*
X6230000Y1058440D02*
Y1548660D01*
X5965000Y1058440D02*
Y1548660D01*
X6166040Y1300000D02*
X6230000D01*
X5965000D02*
X6064707D01*
D45*
X473657Y4271045D02*
Y4210105D01*
X443187D01*
X433031Y4220262D01*
Y4260889D01*
X443187Y4271045D01*
X473657D01*
X372090Y4260889D02*
X382247Y4271045D01*
X402561D01*
X412717Y4260889D01*
Y4250732D01*
X402561Y4240575D01*
X382247D01*
X372090Y4230419D01*
Y4220262D01*
X382247Y4210105D01*
X402561D01*
X412717Y4220262D01*
X351777Y4210105D02*
X331464D01*
X341620D01*
Y4271045D01*
X351777Y4260889D01*
X2549084Y5610890D02*
Y5549950D01*
X2518613D01*
X2508457Y5560106D01*
Y5570263D01*
X2518613Y5580420D01*
X2549084D01*
X2518613D01*
X2508457Y5590576D01*
Y5600733D01*
X2518613Y5610890D01*
X2549084D01*
X2488143Y5549950D02*
Y5590576D01*
X2467830Y5610890D01*
X2447517Y5590576D01*
Y5549950D01*
Y5580420D01*
X2488143D01*
X2427203Y5610890D02*
X2386576D01*
X2406890D01*
Y5549950D01*
X2366263Y5610890D02*
X2325636D01*
X2345950D01*
Y5549950D01*
X5771804Y1145562D02*
Y1104935D01*
X5741333D01*
Y1125249D01*
Y1104935D01*
X5710863D01*
Y1165875D02*
X5751490D01*
X5771804Y1186189D01*
X5751490Y1206502D01*
X5710863D01*
X5741333D01*
Y1165875D01*
X5761647Y1267442D02*
X5771804Y1257286D01*
Y1236972D01*
X5761647Y1226816D01*
X5721020D01*
X5710863Y1236972D01*
Y1257286D01*
X5721020Y1267442D01*
X5771804Y1287756D02*
Y1328383D01*
Y1308069D01*
X5710863D01*
X5771804Y1379166D02*
Y1358853D01*
X5761647Y1348696D01*
X5721020D01*
X5710863Y1358853D01*
Y1379166D01*
X5721020Y1389323D01*
X5761647D01*
X5771804Y1379166D01*
X5710863Y1409636D02*
X5771804D01*
Y1440106D01*
X5761647Y1450263D01*
X5741333D01*
X5731177Y1440106D01*
Y1409636D01*
Y1429950D02*
X5710863Y1450263D01*
X5771804Y1470576D02*
X5761647D01*
X5741333Y1490890D01*
X5761647Y1511203D01*
X5771804D01*
X5741333Y1490890D02*
X5710863D01*
X650162Y3904089D02*
X690788D01*
Y3843149D01*
X650162D01*
X690788Y3873619D02*
X670475D01*
X589221Y3893932D02*
X599378Y3904089D01*
X619691D01*
X629848Y3893932D01*
Y3883776D01*
X619691Y3873619D01*
X599378D01*
X589221Y3863462D01*
Y3853305D01*
X599378Y3843149D01*
X619691D01*
X629848Y3853305D01*
X568908Y3843149D02*
Y3904089D01*
X538438D01*
X528281Y3893932D01*
Y3873619D01*
X538438Y3863462D01*
X568908D01*
X507968Y3832992D02*
X467341D01*
X447028Y3843149D02*
Y3904089D01*
X416557D01*
X406401Y3893932D01*
Y3873619D01*
X416557Y3863462D01*
X447028D01*
X386087Y3843149D02*
Y3904089D01*
X355617D01*
X345461Y3893932D01*
Y3873619D01*
X355617Y3863462D01*
X386087D01*
X365774D02*
X345461Y3843149D01*
X294677Y3904089D02*
X314990D01*
X325147Y3893932D01*
Y3853305D01*
X314990Y3843149D01*
X294677D01*
X284520Y3853305D01*
Y3893932D01*
X294677Y3904089D01*
X223580Y3893932D02*
X233737Y3904089D01*
X254050D01*
X264207Y3893932D01*
Y3853305D01*
X254050Y3843149D01*
X233737D01*
X223580Y3853305D01*
Y3873619D01*
X243894D01*
%TF.MD5,3f6f112316379d7db96f90eb001de2be*%
M02*
