%TF.GenerationSoftware,Altium Limited,Altium Designer,20.1.8 (145)*%
G04 Layer_Physical_Order=4*
G04 Layer_Color=16728128*
%FSLAX45Y45*%
%MOMM*%
%TF.SameCoordinates,F34F671C-B0F6-4AC1-94B4-1D61ADA518EE*%
%TF.FilePolarity,Positive*%
%TF.FileFunction,Copper,L4,Bot,Signal*%
%TF.Part,Single*%
G01*
G75*
%TA.AperFunction,Conductor*%
%ADD28C,0.12700*%
%TA.AperFunction,ComponentPad*%
G04:AMPARAMS|DCode=32|XSize=1.58mm|YSize=1.58mm|CornerRadius=0.158mm|HoleSize=0mm|Usage=FLASHONLY|Rotation=0.000|XOffset=0mm|YOffset=0mm|HoleType=Round|Shape=RoundedRectangle|*
%AMROUNDEDRECTD32*
21,1,1.58000,1.26400,0,0,0.0*
21,1,1.26400,1.58000,0,0,0.0*
1,1,0.31600,0.63200,-0.63200*
1,1,0.31600,-0.63200,-0.63200*
1,1,0.31600,-0.63200,0.63200*
1,1,0.31600,0.63200,0.63200*
%
%ADD32ROUNDEDRECTD32*%
%ADD33C,1.58000*%
%ADD34C,3.20000*%
%ADD35C,1.75000*%
%ADD36C,1.50000*%
%ADD37C,1.60000*%
%TA.AperFunction,WasherPad*%
%ADD38C,3.20000*%
%TA.AperFunction,ViaPad*%
%ADD39C,0.70000*%
%TA.AperFunction,SMDPad,CuDef*%
G04:AMPARAMS|DCode=40|XSize=2.1mm|YSize=1mm|CornerRadius=0.05mm|HoleSize=0mm|Usage=FLASHONLY|Rotation=90.000|XOffset=0mm|YOffset=0mm|HoleType=Round|Shape=RoundedRectangle|*
%AMROUNDEDRECTD40*
21,1,2.10000,0.90000,0,0,90.0*
21,1,2.00000,1.00000,0,0,90.0*
1,1,0.10000,0.45000,1.00000*
1,1,0.10000,0.45000,-1.00000*
1,1,0.10000,-0.45000,-1.00000*
1,1,0.10000,-0.45000,1.00000*
%
%ADD40ROUNDEDRECTD40*%
G36*
X5756872Y5450000D02*
X5756005D01*
X5760856Y5388365D01*
X5775289Y5328249D01*
X5798948Y5271130D01*
X5831251Y5218416D01*
X5871404Y5171403D01*
X5904126Y5143456D01*
X5904125Y4774108D01*
X5904104Y4774000D01*
Y3274000D01*
X5904125Y3273893D01*
X5904125Y2400000D01*
X6474104Y2400000D01*
Y743128D01*
X6150000D01*
Y743995D01*
X6088366Y739144D01*
X6028249Y724711D01*
X5971130Y701052D01*
X5918416Y668748D01*
X5871404Y628596D01*
X5831251Y581584D01*
X5798948Y528870D01*
X5775289Y471751D01*
X5760856Y411634D01*
X5756005Y350000D01*
X5756872D01*
Y25896D01*
X743128D01*
Y350000D01*
X743995D01*
X739144Y411634D01*
X724711Y471751D01*
X701052Y528870D01*
X668748Y581584D01*
X628596Y628596D01*
X581584Y668748D01*
X528870Y701052D01*
X471751Y724711D01*
X411634Y739144D01*
X350000Y743995D01*
Y743128D01*
X25896D01*
X25897Y5056872D01*
X350000D01*
Y5056005D01*
X411634Y5060856D01*
X471751Y5075289D01*
X528870Y5098948D01*
X581584Y5131251D01*
X628596Y5171403D01*
X668748Y5218416D01*
X701052Y5271130D01*
X724711Y5328249D01*
X739144Y5388365D01*
X743995Y5450000D01*
X743128D01*
Y5774104D01*
X5756872D01*
Y5450000D01*
D02*
G37*
%LPC*%
G36*
X3030000Y5671065D02*
X3003843Y5667621D01*
X2979468Y5657525D01*
X2958537Y5641463D01*
X2942475Y5620532D01*
X2932379Y5596157D01*
X2928935Y5570000D01*
X2932379Y5543843D01*
X2942475Y5519468D01*
X2958537Y5498537D01*
X2979468Y5482475D01*
X3003843Y5472379D01*
X3030000Y5468935D01*
X3056157Y5472379D01*
X3080532Y5482475D01*
X3101463Y5498537D01*
X3117525Y5519468D01*
X3127621Y5543843D01*
X3131065Y5570000D01*
X3127621Y5596157D01*
X3117525Y5620532D01*
X3101463Y5641463D01*
X3080532Y5657525D01*
X3056157Y5667621D01*
X3030000Y5671065D01*
D02*
G37*
G36*
X1750000D02*
X1723843Y5667621D01*
X1699468Y5657525D01*
X1678537Y5641463D01*
X1662475Y5620532D01*
X1652379Y5596157D01*
X1648935Y5570000D01*
X1652379Y5543843D01*
X1662475Y5519468D01*
X1678537Y5498537D01*
X1699468Y5482475D01*
X1723843Y5472379D01*
X1750000Y5468935D01*
X1776157Y5472379D01*
X1800532Y5482475D01*
X1821463Y5498537D01*
X1837525Y5519468D01*
X1847621Y5543843D01*
X1851065Y5570000D01*
X1847621Y5596157D01*
X1837525Y5620532D01*
X1821463Y5641463D01*
X1800532Y5657525D01*
X1776157Y5667621D01*
X1750000Y5671065D01*
D02*
G37*
G36*
X463200Y4819258D02*
X336800D01*
X325680Y4817046D01*
X316253Y4810747D01*
X309954Y4801320D01*
X307742Y4790200D01*
Y4663800D01*
X309954Y4652680D01*
X316253Y4643253D01*
X325680Y4636954D01*
X336800Y4634742D01*
X463200D01*
X474320Y4636954D01*
X483747Y4643253D01*
X490046Y4652680D01*
X492258Y4663800D01*
Y4790200D01*
X490046Y4801320D01*
X483747Y4810747D01*
X474320Y4817046D01*
X463200Y4819258D01*
D02*
G37*
G36*
X400000Y4565491D02*
X376061Y4562339D01*
X353754Y4553100D01*
X334599Y4538401D01*
X319900Y4519245D01*
X310661Y4496938D01*
X307509Y4473000D01*
X310661Y4449061D01*
X319900Y4426754D01*
X334599Y4407599D01*
X353754Y4392900D01*
X376061Y4383661D01*
X400000Y4380509D01*
X423938Y4383661D01*
X446245Y4392900D01*
X465401Y4407599D01*
X480100Y4426754D01*
X489339Y4449061D01*
X492491Y4473000D01*
X489339Y4496938D01*
X480100Y4519245D01*
X465401Y4538401D01*
X446245Y4553100D01*
X423938Y4562339D01*
X400000Y4565491D01*
D02*
G37*
G36*
X2814321Y4489823D02*
X2692345D01*
X2684912Y4488345D01*
X2678611Y4484134D01*
X2678610Y4484134D01*
X2604342Y4409866D01*
X2600132Y4403564D01*
X2598653Y4396131D01*
Y4320014D01*
X2600132Y4312581D01*
X2604342Y4306279D01*
X2648320Y4262302D01*
X2644808Y4244647D01*
X2648510Y4226035D01*
X2659053Y4210257D01*
X2674831Y4199714D01*
X2693442Y4196012D01*
X2712054Y4199714D01*
X2727832Y4210257D01*
X2738375Y4226035D01*
X2742077Y4244647D01*
X2738375Y4263258D01*
X2727832Y4279037D01*
X2712054Y4289579D01*
X2693442Y4293281D01*
X2675789Y4289770D01*
X2637500Y4328059D01*
Y4388086D01*
X2700390Y4450977D01*
X2806275D01*
X2918417Y4338835D01*
X2914906Y4321180D01*
X2918608Y4302568D01*
X2929150Y4286790D01*
X2944928Y4276248D01*
X2963540Y4272546D01*
X2982152Y4276248D01*
X2997930Y4286790D01*
X3008472Y4302568D01*
X3012174Y4321180D01*
X3008472Y4339792D01*
X2997930Y4355570D01*
X2982152Y4366112D01*
X2963540Y4369814D01*
X2945886Y4366303D01*
X2828055Y4484134D01*
X2821754Y4488345D01*
X2814321Y4489823D01*
D02*
G37*
G36*
X2698977Y4404760D02*
X2680365Y4401058D01*
X2664587Y4390516D01*
X2654044Y4374738D01*
X2650342Y4356126D01*
X2654044Y4337514D01*
X2664587Y4321736D01*
X2680365Y4311194D01*
X2698977Y4307492D01*
X2717588Y4311194D01*
X2733367Y4321736D01*
X2743367Y4336703D01*
X2760529D01*
X2872697Y4224534D01*
X2869186Y4206880D01*
X2872888Y4188268D01*
X2883430Y4172490D01*
X2899208Y4161948D01*
X2917820Y4158246D01*
X2936432Y4161948D01*
X2952210Y4172490D01*
X2962752Y4188268D01*
X2966454Y4206880D01*
X2962752Y4225492D01*
X2952210Y4241270D01*
X2936432Y4251812D01*
X2917820Y4255514D01*
X2900166Y4252003D01*
X2782308Y4369860D01*
X2776007Y4374070D01*
X2768574Y4375549D01*
X2743367D01*
X2733367Y4390516D01*
X2717588Y4401058D01*
X2698977Y4404760D01*
D02*
G37*
G36*
X383884Y3900577D02*
X365273Y3896875D01*
X349495Y3886332D01*
X338952Y3870554D01*
X335250Y3851942D01*
X338952Y3833331D01*
X349495Y3817552D01*
X365273Y3807010D01*
X383884Y3803308D01*
X401539Y3806819D01*
X499761Y3708597D01*
X496828Y3704775D01*
X487488Y3682225D01*
X484302Y3658025D01*
X487488Y3633826D01*
X496828Y3611275D01*
X511687Y3591911D01*
X531052Y3577052D01*
X553602Y3567711D01*
X577801Y3564526D01*
X602001Y3567711D01*
X624551Y3577052D01*
X643916Y3591911D01*
X658775Y3611275D01*
X668115Y3633826D01*
X671301Y3658025D01*
X668115Y3682225D01*
X658775Y3704775D01*
X643916Y3724139D01*
X624551Y3738998D01*
X602001Y3748339D01*
X577801Y3751525D01*
X553602Y3748339D01*
X531052Y3738998D01*
X527230Y3736065D01*
X429007Y3834288D01*
X432519Y3851942D01*
X428817Y3870554D01*
X418274Y3886332D01*
X402496Y3896875D01*
X383884Y3900577D01*
D02*
G37*
G36*
X323801Y3751525D02*
X299602Y3748339D01*
X277052Y3738998D01*
X257687Y3724139D01*
X242828Y3704775D01*
X233488Y3682225D01*
X230302Y3658025D01*
X233488Y3633826D01*
X242828Y3611275D01*
X257687Y3591911D01*
X277052Y3577052D01*
X299602Y3567711D01*
X323801Y3564526D01*
X348001Y3567711D01*
X370551Y3577052D01*
X389916Y3591911D01*
X404775Y3611275D01*
X414115Y3633826D01*
X417301Y3658025D01*
X414115Y3682225D01*
X404775Y3704775D01*
X389916Y3724139D01*
X370551Y3738998D01*
X348001Y3748339D01*
X323801Y3751525D01*
D02*
G37*
G36*
X336501Y3495853D02*
Y3416725D01*
X415629D01*
X414115Y3428225D01*
X404775Y3450775D01*
X389916Y3470139D01*
X370551Y3484998D01*
X348001Y3494339D01*
X336501Y3495853D01*
D02*
G37*
G36*
X311101Y3495853D02*
X299602Y3494339D01*
X277052Y3484998D01*
X257687Y3470139D01*
X242828Y3450775D01*
X233488Y3428225D01*
X231974Y3416725D01*
X311101D01*
Y3495853D01*
D02*
G37*
G36*
Y3391325D02*
X231974D01*
X233488Y3379826D01*
X242828Y3357275D01*
X257687Y3337911D01*
X277052Y3323052D01*
X299602Y3313711D01*
X311101Y3312198D01*
Y3391325D01*
D02*
G37*
G36*
X415629D02*
X336501D01*
Y3312197D01*
X348001Y3313711D01*
X370551Y3323052D01*
X389916Y3337911D01*
X404775Y3357275D01*
X414115Y3379826D01*
X415629Y3391325D01*
D02*
G37*
G36*
X577801Y3497525D02*
X553602Y3494339D01*
X531052Y3484998D01*
X511687Y3470139D01*
X496828Y3450775D01*
X487488Y3428225D01*
X484302Y3404025D01*
X487488Y3379826D01*
X496828Y3357275D01*
X511687Y3337911D01*
X531052Y3323052D01*
X553602Y3313711D01*
X577801Y3310526D01*
X602001Y3313711D01*
X624551Y3323052D01*
X643916Y3337911D01*
X658775Y3357275D01*
X668115Y3379826D01*
X671301Y3404025D01*
X668115Y3428225D01*
X658775Y3450775D01*
X643916Y3470139D01*
X624551Y3484998D01*
X602001Y3494339D01*
X577801Y3497525D01*
D02*
G37*
G36*
Y3243525D02*
X553602Y3240339D01*
X531052Y3230998D01*
X511687Y3216139D01*
X496828Y3196775D01*
X487488Y3174225D01*
X484302Y3150025D01*
X487488Y3125826D01*
X496828Y3103275D01*
X511687Y3083911D01*
X531052Y3069052D01*
X553602Y3059711D01*
X577801Y3056526D01*
X602001Y3059711D01*
X624551Y3069052D01*
X643916Y3083911D01*
X658775Y3103275D01*
X668115Y3125826D01*
X671301Y3150025D01*
X668115Y3174225D01*
X658775Y3196775D01*
X643916Y3216139D01*
X624551Y3230998D01*
X602001Y3240339D01*
X577801Y3243525D01*
D02*
G37*
G36*
X323801D02*
X299602Y3240339D01*
X277052Y3230998D01*
X257687Y3216139D01*
X242828Y3196775D01*
X233488Y3174225D01*
X230302Y3150025D01*
X233488Y3125826D01*
X242828Y3103275D01*
X257687Y3083911D01*
X277052Y3069052D01*
X299602Y3059711D01*
X323801Y3056526D01*
X348001Y3059711D01*
X370551Y3069052D01*
X389916Y3083911D01*
X404775Y3103275D01*
X414115Y3125826D01*
X417301Y3150025D01*
X414115Y3174225D01*
X404775Y3196775D01*
X389916Y3216139D01*
X370551Y3230998D01*
X348001Y3240339D01*
X323801Y3243525D01*
D02*
G37*
G36*
X4750000Y3073536D02*
X4716145Y3070201D01*
X4683591Y3060326D01*
X4653589Y3044290D01*
X4627292Y3022708D01*
X4605711Y2996411D01*
X4589674Y2966409D01*
X4579799Y2933855D01*
X4576465Y2900000D01*
X4579799Y2866145D01*
X4589674Y2833591D01*
X4605711Y2803589D01*
X4627292Y2777292D01*
X4653589Y2755711D01*
X4683591Y2739674D01*
X4716145Y2729799D01*
X4750000Y2726464D01*
X4783855Y2729799D01*
X4816409Y2739674D01*
X4846411Y2755711D01*
X4872708Y2777292D01*
X4894290Y2803589D01*
X4910326Y2833591D01*
X4920201Y2866145D01*
X4923536Y2900000D01*
X4920201Y2933855D01*
X4910326Y2966409D01*
X4894290Y2996411D01*
X4872708Y3022708D01*
X4846411Y3044290D01*
X4816409Y3060326D01*
X4783855Y3070201D01*
X4750000Y3073536D01*
D02*
G37*
G36*
X1747500Y3071036D02*
X1713645Y3067701D01*
X1681091Y3057826D01*
X1651089Y3041789D01*
X1624792Y3020208D01*
X1603210Y2993911D01*
X1587174Y2963909D01*
X1577299Y2931355D01*
X1573964Y2897500D01*
X1577299Y2863645D01*
X1587174Y2831091D01*
X1603210Y2801089D01*
X1624792Y2774792D01*
X1651089Y2753210D01*
X1681091Y2737174D01*
X1713645Y2727299D01*
X1747500Y2723964D01*
X1781355Y2727299D01*
X1813909Y2737174D01*
X1843911Y2753210D01*
X1870208Y2774792D01*
X1891789Y2801089D01*
X1907826Y2831091D01*
X1917701Y2863645D01*
X1921036Y2897500D01*
X1917701Y2931355D01*
X1907826Y2963909D01*
X1891789Y2993911D01*
X1870208Y3020208D01*
X1843911Y3041789D01*
X1813909Y3057826D01*
X1781355Y3067701D01*
X1747500Y3071036D01*
D02*
G37*
G36*
X3357480Y2605497D02*
X3338869Y2601795D01*
X3323090Y2591253D01*
X3313090Y2576286D01*
X3219390D01*
X3209390Y2591253D01*
X3193612Y2601795D01*
X3175000Y2605497D01*
X3156388Y2601795D01*
X3140610Y2591253D01*
X3130068Y2575474D01*
X3126366Y2556863D01*
X3130068Y2538251D01*
X3140610Y2522473D01*
X3156388Y2511930D01*
X3175000Y2508228D01*
X3193612Y2511930D01*
X3209390Y2522473D01*
X3219390Y2537440D01*
X3313090D01*
X3323090Y2522473D01*
X3338869Y2511930D01*
X3357480Y2508228D01*
X3376092Y2511930D01*
X3391870Y2522473D01*
X3402413Y2538251D01*
X3406115Y2556863D01*
X3402413Y2575474D01*
X3391870Y2591253D01*
X3376092Y2601795D01*
X3357480Y2605497D01*
D02*
G37*
G36*
X4117340Y2617639D02*
X4098728Y2613937D01*
X4082950Y2603395D01*
X4072408Y2587616D01*
X4068706Y2569005D01*
X4072408Y2550393D01*
X4082950Y2534615D01*
X4097917Y2524615D01*
Y2510019D01*
X4057886Y2469988D01*
X4053675Y2463687D01*
X4052197Y2456254D01*
Y2334648D01*
X4053675Y2327215D01*
X4057886Y2320914D01*
X4126501Y2252299D01*
Y2225860D01*
X4111534Y2215859D01*
X4100992Y2200081D01*
X4097289Y2181470D01*
X4100992Y2162858D01*
X4111534Y2147080D01*
X4127312Y2136537D01*
X4145924Y2132835D01*
X4164535Y2136537D01*
X4180314Y2147080D01*
X4190856Y2162858D01*
X4194558Y2181470D01*
X4190856Y2200081D01*
X4180314Y2215859D01*
X4165347Y2225860D01*
Y2260344D01*
X4163868Y2267777D01*
X4159658Y2274078D01*
X4091043Y2342693D01*
Y2448208D01*
X4131074Y2488239D01*
X4131074Y2488239D01*
X4135285Y2494541D01*
X4136763Y2501974D01*
Y2524615D01*
X4151730Y2534615D01*
X4162272Y2550393D01*
X4165974Y2569005D01*
X4162272Y2587616D01*
X4151730Y2603395D01*
X4135952Y2613937D01*
X4117340Y2617639D01*
D02*
G37*
G36*
X3777200Y2401540D02*
X3758589Y2397838D01*
X3742811Y2387295D01*
X3732268Y2371517D01*
X3728566Y2352905D01*
X3732268Y2334294D01*
X3742811Y2318516D01*
X3756707Y2309230D01*
Y2172625D01*
X3758186Y2165192D01*
X3762396Y2158891D01*
X3807208Y2114080D01*
X3803696Y2096425D01*
X3807398Y2077814D01*
X3817941Y2062036D01*
X3833719Y2051493D01*
X3852331Y2047791D01*
X3870942Y2051493D01*
X3886720Y2062036D01*
X3897263Y2077814D01*
X3900965Y2096425D01*
X3897263Y2115037D01*
X3886720Y2130815D01*
X3870942Y2141358D01*
X3852331Y2145060D01*
X3834676Y2141548D01*
X3795554Y2180671D01*
Y2307922D01*
X3795812Y2307973D01*
X3811590Y2318516D01*
X3822133Y2334294D01*
X3825835Y2352905D01*
X3822133Y2371517D01*
X3811590Y2387295D01*
X3795812Y2397838D01*
X3777200Y2401540D01*
D02*
G37*
G36*
X4278754Y2585637D02*
X4260142Y2581935D01*
X4244364Y2571393D01*
X4233822Y2555614D01*
X4230120Y2537003D01*
X4233822Y2518391D01*
X4244364Y2502613D01*
X4260142Y2492070D01*
X4278754Y2488368D01*
X4296404Y2491879D01*
X4394739Y2393544D01*
Y2043919D01*
X4379773Y2033919D01*
X4369230Y2018141D01*
X4365528Y1999529D01*
X4369230Y1980918D01*
X4379773Y1965140D01*
X4395551Y1954597D01*
X4414162Y1950895D01*
X4432774Y1954597D01*
X4448552Y1965140D01*
X4459095Y1980918D01*
X4462797Y1999529D01*
X4459095Y2018141D01*
X4448552Y2033919D01*
X4433585Y2043919D01*
Y2401590D01*
X4432107Y2409023D01*
X4427897Y2415324D01*
X4323876Y2519345D01*
X4327388Y2537003D01*
X4323686Y2555614D01*
X4313144Y2571393D01*
X4297366Y2581935D01*
X4278754Y2585637D01*
D02*
G37*
G36*
X4155440Y2448921D02*
X4136828Y2445219D01*
X4121050Y2434676D01*
X4110508Y2418898D01*
X4106806Y2400286D01*
X4110508Y2381675D01*
X4121050Y2365896D01*
X4136828Y2355354D01*
X4155440Y2351652D01*
X4173094Y2355163D01*
X4207137Y2321121D01*
Y1991630D01*
X4192170Y1981630D01*
X4181628Y1965852D01*
X4177926Y1947240D01*
X4181628Y1928628D01*
X4192170Y1912850D01*
X4207948Y1902308D01*
X4226560Y1898606D01*
X4245172Y1902308D01*
X4260950Y1912850D01*
X4271492Y1928628D01*
X4275194Y1947240D01*
X4271492Y1965852D01*
X4260950Y1981630D01*
X4245983Y1991630D01*
Y2329166D01*
X4244505Y2336599D01*
X4240294Y2342901D01*
X4200563Y2382632D01*
X4204074Y2400286D01*
X4200372Y2418898D01*
X4189830Y2434676D01*
X4174052Y2445219D01*
X4155440Y2448921D01*
D02*
G37*
G36*
X3951026Y2230104D02*
X3932414Y2226402D01*
X3916636Y2215859D01*
X3906094Y2200081D01*
X3902391Y2181470D01*
X3906094Y2162858D01*
X3916636Y2147080D01*
X3932414Y2136537D01*
X3951026Y2132835D01*
X3968680Y2136347D01*
X4016697Y2088330D01*
Y1974792D01*
X4018176Y1967359D01*
X4022386Y1961058D01*
X4133311Y1850133D01*
X4139612Y1845923D01*
X4147045Y1844444D01*
X4259396D01*
X4266829Y1845923D01*
X4273130Y1850133D01*
X4321332Y1898336D01*
X4325543Y1904637D01*
X4327021Y1912070D01*
Y1978456D01*
X4341988Y1988456D01*
X4352531Y2004234D01*
X4356233Y2022846D01*
X4352531Y2041458D01*
X4341988Y2057236D01*
X4326210Y2067778D01*
X4307598Y2071480D01*
X4288987Y2067778D01*
X4273208Y2057236D01*
X4262666Y2041458D01*
X4258964Y2022846D01*
X4262666Y2004234D01*
X4273208Y1988456D01*
X4288175Y1978456D01*
Y1920115D01*
X4251350Y1883290D01*
X4155090D01*
X4055543Y1982838D01*
Y2096376D01*
X4054065Y2103809D01*
X4049854Y2110110D01*
X3996149Y2163816D01*
X3999660Y2181470D01*
X3995958Y2200081D01*
X3985416Y2215859D01*
X3969637Y2226402D01*
X3951026Y2230104D01*
D02*
G37*
G36*
X5920000Y1838047D02*
X5830000D01*
X5823094Y1836673D01*
X5817239Y1832761D01*
X5813327Y1826906D01*
X5811953Y1820000D01*
Y1739423D01*
X5754971D01*
X5744971Y1754390D01*
X5729193Y1764932D01*
X5710581Y1768634D01*
X5691970Y1764932D01*
X5676192Y1754390D01*
X5665649Y1738611D01*
X5661947Y1720000D01*
X5665649Y1701388D01*
X5676192Y1685610D01*
X5691970Y1675068D01*
X5710581Y1671365D01*
X5729193Y1675068D01*
X5744971Y1685610D01*
X5754971Y1700577D01*
X5811953D01*
Y1620000D01*
X5813327Y1613094D01*
X5817239Y1607239D01*
X5823094Y1603327D01*
X5830000Y1601953D01*
X5920000D01*
X5926906Y1603327D01*
X5932761Y1607239D01*
X5936673Y1613094D01*
X5938047Y1620000D01*
Y1820000D01*
X5936673Y1826906D01*
X5932761Y1832761D01*
X5926906Y1836673D01*
X5920000Y1838047D01*
D02*
G37*
G36*
X6370000D02*
X6337700D01*
Y1732699D01*
X6388047D01*
Y1820000D01*
X6386673Y1826906D01*
X6382761Y1832761D01*
X6376906Y1836673D01*
X6370000Y1838047D01*
D02*
G37*
G36*
X6312300D02*
X6280000D01*
X6273094Y1836673D01*
X6267239Y1832761D01*
X6263327Y1826906D01*
X6261953Y1820000D01*
Y1732699D01*
X6312300D01*
Y1838047D01*
D02*
G37*
G36*
X6388047Y1707299D02*
X6337700D01*
Y1601953D01*
X6370000D01*
X6376906Y1603327D01*
X6382761Y1607239D01*
X6386673Y1613094D01*
X6388047Y1620000D01*
Y1707299D01*
D02*
G37*
G36*
X6312300D02*
X6261953D01*
Y1620000D01*
X6263327Y1613094D01*
X6267239Y1607239D01*
X6273094Y1603327D01*
X6280000Y1601953D01*
X6312300D01*
Y1707299D01*
D02*
G37*
G36*
X5920000Y998047D02*
X5830000D01*
X5823094Y996673D01*
X5817239Y992761D01*
X5813327Y986906D01*
X5811953Y980000D01*
Y899423D01*
X5754971D01*
X5744971Y914390D01*
X5729193Y924932D01*
X5710581Y928634D01*
X5691970Y924932D01*
X5676192Y914390D01*
X5665649Y898612D01*
X5661947Y880000D01*
X5665649Y861388D01*
X5676192Y845610D01*
X5691970Y835068D01*
X5710581Y831366D01*
X5729193Y835068D01*
X5744971Y845610D01*
X5754971Y860577D01*
X5811953D01*
Y780000D01*
X5813327Y773094D01*
X5817239Y767239D01*
X5823094Y763327D01*
X5830000Y761953D01*
X5920000D01*
X5926906Y763327D01*
X5932761Y767239D01*
X5936673Y773094D01*
X5938047Y780000D01*
Y980000D01*
X5936673Y986906D01*
X5932761Y992761D01*
X5926906Y996673D01*
X5920000Y998047D01*
D02*
G37*
G36*
X6370000D02*
X6337701D01*
Y892700D01*
X6388047D01*
Y980000D01*
X6386673Y986906D01*
X6382761Y992761D01*
X6376906Y996673D01*
X6370000Y998047D01*
D02*
G37*
G36*
X6312301D02*
X6280000D01*
X6273094Y996673D01*
X6267239Y992761D01*
X6263327Y986906D01*
X6261953Y980000D01*
Y892700D01*
X6312301D01*
Y998047D01*
D02*
G37*
G36*
X6388047Y867300D02*
X6337701D01*
Y761953D01*
X6370000D01*
X6376906Y763327D01*
X6382761Y767239D01*
X6386673Y773094D01*
X6388047Y780000D01*
Y867300D01*
D02*
G37*
G36*
X6312301D02*
X6261953D01*
Y780000D01*
X6263327Y773094D01*
X6267239Y767239D01*
X6273094Y763327D01*
X6280000Y761953D01*
X6312301D01*
Y867300D01*
D02*
G37*
%LPD*%
D28*
X4226560Y1947240D02*
Y2329166D01*
X4155440Y2400286D02*
X4226560Y2329166D01*
X4278754Y2536998D02*
Y2537003D01*
X4414162Y2012230D02*
Y2401590D01*
X4278754Y2536998D02*
X4414162Y2401590D01*
X4071620Y2334648D02*
Y2456254D01*
X4117340Y2501974D02*
Y2569005D01*
X4071620Y2456254D02*
X4117340Y2501974D01*
X4071620Y2334648D02*
X4145924Y2260344D01*
Y2181470D02*
Y2260344D01*
X3776131Y2172625D02*
X3852331Y2096425D01*
X3951026Y2181470D02*
X3951026D01*
X4036120Y2096376D01*
Y1974792D02*
Y2096376D01*
X3776131Y2172625D02*
Y2351836D01*
X3777200Y2352905D01*
X2768574Y4356126D02*
X2917820Y4206880D01*
X2618077Y4320014D02*
Y4396131D01*
X2693442Y4244647D02*
Y4244648D01*
X2618077Y4320014D02*
X2693442Y4244648D01*
X2814321Y4470400D02*
X2963540Y4321181D01*
Y4321180D02*
Y4321181D01*
X2692345Y4470400D02*
X2814321D01*
X2698977Y4356126D02*
X2768574D01*
X4147045Y1863867D02*
X4259396D01*
X4307598Y1912070D02*
Y2022846D01*
X4036120Y1974792D02*
X4147045Y1863867D01*
X4259396D02*
X4307598Y1912070D01*
X3175000Y2556863D02*
X3357480D01*
X2618077Y4396131D02*
X2692345Y4470400D01*
X5710581Y880000D02*
X5875000D01*
X383884Y3851942D02*
X577801Y3658025D01*
X5710581Y1720000D02*
X5875000D01*
D32*
X400000Y4727000D02*
D03*
D33*
Y4473000D02*
D03*
D34*
X4750000Y2900000D02*
D03*
X1747500Y2897500D02*
D03*
D35*
X3030000Y5570000D02*
D03*
X1750000D02*
D03*
D36*
X3810000Y3810000D02*
D03*
X4064000D02*
D03*
X6096000Y2286000D02*
D03*
X2032000Y4318000D02*
D03*
X6350000Y2286000D02*
D03*
X508000Y1778000D02*
D03*
Y2032000D02*
D03*
X254000D02*
D03*
X6096000D02*
D03*
X5842000Y2286000D02*
D03*
Y2032000D02*
D03*
X254000Y1524000D02*
D03*
Y1778000D02*
D03*
X6350000Y2032000D02*
D03*
X508000Y1524000D02*
D03*
X2286000Y4318000D02*
D03*
D37*
X577801Y3658025D02*
D03*
Y3404025D02*
D03*
Y3150025D02*
D03*
X323801D02*
D03*
Y3404025D02*
D03*
Y3658025D02*
D03*
D38*
X6150000Y350000D02*
D03*
Y5450000D02*
D03*
X350000Y350000D02*
D03*
Y5450000D02*
D03*
D39*
X3388420Y3845091D02*
D03*
X3480019Y3733172D02*
D03*
X3388420Y3621253D02*
D03*
X2293572Y3674634D02*
D03*
X2199433Y3786553D02*
D03*
X2293571Y3895933D02*
D03*
X4278754Y2537003D02*
D03*
X4117340Y2569005D02*
D03*
X2703583Y3401400D02*
D03*
Y3491400D02*
D03*
X3852331Y2096425D02*
D03*
X3777200Y2352905D02*
D03*
X3951026Y2181470D02*
D03*
X2917820Y4206880D02*
D03*
X2693442Y4244647D02*
D03*
X3540019Y4514250D02*
D03*
X4122227Y4178297D02*
D03*
X2149927Y4701937D02*
D03*
X4207960Y4412980D02*
D03*
X4145924Y2181470D02*
D03*
X4155440Y2400286D02*
D03*
X4307598Y2022846D02*
D03*
X4414162Y1999529D02*
D03*
X4226560Y1947240D02*
D03*
X3175000Y2556863D02*
D03*
X2552473Y2899861D02*
D03*
X2953760Y2795000D02*
D03*
X2929813Y3086231D02*
D03*
X2885505Y3829453D02*
D03*
X3086430Y2869160D02*
D03*
Y2940280D02*
D03*
X3086100Y3829453D02*
D03*
X3357480Y2556863D02*
D03*
X3400000Y2724760D02*
D03*
X3413570Y2869160D02*
D03*
Y2940280D02*
D03*
X3543917Y2795000D02*
D03*
X3949780Y2900000D02*
D03*
X3128090Y3461057D02*
D03*
X3100000Y3071254D02*
D03*
X3400000D02*
D03*
X3351590Y3461057D02*
D03*
X3543917Y3005000D02*
D03*
X2643551Y2786750D02*
D03*
X3025000Y2724760D02*
D03*
X3474000D02*
D03*
X3858320Y2786005D02*
D03*
X3239840Y3552520D02*
D03*
X2643551Y3013250D02*
D03*
X3475000Y3071254D02*
D03*
X3858320Y3011500D02*
D03*
X2698977Y4356126D02*
D03*
X2879191Y4324435D02*
D03*
X5710581Y880000D02*
D03*
X2756982Y4189862D02*
D03*
X2879191Y4132172D02*
D03*
X2758391Y4414589D02*
D03*
X2963540Y4321180D02*
D03*
X383884Y3851942D02*
D03*
X1165948Y5139237D02*
D03*
X5484271Y5058983D02*
D03*
X5598000Y5153983D02*
D03*
X5711729Y5058983D02*
D03*
X6215380Y880000D02*
D03*
Y1720000D02*
D03*
X2953379Y5184477D02*
D03*
X2583574Y5552156D02*
D03*
Y5397844D02*
D03*
X2503279Y5549616D02*
D03*
X2480418Y5474999D02*
D03*
X2686729D02*
D03*
X2663869Y5549616D02*
D03*
X2503280Y5400384D02*
D03*
X2663869D02*
D03*
X2841629Y5275940D02*
D03*
X2728379Y5184477D02*
D03*
X2416308Y4914237D02*
D03*
X1259999Y3788026D02*
D03*
X1170940Y3876936D02*
D03*
X1081881Y3788026D02*
D03*
X2171933Y5184478D02*
D03*
X1946933Y5209878D02*
D03*
X2060183Y5301341D02*
D03*
X2213173Y4914237D02*
D03*
X1907250Y4914237D02*
D03*
X4952920Y4340600D02*
D03*
X5710581Y1720000D02*
D03*
X4776475Y3488366D02*
D03*
Y3413750D02*
D03*
X4783184Y4694668D02*
D03*
Y4615600D02*
D03*
X4958000Y4694668D02*
D03*
X5758000Y3704833D02*
D03*
Y3622716D02*
D03*
Y3869066D02*
D03*
Y3786950D02*
D03*
Y4115416D02*
D03*
Y4033300D02*
D03*
Y4279650D02*
D03*
Y4197533D02*
D03*
Y4443883D02*
D03*
X5853000Y4694668D02*
D03*
X5758000D02*
D03*
X4776475Y3339135D02*
D03*
X4783080Y4340600D02*
D03*
X4924980Y3339135D02*
D03*
X4958000Y4531612D02*
D03*
X5158213Y3718380D02*
D03*
X5160500Y3922971D02*
D03*
Y4120471D02*
D03*
X5158213Y4322820D02*
D03*
X5357999Y3718380D02*
D03*
X5358000Y3922971D02*
D03*
Y4120471D02*
D03*
X5357999Y4322820D02*
D03*
X5557786Y3718380D02*
D03*
X5556276Y3922971D02*
D03*
Y4120471D02*
D03*
X5557786Y4322820D02*
D03*
X5853000Y3339578D02*
D03*
X5766979Y3339578D02*
D03*
X5758000Y3540600D02*
D03*
Y3951183D02*
D03*
Y4361766D02*
D03*
Y4526000D02*
D03*
X4863000Y4694668D02*
D03*
X5058320Y3819119D02*
D03*
X5259196Y3823100D02*
D03*
X5456696D02*
D03*
X5657680Y3819120D02*
D03*
X5058320Y4020599D02*
D03*
X5259196Y4020600D02*
D03*
X5457893D02*
D03*
X5657680Y4020600D02*
D03*
X5058320Y4222078D02*
D03*
X5259196Y4218100D02*
D03*
X5456696D02*
D03*
X5657680Y4222079D02*
D03*
X5678000Y4694668D02*
D03*
X4850728Y3339135D02*
D03*
X5058320Y3718380D02*
D03*
X5258106D02*
D03*
X5457893D02*
D03*
X5657679D02*
D03*
X5058320Y3919859D02*
D03*
X5259196Y3922971D02*
D03*
X5456696D02*
D03*
X5657680Y3919860D02*
D03*
X5058320Y4121338D02*
D03*
X5259196Y4120471D02*
D03*
X5456696D02*
D03*
X5657680Y4121339D02*
D03*
X5058320Y4322818D02*
D03*
X5258106Y4322820D02*
D03*
X5457893D02*
D03*
X5657679Y4322819D02*
D03*
X5678000Y4526000D02*
D03*
D40*
X6325000Y880000D02*
D03*
Y1720000D02*
D03*
X5875000Y880000D02*
D03*
Y1720000D02*
D03*
%TF.MD5,7d2c97975e55a0bb366cc2dbe316fb36*%
M02*
