%TF.GenerationSoftware,Altium Limited,Altium Designer,20.1.8 (145)*%
G04 Layer_Color=39423*
%FSLAX45Y45*%
%MOMM*%
%TF.SameCoordinates,F34F671C-B0F6-4AC1-94B4-1D61ADA518EE*%
%TF.FilePolarity,Negative*%
%TF.FileFunction,Soldermask,Top*%
%TF.Part,Single*%
G01*
G75*
%TA.AperFunction,BGAPad,CuDef*%
%ADD18R,1.45000X1.45000*%
%TA.AperFunction,SMDPad,CuDef*%
%ADD22R,2.50000X1.00000*%
%TA.AperFunction,BGAPad,CuDef*%
%ADD23R,0.50000X0.50000*%
%TA.AperFunction,ComponentPad*%
G04:AMPARAMS|DCode=47|XSize=1.7832mm|YSize=1.7832mm|CornerRadius=0.2596mm|HoleSize=0mm|Usage=FLASHONLY|Rotation=0.000|XOffset=0mm|YOffset=0mm|HoleType=Round|Shape=RoundedRectangle|*
%AMROUNDEDRECTD47*
21,1,1.78320,1.26400,0,0,0.0*
21,1,1.26400,1.78320,0,0,0.0*
1,1,0.51920,0.63200,-0.63200*
1,1,0.51920,-0.63200,-0.63200*
1,1,0.51920,-0.63200,0.63200*
1,1,0.51920,0.63200,0.63200*
%
%ADD47ROUNDEDRECTD47*%
%ADD48C,1.78320*%
%ADD49C,3.40320*%
%ADD50C,1.95320*%
%ADD51C,1.70320*%
%ADD52C,1.80320*%
%TA.AperFunction,WasherPad*%
%ADD53C,3.40320*%
%TA.AperFunction,SMDPad,CuDef*%
G04:AMPARAMS|DCode=58|XSize=1.4782mm|YSize=1.1032mm|CornerRadius=0.1466mm|HoleSize=0mm|Usage=FLASHONLY|Rotation=270.000|XOffset=0mm|YOffset=0mm|HoleType=Round|Shape=RoundedRectangle|*
%AMROUNDEDRECTD58*
21,1,1.47820,0.81000,0,0,270.0*
21,1,1.18500,1.10320,0,0,270.0*
1,1,0.29320,-0.40500,-0.59250*
1,1,0.29320,-0.40500,0.59250*
1,1,0.29320,0.40500,0.59250*
1,1,0.29320,0.40500,-0.59250*
%
%ADD58ROUNDEDRECTD58*%
%ADD59C,1.20320*%
G04:AMPARAMS|DCode=60|XSize=0.632mm|YSize=0.932mm|CornerRadius=0.1mm|HoleSize=0mm|Usage=FLASHONLY|Rotation=90.000|XOffset=0mm|YOffset=0mm|HoleType=Round|Shape=RoundedRectangle|*
%AMROUNDEDRECTD60*
21,1,0.63200,0.73200,0,0,90.0*
21,1,0.43200,0.93200,0,0,90.0*
1,1,0.20000,0.36600,0.21600*
1,1,0.20000,0.36600,-0.21600*
1,1,0.20000,-0.36600,-0.21600*
1,1,0.20000,-0.36600,0.21600*
%
%ADD60ROUNDEDRECTD60*%
G04:AMPARAMS|DCode=61|XSize=1.0512mm|YSize=1.0512mm|CornerRadius=0.15248mm|HoleSize=0mm|Usage=FLASHONLY|Rotation=180.000|XOffset=0mm|YOffset=0mm|HoleType=Round|Shape=RoundedRectangle|*
%AMROUNDEDRECTD61*
21,1,1.05120,0.74624,0,0,180.0*
21,1,0.74624,1.05120,0,0,180.0*
1,1,0.30496,-0.37312,0.37312*
1,1,0.30496,0.37312,0.37312*
1,1,0.30496,0.37312,-0.37312*
1,1,0.30496,-0.37312,-0.37312*
%
%ADD61ROUNDEDRECTD61*%
G04:AMPARAMS|DCode=62|XSize=1.0512mm|YSize=1.0512mm|CornerRadius=0.144mm|HoleSize=0mm|Usage=FLASHONLY|Rotation=0.000|XOffset=0mm|YOffset=0mm|HoleType=Round|Shape=RoundedRectangle|*
%AMROUNDEDRECTD62*
21,1,1.05120,0.76320,0,0,0.0*
21,1,0.76320,1.05120,0,0,0.0*
1,1,0.28800,0.38160,-0.38160*
1,1,0.28800,-0.38160,-0.38160*
1,1,0.28800,-0.38160,0.38160*
1,1,0.28800,0.38160,0.38160*
%
%ADD62ROUNDEDRECTD62*%
G04:AMPARAMS|DCode=63|XSize=1.0512mm|YSize=1.0512mm|CornerRadius=0.15248mm|HoleSize=0mm|Usage=FLASHONLY|Rotation=90.000|XOffset=0mm|YOffset=0mm|HoleType=Round|Shape=RoundedRectangle|*
%AMROUNDEDRECTD63*
21,1,1.05120,0.74624,0,0,90.0*
21,1,0.74624,1.05120,0,0,90.0*
1,1,0.30496,0.37312,0.37312*
1,1,0.30496,0.37312,-0.37312*
1,1,0.30496,-0.37312,-0.37312*
1,1,0.30496,-0.37312,0.37312*
%
%ADD63ROUNDEDRECTD63*%
%TA.AperFunction,ConnectorPad*%
%ADD64R,1.00320X0.60320*%
%TA.AperFunction,SMDPad,CuDef*%
%ADD65R,0.80000X0.80000*%
%TA.AperFunction,ConnectorPad*%
%ADD66R,0.90000X0.50000*%
%ADD67R,0.60320X1.00320*%
%ADD68R,0.50000X0.90000*%
%TA.AperFunction,SMDPad,CuDef*%
G04:AMPARAMS|DCode=69|XSize=0.7032mm|YSize=1.0032mm|CornerRadius=0.1041mm|HoleSize=0mm|Usage=FLASHONLY|Rotation=90.000|XOffset=0mm|YOffset=0mm|HoleType=Round|Shape=RoundedRectangle|*
%AMROUNDEDRECTD69*
21,1,0.70320,0.79500,0,0,90.0*
21,1,0.49500,1.00320,0,0,90.0*
1,1,0.20820,0.39750,0.24750*
1,1,0.20820,0.39750,-0.24750*
1,1,0.20820,-0.39750,-0.24750*
1,1,0.20820,-0.39750,0.24750*
%
%ADD69ROUNDEDRECTD69*%
%TA.AperFunction,BGAPad,CuDef*%
%ADD70R,0.65240X0.65240*%
%ADD71R,0.65200X0.65200*%
%TA.AperFunction,SMDPad,CuDef*%
%ADD72R,0.35200X0.30200*%
G04:AMPARAMS|DCode=73|XSize=1.4782mm|YSize=1.1032mm|CornerRadius=0.1466mm|HoleSize=0mm|Usage=FLASHONLY|Rotation=0.000|XOffset=0mm|YOffset=0mm|HoleType=Round|Shape=RoundedRectangle|*
%AMROUNDEDRECTD73*
21,1,1.47820,0.81000,0,0,0.0*
21,1,1.18500,1.10320,0,0,0.0*
1,1,0.29320,0.59250,-0.40500*
1,1,0.29320,-0.59250,-0.40500*
1,1,0.29320,-0.59250,0.40500*
1,1,0.29320,0.59250,0.40500*
%
%ADD73ROUNDEDRECTD73*%
G04:AMPARAMS|DCode=74|XSize=0.7032mm|YSize=1.2532mm|CornerRadius=0.1266mm|HoleSize=0mm|Usage=FLASHONLY|Rotation=270.000|XOffset=0mm|YOffset=0mm|HoleType=Round|Shape=RoundedRectangle|*
%AMROUNDEDRECTD74*
21,1,0.70320,1.00000,0,0,270.0*
21,1,0.45000,1.25320,0,0,270.0*
1,1,0.25320,-0.50000,-0.22500*
1,1,0.25320,-0.50000,0.22500*
1,1,0.25320,0.50000,0.22500*
1,1,0.25320,0.50000,-0.22500*
%
%ADD74ROUNDEDRECTD74*%
G04:AMPARAMS|DCode=75|XSize=0.8032mm|YSize=1.3032mm|CornerRadius=0.1316mm|HoleSize=0mm|Usage=FLASHONLY|Rotation=90.000|XOffset=0mm|YOffset=0mm|HoleType=Round|Shape=RoundedRectangle|*
%AMROUNDEDRECTD75*
21,1,0.80320,1.04000,0,0,90.0*
21,1,0.54000,1.30320,0,0,90.0*
1,1,0.26320,0.52000,0.27000*
1,1,0.26320,0.52000,-0.27000*
1,1,0.26320,-0.52000,-0.27000*
1,1,0.26320,-0.52000,0.27000*
%
%ADD75ROUNDEDRECTD75*%
G36*
X5628000Y4230600D02*
Y4145600D01*
X5483000D01*
Y4290600D01*
X5568000D01*
X5628000Y4230600D01*
D02*
G37*
D18*
X5358000Y3823100D02*
D03*
X5160500D02*
D03*
Y4020600D02*
D03*
Y4218100D02*
D03*
X5358000D02*
D03*
X5555500Y4020600D02*
D03*
Y3823100D02*
D03*
X5358000Y4020600D02*
D03*
D22*
X3250000Y2900000D02*
D03*
D23*
X3475000Y2795000D02*
D03*
X3400000Y3005000D02*
D03*
X3475000D02*
D03*
X3100000D02*
D03*
X3025000Y2795000D02*
D03*
X3400000D02*
D03*
D47*
X400000Y4727000D02*
D03*
D48*
Y4473000D02*
D03*
D49*
X4750000Y2900000D02*
D03*
X1747500Y2897500D02*
D03*
D50*
X3030000Y5570000D02*
D03*
X1750000D02*
D03*
D51*
X3810000Y3810000D02*
D03*
X4064000D02*
D03*
X6096000Y2286000D02*
D03*
X2032000Y4318000D02*
D03*
X6350000Y2286000D02*
D03*
X508000Y1778000D02*
D03*
Y2032000D02*
D03*
X254000D02*
D03*
X6096000D02*
D03*
X5842000Y2286000D02*
D03*
Y2032000D02*
D03*
X254000Y1524000D02*
D03*
Y1778000D02*
D03*
X6350000Y2032000D02*
D03*
X508000Y1524000D02*
D03*
X2286000Y4318000D02*
D03*
D52*
X577801Y3658025D02*
D03*
Y3404025D02*
D03*
Y3150025D02*
D03*
X323801D02*
D03*
Y3404025D02*
D03*
Y3658025D02*
D03*
D53*
X6150000Y350000D02*
D03*
Y5450000D02*
D03*
X350000Y350000D02*
D03*
Y5450000D02*
D03*
D58*
X3213180Y3734463D02*
D03*
X3388420D02*
D03*
X2468812Y3785263D02*
D03*
X2293572D02*
D03*
X2643551Y2900000D02*
D03*
X2818791D02*
D03*
X3858320Y2900000D02*
D03*
X3683080D02*
D03*
D59*
X945576Y4819237D02*
D03*
X4577554Y4777961D02*
D03*
X4336782Y3714054D02*
D03*
X4555606Y3620600D02*
D03*
Y3408239D02*
D03*
X3500000Y2558018D02*
D03*
X3268650Y2465330D02*
D03*
X1750000Y5356860D02*
D03*
X759460Y3788025D02*
D03*
X4577554Y4412980D02*
D03*
X3202198Y5009237D02*
D03*
D60*
X2614211Y3311400D02*
D03*
Y3401400D02*
D03*
Y3491400D02*
D03*
Y3581400D02*
D03*
X2494212D02*
D03*
Y3491400D02*
D03*
Y3401400D02*
D03*
Y3311400D02*
D03*
D61*
X935385Y3788025D02*
D03*
Y3658025D02*
D03*
X2060184Y4701937D02*
D03*
Y4831937D02*
D03*
X3903080Y2352905D02*
D03*
Y2482905D02*
D03*
X3481215Y4195798D02*
D03*
Y4065798D02*
D03*
X5159920Y4879237D02*
D03*
Y5009237D02*
D03*
X1310640Y4791480D02*
D03*
Y4921480D02*
D03*
X1077514Y5139237D02*
D03*
Y5009237D02*
D03*
D62*
X530000Y4087321D02*
D03*
Y3957321D02*
D03*
X1170940Y3658025D02*
D03*
Y3788026D02*
D03*
D63*
X3628119Y4514250D02*
D03*
X3758119D02*
D03*
X3138650Y2288991D02*
D03*
X3268650D02*
D03*
X2948791Y2595330D02*
D03*
X2818791D02*
D03*
X2929560Y3177900D02*
D03*
X3059560D02*
D03*
X3561180Y3203300D02*
D03*
X3431180D02*
D03*
X2134166Y5570000D02*
D03*
X2004166D02*
D03*
X4427441Y4083298D02*
D03*
X4297441D02*
D03*
Y4412980D02*
D03*
X4427441D02*
D03*
X530000Y4272280D02*
D03*
X400000D02*
D03*
X3858320Y3203300D02*
D03*
X3988320D02*
D03*
D64*
X4868000Y3700600D02*
D03*
Y3540600D02*
D03*
Y3620600D02*
D03*
Y3780600D02*
D03*
Y3860600D02*
D03*
Y3940600D02*
D03*
Y4020600D02*
D03*
Y4100600D02*
D03*
Y4180600D02*
D03*
Y4260600D02*
D03*
Y4420600D02*
D03*
Y4500600D02*
D03*
D65*
X5853000Y3425600D02*
D03*
X4863000D02*
D03*
Y4615600D02*
D03*
X5853000D02*
D03*
D66*
X5848000Y4500600D02*
D03*
Y4420600D02*
D03*
Y4340600D02*
D03*
Y4260600D02*
D03*
Y4180600D02*
D03*
Y4100600D02*
D03*
Y4020600D02*
D03*
Y3940600D02*
D03*
Y3860600D02*
D03*
Y3780600D02*
D03*
Y3700600D02*
D03*
Y3620600D02*
D03*
Y3540600D02*
D03*
X4868000Y4340600D02*
D03*
D67*
X5758000Y3430600D02*
D03*
X5678000D02*
D03*
X5598000D02*
D03*
X5518000D02*
D03*
X5438000D02*
D03*
X5358000D02*
D03*
X5278000D02*
D03*
X5198000D02*
D03*
X5118000D02*
D03*
X5038000D02*
D03*
X4958000D02*
D03*
X5038000Y4610600D02*
D03*
X5118000D02*
D03*
X5198000D02*
D03*
X5278000D02*
D03*
X5358000D02*
D03*
X5438000D02*
D03*
X5518000D02*
D03*
X5598000D02*
D03*
D68*
X4958000D02*
D03*
X5678000D02*
D03*
X5758000D02*
D03*
D69*
X2929813Y2288991D02*
D03*
X2709813D02*
D03*
X3903080Y2656321D02*
D03*
X3683080D02*
D03*
D70*
X2985000Y2900000D02*
D03*
X3515000D02*
D03*
D71*
X3325000Y3005000D02*
D03*
Y2795000D02*
D03*
X3250000Y3005000D02*
D03*
Y2795000D02*
D03*
X3175000Y3005000D02*
D03*
Y2795000D02*
D03*
X3025000Y3005000D02*
D03*
X3100000Y2795000D02*
D03*
D72*
X3010000Y2975000D02*
D03*
D73*
X3239840Y3460117D02*
D03*
Y3284877D02*
D03*
X2060183Y5034637D02*
D03*
Y5209877D02*
D03*
X2841629Y5009237D02*
D03*
Y5184477D02*
D03*
X5598000Y4884654D02*
D03*
Y5059894D02*
D03*
D74*
X2984898Y3734463D02*
D03*
Y3829463D02*
D03*
Y3924463D02*
D03*
X2694898D02*
D03*
Y3734463D02*
D03*
X3758119Y4273298D02*
D03*
Y4178297D02*
D03*
Y4083298D02*
D03*
X4023119D02*
D03*
Y4178297D02*
D03*
Y4273298D02*
D03*
X1540627Y5009237D02*
D03*
Y4914237D02*
D03*
Y4819237D02*
D03*
X1805627D02*
D03*
Y4914237D02*
D03*
Y5009237D02*
D03*
X2604740D02*
D03*
Y4819237D02*
D03*
X2314740D02*
D03*
Y4914237D02*
D03*
Y5009237D02*
D03*
D75*
X2583573Y5475000D02*
D03*
Y5665000D02*
D03*
X2833573Y5570000D02*
D03*
%TF.MD5,0000618b7ece7541788490b89922a616*%
M02*
