%TF.GenerationSoftware,Altium Limited,Altium Designer,20.1.8 (145)*%
G04 Layer_Color=16711833*
%FSLAX45Y45*%
%MOMM*%
%TF.SameCoordinates,F34F671C-B0F6-4AC1-94B4-1D61ADA518EE*%
%TF.FilePolarity,Negative*%
%TF.FileFunction,Soldermask,Bot*%
%TF.Part,Single*%
G01*
G75*
%TA.AperFunction,SMDPad,CuDef*%
G04:AMPARAMS|DCode=46|XSize=2.3032mm|YSize=1.2032mm|CornerRadius=0.1516mm|HoleSize=0mm|Usage=FLASHONLY|Rotation=90.000|XOffset=0mm|YOffset=0mm|HoleType=Round|Shape=RoundedRectangle|*
%AMROUNDEDRECTD46*
21,1,2.30320,0.90000,0,0,90.0*
21,1,2.00000,1.20320,0,0,90.0*
1,1,0.30320,0.45000,1.00000*
1,1,0.30320,0.45000,-1.00000*
1,1,0.30320,-0.45000,-1.00000*
1,1,0.30320,-0.45000,1.00000*
%
%ADD46ROUNDEDRECTD46*%
%TA.AperFunction,ComponentPad*%
G04:AMPARAMS|DCode=47|XSize=1.7832mm|YSize=1.7832mm|CornerRadius=0.2596mm|HoleSize=0mm|Usage=FLASHONLY|Rotation=0.000|XOffset=0mm|YOffset=0mm|HoleType=Round|Shape=RoundedRectangle|*
%AMROUNDEDRECTD47*
21,1,1.78320,1.26400,0,0,0.0*
21,1,1.26400,1.78320,0,0,0.0*
1,1,0.51920,0.63200,-0.63200*
1,1,0.51920,-0.63200,-0.63200*
1,1,0.51920,-0.63200,0.63200*
1,1,0.51920,0.63200,0.63200*
%
%ADD47ROUNDEDRECTD47*%
%ADD48C,1.78320*%
%ADD49C,3.40320*%
%ADD50C,1.95320*%
%ADD51C,1.70320*%
%ADD52C,1.80320*%
%TA.AperFunction,WasherPad*%
%ADD53C,3.40320*%
D46*
X6325000Y880000D02*
D03*
Y1720000D02*
D03*
X5875000Y880000D02*
D03*
Y1720000D02*
D03*
D47*
X400000Y4727000D02*
D03*
D48*
Y4473000D02*
D03*
D49*
X4750000Y2900000D02*
D03*
X1747500Y2897500D02*
D03*
D50*
X3030000Y5570000D02*
D03*
X1750000D02*
D03*
D51*
X3810000Y3810000D02*
D03*
X4064000D02*
D03*
X6096000Y2286000D02*
D03*
X2032000Y4318000D02*
D03*
X6350000Y2286000D02*
D03*
X508000Y1778000D02*
D03*
Y2032000D02*
D03*
X254000D02*
D03*
X6096000D02*
D03*
X5842000Y2286000D02*
D03*
Y2032000D02*
D03*
X254000Y1524000D02*
D03*
Y1778000D02*
D03*
X6350000Y2032000D02*
D03*
X508000Y1524000D02*
D03*
X2286000Y4318000D02*
D03*
D52*
X577801Y3658025D02*
D03*
Y3404025D02*
D03*
Y3150025D02*
D03*
X323801D02*
D03*
Y3404025D02*
D03*
Y3658025D02*
D03*
D53*
X6150000Y350000D02*
D03*
Y5450000D02*
D03*
X350000Y350000D02*
D03*
Y5450000D02*
D03*
%TF.MD5,a268e9f1ada2887588260ca9c295e702*%
M02*
