%TF.GenerationSoftware,Altium Limited,Altium Designer,20.1.8 (145)*%
G04 Layer_Physical_Order=1*
G04 Layer_Color=2232046*
%FSLAX45Y45*%
%MOMM*%
%TF.SameCoordinates,F34F671C-B0F6-4AC1-94B4-1D61ADA518EE*%
%TF.FilePolarity,Positive*%
%TF.FileFunction,Copper,L1,Top,Signal*%
%TF.Part,Single*%
G01*
G75*
%TA.AperFunction,SMDPad,CuDef*%
G04:AMPARAMS|DCode=10|XSize=1.275mm|YSize=0.9mm|CornerRadius=0.045mm|HoleSize=0mm|Usage=FLASHONLY|Rotation=270.000|XOffset=0mm|YOffset=0mm|HoleType=Round|Shape=RoundedRectangle|*
%AMROUNDEDRECTD10*
21,1,1.27500,0.81000,0,0,270.0*
21,1,1.18500,0.90000,0,0,270.0*
1,1,0.09000,-0.40500,-0.59250*
1,1,0.09000,-0.40500,0.59250*
1,1,0.09000,0.40500,0.59250*
1,1,0.09000,0.40500,-0.59250*
%
%ADD10ROUNDEDRECTD10*%
%ADD11C,1.00000*%
G04:AMPARAMS|DCode=12|XSize=0.48mm|YSize=0.78mm|CornerRadius=0.024mm|HoleSize=0mm|Usage=FLASHONLY|Rotation=90.000|XOffset=0mm|YOffset=0mm|HoleType=Round|Shape=RoundedRectangle|*
%AMROUNDEDRECTD12*
21,1,0.48000,0.73200,0,0,90.0*
21,1,0.43200,0.78000,0,0,90.0*
1,1,0.04800,0.36600,0.21600*
1,1,0.04800,0.36600,-0.21600*
1,1,0.04800,-0.36600,-0.21600*
1,1,0.04800,-0.36600,0.21600*
%
%ADD12ROUNDEDRECTD12*%
G04:AMPARAMS|DCode=13|XSize=0.848mm|YSize=0.848mm|CornerRadius=0.05088mm|HoleSize=0mm|Usage=FLASHONLY|Rotation=180.000|XOffset=0mm|YOffset=0mm|HoleType=Round|Shape=RoundedRectangle|*
%AMROUNDEDRECTD13*
21,1,0.84800,0.74624,0,0,180.0*
21,1,0.74624,0.84800,0,0,180.0*
1,1,0.10176,-0.37312,0.37312*
1,1,0.10176,0.37312,0.37312*
1,1,0.10176,0.37312,-0.37312*
1,1,0.10176,-0.37312,-0.37312*
%
%ADD13ROUNDEDRECTD13*%
G04:AMPARAMS|DCode=14|XSize=0.848mm|YSize=0.848mm|CornerRadius=0.0424mm|HoleSize=0mm|Usage=FLASHONLY|Rotation=0.000|XOffset=0mm|YOffset=0mm|HoleType=Round|Shape=RoundedRectangle|*
%AMROUNDEDRECTD14*
21,1,0.84800,0.76320,0,0,0.0*
21,1,0.76320,0.84800,0,0,0.0*
1,1,0.08480,0.38160,-0.38160*
1,1,0.08480,-0.38160,-0.38160*
1,1,0.08480,-0.38160,0.38160*
1,1,0.08480,0.38160,0.38160*
%
%ADD14ROUNDEDRECTD14*%
G04:AMPARAMS|DCode=15|XSize=0.848mm|YSize=0.848mm|CornerRadius=0.05088mm|HoleSize=0mm|Usage=FLASHONLY|Rotation=90.000|XOffset=0mm|YOffset=0mm|HoleType=Round|Shape=RoundedRectangle|*
%AMROUNDEDRECTD15*
21,1,0.84800,0.74624,0,0,90.0*
21,1,0.74624,0.84800,0,0,90.0*
1,1,0.10176,0.37312,0.37312*
1,1,0.10176,0.37312,-0.37312*
1,1,0.10176,-0.37312,-0.37312*
1,1,0.10176,-0.37312,0.37312*
%
%ADD15ROUNDEDRECTD15*%
%TA.AperFunction,ConnectorPad*%
%ADD16R,0.80000X0.40000*%
%TA.AperFunction,SMDPad,CuDef*%
%ADD17R,0.70000X0.70000*%
%TA.AperFunction,BGAPad,CuDef*%
%ADD18R,1.45000X1.45000*%
%TA.AperFunction,SMDPad,CuDef*%
%ADD19R,0.60000X0.60000*%
%TA.AperFunction,ConnectorPad*%
%ADD20R,0.40000X0.80000*%
%TA.AperFunction,SMDPad,CuDef*%
G04:AMPARAMS|DCode=21|XSize=0.5mm|YSize=0.8mm|CornerRadius=0.0025mm|HoleSize=0mm|Usage=FLASHONLY|Rotation=90.000|XOffset=0mm|YOffset=0mm|HoleType=Round|Shape=RoundedRectangle|*
%AMROUNDEDRECTD21*
21,1,0.50000,0.79500,0,0,90.0*
21,1,0.49500,0.80000,0,0,90.0*
1,1,0.00500,0.39750,0.24750*
1,1,0.00500,0.39750,-0.24750*
1,1,0.00500,-0.39750,-0.24750*
1,1,0.00500,-0.39750,0.24750*
%
%ADD21ROUNDEDRECTD21*%
%ADD22R,2.50000X1.00000*%
%TA.AperFunction,BGAPad,CuDef*%
%ADD23R,0.50000X0.50000*%
%TA.AperFunction,SMDPad,CuDef*%
%ADD24R,0.20000X0.15000*%
G04:AMPARAMS|DCode=25|XSize=1.275mm|YSize=0.9mm|CornerRadius=0.045mm|HoleSize=0mm|Usage=FLASHONLY|Rotation=0.000|XOffset=0mm|YOffset=0mm|HoleType=Round|Shape=RoundedRectangle|*
%AMROUNDEDRECTD25*
21,1,1.27500,0.81000,0,0,0.0*
21,1,1.18500,0.90000,0,0,0.0*
1,1,0.09000,0.59250,-0.40500*
1,1,0.09000,-0.59250,-0.40500*
1,1,0.09000,-0.59250,0.40500*
1,1,0.09000,0.59250,0.40500*
%
%ADD25ROUNDEDRECTD25*%
G04:AMPARAMS|DCode=26|XSize=0.5mm|YSize=1.05mm|CornerRadius=0.025mm|HoleSize=0mm|Usage=FLASHONLY|Rotation=270.000|XOffset=0mm|YOffset=0mm|HoleType=Round|Shape=RoundedRectangle|*
%AMROUNDEDRECTD26*
21,1,0.50000,1.00000,0,0,270.0*
21,1,0.45000,1.05000,0,0,270.0*
1,1,0.05000,-0.50000,-0.22500*
1,1,0.05000,-0.50000,0.22500*
1,1,0.05000,0.50000,0.22500*
1,1,0.05000,0.50000,-0.22500*
%
%ADD26ROUNDEDRECTD26*%
G04:AMPARAMS|DCode=27|XSize=0.6mm|YSize=1.1mm|CornerRadius=0.03mm|HoleSize=0mm|Usage=FLASHONLY|Rotation=90.000|XOffset=0mm|YOffset=0mm|HoleType=Round|Shape=RoundedRectangle|*
%AMROUNDEDRECTD27*
21,1,0.60000,1.04000,0,0,90.0*
21,1,0.54000,1.10000,0,0,90.0*
1,1,0.06000,0.52000,0.27000*
1,1,0.06000,0.52000,-0.27000*
1,1,0.06000,-0.52000,-0.27000*
1,1,0.06000,-0.52000,0.27000*
%
%ADD27ROUNDEDRECTD27*%
%TA.AperFunction,Conductor*%
%ADD28C,0.12700*%
%ADD29C,0.25400*%
%ADD30C,0.15240*%
%ADD31C,0.50800*%
%TA.AperFunction,ComponentPad*%
G04:AMPARAMS|DCode=32|XSize=1.58mm|YSize=1.58mm|CornerRadius=0.158mm|HoleSize=0mm|Usage=FLASHONLY|Rotation=0.000|XOffset=0mm|YOffset=0mm|HoleType=Round|Shape=RoundedRectangle|*
%AMROUNDEDRECTD32*
21,1,1.58000,1.26400,0,0,0.0*
21,1,1.26400,1.58000,0,0,0.0*
1,1,0.31600,0.63200,-0.63200*
1,1,0.31600,-0.63200,-0.63200*
1,1,0.31600,-0.63200,0.63200*
1,1,0.31600,0.63200,0.63200*
%
%ADD32ROUNDEDRECTD32*%
%ADD33C,1.58000*%
%ADD34C,3.20000*%
%ADD35C,1.75000*%
%ADD36C,1.50000*%
%ADD37C,1.60000*%
%TA.AperFunction,WasherPad*%
%ADD38C,3.20000*%
%TA.AperFunction,ViaPad*%
%ADD39C,0.70000*%
G36*
X5756872Y5450000D02*
X5756005D01*
X5760856Y5388365D01*
X5775289Y5328249D01*
X5798948Y5271130D01*
X5831251Y5218416D01*
X5871404Y5171403D01*
X5904127Y5143455D01*
Y4774116D01*
X5904104Y4774000D01*
Y3274000D01*
X5904127Y3273886D01*
X5904127Y2400000D01*
X6474104Y2400000D01*
Y743128D01*
X6150000D01*
Y743995D01*
X6088366Y739144D01*
X6028249Y724711D01*
X5971130Y701052D01*
X5918416Y668748D01*
X5871404Y628596D01*
X5831251Y581584D01*
X5798948Y528870D01*
X5775289Y471751D01*
X5760856Y411634D01*
X5756005Y350000D01*
X5756872D01*
Y25896D01*
X743128D01*
Y350000D01*
X743995D01*
X739144Y411634D01*
X724711Y471751D01*
X701052Y528870D01*
X668748Y581584D01*
X628596Y628596D01*
X581584Y668748D01*
X528870Y701052D01*
X471751Y724711D01*
X411634Y739144D01*
X350000Y743995D01*
Y743128D01*
X25896D01*
X25897Y5056872D01*
X350000D01*
Y5056005D01*
X411634Y5060856D01*
X471751Y5075289D01*
X528870Y5098948D01*
X581584Y5131251D01*
X628596Y5171403D01*
X668748Y5218416D01*
X701052Y5271130D01*
X724711Y5328249D01*
X739144Y5388365D01*
X743995Y5450000D01*
X743128D01*
Y5774104D01*
X5756872D01*
Y5450000D01*
D02*
G37*
%LPC*%
G36*
X2635573Y5708008D02*
X2531574D01*
X2525448Y5706789D01*
X2520255Y5703319D01*
X2516784Y5698126D01*
X2515566Y5692000D01*
Y5684423D01*
X2357693D01*
X2350260Y5682945D01*
X2343958Y5678735D01*
X2254647Y5589423D01*
X2189614D01*
Y5607312D01*
X2188234Y5614253D01*
X2184302Y5620137D01*
X2178419Y5624068D01*
X2171478Y5625448D01*
X2096854D01*
X2089913Y5624068D01*
X2084029Y5620137D01*
X2080098Y5614253D01*
X2078717Y5607312D01*
Y5532688D01*
X2080098Y5525747D01*
X2084029Y5519863D01*
X2089913Y5515932D01*
X2096854Y5514552D01*
X2171478D01*
X2178419Y5515932D01*
X2184302Y5519863D01*
X2188234Y5525747D01*
X2189614Y5532688D01*
Y5550577D01*
X2262692D01*
X2270126Y5552055D01*
X2276427Y5556266D01*
X2365738Y5645577D01*
X2515566D01*
Y5638000D01*
X2516784Y5631874D01*
X2520255Y5626681D01*
X2525448Y5623211D01*
X2531574Y5621993D01*
X2635573D01*
X2641699Y5623211D01*
X2646892Y5626681D01*
X2650362Y5631874D01*
X2651581Y5638000D01*
Y5692000D01*
X2650362Y5698126D01*
X2646892Y5703319D01*
X2641699Y5706789D01*
X2635573Y5708008D01*
D02*
G37*
G36*
X3030000Y5671065D02*
X3003843Y5667621D01*
X2979468Y5657525D01*
X2958537Y5641463D01*
X2942475Y5620532D01*
X2937635Y5608847D01*
X2896103D01*
X2891699Y5611789D01*
X2885573Y5613008D01*
X2781574D01*
X2775448Y5611789D01*
X2770255Y5608319D01*
X2766784Y5603126D01*
X2765566Y5597000D01*
Y5543000D01*
X2766784Y5536874D01*
X2770255Y5531681D01*
X2775448Y5528211D01*
X2781574Y5526993D01*
X2885573D01*
X2891699Y5528211D01*
X2896103Y5531154D01*
X2937635D01*
X2942475Y5519468D01*
X2958537Y5498537D01*
X2979468Y5482475D01*
X3003843Y5472379D01*
X3030000Y5468935D01*
X3056157Y5472379D01*
X3080532Y5482475D01*
X3101463Y5498537D01*
X3117525Y5519468D01*
X3127621Y5543843D01*
X3131065Y5570000D01*
X3127621Y5596157D01*
X3117525Y5620532D01*
X3101463Y5641463D01*
X3080532Y5657525D01*
X3056157Y5667621D01*
X3030000Y5671065D01*
D02*
G37*
G36*
X1750000D02*
X1723843Y5667621D01*
X1699468Y5657525D01*
X1678537Y5641463D01*
X1662475Y5620532D01*
X1652379Y5596157D01*
X1648935Y5570000D01*
X1652379Y5543843D01*
X1662475Y5519468D01*
X1678537Y5498537D01*
X1699468Y5482475D01*
X1723843Y5472379D01*
X1724102Y5472345D01*
Y5414964D01*
X1704796Y5402064D01*
X1690938Y5381324D01*
X1686072Y5356860D01*
X1690938Y5332396D01*
X1704796Y5311656D01*
X1724102Y5298756D01*
Y5243774D01*
X1634222Y5153894D01*
X1630012Y5147593D01*
X1628533Y5140160D01*
Y4939660D01*
X1622532Y4933660D01*
X1607079D01*
Y4936737D01*
X1602260Y4948370D01*
X1590627Y4953189D01*
X1490627D01*
X1478993Y4948370D01*
X1474174Y4936737D01*
Y4933660D01*
X1366088D01*
Y4958792D01*
X1364708Y4965733D01*
X1360777Y4971616D01*
X1354893Y4975548D01*
X1347952Y4976928D01*
X1273328D01*
X1266387Y4975548D01*
X1260503Y4971616D01*
X1256572Y4965733D01*
X1255192Y4958792D01*
Y4884168D01*
X1256572Y4877227D01*
X1260503Y4871343D01*
X1266387Y4867412D01*
X1273328Y4866031D01*
X1347952D01*
X1354893Y4867412D01*
X1360777Y4871343D01*
X1364708Y4877227D01*
X1366088Y4884168D01*
Y4894813D01*
X1474174D01*
Y4891736D01*
X1478993Y4880103D01*
X1490627Y4875284D01*
X1590627D01*
X1602260Y4880103D01*
X1607079Y4891736D01*
Y4894813D01*
X1630578D01*
X1638011Y4896292D01*
X1644312Y4900502D01*
X1661690Y4917880D01*
X1661691Y4917881D01*
X1665901Y4924182D01*
X1667379Y4931615D01*
Y5132114D01*
X1745422Y5210157D01*
X1907089Y5048490D01*
X1915490Y5042876D01*
X1925401Y5040905D01*
X1983396D01*
Y4994137D01*
X1984731Y4987426D01*
X1988533Y4981737D01*
X1994222Y4977935D01*
X2000933Y4976600D01*
X2119433D01*
X2126145Y4977935D01*
X2131834Y4981737D01*
X2132905Y4983339D01*
X2249695D01*
X2253106Y4975103D01*
X2264740Y4970284D01*
X2364740D01*
X2376374Y4975103D01*
X2381193Y4986737D01*
Y4989813D01*
X2404545D01*
X2473498Y4920860D01*
Y4562182D01*
X2474977Y4554749D01*
X2479187Y4548448D01*
X2653854Y4373781D01*
X2650342Y4356126D01*
X2654044Y4337514D01*
X2664587Y4321736D01*
X2680365Y4311194D01*
X2698977Y4307492D01*
X2717588Y4311194D01*
X2733367Y4321736D01*
X2743909Y4337514D01*
X2747611Y4356126D01*
X2743909Y4374738D01*
X2733367Y4390516D01*
X2717588Y4401058D01*
X2698977Y4404760D01*
X2681323Y4401249D01*
X2512344Y4570228D01*
Y4928906D01*
X2510866Y4936338D01*
X2506656Y4942640D01*
X2426325Y5022971D01*
X2420023Y5027181D01*
X2412590Y5028660D01*
X2381193D01*
Y5031737D01*
X2376374Y5043370D01*
X2364740Y5048189D01*
X2264740D01*
X2253106Y5043370D01*
X2249695Y5035134D01*
X2136970D01*
Y5075137D01*
X2135635Y5081848D01*
X2131834Y5087538D01*
X2126145Y5091339D01*
X2119433Y5092674D01*
X2028148D01*
X2028018Y5092700D01*
X1936128D01*
X1775898Y5252931D01*
Y5298756D01*
X1795204Y5311656D01*
X1809062Y5332396D01*
X1813928Y5356860D01*
X1809062Y5381324D01*
X1795204Y5402064D01*
X1775898Y5414964D01*
Y5472345D01*
X1776157Y5472379D01*
X1800532Y5482475D01*
X1821463Y5498537D01*
X1837525Y5519468D01*
X1847621Y5543843D01*
X1848508Y5550577D01*
X1948717D01*
Y5532688D01*
X1950098Y5525747D01*
X1954029Y5519863D01*
X1959913Y5515932D01*
X1966854Y5514552D01*
X2041478D01*
X2048419Y5515932D01*
X2054302Y5519863D01*
X2058234Y5525747D01*
X2059614Y5532688D01*
Y5607312D01*
X2058234Y5614253D01*
X2054302Y5620137D01*
X2048419Y5624068D01*
X2041478Y5625448D01*
X1966854D01*
X1959913Y5624068D01*
X1954029Y5620137D01*
X1950098Y5614253D01*
X1948717Y5607312D01*
Y5589423D01*
X1848508D01*
X1847621Y5596157D01*
X1837525Y5620532D01*
X1821463Y5641463D01*
X1800532Y5657525D01*
X1776157Y5667621D01*
X1750000Y5671065D01*
D02*
G37*
G36*
X2635573Y5518008D02*
X2596273D01*
Y5487701D01*
X2651581D01*
Y5502000D01*
X2650362Y5508126D01*
X2646892Y5513319D01*
X2641699Y5516789D01*
X2635573Y5518008D01*
D02*
G37*
G36*
X2570873D02*
X2531574D01*
X2525448Y5516789D01*
X2520255Y5513319D01*
X2516784Y5508126D01*
X2515566Y5502000D01*
Y5487701D01*
X2570873D01*
Y5518008D01*
D02*
G37*
G36*
X2651581Y5462301D02*
X2596273D01*
Y5431993D01*
X2635573D01*
X2641699Y5433211D01*
X2646892Y5436681D01*
X2650362Y5441875D01*
X2651581Y5448000D01*
Y5462301D01*
D02*
G37*
G36*
X2570873D02*
X2515566D01*
Y5448000D01*
X2516784Y5441875D01*
X2520255Y5436681D01*
X2525448Y5433211D01*
X2531574Y5431993D01*
X2570873D01*
Y5462301D01*
D02*
G37*
G36*
X2119433Y5267914D02*
X2072883D01*
Y5222577D01*
X2136970D01*
Y5250377D01*
X2135635Y5257088D01*
X2131834Y5262778D01*
X2126145Y5266579D01*
X2119433Y5267914D01*
D02*
G37*
G36*
X2047483D02*
X2000933D01*
X1994222Y5266579D01*
X1988533Y5262778D01*
X1984731Y5257088D01*
X1983396Y5250377D01*
Y5222577D01*
X2047483D01*
Y5267914D01*
D02*
G37*
G36*
X2900879Y5242514D02*
X2854329D01*
Y5197177D01*
X2918416D01*
Y5224977D01*
X2917081Y5231688D01*
X2913279Y5237377D01*
X2907590Y5241179D01*
X2900879Y5242514D01*
D02*
G37*
G36*
X2828929D02*
X2782378D01*
X2775667Y5241179D01*
X2769978Y5237377D01*
X2766177Y5231688D01*
X2764842Y5224977D01*
Y5197177D01*
X2828929D01*
Y5242514D01*
D02*
G37*
G36*
X1114826Y5194685D02*
X1090214D01*
Y5151937D01*
X1132963D01*
Y5176549D01*
X1131582Y5183489D01*
X1127651Y5189373D01*
X1121767Y5193305D01*
X1114826Y5194685D01*
D02*
G37*
G36*
X1064814D02*
X1040202D01*
X1033262Y5193305D01*
X1027378Y5189373D01*
X1023446Y5183489D01*
X1022066Y5176549D01*
Y5151937D01*
X1064814D01*
Y5194685D01*
D02*
G37*
G36*
X2136970Y5197177D02*
X2072883D01*
Y5151840D01*
X2119433D01*
X2126145Y5153175D01*
X2131834Y5156976D01*
X2135635Y5162666D01*
X2136970Y5169377D01*
Y5197177D01*
D02*
G37*
G36*
X2047483D02*
X1983396D01*
Y5169377D01*
X1984731Y5162666D01*
X1988533Y5156976D01*
X1994222Y5153175D01*
X2000933Y5151840D01*
X2047483D01*
Y5197177D01*
D02*
G37*
G36*
X2918416Y5171777D02*
X2854329D01*
Y5126440D01*
X2900879D01*
X2907590Y5127775D01*
X2913279Y5131576D01*
X2917081Y5137266D01*
X2918416Y5143977D01*
Y5171777D01*
D02*
G37*
G36*
X2828929D02*
X2764842D01*
Y5143977D01*
X2766177Y5137266D01*
X2769978Y5131576D01*
X2775667Y5127775D01*
X2782378Y5126440D01*
X2828929D01*
Y5171777D01*
D02*
G37*
G36*
X1132963Y5126537D02*
X1090214D01*
Y5083788D01*
X1114826D01*
X1121767Y5085169D01*
X1127651Y5089100D01*
X1131582Y5094984D01*
X1132963Y5101925D01*
Y5126537D01*
D02*
G37*
G36*
X1064814D02*
X1022066D01*
Y5101925D01*
X1023446Y5094984D01*
X1027378Y5089100D01*
X1033262Y5085169D01*
X1040202Y5083788D01*
X1064814D01*
Y5126537D01*
D02*
G37*
G36*
X5657250Y5117931D02*
X5610700D01*
Y5072594D01*
X5674787D01*
Y5100394D01*
X5673452Y5107105D01*
X5669651Y5112794D01*
X5663961Y5116596D01*
X5657250Y5117931D01*
D02*
G37*
G36*
X5585300D02*
X5538750D01*
X5532039Y5116596D01*
X5526350Y5112794D01*
X5522548Y5107105D01*
X5521213Y5100394D01*
Y5072594D01*
X5585300D01*
Y5117931D01*
D02*
G37*
G36*
X3202198Y5073165D02*
X3177734Y5068299D01*
X3156994Y5054441D01*
X3144094Y5035134D01*
X2918416D01*
Y5049737D01*
X2917081Y5056448D01*
X2913279Y5062137D01*
X2907590Y5065939D01*
X2900879Y5067274D01*
X2782378D01*
X2775667Y5065939D01*
X2769978Y5062137D01*
X2766177Y5056448D01*
X2764842Y5049737D01*
Y5035134D01*
X2669785D01*
X2666374Y5043370D01*
X2654740Y5048189D01*
X2554740D01*
X2543106Y5043370D01*
X2538288Y5031737D01*
Y4986737D01*
X2543106Y4975103D01*
X2554740Y4970284D01*
X2654740D01*
X2666374Y4975103D01*
X2669785Y4983339D01*
X2764842D01*
Y4968737D01*
X2766177Y4962026D01*
X2769978Y4956336D01*
X2775667Y4952535D01*
X2782378Y4951200D01*
X2792893D01*
Y4113219D01*
X585432D01*
Y4125481D01*
X584117Y4132091D01*
X580373Y4137694D01*
X574769Y4141439D01*
X568160Y4142753D01*
X550718D01*
Y4216832D01*
X567312D01*
X574253Y4218212D01*
X580137Y4222143D01*
X584068Y4228027D01*
X585448Y4234968D01*
Y4309592D01*
X584068Y4316533D01*
X580137Y4322417D01*
X574253Y4326348D01*
X567312Y4327728D01*
X492688D01*
X485747Y4326348D01*
X479863Y4322417D01*
X475932Y4316533D01*
X474552Y4309592D01*
Y4234968D01*
X475932Y4228027D01*
X479863Y4222143D01*
X485747Y4218212D01*
X492688Y4216832D01*
X509282D01*
Y4142753D01*
X491840D01*
X485230Y4141439D01*
X479627Y4137694D01*
X475883Y4132091D01*
X474568Y4125481D01*
Y4049161D01*
X475883Y4042552D01*
X479627Y4036948D01*
X485230Y4033204D01*
X491840Y4031889D01*
X568160D01*
X574769Y4033204D01*
X580373Y4036948D01*
X584117Y4042552D01*
X585432Y4049161D01*
Y4061424D01*
X2792893D01*
Y3315343D01*
Y2976787D01*
X2778291D01*
X2771580Y2975452D01*
X2765890Y2971650D01*
X2762089Y2965961D01*
X2760754Y2959250D01*
Y2840750D01*
X2762089Y2834039D01*
X2765890Y2828349D01*
X2771580Y2824548D01*
X2778291Y2823213D01*
X2799368D01*
Y2650778D01*
X2781479D01*
X2774538Y2649398D01*
X2768654Y2645466D01*
X2764723Y2639582D01*
X2763342Y2632642D01*
Y2558018D01*
X2764723Y2551077D01*
X2768654Y2545193D01*
X2774538Y2541262D01*
X2781479Y2539881D01*
X2799368D01*
Y2494096D01*
X2696079Y2390807D01*
X2691868Y2384506D01*
X2690390Y2377073D01*
Y2327758D01*
X2670063D01*
X2660151Y2323653D01*
X2656046Y2313741D01*
Y2264241D01*
X2660151Y2254330D01*
X2670063Y2250224D01*
X2749563D01*
X2759475Y2254330D01*
X2763580Y2264241D01*
Y2313741D01*
X2759475Y2323653D01*
X2749563Y2327758D01*
X2729236D01*
Y2369028D01*
X2832525Y2472317D01*
X2836735Y2478618D01*
X2838214Y2486051D01*
Y2539881D01*
X2856103D01*
X2863044Y2541262D01*
X2868927Y2545193D01*
X2872859Y2551077D01*
X2874239Y2558018D01*
Y2632642D01*
X2872859Y2639582D01*
X2868927Y2645466D01*
X2863044Y2649398D01*
X2856103Y2650778D01*
X2838214D01*
Y2823213D01*
X2859291D01*
X2866002Y2824548D01*
X2871691Y2828349D01*
X2875493Y2834039D01*
X2876828Y2840750D01*
Y2874103D01*
X2947300D01*
Y2862300D01*
X3022700D01*
Y2937700D01*
X2947300D01*
Y2925898D01*
X2876828D01*
Y2959250D01*
X2875493Y2965961D01*
X2871691Y2971650D01*
X2866002Y2975452D01*
X2859291Y2976787D01*
X2844688D01*
Y3289445D01*
X3163053D01*
Y3244377D01*
X3164388Y3237666D01*
X3168189Y3231976D01*
X3173879Y3228175D01*
X3180590Y3226840D01*
X3224103D01*
Y3042700D01*
X3137300D01*
Y2967300D01*
X3362700D01*
Y3042700D01*
X3344423D01*
Y3123523D01*
X3368727Y3147827D01*
X3395130D01*
X3395254Y3147851D01*
X3468492D01*
X3475433Y3149232D01*
X3481317Y3153163D01*
X3485248Y3159047D01*
X3486629Y3165988D01*
Y3240612D01*
X3485248Y3247553D01*
X3481317Y3253436D01*
X3475433Y3257368D01*
X3468492Y3258748D01*
X3393868D01*
X3386927Y3257368D01*
X3381044Y3253436D01*
X3377112Y3247553D01*
X3375732Y3240612D01*
Y3186673D01*
X3360682D01*
X3353249Y3185195D01*
X3346948Y3180984D01*
X3311266Y3145303D01*
X3307056Y3139001D01*
X3305577Y3131568D01*
Y3042700D01*
X3275898D01*
Y3226840D01*
X3299090D01*
X3305801Y3228175D01*
X3311491Y3231976D01*
X3315292Y3237666D01*
X3316627Y3244377D01*
Y3289445D01*
X3541757D01*
Y3258748D01*
X3523868D01*
X3516927Y3257368D01*
X3511044Y3253436D01*
X3507112Y3247553D01*
X3505732Y3240612D01*
Y3165988D01*
X3507112Y3159047D01*
X3511044Y3153163D01*
X3516927Y3149232D01*
X3523868Y3147851D01*
X3598492D01*
X3605433Y3149232D01*
X3611317Y3153163D01*
X3615248Y3159047D01*
X3616629Y3165988D01*
Y3240612D01*
X3615248Y3247553D01*
X3611317Y3253436D01*
X3605433Y3257368D01*
X3598492Y3258748D01*
X3580603D01*
Y3289445D01*
X3626404D01*
X3657183Y3258667D01*
Y3203300D01*
Y2976787D01*
X3642580D01*
X3635869Y2975452D01*
X3630180Y2971651D01*
X3626378Y2965961D01*
X3625043Y2959250D01*
Y2925898D01*
X3552700D01*
Y2937700D01*
X3477300D01*
Y2862300D01*
X3552700D01*
Y2874102D01*
X3625043D01*
Y2840750D01*
X3626378Y2834039D01*
X3630180Y2828349D01*
X3635869Y2824548D01*
X3642580Y2823213D01*
X3663657D01*
Y2695088D01*
X3643330D01*
X3633418Y2690983D01*
X3629313Y2681071D01*
Y2631571D01*
X3633418Y2621660D01*
X3643330Y2617554D01*
X3722830D01*
X3732742Y2621660D01*
X3736847Y2631571D01*
Y2681071D01*
X3732742Y2690983D01*
X3722830Y2695088D01*
X3702503D01*
Y2823213D01*
X3723580D01*
X3730291Y2824548D01*
X3735981Y2828349D01*
X3739782Y2834039D01*
X3741117Y2840750D01*
Y2959250D01*
X3739782Y2965961D01*
X3735981Y2971651D01*
X3730291Y2975452D01*
X3723580Y2976787D01*
X3708978D01*
Y3183877D01*
X3802871D01*
Y3165988D01*
X3804252Y3159047D01*
X3808183Y3153163D01*
X3814067Y3149232D01*
X3821008Y3147851D01*
X3895632D01*
X3902573Y3149232D01*
X3908456Y3153163D01*
X3912388Y3159047D01*
X3913768Y3165988D01*
Y3240612D01*
X3912388Y3247553D01*
X3908456Y3253436D01*
X3902573Y3257368D01*
X3895632Y3258748D01*
X3821008D01*
X3814067Y3257368D01*
X3808183Y3253436D01*
X3804252Y3247553D01*
X3802871Y3240612D01*
Y3222723D01*
X3708978D01*
Y3269394D01*
X3707007Y3279304D01*
X3701393Y3287706D01*
X3655444Y3333655D01*
X3647042Y3339269D01*
X3637131Y3341240D01*
X3306308D01*
X3305801Y3341579D01*
X3299090Y3342914D01*
X3180590D01*
X3173879Y3341579D01*
X3173372Y3341240D01*
X2844688D01*
Y4087321D01*
Y4951200D01*
X2900879D01*
X2907590Y4952535D01*
X2913279Y4956336D01*
X2917081Y4962026D01*
X2918416Y4968737D01*
Y4983339D01*
X3144094D01*
X3156994Y4964032D01*
X3177734Y4950175D01*
X3202198Y4945308D01*
X3226662Y4950175D01*
X3247402Y4964032D01*
X3260302Y4983339D01*
X5104472D01*
Y4971925D01*
X5105852Y4964984D01*
X5109784Y4959100D01*
X5115667Y4955169D01*
X5122608Y4953788D01*
X5197232D01*
X5204173Y4955169D01*
X5210057Y4959100D01*
X5213988Y4964984D01*
X5215369Y4971925D01*
Y4983339D01*
X5346277D01*
X5463275Y4866341D01*
X5471677Y4860727D01*
X5481587Y4858756D01*
X5521213D01*
Y4844154D01*
X5522548Y4837443D01*
X5526350Y4831753D01*
X5532039Y4827952D01*
X5538750Y4826617D01*
X5572103D01*
Y4663300D01*
X5565300D01*
Y4557900D01*
X5630700D01*
Y4663300D01*
X5623898D01*
Y4826617D01*
X5657250D01*
X5663961Y4827952D01*
X5669651Y4831753D01*
X5673452Y4837443D01*
X5674787Y4844154D01*
Y4925154D01*
X5673452Y4931865D01*
X5669651Y4937555D01*
X5663961Y4941356D01*
X5657250Y4942691D01*
X5538750D01*
X5532039Y4941356D01*
X5526350Y4937555D01*
X5522548Y4931865D01*
X5521213Y4925154D01*
Y4910551D01*
X5492315D01*
X5375317Y5027549D01*
X5366915Y5033163D01*
X5357005Y5035134D01*
X5215369D01*
Y5046549D01*
X5213988Y5053489D01*
X5210057Y5059373D01*
X5204173Y5063305D01*
X5197232Y5064685D01*
X5122608D01*
X5115667Y5063305D01*
X5109784Y5059373D01*
X5105852Y5053489D01*
X5104472Y5046549D01*
Y5035134D01*
X3260302D01*
X3247402Y5054441D01*
X3226662Y5068299D01*
X3202198Y5073165D01*
D02*
G37*
G36*
X5674787Y5047194D02*
X5610700D01*
Y5001857D01*
X5657250D01*
X5663961Y5003192D01*
X5669651Y5006993D01*
X5673452Y5012683D01*
X5674787Y5019394D01*
Y5047194D01*
D02*
G37*
G36*
X5585300D02*
X5521213D01*
Y5019394D01*
X5522548Y5012683D01*
X5526350Y5006993D01*
X5532039Y5003192D01*
X5538750Y5001857D01*
X5585300D01*
Y5047194D01*
D02*
G37*
G36*
X1855627Y5048189D02*
X1755627D01*
X1743993Y5043370D01*
X1739174Y5031737D01*
Y5022049D01*
X1738794Y5010010D01*
X1731361Y5008531D01*
X1725060Y5004321D01*
X1690355Y4969616D01*
X1686144Y4963315D01*
X1684666Y4955882D01*
Y4887782D01*
X1635544Y4838660D01*
X1607079D01*
Y4841737D01*
X1602260Y4853370D01*
X1590627Y4858189D01*
X1490627D01*
X1478993Y4853370D01*
X1474174Y4841737D01*
Y4838660D01*
X1362752D01*
X1360777Y4841616D01*
X1354893Y4845548D01*
X1347952Y4846928D01*
X1273328D01*
X1266387Y4845548D01*
X1260503Y4841616D01*
X1258528Y4838660D01*
X1005641D01*
X1004638Y4843701D01*
X990780Y4864441D01*
X970040Y4878299D01*
X945576Y4883165D01*
X921112Y4878299D01*
X900372Y4864441D01*
X886514Y4843701D01*
X885511Y4838660D01*
X616314D01*
X569520Y4885454D01*
X563219Y4889665D01*
X555786Y4891143D01*
X274666D01*
X274664Y4891143D01*
X267232Y4889665D01*
X260930Y4885454D01*
X117879Y4742404D01*
X113669Y4736102D01*
X112191Y4728669D01*
Y2917260D01*
X113669Y2909827D01*
X117879Y2903525D01*
X1489851Y1531554D01*
X1496152Y1527344D01*
X1503585Y1525865D01*
X3959558D01*
X3966991Y1527344D01*
X3973292Y1531554D01*
X4321333Y1879594D01*
X4325543Y1885896D01*
X4327022Y1893329D01*
Y1978456D01*
X4341988Y1988456D01*
X4352531Y2004234D01*
X4356233Y2022846D01*
X4352721Y2040500D01*
X4394303Y2082082D01*
X5321031D01*
X5665459Y1737654D01*
X5661947Y1720000D01*
X5665649Y1701388D01*
X5676192Y1685610D01*
X5691158Y1675610D01*
Y924390D01*
X5676192Y914390D01*
X5665649Y898612D01*
X5661947Y880000D01*
X5665649Y861388D01*
X5676192Y845610D01*
X5691970Y835068D01*
X5710581Y831366D01*
X5729193Y835068D01*
X5744971Y845610D01*
X5755514Y861388D01*
X5759216Y880000D01*
X5755514Y898612D01*
X5744971Y914390D01*
X5730005Y924390D01*
Y1675610D01*
X5744971Y1685610D01*
X5755514Y1701388D01*
X5759216Y1720000D01*
X5755514Y1738611D01*
X5744971Y1754390D01*
X5729193Y1764932D01*
X5710581Y1768634D01*
X5692927Y1765123D01*
X5342810Y2115240D01*
X5336509Y2119450D01*
X5329076Y2120928D01*
X4386257D01*
X4378824Y2119450D01*
X4372523Y2115240D01*
X4325252Y2067969D01*
X4307598Y2071480D01*
X4288987Y2067778D01*
X4273208Y2057236D01*
X4262666Y2041458D01*
X4258964Y2022846D01*
X4262666Y2004234D01*
X4273208Y1988456D01*
X4288175Y1978456D01*
Y1901374D01*
X3951513Y1564711D01*
X1511630D01*
X151037Y2925305D01*
Y4720624D01*
X282710Y4852297D01*
X547740D01*
X594535Y4805502D01*
X600836Y4801292D01*
X608269Y4799813D01*
X608270Y4799814D01*
X885511D01*
X886514Y4794772D01*
X900372Y4774033D01*
X921112Y4760175D01*
X945576Y4755308D01*
X970040Y4760175D01*
X990780Y4774033D01*
X1004638Y4794772D01*
X1005641Y4799814D01*
X1255192D01*
Y4754168D01*
X1256572Y4747227D01*
X1260503Y4741343D01*
X1266387Y4737412D01*
X1273328Y4736031D01*
X1347952D01*
X1354893Y4737412D01*
X1360777Y4741343D01*
X1364708Y4747227D01*
X1366088Y4754168D01*
Y4799814D01*
X1474174D01*
Y4796737D01*
X1478993Y4785103D01*
X1490627Y4780284D01*
X1590627D01*
X1602260Y4785103D01*
X1607079Y4796737D01*
Y4799814D01*
X1643590D01*
X1651023Y4801292D01*
X1657324Y4805502D01*
X1717823Y4866002D01*
X1722034Y4872303D01*
X1723512Y4879736D01*
Y4947836D01*
X1746840Y4971164D01*
X1753504D01*
X1755627Y4970284D01*
X1855627D01*
X1867260Y4975103D01*
X1872079Y4986737D01*
Y5031737D01*
X1867260Y5043370D01*
X1855627Y5048189D01*
D02*
G37*
G36*
X1114826Y5064685D02*
X1040202D01*
X1033262Y5063305D01*
X1027378Y5059373D01*
X1023446Y5053489D01*
X1022066Y5046549D01*
Y5028660D01*
X614402D01*
X606969Y5027181D01*
X600667Y5022971D01*
X547145Y4969448D01*
X228166D01*
X228165Y4969449D01*
X220732Y4967970D01*
X214431Y4963759D01*
X60466Y4809795D01*
X56256Y4803494D01*
X54777Y4796061D01*
Y2733153D01*
X56256Y2725720D01*
X60466Y2719418D01*
X1347235Y1432649D01*
X1353537Y1428439D01*
X1360970Y1426961D01*
X3970383D01*
X3977817Y1428439D01*
X3984118Y1432649D01*
X4427897Y1876428D01*
X4432107Y1882730D01*
X4433586Y1890163D01*
X4433585Y1890164D01*
Y1955139D01*
X4448552Y1965140D01*
X4459095Y1980918D01*
X4462797Y1999529D01*
X4459095Y2018141D01*
X4448552Y2033919D01*
X4432774Y2044462D01*
X4414162Y2048164D01*
X4395551Y2044462D01*
X4379773Y2033919D01*
X4369230Y2018141D01*
X4365528Y1999529D01*
X4369230Y1980918D01*
X4379773Y1965140D01*
X4394739Y1955139D01*
Y1898208D01*
X3962338Y1465807D01*
X1369015D01*
X93624Y2741198D01*
Y4788015D01*
X236211Y4930602D01*
X555190D01*
X562623Y4932081D01*
X568924Y4936291D01*
X622447Y4989813D01*
X1022066D01*
Y4971925D01*
X1023446Y4964984D01*
X1027378Y4959100D01*
X1033262Y4955169D01*
X1040202Y4953788D01*
X1114826D01*
X1121767Y4955169D01*
X1127651Y4959100D01*
X1131582Y4964984D01*
X1132963Y4971925D01*
Y4989813D01*
X1474174D01*
Y4986737D01*
X1478993Y4975103D01*
X1490627Y4970284D01*
X1590627D01*
X1602260Y4975103D01*
X1607079Y4986737D01*
Y5031737D01*
X1602260Y5043370D01*
X1590627Y5048189D01*
X1490627D01*
X1478993Y5043370D01*
X1474174Y5031737D01*
Y5028660D01*
X1132963D01*
Y5046549D01*
X1131582Y5053489D01*
X1127651Y5059373D01*
X1121767Y5063305D01*
X1114826Y5064685D01*
D02*
G37*
G36*
X1855627Y4953189D02*
X1818327D01*
Y4926936D01*
X1872079D01*
Y4936737D01*
X1867260Y4948370D01*
X1855627Y4953189D01*
D02*
G37*
G36*
X1792927D02*
X1755627D01*
X1743993Y4948370D01*
X1739174Y4936737D01*
Y4926936D01*
X1792927D01*
Y4953189D01*
D02*
G37*
G36*
X2364740D02*
X2327441D01*
Y4926936D01*
X2381193D01*
Y4936737D01*
X2376374Y4948370D01*
X2364740Y4953189D01*
D02*
G37*
G36*
X2302041D02*
X2264740D01*
X2253106Y4948370D01*
X2248288Y4936737D01*
Y4926936D01*
X2302041D01*
Y4953189D01*
D02*
G37*
G36*
X2381193Y4901536D02*
X2327441D01*
Y4875284D01*
X2364740D01*
X2376374Y4880103D01*
X2381193Y4891736D01*
Y4901536D01*
D02*
G37*
G36*
X2302041D02*
X2248288D01*
Y4891736D01*
X2253106Y4880103D01*
X2264740Y4875284D01*
X2302041D01*
Y4901536D01*
D02*
G37*
G36*
X1872079Y4901536D02*
X1818327D01*
Y4875284D01*
X1855627D01*
X1867260Y4880103D01*
X1872079Y4891736D01*
Y4901536D01*
D02*
G37*
G36*
X1792927D02*
X1739174D01*
Y4891736D01*
X1743993Y4880103D01*
X1755627Y4875284D01*
X1792927D01*
Y4901536D01*
D02*
G37*
G36*
X2097496Y4887386D02*
X2022871D01*
X2015931Y4886005D01*
X2010047Y4882074D01*
X2006116Y4876190D01*
X2004735Y4869249D01*
Y4838660D01*
X1872079D01*
Y4841737D01*
X1867260Y4853370D01*
X1855627Y4858189D01*
X1755627D01*
X1743993Y4853370D01*
X1739174Y4841737D01*
Y4796737D01*
X1743993Y4785103D01*
X1755627Y4780284D01*
X1855627D01*
X1867260Y4785103D01*
X1872079Y4796737D01*
Y4799814D01*
X2004735D01*
Y4794625D01*
X2006116Y4787685D01*
X2010047Y4781801D01*
X2015931Y4777869D01*
X2022871Y4776489D01*
X2097496D01*
X2104436Y4777869D01*
X2110320Y4781801D01*
X2114252Y4787685D01*
X2115632Y4794625D01*
Y4799814D01*
X2248288D01*
Y4796737D01*
X2253106Y4785103D01*
X2264740Y4780284D01*
X2364740D01*
X2376374Y4785103D01*
X2381193Y4796737D01*
Y4841737D01*
X2376374Y4853370D01*
X2364740Y4858189D01*
X2264740D01*
X2253106Y4853370D01*
X2248288Y4841737D01*
Y4838660D01*
X2115632D01*
Y4869249D01*
X2114252Y4876190D01*
X2110320Y4882074D01*
X2104436Y4886005D01*
X2097496Y4887386D01*
D02*
G37*
G36*
X4577554Y4841890D02*
X4553089Y4837024D01*
X4532350Y4823166D01*
X4518492Y4802426D01*
X4517489Y4797385D01*
X3420323D01*
X3420321Y4797385D01*
X3412889Y4795906D01*
X3406587Y4791696D01*
X2981194Y4366303D01*
X2963540Y4369814D01*
X2944928Y4366112D01*
X2929150Y4355570D01*
X2918608Y4339792D01*
X2914906Y4321180D01*
X2918608Y4302568D01*
X2929150Y4286790D01*
X2944928Y4276248D01*
X2963540Y4272546D01*
X2982152Y4276248D01*
X2997930Y4286790D01*
X3008472Y4302568D01*
X3012174Y4321180D01*
X3008663Y4338834D01*
X3428367Y4758538D01*
X4517489D01*
X4518492Y4753497D01*
X4532350Y4732757D01*
X4553089Y4718899D01*
X4577554Y4714033D01*
X4602018Y4718899D01*
X4622758Y4732757D01*
X4636616Y4753497D01*
X4637619Y4758538D01*
X5122144D01*
X5178577Y4702105D01*
Y4663300D01*
X5165300D01*
Y4557900D01*
X5230700D01*
Y4663300D01*
X5217423D01*
Y4710150D01*
X5215945Y4717583D01*
X5211735Y4723885D01*
X5143923Y4791696D01*
X5137622Y4795906D01*
X5130189Y4797385D01*
X4637619D01*
X4636616Y4802426D01*
X4622758Y4823166D01*
X4602018Y4837024D01*
X4577554Y4841890D01*
D02*
G37*
G36*
X2654740Y4858189D02*
X2554740D01*
X2543106Y4853370D01*
X2538288Y4841737D01*
Y4796737D01*
X2543106Y4785103D01*
X2554740Y4780284D01*
X2654740D01*
X2666374Y4785103D01*
X2671193Y4796737D01*
Y4841737D01*
X2666374Y4853370D01*
X2654740Y4858189D01*
D02*
G37*
G36*
X2097496Y4757386D02*
X2072884D01*
Y4714637D01*
X2115632D01*
Y4739249D01*
X2114252Y4746190D01*
X2110320Y4752074D01*
X2104436Y4756005D01*
X2097496Y4757386D01*
D02*
G37*
G36*
X2047484D02*
X2022871D01*
X2015931Y4756005D01*
X2010047Y4752074D01*
X2006116Y4746190D01*
X2004735Y4739249D01*
Y4714637D01*
X2047484D01*
Y4757386D01*
D02*
G37*
G36*
X2115632Y4689237D02*
X2072884D01*
Y4646489D01*
X2097496D01*
X2104436Y4647869D01*
X2110320Y4651801D01*
X2114252Y4657685D01*
X2115632Y4664625D01*
Y4689237D01*
D02*
G37*
G36*
X2047484D02*
X2004735D01*
Y4664625D01*
X2006116Y4657685D01*
X2010047Y4651801D01*
X2015931Y4647869D01*
X2022871Y4646489D01*
X2047484D01*
Y4689237D01*
D02*
G37*
G36*
X463200Y4819258D02*
X336800D01*
X325680Y4817046D01*
X316253Y4810747D01*
X309954Y4801320D01*
X307742Y4790200D01*
Y4746423D01*
X236863D01*
X229430Y4744944D01*
X223129Y4740734D01*
X223128Y4740733D01*
X171026Y4688632D01*
X166816Y4682330D01*
X165337Y4674897D01*
Y3597201D01*
X166816Y3589768D01*
X171026Y3583467D01*
X238589Y3515905D01*
X244890Y3511694D01*
X252323Y3510216D01*
X683796D01*
X765437Y3428575D01*
Y3154511D01*
X766915Y3147078D01*
X771126Y3140777D01*
X2001685Y1910217D01*
X2001686Y1910217D01*
X2007987Y1906006D01*
X2015420Y1904528D01*
X3893497D01*
X3900930Y1906006D01*
X3907232Y1910217D01*
X4132517Y2135502D01*
X4145924Y2132835D01*
X4164535Y2136537D01*
X4180314Y2147080D01*
X4190856Y2162858D01*
X4194558Y2181470D01*
X4190856Y2200081D01*
X4180314Y2215859D01*
X4164535Y2226402D01*
X4145924Y2230104D01*
X4127312Y2226402D01*
X4111534Y2215859D01*
X4100992Y2200081D01*
X4097289Y2181470D01*
X4100992Y2162858D01*
X4102571Y2160494D01*
X3885452Y1943374D01*
X2023465D01*
X804283Y3162556D01*
Y3436619D01*
X804283Y3436620D01*
X802805Y3444053D01*
X798594Y3450354D01*
X798594Y3450355D01*
X705575Y3543373D01*
X699274Y3547583D01*
X691841Y3549062D01*
X260368D01*
X204184Y3605247D01*
Y4666852D01*
X244908Y4707577D01*
X307742D01*
Y4663800D01*
X309954Y4652680D01*
X316253Y4643253D01*
X325680Y4636954D01*
X336800Y4634742D01*
X463200D01*
X474320Y4636954D01*
X483747Y4643253D01*
X490046Y4652680D01*
X492258Y4663800D01*
Y4790200D01*
X490046Y4801320D01*
X483747Y4810747D01*
X474320Y4817046D01*
X463200Y4819258D01*
D02*
G37*
G36*
X5550700Y4663300D02*
X5485300D01*
Y4557900D01*
X5550700D01*
Y4663300D01*
D02*
G37*
G36*
X5197232Y4934685D02*
X5122608D01*
X5115667Y4933305D01*
X5109784Y4929373D01*
X5105852Y4923489D01*
X5104472Y4916549D01*
Y4841925D01*
X5105852Y4834984D01*
X5109784Y4829100D01*
X5115667Y4825169D01*
X5122608Y4823788D01*
X5197232D01*
X5204173Y4825169D01*
X5210057Y4829100D01*
X5213988Y4834984D01*
X5215369Y4841925D01*
Y4859813D01*
X5274941D01*
X5418577Y4716177D01*
Y4663300D01*
X5405300D01*
Y4557900D01*
X5470700D01*
Y4663300D01*
X5457423D01*
Y4724223D01*
X5455945Y4731656D01*
X5451735Y4737957D01*
X5296721Y4892971D01*
X5290419Y4897181D01*
X5282986Y4898660D01*
X5215369D01*
Y4916549D01*
X5213988Y4923489D01*
X5210057Y4929373D01*
X5204173Y4933305D01*
X5197232Y4934685D01*
D02*
G37*
G36*
X5390700Y4663300D02*
X5325300D01*
Y4557900D01*
X5390700D01*
Y4663300D01*
D02*
G37*
G36*
X5310700D02*
X5245300D01*
Y4557900D01*
X5310700D01*
Y4663300D01*
D02*
G37*
G36*
X5150700D02*
X5085300D01*
Y4557900D01*
X5150700D01*
Y4663300D01*
D02*
G37*
G36*
X5070700D02*
X5005300D01*
Y4557900D01*
X5070700D01*
Y4663300D01*
D02*
G37*
G36*
X3665431Y4569698D02*
X3640818D01*
Y4526950D01*
X3683567D01*
Y4551562D01*
X3682187Y4558502D01*
X3678256Y4564386D01*
X3672372Y4568318D01*
X3665431Y4569698D01*
D02*
G37*
G36*
X3615418D02*
X3590807D01*
X3583866Y4568318D01*
X3577982Y4564386D01*
X3574051Y4558502D01*
X3572671Y4551562D01*
Y4526950D01*
X3615418D01*
Y4569698D01*
D02*
G37*
G36*
X3795431D02*
X3720807D01*
X3713866Y4568318D01*
X3707982Y4564386D01*
X3704051Y4558502D01*
X3702671Y4551562D01*
Y4476938D01*
X3704051Y4469997D01*
X3707982Y4464113D01*
X3713866Y4460182D01*
X3720807Y4458801D01*
X3738696D01*
Y4312250D01*
X3708119D01*
X3696485Y4307431D01*
X3691666Y4295798D01*
Y4250797D01*
X3696485Y4239164D01*
X3708119Y4234345D01*
X3808119D01*
X3819753Y4239164D01*
X3824571Y4250797D01*
Y4295798D01*
X3819753Y4307431D01*
X3808119Y4312250D01*
X3777542D01*
Y4458801D01*
X3795431D01*
X3802372Y4460182D01*
X3808256Y4464113D01*
X3812187Y4469997D01*
X3813567Y4476938D01*
Y4494827D01*
X4815300D01*
Y4467900D01*
X4920700D01*
Y4533300D01*
X4856226D01*
X4854350Y4533673D01*
X3813567D01*
Y4551562D01*
X3812187Y4558502D01*
X3808256Y4564386D01*
X3802372Y4568318D01*
X3795431Y4569698D01*
D02*
G37*
G36*
X3683567Y4501550D02*
X3640818D01*
Y4458801D01*
X3665431D01*
X3672372Y4460182D01*
X3678256Y4464113D01*
X3682187Y4469997D01*
X3683567Y4476938D01*
Y4501550D01*
D02*
G37*
G36*
X3615418D02*
X3572671D01*
Y4476938D01*
X3574051Y4469997D01*
X3577982Y4464113D01*
X3583866Y4460182D01*
X3590807Y4458801D01*
X3615418D01*
Y4501550D01*
D02*
G37*
G36*
X4577554Y4476908D02*
X4553089Y4472042D01*
X4532350Y4458184D01*
X4518492Y4437444D01*
X4517489Y4432403D01*
X4482890D01*
Y4450292D01*
X4481509Y4457232D01*
X4477578Y4463116D01*
X4471694Y4467048D01*
X4464754Y4468428D01*
X4390129D01*
X4383189Y4467048D01*
X4377305Y4463116D01*
X4373374Y4457232D01*
X4371993Y4450292D01*
Y4375668D01*
X4373374Y4368727D01*
X4377305Y4362843D01*
X4383189Y4358912D01*
X4390129Y4357531D01*
X4408018D01*
Y4138746D01*
X4390129D01*
X4383189Y4137366D01*
X4377305Y4133434D01*
X4373374Y4127550D01*
X4371993Y4120610D01*
Y4045986D01*
X4373374Y4039045D01*
X4377305Y4033161D01*
X4383189Y4029230D01*
X4390129Y4027849D01*
X4464754D01*
X4471694Y4029230D01*
X4477578Y4033161D01*
X4481509Y4039045D01*
X4482890Y4045986D01*
Y4120610D01*
X4481509Y4127550D01*
X4477578Y4133434D01*
X4471694Y4137366D01*
X4464754Y4138746D01*
X4446865D01*
Y4357531D01*
X4464754D01*
X4471694Y4358912D01*
X4477578Y4362843D01*
X4481509Y4368727D01*
X4482890Y4375668D01*
Y4393557D01*
X4517489D01*
X4518492Y4388515D01*
X4532350Y4367776D01*
X4553089Y4353918D01*
X4577554Y4349051D01*
X4602018Y4353918D01*
X4622758Y4367776D01*
X4636616Y4388515D01*
X4637619Y4393557D01*
X4815300D01*
Y4387900D01*
X4920700D01*
Y4453300D01*
X4815300D01*
Y4432403D01*
X4637619D01*
X4636616Y4437444D01*
X4622758Y4458184D01*
X4602018Y4472042D01*
X4577554Y4476908D01*
D02*
G37*
G36*
X4334754Y4468428D02*
X4310141D01*
Y4425680D01*
X4352890D01*
Y4450292D01*
X4351509Y4457232D01*
X4347578Y4463116D01*
X4341694Y4467048D01*
X4334754Y4468428D01*
D02*
G37*
G36*
X4284741D02*
X4260129D01*
X4253189Y4467048D01*
X4247305Y4463116D01*
X4243374Y4457232D01*
X4241993Y4450292D01*
Y4425680D01*
X4284741D01*
Y4468428D01*
D02*
G37*
G36*
X4352890Y4400280D02*
X4310141D01*
Y4357531D01*
X4334754D01*
X4341694Y4358912D01*
X4347578Y4362843D01*
X4351509Y4368727D01*
X4352890Y4375668D01*
Y4400280D01*
D02*
G37*
G36*
X4284741D02*
X4241993D01*
Y4375668D01*
X4243374Y4368727D01*
X4247305Y4362843D01*
X4253189Y4358912D01*
X4260129Y4357531D01*
X4284741D01*
Y4400280D01*
D02*
G37*
G36*
X4073119Y4312250D02*
X3973119D01*
X3961485Y4307431D01*
X3956666Y4295798D01*
Y4292188D01*
X3923288D01*
X3915855Y4290709D01*
X3909554Y4286499D01*
X3877610Y4254555D01*
X3873399Y4248254D01*
X3871921Y4240821D01*
Y4119772D01*
X3854870Y4102721D01*
X3824571D01*
Y4105798D01*
X3819753Y4117431D01*
X3808119Y4122250D01*
X3708119D01*
X3696485Y4117431D01*
X3691666Y4105798D01*
Y4102721D01*
X3536663D01*
Y4103110D01*
X3535283Y4110051D01*
X3531352Y4115935D01*
X3525468Y4119866D01*
X3518527Y4121247D01*
X3443903D01*
X3436962Y4119866D01*
X3431078Y4115935D01*
X3427147Y4110051D01*
X3425767Y4103110D01*
Y4028486D01*
X3427147Y4021545D01*
X3431078Y4015662D01*
X3436962Y4011730D01*
X3443903Y4010350D01*
X3518527D01*
X3525468Y4011730D01*
X3531352Y4015662D01*
X3535283Y4021545D01*
X3536663Y4028486D01*
Y4063875D01*
X3691666D01*
Y4060798D01*
X3696485Y4049164D01*
X3708119Y4044345D01*
X3808119D01*
X3819753Y4049164D01*
X3824571Y4060798D01*
Y4063875D01*
X3862915D01*
X3870348Y4065353D01*
X3876649Y4069563D01*
X3905078Y4097992D01*
X3909289Y4104294D01*
X3910767Y4111727D01*
Y4232775D01*
X3931334Y4253342D01*
X3956666D01*
Y4250797D01*
X3961485Y4239164D01*
X3973119Y4234345D01*
X4073119D01*
X4084753Y4239164D01*
X4089571Y4250797D01*
Y4295798D01*
X4084753Y4307431D01*
X4073119Y4312250D01*
D02*
G37*
G36*
X4920700Y4293300D02*
X4815300D01*
Y4227900D01*
X4920700D01*
Y4293300D01*
D02*
G37*
G36*
X400000Y4565491D02*
X376061Y4562339D01*
X353754Y4553100D01*
X334599Y4538401D01*
X319900Y4519245D01*
X310661Y4496938D01*
X307509Y4473000D01*
X310661Y4449061D01*
X319900Y4426754D01*
X334599Y4407599D01*
X353754Y4392900D01*
X376061Y4383661D01*
X379282Y4383237D01*
Y4327728D01*
X362688D01*
X355747Y4326348D01*
X349863Y4322417D01*
X345932Y4316533D01*
X344552Y4309592D01*
Y4234968D01*
X345932Y4228027D01*
X349863Y4222143D01*
X355747Y4218212D01*
X362688Y4216832D01*
X437312D01*
X444253Y4218212D01*
X450137Y4222143D01*
X454068Y4228027D01*
X455448Y4234968D01*
Y4309592D01*
X454068Y4316533D01*
X450137Y4322417D01*
X444253Y4326348D01*
X437312Y4327728D01*
X420718D01*
Y4383237D01*
X423938Y4383661D01*
X446245Y4392900D01*
X465401Y4407599D01*
X480100Y4426754D01*
X489339Y4449061D01*
X492491Y4473000D01*
X489339Y4496938D01*
X480100Y4519245D01*
X465401Y4538401D01*
X446245Y4553100D01*
X423938Y4562339D01*
X400000Y4565491D01*
D02*
G37*
G36*
X2266192Y4619904D02*
X317506D01*
X310073Y4618425D01*
X303772Y4614215D01*
X303771Y4614214D01*
X228923Y4539366D01*
X224713Y4533065D01*
X223234Y4525632D01*
Y3993169D01*
X224713Y3985736D01*
X228923Y3979435D01*
X338762Y3869597D01*
X335250Y3851942D01*
X338952Y3833331D01*
X349495Y3817552D01*
X365273Y3807010D01*
X383884Y3803308D01*
X402496Y3807010D01*
X418274Y3817552D01*
X428817Y3833331D01*
X432519Y3851942D01*
X428817Y3870554D01*
X418274Y3886332D01*
X402496Y3896875D01*
X383884Y3900577D01*
X366230Y3897065D01*
X262081Y4001215D01*
Y4517586D01*
X325551Y4581057D01*
X2258147D01*
X2608291Y4230913D01*
X2614592Y4226703D01*
X2622025Y4225224D01*
X2649052D01*
X2659053Y4210257D01*
X2674831Y4199714D01*
X2693442Y4196012D01*
X2712054Y4199714D01*
X2727832Y4210257D01*
X2738375Y4226035D01*
X2742077Y4244647D01*
X2738375Y4263258D01*
X2727832Y4279037D01*
X2712054Y4289579D01*
X2693442Y4293281D01*
X2674831Y4289579D01*
X2659053Y4279037D01*
X2649053Y4264070D01*
X2630071D01*
X2279927Y4614215D01*
X2273625Y4618425D01*
X2266192Y4619904D01*
D02*
G37*
G36*
X4073119Y4217250D02*
X4035820D01*
Y4190998D01*
X4089571D01*
Y4200798D01*
X4084753Y4212431D01*
X4073119Y4217250D01*
D02*
G37*
G36*
X4010420D02*
X3973119D01*
X3961485Y4212431D01*
X3956666Y4200798D01*
Y4190998D01*
X4010420D01*
Y4217250D01*
D02*
G37*
G36*
X4920700Y4213300D02*
X4815300D01*
Y4147900D01*
X4920700D01*
Y4213300D01*
D02*
G37*
G36*
X4089571Y4165598D02*
X4035820D01*
Y4139345D01*
X4073119D01*
X4084753Y4144164D01*
X4089571Y4155797D01*
Y4165598D01*
D02*
G37*
G36*
X4010420D02*
X3956666D01*
Y4155797D01*
X3961485Y4144164D01*
X3973119Y4139345D01*
X4010420D01*
Y4165598D01*
D02*
G37*
G36*
X2917820Y4255514D02*
X2899208Y4251812D01*
X2883430Y4241270D01*
X2872888Y4225492D01*
X2869186Y4206880D01*
X2872888Y4188268D01*
X2883430Y4172490D01*
X2899208Y4161948D01*
X2917820Y4158246D01*
X2936432Y4161948D01*
X2952210Y4172490D01*
X2962210Y4187457D01*
X3165577D01*
Y3943876D01*
X3051351D01*
Y3946963D01*
X3046532Y3958596D01*
X3034898Y3963415D01*
X2934898D01*
X2923264Y3958596D01*
X2918446Y3946963D01*
Y3901962D01*
X2923264Y3890329D01*
X2934898Y3885510D01*
X3034898D01*
X3046532Y3890329D01*
X3051351Y3901962D01*
Y3905030D01*
X3165577D01*
Y3809653D01*
X3160280Y3806113D01*
X3156478Y3800424D01*
X3155143Y3793713D01*
Y3752636D01*
X3051351D01*
Y3756963D01*
X3046532Y3768596D01*
X3034898Y3773415D01*
X2934898D01*
X2923264Y3768596D01*
X2918446Y3756963D01*
Y3711963D01*
X2923264Y3700329D01*
X2934898Y3695510D01*
X3034898D01*
X3046532Y3700329D01*
X3051351Y3711963D01*
Y3713790D01*
X3155143D01*
Y3675213D01*
X3156478Y3668501D01*
X3160280Y3662812D01*
X3165969Y3659011D01*
X3172680Y3657676D01*
X3253680D01*
X3260391Y3659011D01*
X3266081Y3662812D01*
X3269882Y3668501D01*
X3271217Y3675213D01*
Y3793713D01*
X3269882Y3800424D01*
X3266081Y3806113D01*
X3260391Y3809915D01*
X3253680Y3811250D01*
X3204423D01*
Y3924453D01*
Y4187457D01*
X3425767D01*
Y4158486D01*
X3427147Y4151545D01*
X3431078Y4145662D01*
X3436962Y4141730D01*
X3443903Y4140350D01*
X3518527D01*
X3525468Y4141730D01*
X3531352Y4145662D01*
X3535283Y4151545D01*
X3536663Y4158486D01*
Y4158874D01*
X3691666D01*
Y4155797D01*
X3696485Y4144164D01*
X3708119Y4139345D01*
X3808119D01*
X3819753Y4144164D01*
X3824571Y4155797D01*
Y4200798D01*
X3819753Y4212431D01*
X3808119Y4217250D01*
X3708119D01*
X3696485Y4212431D01*
X3691666Y4200798D01*
Y4197721D01*
X3536663D01*
Y4233110D01*
X3535283Y4240051D01*
X3531352Y4245935D01*
X3525468Y4249866D01*
X3518527Y4251247D01*
X3443903D01*
X3436962Y4249866D01*
X3431078Y4245935D01*
X3427147Y4240051D01*
X3425767Y4233110D01*
Y4226303D01*
X2962210D01*
X2952210Y4241270D01*
X2936432Y4251812D01*
X2917820Y4255514D01*
D02*
G37*
G36*
X4334754Y4138746D02*
X4260129D01*
X4253189Y4137366D01*
X4247305Y4133434D01*
X4243374Y4127550D01*
X4241993Y4120610D01*
Y4102721D01*
X4089571D01*
Y4105798D01*
X4084753Y4117431D01*
X4073119Y4122250D01*
X3973119D01*
X3961485Y4117431D01*
X3956666Y4105798D01*
Y4060798D01*
X3961485Y4049164D01*
X3973119Y4044345D01*
X4073119D01*
X4084753Y4049164D01*
X4089571Y4060798D01*
Y4063875D01*
X4241993D01*
Y4045986D01*
X4243374Y4039045D01*
X4247305Y4033161D01*
X4253189Y4029230D01*
X4260129Y4027849D01*
X4334754D01*
X4341694Y4029230D01*
X4347578Y4033161D01*
X4351509Y4039045D01*
X4352890Y4045986D01*
Y4120610D01*
X4351509Y4127550D01*
X4347578Y4133434D01*
X4341694Y4137366D01*
X4334754Y4138746D01*
D02*
G37*
G36*
X4920700Y4133300D02*
X4815300D01*
Y4067900D01*
X4920700D01*
Y4133300D01*
D02*
G37*
G36*
Y4053300D02*
X4815300D01*
Y3987900D01*
X4920700D01*
Y4053300D01*
D02*
G37*
G36*
Y3973300D02*
X4815300D01*
Y3960023D01*
X4395152D01*
X4387719Y3958544D01*
X4381418Y3954334D01*
X4103606Y3676522D01*
X4099395Y3670221D01*
X4097917Y3662788D01*
Y2613395D01*
X4082950Y2603395D01*
X4072408Y2587616D01*
X4068706Y2569005D01*
X4072408Y2550393D01*
X4082950Y2534615D01*
X4098728Y2524072D01*
X4117340Y2520370D01*
X4135952Y2524072D01*
X4151730Y2534615D01*
X4162272Y2550393D01*
X4165974Y2569005D01*
X4162272Y2587616D01*
X4151730Y2603395D01*
X4136763Y2613395D01*
Y3654742D01*
X4403197Y3921177D01*
X4815300D01*
Y3907900D01*
X4920700D01*
Y3973300D01*
D02*
G37*
G36*
X2744898Y3963415D02*
X2644898D01*
X2633264Y3958596D01*
X2628446Y3946963D01*
Y3901962D01*
X2633264Y3890329D01*
X2644898Y3885510D01*
X2744898D01*
X2756532Y3890329D01*
X2761351Y3901962D01*
Y3946963D01*
X2756532Y3958596D01*
X2744898Y3963415D01*
D02*
G37*
G36*
X3034898Y3868415D02*
X2997599D01*
Y3842163D01*
X3051351D01*
Y3851963D01*
X3046532Y3863596D01*
X3034898Y3868415D01*
D02*
G37*
G36*
X2972199D02*
X2934898D01*
X2923264Y3863596D01*
X2918446Y3851963D01*
Y3842163D01*
X2972199D01*
Y3868415D01*
D02*
G37*
G36*
X4920700Y3893300D02*
X4815300D01*
Y3880023D01*
X4483327D01*
X4475894Y3878544D01*
X4469593Y3874334D01*
X4365520Y3770261D01*
X4361246Y3773116D01*
X4336782Y3777983D01*
X4312317Y3773116D01*
X4291577Y3759258D01*
X4277719Y3738519D01*
X4272853Y3714054D01*
X4277719Y3689590D01*
X4280575Y3685316D01*
X4176502Y3581243D01*
X4172291Y3574942D01*
X4170813Y3567509D01*
Y2625511D01*
X4172291Y2618078D01*
X4176502Y2611777D01*
X4233630Y2554649D01*
X4230120Y2537003D01*
X4233822Y2518391D01*
X4244364Y2502613D01*
X4260142Y2492070D01*
X4278754Y2488368D01*
X4297366Y2492070D01*
X4313144Y2502613D01*
X4323686Y2518391D01*
X4327388Y2537003D01*
X4323686Y2555614D01*
X4313144Y2571393D01*
X4297366Y2581935D01*
X4278754Y2585637D01*
X4261092Y2582124D01*
X4209659Y2633557D01*
Y3559463D01*
X4308043Y3657848D01*
X4312317Y3654992D01*
X4336782Y3650126D01*
X4361246Y3654992D01*
X4381986Y3668850D01*
X4395844Y3689590D01*
X4400710Y3714054D01*
X4395844Y3738519D01*
X4392988Y3742792D01*
X4491373Y3841177D01*
X4815300D01*
Y3827900D01*
X4920700D01*
Y3893300D01*
D02*
G37*
G36*
X1209100Y3843458D02*
X1183640D01*
Y3800726D01*
X1226372D01*
Y3826186D01*
X1225057Y3832795D01*
X1221313Y3838399D01*
X1215710Y3842143D01*
X1209100Y3843458D01*
D02*
G37*
G36*
X1158240D02*
X1132780D01*
X1126170Y3842143D01*
X1120567Y3838399D01*
X1116823Y3832795D01*
X1115508Y3826186D01*
Y3800726D01*
X1158240D01*
Y3843458D01*
D02*
G37*
G36*
X2334072Y3862050D02*
X2306271D01*
Y3797963D01*
X2351609D01*
Y3844513D01*
X2350274Y3851224D01*
X2346472Y3856913D01*
X2340783Y3860715D01*
X2334072Y3862050D01*
D02*
G37*
G36*
X2280871D02*
X2253072D01*
X2246361Y3860715D01*
X2240671Y3856913D01*
X2236870Y3851224D01*
X2235535Y3844513D01*
Y3797963D01*
X2280871D01*
Y3862050D01*
D02*
G37*
G36*
X3051351Y3816763D02*
X2997599D01*
Y3790510D01*
X3034898D01*
X3046532Y3795329D01*
X3051351Y3806963D01*
Y3816763D01*
D02*
G37*
G36*
X2972199D02*
X2918446D01*
Y3806963D01*
X2923264Y3795329D01*
X2934898Y3790510D01*
X2972199D01*
Y3816763D01*
D02*
G37*
G36*
X4920700Y3813300D02*
X4815300D01*
Y3747900D01*
X4920700D01*
Y3813300D01*
D02*
G37*
G36*
X3428920Y3811250D02*
X3401120D01*
Y3747162D01*
X3446457D01*
Y3793713D01*
X3445122Y3800424D01*
X3441321Y3806113D01*
X3435631Y3809915D01*
X3428920Y3811250D01*
D02*
G37*
G36*
X3375720D02*
X3347920D01*
X3341209Y3809915D01*
X3335520Y3806113D01*
X3331718Y3800424D01*
X3330383Y3793713D01*
Y3747162D01*
X3375720D01*
Y3811250D01*
D02*
G37*
G36*
X1226372Y3775326D02*
X1183640D01*
Y3732594D01*
X1209100D01*
X1215710Y3733908D01*
X1221313Y3737653D01*
X1225057Y3743256D01*
X1226372Y3749866D01*
Y3775326D01*
D02*
G37*
G36*
X1158240D02*
X1115508D01*
Y3749866D01*
X1116823Y3743256D01*
X1120567Y3737653D01*
X1126170Y3733908D01*
X1132780Y3732594D01*
X1158240D01*
Y3775326D01*
D02*
G37*
G36*
X568160Y4012753D02*
X491840D01*
X485230Y4011438D01*
X479627Y4007694D01*
X475883Y4002091D01*
X474568Y3995481D01*
Y3919161D01*
X475883Y3912551D01*
X479627Y3906948D01*
X485230Y3903204D01*
X491840Y3901889D01*
X504102D01*
Y3874951D01*
X368853Y3739702D01*
X348001Y3748339D01*
X323801Y3751525D01*
X299602Y3748339D01*
X277052Y3738998D01*
X257687Y3724139D01*
X242828Y3704775D01*
X233488Y3682225D01*
X230302Y3658025D01*
X233488Y3633826D01*
X242828Y3611275D01*
X257687Y3591911D01*
X277052Y3577052D01*
X299602Y3567711D01*
X323801Y3564526D01*
X348001Y3567711D01*
X370551Y3577052D01*
X389916Y3591911D01*
X404775Y3611275D01*
X414115Y3633826D01*
X417301Y3658025D01*
X414115Y3682225D01*
X405478Y3703077D01*
X534578Y3832177D01*
X592464Y3774291D01*
X598765Y3770081D01*
X606198Y3768602D01*
X606199Y3768602D01*
X699395D01*
X700398Y3763561D01*
X714256Y3742821D01*
X734996Y3728963D01*
X759460Y3724097D01*
X783924Y3728963D01*
X804664Y3742821D01*
X818522Y3763561D01*
X819525Y3768602D01*
X879937D01*
Y3750713D01*
X881318Y3743773D01*
X885249Y3737889D01*
X891133Y3733957D01*
X898073Y3732577D01*
X972698D01*
X979638Y3733957D01*
X985522Y3737889D01*
X989453Y3743773D01*
X990834Y3750713D01*
Y3825338D01*
X989453Y3832278D01*
X985522Y3838162D01*
X979638Y3842093D01*
X972698Y3843474D01*
X898073D01*
X891133Y3842093D01*
X885249Y3838162D01*
X881318Y3832278D01*
X879937Y3825338D01*
Y3807449D01*
X819525D01*
X818522Y3812490D01*
X804664Y3833230D01*
X783924Y3847088D01*
X759460Y3851954D01*
X734996Y3847088D01*
X714256Y3833230D01*
X700398Y3812490D01*
X699395Y3807449D01*
X614243D01*
X555898Y3865794D01*
Y3901889D01*
X568160D01*
X574769Y3903204D01*
X580373Y3906948D01*
X584117Y3912551D01*
X585432Y3919161D01*
Y3995481D01*
X584117Y4002091D01*
X580373Y4007694D01*
X574769Y4011438D01*
X568160Y4012753D01*
D02*
G37*
G36*
X2351609Y3772563D02*
X2306271D01*
Y3708476D01*
X2334072D01*
X2340783Y3709811D01*
X2346472Y3713612D01*
X2350274Y3719301D01*
X2351609Y3726013D01*
Y3772563D01*
D02*
G37*
G36*
X2280871D02*
X2235535D01*
Y3726013D01*
X2236870Y3719301D01*
X2240671Y3713612D01*
X2246361Y3709811D01*
X2253072Y3708476D01*
X2280871D01*
Y3772563D01*
D02*
G37*
G36*
X2509312Y3862050D02*
X2428312D01*
X2421600Y3860715D01*
X2415911Y3856913D01*
X2412110Y3851224D01*
X2410775Y3844513D01*
Y3726013D01*
X2412110Y3719301D01*
X2415911Y3713612D01*
X2421600Y3709811D01*
X2428312Y3708476D01*
X2474789D01*
Y3619344D01*
X2457612D01*
X2446055Y3614557D01*
X2441268Y3603000D01*
Y3559800D01*
X2446055Y3548243D01*
X2457612Y3543456D01*
X2530812D01*
X2542369Y3548243D01*
X2547156Y3559800D01*
Y3603000D01*
X2542369Y3614557D01*
X2530812Y3619344D01*
X2513635D01*
Y3709336D01*
X2516023Y3709811D01*
X2521712Y3713612D01*
X2522666Y3715040D01*
X2628446D01*
Y3711963D01*
X2633264Y3700329D01*
X2644898Y3695510D01*
X2744898D01*
X2756532Y3700329D01*
X2761351Y3711963D01*
Y3756963D01*
X2756532Y3768596D01*
X2744898Y3773415D01*
X2644898D01*
X2633264Y3768596D01*
X2628446Y3756963D01*
Y3753886D01*
X2526849D01*
Y3844513D01*
X2525514Y3851224D01*
X2521712Y3856913D01*
X2516023Y3860715D01*
X2509312Y3862050D01*
D02*
G37*
G36*
X4920700Y3733300D02*
X4815300D01*
Y3720023D01*
X4635606D01*
X4628173Y3718544D01*
X4621871Y3714334D01*
X4584344Y3676807D01*
X4580070Y3679662D01*
X4555606Y3684528D01*
X4531142Y3679662D01*
X4510402Y3665804D01*
X4496544Y3645064D01*
X4491678Y3620600D01*
X4496544Y3596136D01*
X4499399Y3591862D01*
X4235888Y3328350D01*
X4231678Y3322049D01*
X4230199Y3314616D01*
Y2698046D01*
X4231678Y2690613D01*
X4235888Y2684312D01*
X4346883Y2573317D01*
Y2494726D01*
X4323489Y2471332D01*
X4226709D01*
X4197093Y2500949D01*
X4190792Y2505159D01*
X4183359Y2506637D01*
X4074031D01*
X4039578Y2541090D01*
Y2998900D01*
X4038100Y3006333D01*
X4033890Y3012634D01*
X4007743Y3038781D01*
Y3147851D01*
X4025632D01*
X4032573Y3149232D01*
X4038456Y3153163D01*
X4042388Y3159047D01*
X4043768Y3165988D01*
Y3240612D01*
X4042388Y3247553D01*
X4038456Y3253436D01*
X4032573Y3257368D01*
X4025632Y3258748D01*
X3951008D01*
X3944067Y3257368D01*
X3938183Y3253436D01*
X3934252Y3247553D01*
X3932871Y3240612D01*
Y3165988D01*
X3934252Y3159047D01*
X3938183Y3153163D01*
X3944067Y3149232D01*
X3951008Y3147851D01*
X3968897D01*
Y3030735D01*
X3970375Y3023302D01*
X3974586Y3017001D01*
X4000732Y2990855D01*
Y2533045D01*
X4002211Y2525612D01*
X4006421Y2519310D01*
X4052251Y2473481D01*
X4052251Y2473480D01*
X4058553Y2469270D01*
X4065986Y2467791D01*
X4065987Y2467791D01*
X4175313D01*
X4204929Y2438175D01*
X4211231Y2433965D01*
X4218664Y2432486D01*
X4331535D01*
X4338968Y2433965D01*
X4345269Y2438175D01*
X4380039Y2472946D01*
X4380040Y2472946D01*
X4384250Y2479248D01*
X4385729Y2486680D01*
Y2581363D01*
X4384250Y2588796D01*
X4380040Y2595097D01*
X4269045Y2706092D01*
Y3306571D01*
X4526868Y3564393D01*
X4531142Y3561538D01*
X4555606Y3556672D01*
X4580070Y3561538D01*
X4600810Y3575396D01*
X4614668Y3596136D01*
X4619534Y3620600D01*
X4614668Y3645064D01*
X4611813Y3649338D01*
X4643651Y3681177D01*
X4815300D01*
Y3667900D01*
X4920700D01*
Y3733300D01*
D02*
G37*
G36*
X3446457Y3721762D02*
X3401120D01*
Y3657676D01*
X3428920D01*
X3435631Y3659011D01*
X3441321Y3662812D01*
X3445122Y3668501D01*
X3446457Y3675213D01*
Y3721762D01*
D02*
G37*
G36*
X3375720D02*
X3330383D01*
Y3675213D01*
X3331718Y3668501D01*
X3335520Y3662812D01*
X3341209Y3659011D01*
X3347920Y3657676D01*
X3375720D01*
Y3721762D01*
D02*
G37*
G36*
X577801Y3751525D02*
X553602Y3748339D01*
X531052Y3738998D01*
X511687Y3724139D01*
X496828Y3704775D01*
X487488Y3682225D01*
X484302Y3658025D01*
X487488Y3633826D01*
X496828Y3611275D01*
X511687Y3591911D01*
X531052Y3577052D01*
X553602Y3567711D01*
X577801Y3564526D01*
X602001Y3567711D01*
X624551Y3577052D01*
X643916Y3591911D01*
X658775Y3611275D01*
X668115Y3633826D01*
X668744Y3638602D01*
X879937D01*
Y3620713D01*
X881318Y3613773D01*
X885249Y3607889D01*
X891133Y3603957D01*
X898073Y3602577D01*
X972698D01*
X979638Y3603957D01*
X985522Y3607889D01*
X989453Y3613773D01*
X990834Y3620713D01*
Y3638602D01*
X1115508D01*
Y3619866D01*
X1116823Y3613256D01*
X1120567Y3607652D01*
X1126170Y3603908D01*
X1132780Y3602594D01*
X1209100D01*
X1215710Y3603908D01*
X1221313Y3607652D01*
X1225057Y3613256D01*
X1226372Y3619866D01*
Y3696185D01*
X1225057Y3702795D01*
X1221313Y3708398D01*
X1215710Y3712143D01*
X1209100Y3713457D01*
X1132780D01*
X1126170Y3712143D01*
X1120567Y3708398D01*
X1116823Y3702795D01*
X1115508Y3696185D01*
Y3677449D01*
X990834D01*
Y3695338D01*
X989453Y3702278D01*
X985522Y3708162D01*
X979638Y3712093D01*
X972698Y3713474D01*
X898073D01*
X891133Y3712093D01*
X885249Y3708162D01*
X881318Y3702278D01*
X879937Y3695338D01*
Y3677449D01*
X668744D01*
X668115Y3682225D01*
X658775Y3704775D01*
X643916Y3724139D01*
X624551Y3738998D01*
X602001Y3748339D01*
X577801Y3751525D01*
D02*
G37*
G36*
X4920700Y3653300D02*
X4815300D01*
Y3640023D01*
X4767967D01*
X4760534Y3638544D01*
X4754232Y3634334D01*
X4754232Y3634333D01*
X4584344Y3464446D01*
X4580070Y3467301D01*
X4555606Y3472168D01*
X4531142Y3467301D01*
X4510402Y3453443D01*
X4496544Y3432704D01*
X4491678Y3408239D01*
X4496544Y3383775D01*
X4499400Y3379501D01*
X4299672Y3179774D01*
X4295462Y3173473D01*
X4293984Y3166040D01*
Y2717177D01*
X4295462Y2709744D01*
X4299672Y2703443D01*
X4400911Y2602204D01*
Y2467444D01*
X4353176Y2419709D01*
X4199830D01*
X4189830Y2434676D01*
X4174052Y2445219D01*
X4155440Y2448921D01*
X4136828Y2445219D01*
X4121050Y2434676D01*
X4110508Y2418898D01*
X4106806Y2400286D01*
X4110508Y2381675D01*
X4121050Y2365896D01*
X4136828Y2355354D01*
X4155440Y2351652D01*
X4174052Y2355354D01*
X4189830Y2365896D01*
X4199830Y2380863D01*
X4361222D01*
X4368655Y2382341D01*
X4374956Y2386552D01*
X4434069Y2445664D01*
X4438279Y2451966D01*
X4439758Y2459399D01*
X4439758Y2459400D01*
Y2610250D01*
X4438279Y2617683D01*
X4434069Y2623984D01*
X4332830Y2725223D01*
Y3157994D01*
X4526868Y3352033D01*
X4531142Y3349177D01*
X4555606Y3344311D01*
X4580070Y3349177D01*
X4600810Y3363035D01*
X4614668Y3383775D01*
X4619534Y3408239D01*
X4614668Y3432704D01*
X4611812Y3436977D01*
X4776012Y3601177D01*
X4815300D01*
Y3587900D01*
X4920700D01*
Y3653300D01*
D02*
G37*
G36*
Y3573300D02*
X4815300D01*
Y3507900D01*
X4920700D01*
Y3573300D01*
D02*
G37*
G36*
X2650811Y3529344D02*
X2626912D01*
Y3504100D01*
X2667155D01*
Y3513000D01*
X2662368Y3524557D01*
X2650811Y3529344D01*
D02*
G37*
G36*
X2601512D02*
X2577612D01*
X2566055Y3524557D01*
X2561267Y3513000D01*
Y3504100D01*
X2601512D01*
Y3529344D01*
D02*
G37*
G36*
X3299090Y3518154D02*
X3252540D01*
Y3472817D01*
X3316627D01*
Y3500617D01*
X3315292Y3507328D01*
X3311491Y3513017D01*
X3305801Y3516819D01*
X3299090Y3518154D01*
D02*
G37*
G36*
X3227140D02*
X3180590D01*
X3173879Y3516819D01*
X3168189Y3513017D01*
X3164388Y3507328D01*
X3163053Y3500617D01*
Y3472817D01*
X3227140D01*
Y3518154D01*
D02*
G37*
G36*
X2667155Y3478700D02*
X2626912D01*
Y3453456D01*
X2650811D01*
X2662368Y3458243D01*
X2667155Y3469800D01*
Y3478700D01*
D02*
G37*
G36*
X2601512D02*
X2561267D01*
Y3469800D01*
X2566055Y3458243D01*
X2577612Y3453456D01*
X2601512D01*
Y3478700D01*
D02*
G37*
G36*
X2530812Y3529344D02*
X2457612D01*
X2446055Y3524557D01*
X2441268Y3513000D01*
Y3469800D01*
X2446055Y3458243D01*
X2457612Y3453456D01*
X2530812D01*
X2542369Y3458243D01*
X2547156Y3469800D01*
Y3513000D01*
X2542369Y3524557D01*
X2530812Y3529344D01*
D02*
G37*
G36*
X336501Y3495853D02*
Y3416725D01*
X415629D01*
X414115Y3428225D01*
X404775Y3450775D01*
X389916Y3470139D01*
X370551Y3484998D01*
X348001Y3494339D01*
X336501Y3495853D01*
D02*
G37*
G36*
X311101Y3495853D02*
X299602Y3494339D01*
X277052Y3484998D01*
X257687Y3470139D01*
X242828Y3450775D01*
X233488Y3428225D01*
X231974Y3416725D01*
X311101D01*
Y3495853D01*
D02*
G37*
G36*
X2650811Y3439344D02*
X2626912D01*
Y3414100D01*
X2667155D01*
Y3423000D01*
X2662368Y3434557D01*
X2650811Y3439344D01*
D02*
G37*
G36*
X2601512D02*
X2577612D01*
X2566055Y3434557D01*
X2561267Y3423000D01*
Y3414100D01*
X2601512D01*
Y3439344D01*
D02*
G37*
G36*
X3316627Y3447417D02*
X3252540D01*
Y3402080D01*
X3299090D01*
X3305801Y3403415D01*
X3311491Y3407216D01*
X3315292Y3412906D01*
X3316627Y3419617D01*
Y3447417D01*
D02*
G37*
G36*
X3227140D02*
X3163053D01*
Y3419617D01*
X3164388Y3412906D01*
X3168189Y3407216D01*
X3173879Y3403415D01*
X3180590Y3402080D01*
X3227140D01*
Y3447417D01*
D02*
G37*
G36*
X5790700Y3483300D02*
X5725300D01*
Y3377900D01*
X5790700D01*
Y3483300D01*
D02*
G37*
G36*
X5710700D02*
X5645300D01*
Y3377900D01*
X5710700D01*
Y3483300D01*
D02*
G37*
G36*
X5630700D02*
X5565300D01*
Y3377900D01*
X5630700D01*
Y3483300D01*
D02*
G37*
G36*
X5550700D02*
X5485300D01*
Y3377900D01*
X5550700D01*
Y3483300D01*
D02*
G37*
G36*
X5310700D02*
X5245300D01*
Y3377900D01*
X5310700D01*
Y3483300D01*
D02*
G37*
G36*
X5230700D02*
X5165300D01*
Y3377900D01*
X5230700D01*
Y3483300D01*
D02*
G37*
G36*
X4990700D02*
X4925300D01*
Y3377900D01*
X4990700D01*
Y3483300D01*
D02*
G37*
G36*
X2667155Y3388700D02*
X2626912D01*
Y3363456D01*
X2650811D01*
X2662368Y3368243D01*
X2667155Y3379800D01*
Y3388700D01*
D02*
G37*
G36*
X2601512D02*
X2561267D01*
Y3379800D01*
X2566055Y3368243D01*
X2577612Y3363456D01*
X2601512D01*
Y3388700D01*
D02*
G37*
G36*
X5150700Y3483300D02*
X5085300D01*
Y3377900D01*
X5098577D01*
Y3255299D01*
X5100056Y3247866D01*
X5104266Y3241565D01*
X5239082Y3106749D01*
Y2680781D01*
X4841315Y2283014D01*
X3324099D01*
Y2326303D01*
X3322718Y2333244D01*
X3318787Y2339128D01*
X3312903Y2343059D01*
X3305962Y2344440D01*
X3288073D01*
Y2405265D01*
X3293115Y2406268D01*
X3313854Y2420126D01*
X3327712Y2440866D01*
X3332579Y2465330D01*
X3327712Y2489794D01*
X3313854Y2510534D01*
X3293115Y2524392D01*
X3288073Y2525395D01*
Y2757300D01*
X3362700D01*
Y2832700D01*
X3062300D01*
Y2757300D01*
X3080577D01*
Y2666907D01*
X3028423Y2614753D01*
X3004239D01*
Y2632642D01*
X3002859Y2639582D01*
X2998927Y2645466D01*
X2993044Y2649398D01*
X2986103Y2650778D01*
X2911479D01*
X2904538Y2649398D01*
X2898654Y2645466D01*
X2894723Y2639582D01*
X2893342Y2632642D01*
Y2558018D01*
X2894723Y2551077D01*
X2898654Y2545193D01*
X2904538Y2541262D01*
X2911479Y2539881D01*
X2986103D01*
X2993044Y2541262D01*
X2998927Y2545193D01*
X3002859Y2551077D01*
X3004239Y2558018D01*
Y2575907D01*
X3036469D01*
X3043902Y2577385D01*
X3050203Y2581596D01*
X3113734Y2645127D01*
X3117945Y2651429D01*
X3119424Y2658861D01*
X3119423Y2658863D01*
Y2757300D01*
X3155577D01*
Y2601253D01*
X3140610Y2591253D01*
X3130068Y2575474D01*
X3126366Y2556863D01*
X3130068Y2538251D01*
X3140610Y2522473D01*
X3156388Y2511930D01*
X3175000Y2508228D01*
X3193612Y2511930D01*
X3209390Y2522473D01*
X3219932Y2538251D01*
X3223634Y2556863D01*
X3219932Y2575474D01*
X3209390Y2591253D01*
X3194423Y2601253D01*
Y2757300D01*
X3249227D01*
Y2525395D01*
X3244186Y2524392D01*
X3223446Y2510534D01*
X3209588Y2489794D01*
X3204722Y2465330D01*
X3209588Y2440866D01*
X3223446Y2420126D01*
X3244186Y2406268D01*
X3249227Y2405265D01*
Y2344440D01*
X3231338D01*
X3224398Y2343059D01*
X3218514Y2339128D01*
X3214582Y2333244D01*
X3213202Y2326303D01*
Y2251679D01*
X3214582Y2244739D01*
X3218514Y2238855D01*
X3224398Y2234923D01*
X3231338Y2233543D01*
X3305962D01*
X3312903Y2234923D01*
X3318787Y2238855D01*
X3322337Y2244168D01*
X4031121D01*
Y2175098D01*
X3872869Y2016846D01*
X2587456D01*
X2274881Y2329422D01*
Y3319293D01*
X2337565Y3381977D01*
X2441268D01*
Y3379800D01*
X2446055Y3368243D01*
X2457612Y3363456D01*
X2530812D01*
X2542369Y3368243D01*
X2547156Y3379800D01*
Y3423000D01*
X2542369Y3434557D01*
X2530812Y3439344D01*
X2457612D01*
X2446055Y3434557D01*
X2441268Y3423000D01*
Y3420823D01*
X2329521D01*
X2329520Y3420823D01*
X2322087Y3419345D01*
X2315786Y3415134D01*
X2315785Y3415134D01*
X2241724Y3341072D01*
X2237513Y3334771D01*
X2236035Y3327338D01*
Y2321376D01*
X2237513Y2313943D01*
X2241724Y2307642D01*
X2565676Y1983689D01*
X2565677Y1983689D01*
X2571978Y1979478D01*
X2579411Y1978000D01*
X3880914D01*
X3888347Y1979478D01*
X3894649Y1983689D01*
X4064278Y2153319D01*
X4068489Y2159620D01*
X4069967Y2167053D01*
Y2244168D01*
X4849361D01*
X4856794Y2245647D01*
X4863095Y2249857D01*
X5272239Y2659001D01*
X5276450Y2665303D01*
X5277928Y2672736D01*
Y3114794D01*
X5276450Y3122227D01*
X5272239Y3128528D01*
X5137423Y3263345D01*
Y3377900D01*
X5150700D01*
Y3483300D01*
D02*
G37*
G36*
X311101Y3391325D02*
X231974D01*
X233488Y3379826D01*
X242828Y3357275D01*
X257687Y3337911D01*
X277052Y3323052D01*
X299602Y3313711D01*
X311101Y3312198D01*
Y3391325D01*
D02*
G37*
G36*
X415629D02*
X336501D01*
Y3312197D01*
X348001Y3313711D01*
X370551Y3323052D01*
X389916Y3337911D01*
X404775Y3357275D01*
X414115Y3379826D01*
X415629Y3391325D01*
D02*
G37*
G36*
X2650811Y3349344D02*
X2577612D01*
X2566055Y3344557D01*
X2561267Y3333000D01*
Y3289800D01*
X2566055Y3278243D01*
X2577612Y3273456D01*
X2650811D01*
X2662368Y3278243D01*
X2667155Y3289800D01*
Y3333000D01*
X2662368Y3344557D01*
X2650811Y3349344D01*
D02*
G37*
G36*
X2530812D02*
X2457612D01*
X2446055Y3344557D01*
X2441268Y3333000D01*
Y3330823D01*
X2411813D01*
X2404380Y3329345D01*
X2398079Y3325134D01*
X2358238Y3285293D01*
X2354027Y3278992D01*
X2352549Y3271559D01*
Y2310896D01*
X2354027Y2303462D01*
X2358238Y2297161D01*
X2572708Y2082691D01*
X2579009Y2078481D01*
X2586442Y2077002D01*
X3807941D01*
X3817941Y2062036D01*
X3833719Y2051493D01*
X3852331Y2047791D01*
X3870942Y2051493D01*
X3886720Y2062036D01*
X3897263Y2077814D01*
X3900965Y2096425D01*
X3897263Y2115037D01*
X3886720Y2130815D01*
X3870942Y2141358D01*
X3852331Y2145060D01*
X3833719Y2141358D01*
X3817941Y2130815D01*
X3807941Y2115848D01*
X2594488D01*
X2391395Y2318941D01*
Y3263513D01*
X2419859Y3291977D01*
X2441268D01*
Y3289800D01*
X2446055Y3278243D01*
X2457612Y3273456D01*
X2530812D01*
X2542369Y3278243D01*
X2547156Y3289800D01*
Y3333000D01*
X2542369Y3344557D01*
X2530812Y3349344D01*
D02*
G37*
G36*
X2966872Y3233348D02*
X2942260D01*
Y3190600D01*
X2985009D01*
Y3215212D01*
X2983628Y3222153D01*
X2979697Y3228036D01*
X2973813Y3231968D01*
X2966872Y3233348D01*
D02*
G37*
G36*
X2916860D02*
X2892248D01*
X2885307Y3231968D01*
X2879424Y3228036D01*
X2875492Y3222153D01*
X2874112Y3215212D01*
Y3190600D01*
X2916860D01*
Y3233348D01*
D02*
G37*
G36*
X2985009Y3165200D02*
X2942260D01*
Y3122451D01*
X2966872D01*
X2973813Y3123832D01*
X2979697Y3127763D01*
X2983628Y3133647D01*
X2985009Y3140588D01*
Y3165200D01*
D02*
G37*
G36*
X2916860D02*
X2874112D01*
Y3140588D01*
X2875492Y3133647D01*
X2879424Y3127763D01*
X2885307Y3123832D01*
X2892248Y3122451D01*
X2916860D01*
Y3165200D01*
D02*
G37*
G36*
X3096872Y3233348D02*
X3022248D01*
X3015307Y3231968D01*
X3009423Y3228036D01*
X3005492Y3222153D01*
X3004112Y3215212D01*
Y3140588D01*
X3005492Y3133647D01*
X3005577Y3133520D01*
Y3042700D01*
X2987300D01*
Y2954800D01*
X3032700D01*
Y2967300D01*
X3062700D01*
Y3042700D01*
X3044423D01*
Y3122451D01*
X3096872D01*
X3103813Y3123832D01*
X3109697Y3127763D01*
X3113628Y3133647D01*
X3115009Y3140588D01*
Y3215212D01*
X3113628Y3222153D01*
X3109697Y3228036D01*
X3103813Y3231968D01*
X3096872Y3233348D01*
D02*
G37*
G36*
X2684051Y2976787D02*
X2656251D01*
Y2912700D01*
X2701588D01*
Y2959250D01*
X2700253Y2965961D01*
X2696452Y2971650D01*
X2690762Y2975452D01*
X2684051Y2976787D01*
D02*
G37*
G36*
X3898820Y2976787D02*
X3871020D01*
Y2912700D01*
X3916357D01*
Y2959250D01*
X3915022Y2965961D01*
X3911221Y2971651D01*
X3905531Y2975452D01*
X3898820Y2976787D01*
D02*
G37*
G36*
X3845620D02*
X3817820D01*
X3811109Y2975452D01*
X3805420Y2971651D01*
X3801618Y2965961D01*
X3800283Y2959250D01*
Y2912700D01*
X3845620D01*
Y2976787D01*
D02*
G37*
G36*
X2630851Y2976787D02*
X2603051D01*
X2596340Y2975452D01*
X2590650Y2971650D01*
X2586849Y2965961D01*
X2585514Y2959250D01*
Y2912700D01*
X2630851D01*
Y2976787D01*
D02*
G37*
G36*
X3916357Y2887300D02*
X3871020D01*
Y2823213D01*
X3898820D01*
X3905531Y2824548D01*
X3911221Y2828349D01*
X3915022Y2834039D01*
X3916357Y2840750D01*
Y2887300D01*
D02*
G37*
G36*
X3845620D02*
X3800283D01*
Y2840750D01*
X3801618Y2834039D01*
X3805420Y2828349D01*
X3811109Y2824548D01*
X3817820Y2823213D01*
X3845620D01*
Y2887300D01*
D02*
G37*
G36*
X2701588D02*
X2656251D01*
Y2823213D01*
X2684051D01*
X2690762Y2824548D01*
X2696452Y2828349D01*
X2700253Y2834039D01*
X2701588Y2840750D01*
Y2887300D01*
D02*
G37*
G36*
X2630851D02*
X2585514D01*
Y2840750D01*
X2586849Y2834039D01*
X2590650Y2828349D01*
X2596340Y2824548D01*
X2603051Y2823213D01*
X2630851D01*
Y2887300D01*
D02*
G37*
G36*
X4750000Y3073536D02*
X4716145Y3070201D01*
X4683591Y3060326D01*
X4653589Y3044290D01*
X4627292Y3022708D01*
X4605711Y2996411D01*
X4589674Y2966409D01*
X4579799Y2933855D01*
X4576465Y2900000D01*
X4579799Y2866145D01*
X4589674Y2833591D01*
X4605711Y2803589D01*
X4627292Y2777292D01*
X4653589Y2755711D01*
X4683591Y2739674D01*
X4716145Y2729799D01*
X4750000Y2726464D01*
X4783855Y2729799D01*
X4816409Y2739674D01*
X4846411Y2755711D01*
X4872708Y2777292D01*
X4894290Y2803589D01*
X4910326Y2833591D01*
X4920201Y2866145D01*
X4923536Y2900000D01*
X4920201Y2933855D01*
X4910326Y2966409D01*
X4894290Y2996411D01*
X4872708Y3022708D01*
X4846411Y3044290D01*
X4816409Y3060326D01*
X4783855Y3070201D01*
X4750000Y3073536D01*
D02*
G37*
G36*
X1747500Y3071036D02*
X1713645Y3067701D01*
X1681091Y3057826D01*
X1651089Y3041789D01*
X1624792Y3020208D01*
X1603210Y2993911D01*
X1587174Y2963909D01*
X1577299Y2931355D01*
X1573964Y2897500D01*
X1577299Y2863645D01*
X1587174Y2831091D01*
X1603210Y2801089D01*
X1624792Y2774792D01*
X1651089Y2753210D01*
X1681091Y2737174D01*
X1713645Y2727299D01*
X1747500Y2723964D01*
X1781355Y2727299D01*
X1813909Y2737174D01*
X1843911Y2753210D01*
X1870208Y2774792D01*
X1891789Y2801089D01*
X1907826Y2831091D01*
X1917701Y2863645D01*
X1921036Y2897500D01*
X1917701Y2931355D01*
X1907826Y2963909D01*
X1891789Y2993911D01*
X1870208Y3020208D01*
X1843911Y3041789D01*
X1813909Y3057826D01*
X1781355Y3067701D01*
X1747500Y3071036D01*
D02*
G37*
G36*
X3942830Y2695088D02*
X3863330D01*
X3853419Y2690983D01*
X3849313Y2681071D01*
Y2631571D01*
X3853419Y2621660D01*
X3863330Y2617554D01*
X3883657D01*
Y2538354D01*
X3865767D01*
X3858827Y2536973D01*
X3852943Y2533042D01*
X3849012Y2527158D01*
X3847631Y2520217D01*
Y2445593D01*
X3849012Y2438653D01*
X3852943Y2432769D01*
X3858827Y2428837D01*
X3865767Y2427457D01*
X3940392D01*
X3947332Y2428837D01*
X3953216Y2432769D01*
X3957148Y2438653D01*
X3958528Y2445593D01*
Y2520217D01*
X3957148Y2527158D01*
X3953216Y2533042D01*
X3947332Y2536973D01*
X3940392Y2538354D01*
X3922503D01*
Y2617554D01*
X3942830D01*
X3952742Y2621660D01*
X3956847Y2631571D01*
Y2681071D01*
X3952742Y2690983D01*
X3942830Y2695088D01*
D02*
G37*
G36*
X5070700Y3483300D02*
X5005300D01*
Y3377900D01*
X5018577D01*
Y3189731D01*
X5020055Y3182298D01*
X5024266Y3175997D01*
X5137327Y3062936D01*
Y2742064D01*
X4733750Y2338487D01*
X4062042D01*
X4033890Y2366640D01*
X4027588Y2370850D01*
X4020155Y2372329D01*
X3958528D01*
Y2390217D01*
X3957148Y2397158D01*
X3953216Y2403042D01*
X3947332Y2406973D01*
X3940392Y2408354D01*
X3865767D01*
X3858827Y2406973D01*
X3852943Y2403042D01*
X3849012Y2397158D01*
X3847631Y2390217D01*
Y2372329D01*
X3821591D01*
X3811590Y2387295D01*
X3795812Y2397838D01*
X3777200Y2401540D01*
X3758589Y2397838D01*
X3742811Y2387295D01*
X3732810Y2372329D01*
X3713157D01*
X3556206Y2529279D01*
X3559062Y2533553D01*
X3563928Y2558018D01*
X3559062Y2582482D01*
X3545204Y2603222D01*
X3524464Y2617080D01*
X3500000Y2621946D01*
X3475536Y2617080D01*
X3454796Y2603222D01*
X3440938Y2582482D01*
X3439820Y2576864D01*
X3401484D01*
X3391870Y2591253D01*
X3376092Y2601795D01*
X3357480Y2605497D01*
X3338869Y2601795D01*
X3323090Y2591253D01*
X3312548Y2575474D01*
X3308846Y2556863D01*
X3312548Y2538251D01*
X3323090Y2522473D01*
X3338869Y2511930D01*
X3357480Y2508228D01*
X3376092Y2511930D01*
X3391870Y2522473D01*
X3402256Y2538017D01*
X3440050D01*
X3440938Y2533553D01*
X3454796Y2512814D01*
X3475536Y2498956D01*
X3500000Y2494089D01*
X3524464Y2498956D01*
X3528737Y2501811D01*
X3691377Y2339171D01*
X3697679Y2334961D01*
X3705111Y2333482D01*
X3732810D01*
X3742811Y2318516D01*
X3758589Y2307973D01*
X3777200Y2304271D01*
X3795812Y2307973D01*
X3811590Y2318516D01*
X3821591Y2333482D01*
X3847631D01*
Y2315593D01*
X3849012Y2308653D01*
X3852943Y2302769D01*
X3858827Y2298837D01*
X3865767Y2297457D01*
X3940392D01*
X3947332Y2298837D01*
X3953216Y2302769D01*
X3957148Y2308653D01*
X3958528Y2315593D01*
Y2333482D01*
X4012110D01*
X4040262Y2305330D01*
X4046564Y2301119D01*
X4053997Y2299641D01*
X4741795D01*
X4749228Y2301119D01*
X4755529Y2305330D01*
X5170484Y2720285D01*
X5174695Y2726586D01*
X5176173Y2734019D01*
Y3070981D01*
X5174695Y3078414D01*
X5170484Y3084716D01*
X5057423Y3197777D01*
Y3377900D01*
X5070700D01*
Y3483300D01*
D02*
G37*
G36*
X3175962Y2344440D02*
X3101338D01*
X3094398Y2343059D01*
X3088514Y2339128D01*
X3084582Y2333244D01*
X3083202Y2326303D01*
Y2308414D01*
X2983580D01*
Y2313741D01*
X2979474Y2323653D01*
X2969563Y2327758D01*
X2890063D01*
X2880151Y2323653D01*
X2876046Y2313741D01*
Y2264241D01*
X2880151Y2254330D01*
X2890063Y2250224D01*
X2969563D01*
X2979474Y2254330D01*
X2983580Y2264241D01*
Y2269568D01*
X3083202D01*
Y2251679D01*
X3084582Y2244739D01*
X3088514Y2238855D01*
X3094398Y2234923D01*
X3101338Y2233543D01*
X3175962D01*
X3182903Y2234923D01*
X3188787Y2238855D01*
X3192718Y2244739D01*
X3194099Y2251679D01*
Y2326303D01*
X3192718Y2333244D01*
X3188787Y2339128D01*
X3182903Y2343059D01*
X3175962Y2344440D01*
D02*
G37*
G36*
X2650811Y3619344D02*
X2577612D01*
X2566055Y3614557D01*
X2561267Y3603000D01*
Y3559800D01*
X2566055Y3548243D01*
X2577612Y3543456D01*
X2650811D01*
X2662368Y3548243D01*
X2667155Y3559800D01*
Y3561977D01*
X2720057D01*
X2739173Y3542860D01*
Y3307150D01*
X2484689Y3052666D01*
X2480478Y3046364D01*
X2479000Y3038931D01*
Y2308504D01*
X2480478Y2301071D01*
X2484689Y2294770D01*
X2611723Y2167736D01*
X2611724Y2167735D01*
X2618025Y2163525D01*
X2625458Y2162046D01*
X2625459Y2162046D01*
X3906636D01*
X3916636Y2147080D01*
X3932414Y2136537D01*
X3951026Y2132835D01*
X3969637Y2136537D01*
X3985416Y2147080D01*
X3995958Y2162858D01*
X3999660Y2181470D01*
X3995958Y2200081D01*
X3985416Y2215859D01*
X3969637Y2226402D01*
X3951026Y2230104D01*
X3932414Y2226402D01*
X3916636Y2215859D01*
X3906636Y2200893D01*
X2633503D01*
X2517846Y2316550D01*
Y3030886D01*
X2772331Y3285371D01*
X2776541Y3291672D01*
X2778020Y3299105D01*
Y3550906D01*
X2776541Y3558339D01*
X2772331Y3564640D01*
X2741836Y3595134D01*
X2735535Y3599345D01*
X2728102Y3600823D01*
X2667155D01*
Y3603000D01*
X2662368Y3614557D01*
X2650811Y3619344D01*
D02*
G37*
G36*
X323801Y3243525D02*
X299602Y3240339D01*
X277052Y3230998D01*
X257687Y3216139D01*
X242828Y3196775D01*
X233488Y3174225D01*
X230302Y3150025D01*
X233488Y3125826D01*
X242828Y3103275D01*
X257687Y3083911D01*
X277052Y3069052D01*
X299602Y3059711D01*
X304378Y3059083D01*
Y2955089D01*
X305857Y2947656D01*
X310067Y2941355D01*
X1625202Y1626220D01*
X1631503Y1622009D01*
X1638937Y1620531D01*
X3919274D01*
X3926707Y1622009D01*
X3933008Y1626220D01*
X4208906Y1902117D01*
X4226560Y1898606D01*
X4245172Y1902308D01*
X4260950Y1912850D01*
X4271492Y1928628D01*
X4275194Y1947240D01*
X4271492Y1965852D01*
X4260950Y1981630D01*
X4245172Y1992172D01*
X4226560Y1995874D01*
X4207948Y1992172D01*
X4192170Y1981630D01*
X4181628Y1965852D01*
X4177926Y1947240D01*
X4181437Y1929586D01*
X3911229Y1659377D01*
X1646982D01*
X343225Y2963135D01*
Y3059083D01*
X348001Y3059711D01*
X370551Y3069052D01*
X389916Y3083911D01*
X404775Y3103275D01*
X414115Y3125826D01*
X417301Y3150025D01*
X414115Y3174225D01*
X404775Y3196775D01*
X389916Y3216139D01*
X370551Y3230998D01*
X348001Y3240339D01*
X323801Y3243525D01*
D02*
G37*
G36*
X5390700Y3483300D02*
X5325300D01*
Y3377900D01*
X5338577D01*
Y2602108D01*
X4963661Y2227192D01*
X4298134D01*
X4290701Y2225714D01*
X4284400Y2221504D01*
X3893237Y1830341D01*
X1924955D01*
X655842Y3099453D01*
X658775Y3103275D01*
X668115Y3125826D01*
X671301Y3150025D01*
X668115Y3174225D01*
X658775Y3196775D01*
X643916Y3216139D01*
X624551Y3230998D01*
X602001Y3240339D01*
X577801Y3243525D01*
X553602Y3240339D01*
X531052Y3230998D01*
X511687Y3216139D01*
X496828Y3196775D01*
X487488Y3174225D01*
X484302Y3150025D01*
X487488Y3125826D01*
X496828Y3103275D01*
X511687Y3083911D01*
X531052Y3069052D01*
X553602Y3059711D01*
X577801Y3056526D01*
X602001Y3059711D01*
X624551Y3069052D01*
X628373Y3071985D01*
X1903175Y1797183D01*
X1909476Y1792973D01*
X1916909Y1791494D01*
X3901282D01*
X3908715Y1792973D01*
X3915017Y1797183D01*
X4306180Y2188346D01*
X4971706D01*
X4979139Y2189825D01*
X4985441Y2194035D01*
X5371734Y2580328D01*
X5371734Y2580329D01*
X5375945Y2586630D01*
X5377423Y2594063D01*
Y3377900D01*
X5390700D01*
Y3483300D01*
D02*
G37*
G36*
X577801Y3497525D02*
X553602Y3494339D01*
X531052Y3484998D01*
X511687Y3470139D01*
X496828Y3450775D01*
X487488Y3428225D01*
X484302Y3404025D01*
X487488Y3379826D01*
X496828Y3357275D01*
X499761Y3353453D01*
X437685Y3291377D01*
X433474Y3285076D01*
X431996Y3277643D01*
Y3053666D01*
X433474Y3046233D01*
X437685Y3039932D01*
X1756730Y1720886D01*
X1756731Y1720886D01*
X1763032Y1716675D01*
X1770465Y1715197D01*
X3899333D01*
X3906766Y1716675D01*
X3913067Y1720886D01*
X4328967Y2136786D01*
X5075681D01*
X5083114Y2138265D01*
X5089416Y2142475D01*
X5451735Y2504794D01*
X5455945Y2511095D01*
X5457423Y2518528D01*
Y3377900D01*
X5470700D01*
Y3483300D01*
X5405300D01*
Y3377900D01*
X5418577D01*
Y2526574D01*
X5067636Y2175632D01*
X4320922D01*
X4313489Y2174154D01*
X4307188Y2169944D01*
X3891287Y1754043D01*
X1778510D01*
X470842Y3061711D01*
Y3269597D01*
X527230Y3325985D01*
X531052Y3323052D01*
X553602Y3313711D01*
X577801Y3310526D01*
X602001Y3313711D01*
X624551Y3323052D01*
X643916Y3337911D01*
X658775Y3357275D01*
X668115Y3379826D01*
X671301Y3404025D01*
X668115Y3428225D01*
X658775Y3450775D01*
X643916Y3470139D01*
X624551Y3484998D01*
X602001Y3494339D01*
X577801Y3497525D01*
D02*
G37*
%LPD*%
D10*
X3213180Y3734463D02*
D03*
X3388420D02*
D03*
X2468812Y3785263D02*
D03*
X2293572D02*
D03*
X2643551Y2900000D02*
D03*
X2818791D02*
D03*
X3858320Y2900000D02*
D03*
X3683080D02*
D03*
D11*
X945576Y4819237D02*
D03*
X4577554Y4777961D02*
D03*
X4336782Y3714054D02*
D03*
X4555606Y3620600D02*
D03*
Y3408239D02*
D03*
X3500000Y2558018D02*
D03*
X3268650Y2465330D02*
D03*
X1750000Y5356860D02*
D03*
X759460Y3788025D02*
D03*
X4577554Y4412980D02*
D03*
X3202198Y5009237D02*
D03*
D12*
X2614211Y3311400D02*
D03*
Y3401400D02*
D03*
Y3491400D02*
D03*
Y3581400D02*
D03*
X2494212D02*
D03*
Y3491400D02*
D03*
Y3401400D02*
D03*
Y3311400D02*
D03*
D13*
X935385Y3788025D02*
D03*
Y3658025D02*
D03*
X2060184Y4701937D02*
D03*
Y4831937D02*
D03*
X3903080Y2352905D02*
D03*
Y2482905D02*
D03*
X3481215Y4195798D02*
D03*
Y4065798D02*
D03*
X5159920Y4879237D02*
D03*
Y5009237D02*
D03*
X1310640Y4791480D02*
D03*
Y4921480D02*
D03*
X1077514Y5139237D02*
D03*
Y5009237D02*
D03*
D14*
X530000Y4087321D02*
D03*
Y3957321D02*
D03*
X1170940Y3658025D02*
D03*
Y3788026D02*
D03*
D15*
X3628119Y4514250D02*
D03*
X3758119D02*
D03*
X3138650Y2288991D02*
D03*
X3268650D02*
D03*
X2948791Y2595330D02*
D03*
X2818791D02*
D03*
X2929560Y3177900D02*
D03*
X3059560D02*
D03*
X3561180Y3203300D02*
D03*
X3431180D02*
D03*
X2134166Y5570000D02*
D03*
X2004166D02*
D03*
X4427441Y4083298D02*
D03*
X4297441D02*
D03*
Y4412980D02*
D03*
X4427441D02*
D03*
X530000Y4272280D02*
D03*
X400000D02*
D03*
X3858320Y3203300D02*
D03*
X3988320D02*
D03*
D16*
X4868000Y3700600D02*
D03*
X5848000Y4500600D02*
D03*
Y4420600D02*
D03*
Y4340600D02*
D03*
Y4260600D02*
D03*
Y4180600D02*
D03*
Y4100600D02*
D03*
Y4020600D02*
D03*
Y3940600D02*
D03*
Y3860600D02*
D03*
Y3780600D02*
D03*
Y3700600D02*
D03*
Y3620600D02*
D03*
Y3540600D02*
D03*
X4868000D02*
D03*
Y3620600D02*
D03*
Y3780600D02*
D03*
Y3860600D02*
D03*
Y3940600D02*
D03*
Y4020600D02*
D03*
Y4100600D02*
D03*
Y4180600D02*
D03*
Y4260600D02*
D03*
Y4340600D02*
D03*
Y4420600D02*
D03*
Y4500600D02*
D03*
D17*
X5853000Y3425600D02*
D03*
X4863000D02*
D03*
Y4615600D02*
D03*
X5853000D02*
D03*
D18*
X5358000Y3823100D02*
D03*
X5160500D02*
D03*
Y4020600D02*
D03*
Y4218100D02*
D03*
X5358000D02*
D03*
X5555500Y4020600D02*
D03*
Y3823100D02*
D03*
X5358000Y4020600D02*
D03*
D19*
X5555500Y4218100D02*
D03*
D20*
X5758000Y3430600D02*
D03*
X5678000D02*
D03*
X5598000D02*
D03*
X5518000D02*
D03*
X5438000D02*
D03*
X5358000D02*
D03*
X5278000D02*
D03*
X5198000D02*
D03*
X5118000D02*
D03*
X5038000D02*
D03*
X4958000D02*
D03*
Y4610600D02*
D03*
X5038000D02*
D03*
X5118000D02*
D03*
X5198000D02*
D03*
X5278000D02*
D03*
X5358000D02*
D03*
X5438000D02*
D03*
X5518000D02*
D03*
X5598000D02*
D03*
X5678000D02*
D03*
X5758000D02*
D03*
D21*
X2929813Y2288991D02*
D03*
X2709813D02*
D03*
X3903080Y2656321D02*
D03*
X3683080D02*
D03*
D22*
X3250000Y2900000D02*
D03*
D23*
X2985000D02*
D03*
X3515000D02*
D03*
X3475000Y2795000D02*
D03*
X3400000Y3005000D02*
D03*
X3325000D02*
D03*
Y2795000D02*
D03*
X3250000Y3005000D02*
D03*
Y2795000D02*
D03*
X3175000Y3005000D02*
D03*
Y2795000D02*
D03*
X3475000Y3005000D02*
D03*
X3100000D02*
D03*
X3025000D02*
D03*
Y2795000D02*
D03*
X3100000D02*
D03*
X3400000D02*
D03*
D24*
X3010000Y2975000D02*
D03*
D25*
X3239840Y3460117D02*
D03*
Y3284877D02*
D03*
X2060183Y5034637D02*
D03*
Y5209877D02*
D03*
X2841629Y5009237D02*
D03*
Y5184477D02*
D03*
X5598000Y4884654D02*
D03*
Y5059894D02*
D03*
D26*
X2984898Y3734463D02*
D03*
Y3829463D02*
D03*
Y3924463D02*
D03*
X2694898D02*
D03*
Y3734463D02*
D03*
X3758119Y4273298D02*
D03*
Y4178297D02*
D03*
Y4083298D02*
D03*
X4023119D02*
D03*
Y4178297D02*
D03*
Y4273298D02*
D03*
X1540627Y5009237D02*
D03*
Y4914237D02*
D03*
Y4819237D02*
D03*
X1805627D02*
D03*
Y4914237D02*
D03*
Y5009237D02*
D03*
X2604740D02*
D03*
Y4819237D02*
D03*
X2314740D02*
D03*
Y4914237D02*
D03*
Y5009237D02*
D03*
D27*
X2583573Y5475000D02*
D03*
Y5665000D02*
D03*
X2833573Y5570000D02*
D03*
D28*
X2984898Y3734463D02*
X2986148Y3733213D01*
X3211930D02*
X3213180Y3734463D01*
X2986148Y3733213D02*
X3211930D01*
X3185000Y3762643D02*
X3213180Y3734463D01*
X3185000Y3762643D02*
Y3924453D01*
X2468812Y3785263D02*
X2494212Y3759863D01*
Y3747713D02*
X2507462Y3734463D01*
X2468812Y3773113D02*
X2494212Y3747713D01*
Y3759863D01*
Y3581400D02*
Y3747713D01*
X2468812Y3773113D02*
Y3785263D01*
X2507462Y3734463D02*
X2694898D01*
X1540627Y4914237D02*
X1630578D01*
X1317883D02*
X1540627D01*
X2357693Y5665000D02*
X2583573D01*
X2134166Y5570000D02*
X2262692D01*
X2357693Y5665000D01*
X5159920Y4879237D02*
X5282986D01*
X5438000Y4724223D01*
Y4610600D02*
Y4724223D01*
X4020155Y2533045D02*
Y2998900D01*
X3988320Y3030735D02*
Y3203300D01*
Y3030735D02*
X4020155Y2998900D01*
X4361222Y2400286D02*
X4420335Y2459399D01*
X4313407Y2717177D02*
X4420335Y2610250D01*
Y2459399D02*
Y2610250D01*
X4155440Y2400286D02*
X4361222D01*
X4366306Y2486680D02*
Y2581363D01*
X4249622Y2698046D02*
X4366306Y2581363D01*
X4331535Y2451909D02*
X4366306Y2486680D01*
X4218664Y2451909D02*
X4331535D01*
X4183359Y2487214D02*
X4218664Y2451909D01*
X4278745Y2537003D02*
X4278754D01*
X4190236Y2625511D02*
X4278745Y2537003D01*
X4190236Y2625511D02*
Y3567509D01*
X4155440Y2400286D02*
X4155440Y2400286D01*
X4065986Y2487214D02*
X4183359D01*
X4020155Y2533045D02*
X4065986Y2487214D01*
X4249622Y2698046D02*
Y3314616D01*
X4313407Y2717177D02*
Y3166040D01*
X4555606Y3408239D02*
X4767967Y3620600D01*
X4313407Y3166040D02*
X4555606Y3408239D01*
X4249622Y3314616D02*
X4635606Y3700600D01*
X4190236Y3567509D02*
X4483327Y3860600D01*
X4117340Y3662788D02*
X4395152Y3940600D01*
X4117340Y2558845D02*
Y3662788D01*
X3893497Y1923951D02*
X4151016Y2181470D01*
X3683080Y3203300D02*
X3858320D01*
X2255458Y2321376D02*
X2579411Y1997423D01*
X2255458Y3327338D02*
X2329520Y3401400D01*
X2255458Y2321376D02*
Y3327338D01*
X2371972Y2310896D02*
Y3271559D01*
X2411813Y3311400D02*
X2494212D01*
X2371972Y3271559D02*
X2411813Y3311400D01*
X2371972Y2310896D02*
X2586442Y2096425D01*
X2329520Y3401400D02*
X2494212D01*
X2498423Y2308504D02*
Y3038931D01*
X2758596Y3299105D02*
Y3550906D01*
X2498423Y3038931D02*
X2758596Y3299105D01*
X2728102Y3581400D02*
X2758596Y3550906D01*
X2614211Y3581400D02*
X2728102D01*
X2586442Y2096425D02*
X3852331D01*
X2498423Y2308504D02*
X2625458Y2181470D01*
X2709813Y2288991D02*
Y2377073D01*
X2818791Y2486051D01*
Y2595330D01*
X2929813Y2288991D02*
X3138650D01*
X3268650D02*
Y2465330D01*
Y2288991D02*
X3294050Y2263591D01*
X2579411Y1997423D02*
X3880914D01*
X2625458Y2181470D02*
X3951026D01*
X4050544Y2167053D02*
Y2263591D01*
X3880914Y1997423D02*
X4050544Y2167053D01*
X3294050Y2263591D02*
X4050544D01*
X4849361D01*
X784860Y3154511D02*
X2015420Y1923951D01*
X3893497D01*
X577801Y3150025D02*
X1916909Y1810917D01*
X3901282D02*
X4298134Y2207769D01*
X1916909Y1810917D02*
X3901282D01*
X451419Y3053666D02*
X1770465Y1734620D01*
X3899333D02*
X4320922Y2156209D01*
X1770465Y1734620D02*
X3899333D01*
X3919274Y1639954D02*
X4226560Y1947240D01*
X323801Y2955089D02*
X1638937Y1639954D01*
X3919274D01*
X3959558Y1545288D02*
X4307598Y1893329D01*
X131614Y2917260D02*
X1503585Y1545288D01*
X3959558D01*
X3970383Y1446384D02*
X4414162Y1890163D01*
X74201Y2733153D02*
X1360970Y1446384D01*
X3970383D01*
X3903080Y2352905D02*
X4020155D01*
X3777200D02*
X3903080D01*
X3705111D02*
X3777200D01*
X2047483Y4819237D02*
X2060184Y4831937D01*
X1805627Y4819237D02*
X2047483D01*
X606198Y3788025D02*
X935385D01*
Y3658025D02*
X1170940D01*
X577802D02*
X935385D01*
X530000Y3864223D02*
X606198Y3788025D01*
X577801Y3658025D02*
X577802Y3658025D01*
X4577554Y4412980D02*
X4860380D01*
X4427441D02*
X4452841D01*
X4577554D01*
X4427441Y4083298D02*
Y4412980D01*
X4860380D02*
X4868000Y4420600D01*
X3758119Y4514250D02*
X4854350D01*
X3758119Y4273298D02*
Y4514250D01*
X4854350D02*
X4868000Y4500600D01*
X2917820Y4206880D02*
X3185000D01*
X2266192Y4600481D02*
X2622025Y4244647D01*
X2693442D02*
X2693442Y4244647D01*
X2622025Y4244647D02*
X2693442D01*
X317506Y4600481D02*
X2266192D01*
X131614Y2917260D02*
Y4728669D01*
X323801Y2955089D02*
Y3150025D01*
X74201Y2733153D02*
Y4796061D01*
X784860Y3154511D02*
Y3436620D01*
X451419Y3053666D02*
Y3277643D01*
X1310640Y4921480D02*
X1317883Y4914237D01*
X608269Y4819237D02*
X1282883D01*
X3498715Y4083298D02*
X3758118D01*
X3758119Y4083298D01*
X3481215Y4065798D02*
X3498715Y4083298D01*
X3481215Y4195798D02*
X3498716Y4178297D01*
X3470133Y4206880D02*
X3481215Y4195798D01*
X3498716Y4178297D02*
X3758119D01*
X3185000Y4206880D02*
X3470133D01*
X3891344Y4240821D02*
X3923288Y4272765D01*
X3891344Y4111727D02*
Y4240821D01*
X3923288Y4272765D02*
X4023119D01*
X3758119Y4083298D02*
X3862915D01*
X3891344Y4111727D01*
X4023119Y4083298D02*
X4297441D01*
X2072884Y4819237D02*
X2314740D01*
X2060184Y4831937D02*
X2072884Y4819237D01*
X242657Y4525632D02*
X317506Y4600481D01*
X3903080Y2482906D02*
Y2656321D01*
X3903080Y2482905D02*
X3903080Y2482906D01*
X3683080Y2656321D02*
Y2900000D01*
X3683080Y2900000D01*
X3500000Y2558017D02*
X3705111Y2352905D01*
X4020155D02*
X4053997Y2319064D01*
X4741795D01*
X3500000Y2558017D02*
Y2558018D01*
X4767967Y3620600D02*
X4868000D01*
X4635606Y3700600D02*
X4868000D01*
X3185000Y3924453D02*
Y4206880D01*
X2984898Y3924453D02*
X3185000D01*
X4483327Y3860600D02*
X4868000D01*
X4307598Y1893329D02*
Y2022846D01*
X691841Y3529639D02*
X784860Y3436620D01*
X252323Y3529639D02*
X691841D01*
X4386257Y2101505D02*
X5329076D01*
X5075681Y2156209D02*
X5438000Y2518528D01*
X4971706Y2207769D02*
X5358000Y2594063D01*
X4849361Y2263591D02*
X5258505Y2672736D01*
X4741795Y2319064D02*
X5156750Y2734019D01*
X3175000Y2556863D02*
Y2795000D01*
X2948791Y2595330D02*
X3036469D01*
X3100000Y2658861D02*
Y2795000D01*
X3357480Y2556863D02*
X3358058Y2557440D01*
X3268650Y2465330D02*
X3268650Y2465330D01*
X3360682Y3167250D02*
X3395130D01*
X3325000Y3131568D02*
X3360682Y3167250D01*
X3395130D02*
X3431180Y3203300D01*
X3499423Y2557440D02*
X3500000Y2558018D01*
X4414162Y1890163D02*
Y1999529D01*
X4312678Y2027926D02*
X4386257Y2101505D01*
X2818791Y2595330D02*
Y2900000D01*
X3025000Y3005000D02*
Y3153500D01*
X3268650Y2465330D02*
Y2776350D01*
X3325000Y3005000D02*
Y3131568D01*
X3561180Y3203300D02*
Y3315343D01*
X4307598Y2022846D02*
X4307598Y2022846D01*
X3025000Y3153500D02*
X3049400Y3177900D01*
X3358058Y2557440D02*
X3499423D01*
X3250000Y2795000D02*
X3268650Y2776350D01*
X3036469Y2595330D02*
X3100000Y2658861D01*
X4298134Y2207769D02*
X4971706D01*
X4320922Y2156209D02*
X5075681D01*
X242657Y3993169D02*
Y4525632D01*
X3420321Y4777961D02*
X5130189D01*
X2963540Y4321180D02*
X3420321Y4777961D01*
X2492921Y4562182D02*
Y4928906D01*
X2698977Y4356126D02*
Y4356127D01*
X2492921Y4562182D02*
X2698977Y4356127D01*
X5710581Y880000D02*
Y1720000D01*
X242657Y3993169D02*
X383884Y3851942D01*
X1647956Y4931615D02*
Y5140160D01*
X1750000Y5242203D01*
X5130189Y4777961D02*
X5198000Y4710150D01*
Y4610600D02*
Y4710150D01*
X2412590Y5009237D02*
X2492921Y4928906D01*
X184761Y3597201D02*
X252323Y3529639D01*
X184761Y4674897D02*
X236863Y4727000D01*
X184761Y3597201D02*
Y4674897D01*
X2314740Y5009237D02*
X2412590D01*
X1077514D02*
X1540627D01*
X614402D02*
X1077514D01*
X1540627Y4819237D02*
X1643590D01*
X1338396D02*
X1540627D01*
X555786Y4871720D02*
X608269Y4819237D01*
X1282883D02*
X1310640Y4791480D01*
X1338396Y4819237D01*
X5329076Y2101505D02*
X5710581Y1720000D01*
X274664Y4871720D02*
X555786D01*
X74201Y4796061D02*
X228165Y4950025D01*
X555190D02*
X614402Y5009237D01*
X228165Y4950025D02*
X555190D01*
X131614Y4728669D02*
X274664Y4871720D01*
X1643590Y4819237D02*
X1704089Y4879736D01*
Y4955882D01*
X1738794Y4990587D01*
X1750000Y5570000D02*
X2004166D01*
X5258505Y2672736D02*
Y3114794D01*
X1630578Y4914237D02*
X1647956Y4931615D01*
X4395152Y3940600D02*
X4868000D01*
X236863Y4727000D02*
X400000D01*
X1738794Y4990587D02*
X1786977D01*
X1805627Y5009237D01*
X5438000Y2518528D02*
Y3430600D01*
X5358000Y2594063D02*
Y3430600D01*
X451419Y3277643D02*
X577801Y3404025D01*
X5156750Y2734019D02*
Y3070981D01*
X5038000Y3189731D02*
X5156750Y3070981D01*
X5118000Y3255299D02*
X5258505Y3114794D01*
X5118000Y3255299D02*
Y3430600D01*
X5038000Y3189731D02*
Y3430600D01*
D29*
X5159920Y5009237D02*
X5357005D01*
X2841629Y5009237D02*
X2841629Y5009237D01*
X5159920D01*
X5481587Y4884654D02*
X5598000D01*
X5357005Y5009237D02*
X5481587Y4884654D01*
X3683080Y2900000D02*
Y3203300D01*
Y3269394D01*
X323801Y3658025D02*
X530000Y3864224D01*
Y3864223D02*
Y3957321D01*
Y4087321D02*
X2818791D01*
Y3315343D02*
Y4087321D01*
Y4986399D01*
X2060183Y5034637D02*
X2085584Y5009237D01*
X2028018Y5066802D02*
X2060183Y5034637D01*
X2314740Y5009237D02*
X2314740Y5009237D01*
X2085584Y5009237D02*
X2314740D01*
X1925401Y5066802D02*
X2028018D01*
X2818791Y2900000D02*
X2818791Y2900000D01*
X2985000D02*
X2985000Y2900000D01*
X3561180Y3315343D02*
X3637131D01*
X2818791Y2900000D02*
Y3315343D01*
X2818791Y2900000D02*
X2985000D01*
X3515000Y2900000D02*
X3683080D01*
X3239840Y3284877D02*
X3250000Y3274717D01*
X3637131Y3315343D02*
X3683080Y3269394D01*
X3209374Y3315343D02*
X3239840Y3284877D01*
X3270306Y3315343D01*
X3561180D01*
X3250000Y3005000D02*
Y3274717D01*
X2818791Y3315343D02*
X3209374D01*
X1750000Y5242203D02*
X1925401Y5066802D01*
X2818791Y4986399D02*
X2841629Y5009237D01*
X2604740D02*
X2841629D01*
X1750000Y5356860D02*
Y5570000D01*
Y5242203D02*
Y5356860D01*
X5598000Y4610600D02*
Y4884654D01*
D30*
X530000Y4087321D02*
Y4272280D01*
X400000D02*
Y4473000D01*
D31*
X2833573Y5570000D02*
X3030000D01*
D32*
X400000Y4727000D02*
D03*
D33*
Y4473000D02*
D03*
D34*
X4750000Y2900000D02*
D03*
X1747500Y2897500D02*
D03*
D35*
X3030000Y5570000D02*
D03*
X1750000D02*
D03*
D36*
X3810000Y3810000D02*
D03*
X4064000D02*
D03*
X6096000Y2286000D02*
D03*
X2032000Y4318000D02*
D03*
X6350000Y2286000D02*
D03*
X508000Y1778000D02*
D03*
Y2032000D02*
D03*
X254000D02*
D03*
X6096000D02*
D03*
X5842000Y2286000D02*
D03*
Y2032000D02*
D03*
X254000Y1524000D02*
D03*
Y1778000D02*
D03*
X6350000Y2032000D02*
D03*
X508000Y1524000D02*
D03*
X2286000Y4318000D02*
D03*
D37*
X577801Y3658025D02*
D03*
Y3404025D02*
D03*
Y3150025D02*
D03*
X323801D02*
D03*
Y3404025D02*
D03*
Y3658025D02*
D03*
D38*
X6150000Y350000D02*
D03*
Y5450000D02*
D03*
X350000Y350000D02*
D03*
Y5450000D02*
D03*
D39*
X3388420Y3845091D02*
D03*
X3480019Y3733172D02*
D03*
X3388420Y3621253D02*
D03*
X2293572Y3674634D02*
D03*
X2199433Y3786553D02*
D03*
X2293571Y3895933D02*
D03*
X4278754Y2537003D02*
D03*
X4117340Y2569005D02*
D03*
X2703583Y3401400D02*
D03*
Y3491400D02*
D03*
X3852331Y2096425D02*
D03*
X3777200Y2352905D02*
D03*
X3951026Y2181470D02*
D03*
X2917820Y4206880D02*
D03*
X2693442Y4244647D02*
D03*
X3540019Y4514250D02*
D03*
X4122227Y4178297D02*
D03*
X2149927Y4701937D02*
D03*
X4207960Y4412980D02*
D03*
X4145924Y2181470D02*
D03*
X4155440Y2400286D02*
D03*
X4307598Y2022846D02*
D03*
X4414162Y1999529D02*
D03*
X4226560Y1947240D02*
D03*
X3175000Y2556863D02*
D03*
X2552473Y2899861D02*
D03*
X2953760Y2795000D02*
D03*
X2929813Y3086231D02*
D03*
X2885505Y3829453D02*
D03*
X3086430Y2869160D02*
D03*
Y2940280D02*
D03*
X3086100Y3829453D02*
D03*
X3357480Y2556863D02*
D03*
X3400000Y2724760D02*
D03*
X3413570Y2869160D02*
D03*
Y2940280D02*
D03*
X3543917Y2795000D02*
D03*
X3949780Y2900000D02*
D03*
X3128090Y3461057D02*
D03*
X3100000Y3071254D02*
D03*
X3400000D02*
D03*
X3351590Y3461057D02*
D03*
X3543917Y3005000D02*
D03*
X2643551Y2786750D02*
D03*
X3025000Y2724760D02*
D03*
X3474000D02*
D03*
X3858320Y2786005D02*
D03*
X3239840Y3552520D02*
D03*
X2643551Y3013250D02*
D03*
X3475000Y3071254D02*
D03*
X3858320Y3011500D02*
D03*
X2698977Y4356126D02*
D03*
X2879191Y4324435D02*
D03*
X5710581Y880000D02*
D03*
X2756982Y4189862D02*
D03*
X2879191Y4132172D02*
D03*
X2758391Y4414589D02*
D03*
X2963540Y4321180D02*
D03*
X383884Y3851942D02*
D03*
X1165948Y5139237D02*
D03*
X5484271Y5058983D02*
D03*
X5598000Y5153983D02*
D03*
X5711729Y5058983D02*
D03*
X6215380Y880000D02*
D03*
Y1720000D02*
D03*
X2953379Y5184477D02*
D03*
X2583574Y5552156D02*
D03*
Y5397844D02*
D03*
X2503279Y5549616D02*
D03*
X2480418Y5474999D02*
D03*
X2686729D02*
D03*
X2663869Y5549616D02*
D03*
X2503280Y5400384D02*
D03*
X2663869D02*
D03*
X2841629Y5275940D02*
D03*
X2728379Y5184477D02*
D03*
X2416308Y4914237D02*
D03*
X1259999Y3788026D02*
D03*
X1170940Y3876936D02*
D03*
X1081881Y3788026D02*
D03*
X2171933Y5184478D02*
D03*
X1946933Y5209878D02*
D03*
X2060183Y5301341D02*
D03*
X2213173Y4914237D02*
D03*
X1907250Y4914237D02*
D03*
X4952920Y4340600D02*
D03*
X5710581Y1720000D02*
D03*
X4776475Y3488366D02*
D03*
Y3413750D02*
D03*
X4783184Y4694668D02*
D03*
Y4615600D02*
D03*
X4958000Y4694668D02*
D03*
X5758000Y3704833D02*
D03*
Y3622716D02*
D03*
Y3869066D02*
D03*
Y3786950D02*
D03*
Y4115416D02*
D03*
Y4033300D02*
D03*
Y4279650D02*
D03*
Y4197533D02*
D03*
Y4443883D02*
D03*
X5853000Y4694668D02*
D03*
X5758000D02*
D03*
X4776475Y3339135D02*
D03*
X4783080Y4340600D02*
D03*
X4924980Y3339135D02*
D03*
X4958000Y4531612D02*
D03*
X5158213Y3718380D02*
D03*
X5160500Y3922971D02*
D03*
Y4120471D02*
D03*
X5158213Y4322820D02*
D03*
X5357999Y3718380D02*
D03*
X5358000Y3922971D02*
D03*
Y4120471D02*
D03*
X5357999Y4322820D02*
D03*
X5557786Y3718380D02*
D03*
X5556276Y3922971D02*
D03*
Y4120471D02*
D03*
X5557786Y4322820D02*
D03*
X5853000Y3339578D02*
D03*
X5766979Y3339578D02*
D03*
X5758000Y3540600D02*
D03*
Y3951183D02*
D03*
Y4361766D02*
D03*
Y4526000D02*
D03*
X4863000Y4694668D02*
D03*
X5058320Y3819119D02*
D03*
X5259196Y3823100D02*
D03*
X5456696D02*
D03*
X5657680Y3819120D02*
D03*
X5058320Y4020599D02*
D03*
X5259196Y4020600D02*
D03*
X5457893D02*
D03*
X5657680Y4020600D02*
D03*
X5058320Y4222078D02*
D03*
X5259196Y4218100D02*
D03*
X5456696D02*
D03*
X5657680Y4222079D02*
D03*
X5678000Y4694668D02*
D03*
X4850728Y3339135D02*
D03*
X5058320Y3718380D02*
D03*
X5258106D02*
D03*
X5457893D02*
D03*
X5657679D02*
D03*
X5058320Y3919859D02*
D03*
X5259196Y3922971D02*
D03*
X5456696D02*
D03*
X5657680Y3919860D02*
D03*
X5058320Y4121338D02*
D03*
X5259196Y4120471D02*
D03*
X5456696D02*
D03*
X5657680Y4121339D02*
D03*
X5058320Y4322818D02*
D03*
X5258106Y4322820D02*
D03*
X5457893D02*
D03*
X5657679Y4322819D02*
D03*
X5678000Y4526000D02*
D03*
%TF.MD5,0a9e1843825d0506dd9c38926b44ea03*%
M02*
