%TF.GenerationSoftware,Altium Limited,Altium Designer,20.1.8 (145)*%
G04 Layer_Physical_Order=1*
G04 Layer_Color=2232046*
%FSLAX45Y45*%
%MOMM*%
%TF.SameCoordinates,2300FDCC-ED38-457A-842E-A9769F27D6F2*%
%TF.FilePolarity,Positive*%
%TF.FileFunction,Copper,L1,Top,Signal*%
%TF.Part,Single*%
G01*
G75*
%TA.AperFunction,SMDPad,CuDef*%
G04:AMPARAMS|DCode=10|XSize=0.55mm|YSize=0.9mm|CornerRadius=0.00275mm|HoleSize=0mm|Usage=FLASHONLY|Rotation=90.000|XOffset=0mm|YOffset=0mm|HoleType=Round|Shape=RoundedRectangle|*
%AMROUNDEDRECTD10*
21,1,0.55000,0.89450,0,0,90.0*
21,1,0.54450,0.90000,0,0,90.0*
1,1,0.00550,0.44725,0.27225*
1,1,0.00550,0.44725,-0.27225*
1,1,0.00550,-0.44725,-0.27225*
1,1,0.00550,-0.44725,0.27225*
%
%ADD10ROUNDEDRECTD10*%
G04:AMPARAMS|DCode=11|XSize=0.55mm|YSize=0.9mm|CornerRadius=0.00275mm|HoleSize=0mm|Usage=FLASHONLY|Rotation=0.000|XOffset=0mm|YOffset=0mm|HoleType=Round|Shape=RoundedRectangle|*
%AMROUNDEDRECTD11*
21,1,0.55000,0.89450,0,0,0.0*
21,1,0.54450,0.90000,0,0,0.0*
1,1,0.00550,0.27225,-0.44725*
1,1,0.00550,-0.27225,-0.44725*
1,1,0.00550,-0.27225,0.44725*
1,1,0.00550,0.27225,0.44725*
%
%ADD11ROUNDEDRECTD11*%
G04:AMPARAMS|DCode=12|XSize=0.85mm|YSize=0.85mm|CornerRadius=0.00425mm|HoleSize=0mm|Usage=FLASHONLY|Rotation=0.000|XOffset=0mm|YOffset=0mm|HoleType=Round|Shape=RoundedRectangle|*
%AMROUNDEDRECTD12*
21,1,0.85000,0.84150,0,0,0.0*
21,1,0.84150,0.85000,0,0,0.0*
1,1,0.00850,0.42075,-0.42075*
1,1,0.00850,-0.42075,-0.42075*
1,1,0.00850,-0.42075,0.42075*
1,1,0.00850,0.42075,0.42075*
%
%ADD12ROUNDEDRECTD12*%
G04:AMPARAMS|DCode=13|XSize=0.85mm|YSize=0.85mm|CornerRadius=0.00425mm|HoleSize=0mm|Usage=FLASHONLY|Rotation=90.000|XOffset=0mm|YOffset=0mm|HoleType=Round|Shape=RoundedRectangle|*
%AMROUNDEDRECTD13*
21,1,0.85000,0.84150,0,0,90.0*
21,1,0.84150,0.85000,0,0,90.0*
1,1,0.00850,0.42075,0.42075*
1,1,0.00850,0.42075,-0.42075*
1,1,0.00850,-0.42075,-0.42075*
1,1,0.00850,-0.42075,0.42075*
%
%ADD13ROUNDEDRECTD13*%
%ADD14O,0.45000X1.40000*%
%ADD15O,1.40000X0.45000*%
G04:AMPARAMS|DCode=16|XSize=0.8mm|YSize=0.8mm|CornerRadius=0.004mm|HoleSize=0mm|Usage=FLASHONLY|Rotation=270.000|XOffset=0mm|YOffset=0mm|HoleType=Round|Shape=RoundedRectangle|*
%AMROUNDEDRECTD16*
21,1,0.80000,0.79200,0,0,270.0*
21,1,0.79200,0.80000,0,0,270.0*
1,1,0.00800,-0.39600,-0.39600*
1,1,0.00800,-0.39600,0.39600*
1,1,0.00800,0.39600,0.39600*
1,1,0.00800,0.39600,-0.39600*
%
%ADD16ROUNDEDRECTD16*%
G04:AMPARAMS|DCode=17|XSize=0.6mm|YSize=1.05mm|CornerRadius=0.003mm|HoleSize=0mm|Usage=FLASHONLY|Rotation=180.000|XOffset=0mm|YOffset=0mm|HoleType=Round|Shape=RoundedRectangle|*
%AMROUNDEDRECTD17*
21,1,0.60000,1.04400,0,0,180.0*
21,1,0.59400,1.05000,0,0,180.0*
1,1,0.00600,-0.29700,0.52200*
1,1,0.00600,0.29700,0.52200*
1,1,0.00600,0.29700,-0.52200*
1,1,0.00600,-0.29700,-0.52200*
%
%ADD17ROUNDEDRECTD17*%
G04:AMPARAMS|DCode=18|XSize=0.85mm|YSize=0.9mm|CornerRadius=0.00425mm|HoleSize=0mm|Usage=FLASHONLY|Rotation=0.000|XOffset=0mm|YOffset=0mm|HoleType=Round|Shape=RoundedRectangle|*
%AMROUNDEDRECTD18*
21,1,0.85000,0.89150,0,0,0.0*
21,1,0.84150,0.90000,0,0,0.0*
1,1,0.00850,0.42075,-0.44575*
1,1,0.00850,-0.42075,-0.44575*
1,1,0.00850,-0.42075,0.44575*
1,1,0.00850,0.42075,0.44575*
%
%ADD18ROUNDEDRECTD18*%
G04:AMPARAMS|DCode=19|XSize=0.85mm|YSize=0.9mm|CornerRadius=0.00425mm|HoleSize=0mm|Usage=FLASHONLY|Rotation=90.000|XOffset=0mm|YOffset=0mm|HoleType=Round|Shape=RoundedRectangle|*
%AMROUNDEDRECTD19*
21,1,0.85000,0.89150,0,0,90.0*
21,1,0.84150,0.90000,0,0,90.0*
1,1,0.00850,0.44575,0.42075*
1,1,0.00850,0.44575,-0.42075*
1,1,0.00850,-0.44575,-0.42075*
1,1,0.00850,-0.44575,0.42075*
%
%ADD19ROUNDEDRECTD19*%
%TA.AperFunction,ConnectorPad*%
G04:AMPARAMS|DCode=20|XSize=1.1mm|YSize=2.3mm|CornerRadius=0.0055mm|HoleSize=0mm|Usage=FLASHONLY|Rotation=0.000|XOffset=0mm|YOffset=0mm|HoleType=Round|Shape=RoundedRectangle|*
%AMROUNDEDRECTD20*
21,1,1.10000,2.28900,0,0,0.0*
21,1,1.08900,2.30000,0,0,0.0*
1,1,0.01100,0.54450,-1.14450*
1,1,0.01100,-0.54450,-1.14450*
1,1,0.01100,-0.54450,1.14450*
1,1,0.01100,0.54450,1.14450*
%
%ADD20ROUNDEDRECTD20*%
G04:AMPARAMS|DCode=21|XSize=1.1mm|YSize=2.3mm|CornerRadius=0.0055mm|HoleSize=0mm|Usage=FLASHONLY|Rotation=90.000|XOffset=0mm|YOffset=0mm|HoleType=Round|Shape=RoundedRectangle|*
%AMROUNDEDRECTD21*
21,1,1.10000,2.28900,0,0,90.0*
21,1,1.08900,2.30000,0,0,90.0*
1,1,0.01100,1.14450,0.54450*
1,1,0.01100,1.14450,-0.54450*
1,1,0.01100,-1.14450,-0.54450*
1,1,0.01100,-1.14450,0.54450*
%
%ADD21ROUNDEDRECTD21*%
%TA.AperFunction,Conductor*%
%ADD22C,0.25400*%
%ADD23C,0.12700*%
%ADD24C,0.30480*%
%TA.AperFunction,WasherPad*%
%ADD25C,2.00000*%
%TA.AperFunction,ComponentPad*%
%ADD26C,1.52400*%
G04:AMPARAMS|DCode=27|XSize=1.524mm|YSize=1.524mm|CornerRadius=0.1905mm|HoleSize=0mm|Usage=FLASHONLY|Rotation=180.000|XOffset=0mm|YOffset=0mm|HoleType=Round|Shape=RoundedRectangle|*
%AMROUNDEDRECTD27*
21,1,1.52400,1.14300,0,0,180.0*
21,1,1.14300,1.52400,0,0,180.0*
1,1,0.38100,-0.57150,0.57150*
1,1,0.38100,0.57150,0.57150*
1,1,0.38100,0.57150,-0.57150*
1,1,0.38100,-0.57150,-0.57150*
%
%ADD27ROUNDEDRECTD27*%
%TA.AperFunction,ViaPad*%
%ADD28C,0.50000*%
G36*
X4700000Y0D02*
X0D01*
Y2800000D01*
X4700000Y2800000D01*
Y0D01*
D02*
G37*
%LPC*%
G36*
X3349695Y2608047D02*
X3312740D01*
Y2557620D01*
X3365667D01*
Y2592075D01*
X3364451Y2598187D01*
X3360989Y2603369D01*
X3355807Y2606831D01*
X3349695Y2608047D01*
D02*
G37*
G36*
X3297500D02*
X3260545D01*
X3254433Y2606831D01*
X3249251Y2603369D01*
X3245789Y2598187D01*
X3244573Y2592075D01*
Y2557620D01*
X3297500D01*
Y2608047D01*
D02*
G37*
G36*
X2245150Y2642112D02*
X2195620D01*
Y2557620D01*
X2280112D01*
Y2607150D01*
X2277450Y2620529D01*
X2269872Y2631872D01*
X2258529Y2639450D01*
X2245150Y2642112D01*
D02*
G37*
G36*
X2180380D02*
X2130850D01*
X2117470Y2639450D01*
X2106128Y2631872D01*
X2098549Y2620529D01*
X2095888Y2607150D01*
Y2557620D01*
X2180380D01*
Y2642112D01*
D02*
G37*
G36*
X3991415Y2558047D02*
X3907265D01*
X3901153Y2556831D01*
X3895971Y2553369D01*
X3892509Y2548187D01*
X3891293Y2542075D01*
Y2522013D01*
X3781687D01*
Y2542075D01*
X3780471Y2548187D01*
X3777009Y2553369D01*
X3771827Y2556831D01*
X3765715Y2558047D01*
X3681565D01*
X3675453Y2556831D01*
X3670271Y2553369D01*
X3666809Y2548187D01*
X3665593Y2542075D01*
Y2464433D01*
X3665477Y2463850D01*
Y2434737D01*
X3649378Y2418638D01*
X3160660D01*
X3152236Y2416962D01*
X3145094Y2412191D01*
X3114125Y2381221D01*
X3109353Y2374080D01*
X3107677Y2365656D01*
Y2300109D01*
X3026670D01*
X3020509Y2298884D01*
X3015286Y2295394D01*
X3011796Y2290171D01*
X3010571Y2284010D01*
Y2206232D01*
X2734063D01*
Y2254015D01*
X2732847Y2260127D01*
X2729385Y2265309D01*
X2724204Y2268771D01*
X2718092Y2269987D01*
X2633941D01*
X2627829Y2268771D01*
X2622648Y2265309D01*
X2619186Y2260127D01*
X2617970Y2254015D01*
Y2205627D01*
X2547217D01*
X2547216Y2205627D01*
X2536314Y2203459D01*
X2527072Y2197283D01*
X2343276Y2013487D01*
X2007796D01*
X1997226Y2020550D01*
X1982500Y2023479D01*
X1963488D01*
Y2067933D01*
X1979575D01*
X1985688Y2069149D01*
X1990869Y2072611D01*
X1994331Y2077793D01*
X1995547Y2083905D01*
Y2168055D01*
X1994331Y2174167D01*
X1990869Y2179349D01*
X1985688Y2182811D01*
X1979575Y2184027D01*
X1890425D01*
X1884313Y2182811D01*
X1879132Y2179349D01*
X1875670Y2174167D01*
X1874454Y2168055D01*
Y2083905D01*
X1875670Y2077793D01*
X1879132Y2072611D01*
X1884313Y2069149D01*
X1890425Y2067933D01*
X1906513D01*
Y2023479D01*
X1887500D01*
X1872775Y2020550D01*
X1862205Y2013487D01*
X1798413D01*
X1798412Y2013488D01*
X1787511Y2011319D01*
X1778268Y2005144D01*
X1778268Y2005143D01*
X1652036Y1878912D01*
X1645861Y1869670D01*
X1643692Y1858768D01*
X1643693Y1858767D01*
Y1210461D01*
Y1137887D01*
X1595305D01*
X1589193Y1136671D01*
X1584011Y1133209D01*
X1580549Y1128028D01*
X1579333Y1121915D01*
Y1037765D01*
X1580549Y1031653D01*
X1584011Y1026471D01*
X1589193Y1023009D01*
X1595305Y1021793D01*
X1684455D01*
X1690567Y1023009D01*
X1695749Y1026471D01*
X1699211Y1031653D01*
X1700427Y1037765D01*
Y1051353D01*
X1824456D01*
Y1027640D01*
X1825662Y1021577D01*
X1829096Y1016437D01*
X1834237Y1013002D01*
X1840300Y1011796D01*
X1899700D01*
X1905764Y1013002D01*
X1910904Y1016437D01*
X1914339Y1021577D01*
X1915545Y1027640D01*
Y1132040D01*
X1914339Y1138104D01*
X1910904Y1143244D01*
X1905764Y1146679D01*
X1899700Y1147885D01*
X1840300D01*
X1834237Y1146679D01*
X1829096Y1143244D01*
X1825662Y1138104D01*
X1824456Y1132040D01*
Y1108328D01*
X1700667D01*
Y1181974D01*
X2125460D01*
X2943577Y363856D01*
X2952819Y357681D01*
X2963721Y355512D01*
X2963722Y355513D01*
X3082826D01*
X3090127Y337886D01*
X3104784Y318784D01*
X3123886Y304127D01*
X3146129Y294914D01*
X3170000Y291771D01*
X3193871Y294914D01*
X3216114Y304127D01*
X3217601Y305268D01*
X3279048Y243822D01*
X3286189Y239051D01*
X3294613Y237375D01*
X3905562D01*
X3913986Y239051D01*
X3921128Y243822D01*
X3969596Y292291D01*
X3974367Y299432D01*
X3976043Y307856D01*
Y325953D01*
X4032255D01*
X4038368Y327169D01*
X4043549Y330631D01*
X4047011Y335813D01*
X4048227Y341925D01*
Y426075D01*
X4047011Y432187D01*
X4043549Y437369D01*
X4038368Y440831D01*
X4032255Y442047D01*
X3948105D01*
X3941993Y440831D01*
X3936811Y437369D01*
X3933349Y432187D01*
X3932133Y426075D01*
Y348433D01*
X3932017Y347850D01*
Y316974D01*
X3896444Y281401D01*
X3303731D01*
X3248732Y336399D01*
X3249873Y337886D01*
X3259086Y360129D01*
X3262229Y384000D01*
X3259086Y407871D01*
X3249873Y430114D01*
X3235216Y449216D01*
X3216114Y463873D01*
X3193871Y473086D01*
X3170000Y476229D01*
X3146129Y473086D01*
X3123886Y463873D01*
X3104784Y449216D01*
X3090127Y430114D01*
X3082826Y412487D01*
X2975521D01*
X2157403Y1230605D01*
X2148161Y1236780D01*
X2137260Y1238948D01*
X2137258Y1238948D01*
X1700667D01*
Y1846968D01*
X1810212Y1956513D01*
X1855928D01*
X1858732Y1950534D01*
X1859671Y1946557D01*
X1859535Y1946077D01*
X1851950Y1934725D01*
X1849021Y1920000D01*
X1851950Y1905275D01*
X1859535Y1893923D01*
X1860607Y1890140D01*
Y1884860D01*
X1859535Y1881077D01*
X1851950Y1869725D01*
X1849021Y1855000D01*
X1851950Y1840275D01*
X1860291Y1827791D01*
X1860607Y1827580D01*
Y1817420D01*
X1860291Y1817209D01*
X1851950Y1804725D01*
X1849021Y1790000D01*
X1851950Y1775275D01*
X1859535Y1763923D01*
X1860607Y1760140D01*
Y1754860D01*
X1859535Y1751077D01*
X1851950Y1739726D01*
X1849021Y1725000D01*
X1851950Y1710275D01*
X1860291Y1697791D01*
X1860607Y1697580D01*
Y1687420D01*
X1860291Y1687209D01*
X1851950Y1674725D01*
X1849021Y1660000D01*
X1851950Y1645275D01*
X1859535Y1633923D01*
X1860607Y1630140D01*
Y1624860D01*
X1859535Y1621077D01*
X1851950Y1609726D01*
X1849021Y1595000D01*
X1851950Y1580275D01*
X1860291Y1567791D01*
X1872775Y1559450D01*
X1887500Y1556521D01*
X1912988D01*
Y1491939D01*
X1870211D01*
X1865535Y1498937D01*
X1852224Y1507831D01*
X1836524Y1510954D01*
X1820823Y1507831D01*
X1807512Y1498937D01*
X1798618Y1485626D01*
X1795495Y1469926D01*
X1798618Y1454225D01*
X1807512Y1440914D01*
X1820823Y1432021D01*
X1836524Y1428897D01*
X1852224Y1432021D01*
X1865535Y1440914D01*
X1870211Y1447913D01*
X1991733D01*
Y1394831D01*
X1992949Y1388718D01*
X1996411Y1383537D01*
X2001593Y1380075D01*
X2007705Y1378859D01*
X2091855D01*
X2097967Y1380075D01*
X2103149Y1383537D01*
X2106611Y1388718D01*
X2107827Y1394831D01*
Y1478981D01*
X2106611Y1485093D01*
X2103149Y1490275D01*
X2097967Y1493737D01*
X2091855Y1494953D01*
X2007705D01*
X2001593Y1493737D01*
X1998902Y1491939D01*
X1957013D01*
Y1556521D01*
X1982500D01*
X1997226Y1559450D01*
X2009709Y1567791D01*
X2018051Y1580275D01*
X2020980Y1595000D01*
X2018051Y1609726D01*
X2010466Y1621077D01*
X2009394Y1624860D01*
Y1630140D01*
X2010466Y1633923D01*
X2018051Y1645275D01*
X2020980Y1660000D01*
X2018051Y1674725D01*
X2009709Y1687209D01*
X2009394Y1687420D01*
Y1694396D01*
X2014979Y1702987D01*
X2215582D01*
X2524765Y1393804D01*
X2531906Y1389033D01*
X2540330Y1387357D01*
X2687508D01*
X2741060Y1333805D01*
X2748202Y1329033D01*
X2752291Y1328220D01*
Y1246270D01*
X2753516Y1240109D01*
X2757006Y1234886D01*
X2762229Y1231396D01*
X2768390Y1230171D01*
X2997290D01*
X3003451Y1231396D01*
X3008674Y1234886D01*
X3012164Y1240109D01*
X3013389Y1246270D01*
Y1355170D01*
X3012164Y1361331D01*
X3008674Y1366554D01*
X3003451Y1370044D01*
X2997290Y1371269D01*
X2834762D01*
X2834190Y1371383D01*
X2765744D01*
X2712191Y1424935D01*
X2705049Y1429707D01*
X2696626Y1431383D01*
X2549448D01*
X2240265Y1740565D01*
X2233124Y1745337D01*
X2224700Y1747013D01*
X2013181D01*
X2010466Y1751077D01*
X2009394Y1754860D01*
Y1759396D01*
X2014979Y1767987D01*
X2333178D01*
X2600829Y1500336D01*
X2599187Y1492081D01*
X2602311Y1476380D01*
X2611204Y1463069D01*
X2624515Y1454175D01*
X2640216Y1451052D01*
X2655916Y1454175D01*
X2669227Y1463069D01*
X2678121Y1476380D01*
X2681244Y1492081D01*
X2678121Y1507781D01*
X2669227Y1521092D01*
X2655916Y1529986D01*
X2640216Y1533109D01*
X2631960Y1531467D01*
X2357862Y1805565D01*
X2350720Y1810337D01*
X2342296Y1812013D01*
X2013181D01*
X2010466Y1816077D01*
X2009394Y1819859D01*
Y1824396D01*
X2014979Y1832987D01*
X2759010D01*
X2762229Y1830836D01*
X2768390Y1829611D01*
X2997290D01*
X3003451Y1830836D01*
X3008674Y1834326D01*
X3012164Y1839549D01*
X3013389Y1845710D01*
Y1954610D01*
X3012164Y1960771D01*
X3008674Y1965994D01*
X3003451Y1969484D01*
X2997290Y1970709D01*
X2768390D01*
X2762229Y1969484D01*
X2757006Y1965994D01*
X2753516Y1960771D01*
X2752291Y1954610D01*
Y1877013D01*
X2013181D01*
X2010466Y1881077D01*
X2009394Y1884860D01*
Y1889396D01*
X2014979Y1897987D01*
X2421165D01*
X2429589Y1899663D01*
X2436731Y1904435D01*
X2457774Y1925478D01*
X2490512D01*
X2495189Y1918479D01*
X2508499Y1909585D01*
X2524200Y1906462D01*
X2539901Y1909585D01*
X2553211Y1918479D01*
X2562105Y1931790D01*
X2565228Y1947491D01*
X2562105Y1963191D01*
X2553211Y1976502D01*
X2539901Y1985396D01*
X2524200Y1988519D01*
X2508499Y1985396D01*
X2495189Y1976502D01*
X2490512Y1969504D01*
X2448656D01*
X2440232Y1967828D01*
X2433091Y1963056D01*
X2412047Y1942013D01*
X2018626D01*
X2014879Y1946353D01*
X2016659Y1952461D01*
X2020150Y1956513D01*
X2355075D01*
X2355076Y1956512D01*
X2365978Y1958681D01*
X2375220Y1964856D01*
X2559016Y2148652D01*
X2643715D01*
X2643716Y2148652D01*
X2644928Y2148893D01*
X2718092D01*
X2719920Y2149257D01*
X3010571D01*
Y2055110D01*
X3011796Y2048949D01*
X3015286Y2043726D01*
X3020509Y2040236D01*
X3026670Y2039011D01*
X3135570D01*
X3141731Y2040236D01*
X3146954Y2043726D01*
X3150444Y2048949D01*
X3151669Y2055110D01*
Y2277960D01*
X3151703Y2278130D01*
Y2356538D01*
X3169778Y2374612D01*
X3658496D01*
X3666920Y2376288D01*
X3674061Y2381060D01*
X3703055Y2410054D01*
X3707827Y2417195D01*
X3709503Y2425619D01*
Y2441953D01*
X3765715D01*
X3771827Y2443169D01*
X3777009Y2446631D01*
X3780471Y2451813D01*
X3781687Y2457925D01*
Y2477987D01*
X3891293D01*
Y2457925D01*
X3892509Y2451813D01*
X3895971Y2446631D01*
X3901153Y2443169D01*
X3907265Y2441953D01*
X3991415D01*
X3997527Y2443169D01*
X4002709Y2446631D01*
X4006171Y2451813D01*
X4007387Y2457925D01*
Y2542075D01*
X4006171Y2548187D01*
X4002709Y2553369D01*
X3997527Y2556831D01*
X3991415Y2558047D01*
D02*
G37*
G36*
X3365667Y2542380D02*
X3312740D01*
Y2491953D01*
X3349695D01*
X3355807Y2493169D01*
X3360989Y2496631D01*
X3364451Y2501813D01*
X3365667Y2507925D01*
Y2542380D01*
D02*
G37*
G36*
X3297500D02*
X3244573D01*
Y2507925D01*
X3245789Y2501813D01*
X3249251Y2496631D01*
X3254433Y2493169D01*
X3260545Y2491953D01*
X3297500D01*
Y2542380D01*
D02*
G37*
G36*
X2950000Y2642229D02*
X2926129Y2639086D01*
X2903885Y2629873D01*
X2884784Y2615216D01*
X2870127Y2596114D01*
X2860914Y2573871D01*
X2857771Y2550000D01*
X2860914Y2526129D01*
X2868215Y2508502D01*
X2773104Y2413391D01*
X2596790D01*
X2585889Y2411223D01*
X2576647Y2405048D01*
X2576646Y2405047D01*
X2459280Y2287681D01*
X1817020D01*
X1817018Y2287681D01*
X1806117Y2285512D01*
X1796875Y2279337D01*
X1694865Y2177327D01*
X1571268D01*
Y2193415D01*
X1570052Y2199527D01*
X1566590Y2204709D01*
X1561409Y2208171D01*
X1555297Y2209387D01*
X1471146D01*
X1465034Y2208171D01*
X1459853Y2204709D01*
X1456391Y2199527D01*
X1455175Y2193415D01*
Y2177327D01*
X1396116D01*
X1396115Y2177328D01*
X1385213Y2175159D01*
X1375971Y2168984D01*
X1375971Y2168983D01*
X1324857Y2117869D01*
X1318681Y2108627D01*
X1316513Y2097726D01*
X1316513Y2097724D01*
Y2023479D01*
X1297500D01*
X1282775Y2020550D01*
X1270291Y2012209D01*
X1261950Y1999725D01*
X1259021Y1985000D01*
X1261950Y1970275D01*
X1270291Y1957791D01*
X1270607Y1957580D01*
Y1950604D01*
X1265022Y1942013D01*
X723697D01*
X715272Y1940337D01*
X708131Y1935565D01*
X526935Y1754369D01*
X522163Y1747227D01*
X520487Y1738803D01*
Y1480681D01*
X516423Y1477966D01*
X512641Y1476893D01*
X507359D01*
X503577Y1477966D01*
X492225Y1485550D01*
X477500Y1488479D01*
X462775Y1485550D01*
X451423Y1477966D01*
X447640Y1476894D01*
X443104D01*
X434513Y1482478D01*
Y1741962D01*
X531185Y1838635D01*
X535957Y1845776D01*
X537633Y1854200D01*
Y1955713D01*
X557695D01*
X563807Y1956929D01*
X568989Y1960391D01*
X572451Y1965573D01*
X573667Y1971685D01*
Y2055835D01*
X572451Y2061947D01*
X568989Y2067129D01*
X563807Y2070591D01*
X557695Y2071807D01*
X473545D01*
X467433Y2070591D01*
X462251Y2067129D01*
X458789Y2061947D01*
X457573Y2055835D01*
Y1971685D01*
X458789Y1965573D01*
X462251Y1960391D01*
X467433Y1956929D01*
X473545Y1955713D01*
X493607D01*
Y1863318D01*
X396935Y1766645D01*
X392163Y1759504D01*
X390487Y1751080D01*
Y1480681D01*
X386423Y1477966D01*
X382641Y1476893D01*
X378104D01*
X369513Y1482479D01*
Y1955713D01*
X389575D01*
X395687Y1956929D01*
X400869Y1960391D01*
X404331Y1965573D01*
X405547Y1971685D01*
Y2055835D01*
X404331Y2061947D01*
X400869Y2067129D01*
X395687Y2070591D01*
X389575Y2071807D01*
X305425D01*
X299313Y2070591D01*
X294131Y2067129D01*
X290669Y2061947D01*
X289453Y2055835D01*
Y1971685D01*
X290669Y1965573D01*
X294131Y1960391D01*
X299313Y1956929D01*
X305425Y1955713D01*
X325487D01*
Y1480681D01*
X320291Y1477209D01*
X311950Y1464726D01*
X309021Y1450000D01*
Y1355000D01*
X311950Y1340275D01*
X320291Y1327791D01*
X332775Y1319450D01*
X347500Y1316521D01*
X362225Y1319450D01*
X373577Y1327035D01*
X377359Y1328107D01*
X382641D01*
X386423Y1327035D01*
X397775Y1319450D01*
X412500Y1316521D01*
X427225Y1319450D01*
X438577Y1327035D01*
X442360Y1328107D01*
X446909D01*
X455497Y1320190D01*
Y1264930D01*
X457173Y1256506D01*
X461945Y1249365D01*
X514932Y1196377D01*
Y1000150D01*
X507934Y995473D01*
X499040Y982163D01*
X495917Y966462D01*
X499040Y950761D01*
X507934Y937451D01*
X521245Y928557D01*
X536945Y925434D01*
X552646Y928557D01*
X565957Y937451D01*
X574851Y950761D01*
X577974Y966462D01*
X574851Y982163D01*
X565957Y995473D01*
X558958Y1000150D01*
Y1205495D01*
X557283Y1213919D01*
X552511Y1221060D01*
X499523Y1274048D01*
Y1324326D01*
X503577Y1327035D01*
X507359Y1328107D01*
X512641D01*
X516423Y1327035D01*
X527775Y1319450D01*
X542500Y1316521D01*
X557225Y1319450D01*
X568577Y1327035D01*
X572360Y1328107D01*
X577640D01*
X581423Y1327035D01*
X592775Y1319450D01*
X607500Y1316521D01*
X622225Y1319450D01*
X633577Y1327035D01*
X637359Y1328107D01*
X642641D01*
X646423Y1327035D01*
X657775Y1319450D01*
X672500Y1316521D01*
X687225Y1319450D01*
X698577Y1327035D01*
X702360Y1328107D01*
X707640D01*
X711423Y1327035D01*
X722775Y1319450D01*
X737500Y1316521D01*
X752225Y1319450D01*
X763577Y1327035D01*
X767359Y1328107D01*
X772641D01*
X776423Y1327035D01*
X787775Y1319450D01*
X802500Y1316521D01*
X817225Y1319450D01*
X828577Y1327035D01*
X832360Y1328107D01*
X837640D01*
X841423Y1327035D01*
X852775Y1319450D01*
X867500Y1316521D01*
X882225Y1319450D01*
X893577Y1327035D01*
X897359Y1328107D01*
X902641D01*
X906423Y1327035D01*
X917775Y1319450D01*
X932500Y1316521D01*
X947225Y1319450D01*
X959709Y1327791D01*
X968050Y1340275D01*
X970979Y1355000D01*
Y1450000D01*
X968050Y1464726D01*
X959709Y1477209D01*
X954513Y1480681D01*
Y1521794D01*
X972100D01*
X978202Y1523008D01*
X983376Y1526464D01*
X986832Y1531638D01*
X988046Y1537740D01*
Y1616940D01*
X986832Y1623042D01*
X983376Y1628216D01*
X978202Y1631672D01*
X972100Y1632886D01*
X892900D01*
X886798Y1631672D01*
X881624Y1628216D01*
X878168Y1623042D01*
X876954Y1616940D01*
Y1537740D01*
X878168Y1531638D01*
X881624Y1526464D01*
X886798Y1523008D01*
X892900Y1521794D01*
X910487D01*
Y1480681D01*
X906423Y1477966D01*
X902641Y1476893D01*
X897359D01*
X893577Y1477966D01*
X882225Y1485550D01*
X867500Y1488479D01*
X852775Y1485550D01*
X841423Y1477966D01*
X837640Y1476894D01*
X832360D01*
X828577Y1477966D01*
X817225Y1485550D01*
X802500Y1488479D01*
X787775Y1485550D01*
X776423Y1477966D01*
X772641Y1476893D01*
X768104D01*
X759513Y1482479D01*
Y1523554D01*
X938946Y1702987D01*
X1266819D01*
X1269535Y1698923D01*
X1270607Y1695141D01*
Y1687420D01*
X1270291Y1687209D01*
X1261950Y1674725D01*
X1259021Y1660000D01*
X1261950Y1645275D01*
X1269535Y1633923D01*
X1270607Y1630140D01*
Y1624860D01*
X1269535Y1621077D01*
X1261950Y1609726D01*
X1260537Y1602620D01*
X1345000D01*
X1429464D01*
X1428050Y1609726D01*
X1420466Y1621077D01*
X1419394Y1624860D01*
Y1630140D01*
X1420466Y1633923D01*
X1428050Y1645275D01*
X1430980Y1660000D01*
X1428050Y1674725D01*
X1419709Y1687209D01*
X1419394Y1687420D01*
Y1697580D01*
X1419709Y1697791D01*
X1428050Y1710275D01*
X1430980Y1725000D01*
X1428050Y1739726D01*
X1420466Y1751077D01*
X1419394Y1754860D01*
Y1760140D01*
X1420466Y1763923D01*
X1428050Y1775275D01*
X1430980Y1790000D01*
X1428050Y1804725D01*
X1419709Y1817209D01*
X1419394Y1817420D01*
Y1827580D01*
X1419709Y1827791D01*
X1428050Y1840275D01*
X1430980Y1855000D01*
X1428050Y1869725D01*
X1420466Y1881077D01*
X1419394Y1884860D01*
Y1890140D01*
X1420466Y1893923D01*
X1428050Y1905275D01*
X1430980Y1920000D01*
X1428050Y1934725D01*
X1419709Y1947209D01*
X1419394Y1947420D01*
Y1957580D01*
X1419709Y1957791D01*
X1428050Y1970275D01*
X1430980Y1985000D01*
X1428050Y1999725D01*
X1419709Y2012209D01*
X1407226Y2020550D01*
X1392500Y2023479D01*
X1373488D01*
Y2085925D01*
X1407915Y2120353D01*
X1455175D01*
Y2104265D01*
X1456391Y2098153D01*
X1459853Y2092971D01*
X1465034Y2089509D01*
X1471146Y2088293D01*
X1484734D01*
Y1498467D01*
X1242302D01*
X1242300Y1498468D01*
X1241090Y1498227D01*
X1170425D01*
X1164313Y1497011D01*
X1159131Y1493549D01*
X1155669Y1488367D01*
X1154453Y1482255D01*
Y1398105D01*
X1155669Y1391993D01*
X1159131Y1386811D01*
X1164313Y1383349D01*
X1170425Y1382133D01*
X1254575D01*
X1260688Y1383349D01*
X1265869Y1386811D01*
X1269331Y1391993D01*
X1270547Y1398105D01*
Y1441493D01*
X1484734D01*
Y1337639D01*
X1266496Y1119401D01*
X1260321Y1110159D01*
X1258152Y1099258D01*
X1258152Y1099256D01*
Y688887D01*
X1118487D01*
Y726273D01*
X1132075D01*
X1138187Y727489D01*
X1143369Y730951D01*
X1146831Y736133D01*
X1148047Y742245D01*
Y831395D01*
X1146831Y837507D01*
X1143369Y842689D01*
X1138187Y846151D01*
X1132075Y847367D01*
X1047925D01*
X1041813Y846151D01*
X1036631Y842689D01*
X1033169Y837507D01*
X1031953Y831395D01*
Y742245D01*
X1033169Y736133D01*
X1036631Y730951D01*
X1041813Y727489D01*
X1047925Y726273D01*
X1061513D01*
Y688887D01*
X914626D01*
X895987Y707526D01*
Y738428D01*
X901966Y741231D01*
X905943Y742171D01*
X906423Y742035D01*
X917775Y734450D01*
X932500Y731521D01*
X947225Y734450D01*
X959709Y742791D01*
X968050Y755275D01*
X970979Y770000D01*
Y865000D01*
X968050Y879725D01*
X959709Y892209D01*
X947225Y900550D01*
X932500Y903479D01*
X917775Y900550D01*
X906423Y892965D01*
X902641Y891893D01*
X897359D01*
X893577Y892965D01*
X882225Y900550D01*
X867500Y903479D01*
X852775Y900550D01*
X841423Y892965D01*
X837640Y891894D01*
X832360D01*
X828577Y892965D01*
X817225Y900550D01*
X802500Y903479D01*
X787775Y900550D01*
X776423Y892965D01*
X772641Y891893D01*
X767359D01*
X763577Y892965D01*
X752225Y900550D01*
X745120Y901964D01*
Y817500D01*
Y733037D01*
X752225Y734450D01*
X763577Y742035D01*
X767359Y743107D01*
X772641D01*
X776423Y742035D01*
X787775Y734450D01*
X802500Y731521D01*
X817225Y734450D01*
X828577Y742035D01*
X829057Y742170D01*
X833035Y741231D01*
X839013Y738427D01*
Y695727D01*
X839012Y695726D01*
X841181Y684824D01*
X847356Y675582D01*
X882682Y640257D01*
X882682Y640256D01*
X891924Y634081D01*
X902826Y631913D01*
X1274840D01*
X1358552Y548201D01*
Y282840D01*
X1287497Y211785D01*
X1269870Y219086D01*
X1246000Y222229D01*
X1222129Y219086D01*
X1199885Y209873D01*
X1180784Y195216D01*
X1166127Y176114D01*
X1156914Y153871D01*
X1153771Y130000D01*
X1156914Y106129D01*
X1166127Y83886D01*
X1180784Y64784D01*
X1199885Y50127D01*
X1222129Y40914D01*
X1246000Y37771D01*
X1269870Y40914D01*
X1292114Y50127D01*
X1311216Y64784D01*
X1325872Y83886D01*
X1335086Y106129D01*
X1338229Y130000D01*
X1335086Y153871D01*
X1327785Y171497D01*
X1407183Y250896D01*
X1413358Y260138D01*
X1415527Y271040D01*
X1415527Y271041D01*
Y531513D01*
X1611005D01*
Y515000D01*
X1612993Y510199D01*
X1613169Y509313D01*
X1613671Y508563D01*
X1615836Y503336D01*
X1621064Y501170D01*
X1621813Y500670D01*
X1622697Y500494D01*
X1627500Y498504D01*
X1870203Y498505D01*
X1872501Y499457D01*
X1882225D01*
X1888279Y500661D01*
X1893411Y504090D01*
X1896840Y509222D01*
X1898044Y515276D01*
Y604725D01*
X1896840Y610779D01*
X1893411Y615911D01*
X1888279Y619340D01*
X1886699Y619655D01*
Y741796D01*
X1899700D01*
X1905764Y743002D01*
X1910904Y746437D01*
X1914339Y751577D01*
X1915545Y757640D01*
Y862040D01*
X1914339Y868104D01*
X1910904Y873244D01*
X1905764Y876679D01*
X1899700Y877885D01*
X1872885D01*
X1870203Y878996D01*
X1627498Y878995D01*
X1622661Y876992D01*
X1621853Y876831D01*
X1621168Y876373D01*
X1615834Y874164D01*
X1613601Y868773D01*
X1613210Y868187D01*
X1613072Y867496D01*
X1611002Y862499D01*
X1611004Y595672D01*
X1603820Y588488D01*
X1398839D01*
X1315127Y672200D01*
Y1087458D01*
X1533364Y1305695D01*
X1533365Y1305696D01*
X1539540Y1314938D01*
X1541709Y1325839D01*
X1541709Y1325841D01*
Y1469980D01*
Y2088293D01*
X1555297D01*
X1561409Y2089509D01*
X1566590Y2092971D01*
X1570052Y2098153D01*
X1571268Y2104265D01*
Y2120353D01*
X1706664D01*
X1706665Y2120352D01*
X1717567Y2122521D01*
X1726809Y2128696D01*
X1828819Y2230706D01*
X2471078D01*
X2471080Y2230706D01*
X2481981Y2232874D01*
X2491223Y2239050D01*
X2608590Y2356417D01*
X2784902D01*
X2784904Y2356416D01*
X2795805Y2358585D01*
X2805047Y2364760D01*
X2908502Y2468215D01*
X2926129Y2460914D01*
X2950000Y2457771D01*
X2973870Y2460914D01*
X2996114Y2470127D01*
X3015215Y2484784D01*
X3029872Y2503886D01*
X3037174Y2521513D01*
X3109573D01*
Y2507925D01*
X3110789Y2501813D01*
X3114251Y2496631D01*
X3119433Y2493169D01*
X3125545Y2491953D01*
X3214695D01*
X3220807Y2493169D01*
X3225989Y2496631D01*
X3229451Y2501813D01*
X3230667Y2507925D01*
Y2592075D01*
X3229451Y2598187D01*
X3225989Y2603369D01*
X3220807Y2606831D01*
X3214695Y2608047D01*
X3125545D01*
X3119433Y2606831D01*
X3114251Y2603369D01*
X3110789Y2598187D01*
X3109573Y2592075D01*
Y2578487D01*
X3037174D01*
X3029872Y2596114D01*
X3015215Y2615216D01*
X2996114Y2629873D01*
X2973870Y2639086D01*
X2950000Y2642229D01*
D02*
G37*
G36*
X2280112Y2542380D02*
X2195620D01*
Y2457888D01*
X2245150D01*
X2258529Y2460550D01*
X2269872Y2468128D01*
X2277450Y2479471D01*
X2280112Y2492850D01*
Y2542380D01*
D02*
G37*
G36*
X2180380D02*
X2095888D01*
Y2492850D01*
X2098549Y2479471D01*
X2106128Y2468128D01*
X2117470Y2460550D01*
X2130850Y2457888D01*
X2180380D01*
Y2542380D01*
D02*
G37*
G36*
X2696000Y2642229D02*
X2672129Y2639086D01*
X2649885Y2629873D01*
X2630784Y2615216D01*
X2616127Y2596114D01*
X2606914Y2573871D01*
X2603771Y2550000D01*
X2606914Y2526129D01*
X2616127Y2503886D01*
X2617268Y2502399D01*
X2590322Y2475453D01*
X2565074D01*
X2556650Y2473778D01*
X2549508Y2469006D01*
X2439316Y2358813D01*
X1824617D01*
X1726462Y2456968D01*
X1719320Y2461740D01*
X1710896Y2463415D01*
X659088D01*
X650663Y2461740D01*
X643522Y2456968D01*
X536205Y2349650D01*
X531433Y2342509D01*
X529757Y2334085D01*
Y2201807D01*
X473545D01*
X467433Y2200591D01*
X462251Y2197129D01*
X458789Y2191947D01*
X457573Y2185835D01*
Y2101685D01*
X458789Y2095573D01*
X462251Y2090391D01*
X467433Y2086929D01*
X473545Y2085713D01*
X557695D01*
X563807Y2086929D01*
X568989Y2090391D01*
X572451Y2095573D01*
X573667Y2101685D01*
Y2179327D01*
X573783Y2179910D01*
Y2324967D01*
X668206Y2419389D01*
X1701778D01*
X1799933Y2321235D01*
X1807074Y2316463D01*
X1815499Y2314787D01*
X2448434D01*
X2456857Y2316463D01*
X2463999Y2321235D01*
X2574192Y2431427D01*
X2599440D01*
X2607864Y2433103D01*
X2615005Y2437875D01*
X2648399Y2471268D01*
X2649885Y2470127D01*
X2672129Y2460914D01*
X2696000Y2457771D01*
X2719870Y2460914D01*
X2742114Y2470127D01*
X2761215Y2484784D01*
X2775872Y2503886D01*
X2785086Y2526129D01*
X2788229Y2550000D01*
X2785086Y2573871D01*
X2775872Y2596114D01*
X2761215Y2615216D01*
X2742114Y2629873D01*
X2719870Y2639086D01*
X2696000Y2642229D01*
D02*
G37*
G36*
X2442000D02*
X2418129Y2639086D01*
X2395885Y2629873D01*
X2376784Y2615216D01*
X2362127Y2596114D01*
X2352914Y2573871D01*
X2349771Y2550000D01*
X2352914Y2526129D01*
X2362127Y2503886D01*
X2363268Y2502399D01*
X2293801Y2432932D01*
X1968206D01*
X1878196Y2522942D01*
X1871054Y2527714D01*
X1862630Y2529390D01*
X610514D01*
X602090Y2527714D01*
X594949Y2522942D01*
X368085Y2296078D01*
X363313Y2288937D01*
X361637Y2280513D01*
Y2201807D01*
X305425D01*
X299313Y2200591D01*
X294131Y2197129D01*
X290669Y2191947D01*
X289453Y2185835D01*
Y2101685D01*
X290669Y2095573D01*
X294131Y2090391D01*
X299313Y2086929D01*
X305425Y2085713D01*
X389575D01*
X395687Y2086929D01*
X400869Y2090391D01*
X404331Y2095573D01*
X405547Y2101685D01*
Y2179327D01*
X405663Y2179910D01*
Y2271395D01*
X619632Y2485364D01*
X1853512D01*
X1943523Y2395353D01*
X1950664Y2390581D01*
X1959088Y2388906D01*
X2302918D01*
X2311342Y2390581D01*
X2318484Y2395353D01*
X2394399Y2471268D01*
X2395885Y2470127D01*
X2418129Y2460914D01*
X2442000Y2457771D01*
X2465870Y2460914D01*
X2488114Y2470127D01*
X2507215Y2484784D01*
X2521872Y2503886D01*
X2531086Y2526129D01*
X2534229Y2550000D01*
X2531086Y2573871D01*
X2521872Y2596114D01*
X2507215Y2615216D01*
X2488114Y2629873D01*
X2465870Y2639086D01*
X2442000Y2642229D01*
D02*
G37*
G36*
X4450000Y2716040D02*
X4417607Y2712849D01*
X4386459Y2703400D01*
X4357753Y2688057D01*
X4332592Y2667408D01*
X4311943Y2642247D01*
X4296599Y2613541D01*
X4287151Y2582393D01*
X4283960Y2550000D01*
X4287151Y2517607D01*
X4296599Y2486459D01*
X4311943Y2457753D01*
X4332592Y2432592D01*
X4357753Y2411943D01*
X4386459Y2396599D01*
X4417607Y2387151D01*
X4450000Y2383960D01*
X4482393Y2387151D01*
X4513541Y2396599D01*
X4542247Y2411943D01*
X4567408Y2432592D01*
X4588057Y2457753D01*
X4603400Y2486459D01*
X4612849Y2517607D01*
X4616040Y2550000D01*
X4612849Y2582393D01*
X4603400Y2613541D01*
X4588057Y2642247D01*
X4567408Y2667408D01*
X4542247Y2688057D01*
X4513541Y2703400D01*
X4482393Y2712849D01*
X4450000Y2716040D01*
D02*
G37*
G36*
X250000D02*
X217607Y2712849D01*
X186459Y2703400D01*
X157753Y2688057D01*
X132592Y2667408D01*
X111943Y2642247D01*
X96600Y2613541D01*
X87151Y2582393D01*
X83960Y2550000D01*
X87151Y2517607D01*
X96600Y2486459D01*
X111943Y2457753D01*
X132592Y2432592D01*
X157753Y2411943D01*
X186459Y2396599D01*
X217607Y2387151D01*
X250000Y2383960D01*
X282393Y2387151D01*
X313541Y2396599D01*
X342247Y2411943D01*
X367408Y2432592D01*
X388057Y2457753D01*
X403401Y2486459D01*
X412849Y2517607D01*
X416040Y2550000D01*
X412849Y2582393D01*
X403401Y2613541D01*
X388057Y2642247D01*
X367408Y2667408D01*
X342247Y2688057D01*
X313541Y2703400D01*
X282393Y2712849D01*
X250000Y2716040D01*
D02*
G37*
G36*
X1555297Y2344387D02*
X1520842D01*
Y2291460D01*
X1571268D01*
Y2328415D01*
X1570052Y2334527D01*
X1566590Y2339709D01*
X1561409Y2343171D01*
X1555297Y2344387D01*
D02*
G37*
G36*
X1505602D02*
X1471146D01*
X1465034Y2343171D01*
X1459853Y2339709D01*
X1456391Y2334527D01*
X1455175Y2328415D01*
Y2291460D01*
X1505602D01*
Y2344387D01*
D02*
G37*
G36*
X1571268Y2276220D02*
X1520842D01*
Y2223293D01*
X1555297D01*
X1561409Y2224509D01*
X1566590Y2227971D01*
X1570052Y2233153D01*
X1571268Y2239265D01*
Y2276220D01*
D02*
G37*
G36*
X1505602D02*
X1455175D01*
Y2239265D01*
X1456391Y2233153D01*
X1459853Y2227971D01*
X1465034Y2224509D01*
X1471146Y2223293D01*
X1505602D01*
Y2276220D01*
D02*
G37*
G36*
X2114575Y2184027D02*
X2077620D01*
Y2133600D01*
X2130547D01*
Y2168055D01*
X2129331Y2174167D01*
X2125869Y2179349D01*
X2120688Y2182811D01*
X2114575Y2184027D01*
D02*
G37*
G36*
X2062380D02*
X2025425D01*
X2019313Y2182811D01*
X2014132Y2179349D01*
X2010670Y2174167D01*
X2009454Y2168055D01*
Y2133600D01*
X2062380D01*
Y2184027D01*
D02*
G37*
G36*
X2718092Y2134987D02*
X2683636D01*
Y2082060D01*
X2734063D01*
Y2119015D01*
X2732847Y2125127D01*
X2729385Y2130309D01*
X2724204Y2133771D01*
X2718092Y2134987D01*
D02*
G37*
G36*
X2668396D02*
X2633941D01*
X2627829Y2133771D01*
X2622648Y2130309D01*
X2619186Y2125127D01*
X2617970Y2119015D01*
Y2082060D01*
X2668396D01*
Y2134987D01*
D02*
G37*
G36*
X2130547Y2118360D02*
X2077620D01*
Y2067933D01*
X2114575D01*
X2120688Y2069149D01*
X2125869Y2072611D01*
X2129331Y2077793D01*
X2130547Y2083905D01*
Y2118360D01*
D02*
G37*
G36*
X2062380D02*
X2009454D01*
Y2083905D01*
X2010670Y2077793D01*
X2014132Y2072611D01*
X2019313Y2069149D01*
X2025425Y2067933D01*
X2062380D01*
Y2118360D01*
D02*
G37*
G36*
X4168908Y2622853D02*
X3651927D01*
X3643503Y2621177D01*
X3636362Y2616405D01*
X3614225Y2594268D01*
X3609453Y2587127D01*
X3607777Y2578703D01*
Y2558047D01*
X3551565D01*
X3545453Y2556831D01*
X3540271Y2553369D01*
X3536809Y2548187D01*
X3535593Y2542075D01*
Y2457925D01*
X3536809Y2451813D01*
X3540271Y2446631D01*
X3545453Y2443169D01*
X3551565Y2441953D01*
X3635715D01*
X3641827Y2443169D01*
X3647009Y2446631D01*
X3650471Y2451813D01*
X3651687Y2457925D01*
Y2535567D01*
X3651803Y2536150D01*
Y2569585D01*
X3661045Y2578827D01*
X4159790D01*
X4204488Y2534129D01*
Y2435443D01*
X4206164Y2427020D01*
X4210936Y2419878D01*
X4309455Y2321359D01*
X4316596Y2316587D01*
X4325020Y2314912D01*
X4394874D01*
X4407457Y2302328D01*
Y2218210D01*
X4407571Y2217638D01*
Y2055110D01*
X4408796Y2048949D01*
X4412286Y2043726D01*
X4417509Y2040236D01*
X4423670Y2039011D01*
X4532570D01*
X4538731Y2040236D01*
X4543954Y2043726D01*
X4547444Y2048949D01*
X4548669Y2055110D01*
Y2284010D01*
X4547444Y2290171D01*
X4543954Y2295394D01*
X4538731Y2298884D01*
X4532570Y2300109D01*
X4451483D01*
Y2311446D01*
X4449807Y2319870D01*
X4445035Y2327012D01*
X4419557Y2352490D01*
X4412415Y2357262D01*
X4403991Y2358937D01*
X4334138D01*
X4248514Y2444561D01*
Y2543247D01*
X4246838Y2551671D01*
X4242066Y2558812D01*
X4184473Y2616405D01*
X4177331Y2621177D01*
X4168908Y2622853D01*
D02*
G37*
G36*
X4334450Y2300109D02*
X4225550D01*
X4219389Y2298884D01*
X4214166Y2295394D01*
X4210676Y2290171D01*
X4209451Y2284010D01*
Y2055110D01*
X4210676Y2048949D01*
X4214166Y2043726D01*
X4219389Y2040236D01*
X4225550Y2039011D01*
X4334450D01*
X4340611Y2040236D01*
X4345834Y2043726D01*
X4349324Y2048949D01*
X4350549Y2055110D01*
Y2284010D01*
X4349324Y2290171D01*
X4345834Y2295394D01*
X4340611Y2298884D01*
X4334450Y2300109D01*
D02*
G37*
G36*
X3935670D02*
X3826770D01*
X3820609Y2298884D01*
X3815386Y2295394D01*
X3811896Y2290171D01*
X3810671Y2284010D01*
Y2055110D01*
X3811896Y2048949D01*
X3815386Y2043726D01*
X3820609Y2040236D01*
X3826770Y2039011D01*
X3935670D01*
X3941831Y2040236D01*
X3947054Y2043726D01*
X3950544Y2048949D01*
X3951769Y2055110D01*
Y2284010D01*
X3950544Y2290171D01*
X3947054Y2295394D01*
X3941831Y2298884D01*
X3935670Y2300109D01*
D02*
G37*
G36*
X3732470D02*
X3623570D01*
X3617409Y2298884D01*
X3612186Y2295394D01*
X3608696Y2290171D01*
X3607471Y2284010D01*
Y2055110D01*
X3608696Y2048949D01*
X3612186Y2043726D01*
X3617409Y2040236D01*
X3623570Y2039011D01*
X3732470D01*
X3738631Y2040236D01*
X3743854Y2043726D01*
X3747344Y2048949D01*
X3748569Y2055110D01*
Y2284010D01*
X3747344Y2290171D01*
X3743854Y2295394D01*
X3738631Y2298884D01*
X3732470Y2300109D01*
D02*
G37*
G36*
X3534350D02*
X3425450D01*
X3419289Y2298884D01*
X3414066Y2295394D01*
X3410576Y2290171D01*
X3409351Y2284010D01*
Y2055110D01*
X3410576Y2048949D01*
X3414066Y2043726D01*
X3419289Y2040236D01*
X3425450Y2039011D01*
X3534350D01*
X3540511Y2040236D01*
X3545734Y2043726D01*
X3549224Y2048949D01*
X3550449Y2055110D01*
Y2284010D01*
X3549224Y2290171D01*
X3545734Y2295394D01*
X3540511Y2298884D01*
X3534350Y2300109D01*
D02*
G37*
G36*
X3336230D02*
X3227330D01*
X3221169Y2298884D01*
X3215946Y2295394D01*
X3212456Y2290171D01*
X3211231Y2284010D01*
Y2055110D01*
X3212456Y2048949D01*
X3215946Y2043726D01*
X3221169Y2040236D01*
X3227330Y2039011D01*
X3336230D01*
X3342391Y2040236D01*
X3347614Y2043726D01*
X3351104Y2048949D01*
X3352329Y2055110D01*
Y2284010D01*
X3351104Y2290171D01*
X3347614Y2295394D01*
X3342391Y2298884D01*
X3336230Y2300109D01*
D02*
G37*
G36*
X2734063Y2066820D02*
X2683636D01*
Y2013893D01*
X2718092D01*
X2724204Y2015109D01*
X2729385Y2018571D01*
X2732847Y2023753D01*
X2734063Y2029865D01*
Y2066820D01*
D02*
G37*
G36*
X2668396D02*
X2617970D01*
Y2029865D01*
X2619186Y2023753D01*
X2622648Y2018571D01*
X2627829Y2015109D01*
X2633941Y2013893D01*
X2668396D01*
Y2066820D01*
D02*
G37*
G36*
X2524200Y1818308D02*
X2508499Y1815185D01*
X2495189Y1806291D01*
X2486295Y1792981D01*
X2483172Y1777280D01*
X2486295Y1761579D01*
X2495189Y1748269D01*
X2508499Y1739375D01*
X2524200Y1736252D01*
X2539901Y1739375D01*
X2553211Y1748269D01*
X2557887Y1755267D01*
X2630158D01*
X2650301Y1735125D01*
X2657442Y1730353D01*
X2665866Y1728677D01*
X2752291D01*
Y1647590D01*
X2753516Y1641429D01*
X2757006Y1636206D01*
X2762229Y1632716D01*
X2768390Y1631491D01*
X2997290D01*
X3003451Y1632716D01*
X3008674Y1636206D01*
X3012164Y1641429D01*
X3013389Y1647590D01*
Y1756490D01*
X3012164Y1762651D01*
X3008674Y1767874D01*
X3003451Y1771364D01*
X2997290Y1772589D01*
X2834762D01*
X2834190Y1772703D01*
X2674984D01*
X2654842Y1792845D01*
X2647700Y1797617D01*
X2639276Y1799293D01*
X2557887D01*
X2553211Y1806291D01*
X2539901Y1815185D01*
X2524200Y1818308D01*
D02*
G37*
G36*
X1429464Y1587380D02*
X1352620D01*
Y1556521D01*
X1392500D01*
X1407226Y1559450D01*
X1419709Y1567791D01*
X1428050Y1580275D01*
X1429464Y1587380D01*
D02*
G37*
G36*
X1337380D02*
X1260537D01*
X1261950Y1580275D01*
X1270291Y1567791D01*
X1282775Y1559450D01*
X1297500Y1556521D01*
X1337380D01*
Y1587380D01*
D02*
G37*
G36*
X2221855Y1494953D02*
X2187400D01*
Y1444525D01*
X2237827D01*
Y1478981D01*
X2236611Y1485093D01*
X2233149Y1490275D01*
X2227967Y1493737D01*
X2221855Y1494953D01*
D02*
G37*
G36*
X2172160D02*
X2137705D01*
X2131593Y1493737D01*
X2126411Y1490275D01*
X2122949Y1485093D01*
X2121733Y1478981D01*
Y1444525D01*
X2172160D01*
Y1494953D01*
D02*
G37*
G36*
X2997290Y1574469D02*
X2768390D01*
X2762229Y1573244D01*
X2757006Y1569754D01*
X2753516Y1564531D01*
X2752291Y1558370D01*
Y1449470D01*
X2753516Y1443309D01*
X2757006Y1438086D01*
X2762229Y1434596D01*
X2768390Y1433371D01*
X2997290D01*
X3003451Y1434596D01*
X3008674Y1438086D01*
X3012164Y1443309D01*
X3013389Y1449470D01*
Y1558370D01*
X3012164Y1564531D01*
X3008674Y1569754D01*
X3003451Y1573244D01*
X2997290Y1574469D01*
D02*
G37*
G36*
X1122100Y1632886D02*
X1042900D01*
X1036798Y1631672D01*
X1031625Y1628216D01*
X1028168Y1623042D01*
X1026954Y1616940D01*
Y1537740D01*
X1028168Y1531638D01*
X1031625Y1526464D01*
X1036798Y1523008D01*
X1042900Y1521794D01*
X1060487D01*
Y1498227D01*
X1040425D01*
X1034313Y1497011D01*
X1029131Y1493549D01*
X1025669Y1488367D01*
X1024453Y1482255D01*
Y1398105D01*
X1025669Y1391993D01*
X1029131Y1386811D01*
X1034313Y1383349D01*
X1040425Y1382133D01*
X1124575D01*
X1130688Y1383349D01*
X1135869Y1386811D01*
X1139331Y1391993D01*
X1140547Y1398105D01*
Y1482255D01*
X1139331Y1488367D01*
X1135869Y1493549D01*
X1130688Y1497011D01*
X1124575Y1498227D01*
X1104513D01*
Y1521794D01*
X1122100D01*
X1128202Y1523008D01*
X1133376Y1526464D01*
X1136833Y1531638D01*
X1138046Y1537740D01*
Y1616940D01*
X1136833Y1623042D01*
X1133376Y1628216D01*
X1128202Y1631672D01*
X1122100Y1632886D01*
D02*
G37*
G36*
X2237827Y1429285D02*
X2187400D01*
Y1378859D01*
X2221855D01*
X2227967Y1380075D01*
X2233149Y1383537D01*
X2236611Y1388718D01*
X2237827Y1394831D01*
Y1429285D01*
D02*
G37*
G36*
X2172160D02*
X2121733D01*
Y1394831D01*
X2122949Y1388718D01*
X2126411Y1383537D01*
X2131593Y1380075D01*
X2137705Y1378859D01*
X2172160D01*
Y1429285D01*
D02*
G37*
G36*
X1425068Y1414812D02*
X1409368Y1411689D01*
X1396057Y1402795D01*
X1387163Y1389484D01*
X1384040Y1373783D01*
X1385682Y1365528D01*
X1202947Y1182793D01*
X834708D01*
X826284Y1181117D01*
X819142Y1176345D01*
X591935Y949137D01*
X587163Y941996D01*
X585487Y933572D01*
Y895681D01*
X581423Y892965D01*
X577640Y891894D01*
X572360D01*
X568577Y892965D01*
X557225Y900550D01*
X542500Y903479D01*
X527775Y900550D01*
X516423Y892965D01*
X512641Y891893D01*
X508104D01*
X499513Y897479D01*
Y915265D01*
X497837Y923689D01*
X493066Y930831D01*
X467283Y956613D01*
Y1019766D01*
X465607Y1028190D01*
X460836Y1035331D01*
X397970Y1098196D01*
X390829Y1102968D01*
X382405Y1104644D01*
X132668D01*
X124243Y1102968D01*
X117102Y1098196D01*
X69053Y1050147D01*
X64281Y1043005D01*
X62605Y1034581D01*
Y529382D01*
X64281Y520958D01*
X69053Y513817D01*
X151268Y431601D01*
X150127Y430114D01*
X140914Y407871D01*
X137771Y384000D01*
X140914Y360129D01*
X150127Y337886D01*
X164784Y318784D01*
X183885Y304127D01*
X206129Y294914D01*
X230000Y291771D01*
X253870Y294914D01*
X276114Y304127D01*
X295216Y318784D01*
X309872Y337886D01*
X319086Y360129D01*
X322229Y384000D01*
X319086Y407871D01*
X309872Y430114D01*
X295216Y449216D01*
X276114Y463873D01*
X253870Y473086D01*
X230000Y476229D01*
X206129Y473086D01*
X183885Y463873D01*
X182399Y462732D01*
X106631Y538500D01*
Y1025464D01*
X141786Y1060618D01*
X373287D01*
X423257Y1010648D01*
Y947495D01*
X424933Y939072D01*
X429704Y931930D01*
X455487Y906147D01*
Y895681D01*
X451423Y892965D01*
X447640Y891894D01*
X442360D01*
X438577Y892965D01*
X427225Y900550D01*
X412500Y903479D01*
X397775Y900550D01*
X386423Y892965D01*
X382641Y891893D01*
X378104D01*
X369513Y897479D01*
Y932775D01*
X376511Y937451D01*
X385405Y950761D01*
X388528Y966462D01*
X385405Y982163D01*
X376511Y995473D01*
X363201Y1004367D01*
X347500Y1007490D01*
X331799Y1004367D01*
X318489Y995473D01*
X309595Y982163D01*
X306472Y966462D01*
X309595Y950761D01*
X318489Y937451D01*
X325487Y932775D01*
Y895681D01*
X320291Y892209D01*
X311950Y879725D01*
X309021Y865000D01*
Y821013D01*
X270107D01*
Y841075D01*
X268891Y847188D01*
X265429Y852369D01*
X260247Y855831D01*
X254135Y857047D01*
X169985D01*
X163873Y855831D01*
X158691Y852369D01*
X155229Y847188D01*
X154013Y841075D01*
Y756925D01*
X155229Y750813D01*
X158691Y745631D01*
X163873Y742169D01*
X169985Y740953D01*
X254135D01*
X260247Y742169D01*
X265429Y745631D01*
X268891Y750813D01*
X270107Y756925D01*
Y776987D01*
X309021D01*
Y770000D01*
X311950Y755275D01*
X320291Y742791D01*
X332775Y734450D01*
X347500Y731521D01*
X362225Y734450D01*
X373577Y742035D01*
X377359Y743107D01*
X381896D01*
X390487Y735186D01*
Y610254D01*
X392163Y601830D01*
X396935Y594689D01*
X461987Y529636D01*
Y473331D01*
X460129Y473086D01*
X437885Y463873D01*
X418784Y449216D01*
X404127Y430114D01*
X394914Y407871D01*
X391771Y384000D01*
X394914Y360129D01*
X404127Y337886D01*
X418784Y318784D01*
X437885Y304127D01*
X460129Y294914D01*
X484000Y291771D01*
X507870Y294914D01*
X530114Y304127D01*
X549216Y318784D01*
X563872Y337886D01*
X573086Y360129D01*
X576229Y384000D01*
X573086Y407871D01*
X563872Y430114D01*
X549216Y449216D01*
X530114Y463873D01*
X507870Y473086D01*
X506013Y473331D01*
Y538754D01*
X504337Y547178D01*
X499565Y554320D01*
X434513Y619372D01*
Y739319D01*
X439709Y742791D01*
X439920Y743106D01*
X447640D01*
X451423Y742035D01*
X462775Y734450D01*
X477500Y731521D01*
X492225Y734450D01*
X503577Y742035D01*
X507359Y743107D01*
X511896D01*
X520487Y737522D01*
Y650247D01*
X522163Y641823D01*
X526935Y634682D01*
X618232Y543384D01*
X625374Y538612D01*
X633798Y536937D01*
X1061932D01*
X1167268Y431601D01*
X1166127Y430114D01*
X1156914Y407871D01*
X1153771Y384000D01*
X1156914Y360129D01*
X1166127Y337886D01*
X1180784Y318784D01*
X1199885Y304127D01*
X1222129Y294914D01*
X1246000Y291771D01*
X1269870Y294914D01*
X1292114Y304127D01*
X1311216Y318784D01*
X1325872Y337886D01*
X1335086Y360129D01*
X1338229Y384000D01*
X1335086Y407871D01*
X1325872Y430114D01*
X1311216Y449216D01*
X1292114Y463873D01*
X1269870Y473086D01*
X1246000Y476229D01*
X1222129Y473086D01*
X1199885Y463873D01*
X1198399Y462732D01*
X1086616Y574515D01*
X1079474Y579287D01*
X1071050Y580963D01*
X642916D01*
X564513Y659365D01*
Y739319D01*
X568577Y742035D01*
X572360Y743106D01*
X577640D01*
X581423Y742035D01*
X592775Y734450D01*
X607500Y731521D01*
X622225Y734450D01*
X633577Y742035D01*
X637359Y743107D01*
X642641D01*
X646423Y742035D01*
X657775Y734450D01*
X672500Y731521D01*
X687225Y734450D01*
X698577Y742035D01*
X702360Y743106D01*
X707640D01*
X711423Y742035D01*
X722775Y734450D01*
X729880Y733036D01*
Y817500D01*
Y901963D01*
X722775Y900550D01*
X711423Y892965D01*
X707640Y891894D01*
X702360D01*
X698577Y892965D01*
X687225Y900550D01*
X672500Y903479D01*
X657775Y900550D01*
X646423Y892965D01*
X642641Y891893D01*
X638104D01*
X629513Y897479D01*
Y924454D01*
X843826Y1138767D01*
X1212065D01*
X1220489Y1140443D01*
X1227630Y1145215D01*
X1416813Y1334397D01*
X1425068Y1332755D01*
X1440769Y1335878D01*
X1454080Y1344772D01*
X1462973Y1358083D01*
X1466097Y1373783D01*
X1462973Y1389484D01*
X1454080Y1402795D01*
X1440769Y1411689D01*
X1425068Y1414812D01*
D02*
G37*
G36*
X1549455Y1137887D02*
X1512500D01*
Y1087460D01*
X1565427D01*
Y1121915D01*
X1564211Y1128028D01*
X1560749Y1133209D01*
X1555567Y1136671D01*
X1549455Y1137887D01*
D02*
G37*
G36*
X1497260D02*
X1460305D01*
X1454193Y1136671D01*
X1449011Y1133209D01*
X1445549Y1128028D01*
X1444333Y1121915D01*
Y1087460D01*
X1497260D01*
Y1137887D01*
D02*
G37*
G36*
X2997290Y1173149D02*
X2768390D01*
X2762229Y1171924D01*
X2757006Y1168434D01*
X2753516Y1163211D01*
X2752291Y1157050D01*
Y1048150D01*
X2753516Y1041989D01*
X2757006Y1036766D01*
X2762229Y1033276D01*
X2768390Y1032051D01*
X2997290D01*
X3003451Y1033276D01*
X3008674Y1036766D01*
X3012164Y1041989D01*
X3013389Y1048150D01*
Y1157050D01*
X3012164Y1163211D01*
X3008674Y1168434D01*
X3003451Y1171924D01*
X2997290Y1173149D01*
D02*
G37*
G36*
X1565427Y1072220D02*
X1512500D01*
Y1021793D01*
X1549455D01*
X1555567Y1023009D01*
X1560749Y1026471D01*
X1564211Y1031653D01*
X1565427Y1037765D01*
Y1072220D01*
D02*
G37*
G36*
X1497260D02*
X1444333D01*
Y1037765D01*
X1445549Y1031653D01*
X1449011Y1026471D01*
X1454193Y1023009D01*
X1460305Y1021793D01*
X1497260D01*
Y1072220D01*
D02*
G37*
G36*
X2089700Y1147885D02*
X2030300D01*
X2024236Y1146679D01*
X2019096Y1143244D01*
X2015661Y1138104D01*
X2014455Y1132040D01*
Y1027640D01*
X2015661Y1021577D01*
X2019096Y1016437D01*
X2024236Y1013002D01*
X2030300Y1011796D01*
X2089700D01*
X2095763Y1013002D01*
X2100904Y1016437D01*
X2104338Y1021577D01*
X2105544Y1027640D01*
Y1132040D01*
X2104338Y1138104D01*
X2100904Y1143244D01*
X2095763Y1146679D01*
X2089700Y1147885D01*
D02*
G37*
G36*
X4121415Y2558047D02*
X4037265D01*
X4031153Y2556831D01*
X4025971Y2553369D01*
X4022509Y2548187D01*
X4021293Y2542075D01*
Y2457925D01*
X4022509Y2451813D01*
X4025971Y2446631D01*
X4031153Y2443169D01*
X4037265Y2441953D01*
X4057327D01*
Y2300109D01*
X4024890D01*
X4018729Y2298884D01*
X4013506Y2295394D01*
X4010016Y2290171D01*
X4008791Y2284010D01*
Y2121482D01*
X4008677Y2120910D01*
Y1652196D01*
X3302789Y946307D01*
X3295243Y947808D01*
X3279542Y944685D01*
X3266232Y935791D01*
X3257338Y922481D01*
X3254215Y906780D01*
X3257338Y891079D01*
X3266232Y877769D01*
X3279542Y868875D01*
X3295243Y865752D01*
X3310944Y868875D01*
X3324254Y877769D01*
X3333148Y891079D01*
X3336271Y906780D01*
X3334488Y915745D01*
X4046256Y1627512D01*
X4051027Y1634654D01*
X4052703Y1643078D01*
Y2039011D01*
X4133790D01*
X4139951Y2040236D01*
X4145174Y2043726D01*
X4148664Y2048949D01*
X4149889Y2055110D01*
Y2284010D01*
X4148664Y2290171D01*
X4145174Y2295394D01*
X4139951Y2298884D01*
X4133790Y2300109D01*
X4101353D01*
Y2441953D01*
X4121415D01*
X4127527Y2443169D01*
X4132709Y2446631D01*
X4136171Y2451813D01*
X4137387Y2457925D01*
Y2542075D01*
X4136171Y2548187D01*
X4132709Y2553369D01*
X4127527Y2556831D01*
X4121415Y2558047D01*
D02*
G37*
G36*
X254135Y987047D02*
X219680D01*
Y936620D01*
X270107D01*
Y971075D01*
X268891Y977188D01*
X265429Y982369D01*
X260247Y985831D01*
X254135Y987047D01*
D02*
G37*
G36*
X204440D02*
X169985D01*
X163873Y985831D01*
X158691Y982369D01*
X155229Y977188D01*
X154013Y971075D01*
Y936620D01*
X204440D01*
Y987047D01*
D02*
G37*
G36*
X1132075Y982367D02*
X1097620D01*
Y929440D01*
X1148047D01*
Y966395D01*
X1146831Y972507D01*
X1143369Y977689D01*
X1138187Y981151D01*
X1132075Y982367D01*
D02*
G37*
G36*
X1082380D02*
X1047925D01*
X1041813Y981151D01*
X1036631Y977689D01*
X1033169Y972507D01*
X1031953Y966395D01*
Y929440D01*
X1082380D01*
Y982367D01*
D02*
G37*
G36*
X270107Y921380D02*
X219680D01*
Y870953D01*
X254135D01*
X260247Y872169D01*
X265429Y875631D01*
X268891Y880813D01*
X270107Y886925D01*
Y921380D01*
D02*
G37*
G36*
X204440D02*
X154013D01*
Y886925D01*
X155229Y880813D01*
X158691Y875631D01*
X163873Y872169D01*
X169985Y870953D01*
X204440D01*
Y921380D01*
D02*
G37*
G36*
X1148047Y914200D02*
X1097620D01*
Y861273D01*
X1132075D01*
X1138187Y862489D01*
X1143369Y865951D01*
X1146831Y871133D01*
X1148047Y877245D01*
Y914200D01*
D02*
G37*
G36*
X1082380D02*
X1031953D01*
Y877245D01*
X1033169Y871133D01*
X1036631Y865951D01*
X1041813Y862489D01*
X1047925Y861273D01*
X1082380D01*
Y914200D01*
D02*
G37*
G36*
X2640216Y1375952D02*
X2624515Y1372829D01*
X2611204Y1363935D01*
X2602311Y1350625D01*
X2599187Y1334924D01*
X2602311Y1319223D01*
X2611204Y1305913D01*
X2618203Y1301236D01*
Y1008271D01*
X2619878Y999847D01*
X2624650Y992705D01*
X2685147Y932209D01*
X2692288Y927437D01*
X2700712Y925761D01*
X2752291D01*
Y844950D01*
X2753516Y838789D01*
X2757006Y833566D01*
X2762229Y830076D01*
X2768390Y828851D01*
X2997290D01*
X3003451Y830076D01*
X3008674Y833566D01*
X3012164Y838789D01*
X3013389Y844950D01*
Y953850D01*
X3012164Y960011D01*
X3008674Y965234D01*
X3003451Y968724D01*
X2997290Y969949D01*
X2768390D01*
X2767575Y969787D01*
X2709830D01*
X2662229Y1017389D01*
Y1301236D01*
X2669227Y1305913D01*
X2678121Y1319223D01*
X2681244Y1334924D01*
X2678121Y1350625D01*
X2669227Y1363935D01*
X2655916Y1372829D01*
X2640216Y1375952D01*
D02*
G37*
G36*
X1582115Y878047D02*
X1545160D01*
Y827620D01*
X1598087D01*
Y862075D01*
X1596871Y868187D01*
X1593409Y873369D01*
X1588228Y876831D01*
X1582115Y878047D01*
D02*
G37*
G36*
X1529920D02*
X1492966D01*
X1486853Y876831D01*
X1481672Y873369D01*
X1478210Y868187D01*
X1476994Y862075D01*
Y827620D01*
X1529920D01*
Y878047D01*
D02*
G37*
G36*
X2089700Y877885D02*
X2030300D01*
X2024236Y876679D01*
X2019096Y873244D01*
X2015661Y868104D01*
X2014455Y862040D01*
Y757640D01*
X2015661Y751577D01*
X2019096Y746437D01*
X2024236Y743002D01*
X2030300Y741796D01*
X2089700D01*
X2095763Y743002D01*
X2100904Y746437D01*
X2104338Y751577D01*
X2105544Y757640D01*
Y787827D01*
X2130392D01*
X2135069Y780829D01*
X2148379Y771935D01*
X2164080Y768812D01*
X2179781Y771935D01*
X2193091Y780829D01*
X2201985Y794140D01*
X2205108Y809840D01*
X2201985Y825541D01*
X2193091Y838852D01*
X2179781Y847746D01*
X2164080Y850869D01*
X2148379Y847746D01*
X2135069Y838852D01*
X2130392Y831853D01*
X2105544D01*
Y862040D01*
X2104338Y868104D01*
X2100904Y873244D01*
X2095763Y876679D01*
X2089700Y877885D01*
D02*
G37*
G36*
X1598087Y812380D02*
X1545160D01*
Y761953D01*
X1582115D01*
X1588228Y763169D01*
X1593409Y766631D01*
X1596871Y771813D01*
X1598087Y777925D01*
Y812380D01*
D02*
G37*
G36*
X1529920D02*
X1476994D01*
Y777925D01*
X1478210Y771813D01*
X1481672Y766631D01*
X1486853Y763169D01*
X1492966Y761953D01*
X1529920D01*
Y812380D01*
D02*
G37*
G36*
X3133030Y758009D02*
X3086200D01*
Y635080D01*
X3149129D01*
Y741910D01*
X3147904Y748071D01*
X3144414Y753294D01*
X3139191Y756784D01*
X3133030Y758009D01*
D02*
G37*
G36*
X3070960D02*
X3024130D01*
X3017969Y756784D01*
X3012746Y753294D01*
X3009256Y748071D01*
X3008031Y741910D01*
Y635080D01*
X3070960D01*
Y758009D01*
D02*
G37*
G36*
X2251448Y642647D02*
X2167298D01*
X2161186Y641431D01*
X2156004Y637969D01*
X2152542Y632788D01*
X2151326Y626675D01*
Y542525D01*
X2152542Y536413D01*
X2156004Y531231D01*
X2161186Y527769D01*
X2167298Y526553D01*
X2251448D01*
X2257561Y527769D01*
X2262742Y531231D01*
X2266204Y536413D01*
X2267420Y542525D01*
Y573787D01*
X2313456D01*
Y568575D01*
X2314660Y562522D01*
X2318089Y557390D01*
X2323221Y553961D01*
X2329275Y552756D01*
X2418725D01*
X2424778Y553961D01*
X2429911Y557390D01*
X2433340Y562522D01*
X2434544Y568575D01*
Y623025D01*
X2433340Y629079D01*
X2429911Y634211D01*
X2424778Y637640D01*
X2418725Y638844D01*
X2329275D01*
X2323221Y637640D01*
X2318089Y634211D01*
X2314660Y629079D01*
X2313456Y623025D01*
Y617813D01*
X2267420D01*
Y626675D01*
X2266204Y632788D01*
X2262742Y637969D01*
X2257561Y641431D01*
X2251448Y642647D01*
D02*
G37*
G36*
X4532570Y760549D02*
X4423670D01*
X4417509Y759324D01*
X4412286Y755834D01*
X4408796Y750611D01*
X4407571Y744450D01*
Y581922D01*
X4407457Y581350D01*
Y519527D01*
X4387575Y499645D01*
X4379320Y501287D01*
X4363619Y498164D01*
X4350309Y489270D01*
X4341415Y475960D01*
X4338292Y460259D01*
X4341415Y444558D01*
X4350309Y431248D01*
X4363619Y422354D01*
X4379320Y419231D01*
X4395021Y422354D01*
X4408332Y431248D01*
X4417225Y444558D01*
X4420349Y460259D01*
X4418706Y468514D01*
X4445036Y494843D01*
X4448114Y499451D01*
X4532570D01*
X4538731Y500676D01*
X4543954Y504166D01*
X4547444Y509389D01*
X4548669Y515550D01*
Y744450D01*
X4547444Y750611D01*
X4543954Y755834D01*
X4538731Y759324D01*
X4532570Y760549D01*
D02*
G37*
G36*
X4131250D02*
X4022350D01*
X4016189Y759324D01*
X4010966Y755834D01*
X4007476Y750611D01*
X4006251Y744450D01*
Y515550D01*
X4007476Y509389D01*
X4010966Y504166D01*
X4016189Y500676D01*
X4022350Y499451D01*
X4131250D01*
X4137411Y500676D01*
X4142634Y504166D01*
X4146124Y509389D01*
X4147349Y515550D01*
Y744450D01*
X4146124Y750611D01*
X4142634Y755834D01*
X4137411Y759324D01*
X4131250Y760549D01*
D02*
G37*
G36*
X3933130D02*
X3824230D01*
X3818069Y759324D01*
X3812846Y755834D01*
X3809356Y750611D01*
X3808131Y744450D01*
Y515550D01*
X3809356Y509389D01*
X3812846Y504166D01*
X3818069Y500676D01*
X3824230Y499451D01*
X3933130D01*
X3939291Y500676D01*
X3944514Y504166D01*
X3948004Y509389D01*
X3949229Y515550D01*
Y744450D01*
X3948004Y750611D01*
X3944514Y755834D01*
X3939291Y759324D01*
X3933130Y760549D01*
D02*
G37*
G36*
X3531810Y758009D02*
X3422910D01*
X3416749Y756784D01*
X3411526Y753294D01*
X3408036Y748071D01*
X3406811Y741910D01*
Y513010D01*
X3408036Y506849D01*
X3411526Y501626D01*
X3416749Y498136D01*
X3422910Y496911D01*
X3531810D01*
X3537971Y498136D01*
X3543194Y501626D01*
X3546684Y506849D01*
X3547909Y513010D01*
Y741910D01*
X3546684Y748071D01*
X3543194Y753294D01*
X3537971Y756784D01*
X3531810Y758009D01*
D02*
G37*
G36*
X3333690D02*
X3224790D01*
X3218629Y756784D01*
X3213406Y753294D01*
X3209916Y748071D01*
X3208691Y741910D01*
Y513010D01*
X3209916Y506849D01*
X3213406Y501626D01*
X3218629Y498136D01*
X3224790Y496911D01*
X3333690D01*
X3339851Y498136D01*
X3345074Y501626D01*
X3348564Y506849D01*
X3349789Y513010D01*
Y741910D01*
X3348564Y748071D01*
X3345074Y753294D01*
X3339851Y756784D01*
X3333690Y758009D01*
D02*
G37*
G36*
X3149129Y619840D02*
X3086200D01*
Y496911D01*
X3133030D01*
X3139191Y498136D01*
X3144414Y501626D01*
X3147904Y506849D01*
X3149129Y513010D01*
Y619840D01*
D02*
G37*
G36*
X3070960D02*
X3008031D01*
Y513010D01*
X3009256Y506849D01*
X3012746Y501626D01*
X3017969Y498136D01*
X3024130Y496911D01*
X3070960D01*
Y619840D01*
D02*
G37*
G36*
X1712076Y485547D02*
X1677620D01*
Y432621D01*
X1728047D01*
Y469576D01*
X1726831Y475688D01*
X1723369Y480869D01*
X1718188Y484332D01*
X1712076Y485547D01*
D02*
G37*
G36*
X1662380D02*
X1627925D01*
X1621813Y484332D01*
X1616632Y480869D01*
X1613169Y475688D01*
X1611954Y469576D01*
Y432621D01*
X1662380D01*
Y485547D01*
D02*
G37*
G36*
X745620Y475226D02*
Y391620D01*
X829225D01*
X827086Y407871D01*
X817872Y430114D01*
X803216Y449216D01*
X784114Y463873D01*
X761870Y473086D01*
X745620Y475226D01*
D02*
G37*
G36*
X730380D02*
X714129Y473086D01*
X691885Y463873D01*
X672784Y449216D01*
X658127Y430114D01*
X648914Y407871D01*
X646774Y391620D01*
X730380D01*
Y475226D01*
D02*
G37*
G36*
X3431620Y475225D02*
Y391620D01*
X3515226D01*
X3513086Y407870D01*
X3503873Y430114D01*
X3489216Y449216D01*
X3470114Y463872D01*
X3447871Y473086D01*
X3431620Y475225D01*
D02*
G37*
G36*
X3416380D02*
X3400129Y473086D01*
X3377886Y463872D01*
X3358784Y449216D01*
X3344127Y430114D01*
X3334914Y407870D01*
X3332774Y391620D01*
X3416380D01*
Y475225D01*
D02*
G37*
G36*
X1728047Y417381D02*
X1677620D01*
Y364454D01*
X1712076D01*
X1718188Y365670D01*
X1723369Y369132D01*
X1726831Y374313D01*
X1728047Y380426D01*
Y417381D01*
D02*
G37*
G36*
X1662380D02*
X1611954D01*
Y380426D01*
X1613169Y374313D01*
X1616632Y369132D01*
X1621813Y365670D01*
X1627925Y364454D01*
X1662380D01*
Y417381D01*
D02*
G37*
G36*
X2251448Y512647D02*
X2167298D01*
X2161186Y511431D01*
X2156004Y507969D01*
X2152542Y502788D01*
X2151326Y496675D01*
Y419034D01*
X2151210Y418450D01*
Y381781D01*
X2121443Y352014D01*
X1993044D01*
Y374725D01*
X1991840Y380779D01*
X1988411Y385911D01*
X1983279Y389340D01*
X1977225Y390545D01*
X1922775D01*
X1916722Y389340D01*
X1911590Y385911D01*
X1908161Y380779D01*
X1906956Y374725D01*
Y285276D01*
X1908161Y279222D01*
X1911590Y274090D01*
X1916722Y270661D01*
X1921513Y269708D01*
Y256167D01*
X1885305D01*
X1879193Y254951D01*
X1874011Y251489D01*
X1870549Y246307D01*
X1869334Y240195D01*
Y156045D01*
X1870549Y149933D01*
X1874011Y144751D01*
X1879193Y141289D01*
X1885305Y140073D01*
X1974455D01*
X1980568Y141289D01*
X1985749Y144751D01*
X1989211Y149933D01*
X1990427Y156045D01*
Y195033D01*
X2262826D01*
X2270127Y177406D01*
X2284784Y158304D01*
X2303885Y143647D01*
X2326129Y134434D01*
X2350000Y131291D01*
X2373871Y134434D01*
X2396114Y143647D01*
X2415216Y158304D01*
X2429872Y177406D01*
X2439086Y199649D01*
X2442229Y223520D01*
X2439086Y247391D01*
X2429872Y269634D01*
X2415216Y288736D01*
X2396114Y303393D01*
X2373871Y312606D01*
X2350000Y315749D01*
X2326129Y312606D01*
X2303885Y303393D01*
X2284784Y288736D01*
X2270127Y269634D01*
X2262826Y252007D01*
X1984973D01*
X1980568Y254951D01*
X1978488Y255365D01*
Y269708D01*
X1983279Y270661D01*
X1988411Y274090D01*
X1991840Y279222D01*
X1993044Y285276D01*
Y307988D01*
X2130561D01*
X2138985Y309663D01*
X2146126Y314435D01*
X2188789Y357097D01*
X2193561Y364239D01*
X2195236Y372663D01*
Y396553D01*
X2251448D01*
X2257561Y397769D01*
X2262742Y401231D01*
X2266204Y406413D01*
X2267420Y412525D01*
Y496675D01*
X2266204Y502788D01*
X2262742Y507969D01*
X2257561Y511431D01*
X2251448Y512647D01*
D02*
G37*
G36*
X3732470Y760549D02*
X3623570D01*
X3617409Y759324D01*
X3612186Y755834D01*
X3608696Y750611D01*
X3607471Y744450D01*
Y515550D01*
X3608696Y509389D01*
X3612186Y504166D01*
X3617409Y500676D01*
X3623570Y499451D01*
X3655987D01*
Y473331D01*
X3654129Y473086D01*
X3631886Y463873D01*
X3612784Y449216D01*
X3598127Y430114D01*
X3588914Y407871D01*
X3585771Y384000D01*
X3588914Y360129D01*
X3598127Y337886D01*
X3612784Y318784D01*
X3631886Y304127D01*
X3654129Y294914D01*
X3678000Y291771D01*
X3701871Y294914D01*
X3724114Y304127D01*
X3743216Y318784D01*
X3757873Y337886D01*
X3767086Y360129D01*
X3767331Y361987D01*
X3802133D01*
Y341925D01*
X3803349Y335813D01*
X3806811Y330631D01*
X3811993Y327169D01*
X3818105Y325953D01*
X3902255D01*
X3908368Y327169D01*
X3913549Y330631D01*
X3917011Y335813D01*
X3918227Y341925D01*
Y426075D01*
X3917011Y432187D01*
X3913549Y437369D01*
X3908368Y440831D01*
X3902255Y442047D01*
X3818105D01*
X3811993Y440831D01*
X3806811Y437369D01*
X3803349Y432187D01*
X3802133Y426075D01*
Y406013D01*
X3767331D01*
X3767086Y407871D01*
X3757873Y430114D01*
X3743216Y449216D01*
X3724114Y463873D01*
X3701871Y473086D01*
X3700013Y473331D01*
Y499451D01*
X3732470D01*
X3738631Y500676D01*
X3743854Y504166D01*
X3747344Y509389D01*
X3748569Y515550D01*
Y744450D01*
X3747344Y750611D01*
X3743854Y755834D01*
X3738631Y759324D01*
X3732470Y760549D01*
D02*
G37*
G36*
X829225Y376380D02*
X745620D01*
Y292774D01*
X761870Y294914D01*
X784114Y304127D01*
X803216Y318784D01*
X817872Y337886D01*
X827086Y360129D01*
X829225Y376380D01*
D02*
G37*
G36*
X730380D02*
X646774D01*
X648914Y360129D01*
X658127Y337886D01*
X672784Y318784D01*
X691885Y304127D01*
X714129Y294914D01*
X730380Y292774D01*
Y376380D01*
D02*
G37*
G36*
X3515226Y376380D02*
X3431620D01*
Y292774D01*
X3447871Y294914D01*
X3470114Y304127D01*
X3489216Y318784D01*
X3503873Y337885D01*
X3513086Y360129D01*
X3515226Y376380D01*
D02*
G37*
G36*
X3416380D02*
X3332774D01*
X3334914Y360129D01*
X3344127Y337885D01*
X3358784Y318784D01*
X3377886Y304127D01*
X3400129Y294914D01*
X3416380Y292774D01*
Y376380D01*
D02*
G37*
G36*
X992000Y476229D02*
X968129Y473086D01*
X945885Y463873D01*
X926784Y449216D01*
X912127Y430114D01*
X902914Y407871D01*
X899771Y384000D01*
X902914Y360129D01*
X912127Y337886D01*
X926784Y318784D01*
X945885Y304127D01*
X968129Y294914D01*
X992000Y291771D01*
X1015870Y294914D01*
X1038114Y304127D01*
X1057216Y318784D01*
X1071872Y337886D01*
X1081086Y360129D01*
X1084229Y384000D01*
X1081086Y407871D01*
X1071872Y430114D01*
X1057216Y449216D01*
X1038114Y463873D01*
X1015870Y473086D01*
X992000Y476229D01*
D02*
G37*
G36*
X1839455Y256167D02*
X1802500D01*
Y205740D01*
X1855427D01*
Y240195D01*
X1854211Y246307D01*
X1850749Y251489D01*
X1845568Y254951D01*
X1839455Y256167D01*
D02*
G37*
G36*
X1787260D02*
X1750305D01*
X1744193Y254951D01*
X1739012Y251489D01*
X1735549Y246307D01*
X1734334Y240195D01*
Y205740D01*
X1787260D01*
Y256167D01*
D02*
G37*
G36*
X4334450Y760549D02*
X4225550D01*
X4219389Y759324D01*
X4214166Y755834D01*
X4210676Y750611D01*
X4209451Y744450D01*
Y581922D01*
X4209337Y581350D01*
Y454093D01*
X3907257Y152013D01*
X3767331D01*
X3767086Y153871D01*
X3757873Y176114D01*
X3743216Y195216D01*
X3724114Y209873D01*
X3701871Y219086D01*
X3678000Y222229D01*
X3654129Y219086D01*
X3631886Y209873D01*
X3612784Y195216D01*
X3598127Y176114D01*
X3588914Y153871D01*
X3585771Y130000D01*
X3588914Y106129D01*
X3598127Y83886D01*
X3612784Y64784D01*
X3631886Y50127D01*
X3654129Y40914D01*
X3678000Y37771D01*
X3701871Y40914D01*
X3724114Y50127D01*
X3743216Y64784D01*
X3757873Y83886D01*
X3767086Y106129D01*
X3767331Y107987D01*
X3916375D01*
X3924799Y109663D01*
X3931940Y114435D01*
X4246915Y429409D01*
X4251687Y436551D01*
X4253363Y444975D01*
Y499451D01*
X4334450D01*
X4340611Y500676D01*
X4345834Y504166D01*
X4349324Y509389D01*
X4350549Y515550D01*
Y744450D01*
X4349324Y750611D01*
X4345834Y755834D01*
X4340611Y759324D01*
X4334450Y760549D01*
D02*
G37*
G36*
X1855427Y190500D02*
X1802500D01*
Y140073D01*
X1839455D01*
X1845568Y141289D01*
X1850749Y144751D01*
X1854211Y149933D01*
X1855427Y156045D01*
Y190500D01*
D02*
G37*
G36*
X1787260D02*
X1734334D01*
Y156045D01*
X1735549Y149933D01*
X1739012Y144751D01*
X1744193Y141289D01*
X1750305Y140073D01*
X1787260D01*
Y190500D01*
D02*
G37*
G36*
X491620Y221226D02*
Y137620D01*
X575225D01*
X573086Y153871D01*
X563872Y176114D01*
X549216Y195216D01*
X530114Y209873D01*
X507870Y219086D01*
X491620Y221226D01*
D02*
G37*
G36*
X476380D02*
X460129Y219086D01*
X437885Y209873D01*
X418784Y195216D01*
X404127Y176114D01*
X394914Y153871D01*
X392774Y137620D01*
X476380D01*
Y221226D01*
D02*
G37*
G36*
X2648725Y543844D02*
X2559275D01*
X2553221Y542640D01*
X2548089Y539211D01*
X2544660Y534079D01*
X2543456Y528025D01*
Y473575D01*
X2544660Y467522D01*
X2548089Y462389D01*
X2553221Y458960D01*
X2559275Y457756D01*
X2572923D01*
Y315632D01*
X2546850D01*
X2533471Y312970D01*
X2522128Y305392D01*
X2514549Y294049D01*
X2511888Y280670D01*
Y166370D01*
X2514549Y152991D01*
X2522128Y141648D01*
X2533471Y134070D01*
X2546850Y131408D01*
X2661150D01*
X2674529Y134070D01*
X2685872Y141648D01*
X2693450Y152991D01*
X2696112Y166370D01*
Y280670D01*
X2693450Y294049D01*
X2685872Y305392D01*
X2674529Y312970D01*
X2661150Y315632D01*
X2635077D01*
Y457756D01*
X2648725D01*
X2654779Y458960D01*
X2659911Y462389D01*
X2663340Y467522D01*
X2664544Y473575D01*
Y528025D01*
X2663340Y534079D01*
X2659911Y539211D01*
X2654779Y542640D01*
X2648725Y543844D01*
D02*
G37*
G36*
X4450000Y416040D02*
X4417607Y412849D01*
X4386459Y403401D01*
X4357753Y388057D01*
X4332592Y367408D01*
X4311943Y342247D01*
X4296599Y313541D01*
X4287151Y282393D01*
X4283960Y250000D01*
X4287151Y217607D01*
X4296599Y186459D01*
X4311943Y157753D01*
X4332592Y132592D01*
X4357753Y111943D01*
X4386459Y96600D01*
X4417607Y87151D01*
X4450000Y83960D01*
X4482393Y87151D01*
X4513541Y96600D01*
X4542247Y111943D01*
X4567408Y132592D01*
X4588057Y157753D01*
X4603400Y186459D01*
X4612849Y217607D01*
X4616040Y250000D01*
X4612849Y282393D01*
X4603400Y313541D01*
X4588057Y342247D01*
X4567408Y367408D01*
X4542247Y388057D01*
X4513541Y403401D01*
X4482393Y412849D01*
X4450000Y416040D01*
D02*
G37*
G36*
X575225Y122380D02*
X491620D01*
Y38774D01*
X507870Y40914D01*
X530114Y50127D01*
X549216Y64784D01*
X563872Y83886D01*
X573086Y106129D01*
X575225Y122380D01*
D02*
G37*
G36*
X476380D02*
X392774D01*
X394914Y106129D01*
X404127Y83886D01*
X418784Y64784D01*
X437885Y50127D01*
X460129Y40914D01*
X476380Y38774D01*
Y122380D01*
D02*
G37*
G36*
X3424000Y222229D02*
X3400129Y219086D01*
X3377886Y209873D01*
X3358784Y195216D01*
X3344127Y176115D01*
X3334914Y153871D01*
X3331771Y130000D01*
X3334914Y106130D01*
X3344127Y83886D01*
X3358784Y64784D01*
X3377886Y50128D01*
X3400129Y40914D01*
X3424000Y37771D01*
X3447871Y40914D01*
X3470114Y50128D01*
X3489216Y64784D01*
X3503873Y83886D01*
X3513086Y106130D01*
X3516229Y130000D01*
X3513086Y153871D01*
X3503873Y176115D01*
X3489216Y195216D01*
X3470114Y209873D01*
X3447871Y219086D01*
X3424000Y222229D01*
D02*
G37*
G36*
X3170000Y222229D02*
X3146129Y219086D01*
X3123886Y209873D01*
X3104784Y195216D01*
X3090127Y176114D01*
X3080914Y153871D01*
X3077771Y130000D01*
X3080914Y106129D01*
X3090127Y83886D01*
X3104784Y64784D01*
X3123886Y50127D01*
X3146129Y40914D01*
X3170000Y37771D01*
X3193871Y40914D01*
X3216114Y50127D01*
X3235216Y64784D01*
X3249873Y83886D01*
X3259086Y106129D01*
X3262229Y130000D01*
X3259086Y153871D01*
X3249873Y176114D01*
X3235216Y195216D01*
X3216114Y209873D01*
X3193871Y219086D01*
X3170000Y222229D01*
D02*
G37*
G36*
X992000D02*
X968129Y219086D01*
X945885Y209873D01*
X926784Y195216D01*
X912127Y176114D01*
X902914Y153871D01*
X899771Y130000D01*
X902914Y106129D01*
X912127Y83886D01*
X926784Y64784D01*
X945885Y50127D01*
X968129Y40914D01*
X992000Y37771D01*
X1015870Y40914D01*
X1038114Y50127D01*
X1057216Y64784D01*
X1071872Y83886D01*
X1081086Y106129D01*
X1084229Y130000D01*
X1081086Y153871D01*
X1071872Y176114D01*
X1057216Y195216D01*
X1038114Y209873D01*
X1015870Y219086D01*
X992000Y222229D01*
D02*
G37*
G36*
X738000D02*
X714129Y219086D01*
X691885Y209873D01*
X672784Y195216D01*
X658127Y176114D01*
X648914Y153871D01*
X645771Y130000D01*
X648914Y106129D01*
X658127Y83886D01*
X672784Y64784D01*
X691885Y50127D01*
X714129Y40914D01*
X738000Y37771D01*
X761870Y40914D01*
X784114Y50127D01*
X803216Y64784D01*
X817872Y83886D01*
X827086Y106129D01*
X830229Y130000D01*
X827086Y153871D01*
X817872Y176114D01*
X803216Y195216D01*
X784114Y209873D01*
X761870Y219086D01*
X738000Y222229D01*
D02*
G37*
G36*
X230000D02*
X206129Y219086D01*
X183885Y209873D01*
X164784Y195216D01*
X150127Y176114D01*
X140914Y153871D01*
X137771Y130000D01*
X140914Y106129D01*
X150127Y83886D01*
X164784Y64784D01*
X183885Y50127D01*
X206129Y40914D01*
X230000Y37771D01*
X253870Y40914D01*
X276114Y50127D01*
X295216Y64784D01*
X309872Y83886D01*
X319086Y106129D01*
X322229Y130000D01*
X319086Y153871D01*
X309872Y176114D01*
X295216Y195216D01*
X276114Y209873D01*
X253870Y219086D01*
X230000Y222229D01*
D02*
G37*
%LPD*%
G36*
X1269535Y1763923D02*
X1270607Y1760140D01*
Y1755604D01*
X1265022Y1747013D01*
X929828D01*
X921404Y1745337D01*
X914263Y1740566D01*
X721935Y1548237D01*
X717163Y1541096D01*
X715487Y1532672D01*
Y1480681D01*
X711423Y1477966D01*
X707640Y1476894D01*
X703104D01*
X694513Y1482478D01*
Y1593022D01*
X869478Y1767987D01*
X1266819D01*
X1269535Y1763923D01*
D02*
G37*
G36*
Y1893923D02*
X1270607Y1890140D01*
Y1885604D01*
X1265022Y1877013D01*
X792606D01*
X784182Y1875337D01*
X777040Y1870566D01*
X591935Y1685460D01*
X587163Y1678318D01*
X585487Y1669894D01*
Y1480681D01*
X581423Y1477966D01*
X577640Y1476894D01*
X573104D01*
X564513Y1482478D01*
Y1729686D01*
X732815Y1897987D01*
X1266819D01*
X1269535Y1893923D01*
D02*
G37*
G36*
Y1828923D02*
X1270607Y1825141D01*
Y1820604D01*
X1265022Y1812013D01*
X860360D01*
X851936Y1810337D01*
X844795Y1805566D01*
X656935Y1617705D01*
X652163Y1610564D01*
X650487Y1602140D01*
Y1480681D01*
X646423Y1477966D01*
X642641Y1476893D01*
X638104D01*
X629513Y1482479D01*
Y1660776D01*
X801724Y1832987D01*
X1266819D01*
X1269535Y1828923D01*
D02*
G37*
G36*
X1870203Y515000D02*
X1627500Y515000D01*
X1627498Y862499D01*
X1870203Y862500D01*
X1870203Y515000D01*
D02*
G37*
D10*
X2604000Y500800D02*
D03*
X2374000Y405800D02*
D03*
Y595800D02*
D03*
D11*
X2045000Y560001D02*
D03*
X1855000D02*
D03*
X1950000Y330001D02*
D03*
D12*
X2209373Y584600D02*
D03*
Y454600D02*
D03*
X212060Y799000D02*
D03*
Y929000D02*
D03*
X347500Y2013760D02*
D03*
Y2143760D02*
D03*
X515620D02*
D03*
Y2013760D02*
D03*
D13*
X2049780Y1436906D02*
D03*
X2179780D02*
D03*
X3723640Y2500000D02*
D03*
X3593640D02*
D03*
X4079340D02*
D03*
X3949340D02*
D03*
X3860180Y384000D02*
D03*
X3990180D02*
D03*
X1082500Y1440180D02*
D03*
X1212500D02*
D03*
D14*
X932500Y1402500D02*
D03*
X867500D02*
D03*
X802500D02*
D03*
X737500D02*
D03*
X672500D02*
D03*
X607500D02*
D03*
X542500D02*
D03*
X477500D02*
D03*
X412500D02*
D03*
X347500D02*
D03*
X932500Y817500D02*
D03*
X867500D02*
D03*
X802500D02*
D03*
X737500D02*
D03*
X672500D02*
D03*
X607500D02*
D03*
X542500D02*
D03*
X477500D02*
D03*
X412500D02*
D03*
X347500D02*
D03*
D15*
X1935000Y1595000D02*
D03*
Y1660000D02*
D03*
Y1725000D02*
D03*
Y1790000D02*
D03*
Y1855000D02*
D03*
Y1920000D02*
D03*
Y1985000D02*
D03*
X1345000Y1595000D02*
D03*
Y1660000D02*
D03*
Y1725000D02*
D03*
Y1790000D02*
D03*
Y1855000D02*
D03*
Y1920000D02*
D03*
Y1985000D02*
D03*
D16*
X932500Y1577340D02*
D03*
X1082500D02*
D03*
D17*
X1870000Y809840D02*
D03*
X1965000D02*
D03*
X2060000D02*
D03*
Y1079840D02*
D03*
X1870000D02*
D03*
D18*
X1090000Y921820D02*
D03*
Y786820D02*
D03*
X1670000Y425001D02*
D03*
Y560001D02*
D03*
X2676016Y2209440D02*
D03*
Y2074440D02*
D03*
X1513222Y2283840D02*
D03*
Y2148840D02*
D03*
D19*
X1929880Y198120D02*
D03*
X1794880D02*
D03*
X1672540Y820000D02*
D03*
X1537540D02*
D03*
X1504880Y1079840D02*
D03*
X1639880D02*
D03*
X2070000Y2125980D02*
D03*
X1935000D02*
D03*
X3170120Y2550000D02*
D03*
X3305120D02*
D03*
D20*
X4478120Y2169560D02*
D03*
X3281780D02*
D03*
X3078580Y627460D02*
D03*
X4280000Y2169560D02*
D03*
X4079340D02*
D03*
X3881220D02*
D03*
X3678020D02*
D03*
X3479900D02*
D03*
X3081120D02*
D03*
X3279240Y627460D02*
D03*
X3477360D02*
D03*
X3678020Y630000D02*
D03*
X3878680D02*
D03*
X4076800D02*
D03*
X4280000D02*
D03*
X4478120D02*
D03*
D21*
X2882840Y1900160D02*
D03*
Y1702040D02*
D03*
Y1503920D02*
D03*
Y1300720D02*
D03*
Y1102600D02*
D03*
Y899400D02*
D03*
D22*
X1950000Y218240D02*
X1955280Y223520D01*
X1950000Y218240D02*
Y330001D01*
X1929880Y198120D02*
X1950000Y218240D01*
X1955280Y223520D02*
X2350000D01*
X2963721Y384000D02*
X3170000D01*
X2137260Y1210461D02*
X2963721Y384000D01*
X1672180Y1210461D02*
X2137260D01*
X1650040Y1079840D02*
X1870000D01*
X2547216Y2177140D02*
X2643716D01*
X2676016Y2209440D01*
X3072936Y2177744D02*
X3081120Y2169560D01*
X2705817Y2177744D02*
X3072936D01*
X2676016Y2207544D02*
Y2209440D01*
Y2207544D02*
X2705817Y2177744D01*
X1242300Y1469980D02*
X1513221D01*
X1513222Y1325839D02*
Y1469980D01*
X1513221D02*
X1513222Y1469980D01*
Y1469980D02*
Y2148840D01*
X1212500Y1440180D02*
X1242300Y1469980D01*
X1286640Y660400D02*
Y1099258D01*
X1513222Y1325839D01*
X1639880Y1079840D02*
X1650040D01*
X1672180Y1101981D01*
Y1210461D01*
X1246000Y130000D02*
X1387039Y271040D01*
X1387039Y560001D02*
X1387039Y560000D01*
Y271040D02*
Y560000D01*
X1286640Y660400D02*
X1387039Y560001D01*
X1670000D01*
X2950000Y2550000D02*
X3170120D01*
X2596790Y2384904D02*
X2784904D01*
X2950000Y2550000D01*
X1935000Y1985000D02*
X2355076D01*
X2547216Y2177140D01*
X1672180Y1858768D02*
X1798412Y1985000D01*
X1672180Y1210461D02*
Y1858768D01*
X1090000Y660400D02*
X1286640D01*
X902826D02*
X1090000D01*
Y786820D01*
X1935000Y1985000D02*
Y2125980D01*
X2471080Y2259193D02*
X2596790Y2384904D01*
X1817018Y2259193D02*
X2471080D01*
X1513222Y2148840D02*
X1706665D01*
X1817018Y2259193D01*
X1345000Y1985000D02*
Y2097726D01*
X1396115Y2148840D02*
X1513222D01*
X1345000Y2097726D02*
X1396115Y2148840D01*
X1798412Y1985000D02*
X1935000D01*
X867500Y695726D02*
X902826Y660400D01*
X867500Y695726D02*
Y817500D01*
D23*
X1950000Y330001D02*
X2130561D01*
X2209373Y584600D02*
X2220573Y595800D01*
X2374000D01*
X3081120Y2169560D02*
Y2229560D01*
X2016760Y1469926D02*
X2049780Y1436906D01*
X1935000Y1469926D02*
X2016760D01*
X212060Y799000D02*
X332579D01*
X347500Y813921D01*
Y966462D01*
X1082500Y1440180D02*
Y1577340D01*
X932500Y1402500D02*
Y1577340D01*
X834708Y1160780D02*
X1212065D01*
X1425068Y1373783D01*
X3295243Y906780D02*
Y907631D01*
X4030690Y1643078D02*
Y2120910D01*
X3295243Y907631D02*
X4030690Y1643078D01*
X2060000Y809840D02*
X2164080D01*
X2173223Y372663D02*
Y418450D01*
X2130561Y330001D02*
X2173223Y372663D01*
Y418450D02*
X2209373Y454600D01*
X2565074Y2453440D02*
X2599440D01*
X2696000Y2550000D01*
X1959088Y2410919D02*
X2302918D01*
X2442000Y2550000D01*
X230000Y384000D02*
Y384000D01*
X84618Y529382D02*
Y1034581D01*
Y529382D02*
X230000Y384000D01*
X2421165Y1920000D02*
X2448656Y1947491D01*
X1935000Y1920000D02*
X2421165D01*
X2448656Y1947491D02*
X2524200D01*
X1935000Y1855000D02*
X2837680D01*
X2882840Y1900160D01*
X2524200Y1777280D02*
X2639276D01*
X2665866Y1750690D02*
X2834190D01*
X2639276Y1777280D02*
X2665866Y1750690D01*
X2834190D02*
X2882840Y1702040D01*
X2540330Y1409370D02*
X2696626D01*
X2756625Y1349370D02*
X2834190D01*
X2696626Y1409370D02*
X2756625Y1349370D01*
X2834190D02*
X2882840Y1300720D01*
X2700712Y947774D02*
X2834466D01*
X2640216Y1008271D02*
Y1334924D01*
Y1008271D02*
X2700712Y947774D01*
X2834466D02*
X2882840Y899400D01*
X3678000Y629980D02*
X3678020Y630000D01*
X3678000Y384000D02*
Y629980D01*
X3916375Y130000D02*
X4231350Y444975D01*
X3678000Y130000D02*
X3916375D01*
X4231350Y444975D02*
Y581350D01*
X4280000Y630000D01*
X4379320Y470259D02*
X4389320D01*
X4429470Y510409D01*
Y581350D01*
X4478120Y630000D01*
X4079340Y2169560D02*
Y2500000D01*
X4030690Y2120910D02*
X4079340Y2169560D01*
X4168908Y2600840D02*
X4226501Y2543247D01*
Y2435443D02*
X4325020Y2336924D01*
X4226501Y2435443D02*
Y2543247D01*
X4325020Y2336924D02*
X4403991D01*
X4429470Y2218210D02*
Y2311446D01*
X4403991Y2336924D02*
X4429470Y2311446D01*
Y2218210D02*
X4478120Y2169560D01*
X3294613Y259388D02*
X3905562D01*
X3954030Y307856D02*
Y347850D01*
X3905562Y259388D02*
X3954030Y307856D01*
Y347850D02*
X3990180Y384000D01*
X3678000D02*
X3860180D01*
X3170001D02*
X3294613Y259388D01*
X3170000Y384000D02*
X3170001D01*
X1071050Y558950D02*
X1246000Y384000D01*
X633798Y558950D02*
X1071050D01*
X412500Y610254D02*
X484000Y538754D01*
Y384000D02*
Y538754D01*
X3651927Y2600840D02*
X4168908D01*
X542500Y650247D02*
X633798Y558950D01*
X1935000Y1469926D02*
Y1595000D01*
X1836524Y1469926D02*
X1935000D01*
X542500Y650247D02*
Y817500D01*
X3629790Y2578703D02*
X3651927Y2600840D01*
X3629790Y2536150D02*
Y2578703D01*
X3593640Y2500000D02*
X3629790Y2536150D01*
X3723640Y2500000D02*
X3949340D01*
X3160660Y2396625D02*
X3658496D01*
X3687490Y2425619D02*
Y2463850D01*
X3658496Y2396625D02*
X3687490Y2425619D01*
Y2463850D02*
X3723640Y2500000D01*
X3129690Y2365656D02*
X3160660Y2396625D01*
X3129690Y2278130D02*
Y2365656D01*
X3081120Y2229560D02*
X3129690Y2278130D01*
X2448434Y2336800D02*
X2565074Y2453440D01*
X1815499Y2336800D02*
X2448434D01*
X659088Y2441402D02*
X1710896D01*
X1815499Y2336800D01*
X551770Y2334085D02*
X659088Y2441402D01*
X551770Y2179910D02*
Y2334085D01*
X383650Y2280513D02*
X610514Y2507377D01*
X1862630D01*
X383650Y2179910D02*
Y2280513D01*
X347500Y2143760D02*
X383650Y2179910D01*
X515620Y2143760D02*
X551770Y2179910D01*
X1862630Y2507377D02*
X1959088Y2410919D01*
X2342296Y1790000D02*
X2640216Y1492081D01*
X1935000Y1790000D02*
X2342296D01*
X2224700Y1725000D02*
X2540330Y1409370D01*
X1935000Y1725000D02*
X2224700D01*
X542500Y1402500D02*
Y1738803D01*
X723697Y1920000D02*
X1345000D01*
X542500Y1738803D02*
X723697Y1920000D01*
X792606Y1855000D02*
X1345000D01*
X607500Y1402500D02*
Y1669894D01*
X792606Y1855000D01*
X737500Y1402500D02*
Y1532672D01*
X929828Y1725000D02*
X1345000D01*
X737500Y1532672D02*
X929828Y1725000D01*
X672500Y1402500D02*
Y1602140D01*
X860360Y1790000D02*
X1345000D01*
X672500Y1602140D02*
X860360Y1790000D01*
X132668Y1082631D02*
X382405D01*
X84618Y1034581D02*
X132668Y1082631D01*
X382405D02*
X445270Y1019766D01*
Y947495D02*
Y1019766D01*
Y947495D02*
X477500Y915265D01*
X607500Y817500D02*
Y933572D01*
X834708Y1160780D01*
X477500Y817500D02*
Y915265D01*
X536945Y966462D02*
Y1205495D01*
X477510Y1264930D02*
X536945Y1205495D01*
X477510Y1264930D02*
Y1402490D01*
X515620Y1854200D02*
Y2013760D01*
X412500Y1751080D02*
X515620Y1854200D01*
X412500Y1402500D02*
Y1751080D01*
X347500Y1402500D02*
Y2013760D01*
X412500Y610254D02*
Y817500D01*
D24*
X2604000Y172720D02*
Y500800D01*
D25*
X250000Y2550000D02*
D03*
X4450000Y250000D02*
D03*
Y2550000D02*
D03*
D26*
X3170000Y130000D02*
D03*
X3424000Y130000D02*
D03*
X3678000Y130000D02*
D03*
Y384000D02*
D03*
X3424000Y384000D02*
D03*
X3170000Y384000D02*
D03*
X1246000Y130000D02*
D03*
X992000D02*
D03*
X738000D02*
D03*
X484000D02*
D03*
X230000D02*
D03*
Y384000D02*
D03*
X484000D02*
D03*
X738000D02*
D03*
X992000D02*
D03*
X1246000D02*
D03*
X2350000Y223520D02*
D03*
X2442000Y2550000D02*
D03*
X2696000D02*
D03*
X2950000D02*
D03*
D27*
X2604000Y223520D02*
D03*
X2188000Y2550000D02*
D03*
D28*
X3305120Y2459360D02*
D03*
X3393440Y2550000D02*
D03*
X3305120Y2636520D02*
D03*
X1965000Y914400D02*
D03*
X2027220D02*
D03*
X1425068Y1373783D02*
D03*
X1900480Y914400D02*
D03*
X1913180Y713740D02*
D03*
X1975160D02*
D03*
X2037380D02*
D03*
X4379320Y460259D02*
D03*
X1456857Y1595000D02*
D03*
X1345000Y1529080D02*
D03*
X1234440Y1595000D02*
D03*
X2179102Y1384978D02*
D03*
X2764436Y2074440D02*
D03*
X2506604Y2217020D02*
D03*
X3295243Y906780D02*
D03*
X2295516Y467780D02*
D03*
Y342900D02*
D03*
Y405800D02*
D03*
X2453640Y342900D02*
D03*
X2374000D02*
D03*
X2453640Y467780D02*
D03*
X2106546Y560001D02*
D03*
Y482540D02*
D03*
Y637093D02*
D03*
X1982780Y637540D02*
D03*
Y482540D02*
D03*
Y560001D02*
D03*
X737500Y928362D02*
D03*
X2265581Y1469756D02*
D03*
X737500Y706120D02*
D03*
X1597660Y2283840D02*
D03*
X1430020D02*
D03*
X2070000Y2042160D02*
D03*
X2156460Y2125980D02*
D03*
X2676016Y1982400D02*
D03*
X2589850Y2073904D02*
D03*
X3078580Y469900D02*
D03*
X2981960Y629040D02*
D03*
X3078580Y787400D02*
D03*
X1506220Y1168400D02*
D03*
Y993140D02*
D03*
X1414780Y1079500D02*
D03*
X1447800Y820420D02*
D03*
X1536700Y906780D02*
D03*
Y731520D02*
D03*
X1090000Y1008380D02*
D03*
X1173480Y921820D02*
D03*
X1005840D02*
D03*
X212060Y1023620D02*
D03*
X1704574Y226508D02*
D03*
X1794092Y286820D02*
D03*
X1705482Y167144D02*
D03*
X2453640Y405800D02*
D03*
X2374000Y467780D02*
D03*
X1670000Y330001D02*
D03*
X1582420Y425001D02*
D03*
X1757680D02*
D03*
X2045000Y482540D02*
D03*
Y637540D02*
D03*
X1836524Y1469926D02*
D03*
X2524200Y1947491D02*
D03*
X2640216Y1334924D02*
D03*
Y1492081D02*
D03*
X663710Y1794125D02*
D03*
X731433Y1727939D02*
D03*
X795020Y1656080D02*
D03*
X2524200Y1777280D02*
D03*
X2164080Y809840D02*
D03*
X347500Y966462D02*
D03*
X536945D02*
D03*
%TF.MD5,b48a37129acb55d245db851988ab5745*%
M02*
