%TF.GenerationSoftware,Altium Limited,Altium Designer,20.1.8 (145)*%
G04 Layer_Color=16777215*
%FSLAX45Y45*%
%MOMM*%
%TF.SameCoordinates,2300FDCC-ED38-457A-842E-A9769F27D6F2*%
%TF.FilePolarity,Positive*%
%TF.FileFunction,Legend,Top*%
%TF.Part,Single*%
G01*
G75*
%TA.AperFunction,NonConductor*%
%ADD32C,0.60000*%
%ADD33C,0.25000*%
%ADD34C,0.10160*%
%ADD35C,0.01270*%
%ADD36C,0.25400*%
D32*
X440080Y1022580D02*
G03*
X440080Y1022580I-30000J0D01*
G01*
X1560000Y1970000D02*
G03*
X1560000Y1970000I-30000J0D01*
G01*
D33*
X302500Y817500D02*
G03*
X302500Y817500I-12500J0D01*
G01*
X1357500Y2070000D02*
G03*
X1357500Y2070000I-12500J0D01*
G01*
X1797500Y809840D02*
G03*
X1797500Y809840I-12500J0D01*
G01*
D34*
X2438999Y650800D02*
X2539000Y650800D01*
X2438999Y650800D02*
X2439000Y350940D01*
X2539000D02*
Y650800D01*
X2439000Y350940D02*
X2539000D01*
X1800140Y395001D02*
Y495001D01*
Y395001D02*
X2100000D01*
X1800140Y495001D02*
X2100000Y495001D01*
X2100000Y395001D01*
X2267793Y395140D02*
Y644060D01*
X2150953Y395140D02*
X2267793D01*
X2150953D02*
Y644060D01*
X2267793D01*
X153640Y988460D02*
X270480D01*
X153640Y739540D02*
Y988460D01*
Y739540D02*
X270480D01*
Y988460D01*
X1990320Y1495326D02*
X2239240D01*
Y1378486D02*
Y1495326D01*
X1990320Y1378486D02*
X2239240D01*
X1990320D02*
Y1495326D01*
X3534180Y2441580D02*
Y2558420D01*
Y2441580D02*
X3783100D01*
Y2558420D01*
X3534180D02*
X3783100D01*
X3889880Y2441580D02*
X4138800D01*
X3889880D02*
Y2558420D01*
X4138800D01*
Y2441580D02*
Y2558420D01*
X4049640Y325580D02*
Y442420D01*
X3800720D02*
X4049640D01*
X3800720Y325580D02*
Y442420D01*
Y325580D02*
X4049640D01*
X289080Y1954300D02*
Y2203220D01*
X405920D01*
Y1954300D02*
Y2203220D01*
X289080Y1954300D02*
X405920D01*
X457200D02*
X574040D01*
Y2203220D01*
X457200D02*
X574040D01*
X457200Y1954300D02*
Y2203220D01*
X1023040Y1498600D02*
X1271960D01*
Y1381760D02*
Y1498600D01*
X1023040Y1381760D02*
X1271960D01*
X1023040D02*
Y1498600D01*
X965000Y927500D02*
Y1292500D01*
X315000Y927500D02*
Y1292500D01*
X965000D01*
X315000Y927500D02*
X965000D01*
X1455000Y1535000D02*
X1825000D01*
X1455000Y2045000D02*
X1825000D01*
Y1535000D02*
Y2045000D01*
X1455000Y1535000D02*
Y2045000D01*
X1026296Y1552687D02*
Y1601993D01*
X988196Y1577340D02*
X1026296Y1601993D01*
X988196Y1577340D02*
X1026296Y1552687D01*
X875420Y1518920D02*
Y1635760D01*
X1139580D01*
X875420Y1518920D02*
X1139580D01*
X852560Y1551940D02*
Y1602740D01*
X1007500Y1518920D02*
Y1542340D01*
Y1612340D02*
Y1635760D01*
X1139580Y1518920D02*
Y1635760D01*
X1805000Y899840D02*
Y989840D01*
X2125000Y899840D02*
Y989840D01*
X1805000Y899840D02*
X2125000D01*
X1805000Y989840D02*
X2125000D01*
X1031580Y983860D02*
X1148420D01*
X1031580Y724780D02*
Y983860D01*
Y724780D02*
X1148420D01*
Y983860D01*
X1031580Y854320D02*
X1148420D01*
X1862380Y139700D02*
Y256540D01*
X1732840D02*
X1991920D01*
Y139700D02*
Y256540D01*
X1732840Y139700D02*
X1991920D01*
X1732840D02*
Y256540D01*
X1611580Y362961D02*
X1728420D01*
Y622041D01*
X1611580D02*
X1728420D01*
X1611580Y362961D02*
Y622041D01*
Y492501D02*
X1728420D01*
X1605040Y761580D02*
Y878420D01*
X1475500D02*
X1734580D01*
Y761580D02*
Y878420D01*
X1475500Y761580D02*
X1734580D01*
X1475500D02*
Y878420D01*
X1442840Y1021420D02*
Y1138260D01*
Y1021420D02*
X1701920D01*
Y1138260D01*
X1442840D02*
X1701920D01*
X1572380Y1021420D02*
Y1138260D01*
X2617596Y2141940D02*
X2734436D01*
X2617596Y2012400D02*
Y2271480D01*
X2734436D01*
Y2012400D02*
Y2271480D01*
X2617596Y2012400D02*
X2734436D01*
X2132040Y2067560D02*
Y2184400D01*
X1872960D02*
X2132040D01*
X1872960Y2067560D02*
Y2184400D01*
Y2067560D02*
X2132040D01*
X2002500D02*
Y2184400D01*
X3237620Y2491580D02*
Y2608420D01*
X3108080Y2491580D02*
X3367160D01*
X3108080D02*
Y2608420D01*
X3367160D01*
Y2491580D02*
Y2608420D01*
X1454802Y2345880D02*
X1571642D01*
X1454802Y2086800D02*
Y2345880D01*
Y2086800D02*
X1571642D01*
Y2345880D01*
X1454802Y2216340D02*
X1571642D01*
X961503Y1726145D02*
Y1665205D01*
X991973D01*
X1002130Y1675362D01*
Y1715988D01*
X991973Y1726145D01*
X961503D01*
X1022443Y1665205D02*
X1042756D01*
X1032600D01*
Y1726145D01*
X1022443Y1715988D01*
X1098810Y1299277D02*
Y1360217D01*
X1129280D01*
X1139436Y1350060D01*
Y1329747D01*
X1129280Y1319590D01*
X1098810D01*
X1119123D02*
X1139436Y1299277D01*
X1159750Y1309433D02*
X1169906Y1299277D01*
X1190220D01*
X1200377Y1309433D01*
Y1350060D01*
X1190220Y1360217D01*
X1169906D01*
X1159750Y1350060D01*
Y1339903D01*
X1169906Y1329747D01*
X1200377D01*
X1908174Y1226971D02*
Y1176187D01*
X1918331Y1166031D01*
X1938644D01*
X1948801Y1176187D01*
Y1226971D01*
X1969114Y1216814D02*
X1979271Y1226971D01*
X1999585D01*
X2009741Y1216814D01*
Y1206657D01*
X1999585Y1196501D01*
X1989428D01*
X1999585D01*
X2009741Y1186344D01*
Y1176187D01*
X1999585Y1166031D01*
X1979271D01*
X1969114Y1176187D01*
X469268Y2231165D02*
Y2292105D01*
X499738D01*
X509895Y2281948D01*
Y2261635D01*
X499738Y2251478D01*
X469268D01*
X489581D02*
X509895Y2231165D01*
X530208Y2281948D02*
X540365Y2292105D01*
X560678D01*
X570835Y2281948D01*
Y2271791D01*
X560678Y2261635D01*
X570835Y2251478D01*
Y2241321D01*
X560678Y2231165D01*
X540365D01*
X530208Y2241321D01*
Y2251478D01*
X540365Y2261635D01*
X530208Y2271791D01*
Y2281948D01*
X540365Y2261635D02*
X560678D01*
X305137Y2231165D02*
Y2292105D01*
X335607D01*
X345764Y2281948D01*
Y2261635D01*
X335607Y2251478D01*
X305137D01*
X325450D02*
X345764Y2231165D01*
X366077Y2292105D02*
X406704D01*
Y2281948D01*
X366077Y2241321D01*
Y2231165D01*
X734996Y571031D02*
X714683D01*
X724840D01*
Y520248D01*
X714683Y510091D01*
X704526D01*
X694369Y520248D01*
X755310Y510091D02*
X775623D01*
X765466D01*
Y571031D01*
X755310Y560874D01*
X2879216Y2320470D02*
Y2269687D01*
X2889373Y2259530D01*
X2909687D01*
X2919843Y2269687D01*
Y2320470D01*
X2980783D02*
X2940157D01*
Y2290000D01*
X2960470Y2300157D01*
X2970627D01*
X2980783Y2290000D01*
Y2269687D01*
X2970627Y2259530D01*
X2950313D01*
X2940157Y2269687D01*
X1289217Y2170470D02*
Y2119687D01*
X1299373Y2109530D01*
X1319687D01*
X1329843Y2119687D01*
Y2170470D01*
X1380627Y2109530D02*
Y2170470D01*
X1350157Y2140000D01*
X1390784D01*
X1899217Y681370D02*
Y630587D01*
X1909373Y620430D01*
X1929687D01*
X1939843Y630587D01*
Y681370D01*
X2000784Y620430D02*
X1960157D01*
X2000784Y661057D01*
Y671214D01*
X1990627Y681370D01*
X1970314D01*
X1960157Y671214D01*
X197173Y1434394D02*
Y1383611D01*
X207330Y1373454D01*
X227643D01*
X237800Y1383611D01*
Y1434394D01*
X258114Y1373454D02*
X278427D01*
X268270D01*
Y1434394D01*
X258114Y1424237D01*
X4081797Y357850D02*
Y418790D01*
X4112267D01*
X4122423Y408633D01*
Y388320D01*
X4112267Y378163D01*
X4081797D01*
X4102110D02*
X4122423Y357850D01*
X4183363Y418790D02*
X4163050Y408633D01*
X4142737Y388320D01*
Y368007D01*
X4152893Y357850D01*
X4173207D01*
X4183363Y368007D01*
Y378163D01*
X4173207Y388320D01*
X4142737D01*
X3969963Y2578986D02*
Y2639926D01*
X4000433D01*
X4010590Y2629769D01*
Y2609456D01*
X4000433Y2599299D01*
X3969963D01*
X3990276D02*
X4010590Y2578986D01*
X4071530Y2639926D02*
X4030903D01*
Y2609456D01*
X4051216Y2619612D01*
X4061373D01*
X4071530Y2609456D01*
Y2589142D01*
X4061373Y2578986D01*
X4041060D01*
X4030903Y2589142D01*
X3612984Y2581425D02*
Y2642365D01*
X3643454D01*
X3653610Y2632209D01*
Y2611895D01*
X3643454Y2601739D01*
X3612984D01*
X3633297D02*
X3653610Y2581425D01*
X3704394D02*
Y2642365D01*
X3673924Y2611895D01*
X3714551D01*
X2265697Y1404630D02*
Y1465570D01*
X2296167D01*
X2306323Y1455413D01*
Y1435100D01*
X2296167Y1424943D01*
X2265697D01*
X2286010D02*
X2306323Y1404630D01*
X2326637Y1455413D02*
X2336793Y1465570D01*
X2357107D01*
X2367263Y1455413D01*
Y1445257D01*
X2357107Y1435100D01*
X2346950D01*
X2357107D01*
X2367263Y1424943D01*
Y1414787D01*
X2357107Y1404630D01*
X2336793D01*
X2326637Y1414787D01*
X161277Y1016010D02*
Y1076950D01*
X191747D01*
X201903Y1066793D01*
Y1046480D01*
X191747Y1036323D01*
X161277D01*
X181590D02*
X201903Y1016010D01*
X262844D02*
X222217D01*
X262844Y1056637D01*
Y1066793D01*
X252687Y1076950D01*
X232373D01*
X222217Y1066793D01*
X2172534Y666726D02*
Y727666D01*
X2203004D01*
X2213161Y717509D01*
Y697196D01*
X2203004Y687039D01*
X2172534D01*
X2192848D02*
X2213161Y666726D01*
X2233474D02*
X2253788D01*
X2243631D01*
Y727666D01*
X2233474Y717509D01*
X2487435Y689488D02*
Y730114D01*
X2477279Y740271D01*
X2456965D01*
X2446808Y730114D01*
Y689488D01*
X2456965Y679331D01*
X2477279D01*
X2467122Y699644D02*
X2487435Y679331D01*
X2477279D02*
X2487435Y689488D01*
X2507749Y679331D02*
X2528062D01*
X2517905D01*
Y740271D01*
X2507749Y730114D01*
X3024063Y291790D02*
X3003750D01*
X3013907D01*
Y241007D01*
X3003750Y230850D01*
X2993593D01*
X2983437Y241007D01*
X3085003Y230850D02*
X3044377D01*
X3085003Y271477D01*
Y281633D01*
X3074847Y291790D01*
X3054533D01*
X3044377Y281633D01*
X1499179Y2439863D02*
X1489022Y2450020D01*
X1468709D01*
X1458552Y2439863D01*
Y2399237D01*
X1468709Y2389080D01*
X1489022D01*
X1499179Y2399237D01*
X1519492Y2439863D02*
X1529649Y2450020D01*
X1549962D01*
X1560119Y2439863D01*
Y2429707D01*
X1549962Y2419550D01*
X1560119Y2409393D01*
Y2399237D01*
X1549962Y2389080D01*
X1529649D01*
X1519492Y2399237D01*
Y2409393D01*
X1529649Y2419550D01*
X1519492Y2429707D01*
Y2439863D01*
X1529649Y2419550D02*
X1549962D01*
X3244997Y2684097D02*
X3234840Y2694254D01*
X3214526D01*
X3204370Y2684097D01*
Y2643470D01*
X3214526Y2633314D01*
X3234840D01*
X3244997Y2643470D01*
X3265310Y2694254D02*
X3305937D01*
Y2684097D01*
X3265310Y2643470D01*
Y2633314D01*
X1993777Y2283084D02*
X1983620Y2293241D01*
X1963307D01*
X1953150Y2283084D01*
Y2242457D01*
X1963307Y2232301D01*
X1983620D01*
X1993777Y2242457D01*
X2014090D02*
X2024247Y2232301D01*
X2044561D01*
X2054717Y2242457D01*
Y2283084D01*
X2044561Y2293241D01*
X2024247D01*
X2014090Y2283084D01*
Y2272927D01*
X2024247Y2262771D01*
X2054717D01*
X2664720Y2366398D02*
X2654564Y2376555D01*
X2634250D01*
X2624094Y2366398D01*
Y2325771D01*
X2634250Y2315615D01*
X2654564D01*
X2664720Y2325771D01*
X2725661Y2376555D02*
X2705347Y2366398D01*
X2685034Y2346085D01*
Y2325771D01*
X2695190Y2315615D01*
X2715504D01*
X2725661Y2325771D01*
Y2335928D01*
X2715504Y2346085D01*
X2685034D01*
X1319843Y1100154D02*
X1309687Y1110310D01*
X1289373D01*
X1279217Y1100154D01*
Y1059527D01*
X1289373Y1049370D01*
X1309687D01*
X1319843Y1059527D01*
X1380784Y1110310D02*
X1340157D01*
Y1079840D01*
X1360470Y1089997D01*
X1370627D01*
X1380784Y1079840D01*
Y1059527D01*
X1370627Y1049370D01*
X1350314D01*
X1340157Y1059527D01*
X1342504Y840313D02*
X1332347Y850470D01*
X1312034D01*
X1301877Y840313D01*
Y799686D01*
X1312034Y789530D01*
X1332347D01*
X1342504Y799686D01*
X1393287Y789530D02*
Y850470D01*
X1362817Y820000D01*
X1403444D01*
X1498603Y512814D02*
X1488447Y522971D01*
X1468133D01*
X1457977Y512814D01*
Y472187D01*
X1468133Y462031D01*
X1488447D01*
X1498603Y472187D01*
X1518917Y512814D02*
X1529073Y522971D01*
X1549387D01*
X1559543Y512814D01*
Y502657D01*
X1549387Y492501D01*
X1539230D01*
X1549387D01*
X1559543Y482344D01*
Y472187D01*
X1549387Y462031D01*
X1529073D01*
X1518917Y472187D01*
X1605284Y218133D02*
X1595127Y228290D01*
X1574813D01*
X1564657Y218133D01*
Y177507D01*
X1574813Y167350D01*
X1595127D01*
X1605284Y177507D01*
X1666224Y167350D02*
X1625597D01*
X1666224Y207977D01*
Y218133D01*
X1656067Y228290D01*
X1635754D01*
X1625597Y218133D01*
X1090000Y1087113D02*
X1079843Y1097270D01*
X1059530D01*
X1049373Y1087113D01*
Y1046487D01*
X1059530Y1036330D01*
X1079843D01*
X1090000Y1046487D01*
X1110314Y1036330D02*
X1130627D01*
X1120470D01*
Y1097270D01*
X1110314Y1087113D01*
X2738153Y253990D02*
Y193050D01*
X2768623D01*
X2778780Y203207D01*
Y213363D01*
X2768623Y223520D01*
X2738153D01*
X2768623D01*
X2778780Y233677D01*
Y243833D01*
X2768623Y253990D01*
X2738153D01*
X2799093Y193050D02*
Y233677D01*
X2819407Y253990D01*
X2839720Y233677D01*
Y193050D01*
Y223520D01*
X2799093D01*
X2860033Y253990D02*
X2900660D01*
X2880347D01*
Y193050D01*
X2920974D02*
X2941287D01*
X2931130D01*
Y253990D01*
X2920974Y243833D01*
X2549319Y2729077D02*
X2529006D01*
X2539162D01*
Y2678294D01*
X2529006Y2668137D01*
X2518849D01*
X2508692Y2678294D01*
X2569632Y2718921D02*
X2579789Y2729077D01*
X2600102D01*
X2610259Y2718921D01*
Y2708764D01*
X2600102Y2698607D01*
X2589946D01*
X2600102D01*
X2610259Y2688451D01*
Y2678294D01*
X2600102Y2668137D01*
X2579789D01*
X2569632Y2678294D01*
D35*
X4840070Y1130540D02*
Y1600440D01*
X4841340Y1120380D02*
Y1609330D01*
X4842610Y1115300D02*
Y1615680D01*
X4843880Y1110220D02*
Y1620760D01*
X4845150Y1106410D02*
Y1624570D01*
X4846420Y1102600D02*
Y1628380D01*
X4847690Y1098790D02*
Y1632190D01*
X4848960Y1096250D02*
Y1634730D01*
X4850230Y1093710D02*
Y1637270D01*
X4851500Y1091170D02*
Y1128000D01*
Y1398510D02*
Y1639810D01*
X4852770Y1088630D02*
Y1119110D01*
Y1397240D02*
Y1642350D01*
X4854040Y1086090D02*
Y1112760D01*
Y1394700D02*
Y1644890D01*
X4855310Y1083550D02*
Y1108950D01*
Y1393430D02*
Y1647430D01*
X4856580Y1081010D02*
Y1105140D01*
Y1392160D02*
Y1649970D01*
X4857850Y1079740D02*
Y1101330D01*
Y1390890D02*
Y1651240D01*
X4859120Y1077200D02*
Y1098790D01*
Y1389620D02*
Y1653780D01*
X4860390Y1075930D02*
Y1096250D01*
Y1388350D02*
Y1655050D01*
X4861660Y1074660D02*
Y1093710D01*
Y1387080D02*
Y1657590D01*
X4862930Y1072120D02*
Y1091170D01*
Y1385810D02*
Y1658860D01*
X4864200Y1070850D02*
Y1088630D01*
Y1384540D02*
Y1660130D01*
X4865470Y1069580D02*
Y1086090D01*
Y1383270D02*
Y1661400D01*
X4866740Y1068310D02*
Y1084820D01*
Y1382000D02*
Y1662670D01*
X4868010Y1065770D02*
Y1082280D01*
Y1380730D02*
Y1665210D01*
X4869280Y1064500D02*
Y1081010D01*
Y1379460D02*
Y1666480D01*
X4870550Y1063230D02*
Y1079740D01*
Y1379460D02*
Y1667750D01*
X4871820Y1061960D02*
Y1077200D01*
Y1378190D02*
Y1669020D01*
X4873090Y1060690D02*
Y1075930D01*
Y1376920D02*
Y1670290D01*
X4874360Y1059420D02*
Y1074660D01*
Y1375650D02*
Y1671560D01*
X4875630Y1058150D02*
Y1073390D01*
Y1374380D02*
Y1672830D01*
X4876900Y1056880D02*
Y1072120D01*
Y1374380D02*
Y1674100D01*
X4878170Y1055610D02*
Y1069580D01*
Y1373110D02*
Y1675370D01*
X4879440Y1055610D02*
Y1068310D01*
Y1371840D02*
Y1676640D01*
X4880710Y1054340D02*
Y1067040D01*
Y1371840D02*
Y1676640D01*
X4881980Y1053070D02*
Y1065770D01*
Y1370570D02*
Y1677910D01*
X4883250Y1051800D02*
Y1065770D01*
Y1369300D02*
Y1679180D01*
X4884520Y1050530D02*
Y1064500D01*
Y1369300D02*
Y1680450D01*
X4885790Y1050530D02*
Y1063230D01*
Y1368030D02*
Y1680450D01*
X4887060Y1049260D02*
Y1061960D01*
Y1366760D02*
Y1681720D01*
X4888330Y1047990D02*
Y1060690D01*
Y1366760D02*
Y1682990D01*
X4889600Y1046720D02*
Y1059420D01*
Y1365490D02*
Y1684260D01*
X4890870Y1046720D02*
Y1059420D01*
Y1365490D02*
Y1684260D01*
X4892140Y1045450D02*
Y1058150D01*
Y1364220D02*
Y1685530D01*
X4893410Y1044180D02*
Y1056880D01*
Y1364220D02*
Y1686800D01*
X4894680Y1044180D02*
Y1055610D01*
Y1362950D02*
Y1686800D01*
X4895950Y1042910D02*
Y1055610D01*
Y1362950D02*
Y1688070D01*
X4897220Y1042910D02*
Y1054340D01*
Y1361680D02*
Y1688070D01*
X4898490Y1041640D02*
Y1053070D01*
Y1361680D02*
Y1689340D01*
X4899760Y1041640D02*
Y1053070D01*
Y1360410D02*
Y1690610D01*
X4901030Y1040370D02*
Y1051800D01*
Y1360410D02*
Y1690610D01*
X4902300Y1040370D02*
Y1051800D01*
Y1360410D02*
Y1691880D01*
X4903570Y1039100D02*
Y1050530D01*
Y1359140D02*
Y1691880D01*
X4904840Y1039100D02*
Y1050530D01*
Y1359140D02*
Y1693150D01*
X4906110Y1037830D02*
Y1049260D01*
Y1357870D02*
Y1693150D01*
X4907380Y1037830D02*
Y1049260D01*
Y1357870D02*
Y1693150D01*
X4908650Y1036560D02*
Y1047990D01*
Y1357870D02*
Y1694420D01*
X4909920Y1036560D02*
Y1047990D01*
Y1356600D02*
Y1694420D01*
X4911190Y1035290D02*
Y1046720D01*
Y1126730D02*
Y1128000D01*
Y1131810D02*
Y1152130D01*
Y1154670D02*
Y1157210D01*
Y1263890D02*
Y1295640D01*
Y1356600D02*
Y1395970D01*
Y1427720D02*
Y1487410D01*
Y1507730D02*
Y1510270D01*
Y1511540D02*
Y1512810D01*
Y1515350D02*
Y1578850D01*
Y1599170D02*
Y1600440D01*
Y1602980D02*
Y1695690D01*
X4912460Y1035290D02*
Y1046720D01*
Y1126730D02*
Y1159750D01*
Y1263890D02*
Y1298180D01*
Y1356600D02*
Y1395970D01*
Y1428990D02*
Y1487410D01*
Y1515350D02*
Y1576310D01*
Y1604250D02*
Y1695690D01*
X4913730Y1035290D02*
Y1045450D01*
Y1126730D02*
Y1159750D01*
Y1263890D02*
Y1298180D01*
Y1355330D02*
Y1395970D01*
Y1428990D02*
Y1486140D01*
Y1515350D02*
Y1576310D01*
Y1604250D02*
Y1695690D01*
X4915000Y1034020D02*
Y1045450D01*
Y1126730D02*
Y1159750D01*
Y1263890D02*
Y1298180D01*
Y1355330D02*
Y1395970D01*
Y1428990D02*
Y1486140D01*
Y1516620D02*
Y1576310D01*
Y1604250D02*
Y1696960D01*
X4916270Y1034020D02*
Y1045450D01*
Y1126730D02*
Y1159750D01*
Y1263890D02*
Y1298180D01*
Y1355330D02*
Y1395970D01*
Y1427720D02*
Y1486140D01*
Y1516620D02*
Y1575040D01*
Y1605520D02*
Y1696960D01*
X4917540Y1034020D02*
Y1044180D01*
Y1126730D02*
Y1159750D01*
Y1263890D02*
Y1298180D01*
Y1355330D02*
Y1395970D01*
Y1427720D02*
Y1486140D01*
Y1516620D02*
Y1575040D01*
Y1605520D02*
Y1698230D01*
X4918810Y1032750D02*
Y1044180D01*
Y1126730D02*
Y1159750D01*
Y1263890D02*
Y1298180D01*
Y1354060D02*
Y1395970D01*
Y1428990D02*
Y1484870D01*
Y1517890D02*
Y1575040D01*
Y1605520D02*
Y1698230D01*
X4920080Y1032750D02*
Y1044180D01*
Y1126730D02*
Y1159750D01*
Y1263890D02*
Y1298180D01*
Y1354060D02*
Y1395970D01*
Y1428990D02*
Y1484870D01*
Y1517890D02*
Y1573770D01*
Y1605520D02*
Y1698230D01*
X4921350Y1032750D02*
Y1042910D01*
Y1126730D02*
Y1159750D01*
Y1263890D02*
Y1298180D01*
Y1354060D02*
Y1395970D01*
Y1428990D02*
Y1484870D01*
Y1517890D02*
Y1573770D01*
Y1606790D02*
Y1698230D01*
X4922620Y1031480D02*
Y1042910D01*
Y1126730D02*
Y1159750D01*
Y1263890D02*
Y1298180D01*
Y1354060D02*
Y1395970D01*
Y1428990D02*
Y1484870D01*
Y1517890D02*
Y1573770D01*
Y1606790D02*
Y1699500D01*
X4923890Y1031480D02*
Y1042910D01*
Y1126730D02*
Y1159750D01*
Y1263890D02*
Y1298180D01*
Y1352790D02*
Y1395970D01*
Y1428990D02*
Y1483600D01*
Y1519160D02*
Y1573770D01*
Y1606790D02*
Y1699500D01*
X4925160Y1031480D02*
Y1041640D01*
Y1126730D02*
Y1159750D01*
Y1263890D02*
Y1298180D01*
Y1352790D02*
Y1395970D01*
Y1428990D02*
Y1483600D01*
Y1519160D02*
Y1572500D01*
Y1608060D02*
Y1699500D01*
X4926430Y1031480D02*
Y1041640D01*
Y1126730D02*
Y1159750D01*
Y1263890D02*
Y1298180D01*
Y1352790D02*
Y1395970D01*
Y1428990D02*
Y1483600D01*
Y1519160D02*
Y1572500D01*
Y1608060D02*
Y1700770D01*
X4927700Y1030210D02*
Y1041640D01*
Y1126730D02*
Y1159750D01*
Y1263890D02*
Y1298180D01*
Y1352790D02*
Y1395970D01*
Y1428990D02*
Y1482330D01*
Y1520430D02*
Y1572500D01*
Y1608060D02*
Y1700770D01*
X4928970Y1030210D02*
Y1041640D01*
Y1126730D02*
Y1159750D01*
Y1263890D02*
Y1298180D01*
Y1352790D02*
Y1395970D01*
Y1428990D02*
Y1482330D01*
Y1520430D02*
Y1571230D01*
Y1608060D02*
Y1700770D01*
X4930240Y1030210D02*
Y1040370D01*
Y1126730D02*
Y1159750D01*
Y1263890D02*
Y1298180D01*
Y1351520D02*
Y1395970D01*
Y1428990D02*
Y1482330D01*
Y1520430D02*
Y1571230D01*
Y1609330D02*
Y1700770D01*
X4931510Y1030210D02*
Y1040370D01*
Y1126730D02*
Y1159750D01*
Y1263890D02*
Y1298180D01*
Y1351520D02*
Y1395970D01*
Y1428990D02*
Y1482330D01*
Y1520430D02*
Y1571230D01*
Y1609330D02*
Y1700770D01*
X4932780Y1030210D02*
Y1040370D01*
Y1126730D02*
Y1159750D01*
Y1263890D02*
Y1298180D01*
Y1351520D02*
Y1395970D01*
Y1428990D02*
Y1481060D01*
Y1521700D02*
Y1571230D01*
Y1609330D02*
Y1702040D01*
X4934050Y1028940D02*
Y1040370D01*
Y1126730D02*
Y1159750D01*
Y1263890D02*
Y1298180D01*
Y1351520D02*
Y1395970D01*
Y1428990D02*
Y1481060D01*
Y1521700D02*
Y1569960D01*
Y1609330D02*
Y1702040D01*
X4935320Y1028940D02*
Y1040370D01*
Y1126730D02*
Y1159750D01*
Y1263890D02*
Y1298180D01*
Y1351520D02*
Y1395970D01*
Y1428990D02*
Y1481060D01*
Y1521700D02*
Y1569960D01*
Y1610600D02*
Y1702040D01*
X4936590Y1028940D02*
Y1039100D01*
Y1126730D02*
Y1159750D01*
Y1263890D02*
Y1298180D01*
Y1351520D02*
Y1395970D01*
Y1428990D02*
Y1481060D01*
Y1522970D02*
Y1569960D01*
Y1610600D02*
Y1702040D01*
X4937860Y1028940D02*
Y1039100D01*
Y1126730D02*
Y1159750D01*
Y1263890D02*
Y1298180D01*
Y1351520D02*
Y1395970D01*
Y1428990D02*
Y1479790D01*
Y1522970D02*
Y1568690D01*
Y1610600D02*
Y1702040D01*
X4939130Y1028940D02*
Y1039100D01*
Y1126730D02*
Y1159750D01*
Y1263890D02*
Y1298180D01*
Y1351520D02*
Y1395970D01*
Y1428990D02*
Y1479790D01*
Y1522970D02*
Y1568690D01*
Y1610600D02*
Y1702040D01*
X4940400Y1028940D02*
Y1039100D01*
Y1126730D02*
Y1159750D01*
Y1263890D02*
Y1298180D01*
Y1350250D02*
Y1395970D01*
Y1428990D02*
Y1479790D01*
Y1524240D02*
Y1568690D01*
Y1611870D02*
Y1702040D01*
X4941670Y1027670D02*
Y1039100D01*
Y1126730D02*
Y1159750D01*
Y1263890D02*
Y1298180D01*
Y1350250D02*
Y1395970D01*
Y1428990D02*
Y1479790D01*
Y1524240D02*
Y1568690D01*
Y1611870D02*
Y1703310D01*
X4942940Y1027670D02*
Y1039100D01*
Y1126730D02*
Y1159750D01*
Y1263890D02*
Y1298180D01*
Y1350250D02*
Y1395970D01*
Y1428990D02*
Y1478520D01*
Y1524240D02*
Y1567420D01*
Y1611870D02*
Y1703310D01*
X4944210Y1027670D02*
Y1039100D01*
Y1126730D02*
Y1159750D01*
Y1263890D02*
Y1298180D01*
Y1350250D02*
Y1395970D01*
Y1428990D02*
Y1478520D01*
Y1524240D02*
Y1567420D01*
Y1613140D02*
Y1703310D01*
X4945480Y1027670D02*
Y1039100D01*
Y1126730D02*
Y1159750D01*
Y1263890D02*
Y1298180D01*
Y1350250D02*
Y1395970D01*
Y1428990D02*
Y1478520D01*
Y1525510D02*
Y1567420D01*
Y1613140D02*
Y1703310D01*
X4946750Y1027670D02*
Y1039100D01*
Y1126730D02*
Y1159750D01*
Y1263890D02*
Y1298180D01*
Y1350250D02*
Y1395970D01*
Y1428990D02*
Y1478520D01*
Y1525510D02*
Y1566150D01*
Y1613140D02*
Y1703310D01*
X4948020Y1027670D02*
Y1039100D01*
Y1126730D02*
Y1159750D01*
Y1263890D02*
Y1298180D01*
Y1350250D02*
Y1395970D01*
Y1428990D02*
Y1477250D01*
Y1525510D02*
Y1566150D01*
Y1613140D02*
Y1703310D01*
X4949290Y1027670D02*
Y1039100D01*
Y1126730D02*
Y1159750D01*
Y1263890D02*
Y1298180D01*
Y1350250D02*
Y1395970D01*
Y1428990D02*
Y1477250D01*
Y1526780D02*
Y1566150D01*
Y1614410D02*
Y1703310D01*
X4950560Y1027670D02*
Y1039100D01*
Y1126730D02*
Y1159750D01*
Y1263890D02*
Y1298180D01*
Y1350250D02*
Y1395970D01*
Y1428990D02*
Y1477250D01*
Y1526780D02*
Y1566150D01*
Y1614410D02*
Y1703310D01*
X4951830Y1027670D02*
Y1039100D01*
Y1126730D02*
Y1159750D01*
Y1263890D02*
Y1298180D01*
Y1350250D02*
Y1395970D01*
Y1428990D02*
Y1475980D01*
Y1526780D02*
Y1564880D01*
Y1614410D02*
Y1703310D01*
X4953100Y1027670D02*
Y1039100D01*
Y1126730D02*
Y1159750D01*
Y1263890D02*
Y1298180D01*
Y1350250D02*
Y1395970D01*
Y1428990D02*
Y1475980D01*
Y1526780D02*
Y1564880D01*
Y1614410D02*
Y1703310D01*
X4954370Y1027670D02*
Y1039100D01*
Y1126730D02*
Y1159750D01*
Y1263890D02*
Y1298180D01*
Y1350250D02*
Y1395970D01*
Y1428990D02*
Y1475980D01*
Y1528050D02*
Y1564880D01*
Y1615680D02*
Y1703310D01*
X4955640Y1027670D02*
Y1039100D01*
Y1126730D02*
Y1159750D01*
Y1263890D02*
Y1298180D01*
Y1350250D02*
Y1395970D01*
Y1428990D02*
Y1475980D01*
Y1528050D02*
Y1563610D01*
Y1615680D02*
Y1703310D01*
X4956910Y1027670D02*
Y1039100D01*
Y1126730D02*
Y1159750D01*
Y1263890D02*
Y1298180D01*
Y1350250D02*
Y1395970D01*
Y1428990D02*
Y1474710D01*
Y1528050D02*
Y1563610D01*
Y1615680D02*
Y1703310D01*
X4958180Y1027670D02*
Y1039100D01*
Y1126730D02*
Y1159750D01*
Y1263890D02*
Y1298180D01*
Y1350250D02*
Y1395970D01*
Y1428990D02*
Y1474710D01*
Y1528050D02*
Y1563610D01*
Y1615680D02*
Y1703310D01*
X4959450Y1027670D02*
Y1039100D01*
Y1126730D02*
Y1159750D01*
Y1263890D02*
Y1298180D01*
Y1350250D02*
Y1395970D01*
Y1428990D02*
Y1474710D01*
Y1529320D02*
Y1563610D01*
Y1616950D02*
Y1703310D01*
X4960720Y1027670D02*
Y1039100D01*
Y1126730D02*
Y1159750D01*
Y1263890D02*
Y1298180D01*
Y1350250D02*
Y1395970D01*
Y1428990D02*
Y1474710D01*
Y1529320D02*
Y1562340D01*
Y1616950D02*
Y1703310D01*
X4961990Y1027670D02*
Y1039100D01*
Y1126730D02*
Y1159750D01*
Y1263890D02*
Y1298180D01*
Y1350250D02*
Y1395970D01*
Y1428990D02*
Y1473440D01*
Y1529320D02*
Y1562340D01*
Y1616950D02*
Y1703310D01*
X4963260Y1027670D02*
Y1039100D01*
Y1126730D02*
Y1159750D01*
Y1263890D02*
Y1298180D01*
Y1350250D02*
Y1395970D01*
Y1428990D02*
Y1473440D01*
Y1530590D02*
Y1562340D01*
Y1618220D02*
Y1703310D01*
X4964530Y1027670D02*
Y1039100D01*
Y1126730D02*
Y1159750D01*
Y1263890D02*
Y1298180D01*
Y1350250D02*
Y1395970D01*
Y1428990D02*
Y1473440D01*
Y1530590D02*
Y1561070D01*
Y1618220D02*
Y1703310D01*
X4965800Y1027670D02*
Y1039100D01*
Y1126730D02*
Y1159750D01*
Y1263890D02*
Y1298180D01*
Y1350250D02*
Y1395970D01*
Y1428990D02*
Y1473440D01*
Y1501380D02*
Y1502650D01*
Y1530590D02*
Y1561070D01*
Y1618220D02*
Y1703310D01*
X4967070Y1027670D02*
Y1039100D01*
Y1126730D02*
Y1159750D01*
Y1263890D02*
Y1298180D01*
Y1350250D02*
Y1395970D01*
Y1428990D02*
Y1472170D01*
Y1501380D02*
Y1502650D01*
Y1531860D02*
Y1561070D01*
Y1618220D02*
Y1703310D01*
X4968340Y1027670D02*
Y1039100D01*
Y1126730D02*
Y1159750D01*
Y1263890D02*
Y1298180D01*
Y1350250D02*
Y1395970D01*
Y1428990D02*
Y1472170D01*
Y1500110D02*
Y1502650D01*
Y1531860D02*
Y1559800D01*
Y1619490D02*
Y1703310D01*
X4969610Y1027670D02*
Y1039100D01*
Y1126730D02*
Y1159750D01*
Y1263890D02*
Y1298180D01*
Y1350250D02*
Y1395970D01*
Y1428990D02*
Y1472170D01*
Y1500110D02*
Y1502650D01*
Y1531860D02*
Y1559800D01*
Y1587740D02*
Y1589010D01*
Y1619490D02*
Y1703310D01*
X4970880Y1027670D02*
Y1039100D01*
Y1126730D02*
Y1159750D01*
Y1263890D02*
Y1298180D01*
Y1350250D02*
Y1395970D01*
Y1428990D02*
Y1472170D01*
Y1500110D02*
Y1503920D01*
Y1531860D02*
Y1559800D01*
Y1587740D02*
Y1590280D01*
Y1619490D02*
Y1703310D01*
X4972150Y1027670D02*
Y1039100D01*
Y1126730D02*
Y1159750D01*
Y1187690D02*
Y1298180D01*
Y1350250D02*
Y1395970D01*
Y1428990D02*
Y1470900D01*
Y1500110D02*
Y1503920D01*
Y1533130D02*
Y1559800D01*
Y1587740D02*
Y1590280D01*
Y1619490D02*
Y1703310D01*
X4973420Y1027670D02*
Y1039100D01*
Y1126730D02*
Y1159750D01*
Y1187690D02*
Y1298180D01*
Y1350250D02*
Y1395970D01*
Y1428990D02*
Y1470900D01*
Y1498840D02*
Y1503920D01*
Y1533130D02*
Y1558530D01*
Y1586470D02*
Y1590280D01*
Y1620760D02*
Y1703310D01*
X4974690Y1027670D02*
Y1039100D01*
Y1126730D02*
Y1159750D01*
Y1187690D02*
Y1298180D01*
Y1350250D02*
Y1395970D01*
Y1428990D02*
Y1470900D01*
Y1498840D02*
Y1505190D01*
Y1533130D02*
Y1558530D01*
Y1586470D02*
Y1590280D01*
Y1620760D02*
Y1703310D01*
X4975960Y1027670D02*
Y1039100D01*
Y1126730D02*
Y1159750D01*
Y1187690D02*
Y1298180D01*
Y1350250D02*
Y1395970D01*
Y1428990D02*
Y1469630D01*
Y1498840D02*
Y1505190D01*
Y1534400D02*
Y1558530D01*
Y1586470D02*
Y1591550D01*
Y1620760D02*
Y1703310D01*
X4977230Y1027670D02*
Y1039100D01*
Y1126730D02*
Y1159750D01*
Y1187690D02*
Y1298180D01*
Y1350250D02*
Y1395970D01*
Y1428990D02*
Y1469630D01*
Y1498840D02*
Y1505190D01*
Y1534400D02*
Y1557260D01*
Y1586470D02*
Y1591550D01*
Y1622030D02*
Y1703310D01*
X4978500Y1027670D02*
Y1039100D01*
Y1126730D02*
Y1159750D01*
Y1187690D02*
Y1298180D01*
Y1350250D02*
Y1395970D01*
Y1428990D02*
Y1469630D01*
Y1498840D02*
Y1505190D01*
Y1534400D02*
Y1557260D01*
Y1585200D02*
Y1591550D01*
Y1622030D02*
Y1703310D01*
X4979770Y1027670D02*
Y1039100D01*
Y1126730D02*
Y1159750D01*
Y1187690D02*
Y1298180D01*
Y1350250D02*
Y1395970D01*
Y1428990D02*
Y1469630D01*
Y1497570D02*
Y1506460D01*
Y1534400D02*
Y1557260D01*
Y1585200D02*
Y1591550D01*
Y1622030D02*
Y1703310D01*
X4981040Y1027670D02*
Y1039100D01*
Y1126730D02*
Y1159750D01*
Y1187690D02*
Y1298180D01*
Y1350250D02*
Y1395970D01*
Y1428990D02*
Y1468360D01*
Y1497570D02*
Y1506460D01*
Y1535670D02*
Y1557260D01*
Y1585200D02*
Y1591550D01*
Y1622030D02*
Y1703310D01*
X4982310Y1027670D02*
Y1039100D01*
Y1126730D02*
Y1159750D01*
Y1187690D02*
Y1298180D01*
Y1350250D02*
Y1395970D01*
Y1428990D02*
Y1468360D01*
Y1497570D02*
Y1506460D01*
Y1535670D02*
Y1555990D01*
Y1583930D02*
Y1592820D01*
Y1623300D02*
Y1703310D01*
X4983580Y1027670D02*
Y1039100D01*
Y1126730D02*
Y1159750D01*
Y1187690D02*
Y1298180D01*
Y1350250D02*
Y1395970D01*
Y1428990D02*
Y1468360D01*
Y1497570D02*
Y1506460D01*
Y1535670D02*
Y1555990D01*
Y1583930D02*
Y1592820D01*
Y1623300D02*
Y1703310D01*
X4984850Y1027670D02*
Y1039100D01*
Y1126730D02*
Y1159750D01*
Y1187690D02*
Y1298180D01*
Y1350250D02*
Y1395970D01*
Y1428990D02*
Y1468360D01*
Y1496300D02*
Y1507730D01*
Y1536940D02*
Y1555990D01*
Y1583930D02*
Y1592820D01*
Y1623300D02*
Y1703310D01*
X4986120Y1027670D02*
Y1039100D01*
Y1126730D02*
Y1159750D01*
Y1187690D02*
Y1298180D01*
Y1350250D02*
Y1395970D01*
Y1428990D02*
Y1467090D01*
Y1496300D02*
Y1507730D01*
Y1536940D02*
Y1554720D01*
Y1582660D02*
Y1592820D01*
Y1623300D02*
Y1703310D01*
X4987390Y1027670D02*
Y1039100D01*
Y1126730D02*
Y1159750D01*
Y1187690D02*
Y1298180D01*
Y1350250D02*
Y1395970D01*
Y1428990D02*
Y1467090D01*
Y1496300D02*
Y1507730D01*
Y1536940D02*
Y1554720D01*
Y1582660D02*
Y1594090D01*
Y1624570D02*
Y1703310D01*
X4988660Y1027670D02*
Y1039100D01*
Y1126730D02*
Y1159750D01*
Y1187690D02*
Y1298180D01*
Y1350250D02*
Y1395970D01*
Y1428990D02*
Y1467090D01*
Y1496300D02*
Y1509000D01*
Y1536940D02*
Y1554720D01*
Y1582660D02*
Y1594090D01*
Y1624570D02*
Y1703310D01*
X4989930Y1027670D02*
Y1039100D01*
Y1126730D02*
Y1159750D01*
Y1187690D02*
Y1298180D01*
Y1350250D02*
Y1395970D01*
Y1428990D02*
Y1467090D01*
Y1495030D02*
Y1509000D01*
Y1538210D02*
Y1554720D01*
Y1582660D02*
Y1594090D01*
Y1624570D02*
Y1703310D01*
X4991200Y1027670D02*
Y1039100D01*
Y1126730D02*
Y1159750D01*
Y1187690D02*
Y1298180D01*
Y1350250D02*
Y1395970D01*
Y1428990D02*
Y1465820D01*
Y1495030D02*
Y1509000D01*
Y1538210D02*
Y1553450D01*
Y1581390D02*
Y1594090D01*
Y1624570D02*
Y1703310D01*
X4992470Y1027670D02*
Y1039100D01*
Y1126730D02*
Y1159750D01*
Y1187690D02*
Y1298180D01*
Y1350250D02*
Y1395970D01*
Y1428990D02*
Y1465820D01*
Y1495030D02*
Y1510270D01*
Y1538210D02*
Y1553450D01*
Y1581390D02*
Y1594090D01*
Y1625840D02*
Y1703310D01*
X4993740Y1027670D02*
Y1039100D01*
Y1126730D02*
Y1159750D01*
Y1187690D02*
Y1298180D01*
Y1350250D02*
Y1395970D01*
Y1428990D02*
Y1465820D01*
Y1495030D02*
Y1510270D01*
Y1539480D02*
Y1553450D01*
Y1581390D02*
Y1595360D01*
Y1625840D02*
Y1703310D01*
X4995010Y1027670D02*
Y1039100D01*
Y1126730D02*
Y1159750D01*
Y1187690D02*
Y1298180D01*
Y1350250D02*
Y1395970D01*
Y1428990D02*
Y1465820D01*
Y1495030D02*
Y1510270D01*
Y1539480D02*
Y1552180D01*
Y1580120D02*
Y1595360D01*
Y1625840D02*
Y1703310D01*
X4996280Y1027670D02*
Y1039100D01*
Y1126730D02*
Y1159750D01*
Y1187690D02*
Y1298180D01*
Y1350250D02*
Y1395970D01*
Y1428990D02*
Y1464550D01*
Y1493760D02*
Y1510270D01*
Y1539480D02*
Y1552180D01*
Y1580120D02*
Y1595360D01*
Y1627110D02*
Y1703310D01*
X4997550Y1027670D02*
Y1039100D01*
Y1126730D02*
Y1159750D01*
Y1187690D02*
Y1298180D01*
Y1350250D02*
Y1395970D01*
Y1428990D02*
Y1464550D01*
Y1493760D02*
Y1511540D01*
Y1539480D02*
Y1552180D01*
Y1580120D02*
Y1595360D01*
Y1627110D02*
Y1703310D01*
X4998820Y1027670D02*
Y1039100D01*
Y1126730D02*
Y1159750D01*
Y1187690D02*
Y1298180D01*
Y1350250D02*
Y1395970D01*
Y1428990D02*
Y1464550D01*
Y1493760D02*
Y1511540D01*
Y1540750D02*
Y1552180D01*
Y1580120D02*
Y1596630D01*
Y1627110D02*
Y1703310D01*
X5000090Y1027670D02*
Y1039100D01*
Y1126730D02*
Y1159750D01*
Y1187690D02*
Y1298180D01*
Y1350250D02*
Y1395970D01*
Y1428990D02*
Y1463280D01*
Y1493760D02*
Y1511540D01*
Y1540750D02*
Y1550910D01*
Y1578850D02*
Y1596630D01*
Y1627110D02*
Y1703310D01*
X5001360Y1027670D02*
Y1039100D01*
Y1126730D02*
Y1159750D01*
Y1187690D02*
Y1298180D01*
Y1350250D02*
Y1395970D01*
Y1428990D02*
Y1463280D01*
Y1492490D02*
Y1512810D01*
Y1540750D02*
Y1550910D01*
Y1578850D02*
Y1596630D01*
Y1628380D02*
Y1703310D01*
X5002630Y1027670D02*
Y1039100D01*
Y1126730D02*
Y1159750D01*
Y1187690D02*
Y1298180D01*
Y1350250D02*
Y1395970D01*
Y1428990D02*
Y1463280D01*
Y1492490D02*
Y1512810D01*
Y1542020D02*
Y1550910D01*
Y1578850D02*
Y1596630D01*
Y1628380D02*
Y1703310D01*
X5003900Y1027670D02*
Y1039100D01*
Y1126730D02*
Y1159750D01*
Y1263890D02*
Y1298180D01*
Y1350250D02*
Y1395970D01*
Y1428990D02*
Y1463280D01*
Y1492490D02*
Y1512810D01*
Y1542020D02*
Y1549640D01*
Y1577580D02*
Y1596630D01*
Y1628380D02*
Y1703310D01*
X5005170Y1027670D02*
Y1039100D01*
Y1126730D02*
Y1159750D01*
Y1263890D02*
Y1298180D01*
Y1350250D02*
Y1395970D01*
Y1428990D02*
Y1462010D01*
Y1492490D02*
Y1512810D01*
Y1542020D02*
Y1549640D01*
Y1577580D02*
Y1597900D01*
Y1628380D02*
Y1703310D01*
X5006440Y1027670D02*
Y1039100D01*
Y1126730D02*
Y1159750D01*
Y1263890D02*
Y1298180D01*
Y1350250D02*
Y1395970D01*
Y1428990D02*
Y1462010D01*
Y1491220D02*
Y1514080D01*
Y1542020D02*
Y1549640D01*
Y1577580D02*
Y1597900D01*
Y1629650D02*
Y1703310D01*
X5007710Y1027670D02*
Y1039100D01*
Y1126730D02*
Y1159750D01*
Y1263890D02*
Y1298180D01*
Y1350250D02*
Y1395970D01*
Y1428990D02*
Y1462010D01*
Y1491220D02*
Y1514080D01*
Y1543290D02*
Y1549640D01*
Y1576310D02*
Y1597900D01*
Y1629650D02*
Y1703310D01*
X5008980Y1027670D02*
Y1039100D01*
Y1126730D02*
Y1159750D01*
Y1263890D02*
Y1298180D01*
Y1350250D02*
Y1395970D01*
Y1428990D02*
Y1462010D01*
Y1491220D02*
Y1514080D01*
Y1543290D02*
Y1548370D01*
Y1576310D02*
Y1597900D01*
Y1629650D02*
Y1703310D01*
X5010250Y1027670D02*
Y1039100D01*
Y1126730D02*
Y1159750D01*
Y1263890D02*
Y1298180D01*
Y1350250D02*
Y1395970D01*
Y1427720D02*
Y1460740D01*
Y1491220D02*
Y1515350D01*
Y1543290D02*
Y1548370D01*
Y1576310D02*
Y1599170D01*
Y1630920D02*
Y1703310D01*
X5011520Y1027670D02*
Y1039100D01*
Y1126730D02*
Y1159750D01*
Y1263890D02*
Y1298180D01*
Y1350250D02*
Y1395970D01*
Y1428990D02*
Y1460740D01*
Y1491220D02*
Y1515350D01*
Y1544560D02*
Y1548370D01*
Y1576310D02*
Y1599170D01*
Y1630920D02*
Y1703310D01*
X5012790Y1027670D02*
Y1039100D01*
Y1126730D02*
Y1159750D01*
Y1263890D02*
Y1298180D01*
Y1350250D02*
Y1395970D01*
Y1428990D02*
Y1460740D01*
Y1489950D02*
Y1515350D01*
Y1544560D02*
Y1547100D01*
Y1575040D02*
Y1599170D01*
Y1630920D02*
Y1703310D01*
X5014060Y1027670D02*
Y1039100D01*
Y1126730D02*
Y1159750D01*
Y1263890D02*
Y1298180D01*
Y1350250D02*
Y1395970D01*
Y1428990D02*
Y1460740D01*
Y1489950D02*
Y1515350D01*
Y1544560D02*
Y1547100D01*
Y1575040D02*
Y1599170D01*
Y1630920D02*
Y1703310D01*
X5015330Y1027670D02*
Y1039100D01*
Y1126730D02*
Y1159750D01*
Y1263890D02*
Y1298180D01*
Y1350250D02*
Y1395970D01*
Y1428990D02*
Y1459470D01*
Y1489950D02*
Y1516620D01*
Y1544560D02*
Y1547100D01*
Y1575040D02*
Y1599170D01*
Y1632190D02*
Y1703310D01*
X5016600Y1027670D02*
Y1039100D01*
Y1126730D02*
Y1159750D01*
Y1263890D02*
Y1298180D01*
Y1350250D02*
Y1395970D01*
Y1428990D02*
Y1459470D01*
Y1489950D02*
Y1516620D01*
Y1545830D02*
Y1547100D01*
Y1573770D02*
Y1600440D01*
Y1632190D02*
Y1703310D01*
X5017870Y1027670D02*
Y1039100D01*
Y1263890D02*
Y1298180D01*
Y1350250D02*
Y1459470D01*
Y1488680D02*
Y1516620D01*
Y1573770D02*
Y1600440D01*
Y1632190D02*
Y1703310D01*
X5019140Y1027670D02*
Y1039100D01*
Y1263890D02*
Y1298180D01*
Y1350250D02*
Y1458200D01*
Y1488680D02*
Y1516620D01*
Y1573770D02*
Y1600440D01*
Y1632190D02*
Y1703310D01*
X5020410Y1027670D02*
Y1039100D01*
Y1263890D02*
Y1298180D01*
Y1350250D02*
Y1458200D01*
Y1488680D02*
Y1517890D01*
Y1572500D02*
Y1600440D01*
Y1633460D02*
Y1703310D01*
X5021680Y1027670D02*
Y1039100D01*
Y1263890D02*
Y1298180D01*
Y1350250D02*
Y1458200D01*
Y1488680D02*
Y1517890D01*
Y1572500D02*
Y1601710D01*
Y1633460D02*
Y1703310D01*
X5022950Y1027670D02*
Y1039100D01*
Y1263890D02*
Y1298180D01*
Y1350250D02*
Y1458200D01*
Y1487410D02*
Y1517890D01*
Y1572500D02*
Y1601710D01*
Y1633460D02*
Y1703310D01*
X5024220Y1027670D02*
Y1039100D01*
Y1263890D02*
Y1298180D01*
Y1350250D02*
Y1456930D01*
Y1487410D02*
Y1519160D01*
Y1572500D02*
Y1601710D01*
Y1633460D02*
Y1703310D01*
X5025490Y1027670D02*
Y1039100D01*
Y1263890D02*
Y1298180D01*
Y1350250D02*
Y1456930D01*
Y1487410D02*
Y1519160D01*
Y1571230D02*
Y1601710D01*
Y1634730D02*
Y1703310D01*
X5026760Y1027670D02*
Y1039100D01*
Y1263890D02*
Y1298180D01*
Y1350250D02*
Y1456930D01*
Y1487410D02*
Y1519160D01*
Y1571230D02*
Y1602980D01*
Y1634730D02*
Y1703310D01*
X5028030Y1027670D02*
Y1039100D01*
Y1263890D02*
Y1298180D01*
Y1350250D02*
Y1456930D01*
Y1486140D02*
Y1519160D01*
Y1571230D02*
Y1602980D01*
Y1634730D02*
Y1703310D01*
X5029300Y1027670D02*
Y1039100D01*
Y1263890D02*
Y1298180D01*
Y1350250D02*
Y1455660D01*
Y1486140D02*
Y1520430D01*
Y1569960D02*
Y1602980D01*
Y1636000D02*
Y1703310D01*
X5030570Y1027670D02*
Y1039100D01*
Y1263890D02*
Y1298180D01*
Y1350250D02*
Y1455660D01*
Y1486140D02*
Y1520430D01*
Y1569960D02*
Y1602980D01*
Y1636000D02*
Y1703310D01*
X5031840Y1027670D02*
Y1039100D01*
Y1143240D02*
Y1144510D01*
Y1263890D02*
Y1298180D01*
Y1350250D02*
Y1412480D01*
Y1413750D02*
Y1455660D01*
Y1486140D02*
Y1520430D01*
Y1569960D02*
Y1602980D01*
Y1636000D02*
Y1703310D01*
X5033110Y1027670D02*
Y1039100D01*
Y1135620D02*
Y1149590D01*
Y1263890D02*
Y1298180D01*
Y1350250D02*
Y1404860D01*
Y1418830D02*
Y1455660D01*
Y1486140D02*
Y1521700D01*
Y1569960D02*
Y1604250D01*
Y1636000D02*
Y1703310D01*
X5034380Y1027670D02*
Y1039100D01*
Y1133080D02*
Y1153400D01*
Y1263890D02*
Y1298180D01*
Y1350250D02*
Y1402320D01*
Y1421370D02*
Y1454390D01*
Y1484870D02*
Y1521700D01*
Y1568690D02*
Y1604250D01*
Y1637270D02*
Y1703310D01*
X5035650Y1028940D02*
Y1039100D01*
Y1131810D02*
Y1154670D01*
Y1182610D02*
Y1298180D01*
Y1350250D02*
Y1399780D01*
Y1423910D02*
Y1454390D01*
Y1484870D02*
Y1521700D01*
Y1568690D02*
Y1604250D01*
Y1637270D02*
Y1702040D01*
X5036920Y1028940D02*
Y1039100D01*
Y1129270D02*
Y1155940D01*
Y1181340D02*
Y1298180D01*
Y1350250D02*
Y1398510D01*
Y1425180D02*
Y1454390D01*
Y1484870D02*
Y1521700D01*
Y1568690D02*
Y1604250D01*
Y1637270D02*
Y1702040D01*
X5038190Y1028940D02*
Y1039100D01*
Y1128000D02*
Y1157210D01*
Y1182610D02*
Y1298180D01*
Y1348980D02*
Y1397240D01*
Y1426450D02*
Y1454390D01*
Y1484870D02*
Y1522970D01*
Y1567420D02*
Y1605520D01*
Y1637270D02*
Y1702040D01*
X5039460Y1028940D02*
Y1039100D01*
Y1128000D02*
Y1158480D01*
Y1182610D02*
Y1298180D01*
Y1348980D02*
Y1397240D01*
Y1427720D02*
Y1453120D01*
Y1484870D02*
Y1522970D01*
Y1567420D02*
Y1605520D01*
Y1638540D02*
Y1702040D01*
X5040730Y1028940D02*
Y1040370D01*
Y1126730D02*
Y1159750D01*
Y1182610D02*
Y1298180D01*
Y1348980D02*
Y1395970D01*
Y1428990D02*
Y1453120D01*
Y1483600D02*
Y1522970D01*
Y1567420D02*
Y1605520D01*
Y1638540D02*
Y1702040D01*
X5042000Y1028940D02*
Y1040370D01*
Y1125460D02*
Y1159750D01*
Y1182610D02*
Y1298180D01*
Y1348980D02*
Y1394700D01*
Y1428990D02*
Y1453120D01*
Y1483600D02*
Y1524240D01*
Y1566150D02*
Y1605520D01*
Y1638540D02*
Y1702040D01*
X5043270Y1028940D02*
Y1040370D01*
Y1125460D02*
Y1161020D01*
Y1182610D02*
Y1298180D01*
Y1348980D02*
Y1394700D01*
Y1430260D02*
Y1451850D01*
Y1483600D02*
Y1524240D01*
Y1566150D02*
Y1605520D01*
Y1638540D02*
Y1702040D01*
X5044540Y1030210D02*
Y1040370D01*
Y1125460D02*
Y1161020D01*
Y1182610D02*
Y1298180D01*
Y1348980D02*
Y1393430D01*
Y1430260D02*
Y1451850D01*
Y1483600D02*
Y1524240D01*
Y1566150D02*
Y1606790D01*
Y1639810D02*
Y1700770D01*
X5045810Y1030210D02*
Y1040370D01*
Y1124190D02*
Y1161020D01*
Y1182610D02*
Y1298180D01*
Y1348980D02*
Y1393430D01*
Y1430260D02*
Y1451850D01*
Y1482330D02*
Y1524240D01*
Y1566150D02*
Y1606790D01*
Y1639810D02*
Y1700770D01*
X5047080Y1030210D02*
Y1041640D01*
Y1124190D02*
Y1162290D01*
Y1182610D02*
Y1298180D01*
Y1347710D02*
Y1393430D01*
Y1430260D02*
Y1451850D01*
Y1482330D02*
Y1525510D01*
Y1564880D02*
Y1606790D01*
Y1639810D02*
Y1700770D01*
X5048350Y1030210D02*
Y1041640D01*
Y1124190D02*
Y1162290D01*
Y1182610D02*
Y1298180D01*
Y1347710D02*
Y1393430D01*
Y1431530D02*
Y1450580D01*
Y1482330D02*
Y1525510D01*
Y1564880D02*
Y1606790D01*
Y1641080D02*
Y1700770D01*
X5049620Y1030210D02*
Y1041640D01*
Y1124190D02*
Y1162290D01*
Y1182610D02*
Y1298180D01*
Y1347710D02*
Y1393430D01*
Y1431530D02*
Y1450580D01*
Y1482330D02*
Y1525510D01*
Y1564880D02*
Y1608060D01*
Y1641080D02*
Y1700770D01*
X5050890Y1031480D02*
Y1041640D01*
Y1124190D02*
Y1162290D01*
Y1182610D02*
Y1298180D01*
Y1347710D02*
Y1392160D01*
Y1431530D02*
Y1450580D01*
Y1481060D02*
Y1526780D01*
Y1563610D02*
Y1608060D01*
Y1641080D02*
Y1699500D01*
X5052160Y1031480D02*
Y1042910D01*
Y1124190D02*
Y1162290D01*
Y1182610D02*
Y1298180D01*
Y1346440D02*
Y1393430D01*
Y1431530D02*
Y1450580D01*
Y1481060D02*
Y1526780D01*
Y1563610D02*
Y1608060D01*
Y1641080D02*
Y1699500D01*
X5053430Y1031480D02*
Y1042910D01*
Y1124190D02*
Y1162290D01*
Y1182610D02*
Y1298180D01*
Y1346440D02*
Y1393430D01*
Y1431530D02*
Y1449310D01*
Y1481060D02*
Y1526780D01*
Y1563610D02*
Y1608060D01*
Y1642350D02*
Y1699500D01*
X5054700Y1032750D02*
Y1042910D01*
Y1124190D02*
Y1162290D01*
Y1182610D02*
Y1298180D01*
Y1346440D02*
Y1393430D01*
Y1431530D02*
Y1449310D01*
Y1481060D02*
Y1526780D01*
Y1563610D02*
Y1608060D01*
Y1642350D02*
Y1699500D01*
X5055970Y1032750D02*
Y1042910D01*
Y1124190D02*
Y1161020D01*
Y1182610D02*
Y1298180D01*
Y1346440D02*
Y1393430D01*
Y1430260D02*
Y1449310D01*
Y1479790D02*
Y1528050D01*
Y1562340D02*
Y1609330D01*
Y1642350D02*
Y1698230D01*
X5057240Y1032750D02*
Y1044180D01*
Y1124190D02*
Y1161020D01*
Y1182610D02*
Y1298180D01*
Y1345170D02*
Y1393430D01*
Y1430260D02*
Y1449310D01*
Y1479790D02*
Y1528050D01*
Y1562340D02*
Y1609330D01*
Y1642350D02*
Y1698230D01*
X5058510Y1032750D02*
Y1044180D01*
Y1125460D02*
Y1161020D01*
Y1182610D02*
Y1298180D01*
Y1345170D02*
Y1394700D01*
Y1430260D02*
Y1448040D01*
Y1479790D02*
Y1528050D01*
Y1562340D02*
Y1609330D01*
Y1643620D02*
Y1698230D01*
X5059780Y1034020D02*
Y1045450D01*
Y1125460D02*
Y1159750D01*
Y1182610D02*
Y1298180D01*
Y1345170D02*
Y1394700D01*
Y1428990D02*
Y1448040D01*
Y1479790D02*
Y1529320D01*
Y1561070D02*
Y1609330D01*
Y1643620D02*
Y1696960D01*
X5061050Y1034020D02*
Y1045450D01*
Y1126730D02*
Y1159750D01*
Y1182610D02*
Y1298180D01*
Y1343900D02*
Y1395970D01*
Y1428990D02*
Y1448040D01*
Y1479790D02*
Y1529320D01*
Y1561070D02*
Y1610600D01*
Y1643620D02*
Y1696960D01*
X5062320Y1035290D02*
Y1045450D01*
Y1128000D02*
Y1158480D01*
Y1182610D02*
Y1298180D01*
Y1343900D02*
Y1395970D01*
Y1427720D02*
Y1448040D01*
Y1478520D02*
Y1529320D01*
Y1561070D02*
Y1610600D01*
Y1643620D02*
Y1696960D01*
X5063590Y1035290D02*
Y1046720D01*
Y1128000D02*
Y1157210D01*
Y1181340D02*
Y1298180D01*
Y1342630D02*
Y1397240D01*
Y1426450D02*
Y1446770D01*
Y1478520D02*
Y1529320D01*
Y1559800D02*
Y1610600D01*
Y1644890D02*
Y1695690D01*
X5064860Y1035290D02*
Y1046720D01*
Y1129270D02*
Y1155940D01*
Y1182610D02*
Y1298180D01*
Y1342630D02*
Y1398510D01*
Y1425180D02*
Y1446770D01*
Y1478520D02*
Y1530590D01*
Y1559800D02*
Y1610600D01*
Y1644890D02*
Y1695690D01*
X5066130Y1036560D02*
Y1047990D01*
Y1130540D02*
Y1154670D01*
Y1342630D02*
Y1399780D01*
Y1423910D02*
Y1446770D01*
Y1448040D02*
Y1449310D01*
Y1477250D02*
Y1530590D01*
Y1531860D02*
Y1534400D01*
Y1535670D02*
Y1536940D01*
Y1559800D02*
Y1614410D01*
Y1615680D02*
Y1618220D01*
Y1641080D02*
Y1642350D01*
Y1643620D02*
Y1694420D01*
X5067400Y1036560D02*
Y1047990D01*
Y1133080D02*
Y1153400D01*
Y1341360D02*
Y1402320D01*
Y1422640D02*
Y1694420D01*
X5068670Y1037830D02*
Y1047990D01*
Y1135620D02*
Y1150860D01*
Y1341360D02*
Y1404860D01*
Y1420100D02*
Y1694420D01*
X5069940Y1037830D02*
Y1049260D01*
Y1140700D02*
Y1145780D01*
Y1340090D02*
Y1408670D01*
Y1415020D02*
Y1693150D01*
X5071210Y1037830D02*
Y1049260D01*
Y1340090D02*
Y1693150D01*
X5072480Y1039100D02*
Y1050530D01*
Y1338820D02*
Y1691880D01*
X5073750Y1039100D02*
Y1051800D01*
Y1338820D02*
Y1691880D01*
X5075020Y1040370D02*
Y1051800D01*
Y1337550D02*
Y1690610D01*
X5076290Y1040370D02*
Y1053070D01*
Y1337550D02*
Y1690610D01*
X5077560Y1041640D02*
Y1053070D01*
Y1336280D02*
Y1689340D01*
X5078830Y1042910D02*
Y1054340D01*
Y1336280D02*
Y1689340D01*
X5080100Y1042910D02*
Y1055610D01*
Y1335010D02*
Y1688070D01*
X5081370Y1044180D02*
Y1055610D01*
Y1333740D02*
Y1686800D01*
X5082640Y1044180D02*
Y1056880D01*
Y1333740D02*
Y1686800D01*
X5083910Y1045450D02*
Y1058150D01*
Y1332470D02*
Y1685530D01*
X5085180Y1046720D02*
Y1058150D01*
Y1331200D02*
Y1685530D01*
X5086450Y1046720D02*
Y1059420D01*
Y1331200D02*
Y1684260D01*
X5087720Y1047990D02*
Y1060690D01*
Y1329930D02*
Y1682990D01*
X5088990Y1018780D02*
Y1031480D01*
Y1049260D02*
Y1061960D01*
Y1328660D02*
Y1681720D01*
X5090260Y1014970D02*
Y1035290D01*
Y1049260D02*
Y1063230D01*
Y1327390D02*
Y1681720D01*
X5091530Y1013700D02*
Y1036560D01*
Y1050530D02*
Y1063230D01*
Y1326120D02*
Y1680450D01*
X5092800Y1012430D02*
Y1020050D01*
Y1030210D02*
Y1039100D01*
Y1051800D02*
Y1064500D01*
Y1324850D02*
Y1679180D01*
X5094070Y1011160D02*
Y1017510D01*
Y1032750D02*
Y1040370D01*
Y1053070D02*
Y1065770D01*
Y1324850D02*
Y1677910D01*
X5095340Y1009890D02*
Y1016240D01*
Y1035290D02*
Y1041640D01*
Y1054340D02*
Y1067040D01*
Y1323580D02*
Y1677910D01*
X5096610Y1008620D02*
Y1013700D01*
Y1036560D02*
Y1041640D01*
Y1054340D02*
Y1068310D01*
Y1322310D02*
Y1676640D01*
X5097880Y1007350D02*
Y1012430D01*
Y1016240D02*
Y1021320D01*
Y1030210D02*
Y1034020D01*
Y1037830D02*
Y1042910D01*
Y1055610D02*
Y1069580D01*
Y1321040D02*
Y1675370D01*
X5099150Y1007350D02*
Y1012430D01*
Y1016240D02*
Y1022590D01*
Y1030210D02*
Y1034020D01*
Y1039100D02*
Y1042910D01*
Y1056880D02*
Y1070850D01*
Y1319770D02*
Y1674100D01*
X5100420Y1006080D02*
Y1011160D01*
Y1017510D02*
Y1022590D01*
Y1030210D02*
Y1034020D01*
Y1039100D02*
Y1044180D01*
Y1058150D02*
Y1072120D01*
Y1318500D02*
Y1672830D01*
X5101690Y1006080D02*
Y1011160D01*
Y1018780D02*
Y1023860D01*
Y1030210D02*
Y1034020D01*
Y1040370D02*
Y1044180D01*
Y1059420D02*
Y1073390D01*
Y1317230D02*
Y1671560D01*
X5102960Y1006080D02*
Y1009890D01*
Y1018780D02*
Y1025130D01*
Y1030210D02*
Y1034020D01*
Y1040370D02*
Y1045450D01*
Y1060690D02*
Y1075930D01*
Y1314690D02*
Y1670290D01*
X5104230Y1006080D02*
Y1009890D01*
Y1020050D02*
Y1025130D01*
Y1030210D02*
Y1034020D01*
Y1040370D02*
Y1045450D01*
Y1061960D02*
Y1077200D01*
Y1313420D02*
Y1669020D01*
X5105500Y1004810D02*
Y1009890D01*
Y1021320D02*
Y1027670D01*
Y1030210D02*
Y1034020D01*
Y1040370D02*
Y1045450D01*
Y1063230D02*
Y1078470D01*
Y1312150D02*
Y1667750D01*
X5106770Y1004810D02*
Y1009890D01*
Y1021320D02*
Y1034020D01*
Y1041640D02*
Y1045450D01*
Y1064500D02*
Y1081010D01*
Y1310880D02*
Y1666480D01*
X5108040Y1004810D02*
Y1009890D01*
Y1018780D02*
Y1034020D01*
Y1040370D02*
Y1045450D01*
Y1065770D02*
Y1082280D01*
Y1308340D02*
Y1665210D01*
X5109310Y1004810D02*
Y1009890D01*
Y1017510D02*
Y1034020D01*
Y1040370D02*
Y1045450D01*
Y1067040D02*
Y1084820D01*
Y1307070D02*
Y1663940D01*
X5110580Y1006080D02*
Y1009890D01*
Y1017510D02*
Y1022590D01*
Y1030210D02*
Y1034020D01*
Y1040370D02*
Y1045450D01*
Y1068310D02*
Y1086090D01*
Y1304530D02*
Y1662670D01*
X5111850Y1006080D02*
Y1009890D01*
Y1017510D02*
Y1022590D01*
Y1030210D02*
Y1034020D01*
Y1040370D02*
Y1045450D01*
Y1070850D02*
Y1088630D01*
Y1303260D02*
Y1660130D01*
X5113120Y1006080D02*
Y1009890D01*
Y1017510D02*
Y1022590D01*
Y1030210D02*
Y1034020D01*
Y1040370D02*
Y1044180D01*
Y1072120D02*
Y1089900D01*
Y1300720D02*
Y1658860D01*
X5114390Y1006080D02*
Y1011160D01*
Y1017510D02*
Y1023860D01*
Y1030210D02*
Y1034020D01*
Y1039100D02*
Y1044180D01*
Y1073390D02*
Y1092440D01*
Y1298180D02*
Y1657590D01*
X5115660Y1007350D02*
Y1011160D01*
Y1017510D02*
Y1034020D01*
Y1039100D02*
Y1044180D01*
Y1075930D02*
Y1094980D01*
Y1295640D02*
Y1655050D01*
X5116930Y1007350D02*
Y1012430D01*
Y1018780D02*
Y1034020D01*
Y1037830D02*
Y1042910D01*
Y1077200D02*
Y1097520D01*
Y1293100D02*
Y1653780D01*
X5118200Y1008620D02*
Y1013700D01*
Y1022590D02*
Y1034020D01*
Y1037830D02*
Y1042910D01*
Y1079740D02*
Y1101330D01*
Y1290560D02*
Y1652510D01*
X5119470Y1008620D02*
Y1014970D01*
Y1036560D02*
Y1041640D01*
Y1081010D02*
Y1103870D01*
Y1286750D02*
Y1649970D01*
X5120740Y1009890D02*
Y1016240D01*
Y1034020D02*
Y1040370D01*
Y1083550D02*
Y1107680D01*
Y1284210D02*
Y1647430D01*
X5122010Y1011160D02*
Y1017510D01*
Y1032750D02*
Y1040370D01*
Y1084820D02*
Y1112760D01*
Y1279130D02*
Y1646160D01*
X5123280Y1012430D02*
Y1021320D01*
Y1028940D02*
Y1037830D01*
Y1087360D02*
Y1117840D01*
Y1275320D02*
Y1643620D01*
X5124550Y1013700D02*
Y1036560D01*
Y1089900D02*
Y1124190D01*
Y1267700D02*
Y1641080D01*
X5125820Y1016240D02*
Y1035290D01*
Y1092440D02*
Y1638540D01*
X5127090Y1018780D02*
Y1031480D01*
Y1094980D02*
Y1636000D01*
X5128360Y1098790D02*
Y1632190D01*
X5129630Y1101330D02*
Y1629650D01*
X5130900Y1105140D02*
Y1625840D01*
X5132170Y1108950D02*
Y1622030D01*
X5133440Y1114030D02*
Y1616950D01*
X5134710Y1119110D02*
Y1611870D01*
X5135980Y1126730D02*
Y1604250D01*
D36*
X4577180Y2210040D02*
X5339180D01*
X2913480D02*
X2976980D01*
X2913480Y2006840D02*
Y2210040D01*
Y584440D02*
Y787640D01*
Y584440D02*
X2989680D01*
X4577180D02*
X5339180D01*
Y2210040D01*
%TF.MD5,d0d96c27bb7b101a1b08a6f6629e992e*%
M02*
