%TF.GenerationSoftware,Altium Limited,Altium Designer,20.1.8 (145)*%
G04 Layer_Color=24703*
%FSLAX45Y45*%
%MOMM*%
%TF.SameCoordinates,2300FDCC-ED38-457A-842E-A9769F27D6F2*%
%TF.FilePolarity,Positive*%
%TF.FileFunction,Paste,Top*%
%TF.Part,Single*%
G01*
G75*
%TA.AperFunction,SMDPad,CuDef*%
G04:AMPARAMS|DCode=10|XSize=0.55mm|YSize=0.9mm|CornerRadius=0.00275mm|HoleSize=0mm|Usage=FLASHONLY|Rotation=90.000|XOffset=0mm|YOffset=0mm|HoleType=Round|Shape=RoundedRectangle|*
%AMROUNDEDRECTD10*
21,1,0.55000,0.89450,0,0,90.0*
21,1,0.54450,0.90000,0,0,90.0*
1,1,0.00550,0.44725,0.27225*
1,1,0.00550,0.44725,-0.27225*
1,1,0.00550,-0.44725,-0.27225*
1,1,0.00550,-0.44725,0.27225*
%
%ADD10ROUNDEDRECTD10*%
G04:AMPARAMS|DCode=11|XSize=0.55mm|YSize=0.9mm|CornerRadius=0.00275mm|HoleSize=0mm|Usage=FLASHONLY|Rotation=0.000|XOffset=0mm|YOffset=0mm|HoleType=Round|Shape=RoundedRectangle|*
%AMROUNDEDRECTD11*
21,1,0.55000,0.89450,0,0,0.0*
21,1,0.54450,0.90000,0,0,0.0*
1,1,0.00550,0.27225,-0.44725*
1,1,0.00550,-0.27225,-0.44725*
1,1,0.00550,-0.27225,0.44725*
1,1,0.00550,0.27225,0.44725*
%
%ADD11ROUNDEDRECTD11*%
G04:AMPARAMS|DCode=12|XSize=0.85mm|YSize=0.85mm|CornerRadius=0.00425mm|HoleSize=0mm|Usage=FLASHONLY|Rotation=0.000|XOffset=0mm|YOffset=0mm|HoleType=Round|Shape=RoundedRectangle|*
%AMROUNDEDRECTD12*
21,1,0.85000,0.84150,0,0,0.0*
21,1,0.84150,0.85000,0,0,0.0*
1,1,0.00850,0.42075,-0.42075*
1,1,0.00850,-0.42075,-0.42075*
1,1,0.00850,-0.42075,0.42075*
1,1,0.00850,0.42075,0.42075*
%
%ADD12ROUNDEDRECTD12*%
G04:AMPARAMS|DCode=13|XSize=0.85mm|YSize=0.85mm|CornerRadius=0.00425mm|HoleSize=0mm|Usage=FLASHONLY|Rotation=90.000|XOffset=0mm|YOffset=0mm|HoleType=Round|Shape=RoundedRectangle|*
%AMROUNDEDRECTD13*
21,1,0.85000,0.84150,0,0,90.0*
21,1,0.84150,0.85000,0,0,90.0*
1,1,0.00850,0.42075,0.42075*
1,1,0.00850,0.42075,-0.42075*
1,1,0.00850,-0.42075,-0.42075*
1,1,0.00850,-0.42075,0.42075*
%
%ADD13ROUNDEDRECTD13*%
%ADD14O,0.45000X1.40000*%
%ADD15O,1.40000X0.45000*%
G04:AMPARAMS|DCode=16|XSize=0.8mm|YSize=0.8mm|CornerRadius=0.004mm|HoleSize=0mm|Usage=FLASHONLY|Rotation=270.000|XOffset=0mm|YOffset=0mm|HoleType=Round|Shape=RoundedRectangle|*
%AMROUNDEDRECTD16*
21,1,0.80000,0.79200,0,0,270.0*
21,1,0.79200,0.80000,0,0,270.0*
1,1,0.00800,-0.39600,-0.39600*
1,1,0.00800,-0.39600,0.39600*
1,1,0.00800,0.39600,0.39600*
1,1,0.00800,0.39600,-0.39600*
%
%ADD16ROUNDEDRECTD16*%
G04:AMPARAMS|DCode=17|XSize=0.6mm|YSize=1.05mm|CornerRadius=0.003mm|HoleSize=0mm|Usage=FLASHONLY|Rotation=180.000|XOffset=0mm|YOffset=0mm|HoleType=Round|Shape=RoundedRectangle|*
%AMROUNDEDRECTD17*
21,1,0.60000,1.04400,0,0,180.0*
21,1,0.59400,1.05000,0,0,180.0*
1,1,0.00600,-0.29700,0.52200*
1,1,0.00600,0.29700,0.52200*
1,1,0.00600,0.29700,-0.52200*
1,1,0.00600,-0.29700,-0.52200*
%
%ADD17ROUNDEDRECTD17*%
G04:AMPARAMS|DCode=18|XSize=0.85mm|YSize=0.9mm|CornerRadius=0.00425mm|HoleSize=0mm|Usage=FLASHONLY|Rotation=0.000|XOffset=0mm|YOffset=0mm|HoleType=Round|Shape=RoundedRectangle|*
%AMROUNDEDRECTD18*
21,1,0.85000,0.89150,0,0,0.0*
21,1,0.84150,0.90000,0,0,0.0*
1,1,0.00850,0.42075,-0.44575*
1,1,0.00850,-0.42075,-0.44575*
1,1,0.00850,-0.42075,0.44575*
1,1,0.00850,0.42075,0.44575*
%
%ADD18ROUNDEDRECTD18*%
G04:AMPARAMS|DCode=19|XSize=0.85mm|YSize=0.9mm|CornerRadius=0.00425mm|HoleSize=0mm|Usage=FLASHONLY|Rotation=90.000|XOffset=0mm|YOffset=0mm|HoleType=Round|Shape=RoundedRectangle|*
%AMROUNDEDRECTD19*
21,1,0.85000,0.89150,0,0,90.0*
21,1,0.84150,0.90000,0,0,90.0*
1,1,0.00850,0.44575,0.42075*
1,1,0.00850,0.44575,-0.42075*
1,1,0.00850,-0.44575,-0.42075*
1,1,0.00850,-0.44575,0.42075*
%
%ADD19ROUNDEDRECTD19*%
%TA.AperFunction,ConnectorPad*%
G04:AMPARAMS|DCode=20|XSize=1.1mm|YSize=2.3mm|CornerRadius=0.0055mm|HoleSize=0mm|Usage=FLASHONLY|Rotation=0.000|XOffset=0mm|YOffset=0mm|HoleType=Round|Shape=RoundedRectangle|*
%AMROUNDEDRECTD20*
21,1,1.10000,2.28900,0,0,0.0*
21,1,1.08900,2.30000,0,0,0.0*
1,1,0.01100,0.54450,-1.14450*
1,1,0.01100,-0.54450,-1.14450*
1,1,0.01100,-0.54450,1.14450*
1,1,0.01100,0.54450,1.14450*
%
%ADD20ROUNDEDRECTD20*%
G04:AMPARAMS|DCode=21|XSize=1.1mm|YSize=2.3mm|CornerRadius=0.0055mm|HoleSize=0mm|Usage=FLASHONLY|Rotation=90.000|XOffset=0mm|YOffset=0mm|HoleType=Round|Shape=RoundedRectangle|*
%AMROUNDEDRECTD21*
21,1,1.10000,2.28900,0,0,90.0*
21,1,1.08900,2.30000,0,0,90.0*
1,1,0.01100,1.14450,0.54450*
1,1,0.01100,1.14450,-0.54450*
1,1,0.01100,-1.14450,-0.54450*
1,1,0.01100,-1.14450,0.54450*
%
%ADD21ROUNDEDRECTD21*%
D10*
X2604000Y500800D02*
D03*
X2374000Y405800D02*
D03*
Y595800D02*
D03*
D11*
X2045000Y560001D02*
D03*
X1855000D02*
D03*
X1950000Y330001D02*
D03*
D12*
X2209373Y584600D02*
D03*
Y454600D02*
D03*
X212060Y799000D02*
D03*
Y929000D02*
D03*
X347500Y2013760D02*
D03*
Y2143760D02*
D03*
X515620D02*
D03*
Y2013760D02*
D03*
D13*
X2049780Y1436906D02*
D03*
X2179780D02*
D03*
X3723640Y2500000D02*
D03*
X3593640D02*
D03*
X4079340D02*
D03*
X3949340D02*
D03*
X3860180Y384000D02*
D03*
X3990180D02*
D03*
X1082500Y1440180D02*
D03*
X1212500D02*
D03*
D14*
X932500Y1402500D02*
D03*
X867500D02*
D03*
X802500D02*
D03*
X737500D02*
D03*
X672500D02*
D03*
X607500D02*
D03*
X542500D02*
D03*
X477500D02*
D03*
X412500D02*
D03*
X347500D02*
D03*
X932500Y817500D02*
D03*
X867500D02*
D03*
X802500D02*
D03*
X737500D02*
D03*
X672500D02*
D03*
X607500D02*
D03*
X542500D02*
D03*
X477500D02*
D03*
X412500D02*
D03*
X347500D02*
D03*
D15*
X1935000Y1595000D02*
D03*
Y1660000D02*
D03*
Y1725000D02*
D03*
Y1790000D02*
D03*
Y1855000D02*
D03*
Y1920000D02*
D03*
Y1985000D02*
D03*
X1345000Y1595000D02*
D03*
Y1660000D02*
D03*
Y1725000D02*
D03*
Y1790000D02*
D03*
Y1855000D02*
D03*
Y1920000D02*
D03*
Y1985000D02*
D03*
D16*
X932500Y1577340D02*
D03*
X1082500D02*
D03*
D17*
X1870000Y809840D02*
D03*
X1965000D02*
D03*
X2060000D02*
D03*
Y1079840D02*
D03*
X1870000D02*
D03*
D18*
X1090000Y921820D02*
D03*
Y786820D02*
D03*
X1670000Y425001D02*
D03*
Y560001D02*
D03*
X2676016Y2209440D02*
D03*
Y2074440D02*
D03*
X1513222Y2283840D02*
D03*
Y2148840D02*
D03*
D19*
X1929880Y198120D02*
D03*
X1794880D02*
D03*
X1672540Y820000D02*
D03*
X1537540D02*
D03*
X1504880Y1079840D02*
D03*
X1639880D02*
D03*
X2070000Y2125980D02*
D03*
X1935000D02*
D03*
X3170120Y2550000D02*
D03*
X3305120D02*
D03*
D20*
X4478120Y2169560D02*
D03*
X3281780D02*
D03*
X3078580Y627460D02*
D03*
X4280000Y2169560D02*
D03*
X4079340D02*
D03*
X3881220D02*
D03*
X3678020D02*
D03*
X3479900D02*
D03*
X3081120D02*
D03*
X3279240Y627460D02*
D03*
X3477360D02*
D03*
X3678020Y630000D02*
D03*
X3878680D02*
D03*
X4076800D02*
D03*
X4280000D02*
D03*
X4478120D02*
D03*
D21*
X2882840Y1900160D02*
D03*
Y1702040D02*
D03*
Y1503920D02*
D03*
Y1300720D02*
D03*
Y1102600D02*
D03*
Y899400D02*
D03*
%TF.MD5,bb4e6333f7f83a15105e283988abe9c9*%
M02*
