%TF.GenerationSoftware,Altium Limited,Altium Designer,20.1.8 (145)*%
G04 Layer_Color=10066329*
%FSLAX45Y45*%
%MOMM*%
%TF.SameCoordinates,2300FDCC-ED38-457A-842E-A9769F27D6F2*%
%TF.FilePolarity,Negative*%
%TF.FileFunction,Soldermask,Bot*%
%TF.Part,Single*%
G01*
G75*
%TA.AperFunction,WasherPad*%
%ADD25C,2.00000*%
%TA.AperFunction,ComponentPad*%
%ADD30C,1.62400*%
G04:AMPARAMS|DCode=31|XSize=1.624mm|YSize=1.624mm|CornerRadius=0.2405mm|HoleSize=0mm|Usage=FLASHONLY|Rotation=180.000|XOffset=0mm|YOffset=0mm|HoleType=Round|Shape=RoundedRectangle|*
%AMROUNDEDRECTD31*
21,1,1.62400,1.14300,0,0,180.0*
21,1,1.14300,1.62400,0,0,180.0*
1,1,0.48100,-0.57150,0.57150*
1,1,0.48100,0.57150,0.57150*
1,1,0.48100,0.57150,-0.57150*
1,1,0.48100,-0.57150,-0.57150*
%
%ADD31ROUNDEDRECTD31*%
D25*
X250000Y2550000D02*
D03*
X4450000Y250000D02*
D03*
Y2550000D02*
D03*
D30*
X3170000Y130000D02*
D03*
X3424000Y130000D02*
D03*
X3678000Y130000D02*
D03*
Y384000D02*
D03*
X3424000Y384000D02*
D03*
X3170000Y384000D02*
D03*
X1246000Y130000D02*
D03*
X992000D02*
D03*
X738000D02*
D03*
X484000D02*
D03*
X230000D02*
D03*
Y384000D02*
D03*
X484000D02*
D03*
X738000D02*
D03*
X992000D02*
D03*
X1246000D02*
D03*
X2350000Y223520D02*
D03*
X2442000Y2550000D02*
D03*
X2696000D02*
D03*
X2950000D02*
D03*
D31*
X2604000Y223520D02*
D03*
X2188000Y2550000D02*
D03*
%TF.MD5,d16c566bcdd280b64550de8ef1853dbe*%
M02*
