%TF.GenerationSoftware,Altium Limited,Altium Designer,20.1.8 (145)*%
G04 Layer_Physical_Order=4*
G04 Layer_Color=16728128*
%FSLAX45Y45*%
%MOMM*%
%TF.SameCoordinates,2300FDCC-ED38-457A-842E-A9769F27D6F2*%
%TF.FilePolarity,Positive*%
%TF.FileFunction,Copper,L4,Bot,Signal*%
%TF.Part,Single*%
G01*
G75*
%TA.AperFunction,Conductor*%
%ADD23C,0.12700*%
%TA.AperFunction,WasherPad*%
%ADD25C,2.00000*%
%TA.AperFunction,ComponentPad*%
%ADD26C,1.52400*%
G04:AMPARAMS|DCode=27|XSize=1.524mm|YSize=1.524mm|CornerRadius=0.1905mm|HoleSize=0mm|Usage=FLASHONLY|Rotation=180.000|XOffset=0mm|YOffset=0mm|HoleType=Round|Shape=RoundedRectangle|*
%AMROUNDEDRECTD27*
21,1,1.52400,1.14300,0,0,180.0*
21,1,1.14300,1.52400,0,0,180.0*
1,1,0.38100,-0.57150,0.57150*
1,1,0.38100,0.57150,0.57150*
1,1,0.38100,0.57150,-0.57150*
1,1,0.38100,-0.57150,-0.57150*
%
%ADD27ROUNDEDRECTD27*%
%TA.AperFunction,ViaPad*%
%ADD28C,0.50000*%
%TA.AperFunction,Conductor*%
%ADD29C,0.15240*%
G36*
X4700000Y0D02*
X0D01*
Y2800000D01*
X4700000Y2800000D01*
Y0D01*
D02*
G37*
%LPC*%
G36*
X2245150Y2642112D02*
X2195620D01*
Y2557620D01*
X2280112D01*
Y2607150D01*
X2277450Y2620529D01*
X2269872Y2631872D01*
X2258529Y2639450D01*
X2245150Y2642112D01*
D02*
G37*
G36*
X2180380D02*
X2130850D01*
X2117470Y2639450D01*
X2106128Y2631872D01*
X2098549Y2620529D01*
X2095888Y2607150D01*
Y2557620D01*
X2180380D01*
Y2642112D01*
D02*
G37*
G36*
X2280112Y2542380D02*
X2195620D01*
Y2457888D01*
X2245150D01*
X2258529Y2460550D01*
X2269872Y2468128D01*
X2277450Y2479471D01*
X2280112Y2492850D01*
Y2542380D01*
D02*
G37*
G36*
X2180380D02*
X2095888D01*
Y2492850D01*
X2098549Y2479471D01*
X2106128Y2468128D01*
X2117470Y2460550D01*
X2130850Y2457888D01*
X2180380D01*
Y2542380D01*
D02*
G37*
G36*
X2950000Y2642229D02*
X2926129Y2639086D01*
X2903885Y2629873D01*
X2884784Y2615216D01*
X2870127Y2596114D01*
X2860914Y2573871D01*
X2857771Y2550000D01*
X2860914Y2526129D01*
X2870127Y2503886D01*
X2884784Y2484784D01*
X2903885Y2470127D01*
X2926129Y2460914D01*
X2950000Y2457771D01*
X2973870Y2460914D01*
X2996114Y2470127D01*
X3015215Y2484784D01*
X3029872Y2503886D01*
X3039086Y2526129D01*
X3042229Y2550000D01*
X3039086Y2573871D01*
X3029872Y2596114D01*
X3015215Y2615216D01*
X2996114Y2629873D01*
X2973870Y2639086D01*
X2950000Y2642229D01*
D02*
G37*
G36*
X2696000D02*
X2672129Y2639086D01*
X2649885Y2629873D01*
X2630784Y2615216D01*
X2616127Y2596114D01*
X2606914Y2573871D01*
X2603771Y2550000D01*
X2606914Y2526129D01*
X2616127Y2503886D01*
X2630784Y2484784D01*
X2649885Y2470127D01*
X2672129Y2460914D01*
X2696000Y2457771D01*
X2719870Y2460914D01*
X2742114Y2470127D01*
X2761215Y2484784D01*
X2775872Y2503886D01*
X2785086Y2526129D01*
X2788229Y2550000D01*
X2785086Y2573871D01*
X2775872Y2596114D01*
X2761215Y2615216D01*
X2742114Y2629873D01*
X2719870Y2639086D01*
X2696000Y2642229D01*
D02*
G37*
G36*
X2442000D02*
X2418129Y2639086D01*
X2395885Y2629873D01*
X2376784Y2615216D01*
X2362127Y2596114D01*
X2352914Y2573871D01*
X2349771Y2550000D01*
X2352914Y2526129D01*
X2362127Y2503886D01*
X2376784Y2484784D01*
X2395885Y2470127D01*
X2418129Y2460914D01*
X2442000Y2457771D01*
X2465870Y2460914D01*
X2488114Y2470127D01*
X2507215Y2484784D01*
X2521872Y2503886D01*
X2531086Y2526129D01*
X2534229Y2550000D01*
X2531086Y2573871D01*
X2521872Y2596114D01*
X2507215Y2615216D01*
X2488114Y2629873D01*
X2465870Y2639086D01*
X2442000Y2642229D01*
D02*
G37*
G36*
X4450000Y2716040D02*
X4417607Y2712849D01*
X4386459Y2703400D01*
X4357753Y2688057D01*
X4332592Y2667408D01*
X4311943Y2642247D01*
X4296599Y2613541D01*
X4287151Y2582393D01*
X4283960Y2550000D01*
X4287151Y2517607D01*
X4296599Y2486459D01*
X4311943Y2457753D01*
X4332592Y2432592D01*
X4357753Y2411943D01*
X4386459Y2396599D01*
X4417607Y2387151D01*
X4450000Y2383960D01*
X4482393Y2387151D01*
X4513541Y2396599D01*
X4542247Y2411943D01*
X4567408Y2432592D01*
X4588057Y2457753D01*
X4603400Y2486459D01*
X4612849Y2517607D01*
X4616040Y2550000D01*
X4612849Y2582393D01*
X4603400Y2613541D01*
X4588057Y2642247D01*
X4567408Y2667408D01*
X4542247Y2688057D01*
X4513541Y2703400D01*
X4482393Y2712849D01*
X4450000Y2716040D01*
D02*
G37*
G36*
X250000D02*
X217607Y2712849D01*
X186459Y2703400D01*
X157753Y2688057D01*
X132592Y2667408D01*
X111943Y2642247D01*
X96600Y2613541D01*
X87151Y2582393D01*
X83960Y2550000D01*
X87151Y2517607D01*
X96600Y2486459D01*
X111943Y2457753D01*
X132592Y2432592D01*
X157753Y2411943D01*
X186459Y2396599D01*
X217607Y2387151D01*
X250000Y2383960D01*
X282393Y2387151D01*
X313541Y2396599D01*
X342247Y2411943D01*
X367408Y2432592D01*
X388057Y2457753D01*
X403401Y2486459D01*
X412849Y2517607D01*
X416040Y2550000D01*
X412849Y2582393D01*
X403401Y2613541D01*
X388057Y2642247D01*
X367408Y2667408D01*
X342247Y2688057D01*
X313541Y2703400D01*
X282393Y2712849D01*
X250000Y2716040D01*
D02*
G37*
G36*
X2524200Y1988519D02*
X2508499Y1985396D01*
X2495189Y1976502D01*
X2486295Y1963191D01*
X2483172Y1947491D01*
X2486295Y1931790D01*
X2495189Y1918479D01*
X2502187Y1913803D01*
Y1810967D01*
X2495189Y1806291D01*
X2486295Y1792981D01*
X2483172Y1777280D01*
X2486295Y1761579D01*
X2495189Y1748269D01*
X2508499Y1739375D01*
X2524200Y1736252D01*
X2539901Y1739375D01*
X2553211Y1748269D01*
X2562105Y1761579D01*
X2565228Y1777280D01*
X2562105Y1792981D01*
X2553211Y1806291D01*
X2546213Y1810967D01*
Y1913803D01*
X2553211Y1918479D01*
X2562105Y1931790D01*
X2565228Y1947491D01*
X2562105Y1963191D01*
X2553211Y1976502D01*
X2539901Y1985396D01*
X2524200Y1988519D01*
D02*
G37*
G36*
X1836524Y1510954D02*
X1820823Y1507831D01*
X1807512Y1498937D01*
X1802836Y1491939D01*
X1521211D01*
X1514184Y1490541D01*
X1512786Y1490263D01*
X1505645Y1485491D01*
X1433324Y1413170D01*
X1425068Y1414812D01*
X1409368Y1411689D01*
X1396057Y1402795D01*
X1387163Y1389484D01*
X1384040Y1373783D01*
X1387163Y1358083D01*
X1396057Y1344772D01*
X1409368Y1335878D01*
X1425068Y1332755D01*
X1440769Y1335878D01*
X1454080Y1344772D01*
X1462973Y1358083D01*
X1466097Y1373783D01*
X1464455Y1382039D01*
X1530329Y1447913D01*
X1802836D01*
X1807512Y1440914D01*
X1820823Y1432021D01*
X1836524Y1428897D01*
X1852224Y1432021D01*
X1865535Y1440914D01*
X1874429Y1454225D01*
X1877552Y1469926D01*
X1874429Y1485626D01*
X1865535Y1498937D01*
X1852224Y1507831D01*
X1836524Y1510954D01*
D02*
G37*
G36*
X2640216Y1533109D02*
X2624515Y1529986D01*
X2611204Y1521092D01*
X2602311Y1507781D01*
X2599187Y1492081D01*
X2602311Y1476380D01*
X2611204Y1463069D01*
X2618203Y1458393D01*
Y1368611D01*
X2611204Y1363935D01*
X2602311Y1350625D01*
X2599187Y1334924D01*
X2602311Y1319223D01*
X2611204Y1305913D01*
X2624515Y1297019D01*
X2640216Y1293896D01*
X2655916Y1297019D01*
X2669227Y1305913D01*
X2678121Y1319223D01*
X2681244Y1334924D01*
X2678121Y1350625D01*
X2669227Y1363935D01*
X2662229Y1368611D01*
Y1458393D01*
X2669227Y1463069D01*
X2678121Y1476380D01*
X2681244Y1492081D01*
X2678121Y1507781D01*
X2669227Y1521092D01*
X2655916Y1529986D01*
X2640216Y1533109D01*
D02*
G37*
G36*
X2035467Y1314873D02*
X673898D01*
X666871Y1313475D01*
X665474Y1313197D01*
X658332Y1308425D01*
X355755Y1005848D01*
X347500Y1007490D01*
X331799Y1004367D01*
X318489Y995473D01*
X309595Y982163D01*
X306472Y966462D01*
X309595Y950761D01*
X318489Y937451D01*
X331799Y928557D01*
X347500Y925434D01*
X363201Y928557D01*
X376511Y937451D01*
X385405Y950761D01*
X388528Y966462D01*
X386886Y974718D01*
X683016Y1270847D01*
X2026349D01*
X2142067Y1155128D01*
Y843528D01*
X2135069Y838852D01*
X2126175Y825541D01*
X2123052Y809840D01*
X2126175Y794140D01*
X2135069Y780829D01*
X2148379Y771935D01*
X2164080Y768812D01*
X2179781Y771935D01*
X2193091Y780829D01*
X2201985Y794140D01*
X2205108Y809840D01*
X2201985Y825541D01*
X2193091Y838852D01*
X2186093Y843528D01*
Y1164247D01*
X2184417Y1172671D01*
X2179646Y1179812D01*
X2051032Y1308425D01*
X2043891Y1313197D01*
X2035467Y1314873D01*
D02*
G37*
G36*
X4379320Y501287D02*
X4363619Y498164D01*
X4350309Y489270D01*
X4345633Y482272D01*
X4312560D01*
X4304136Y480596D01*
X4296994Y475825D01*
X4100538Y279368D01*
X3534355D01*
X3525931Y277693D01*
X3518790Y272921D01*
X3459951Y214082D01*
X3447871Y219086D01*
X3424000Y222229D01*
X3400129Y219086D01*
X3377886Y209873D01*
X3358784Y195216D01*
X3344127Y176115D01*
X3334914Y153871D01*
X3331771Y130000D01*
X3334914Y106130D01*
X3344127Y83886D01*
X3358784Y64784D01*
X3377886Y50128D01*
X3400129Y40914D01*
X3424000Y37771D01*
X3447871Y40914D01*
X3470114Y50128D01*
X3489216Y64784D01*
X3503873Y83886D01*
X3513086Y106130D01*
X3516229Y130000D01*
X3513086Y153871D01*
X3503873Y176115D01*
X3495351Y187220D01*
X3543473Y235342D01*
X4109656D01*
X4118080Y237018D01*
X4125221Y241790D01*
X4321678Y438246D01*
X4345632D01*
X4350309Y431248D01*
X4363619Y422354D01*
X4379320Y419231D01*
X4395021Y422354D01*
X4408332Y431248D01*
X4417225Y444558D01*
X4420349Y460259D01*
X4417225Y475960D01*
X4408332Y489270D01*
X4395021Y498164D01*
X4379320Y501287D01*
D02*
G37*
G36*
X745620Y475226D02*
Y391620D01*
X829225D01*
X827086Y407871D01*
X817872Y430114D01*
X803216Y449216D01*
X784114Y463873D01*
X761870Y473086D01*
X745620Y475226D01*
D02*
G37*
G36*
X730380D02*
X714129Y473086D01*
X691885Y463873D01*
X672784Y449216D01*
X658127Y430114D01*
X648914Y407871D01*
X646774Y391620D01*
X730380D01*
Y475226D01*
D02*
G37*
G36*
X3431620Y475225D02*
Y391620D01*
X3515226D01*
X3513086Y407870D01*
X3503873Y430114D01*
X3489216Y449216D01*
X3470114Y463872D01*
X3447871Y473086D01*
X3431620Y475225D01*
D02*
G37*
G36*
X3416380D02*
X3400129Y473086D01*
X3377886Y463872D01*
X3358784Y449216D01*
X3344127Y430114D01*
X3334914Y407870D01*
X3332774Y391620D01*
X3416380D01*
Y475225D01*
D02*
G37*
G36*
X829225Y376380D02*
X745620D01*
Y292774D01*
X761870Y294914D01*
X784114Y304127D01*
X803216Y318784D01*
X817872Y337886D01*
X827086Y360129D01*
X829225Y376380D01*
D02*
G37*
G36*
X730380D02*
X646774D01*
X648914Y360129D01*
X658127Y337886D01*
X672784Y318784D01*
X691885Y304127D01*
X714129Y294914D01*
X730380Y292774D01*
Y376380D01*
D02*
G37*
G36*
X3515226Y376380D02*
X3431620D01*
Y292774D01*
X3447871Y294914D01*
X3470114Y304127D01*
X3489216Y318784D01*
X3503873Y337885D01*
X3513086Y360129D01*
X3515226Y376380D01*
D02*
G37*
G36*
X3416380D02*
X3332774D01*
X3334914Y360129D01*
X3344127Y337885D01*
X3358784Y318784D01*
X3377886Y304127D01*
X3400129Y294914D01*
X3416380Y292774D01*
Y376380D01*
D02*
G37*
G36*
X3678000Y476229D02*
X3654129Y473086D01*
X3631886Y463873D01*
X3612784Y449216D01*
X3598127Y430114D01*
X3588914Y407871D01*
X3585771Y384000D01*
X3588914Y360129D01*
X3598127Y337886D01*
X3612784Y318784D01*
X3631886Y304127D01*
X3654129Y294914D01*
X3678000Y291771D01*
X3701871Y294914D01*
X3724114Y304127D01*
X3743216Y318784D01*
X3757873Y337886D01*
X3767086Y360129D01*
X3770229Y384000D01*
X3767086Y407871D01*
X3757873Y430114D01*
X3743216Y449216D01*
X3724114Y463873D01*
X3701871Y473086D01*
X3678000Y476229D01*
D02*
G37*
G36*
X1246000D02*
X1222129Y473086D01*
X1199885Y463873D01*
X1180784Y449216D01*
X1166127Y430114D01*
X1156914Y407871D01*
X1153771Y384000D01*
X1156914Y360129D01*
X1166127Y337886D01*
X1180784Y318784D01*
X1199885Y304127D01*
X1222129Y294914D01*
X1246000Y291771D01*
X1269870Y294914D01*
X1292114Y304127D01*
X1311216Y318784D01*
X1325872Y337886D01*
X1335086Y360129D01*
X1338229Y384000D01*
X1335086Y407871D01*
X1325872Y430114D01*
X1311216Y449216D01*
X1292114Y463873D01*
X1269870Y473086D01*
X1246000Y476229D01*
D02*
G37*
G36*
X484000D02*
X460129Y473086D01*
X437885Y463873D01*
X418784Y449216D01*
X404127Y430114D01*
X394914Y407871D01*
X391771Y384000D01*
X394914Y360129D01*
X404127Y337886D01*
X418784Y318784D01*
X437885Y304127D01*
X460129Y294914D01*
X484000Y291771D01*
X507870Y294914D01*
X530114Y304127D01*
X549216Y318784D01*
X563872Y337886D01*
X573086Y360129D01*
X576229Y384000D01*
X573086Y407871D01*
X563872Y430114D01*
X549216Y449216D01*
X530114Y463873D01*
X507870Y473086D01*
X484000Y476229D01*
D02*
G37*
G36*
X230000D02*
X206129Y473086D01*
X183885Y463873D01*
X164784Y449216D01*
X150127Y430114D01*
X140914Y407871D01*
X137771Y384000D01*
X140914Y360129D01*
X150127Y337886D01*
X164784Y318784D01*
X183885Y304127D01*
X206129Y294914D01*
X230000Y291771D01*
X253870Y294914D01*
X276114Y304127D01*
X295216Y318784D01*
X309872Y337886D01*
X319086Y360129D01*
X322229Y384000D01*
X319086Y407871D01*
X309872Y430114D01*
X295216Y449216D01*
X276114Y463873D01*
X253870Y473086D01*
X230000Y476229D01*
D02*
G37*
G36*
X3295243Y947808D02*
X3279542Y944685D01*
X3266232Y935791D01*
X3257338Y922481D01*
X3254215Y906780D01*
X3257338Y891079D01*
X3266232Y877769D01*
X3273230Y873092D01*
Y281361D01*
X3205951Y214082D01*
X3193871Y219086D01*
X3170000Y222229D01*
X3146129Y219086D01*
X3123886Y209873D01*
X3104784Y195216D01*
X3090127Y176114D01*
X3080914Y153871D01*
X3077771Y130000D01*
X3080914Y106129D01*
X3090127Y83886D01*
X3104784Y64784D01*
X3123886Y50127D01*
X3146129Y40914D01*
X3170000Y37771D01*
X3193871Y40914D01*
X3216114Y50127D01*
X3235216Y64784D01*
X3249873Y83886D01*
X3259086Y106129D01*
X3262229Y130000D01*
X3259086Y153871D01*
X3249873Y176114D01*
X3241351Y187220D01*
X3310809Y256678D01*
X3315580Y263819D01*
X3317256Y272243D01*
Y873092D01*
X3324254Y877769D01*
X3333148Y891079D01*
X3336271Y906780D01*
X3333148Y922481D01*
X3324254Y935791D01*
X3310944Y944685D01*
X3295243Y947808D01*
D02*
G37*
G36*
X491620Y221226D02*
Y137620D01*
X575225D01*
X573086Y153871D01*
X563872Y176114D01*
X549216Y195216D01*
X530114Y209873D01*
X507870Y219086D01*
X491620Y221226D01*
D02*
G37*
G36*
X476380D02*
X460129Y219086D01*
X437885Y209873D01*
X418784Y195216D01*
X404127Y176114D01*
X394914Y153871D01*
X392774Y137620D01*
X476380D01*
Y221226D01*
D02*
G37*
G36*
X2661150Y315632D02*
X2546850D01*
X2533471Y312970D01*
X2522128Y305392D01*
X2514549Y294049D01*
X2511888Y280670D01*
Y166370D01*
X2514549Y152991D01*
X2522128Y141648D01*
X2533471Y134070D01*
X2546850Y131408D01*
X2661150D01*
X2674529Y134070D01*
X2685872Y141648D01*
X2693450Y152991D01*
X2696112Y166370D01*
Y280670D01*
X2693450Y294049D01*
X2685872Y305392D01*
X2674529Y312970D01*
X2661150Y315632D01*
D02*
G37*
G36*
X2350000Y315749D02*
X2326129Y312606D01*
X2303885Y303393D01*
X2284784Y288736D01*
X2270127Y269634D01*
X2260914Y247391D01*
X2257771Y223520D01*
X2260914Y199649D01*
X2270127Y177406D01*
X2284784Y158304D01*
X2303885Y143647D01*
X2326129Y134434D01*
X2350000Y131291D01*
X2373871Y134434D01*
X2396114Y143647D01*
X2415216Y158304D01*
X2429872Y177406D01*
X2439086Y199649D01*
X2442229Y223520D01*
X2439086Y247391D01*
X2429872Y269634D01*
X2415216Y288736D01*
X2396114Y303393D01*
X2373871Y312606D01*
X2350000Y315749D01*
D02*
G37*
G36*
X3170000Y476229D02*
X3146129Y473086D01*
X3123886Y463873D01*
X3104784Y449216D01*
X3090127Y430114D01*
X3080914Y407871D01*
X3077771Y384000D01*
X3080914Y360129D01*
X3090127Y337886D01*
X3090473Y337435D01*
X2850222Y97184D01*
X1576618D01*
X1400321Y273481D01*
X1392759Y278534D01*
X1383840Y280308D01*
X1015308D01*
Y294840D01*
X1015870Y294914D01*
X1038114Y304127D01*
X1057216Y318784D01*
X1071872Y337886D01*
X1081086Y360129D01*
X1084229Y384000D01*
X1081086Y407871D01*
X1071872Y430114D01*
X1057216Y449216D01*
X1038114Y463873D01*
X1015870Y473086D01*
X992000Y476229D01*
X968129Y473086D01*
X945885Y463873D01*
X926784Y449216D01*
X912127Y430114D01*
X902914Y407871D01*
X899771Y384000D01*
X902914Y360129D01*
X912127Y337886D01*
X926784Y318784D01*
X945885Y304127D01*
X968129Y294914D01*
X968692Y294840D01*
Y257000D01*
Y219160D01*
X968129Y219086D01*
X945885Y209873D01*
X926784Y195216D01*
X912127Y176114D01*
X902914Y153871D01*
X899771Y130000D01*
X902914Y106129D01*
X912127Y83886D01*
X926784Y64784D01*
X945885Y50127D01*
X968129Y40914D01*
X992000Y37771D01*
X1015870Y40914D01*
X1038114Y50127D01*
X1057216Y64784D01*
X1071872Y83886D01*
X1081086Y106129D01*
X1084229Y130000D01*
X1081086Y153871D01*
X1071872Y176114D01*
X1057216Y195216D01*
X1038114Y209873D01*
X1015870Y219086D01*
X1015308Y219160D01*
Y233692D01*
X1374186D01*
X1550483Y57395D01*
X1558045Y52342D01*
X1566964Y50568D01*
X2859876D01*
X2868795Y52342D01*
X2876357Y57395D01*
X3123435Y304473D01*
X3123886Y304127D01*
X3146129Y294914D01*
X3170000Y291771D01*
X3193871Y294914D01*
X3216114Y304127D01*
X3235216Y318784D01*
X3249873Y337886D01*
X3259086Y360129D01*
X3262229Y384000D01*
X3259086Y407871D01*
X3249873Y430114D01*
X3235216Y449216D01*
X3216114Y463873D01*
X3193871Y473086D01*
X3170000Y476229D01*
D02*
G37*
G36*
X4450000Y416040D02*
X4417607Y412849D01*
X4386459Y403401D01*
X4357753Y388057D01*
X4332592Y367408D01*
X4311943Y342247D01*
X4296599Y313541D01*
X4287151Y282393D01*
X4283960Y250000D01*
X4287151Y217607D01*
X4296599Y186459D01*
X4311943Y157753D01*
X4332592Y132592D01*
X4357753Y111943D01*
X4386459Y96600D01*
X4417607Y87151D01*
X4450000Y83960D01*
X4482393Y87151D01*
X4513541Y96600D01*
X4542247Y111943D01*
X4567408Y132592D01*
X4588057Y157753D01*
X4603400Y186459D01*
X4612849Y217607D01*
X4616040Y250000D01*
X4612849Y282393D01*
X4603400Y313541D01*
X4588057Y342247D01*
X4567408Y367408D01*
X4542247Y388057D01*
X4513541Y403401D01*
X4482393Y412849D01*
X4450000Y416040D01*
D02*
G37*
G36*
X575225Y122380D02*
X491620D01*
Y38774D01*
X507870Y40914D01*
X530114Y50127D01*
X549216Y64784D01*
X563872Y83886D01*
X573086Y106129D01*
X575225Y122380D01*
D02*
G37*
G36*
X476380D02*
X392774D01*
X394914Y106129D01*
X404127Y83886D01*
X418784Y64784D01*
X437885Y50127D01*
X460129Y40914D01*
X476380Y38774D01*
Y122380D01*
D02*
G37*
G36*
X3678000Y222229D02*
X3654129Y219086D01*
X3631886Y209873D01*
X3612784Y195216D01*
X3598127Y176114D01*
X3588914Y153871D01*
X3585771Y130000D01*
X3588914Y106129D01*
X3598127Y83886D01*
X3612784Y64784D01*
X3631886Y50127D01*
X3654129Y40914D01*
X3678000Y37771D01*
X3701871Y40914D01*
X3724114Y50127D01*
X3743216Y64784D01*
X3757873Y83886D01*
X3767086Y106129D01*
X3770229Y130000D01*
X3767086Y153871D01*
X3757873Y176114D01*
X3743216Y195216D01*
X3724114Y209873D01*
X3701871Y219086D01*
X3678000Y222229D01*
D02*
G37*
G36*
X1246000D02*
X1222129Y219086D01*
X1199885Y209873D01*
X1180784Y195216D01*
X1166127Y176114D01*
X1156914Y153871D01*
X1153771Y130000D01*
X1156914Y106129D01*
X1166127Y83886D01*
X1180784Y64784D01*
X1199885Y50127D01*
X1222129Y40914D01*
X1246000Y37771D01*
X1269870Y40914D01*
X1292114Y50127D01*
X1311216Y64784D01*
X1325872Y83886D01*
X1335086Y106129D01*
X1338229Y130000D01*
X1335086Y153871D01*
X1325872Y176114D01*
X1311216Y195216D01*
X1292114Y209873D01*
X1269870Y219086D01*
X1246000Y222229D01*
D02*
G37*
G36*
X536945Y1007490D02*
X521245Y1004367D01*
X507934Y995473D01*
X499040Y982163D01*
X495917Y966462D01*
X499040Y950761D01*
X507934Y937451D01*
X521245Y928557D01*
X536945Y925434D01*
X545201Y927076D01*
X588458Y883818D01*
Y257529D01*
X590134Y249105D01*
X594906Y241964D01*
X659268Y177601D01*
X658127Y176114D01*
X648914Y153871D01*
X645771Y130000D01*
X648914Y106129D01*
X658127Y83886D01*
X672784Y64784D01*
X691885Y50127D01*
X714129Y40914D01*
X738000Y37771D01*
X761870Y40914D01*
X784114Y50127D01*
X803216Y64784D01*
X817872Y83886D01*
X827086Y106129D01*
X830229Y130000D01*
X827086Y153871D01*
X817872Y176114D01*
X803216Y195216D01*
X784114Y209873D01*
X761870Y219086D01*
X738000Y222229D01*
X714129Y219086D01*
X691885Y209873D01*
X690399Y208732D01*
X632484Y266647D01*
Y892936D01*
X630808Y901360D01*
X626037Y908502D01*
X576332Y958207D01*
X577974Y966462D01*
X574851Y982163D01*
X565957Y995473D01*
X552646Y1004367D01*
X536945Y1007490D01*
D02*
G37*
G36*
X230000Y222229D02*
X206129Y219086D01*
X183885Y209873D01*
X164784Y195216D01*
X150127Y176114D01*
X140914Y153871D01*
X137771Y130000D01*
X140914Y106129D01*
X150127Y83886D01*
X164784Y64784D01*
X183885Y50127D01*
X206129Y40914D01*
X230000Y37771D01*
X253870Y40914D01*
X276114Y50127D01*
X295216Y64784D01*
X309872Y83886D01*
X319086Y106129D01*
X322229Y130000D01*
X319086Y153871D01*
X309872Y176114D01*
X295216Y195216D01*
X276114Y209873D01*
X253870Y219086D01*
X230000Y222229D01*
D02*
G37*
%LPD*%
D23*
X1521211Y1469926D02*
X1836524D01*
X1425068Y1373783D02*
X1521211Y1469926D01*
X673898Y1292860D02*
X2035467D01*
X2164080Y809840D02*
Y1164247D01*
X2035467Y1292860D02*
X2164080Y1164247D01*
X610471Y257529D02*
Y892936D01*
X738000Y130000D02*
Y130001D01*
X610471Y257529D02*
X738000Y130001D01*
X3420000Y143000D02*
X3534355Y257355D01*
X4109656D02*
X4312560Y460259D01*
X3534355Y257355D02*
X4109656D01*
X4312560Y460259D02*
X4379320D01*
X4379320Y460259D01*
X536945Y966462D02*
X610471Y892936D01*
X3295243Y272243D02*
Y906780D01*
X3166000Y143000D02*
X3295243Y272243D01*
X347500Y966462D02*
X673898Y1292860D01*
X2524200Y1777280D02*
Y1947491D01*
X2640216Y1334924D02*
Y1492081D01*
D25*
X250000Y2550000D02*
D03*
X4450000Y250000D02*
D03*
Y2550000D02*
D03*
D26*
X3170000Y130000D02*
D03*
X3424000Y130000D02*
D03*
X3678000Y130000D02*
D03*
Y384000D02*
D03*
X3424000Y384000D02*
D03*
X3170000Y384000D02*
D03*
X1246000Y130000D02*
D03*
X992000D02*
D03*
X738000D02*
D03*
X484000D02*
D03*
X230000D02*
D03*
Y384000D02*
D03*
X484000D02*
D03*
X738000D02*
D03*
X992000D02*
D03*
X1246000D02*
D03*
X2350000Y223520D02*
D03*
X2442000Y2550000D02*
D03*
X2696000D02*
D03*
X2950000D02*
D03*
D27*
X2604000Y223520D02*
D03*
X2188000Y2550000D02*
D03*
D28*
X3305120Y2459360D02*
D03*
X3393440Y2550000D02*
D03*
X3305120Y2636520D02*
D03*
X1965000Y914400D02*
D03*
X2027220D02*
D03*
X1425068Y1373783D02*
D03*
X1900480Y914400D02*
D03*
X1913180Y713740D02*
D03*
X1975160D02*
D03*
X2037380D02*
D03*
X4379320Y460259D02*
D03*
X1456857Y1595000D02*
D03*
X1345000Y1529080D02*
D03*
X1234440Y1595000D02*
D03*
X2179102Y1384978D02*
D03*
X2764436Y2074440D02*
D03*
X2506604Y2217020D02*
D03*
X3295243Y906780D02*
D03*
X2295516Y467780D02*
D03*
Y342900D02*
D03*
Y405800D02*
D03*
X2453640Y342900D02*
D03*
X2374000D02*
D03*
X2453640Y467780D02*
D03*
X2106546Y560001D02*
D03*
Y482540D02*
D03*
Y637093D02*
D03*
X1982780Y637540D02*
D03*
Y482540D02*
D03*
Y560001D02*
D03*
X737500Y928362D02*
D03*
X2265581Y1469756D02*
D03*
X737500Y706120D02*
D03*
X1597660Y2283840D02*
D03*
X1430020D02*
D03*
X2070000Y2042160D02*
D03*
X2156460Y2125980D02*
D03*
X2676016Y1982400D02*
D03*
X2589850Y2073904D02*
D03*
X3078580Y469900D02*
D03*
X2981960Y629040D02*
D03*
X3078580Y787400D02*
D03*
X1506220Y1168400D02*
D03*
Y993140D02*
D03*
X1414780Y1079500D02*
D03*
X1447800Y820420D02*
D03*
X1536700Y906780D02*
D03*
Y731520D02*
D03*
X1090000Y1008380D02*
D03*
X1173480Y921820D02*
D03*
X1005840D02*
D03*
X212060Y1023620D02*
D03*
X1704574Y226508D02*
D03*
X1794092Y286820D02*
D03*
X1705482Y167144D02*
D03*
X2453640Y405800D02*
D03*
X2374000Y467780D02*
D03*
X1670000Y330001D02*
D03*
X1582420Y425001D02*
D03*
X1757680D02*
D03*
X2045000Y482540D02*
D03*
Y637540D02*
D03*
X1836524Y1469926D02*
D03*
X2524200Y1947491D02*
D03*
X2640216Y1334924D02*
D03*
Y1492081D02*
D03*
X663710Y1794125D02*
D03*
X731433Y1727939D02*
D03*
X795020Y1656080D02*
D03*
X2524200Y1777280D02*
D03*
X2164080Y809840D02*
D03*
X347500Y966462D02*
D03*
X536945D02*
D03*
D29*
X992000Y257000D02*
Y384000D01*
Y130000D02*
Y257000D01*
X1383840D01*
X1566964Y73876D01*
X2859876D02*
X3170000Y384000D01*
X1566964Y73876D02*
X2859876D01*
%TF.MD5,ca0a6b3c0fb72c35d925c852f37b087f*%
M02*
