%TF.GenerationSoftware,Altium Limited,Altium Designer,20.1.8 (145)*%
G04 Layer_Color=39423*
%FSLAX45Y45*%
%MOMM*%
%TF.SameCoordinates,A8D28DC8-49F5-44E5-8DCE-E7A12525CE2F*%
%TF.FilePolarity,Negative*%
%TF.FileFunction,Soldermask,Top*%
%TF.Part,Single*%
G01*
G75*
%TA.AperFunction,ViaPad*%
%ADD34C,3.00000*%
%TA.AperFunction,ComponentPad*%
%ADD38C,1.57600*%
G04:AMPARAMS|DCode=39|XSize=1.576mm|YSize=1.526mm|CornerRadius=0.21925mm|HoleSize=0mm|Usage=FLASHONLY|Rotation=0.000|XOffset=0mm|YOffset=0mm|HoleType=Round|Shape=RoundedRectangle|*
%AMROUNDEDRECTD39*
21,1,1.57600,1.08750,0,0,0.0*
21,1,1.13750,1.52600,0,0,0.0*
1,1,0.43850,0.56875,-0.54375*
1,1,0.43850,-0.56875,-0.54375*
1,1,0.43850,-0.56875,0.54375*
1,1,0.43850,0.56875,0.54375*
%
%ADD39ROUNDEDRECTD39*%
%ADD40O,1.57600X1.52600*%
%ADD41C,1.60000*%
G04:AMPARAMS|DCode=42|XSize=1.6mm|YSize=1.6mm|CornerRadius=0.2285mm|HoleSize=0mm|Usage=FLASHONLY|Rotation=180.000|XOffset=0mm|YOffset=0mm|HoleType=Round|Shape=RoundedRectangle|*
%AMROUNDEDRECTD42*
21,1,1.60000,1.14300,0,0,180.0*
21,1,1.14300,1.60000,0,0,180.0*
1,1,0.45700,-0.57150,0.57150*
1,1,0.45700,0.57150,0.57150*
1,1,0.45700,0.57150,-0.57150*
1,1,0.45700,-0.57150,-0.57150*
%
%ADD42ROUNDEDRECTD42*%
%TA.AperFunction,ConnectorPad*%
G04:AMPARAMS|DCode=49|XSize=1.176mm|YSize=2.376mm|CornerRadius=0.0435mm|HoleSize=0mm|Usage=FLASHONLY|Rotation=270.000|XOffset=0mm|YOffset=0mm|HoleType=Round|Shape=RoundedRectangle|*
%AMROUNDEDRECTD49*
21,1,1.17600,2.28900,0,0,270.0*
21,1,1.08900,2.37600,0,0,270.0*
1,1,0.08700,-1.14450,-0.54450*
1,1,0.08700,-1.14450,0.54450*
1,1,0.08700,1.14450,0.54450*
1,1,0.08700,1.14450,-0.54450*
%
%ADD49ROUNDEDRECTD49*%
G04:AMPARAMS|DCode=50|XSize=1.176mm|YSize=2.376mm|CornerRadius=0.0435mm|HoleSize=0mm|Usage=FLASHONLY|Rotation=0.000|XOffset=0mm|YOffset=0mm|HoleType=Round|Shape=RoundedRectangle|*
%AMROUNDEDRECTD50*
21,1,1.17600,2.28900,0,0,0.0*
21,1,1.08900,2.37600,0,0,0.0*
1,1,0.08700,0.54450,-1.14450*
1,1,0.08700,-0.54450,-1.14450*
1,1,0.08700,-0.54450,1.14450*
1,1,0.08700,0.54450,1.14450*
%
%ADD50ROUNDEDRECTD50*%
%TA.AperFunction,SMDPad,CuDef*%
G04:AMPARAMS|DCode=51|XSize=0.926mm|YSize=0.926mm|CornerRadius=0.0805mm|HoleSize=0mm|Usage=FLASHONLY|Rotation=90.000|XOffset=0mm|YOffset=0mm|HoleType=Round|Shape=RoundedRectangle|*
%AMROUNDEDRECTD51*
21,1,0.92600,0.76500,0,0,90.0*
21,1,0.76500,0.92600,0,0,90.0*
1,1,0.16100,0.38250,0.38250*
1,1,0.16100,0.38250,-0.38250*
1,1,0.16100,-0.38250,-0.38250*
1,1,0.16100,-0.38250,0.38250*
%
%ADD51ROUNDEDRECTD51*%
%ADD52O,0.52600X1.47600*%
%ADD53O,1.47600X0.52600*%
G04:AMPARAMS|DCode=54|XSize=0.926mm|YSize=0.926mm|CornerRadius=0.0805mm|HoleSize=0mm|Usage=FLASHONLY|Rotation=0.000|XOffset=0mm|YOffset=0mm|HoleType=Round|Shape=RoundedRectangle|*
%AMROUNDEDRECTD54*
21,1,0.92600,0.76500,0,0,0.0*
21,1,0.76500,0.92600,0,0,0.0*
1,1,0.16100,0.38250,-0.38250*
1,1,0.16100,-0.38250,-0.38250*
1,1,0.16100,-0.38250,0.38250*
1,1,0.16100,0.38250,0.38250*
%
%ADD54ROUNDEDRECTD54*%
%ADD55C,1.07600*%
%ADD56C,0.57600*%
G04:AMPARAMS|DCode=57|XSize=0.626mm|YSize=0.976mm|CornerRadius=0.0655mm|HoleSize=0mm|Usage=FLASHONLY|Rotation=0.000|XOffset=0mm|YOffset=0mm|HoleType=Round|Shape=RoundedRectangle|*
%AMROUNDEDRECTD57*
21,1,0.62600,0.84500,0,0,0.0*
21,1,0.49500,0.97600,0,0,0.0*
1,1,0.13100,0.24750,-0.42250*
1,1,0.13100,-0.24750,-0.42250*
1,1,0.13100,-0.24750,0.42250*
1,1,0.13100,0.24750,0.42250*
%
%ADD57ROUNDEDRECTD57*%
G04:AMPARAMS|DCode=58|XSize=0.926mm|YSize=0.976mm|CornerRadius=0.0805mm|HoleSize=0mm|Usage=FLASHONLY|Rotation=90.000|XOffset=0mm|YOffset=0mm|HoleType=Round|Shape=RoundedRectangle|*
%AMROUNDEDRECTD58*
21,1,0.92600,0.81500,0,0,90.0*
21,1,0.76500,0.97600,0,0,90.0*
1,1,0.16100,0.40750,0.38250*
1,1,0.16100,0.40750,-0.38250*
1,1,0.16100,-0.40750,-0.38250*
1,1,0.16100,-0.40750,0.38250*
%
%ADD58ROUNDEDRECTD58*%
G04:AMPARAMS|DCode=59|XSize=0.926mm|YSize=0.976mm|CornerRadius=0.0805mm|HoleSize=0mm|Usage=FLASHONLY|Rotation=180.000|XOffset=0mm|YOffset=0mm|HoleType=Round|Shape=RoundedRectangle|*
%AMROUNDEDRECTD59*
21,1,0.92600,0.81500,0,0,180.0*
21,1,0.76500,0.97600,0,0,180.0*
1,1,0.16100,-0.38250,0.40750*
1,1,0.16100,0.38250,0.40750*
1,1,0.16100,0.38250,-0.40750*
1,1,0.16100,-0.38250,-0.40750*
%
%ADD59ROUNDEDRECTD59*%
G04:AMPARAMS|DCode=60|XSize=2.176mm|YSize=1.076mm|CornerRadius=0.088mm|HoleSize=0mm|Usage=FLASHONLY|Rotation=180.000|XOffset=0mm|YOffset=0mm|HoleType=Round|Shape=RoundedRectangle|*
%AMROUNDEDRECTD60*
21,1,2.17600,0.90000,0,0,180.0*
21,1,2.00000,1.07600,0,0,180.0*
1,1,0.17600,-1.00000,0.45000*
1,1,0.17600,1.00000,0.45000*
1,1,0.17600,1.00000,-0.45000*
1,1,0.17600,-1.00000,-0.45000*
%
%ADD60ROUNDEDRECTD60*%
G04:AMPARAMS|DCode=61|XSize=0.676mm|YSize=1.126mm|CornerRadius=0.068mm|HoleSize=0mm|Usage=FLASHONLY|Rotation=180.000|XOffset=0mm|YOffset=0mm|HoleType=Round|Shape=RoundedRectangle|*
%AMROUNDEDRECTD61*
21,1,0.67600,0.99000,0,0,180.0*
21,1,0.54000,1.12600,0,0,180.0*
1,1,0.13600,-0.27000,0.49500*
1,1,0.13600,0.27000,0.49500*
1,1,0.13600,0.27000,-0.49500*
1,1,0.13600,-0.27000,-0.49500*
%
%ADD61ROUNDEDRECTD61*%
G04:AMPARAMS|DCode=62|XSize=0.326mm|YSize=0.626mm|CornerRadius=0.0505mm|HoleSize=0mm|Usage=FLASHONLY|Rotation=0.000|XOffset=0mm|YOffset=0mm|HoleType=Round|Shape=RoundedRectangle|*
%AMROUNDEDRECTD62*
21,1,0.32600,0.52500,0,0,0.0*
21,1,0.22500,0.62600,0,0,0.0*
1,1,0.10100,0.11250,-0.26250*
1,1,0.10100,-0.11250,-0.26250*
1,1,0.10100,-0.11250,0.26250*
1,1,0.10100,0.11250,0.26250*
%
%ADD62ROUNDEDRECTD62*%
D34*
X200000Y2600000D02*
D03*
X5400000D02*
D03*
X2700000Y1700000D02*
D03*
X5400000Y800000D02*
D03*
D38*
X190500Y2222500D02*
D03*
X2245360Y2095500D02*
D03*
X190500Y1968500D02*
D03*
X1714500Y2603500D02*
D03*
X1968500D02*
D03*
D39*
X2600960Y995680D02*
D03*
X1398399Y247460D02*
D03*
D40*
X2854960Y995680D02*
D03*
X3108960Y995680D02*
D03*
Y1249680D02*
D03*
X2854960Y1249680D02*
D03*
X2600960Y1249680D02*
D03*
X1144399Y247460D02*
D03*
X890399D02*
D03*
X636399D02*
D03*
X382399D02*
D03*
Y501460D02*
D03*
X636399D02*
D03*
X890399D02*
D03*
X1144399D02*
D03*
X1398399D02*
D03*
D41*
X2397760Y223520D02*
D03*
X3209700Y2500000D02*
D03*
X2955700D02*
D03*
X2701700D02*
D03*
D42*
X2651760Y223520D02*
D03*
X2447700Y2500000D02*
D03*
D49*
X3491456Y878629D02*
D03*
Y1076749D02*
D03*
Y1279949D02*
D03*
Y1478069D02*
D03*
Y1678729D02*
D03*
X3488916Y1879389D02*
D03*
Y2077509D02*
D03*
X5031016Y2275629D02*
D03*
Y1876849D02*
D03*
Y1678729D02*
D03*
Y1475529D02*
D03*
Y1277409D02*
D03*
Y1076749D02*
D03*
X3488916Y2278169D02*
D03*
X5031016Y2074969D02*
D03*
Y878629D02*
D03*
D50*
X3760856Y2473909D02*
D03*
X3964056D02*
D03*
X4162176D02*
D03*
X4365376D02*
D03*
X4563496D02*
D03*
X4761616D02*
D03*
D51*
X5066260Y2529840D02*
D03*
X4936260D02*
D03*
X5066260Y2661920D02*
D03*
X4936260D02*
D03*
X3120249Y1576572D02*
D03*
X3250249D02*
D03*
X354328Y1211072D02*
D03*
X224328D02*
D03*
X224327Y1340717D02*
D03*
X354327D02*
D03*
X339328Y723900D02*
D03*
X209328D02*
D03*
X1790178Y2146738D02*
D03*
X1660178D02*
D03*
X5376709Y1069270D02*
D03*
X5246709D02*
D03*
X5376709Y1277409D02*
D03*
X5246709D02*
D03*
X2133769Y2410478D02*
D03*
X2003769D02*
D03*
X3166659Y1835805D02*
D03*
X3036659D02*
D03*
D52*
X1191580Y1453300D02*
D03*
X1126580D02*
D03*
X1061580D02*
D03*
X996580D02*
D03*
X931580D02*
D03*
X866580D02*
D03*
X801580D02*
D03*
X736580D02*
D03*
X671580D02*
D03*
X606580D02*
D03*
X1191580Y868300D02*
D03*
X1126580D02*
D03*
X1061580D02*
D03*
X996580D02*
D03*
X931580D02*
D03*
X866580D02*
D03*
X801580D02*
D03*
X736580D02*
D03*
X671580D02*
D03*
X606580D02*
D03*
D53*
X1522800Y1985000D02*
D03*
Y1920000D02*
D03*
Y1855000D02*
D03*
Y1790000D02*
D03*
Y1725000D02*
D03*
Y1660000D02*
D03*
Y1595000D02*
D03*
X2112800Y1985000D02*
D03*
Y1920000D02*
D03*
Y1855000D02*
D03*
Y1790000D02*
D03*
Y1725000D02*
D03*
Y1660000D02*
D03*
Y1595000D02*
D03*
D54*
X1328760Y967500D02*
D03*
Y837500D02*
D03*
X2397761Y437860D02*
D03*
Y567860D02*
D03*
X1328760Y1236575D02*
D03*
Y1106575D02*
D03*
X671580Y1856872D02*
D03*
Y1726872D02*
D03*
X1460500Y967500D02*
D03*
Y837500D02*
D03*
X447040Y1064260D02*
D03*
Y934260D02*
D03*
X2357120Y1549400D02*
D03*
Y1419400D02*
D03*
D55*
X1839892Y109220D02*
D03*
X1747378Y612654D02*
D03*
X1966775Y1445980D02*
D03*
D56*
X1267745Y1699189D02*
D03*
X1322076Y1878524D02*
D03*
X1292090Y1790000D02*
D03*
X1299430Y1610546D02*
D03*
X2412753Y1790124D02*
D03*
X468508Y1320468D02*
D03*
X2326393Y1959925D02*
D03*
X336308Y1094934D02*
D03*
X2369573Y1875593D02*
D03*
X2453393Y1704771D02*
D03*
X1897768Y2410478D02*
D03*
X2241495D02*
D03*
X671580Y1619665D02*
D03*
X561340Y1856872D02*
D03*
D57*
X2651760Y388340D02*
D03*
X2556760Y618340D02*
D03*
X2746760D02*
D03*
X2127800Y350321D02*
D03*
X2032800Y580321D02*
D03*
X2222800D02*
D03*
D58*
X1189360Y677553D02*
D03*
X1054360D02*
D03*
X2107680Y218440D02*
D03*
X1972680D02*
D03*
X1906220Y819841D02*
D03*
X1771220D02*
D03*
X1906220Y1079840D02*
D03*
X1771220D02*
D03*
X3100260Y2303780D02*
D03*
X2965260D02*
D03*
D59*
X1898600Y580321D02*
D03*
Y445321D02*
D03*
X5246709Y2299264D02*
D03*
Y2164264D02*
D03*
X2134370Y1478280D02*
D03*
Y1343280D02*
D03*
X1502480Y1478280D02*
D03*
Y1343280D02*
D03*
D60*
X1420000Y2175000D02*
D03*
X580000D02*
D03*
X1420000Y2625000D02*
D03*
X580000D02*
D03*
D61*
X2047800Y809840D02*
D03*
X2142800D02*
D03*
X2237800D02*
D03*
Y1079840D02*
D03*
X2047800D02*
D03*
D62*
X298928Y997584D02*
D03*
X248928D02*
D03*
X198928D02*
D03*
Y852584D02*
D03*
X248928D02*
D03*
X298928D02*
D03*
%TF.MD5,3b96fd4d7600cabdadafc900c53e5e76*%
M02*
