%TF.GenerationSoftware,Altium Limited,Altium Designer,20.1.8 (145)*%
G04 Layer_Physical_Order=4*
G04 Layer_Color=16728128*
%FSLAX45Y45*%
%MOMM*%
%TF.SameCoordinates,A8D28DC8-49F5-44E5-8DCE-E7A12525CE2F*%
%TF.FilePolarity,Positive*%
%TF.FileFunction,Copper,L4,Bot,Signal*%
%TF.Part,Single*%
G01*
G75*
%TA.AperFunction,Conductor*%
%ADD24C,0.12700*%
%TA.AperFunction,ComponentPad*%
%ADD29C,1.50000*%
G04:AMPARAMS|DCode=30|XSize=1.5mm|YSize=1.45mm|CornerRadius=0.18125mm|HoleSize=0mm|Usage=FLASHONLY|Rotation=0.000|XOffset=0mm|YOffset=0mm|HoleType=Round|Shape=RoundedRectangle|*
%AMROUNDEDRECTD30*
21,1,1.50000,1.08750,0,0,0.0*
21,1,1.13750,1.45000,0,0,0.0*
1,1,0.36250,0.56875,-0.54375*
1,1,0.36250,-0.56875,-0.54375*
1,1,0.36250,-0.56875,0.54375*
1,1,0.36250,0.56875,0.54375*
%
%ADD30ROUNDEDRECTD30*%
%ADD31O,1.50000X1.45000*%
%ADD32C,1.52400*%
G04:AMPARAMS|DCode=33|XSize=1.524mm|YSize=1.524mm|CornerRadius=0.1905mm|HoleSize=0mm|Usage=FLASHONLY|Rotation=180.000|XOffset=0mm|YOffset=0mm|HoleType=Round|Shape=RoundedRectangle|*
%AMROUNDEDRECTD33*
21,1,1.52400,1.14300,0,0,180.0*
21,1,1.14300,1.52400,0,0,180.0*
1,1,0.38100,-0.57150,0.57150*
1,1,0.38100,0.57150,0.57150*
1,1,0.38100,0.57150,-0.57150*
1,1,0.38100,-0.57150,-0.57150*
%
%ADD33ROUNDEDRECTD33*%
%TA.AperFunction,ViaPad*%
%ADD34C,3.00000*%
%ADD35C,0.50000*%
G36*
X5400001Y2781824D02*
X5435473Y2778330D01*
X5469582Y2767984D01*
X5501017Y2751181D01*
X5528570Y2728569D01*
X5551183Y2701016D01*
X5567985Y2669581D01*
X5578332Y2635472D01*
X5581826Y2600000D01*
X5581872D01*
Y800000D01*
X5581826D01*
X5578332Y764528D01*
X5567985Y730419D01*
X5551182Y698983D01*
X5528570Y671430D01*
X5501017Y648818D01*
X5469582Y632015D01*
X5435472Y621669D01*
X5400000Y618175D01*
Y618129D01*
X3000000Y618129D01*
Y618797D01*
X2969253Y614749D01*
X2940602Y602881D01*
X2915998Y584002D01*
X2897119Y559398D01*
X2885252Y530747D01*
X2881204Y500001D01*
X2881872D01*
Y18128D01*
X200000D01*
Y18174D01*
X164528Y21668D01*
X130418Y32015D01*
X98983Y48818D01*
X71430Y71430D01*
X48818Y98983D01*
X32015Y130418D01*
X21668Y164528D01*
X18174Y200000D01*
X18128D01*
X18128Y2599999D01*
X18174D01*
X21668Y2635471D01*
X32015Y2669580D01*
X48818Y2701015D01*
X71430Y2728569D01*
X98983Y2751181D01*
X130418Y2767984D01*
X164528Y2778330D01*
X200000Y2781824D01*
Y2781870D01*
X5400000D01*
X5400001Y2781824D01*
D02*
G37*
%LPC*%
G36*
X2504850Y2589522D02*
X2454050D01*
Y2506350D01*
X2537222D01*
Y2557150D01*
X2534758Y2569538D01*
X2527740Y2580040D01*
X2517238Y2587058D01*
X2504850Y2589522D01*
D02*
G37*
G36*
X2441350D02*
X2390550D01*
X2378162Y2587058D01*
X2367659Y2580040D01*
X2360642Y2569538D01*
X2358178Y2557150D01*
Y2506350D01*
X2441350D01*
Y2589522D01*
D02*
G37*
G36*
X2537222Y2493650D02*
X2454050D01*
Y2410478D01*
X2504850D01*
X2517238Y2412942D01*
X2527740Y2419959D01*
X2534758Y2430461D01*
X2537222Y2442850D01*
Y2493650D01*
D02*
G37*
G36*
X2441350D02*
X2358178D01*
Y2442850D01*
X2360642Y2430461D01*
X2367659Y2419959D01*
X2378162Y2412942D01*
X2390550Y2410478D01*
X2441350D01*
Y2493650D01*
D02*
G37*
G36*
X3209700Y2589667D02*
X3186492Y2586612D01*
X3164866Y2577654D01*
X3146296Y2563404D01*
X3132046Y2544833D01*
X3123088Y2523207D01*
X3120033Y2500000D01*
X3123088Y2476792D01*
X3132046Y2455166D01*
X3146296Y2436596D01*
X3164866Y2422346D01*
X3186492Y2413388D01*
X3209700Y2410333D01*
X3232907Y2413388D01*
X3254533Y2422346D01*
X3273104Y2436596D01*
X3287354Y2455166D01*
X3296312Y2476792D01*
X3299367Y2500000D01*
X3296312Y2523207D01*
X3287354Y2544833D01*
X3273104Y2563404D01*
X3254533Y2577654D01*
X3232907Y2586612D01*
X3209700Y2589667D01*
D02*
G37*
G36*
X2955700D02*
X2932492Y2586612D01*
X2910866Y2577654D01*
X2892296Y2563404D01*
X2878046Y2544833D01*
X2869088Y2523207D01*
X2866033Y2500000D01*
X2869088Y2476792D01*
X2878046Y2455166D01*
X2892296Y2436596D01*
X2910866Y2422346D01*
X2932492Y2413388D01*
X2955700Y2410333D01*
X2978907Y2413388D01*
X3000533Y2422346D01*
X3019104Y2436596D01*
X3033354Y2455166D01*
X3042312Y2476792D01*
X3045367Y2500000D01*
X3042312Y2523207D01*
X3033354Y2544833D01*
X3019104Y2563404D01*
X3000533Y2577654D01*
X2978907Y2586612D01*
X2955700Y2589667D01*
D02*
G37*
G36*
X2701700D02*
X2678492Y2586612D01*
X2656866Y2577654D01*
X2638296Y2563404D01*
X2624046Y2544833D01*
X2615088Y2523207D01*
X2612033Y2500000D01*
X2615088Y2476792D01*
X2624046Y2455166D01*
X2638296Y2436596D01*
X2656866Y2422346D01*
X2678492Y2413388D01*
X2701700Y2410333D01*
X2724907Y2413388D01*
X2746533Y2422346D01*
X2765104Y2436596D01*
X2779354Y2455166D01*
X2788312Y2476792D01*
X2791367Y2500000D01*
X2788312Y2523207D01*
X2779354Y2544833D01*
X2765104Y2563404D01*
X2746533Y2577654D01*
X2724907Y2586612D01*
X2701700Y2589667D01*
D02*
G37*
G36*
X3402935Y2454738D02*
X3388225Y2451812D01*
X3375754Y2443479D01*
X3367422Y2431009D01*
X3364496Y2416299D01*
X3366316Y2407149D01*
X3335710Y2376543D01*
X3278483D01*
X3273300Y2384300D01*
X3260830Y2392633D01*
X3246120Y2395559D01*
X3231410Y2392633D01*
X3218940Y2384300D01*
X3210607Y2371830D01*
X3207681Y2357120D01*
X3210607Y2342410D01*
X3218940Y2329940D01*
X3231410Y2321607D01*
X3246120Y2318681D01*
X3260830Y2321607D01*
X3273300Y2329940D01*
X3278483Y2337697D01*
X3343755D01*
X3351188Y2339175D01*
X3357490Y2343386D01*
X3393785Y2379681D01*
X3402935Y2377861D01*
X3417644Y2380787D01*
X3430115Y2389119D01*
X3438447Y2401589D01*
X3441373Y2416299D01*
X3438447Y2431009D01*
X3430115Y2443479D01*
X3417644Y2451812D01*
X3402935Y2454738D01*
D02*
G37*
G36*
X1126580Y1929425D02*
X1111870Y1926499D01*
X1099400Y1918167D01*
X1091067Y1905696D01*
X1088141Y1890986D01*
X1091067Y1876276D01*
X1099400Y1863806D01*
X1107157Y1858623D01*
Y1655646D01*
X1099400Y1650463D01*
X1091067Y1637993D01*
X1088141Y1623283D01*
X1091067Y1608573D01*
X1099400Y1596102D01*
X1111870Y1587770D01*
X1126580Y1584844D01*
X1141290Y1587770D01*
X1153760Y1596102D01*
X1162092Y1608573D01*
X1165018Y1623283D01*
X1162092Y1637993D01*
X1153760Y1650463D01*
X1146003Y1655646D01*
Y1858623D01*
X1153760Y1863806D01*
X1162092Y1876276D01*
X1165018Y1890986D01*
X1162092Y1905696D01*
X1153760Y1918167D01*
X1141290Y1926499D01*
X1126580Y1929425D01*
D02*
G37*
G36*
X1978380Y1336078D02*
X1963670Y1333152D01*
X1951199Y1324820D01*
X1946016Y1317062D01*
X1723364D01*
X1718181Y1324820D01*
X1705711Y1333152D01*
X1691001Y1336078D01*
X1676291Y1333152D01*
X1663820Y1324820D01*
X1655488Y1312349D01*
X1652562Y1297639D01*
X1655488Y1282929D01*
X1663820Y1270459D01*
X1676291Y1262127D01*
X1691001Y1259201D01*
X1705711Y1262127D01*
X1718181Y1270459D01*
X1723364Y1278216D01*
X1946016D01*
X1951199Y1270459D01*
X1963670Y1262127D01*
X1978380Y1259201D01*
X1993089Y1262127D01*
X2005560Y1270459D01*
X2013892Y1282929D01*
X2016818Y1297639D01*
X2013892Y1312349D01*
X2005560Y1324820D01*
X1993089Y1333152D01*
X1978380Y1336078D01*
D02*
G37*
G36*
X2861310Y1335108D02*
Y1256030D01*
X2942559D01*
X2940467Y1271921D01*
X2931882Y1292647D01*
X2918225Y1310445D01*
X2900428Y1324102D01*
X2879701Y1332687D01*
X2861310Y1335108D01*
D02*
G37*
G36*
X2848610D02*
X2830219Y1332687D01*
X2809492Y1324102D01*
X2791695Y1310445D01*
X2778038Y1292647D01*
X2769453Y1271921D01*
X2767361Y1256030D01*
X2848610D01*
Y1335108D01*
D02*
G37*
G36*
X2942559Y1243330D02*
X2861310D01*
Y1164252D01*
X2879701Y1166673D01*
X2900428Y1175258D01*
X2918225Y1188915D01*
X2931882Y1206712D01*
X2940467Y1227438D01*
X2942559Y1243330D01*
D02*
G37*
G36*
X2848610D02*
X2767361D01*
X2769453Y1227438D01*
X2778038Y1206712D01*
X2791695Y1188915D01*
X2809492Y1175258D01*
X2830219Y1166673D01*
X2848610Y1164252D01*
Y1243330D01*
D02*
G37*
G36*
X3111460Y1335615D02*
X3106460D01*
X3084219Y1332687D01*
X3063492Y1324102D01*
X3045695Y1310445D01*
X3032038Y1292648D01*
X3023453Y1271922D01*
X3020525Y1249680D01*
X3023453Y1227438D01*
X3032038Y1206712D01*
X3045695Y1188915D01*
X3063492Y1175258D01*
X3084219Y1166673D01*
X3106460Y1163745D01*
X3111460D01*
X3133701Y1166673D01*
X3154428Y1175258D01*
X3172225Y1188915D01*
X3185882Y1206712D01*
X3194467Y1227438D01*
X3197395Y1249680D01*
X3194467Y1271922D01*
X3185882Y1292648D01*
X3172225Y1310445D01*
X3154428Y1324102D01*
X3133701Y1332687D01*
X3111460Y1335615D01*
D02*
G37*
G36*
X2603460D02*
X2598460D01*
X2576219Y1332687D01*
X2555492Y1324102D01*
X2537695Y1310445D01*
X2524038Y1292648D01*
X2515453Y1271922D01*
X2512525Y1249680D01*
X2515453Y1227438D01*
X2524038Y1206712D01*
X2537695Y1188915D01*
X2555492Y1175258D01*
X2576219Y1166673D01*
X2598460Y1163745D01*
X2603460D01*
X2625701Y1166673D01*
X2646428Y1175258D01*
X2664225Y1188915D01*
X2677882Y1206712D01*
X2686467Y1227438D01*
X2689395Y1249680D01*
X2686467Y1271922D01*
X2677882Y1292648D01*
X2664225Y1310445D01*
X2646428Y1324102D01*
X2625701Y1332687D01*
X2603460Y1335615D01*
D02*
G37*
G36*
X999865Y1090159D02*
X985155Y1087233D01*
X972685Y1078901D01*
X964352Y1066430D01*
X961426Y1051721D01*
X963246Y1042571D01*
X917305Y996629D01*
X913095Y990328D01*
X911616Y982895D01*
Y760043D01*
X903859Y754860D01*
X895527Y742389D01*
X892601Y727680D01*
X895527Y712970D01*
X903859Y700499D01*
X916329Y692167D01*
X931039Y689241D01*
X945749Y692167D01*
X958220Y700499D01*
X966552Y712970D01*
X969478Y727680D01*
X966552Y742389D01*
X958220Y754860D01*
X950462Y760043D01*
Y974849D01*
X990715Y1015102D01*
X999865Y1013282D01*
X1014575Y1016208D01*
X1027045Y1024540D01*
X1035377Y1037011D01*
X1038303Y1051721D01*
X1035377Y1066430D01*
X1027045Y1078901D01*
X1014575Y1087233D01*
X999865Y1090159D01*
D02*
G37*
G36*
X2657835Y1081484D02*
X2544085D01*
X2532058Y1079092D01*
X2521861Y1072279D01*
X2515049Y1062082D01*
X2512656Y1050055D01*
Y941305D01*
X2515049Y929278D01*
X2521861Y919081D01*
X2532058Y912268D01*
X2544085Y909876D01*
X2657835D01*
X2669862Y912268D01*
X2680059Y919081D01*
X2686871Y929278D01*
X2689264Y941305D01*
Y1050055D01*
X2686871Y1062082D01*
X2680059Y1072279D01*
X2669862Y1079092D01*
X2657835Y1081484D01*
D02*
G37*
G36*
X2857460Y1081615D02*
X2852460D01*
X2830219Y1078687D01*
X2809492Y1070102D01*
X2791695Y1056445D01*
X2778038Y1038648D01*
X2769453Y1017922D01*
X2766525Y995680D01*
X2769453Y973439D01*
X2778038Y952713D01*
X2791695Y934915D01*
X2809492Y921258D01*
X2830219Y912673D01*
X2852460Y909745D01*
X2857460D01*
X2879701Y912673D01*
X2900428Y921258D01*
X2918225Y934915D01*
X2931882Y952713D01*
X2940467Y973439D01*
X2943395Y995680D01*
X2940467Y1017922D01*
X2931882Y1038648D01*
X2918225Y1056445D01*
X2900428Y1070102D01*
X2879701Y1078687D01*
X2857460Y1081615D01*
D02*
G37*
G36*
X3111460Y1081615D02*
X3106460D01*
X3084219Y1078687D01*
X3063492Y1070102D01*
X3045695Y1056445D01*
X3032038Y1038648D01*
X3023453Y1017922D01*
X3020525Y995680D01*
X3023453Y973438D01*
X3032038Y952712D01*
X3045695Y934915D01*
X3063492Y921258D01*
X3084219Y912673D01*
X3106460Y909745D01*
X3111460D01*
X3133701Y912673D01*
X3154428Y921258D01*
X3172225Y934915D01*
X3185882Y952712D01*
X3194467Y973438D01*
X3197395Y995680D01*
X3194467Y1017922D01*
X3185882Y1038648D01*
X3172225Y1056445D01*
X3154428Y1070102D01*
X3133701Y1078687D01*
X3111460Y1081615D01*
D02*
G37*
G36*
X642749Y586888D02*
Y507810D01*
X723998D01*
X721906Y523702D01*
X713321Y544428D01*
X699664Y562225D01*
X681867Y575882D01*
X661141Y584467D01*
X642749Y586888D01*
D02*
G37*
G36*
X630049D02*
X611658Y584467D01*
X590932Y575882D01*
X573134Y562225D01*
X559477Y544428D01*
X550892Y523702D01*
X548800Y507810D01*
X630049D01*
Y586888D01*
D02*
G37*
G36*
X1610360Y734399D02*
X1595650Y731473D01*
X1583180Y723140D01*
X1574847Y710670D01*
X1571921Y695960D01*
X1574847Y681250D01*
X1583180Y668780D01*
X1590937Y663597D01*
Y564614D01*
X1583180Y559430D01*
X1574847Y546960D01*
X1571921Y532250D01*
X1574847Y517540D01*
X1583180Y505070D01*
X1595650Y496738D01*
X1610360Y493812D01*
X1625070Y496738D01*
X1637540Y505070D01*
X1645873Y517540D01*
X1648799Y532250D01*
X1645873Y546960D01*
X1637540Y559430D01*
X1629783Y564614D01*
Y663597D01*
X1637540Y668780D01*
X1645873Y681250D01*
X1648799Y695960D01*
X1645873Y710670D01*
X1637540Y723140D01*
X1625070Y731473D01*
X1610360Y734399D01*
D02*
G37*
G36*
X723998Y495110D02*
X642749D01*
Y416032D01*
X661141Y418453D01*
X681867Y427038D01*
X699664Y440695D01*
X713321Y458492D01*
X721906Y479218D01*
X723998Y495110D01*
D02*
G37*
G36*
X630049D02*
X548800D01*
X550892Y479218D01*
X559477Y458492D01*
X573134Y440695D01*
X590932Y427038D01*
X611658Y418453D01*
X630049Y416032D01*
Y495110D01*
D02*
G37*
G36*
X1400899Y587395D02*
X1395899D01*
X1373658Y584467D01*
X1352932Y575882D01*
X1335134Y562225D01*
X1321477Y544428D01*
X1312892Y523702D01*
X1309964Y501460D01*
X1312892Y479218D01*
X1321477Y458492D01*
X1335134Y440695D01*
X1352932Y427038D01*
X1373658Y418453D01*
X1395899Y415525D01*
X1400899D01*
X1423141Y418453D01*
X1443867Y427038D01*
X1461664Y440695D01*
X1475321Y458492D01*
X1483906Y479218D01*
X1486834Y501460D01*
X1483906Y523702D01*
X1475321Y544428D01*
X1461664Y562225D01*
X1443867Y575882D01*
X1423141Y584467D01*
X1400899Y587395D01*
D02*
G37*
G36*
X1146899D02*
X1141899D01*
X1119658Y584467D01*
X1098932Y575882D01*
X1081134Y562225D01*
X1067477Y544428D01*
X1058892Y523702D01*
X1055964Y501460D01*
X1058892Y479218D01*
X1067477Y458492D01*
X1081134Y440695D01*
X1098932Y427038D01*
X1119658Y418453D01*
X1141899Y415525D01*
X1146899D01*
X1169141Y418453D01*
X1189867Y427038D01*
X1207664Y440695D01*
X1221321Y458492D01*
X1229906Y479218D01*
X1232834Y501460D01*
X1229906Y523702D01*
X1221321Y544428D01*
X1207664Y562225D01*
X1189867Y575882D01*
X1169141Y584467D01*
X1146899Y587395D01*
D02*
G37*
G36*
X892899D02*
X887899D01*
X865658Y584467D01*
X844932Y575882D01*
X827134Y562225D01*
X813477Y544428D01*
X804892Y523702D01*
X801964Y501460D01*
X804892Y479218D01*
X813477Y458492D01*
X827134Y440695D01*
X844932Y427038D01*
X865658Y418453D01*
X887899Y415525D01*
X892899D01*
X915141Y418453D01*
X935867Y427038D01*
X953664Y440695D01*
X967321Y458492D01*
X975906Y479218D01*
X978834Y501460D01*
X975906Y523702D01*
X967321Y544428D01*
X953664Y562225D01*
X935867Y575882D01*
X915141Y584467D01*
X892899Y587395D01*
D02*
G37*
G36*
X384899D02*
X379899D01*
X357658Y584467D01*
X336932Y575882D01*
X319134Y562225D01*
X305477Y544428D01*
X296892Y523702D01*
X293964Y501460D01*
X296892Y479218D01*
X305477Y458492D01*
X319134Y440695D01*
X336932Y427038D01*
X357658Y418453D01*
X379899Y415525D01*
X384899D01*
X407141Y418453D01*
X427867Y427038D01*
X445664Y440695D01*
X459321Y458492D01*
X467906Y479218D01*
X470834Y501460D01*
X467906Y523702D01*
X459321Y544428D01*
X445664Y562225D01*
X427867Y575882D01*
X407141Y584467D01*
X384899Y587395D01*
D02*
G37*
G36*
X896749Y332888D02*
Y253810D01*
X977998D01*
X975906Y269702D01*
X967321Y290428D01*
X953664Y308225D01*
X935867Y321882D01*
X915141Y330467D01*
X896749Y332888D01*
D02*
G37*
G36*
X884049D02*
X865658Y330467D01*
X844932Y321882D01*
X827134Y308225D01*
X813477Y290428D01*
X804892Y269702D01*
X802800Y253810D01*
X884049D01*
Y332888D01*
D02*
G37*
G36*
X977998Y241110D02*
X896749D01*
Y162032D01*
X915141Y164453D01*
X935867Y173038D01*
X953664Y186695D01*
X967321Y204492D01*
X975906Y225218D01*
X977998Y241110D01*
D02*
G37*
G36*
X884049D02*
X802800D01*
X804892Y225218D01*
X813477Y204492D01*
X827134Y186695D01*
X844932Y173038D01*
X865658Y164453D01*
X884049Y162032D01*
Y241110D01*
D02*
G37*
G36*
X1455274Y333264D02*
X1341524D01*
X1329497Y330872D01*
X1319301Y324059D01*
X1312488Y313862D01*
X1310095Y301835D01*
Y193085D01*
X1312488Y181058D01*
X1319301Y170861D01*
X1329497Y164048D01*
X1341524Y161656D01*
X1455274D01*
X1467302Y164048D01*
X1477498Y170861D01*
X1484311Y181058D01*
X1486703Y193085D01*
Y301835D01*
X1484311Y313862D01*
X1477498Y324059D01*
X1467302Y330872D01*
X1455274Y333264D01*
D02*
G37*
G36*
X1146899Y333395D02*
X1141899D01*
X1119658Y330467D01*
X1098932Y321882D01*
X1081134Y308225D01*
X1067477Y290428D01*
X1058892Y269702D01*
X1055964Y247460D01*
X1058892Y225218D01*
X1067477Y204492D01*
X1081134Y186695D01*
X1098932Y173038D01*
X1119658Y164453D01*
X1141899Y161525D01*
X1146899D01*
X1169141Y164453D01*
X1189867Y173038D01*
X1207664Y186695D01*
X1221321Y204492D01*
X1229906Y225218D01*
X1232834Y247460D01*
X1229906Y269702D01*
X1221321Y290428D01*
X1207664Y308225D01*
X1189867Y321882D01*
X1169141Y330467D01*
X1146899Y333395D01*
D02*
G37*
G36*
X638899D02*
X633899D01*
X611658Y330467D01*
X590932Y321882D01*
X573134Y308225D01*
X559477Y290428D01*
X550892Y269702D01*
X547964Y247460D01*
X550892Y225218D01*
X559477Y204492D01*
X573134Y186695D01*
X590932Y173038D01*
X611658Y164453D01*
X633899Y161525D01*
X638899D01*
X661141Y164453D01*
X681867Y173038D01*
X699664Y186695D01*
X713321Y204492D01*
X721906Y225218D01*
X724834Y247460D01*
X721906Y269702D01*
X713321Y290428D01*
X699664Y308225D01*
X681867Y321882D01*
X661141Y330467D01*
X638899Y333395D01*
D02*
G37*
G36*
X384899D02*
X379899D01*
X357658Y330467D01*
X336932Y321882D01*
X319134Y308225D01*
X305477Y290428D01*
X296892Y269702D01*
X293964Y247460D01*
X296892Y225218D01*
X305477Y204492D01*
X319134Y186695D01*
X336932Y173038D01*
X357658Y164453D01*
X379899Y161525D01*
X384899D01*
X407141Y164453D01*
X427867Y173038D01*
X445664Y186695D01*
X459321Y204492D01*
X467906Y225218D01*
X470834Y247460D01*
X467906Y269702D01*
X459321Y290428D01*
X445664Y308225D01*
X427867Y321882D01*
X407141Y330467D01*
X384899Y333395D01*
D02*
G37*
G36*
X2708910Y313042D02*
X2594610D01*
X2582222Y310578D01*
X2571720Y303560D01*
X2564702Y293058D01*
X2562238Y280670D01*
Y166370D01*
X2564702Y153982D01*
X2571720Y143480D01*
X2582222Y136462D01*
X2594610Y133998D01*
X2708910D01*
X2721299Y136462D01*
X2731801Y143480D01*
X2738818Y153982D01*
X2741282Y166370D01*
Y280670D01*
X2738818Y293058D01*
X2731801Y303560D01*
X2721299Y310578D01*
X2708910Y313042D01*
D02*
G37*
G36*
X2397760Y313187D02*
X2374553Y310132D01*
X2352927Y301174D01*
X2334356Y286924D01*
X2320106Y268354D01*
X2311149Y246727D01*
X2308093Y223520D01*
X2311149Y200313D01*
X2320106Y178686D01*
X2334356Y160116D01*
X2352927Y145866D01*
X2374553Y136908D01*
X2397760Y133853D01*
X2420968Y136908D01*
X2442594Y145866D01*
X2461164Y160116D01*
X2475414Y178686D01*
X2484372Y200313D01*
X2487427Y223520D01*
X2484372Y246727D01*
X2475414Y268354D01*
X2461164Y286924D01*
X2442594Y301174D01*
X2420968Y310132D01*
X2397760Y313187D01*
D02*
G37*
%LPD*%
D24*
X1126580Y1623283D02*
Y1890986D01*
X931039Y982895D02*
X999865Y1051721D01*
X931039Y727680D02*
Y982895D01*
X3246120Y2357120D02*
X3343755D01*
X3402935Y2416299D01*
X1691001Y1297639D02*
X1978380D01*
X1610360Y532250D02*
Y695960D01*
D29*
X190500Y2222500D02*
D03*
X2245360Y2095500D02*
D03*
X190500Y1968500D02*
D03*
X1714500Y2603500D02*
D03*
X1968500D02*
D03*
D30*
X2600960Y995680D02*
D03*
X1398399Y247460D02*
D03*
D31*
X2854960Y995680D02*
D03*
X3108960Y995680D02*
D03*
Y1249680D02*
D03*
X2854960Y1249680D02*
D03*
X2600960Y1249680D02*
D03*
X1144399Y247460D02*
D03*
X890399D02*
D03*
X636399D02*
D03*
X382399D02*
D03*
Y501460D02*
D03*
X636399D02*
D03*
X890399D02*
D03*
X1144399D02*
D03*
X1398399D02*
D03*
D32*
X2397760Y223520D02*
D03*
X3209700Y2500000D02*
D03*
X2955700D02*
D03*
X2701700D02*
D03*
D33*
X2651760Y223520D02*
D03*
X2447700Y2500000D02*
D03*
D34*
X200000Y2600000D02*
D03*
X5400000D02*
D03*
X2700000Y1700000D02*
D03*
X5400000Y800000D02*
D03*
D35*
X3850425Y2750483D02*
D03*
X1078193Y1562115D02*
D03*
X1126580Y1623283D02*
D03*
X910929Y1613295D02*
D03*
X943297Y1770515D02*
D03*
X1223376Y1653525D02*
D03*
X1345515Y1654596D02*
D03*
X350726Y2328384D02*
D03*
X999865Y1051721D02*
D03*
X3655012Y2436924D02*
D03*
X3774515Y2311090D02*
D03*
X5306060Y1374140D02*
D03*
X5308600Y1176020D02*
D03*
X4848860Y1361440D02*
D03*
X4866640Y1785620D02*
D03*
X3402935Y2416299D02*
D03*
X3246120Y2357120D02*
D03*
X3643922Y2278169D02*
D03*
Y2222500D02*
D03*
X1126580Y1890986D02*
D03*
X3247701Y2226712D02*
D03*
X3127703Y2218590D02*
D03*
X2265734Y1835793D02*
D03*
X1449375Y605779D02*
D03*
X1345866Y605261D02*
D03*
X1443958Y705824D02*
D03*
X1199551Y758665D02*
D03*
X142240Y1340717D02*
D03*
X430393Y1270562D02*
D03*
X223520Y1424432D02*
D03*
X437008Y1384893D02*
D03*
X781327Y1348822D02*
D03*
X298928Y932180D02*
D03*
X2854960Y864245D02*
D03*
X2600960Y1124781D02*
D03*
X3091798Y2465792D02*
D03*
X2477837Y2243994D02*
D03*
X2744050Y2244737D02*
D03*
X2542113Y2147328D02*
D03*
X1833666Y1811831D02*
D03*
X1730928Y1835318D02*
D03*
X1833158Y1615898D02*
D03*
X5431371Y2048566D02*
D03*
X4871720Y1973580D02*
D03*
X5428829Y1721689D02*
D03*
X5313680Y1838960D02*
D03*
X5316443Y1588181D02*
D03*
X3614869Y668638D02*
D03*
X4774682Y670662D02*
D03*
X4524248Y771906D02*
D03*
X3918974Y772629D02*
D03*
X5246709Y2074969D02*
D03*
X1326669Y109710D02*
D03*
X1053960Y596369D02*
D03*
X1078039Y1933779D02*
D03*
X348049Y1693248D02*
D03*
X1368365Y1834474D02*
D03*
X877664Y1897491D02*
D03*
X1691001Y1297639D02*
D03*
X1735620Y1341689D02*
D03*
X738625Y1566689D02*
D03*
X3645623Y1708438D02*
D03*
X3351745Y776880D02*
D03*
X3058160Y776674D02*
D03*
X3234706Y1249680D02*
D03*
X2987999Y1060856D02*
D03*
X4222323Y657921D02*
D03*
X5547360Y1546860D02*
D03*
X2600902Y2334455D02*
D03*
X2321085Y2335281D02*
D03*
X1978380Y1297639D02*
D03*
X2078280Y713740D02*
D03*
X2142800D02*
D03*
X2205020D02*
D03*
Y906780D02*
D03*
X2142800D02*
D03*
X2078280D02*
D03*
X1735620Y1253589D02*
D03*
X1831340D02*
D03*
Y1341689D02*
D03*
X1933760Y1253589D02*
D03*
Y1341689D02*
D03*
X2335926Y2752158D02*
D03*
X845819Y1673793D02*
D03*
X109750Y1126383D02*
D03*
X1336145Y1745132D02*
D03*
X1414574Y1597810D02*
D03*
X624206Y1560833D02*
D03*
X1790178Y2065251D02*
D03*
X987042Y1561843D02*
D03*
X1544320Y55880D02*
D03*
X1763439Y54141D02*
D03*
X3147229Y1488103D02*
D03*
X2481665Y1362133D02*
D03*
X3336844Y1688254D02*
D03*
X3335524Y1978203D02*
D03*
X2556760Y538700D02*
D03*
X2618740D02*
D03*
Y618340D02*
D03*
Y696824D02*
D03*
X2556760D02*
D03*
X2493860Y618340D02*
D03*
Y538700D02*
D03*
Y696824D02*
D03*
X3636955Y1799018D02*
D03*
X3641611Y2107413D02*
D03*
X3635995Y1999165D02*
D03*
X3346598Y1797577D02*
D03*
X2214880Y1343280D02*
D03*
X3333702Y2075746D02*
D03*
X2328200Y1769829D02*
D03*
X3339580Y2200246D02*
D03*
X2877820Y2273300D02*
D03*
Y2334260D02*
D03*
X2964644Y2384456D02*
D03*
X3124700Y2755900D02*
D03*
X2389789Y1704119D02*
D03*
X209149Y2371705D02*
D03*
X5472444Y1075824D02*
D03*
X5407414Y984782D02*
D03*
X2884107Y599223D02*
D03*
X3147277Y650550D02*
D03*
X5139394Y652953D02*
D03*
X4620214Y2754064D02*
D03*
X229163Y45074D02*
D03*
X1011909Y1713392D02*
D03*
X1733453Y1492176D02*
D03*
X854030Y745342D02*
D03*
X612446Y760886D02*
D03*
X669430Y693279D02*
D03*
X757530Y692941D02*
D03*
X1053960Y760893D02*
D03*
X996580D02*
D03*
X1658693Y927359D02*
D03*
X1565513Y807765D02*
D03*
X1557010Y663021D02*
D03*
X1663710D02*
D03*
X1665433Y562221D02*
D03*
X1555287D02*
D03*
X1610360Y532250D02*
D03*
Y695960D02*
D03*
X2844183Y2147923D02*
D03*
X1420000Y2085340D02*
D03*
X410906Y1937105D02*
D03*
X101976Y722125D02*
D03*
X109355Y201352D02*
D03*
X714303Y110886D02*
D03*
X2820478Y79803D02*
D03*
Y281940D02*
D03*
X2515023D02*
D03*
X2250440D02*
D03*
Y90216D02*
D03*
X2034467Y45074D02*
D03*
X2515023Y79803D02*
D03*
X447040Y853440D02*
D03*
X237826Y1117890D02*
D03*
X349008Y997584D02*
D03*
X225774Y602274D02*
D03*
X691709Y1348607D02*
D03*
X799593Y976079D02*
D03*
X656481Y980263D02*
D03*
X1116517Y1341689D02*
D03*
X531563Y2348557D02*
D03*
X580000Y2085340D02*
D03*
X1414720Y1914285D02*
D03*
X2138202Y2244429D02*
D03*
X1408676Y1106575D02*
D03*
X3049868Y2150022D02*
D03*
X558800Y2738120D02*
D03*
X1409700Y2745740D02*
D03*
X2134370Y1259840D02*
D03*
X2052320Y1343280D02*
D03*
X3336146Y2277714D02*
D03*
X931039Y727680D02*
D03*
X1582420Y1343280D02*
D03*
X970265Y677553D02*
D03*
X1686560Y820000D02*
D03*
Y1079840D02*
D03*
X5165644Y2164264D02*
D03*
X1419860Y1343280D02*
D03*
X1982840Y445321D02*
D03*
X2004060Y1985000D02*
D03*
X528320Y934260D02*
D03*
X5326107Y2164264D02*
D03*
X2112800Y2046644D02*
D03*
X1502480Y1259840D02*
D03*
X2284346Y580321D02*
D03*
Y502860D02*
D03*
Y657413D02*
D03*
X2160580Y657860D02*
D03*
Y502860D02*
D03*
Y580321D02*
D03*
X996580Y976622D02*
D03*
X2252980Y1559560D02*
D03*
X2222500Y1985000D02*
D03*
X3488251Y2372249D02*
D03*
X1771220Y1160526D02*
D03*
X1770860Y998220D02*
D03*
X1771220Y901700D02*
D03*
Y739140D02*
D03*
X422547Y691934D02*
D03*
X1884680Y218440D02*
D03*
X1971892Y304600D02*
D03*
X1972680Y134266D02*
D03*
X1898600Y357941D02*
D03*
X1816100Y445321D02*
D03*
X2222800Y502860D02*
D03*
Y657860D02*
D03*
%TF.MD5,ad63433cbcdd6bca6093bc5de0991622*%
M02*
