%TF.GenerationSoftware,Altium Limited,Altium Designer,20.1.8 (145)*%
G04 Layer_Physical_Order=1*
G04 Layer_Color=2232046*
%FSLAX45Y45*%
%MOMM*%
%TF.SameCoordinates,A8D28DC8-49F5-44E5-8DCE-E7A12525CE2F*%
%TF.FilePolarity,Positive*%
%TF.FileFunction,Copper,L1,Top,Signal*%
%TF.Part,Single*%
G01*
G75*
%TA.AperFunction,ConnectorPad*%
G04:AMPARAMS|DCode=10|XSize=1.1mm|YSize=2.3mm|CornerRadius=0.0055mm|HoleSize=0mm|Usage=FLASHONLY|Rotation=270.000|XOffset=0mm|YOffset=0mm|HoleType=Round|Shape=RoundedRectangle|*
%AMROUNDEDRECTD10*
21,1,1.10000,2.28900,0,0,270.0*
21,1,1.08900,2.30000,0,0,270.0*
1,1,0.01100,-1.14450,-0.54450*
1,1,0.01100,-1.14450,0.54450*
1,1,0.01100,1.14450,0.54450*
1,1,0.01100,1.14450,-0.54450*
%
%ADD10ROUNDEDRECTD10*%
G04:AMPARAMS|DCode=11|XSize=1.1mm|YSize=2.3mm|CornerRadius=0.0055mm|HoleSize=0mm|Usage=FLASHONLY|Rotation=0.000|XOffset=0mm|YOffset=0mm|HoleType=Round|Shape=RoundedRectangle|*
%AMROUNDEDRECTD11*
21,1,1.10000,2.28900,0,0,0.0*
21,1,1.08900,2.30000,0,0,0.0*
1,1,0.01100,0.54450,-1.14450*
1,1,0.01100,-0.54450,-1.14450*
1,1,0.01100,-0.54450,1.14450*
1,1,0.01100,0.54450,1.14450*
%
%ADD11ROUNDEDRECTD11*%
%TA.AperFunction,SMDPad,CuDef*%
G04:AMPARAMS|DCode=12|XSize=0.85mm|YSize=0.85mm|CornerRadius=0.0425mm|HoleSize=0mm|Usage=FLASHONLY|Rotation=90.000|XOffset=0mm|YOffset=0mm|HoleType=Round|Shape=RoundedRectangle|*
%AMROUNDEDRECTD12*
21,1,0.85000,0.76500,0,0,90.0*
21,1,0.76500,0.85000,0,0,90.0*
1,1,0.08500,0.38250,0.38250*
1,1,0.08500,0.38250,-0.38250*
1,1,0.08500,-0.38250,-0.38250*
1,1,0.08500,-0.38250,0.38250*
%
%ADD12ROUNDEDRECTD12*%
%ADD13O,0.45000X1.40000*%
%ADD14O,1.40000X0.45000*%
G04:AMPARAMS|DCode=15|XSize=0.85mm|YSize=0.85mm|CornerRadius=0.0425mm|HoleSize=0mm|Usage=FLASHONLY|Rotation=0.000|XOffset=0mm|YOffset=0mm|HoleType=Round|Shape=RoundedRectangle|*
%AMROUNDEDRECTD15*
21,1,0.85000,0.76500,0,0,0.0*
21,1,0.76500,0.85000,0,0,0.0*
1,1,0.08500,0.38250,-0.38250*
1,1,0.08500,-0.38250,-0.38250*
1,1,0.08500,-0.38250,0.38250*
1,1,0.08500,0.38250,0.38250*
%
%ADD15ROUNDEDRECTD15*%
%ADD16C,1.00000*%
%ADD17C,0.50000*%
G04:AMPARAMS|DCode=18|XSize=0.55mm|YSize=0.9mm|CornerRadius=0.0275mm|HoleSize=0mm|Usage=FLASHONLY|Rotation=0.000|XOffset=0mm|YOffset=0mm|HoleType=Round|Shape=RoundedRectangle|*
%AMROUNDEDRECTD18*
21,1,0.55000,0.84500,0,0,0.0*
21,1,0.49500,0.90000,0,0,0.0*
1,1,0.05500,0.24750,-0.42250*
1,1,0.05500,-0.24750,-0.42250*
1,1,0.05500,-0.24750,0.42250*
1,1,0.05500,0.24750,0.42250*
%
%ADD18ROUNDEDRECTD18*%
G04:AMPARAMS|DCode=19|XSize=0.85mm|YSize=0.9mm|CornerRadius=0.0425mm|HoleSize=0mm|Usage=FLASHONLY|Rotation=90.000|XOffset=0mm|YOffset=0mm|HoleType=Round|Shape=RoundedRectangle|*
%AMROUNDEDRECTD19*
21,1,0.85000,0.81500,0,0,90.0*
21,1,0.76500,0.90000,0,0,90.0*
1,1,0.08500,0.40750,0.38250*
1,1,0.08500,0.40750,-0.38250*
1,1,0.08500,-0.40750,-0.38250*
1,1,0.08500,-0.40750,0.38250*
%
%ADD19ROUNDEDRECTD19*%
G04:AMPARAMS|DCode=20|XSize=0.85mm|YSize=0.9mm|CornerRadius=0.0425mm|HoleSize=0mm|Usage=FLASHONLY|Rotation=180.000|XOffset=0mm|YOffset=0mm|HoleType=Round|Shape=RoundedRectangle|*
%AMROUNDEDRECTD20*
21,1,0.85000,0.81500,0,0,180.0*
21,1,0.76500,0.90000,0,0,180.0*
1,1,0.08500,-0.38250,0.40750*
1,1,0.08500,0.38250,0.40750*
1,1,0.08500,0.38250,-0.40750*
1,1,0.08500,-0.38250,-0.40750*
%
%ADD20ROUNDEDRECTD20*%
G04:AMPARAMS|DCode=21|XSize=2.1mm|YSize=1mm|CornerRadius=0.05mm|HoleSize=0mm|Usage=FLASHONLY|Rotation=180.000|XOffset=0mm|YOffset=0mm|HoleType=Round|Shape=RoundedRectangle|*
%AMROUNDEDRECTD21*
21,1,2.10000,0.90000,0,0,180.0*
21,1,2.00000,1.00000,0,0,180.0*
1,1,0.10000,-1.00000,0.45000*
1,1,0.10000,1.00000,0.45000*
1,1,0.10000,1.00000,-0.45000*
1,1,0.10000,-1.00000,-0.45000*
%
%ADD21ROUNDEDRECTD21*%
G04:AMPARAMS|DCode=22|XSize=0.6mm|YSize=1.05mm|CornerRadius=0.03mm|HoleSize=0mm|Usage=FLASHONLY|Rotation=180.000|XOffset=0mm|YOffset=0mm|HoleType=Round|Shape=RoundedRectangle|*
%AMROUNDEDRECTD22*
21,1,0.60000,0.99000,0,0,180.0*
21,1,0.54000,1.05000,0,0,180.0*
1,1,0.06000,-0.27000,0.49500*
1,1,0.06000,0.27000,0.49500*
1,1,0.06000,0.27000,-0.49500*
1,1,0.06000,-0.27000,-0.49500*
%
%ADD22ROUNDEDRECTD22*%
G04:AMPARAMS|DCode=23|XSize=0.25mm|YSize=0.55mm|CornerRadius=0.0125mm|HoleSize=0mm|Usage=FLASHONLY|Rotation=0.000|XOffset=0mm|YOffset=0mm|HoleType=Round|Shape=RoundedRectangle|*
%AMROUNDEDRECTD23*
21,1,0.25000,0.52500,0,0,0.0*
21,1,0.22500,0.55000,0,0,0.0*
1,1,0.02500,0.11250,-0.26250*
1,1,0.02500,-0.11250,-0.26250*
1,1,0.02500,-0.11250,0.26250*
1,1,0.02500,0.11250,0.26250*
%
%ADD23ROUNDEDRECTD23*%
%TA.AperFunction,Conductor*%
%ADD24C,0.12700*%
%ADD25C,0.25400*%
%ADD26C,0.20320*%
%ADD27C,0.15240*%
%ADD28C,0.30480*%
%TA.AperFunction,ComponentPad*%
%ADD29C,1.50000*%
G04:AMPARAMS|DCode=30|XSize=1.5mm|YSize=1.45mm|CornerRadius=0.18125mm|HoleSize=0mm|Usage=FLASHONLY|Rotation=0.000|XOffset=0mm|YOffset=0mm|HoleType=Round|Shape=RoundedRectangle|*
%AMROUNDEDRECTD30*
21,1,1.50000,1.08750,0,0,0.0*
21,1,1.13750,1.45000,0,0,0.0*
1,1,0.36250,0.56875,-0.54375*
1,1,0.36250,-0.56875,-0.54375*
1,1,0.36250,-0.56875,0.54375*
1,1,0.36250,0.56875,0.54375*
%
%ADD30ROUNDEDRECTD30*%
%ADD31O,1.50000X1.45000*%
%ADD32C,1.52400*%
G04:AMPARAMS|DCode=33|XSize=1.524mm|YSize=1.524mm|CornerRadius=0.1905mm|HoleSize=0mm|Usage=FLASHONLY|Rotation=180.000|XOffset=0mm|YOffset=0mm|HoleType=Round|Shape=RoundedRectangle|*
%AMROUNDEDRECTD33*
21,1,1.52400,1.14300,0,0,180.0*
21,1,1.14300,1.52400,0,0,180.0*
1,1,0.38100,-0.57150,0.57150*
1,1,0.38100,0.57150,0.57150*
1,1,0.38100,0.57150,-0.57150*
1,1,0.38100,-0.57150,-0.57150*
%
%ADD33ROUNDEDRECTD33*%
%TA.AperFunction,ViaPad*%
%ADD34C,3.00000*%
%ADD35C,0.50000*%
G36*
X200000Y2781870D02*
X5400001D01*
X5400001Y2781870D01*
Y2781870D01*
X5417330Y2780781D01*
X5428495Y2779903D01*
X5456287Y2773230D01*
X5482693Y2762293D01*
X5507064Y2747359D01*
X5528797Y2728796D01*
X5547360Y2707062D01*
X5562294Y2682692D01*
X5573232Y2656286D01*
X5579904Y2628494D01*
X5582069Y2600990D01*
X5581872Y2600000D01*
Y800000D01*
X5582069Y799010D01*
X5579904Y771506D01*
X5573232Y743714D01*
X5562294Y717307D01*
X5547360Y692937D01*
X5528797Y671203D01*
X5507063Y652641D01*
X5482693Y637707D01*
X5456287Y626769D01*
X5428494Y620096D01*
X5400990Y617932D01*
X5400000Y618129D01*
X3000000Y618129D01*
Y618350D01*
X2976911Y616076D01*
X2954709Y609341D01*
X2934248Y598405D01*
X2916314Y583686D01*
X2901596Y565752D01*
X2890659Y545291D01*
X2883924Y523089D01*
X2881650Y500001D01*
X2881872D01*
Y18128D01*
X200000D01*
X199010Y17931D01*
X171506Y20096D01*
X143714Y26768D01*
X117307Y37706D01*
X92937Y52640D01*
X71203Y71203D01*
X52640Y92937D01*
X37706Y117307D01*
X26768Y143714D01*
X20096Y171506D01*
X17944Y198843D01*
X18128Y199769D01*
X18128Y2600000D01*
X17931Y2600989D01*
X20096Y2628493D01*
X26768Y2656285D01*
X37706Y2682691D01*
X52640Y2707062D01*
X71203Y2728796D01*
X92937Y2747358D01*
X117307Y2762292D01*
X143714Y2773230D01*
X171506Y2779903D01*
X199010Y2782067D01*
X200000Y2781870D01*
D02*
G37*
%LPC*%
G36*
X4974510Y2717452D02*
X4898010D01*
X4891396Y2716137D01*
X4885790Y2712390D01*
X4882043Y2706784D01*
X4880728Y2700170D01*
Y2681343D01*
X4463155D01*
X4463154Y2681343D01*
X4455721Y2679865D01*
X4449420Y2675654D01*
X4449419Y2675654D01*
X4400292Y2626527D01*
X4396082Y2620225D01*
X4394603Y2612792D01*
Y2601869D01*
X4310926D01*
X4305756Y2600841D01*
X4301373Y2597912D01*
X4298445Y2593529D01*
X4297417Y2588360D01*
Y2359459D01*
X4298445Y2354289D01*
X4301373Y2349907D01*
X4305756Y2346978D01*
X4310926Y2345950D01*
X4419826D01*
X4424996Y2346978D01*
X4429379Y2349907D01*
X4432307Y2354289D01*
X4433336Y2359459D01*
Y2521988D01*
X4433449Y2522560D01*
Y2604747D01*
X4471199Y2642497D01*
X4880728D01*
Y2623670D01*
X4882043Y2617056D01*
X4885790Y2611450D01*
X4891396Y2607703D01*
X4898010Y2606388D01*
X4974510D01*
X4981123Y2607703D01*
X4986730Y2611450D01*
X4990476Y2617056D01*
X4991792Y2623670D01*
Y2700170D01*
X4990476Y2706784D01*
X4986730Y2712390D01*
X4981123Y2716137D01*
X4974510Y2717452D01*
D02*
G37*
G36*
X1520000Y2688047D02*
X1320000D01*
X1313094Y2686673D01*
X1307239Y2682761D01*
X1303327Y2676906D01*
X1301953Y2670000D01*
Y2644423D01*
X698047D01*
Y2670000D01*
X696673Y2676906D01*
X692761Y2682761D01*
X686906Y2686673D01*
X680000Y2688047D01*
X480000D01*
X473094Y2686673D01*
X467239Y2682761D01*
X463327Y2676906D01*
X461953Y2670000D01*
Y2581483D01*
X461927Y2581350D01*
Y2532804D01*
X288053Y2358930D01*
X283842Y2352629D01*
X282364Y2345195D01*
Y1605765D01*
X283842Y1598332D01*
X288053Y1592031D01*
X812837Y1067246D01*
X819139Y1063036D01*
X826572Y1061557D01*
X826573Y1061557D01*
X855779D01*
X912157Y1005180D01*
Y955792D01*
X894377Y948245D01*
X886003Y956332D01*
Y972455D01*
X886003Y972457D01*
X884525Y979889D01*
X880314Y986191D01*
X832642Y1033863D01*
X826341Y1038073D01*
X818908Y1039552D01*
X776892D01*
X505305Y1311139D01*
X506533Y1320468D01*
X505238Y1330309D01*
X501439Y1339480D01*
X495396Y1347355D01*
X487521Y1353398D01*
X478350Y1357197D01*
X468508Y1358493D01*
X458666Y1357197D01*
X449495Y1353398D01*
X441620Y1347355D01*
X435892Y1339891D01*
X409859D01*
Y1378967D01*
X408544Y1385580D01*
X404798Y1391187D01*
X399191Y1394933D01*
X392578Y1396249D01*
X316077D01*
X309464Y1394933D01*
X303857Y1391187D01*
X300111Y1385580D01*
X298795Y1378967D01*
Y1302467D01*
X300111Y1295853D01*
X303857Y1290246D01*
X309464Y1286500D01*
X316077Y1285185D01*
X334906D01*
Y1266604D01*
X316078D01*
X309464Y1265289D01*
X303857Y1261543D01*
X300111Y1255936D01*
X298796Y1249322D01*
Y1172822D01*
X300111Y1166209D01*
X303857Y1160602D01*
X309464Y1156856D01*
X316078Y1155540D01*
X392578D01*
X399191Y1156856D01*
X404798Y1160602D01*
X408544Y1166209D01*
X409860Y1172822D01*
Y1249322D01*
X408544Y1255936D01*
X404798Y1261543D01*
X399191Y1265289D01*
X392578Y1266604D01*
X373752D01*
Y1285185D01*
X392578D01*
X399191Y1286500D01*
X404798Y1290246D01*
X408544Y1295853D01*
X409577Y1301044D01*
X435892D01*
X441620Y1293580D01*
X449495Y1287537D01*
X458666Y1283738D01*
X468508Y1282442D01*
X477837Y1283670D01*
X755112Y1006395D01*
X755113Y1006394D01*
X761414Y1002184D01*
X768847Y1000705D01*
X810862D01*
X847157Y964411D01*
Y945265D01*
X841475Y940905D01*
X826685D01*
X819332Y946547D01*
X810769Y950094D01*
X801580Y951304D01*
X792391Y950094D01*
X783828Y946547D01*
X776475Y940905D01*
X761685D01*
X754332Y946547D01*
X745769Y950094D01*
X736580Y951304D01*
X727391Y950094D01*
X718828Y946547D01*
X711475Y940905D01*
X696685D01*
X689332Y946547D01*
X680769Y950094D01*
X671580Y951304D01*
X662391Y950094D01*
X653828Y946547D01*
X646475Y940905D01*
X641977D01*
X626003Y956332D01*
Y988732D01*
X624525Y996165D01*
X620314Y1002466D01*
X580936Y1041844D01*
X574635Y1046055D01*
X567202Y1047533D01*
X502572D01*
Y1102510D01*
X501257Y1109124D01*
X497510Y1114730D01*
X491904Y1118477D01*
X485290Y1119792D01*
X408790D01*
X402176Y1118477D01*
X396570Y1114730D01*
X396320Y1114357D01*
X368924D01*
X363196Y1121822D01*
X355321Y1127865D01*
X346150Y1131663D01*
X336308Y1132959D01*
X326466Y1131663D01*
X317295Y1127865D01*
X309420Y1121822D01*
X303692Y1114357D01*
X277165D01*
X269732Y1112878D01*
X263431Y1108668D01*
X241344Y1086582D01*
X237134Y1080280D01*
X235655Y1072847D01*
Y1052315D01*
X223928Y1045208D01*
X212201Y1052315D01*
Y1155540D01*
X262578D01*
X269191Y1156856D01*
X274798Y1160602D01*
X278544Y1166209D01*
X279860Y1172822D01*
Y1249322D01*
X278544Y1255936D01*
X274798Y1261543D01*
X269191Y1265289D01*
X262578Y1266604D01*
X186078D01*
X179464Y1265289D01*
X173857Y1261543D01*
X170111Y1255936D01*
X168796Y1249322D01*
Y1172822D01*
X170111Y1166209D01*
X173355Y1161354D01*
Y1003734D01*
X173455Y1003231D01*
Y971334D01*
X174538Y965891D01*
X177621Y961276D01*
X182235Y958193D01*
X187678Y957111D01*
X210178D01*
X215621Y958193D01*
X220235Y961276D01*
X227621D01*
X232236Y958193D01*
X237678Y957111D01*
X260178D01*
X265621Y958193D01*
X270236Y961276D01*
X277621D01*
X282235Y958193D01*
X287678Y957111D01*
X292578D01*
Y997584D01*
Y1038057D01*
X287679D01*
X275162Y1050886D01*
X274502Y1052184D01*
Y1064802D01*
X285211Y1075511D01*
X303692D01*
X309420Y1068046D01*
X317295Y1062003D01*
X326466Y1058204D01*
X336308Y1056908D01*
X346150Y1058204D01*
X355321Y1062003D01*
X363196Y1068046D01*
X368924Y1075511D01*
X391508D01*
Y1026010D01*
X392823Y1019396D01*
X396570Y1013790D01*
X402176Y1010043D01*
X408790Y1008728D01*
X482982D01*
X483190Y1008687D01*
X483191Y1008687D01*
X559157D01*
X587157Y980687D01*
Y945265D01*
X581475Y940905D01*
X575833Y933552D01*
X572286Y924989D01*
X571076Y915800D01*
Y820800D01*
X572286Y811611D01*
X575833Y803048D01*
X581475Y795695D01*
X588828Y790053D01*
X597391Y786506D01*
X606580Y785296D01*
X615769Y786506D01*
X624332Y790053D01*
X631685Y795695D01*
X636183D01*
X649778Y782565D01*
X649892Y763505D01*
X611168Y724781D01*
X499401D01*
X491968Y723303D01*
X485667Y719093D01*
X411082Y644508D01*
X313632D01*
X313630Y644508D01*
X306198Y643029D01*
X299896Y638819D01*
X232249Y571172D01*
X228038Y564871D01*
X226560Y557438D01*
Y199208D01*
X228038Y191775D01*
X232249Y185474D01*
X313090Y104633D01*
X313090Y104633D01*
X319392Y100422D01*
X326825Y98944D01*
X507306D01*
X514739Y100422D01*
X521040Y104633D01*
X590473Y174065D01*
X601137Y168365D01*
X617197Y163493D01*
X633899Y161848D01*
X638899D01*
X655601Y163493D01*
X671662Y168365D01*
X686463Y176276D01*
X699436Y186923D01*
X710083Y199896D01*
X717995Y214698D01*
X722866Y230758D01*
X724511Y247460D01*
X722866Y264162D01*
X717995Y280222D01*
X710083Y295024D01*
X699436Y307997D01*
X686463Y318644D01*
X671662Y326555D01*
X655601Y331427D01*
X638899Y333072D01*
X633899D01*
X617197Y331427D01*
X601137Y326555D01*
X586336Y318644D01*
X573362Y307997D01*
X562715Y295024D01*
X554804Y280222D01*
X549932Y264162D01*
X548287Y247460D01*
X549932Y230758D01*
X554804Y214698D01*
X562246Y200775D01*
X499261Y137790D01*
X334870D01*
X265406Y207254D01*
Y549392D01*
X321676Y605662D01*
X419127D01*
X426560Y607140D01*
X432862Y611351D01*
X507446Y685935D01*
X619213D01*
X626646Y687414D01*
X632948Y691624D01*
X685314Y743990D01*
X685314Y743991D01*
X689525Y750292D01*
X691003Y757725D01*
X691003Y757726D01*
Y780808D01*
X708783Y788355D01*
X717157Y780268D01*
Y742630D01*
X699746Y725219D01*
X695536Y718918D01*
X694057Y711485D01*
Y683079D01*
X674610Y663632D01*
X577317D01*
X577316Y663632D01*
X569883Y662153D01*
X563582Y657943D01*
X563581Y657942D01*
X494266Y588627D01*
X490055Y582326D01*
X488577Y574893D01*
Y381106D01*
X428326Y320855D01*
X417662Y326555D01*
X401601Y331427D01*
X384899Y333072D01*
X379899D01*
X363197Y331427D01*
X347137Y326555D01*
X332336Y318644D01*
X319362Y307997D01*
X308715Y295024D01*
X300804Y280222D01*
X295932Y264162D01*
X294287Y247460D01*
X295932Y230758D01*
X300804Y214698D01*
X308715Y199896D01*
X319362Y186923D01*
X332336Y176276D01*
X347137Y168365D01*
X363197Y163493D01*
X379899Y161848D01*
X384899D01*
X401601Y163493D01*
X417662Y168365D01*
X432463Y176276D01*
X445436Y186923D01*
X456083Y199896D01*
X463994Y214698D01*
X468866Y230758D01*
X470511Y247460D01*
X468866Y264162D01*
X463994Y280222D01*
X456553Y294145D01*
X521734Y359326D01*
X521734Y359326D01*
X525945Y365628D01*
X527423Y373060D01*
Y566847D01*
X585361Y624785D01*
X682655D01*
X690088Y626264D01*
X696390Y630474D01*
X727214Y661299D01*
X731425Y667600D01*
X732903Y675033D01*
Y703440D01*
X750314Y720850D01*
X754525Y727152D01*
X756003Y734585D01*
Y780808D01*
X773783Y788355D01*
X782157Y780268D01*
Y626710D01*
X750806Y595359D01*
X746595Y589058D01*
X745117Y581625D01*
Y172312D01*
X746595Y164879D01*
X750806Y158578D01*
X799535Y109849D01*
X805836Y105638D01*
X813269Y104160D01*
X1272022D01*
X1279455Y105638D01*
X1285756Y109849D01*
X1338221Y162313D01*
X1341524Y161656D01*
X1455274D01*
X1467302Y164048D01*
X1477498Y170861D01*
X1484311Y181058D01*
X1486703Y193085D01*
Y301835D01*
X1484311Y313862D01*
X1477498Y324059D01*
X1467302Y330872D01*
X1455274Y333264D01*
X1341524D01*
X1329497Y330872D01*
X1319301Y324059D01*
X1312488Y313862D01*
X1310095Y301835D01*
Y193085D01*
X1310753Y189782D01*
X1263977Y143006D01*
X821314D01*
X783963Y180357D01*
Y573579D01*
X815314Y604930D01*
X815314Y604931D01*
X819525Y611232D01*
X821003Y618665D01*
X821003Y618666D01*
Y791335D01*
X826685Y795695D01*
X841475D01*
X848828Y790053D01*
X857391Y786506D01*
X866580Y785296D01*
X875769Y786506D01*
X884332Y790053D01*
X891685Y795695D01*
X906475D01*
X913828Y790053D01*
X922391Y786506D01*
X931580Y785296D01*
X940769Y786506D01*
X949332Y790053D01*
X956685Y795695D01*
X971475D01*
X978828Y790053D01*
X987391Y786506D01*
X990230Y786132D01*
Y868300D01*
Y950468D01*
X987391Y950094D01*
X978828Y946547D01*
X971475Y940905D01*
X966977D01*
X951003Y956332D01*
Y1013224D01*
X951003Y1013225D01*
X949525Y1020658D01*
X945314Y1026960D01*
X877559Y1094715D01*
X871258Y1098925D01*
X863825Y1100404D01*
X834617D01*
X321210Y1613811D01*
Y2337150D01*
X495084Y2511024D01*
X495084Y2511024D01*
X499295Y2517326D01*
X500773Y2524758D01*
X500773Y2524760D01*
Y2561953D01*
X680000D01*
X686906Y2563327D01*
X692761Y2567239D01*
X696673Y2573094D01*
X698047Y2580000D01*
Y2605577D01*
X1301953D01*
Y2580000D01*
X1303327Y2573094D01*
X1307239Y2567239D01*
X1313094Y2563327D01*
X1320000Y2561953D01*
X1520000D01*
X1526906Y2563327D01*
X1532761Y2567239D01*
X1536673Y2573094D01*
X1538047Y2580000D01*
Y2670000D01*
X1536673Y2676906D01*
X1532761Y2682761D01*
X1526906Y2686673D01*
X1520000Y2688047D01*
D02*
G37*
G36*
X2504850Y2589522D02*
X2454050D01*
Y2506350D01*
X2537222D01*
Y2557150D01*
X2534758Y2569538D01*
X2527740Y2580040D01*
X2517238Y2587058D01*
X2504850Y2589522D01*
D02*
G37*
G36*
X2441350D02*
X2390550D01*
X2378162Y2587058D01*
X2367659Y2580040D01*
X2360642Y2569538D01*
X2358178Y2557150D01*
Y2506350D01*
X2441350D01*
Y2589522D01*
D02*
G37*
G36*
X5104510Y2717452D02*
X5028010D01*
X5021396Y2716137D01*
X5015790Y2712390D01*
X5012043Y2706784D01*
X5010728Y2700170D01*
Y2623670D01*
X5012043Y2617056D01*
X5015790Y2611450D01*
X5021396Y2607703D01*
X5028010Y2606388D01*
X5046837D01*
Y2585372D01*
X5028010D01*
X5021396Y2584057D01*
X5015790Y2580310D01*
X5012043Y2574704D01*
X5010728Y2568090D01*
Y2491590D01*
X5012043Y2484976D01*
X5015790Y2479370D01*
X5021396Y2475623D01*
X5028010Y2474308D01*
X5104510D01*
X5111123Y2475623D01*
X5116730Y2479370D01*
X5120476Y2484976D01*
X5121792Y2491590D01*
Y2568090D01*
X5120476Y2574704D01*
X5116730Y2580310D01*
X5111123Y2584057D01*
X5104510Y2585372D01*
X5085683D01*
Y2606388D01*
X5104510D01*
X5111123Y2607703D01*
X5116730Y2611450D01*
X5120476Y2617056D01*
X5121792Y2623670D01*
Y2700170D01*
X5120476Y2706784D01*
X5116730Y2712390D01*
X5111123Y2716137D01*
X5104510Y2717452D01*
D02*
G37*
G36*
X2955700Y2589330D02*
X2938273Y2587614D01*
X2921515Y2582530D01*
X2906071Y2574275D01*
X2892534Y2563166D01*
X2881425Y2549629D01*
X2873170Y2534185D01*
X2868086Y2517427D01*
X2866370Y2500000D01*
X2868086Y2482572D01*
X2873170Y2465815D01*
X2880442Y2452210D01*
X2736796Y2308564D01*
X469148D01*
X469147Y2308564D01*
X461714Y2307086D01*
X455412Y2302875D01*
X408615Y2256078D01*
X404405Y2249777D01*
X402927Y2242344D01*
Y1995862D01*
X404405Y1988429D01*
X408615Y1982128D01*
X524543Y1866200D01*
X523315Y1856872D01*
X524610Y1847030D01*
X528409Y1837859D01*
X534452Y1829984D01*
X542327Y1823941D01*
X551498Y1820142D01*
X561340Y1818846D01*
X571182Y1820142D01*
X580353Y1823941D01*
X588228Y1829984D01*
X593956Y1837448D01*
X616048D01*
Y1818621D01*
X617364Y1812008D01*
X621110Y1806401D01*
X626717Y1802655D01*
X633330Y1801340D01*
X709830D01*
X716444Y1802655D01*
X722050Y1806401D01*
X725797Y1812008D01*
X727112Y1818621D01*
Y1895122D01*
X725797Y1901735D01*
X722050Y1907342D01*
X716444Y1911088D01*
X709830Y1912404D01*
X633330D01*
X626717Y1911088D01*
X621110Y1907342D01*
X617364Y1901735D01*
X616048Y1895122D01*
Y1876295D01*
X593956D01*
X588228Y1883760D01*
X580353Y1889802D01*
X571182Y1893601D01*
X561340Y1894897D01*
X552011Y1893669D01*
X441773Y2003907D01*
Y2234299D01*
X477192Y2269718D01*
X2744841D01*
X2752274Y2271196D01*
X2758575Y2275407D01*
X2907910Y2424741D01*
X2921515Y2417469D01*
X2938273Y2412386D01*
X2955700Y2410670D01*
X2973127Y2412386D01*
X2989885Y2417469D01*
X3005329Y2425724D01*
X3018866Y2436834D01*
X3029975Y2450371D01*
X3038230Y2465815D01*
X3043314Y2482572D01*
X3045030Y2500000D01*
X3043314Y2517427D01*
X3038230Y2534185D01*
X3029975Y2549629D01*
X3018866Y2563166D01*
X3005329Y2574275D01*
X2989885Y2582530D01*
X2973127Y2587614D01*
X2955700Y2589330D01*
D02*
G37*
G36*
X2537222Y2493650D02*
X2454050D01*
Y2410478D01*
X2504850D01*
X2517238Y2412942D01*
X2527740Y2419959D01*
X2534758Y2430461D01*
X2537222Y2442850D01*
Y2493650D01*
D02*
G37*
G36*
X2441350D02*
X2358178D01*
Y2442850D01*
X2360642Y2430461D01*
X2367659Y2419959D01*
X2378162Y2412942D01*
X2390550Y2410478D01*
X2441350D01*
Y2493650D01*
D02*
G37*
G36*
X2701700Y2589330D02*
X2684273Y2587614D01*
X2667515Y2582530D01*
X2652071Y2574275D01*
X2638534Y2563166D01*
X2627425Y2549629D01*
X2619170Y2534185D01*
X2614086Y2517427D01*
X2612370Y2500000D01*
X2614086Y2482572D01*
X2619170Y2465815D01*
X2626441Y2452210D01*
X2553211Y2378979D01*
X2370354D01*
X2325122Y2424212D01*
X2318821Y2428422D01*
X2311388Y2429901D01*
X2274111D01*
X2268383Y2437366D01*
X2260508Y2443409D01*
X2251337Y2447207D01*
X2241495Y2448503D01*
X2231653Y2447207D01*
X2222482Y2443409D01*
X2214607Y2437366D01*
X2208879Y2429901D01*
X2189301D01*
Y2448728D01*
X2187985Y2455341D01*
X2184239Y2460948D01*
X2178632Y2464694D01*
X2172019Y2466010D01*
X2095519D01*
X2088905Y2464694D01*
X2083299Y2460948D01*
X2079552Y2455341D01*
X2078237Y2448728D01*
Y2372228D01*
X2079552Y2365614D01*
X2083299Y2360007D01*
X2088905Y2356261D01*
X2095519Y2354946D01*
X2172019D01*
X2178632Y2356261D01*
X2184239Y2360007D01*
X2187985Y2365614D01*
X2189301Y2372228D01*
Y2391055D01*
X2208879D01*
X2214607Y2383590D01*
X2222482Y2377547D01*
X2231653Y2373748D01*
X2241495Y2372452D01*
X2251337Y2373748D01*
X2260508Y2377547D01*
X2268383Y2383590D01*
X2274111Y2391055D01*
X2303342D01*
X2348575Y2345822D01*
X2354876Y2341612D01*
X2362309Y2340133D01*
X2362310Y2340133D01*
X2561256D01*
X2568690Y2341612D01*
X2574991Y2345822D01*
X2653910Y2424741D01*
X2667515Y2417469D01*
X2684273Y2412386D01*
X2701700Y2410670D01*
X2719127Y2412386D01*
X2735885Y2417469D01*
X2751329Y2425724D01*
X2764866Y2436834D01*
X2775975Y2450371D01*
X2784230Y2465815D01*
X2789314Y2482572D01*
X2791030Y2500000D01*
X2789314Y2517427D01*
X2784230Y2534185D01*
X2775975Y2549629D01*
X2764866Y2563166D01*
X2751329Y2574275D01*
X2735885Y2582530D01*
X2719127Y2587614D01*
X2701700Y2589330D01*
D02*
G37*
G36*
X3209700D02*
X3192273Y2587614D01*
X3175515Y2582530D01*
X3160071Y2574275D01*
X3146534Y2563166D01*
X3135425Y2549629D01*
X3127170Y2534185D01*
X3122086Y2517427D01*
X3120370Y2500000D01*
X3122086Y2482572D01*
X3127170Y2465815D01*
X3132528Y2455790D01*
X3107582Y2430844D01*
X3102529Y2423282D01*
X3100755Y2414363D01*
Y2359312D01*
X3059510D01*
X3052897Y2357997D01*
X3047290Y2354250D01*
X3043544Y2348644D01*
X3042228Y2342030D01*
Y2272023D01*
X3042112Y2271440D01*
Y2237519D01*
X3024035Y2219442D01*
X2145475D01*
X2136556Y2217668D01*
X2128994Y2212616D01*
X1766999Y1850621D01*
X1761946Y1843059D01*
X1760172Y1834140D01*
Y1466748D01*
X1558012D01*
Y1519030D01*
X1556697Y1525643D01*
X1552950Y1531250D01*
X1547344Y1534996D01*
X1540730Y1536312D01*
X1525788D01*
Y1559496D01*
X1570300D01*
X1579489Y1560706D01*
X1588052Y1564253D01*
X1595405Y1569895D01*
X1601047Y1577248D01*
X1604594Y1585811D01*
X1605804Y1595000D01*
X1604594Y1604189D01*
X1601047Y1612752D01*
X1595405Y1620105D01*
Y1634895D01*
X1601047Y1642248D01*
X1604594Y1650811D01*
X1605804Y1660000D01*
X1604594Y1669189D01*
X1601047Y1677752D01*
X1595405Y1685105D01*
Y1699895D01*
X1601047Y1707248D01*
X1604594Y1715811D01*
X1605804Y1725000D01*
X1604594Y1734189D01*
X1601047Y1742752D01*
X1595405Y1750105D01*
Y1764895D01*
X1601047Y1772248D01*
X1604594Y1780811D01*
X1605804Y1790000D01*
X1604594Y1799189D01*
X1601047Y1807752D01*
X1595405Y1815105D01*
Y1829895D01*
X1601047Y1837248D01*
X1604594Y1845811D01*
X1605804Y1855000D01*
X1604594Y1864189D01*
X1601047Y1872752D01*
X1595405Y1880105D01*
Y1894895D01*
X1601047Y1902248D01*
X1604594Y1910811D01*
X1605804Y1920000D01*
X1604594Y1929189D01*
X1601047Y1937752D01*
X1595405Y1945105D01*
Y1949602D01*
X1610832Y1965577D01*
X1629760D01*
X1637193Y1967055D01*
X1643494Y1971266D01*
X1673912Y2001684D01*
X1678123Y2007985D01*
X1679601Y2015418D01*
Y2091206D01*
X1698428D01*
X1705042Y2092521D01*
X1710648Y2096268D01*
X1714395Y2101874D01*
X1715710Y2108488D01*
Y2184988D01*
X1714395Y2191601D01*
X1710648Y2197208D01*
X1705042Y2200954D01*
X1698428Y2202270D01*
X1621928D01*
X1615315Y2200954D01*
X1609708Y2197208D01*
X1605961Y2191601D01*
X1604646Y2184988D01*
Y2108488D01*
X1605961Y2101874D01*
X1609708Y2096268D01*
X1615315Y2092521D01*
X1621928Y2091206D01*
X1640755D01*
Y2023464D01*
X1621714Y2004423D01*
X1599765D01*
X1595405Y2010105D01*
X1588052Y2015747D01*
X1579489Y2019294D01*
X1570300Y2020503D01*
X1475300D01*
X1466111Y2019294D01*
X1457548Y2015747D01*
X1450195Y2010105D01*
X1445836Y2004424D01*
X1220594D01*
X1213161Y2002945D01*
X1206860Y1998735D01*
X1135909Y1927784D01*
X1126580Y1929012D01*
X1116738Y1927716D01*
X1107567Y1923917D01*
X1099692Y1917874D01*
X1093649Y1909999D01*
X1089850Y1900828D01*
X1088555Y1890986D01*
X1089850Y1881145D01*
X1093649Y1871974D01*
X1099692Y1864098D01*
X1107567Y1858055D01*
X1116738Y1854257D01*
X1126580Y1852961D01*
X1136422Y1854257D01*
X1145593Y1858055D01*
X1153468Y1864098D01*
X1159511Y1871974D01*
X1163310Y1881145D01*
X1164605Y1890986D01*
X1163377Y1900315D01*
X1228640Y1965577D01*
X1445835D01*
X1446515Y1964692D01*
X1450195Y1945105D01*
X1444553Y1937752D01*
X1441006Y1929189D01*
X1439796Y1920000D01*
X1441006Y1910811D01*
X1444553Y1902248D01*
X1450195Y1894895D01*
Y1890397D01*
X1436135Y1875838D01*
X1417630Y1875735D01*
X1401106Y1892258D01*
X1394805Y1896468D01*
X1387372Y1897947D01*
X1354692D01*
X1348964Y1905412D01*
X1341089Y1911455D01*
X1331918Y1915253D01*
X1322076Y1916549D01*
X1312235Y1915253D01*
X1303064Y1911455D01*
X1295188Y1905412D01*
X1289460Y1897947D01*
X1235635D01*
X1235633Y1897947D01*
X1228200Y1896468D01*
X1221899Y1892258D01*
X1164129Y1834488D01*
X924794D01*
X917361Y1833009D01*
X911060Y1828799D01*
X787846Y1705585D01*
X783635Y1699284D01*
X782157Y1691851D01*
Y1530265D01*
X776475Y1525905D01*
X761685D01*
X754332Y1531547D01*
X745769Y1535094D01*
X736580Y1536304D01*
X727391Y1535094D01*
X718828Y1531547D01*
X711475Y1525905D01*
X706978D01*
X691003Y1541332D01*
Y1587049D01*
X698468Y1592777D01*
X704511Y1600652D01*
X708310Y1609823D01*
X709605Y1619665D01*
X708310Y1629507D01*
X704511Y1638678D01*
X698468Y1646553D01*
X691003Y1652281D01*
Y1671340D01*
X709830D01*
X716444Y1672655D01*
X722050Y1676401D01*
X725797Y1682008D01*
X727112Y1688621D01*
Y1765122D01*
X725797Y1771735D01*
X722050Y1777342D01*
X716444Y1781088D01*
X709830Y1782404D01*
X633330D01*
X626717Y1781088D01*
X621110Y1777342D01*
X617364Y1771735D01*
X616048Y1765122D01*
Y1688621D01*
X617364Y1682008D01*
X621110Y1676401D01*
X626717Y1672655D01*
X633330Y1671340D01*
X652157D01*
Y1652281D01*
X644692Y1646553D01*
X638649Y1638678D01*
X634850Y1629507D01*
X633555Y1619665D01*
X634850Y1609823D01*
X638649Y1600652D01*
X644692Y1592777D01*
X652157Y1587049D01*
Y1530265D01*
X646475Y1525905D01*
X631685D01*
X624332Y1531547D01*
X615769Y1535094D01*
X606580Y1536304D01*
X599401Y1535359D01*
X379653Y1755106D01*
Y2263749D01*
X506959Y2391055D01*
X1865152D01*
X1870880Y2383590D01*
X1878756Y2377547D01*
X1887927Y2373748D01*
X1897768Y2372452D01*
X1907610Y2373748D01*
X1916781Y2377547D01*
X1924656Y2383590D01*
X1930384Y2391055D01*
X1948237D01*
Y2372228D01*
X1949552Y2365614D01*
X1953299Y2360007D01*
X1958905Y2356261D01*
X1965519Y2354946D01*
X2042019D01*
X2048632Y2356261D01*
X2054239Y2360007D01*
X2057985Y2365614D01*
X2059301Y2372228D01*
Y2448728D01*
X2057985Y2455341D01*
X2054239Y2460948D01*
X2048632Y2464694D01*
X2042019Y2466010D01*
X1965519D01*
X1958905Y2464694D01*
X1953299Y2460948D01*
X1949552Y2455341D01*
X1948237Y2448728D01*
Y2429901D01*
X1930384D01*
X1924656Y2437366D01*
X1916781Y2443409D01*
X1907610Y2447207D01*
X1897768Y2448503D01*
X1887927Y2447207D01*
X1878756Y2443409D01*
X1870880Y2437366D01*
X1865152Y2429901D01*
X498915D01*
X498914Y2429901D01*
X491481Y2428422D01*
X485179Y2424212D01*
X346496Y2285529D01*
X342286Y2279227D01*
X340807Y2271794D01*
Y1747061D01*
X342286Y1739628D01*
X346496Y1733326D01*
X572001Y1507822D01*
X571076Y1500800D01*
Y1405800D01*
X572286Y1396611D01*
X575833Y1388048D01*
X581475Y1380695D01*
X588828Y1375053D01*
X597391Y1371506D01*
X606580Y1370296D01*
X615769Y1371506D01*
X624332Y1375053D01*
X631685Y1380695D01*
X646475D01*
X653828Y1375053D01*
X662391Y1371506D01*
X671580Y1370296D01*
X680769Y1371506D01*
X689332Y1375053D01*
X696685Y1380695D01*
X701182D01*
X717157Y1365268D01*
Y1315005D01*
X718635Y1307572D01*
X722846Y1301271D01*
X963068Y1061049D01*
X961840Y1051721D01*
X963135Y1041879D01*
X966934Y1032708D01*
X972977Y1024833D01*
X980852Y1018790D01*
X990023Y1014991D01*
X999865Y1013695D01*
X1009707Y1014991D01*
X1018878Y1018790D01*
X1026753Y1024833D01*
X1032796Y1032708D01*
X1036595Y1041879D01*
X1037890Y1051721D01*
X1036595Y1061562D01*
X1032796Y1070733D01*
X1026753Y1078608D01*
X1018878Y1084651D01*
X1009707Y1088450D01*
X999865Y1089746D01*
X990536Y1088518D01*
X756003Y1323051D01*
Y1376336D01*
X761685Y1380695D01*
X776475D01*
X783828Y1375053D01*
X792391Y1371506D01*
X801580Y1370296D01*
X810769Y1371506D01*
X819332Y1375053D01*
X826685Y1380695D01*
X841475D01*
X848828Y1375053D01*
X857391Y1371506D01*
X866580Y1370296D01*
X875769Y1371506D01*
X884332Y1375053D01*
X891685Y1380695D01*
X906475D01*
X913828Y1375053D01*
X922391Y1371506D01*
X931580Y1370296D01*
X940769Y1371506D01*
X949332Y1375053D01*
X956685Y1380695D01*
X971475D01*
X978828Y1375053D01*
X987391Y1371506D01*
X996580Y1370296D01*
X1005769Y1371506D01*
X1014332Y1375053D01*
X1021685Y1380695D01*
X1026183D01*
X1042157Y1365268D01*
Y1334330D01*
X1043635Y1326897D01*
X1047846Y1320596D01*
X1109450Y1258991D01*
X1109451Y1258991D01*
X1115752Y1254780D01*
X1123185Y1253302D01*
X1273228D01*
Y1198325D01*
X1274544Y1191711D01*
X1278290Y1186105D01*
X1283897Y1182358D01*
X1290510Y1181043D01*
X1367010D01*
X1373624Y1182358D01*
X1379230Y1186105D01*
X1381325Y1189240D01*
X1602024D01*
X1609458Y1190718D01*
X1615759Y1194929D01*
X1681672Y1260842D01*
X1691001Y1259614D01*
X1700842Y1260910D01*
X1710013Y1264708D01*
X1717889Y1270751D01*
X1723932Y1278627D01*
X1727730Y1287798D01*
X1729026Y1297639D01*
X1727730Y1307481D01*
X1723932Y1316652D01*
X1717889Y1324527D01*
X1710013Y1330570D01*
X1700842Y1334369D01*
X1691001Y1335665D01*
X1681159Y1334369D01*
X1671988Y1330570D01*
X1664113Y1324527D01*
X1658070Y1316652D01*
X1654271Y1307481D01*
X1652975Y1297639D01*
X1654203Y1288311D01*
X1593979Y1228086D01*
X1384292D01*
Y1274825D01*
X1382977Y1281438D01*
X1379230Y1287045D01*
X1373624Y1290791D01*
X1367010Y1292107D01*
X1292817D01*
X1292610Y1292148D01*
X1131230D01*
X1081003Y1342376D01*
Y1376336D01*
X1086685Y1380695D01*
X1101475D01*
X1108828Y1375053D01*
X1117391Y1371506D01*
X1126580Y1370296D01*
X1135769Y1371506D01*
X1144332Y1375053D01*
X1151685Y1380695D01*
X1166475D01*
X1173828Y1375053D01*
X1182391Y1371506D01*
X1191580Y1370296D01*
X1200769Y1371506D01*
X1209332Y1375053D01*
X1216685Y1380695D01*
X1222327Y1388048D01*
X1225874Y1396611D01*
X1227084Y1405800D01*
Y1500800D01*
X1225874Y1509989D01*
X1222327Y1518552D01*
X1216685Y1525905D01*
X1211003Y1530265D01*
Y1555632D01*
X1246494Y1591123D01*
X1266814D01*
X1272542Y1583658D01*
X1280417Y1577615D01*
X1289588Y1573816D01*
X1299430Y1572521D01*
X1309271Y1573816D01*
X1318442Y1577615D01*
X1326318Y1583658D01*
X1332046Y1591123D01*
X1363761D01*
X1371194Y1592601D01*
X1377495Y1596812D01*
X1421260Y1640577D01*
X1445836D01*
X1450195Y1634895D01*
Y1620104D01*
X1444553Y1612752D01*
X1441006Y1604189D01*
X1439796Y1595000D01*
X1441006Y1585811D01*
X1444553Y1577248D01*
X1450195Y1569895D01*
X1457548Y1564253D01*
X1466111Y1560706D01*
X1475300Y1559496D01*
X1479172D01*
Y1536312D01*
X1464230D01*
X1457617Y1534996D01*
X1452010Y1531250D01*
X1448264Y1525643D01*
X1446948Y1519030D01*
Y1437530D01*
X1448264Y1430917D01*
X1452010Y1425310D01*
X1457617Y1421564D01*
X1464230Y1420248D01*
X1534237D01*
X1534820Y1420132D01*
X1760172D01*
Y1243419D01*
X1745790Y1229037D01*
X1695543D01*
X1686623Y1227263D01*
X1679062Y1222210D01*
X1593879Y1137028D01*
X1588826Y1129466D01*
X1587052Y1120547D01*
Y957361D01*
X1522839Y893148D01*
X1492840D01*
X1492258Y893032D01*
X1422250D01*
X1415636Y891717D01*
X1410030Y887971D01*
X1406283Y882364D01*
X1404968Y875750D01*
Y799250D01*
X1406283Y792637D01*
X1410030Y787030D01*
X1415636Y783284D01*
X1422250Y781968D01*
X1469532D01*
Y679860D01*
X1247391D01*
Y715803D01*
X1246076Y722416D01*
X1242330Y728023D01*
X1236723Y731769D01*
X1230110Y733085D01*
X1177827D01*
Y739316D01*
X1176053Y748235D01*
X1171000Y755797D01*
X1154945Y771852D01*
X1156174Y781562D01*
X1173174Y789738D01*
X1175016Y789561D01*
X1182391Y786506D01*
X1191580Y785296D01*
X1200769Y786506D01*
X1209332Y790053D01*
X1216685Y795695D01*
X1222327Y803048D01*
X1225874Y811611D01*
X1227084Y820800D01*
Y833891D01*
X1273228D01*
Y799250D01*
X1274544Y792636D01*
X1278290Y787030D01*
X1283897Y783283D01*
X1290510Y781968D01*
X1367010D01*
X1373624Y783283D01*
X1379230Y787030D01*
X1382977Y792636D01*
X1384292Y799250D01*
Y875750D01*
X1382977Y882363D01*
X1379230Y887970D01*
X1373624Y891717D01*
X1367010Y893032D01*
X1290510D01*
X1283897Y891717D01*
X1278290Y887970D01*
X1274544Y882363D01*
X1273228Y875750D01*
Y875327D01*
X1227084D01*
Y915800D01*
X1225874Y924989D01*
X1222327Y933552D01*
X1216685Y940905D01*
X1209332Y946547D01*
X1200769Y950094D01*
X1191580Y951304D01*
X1182391Y950094D01*
X1173828Y946547D01*
X1166475Y940905D01*
X1151685D01*
X1144332Y946547D01*
X1135769Y950094D01*
X1126580Y951304D01*
X1117391Y950094D01*
X1108828Y946547D01*
X1101475Y940905D01*
X1086685D01*
X1079332Y946547D01*
X1070769Y950094D01*
X1061580Y951304D01*
X1052391Y950094D01*
X1043828Y946547D01*
X1036475Y940905D01*
X1021685D01*
X1014332Y946547D01*
X1005769Y950094D01*
X1002930Y950468D01*
Y868300D01*
Y786132D01*
X1005769Y786506D01*
X1014332Y790053D01*
X1021685Y795695D01*
X1036475D01*
X1043828Y790053D01*
X1052391Y786506D01*
X1061580Y785296D01*
X1070769Y786506D01*
X1079332Y790053D01*
X1085774Y794996D01*
X1090035Y794162D01*
X1103272Y788105D01*
Y767255D01*
X1105046Y758336D01*
X1110099Y750774D01*
X1131212Y729661D01*
Y681913D01*
X1131328Y681329D01*
Y639303D01*
X1132643Y632689D01*
X1136389Y627082D01*
X1141996Y623336D01*
X1148610Y622021D01*
X1230110D01*
X1236723Y623336D01*
X1242330Y627082D01*
X1246076Y632689D01*
X1246186Y633245D01*
X1375091D01*
Y584182D01*
X1363137Y580555D01*
X1348336Y572644D01*
X1335362Y561997D01*
X1324715Y549024D01*
X1316804Y534222D01*
X1311932Y518162D01*
X1310287Y501460D01*
X1311932Y484758D01*
X1316804Y468698D01*
X1324715Y453896D01*
X1335362Y440923D01*
X1348336Y430276D01*
X1363137Y422365D01*
X1379197Y417493D01*
X1395899Y415848D01*
X1400899D01*
X1417601Y417493D01*
X1433662Y422365D01*
X1448463Y430276D01*
X1461436Y440923D01*
X1472083Y453896D01*
X1479994Y468698D01*
X1484866Y484758D01*
X1486511Y501460D01*
X1484866Y518162D01*
X1479994Y534222D01*
X1472083Y549024D01*
X1461436Y561997D01*
X1448463Y572644D01*
X1433662Y580555D01*
X1421707Y584182D01*
Y633245D01*
X1483186D01*
X1520257Y596173D01*
X1527819Y591120D01*
X1536738Y589346D01*
X1689167D01*
X1692610Y581034D01*
X1702660Y567936D01*
X1715758Y557886D01*
X1731010Y551568D01*
X1747378Y549413D01*
X1763746Y551568D01*
X1778998Y557886D01*
X1792096Y567936D01*
X1802146Y581034D01*
X1805589Y589346D01*
X1843068D01*
Y539571D01*
X1844384Y532957D01*
X1848130Y527350D01*
X1853737Y523604D01*
X1860350Y522289D01*
X1936851D01*
X1937265Y522371D01*
X2007781Y522372D01*
X2008051Y522318D01*
X2057550D01*
X2063579Y523517D01*
X2068689Y526932D01*
X2072104Y532042D01*
X2073303Y538071D01*
Y622571D01*
X2072104Y628599D01*
X2068689Y633709D01*
X2063579Y637124D01*
X2057550Y638323D01*
X2049107D01*
Y744333D01*
X2074800D01*
X2080926Y745551D01*
X2086119Y749021D01*
X2089589Y754215D01*
X2090808Y760340D01*
Y859340D01*
X2089589Y865466D01*
X2086119Y870659D01*
X2080926Y874130D01*
X2074800Y875348D01*
X2020800D01*
X2020505Y875289D01*
X1947392Y875289D01*
X1946970Y875373D01*
X1865470D01*
X1858857Y874057D01*
X1853250Y870311D01*
X1849504Y864704D01*
X1848189Y858091D01*
Y781591D01*
X1849504Y774977D01*
X1853250Y769370D01*
X1858857Y765624D01*
X1865470Y764309D01*
X1893272D01*
X1893273Y650925D01*
X1880700Y638353D01*
X1860350D01*
X1853737Y637037D01*
X1852128Y635962D01*
X1805589D01*
X1802146Y644275D01*
X1792096Y657372D01*
X1778998Y667422D01*
X1763746Y673740D01*
X1747378Y675895D01*
X1731010Y673740D01*
X1715758Y667422D01*
X1702660Y657372D01*
X1692610Y644275D01*
X1689167Y635962D01*
X1546393D01*
X1516148Y666207D01*
Y805160D01*
X1516032Y805742D01*
Y846532D01*
X1532493D01*
X1541413Y848307D01*
X1548974Y853359D01*
X1626841Y931226D01*
X1631894Y938788D01*
X1633668Y947707D01*
Y1110892D01*
X1705197Y1182422D01*
X1755444D01*
X1764364Y1184196D01*
X1771925Y1189248D01*
X1799961Y1217284D01*
X1805014Y1224846D01*
X1806788Y1233765D01*
Y1443440D01*
Y1824485D01*
X2155129Y2172827D01*
X3033690D01*
X3042609Y2174601D01*
X3050171Y2179654D01*
X3081901Y2211383D01*
X3086953Y2218945D01*
X3088728Y2227865D01*
Y2248248D01*
X3141010D01*
X3147623Y2249563D01*
X3153230Y2253310D01*
X3156976Y2258916D01*
X3158292Y2265530D01*
Y2342030D01*
X3156976Y2348644D01*
X3153230Y2354250D01*
X3147623Y2357997D01*
X3147371Y2358047D01*
Y2404708D01*
X3165490Y2422828D01*
X3175515Y2417469D01*
X3192273Y2412386D01*
X3209700Y2410670D01*
X3227127Y2412386D01*
X3243885Y2417469D01*
X3259329Y2425724D01*
X3272866Y2436834D01*
X3283975Y2450371D01*
X3292230Y2465815D01*
X3297314Y2482572D01*
X3299030Y2500000D01*
X3297314Y2517427D01*
X3292230Y2534185D01*
X3283975Y2549629D01*
X3272866Y2563166D01*
X3259329Y2574275D01*
X3243885Y2582530D01*
X3227127Y2587614D01*
X3209700Y2589330D01*
D02*
G37*
G36*
X4816066Y2601869D02*
X4707166D01*
X4701996Y2600841D01*
X4697613Y2597912D01*
X4694685Y2593529D01*
X4693657Y2588360D01*
Y2359459D01*
X4694685Y2354289D01*
X4697613Y2349907D01*
X4701996Y2346978D01*
X4707166Y2345950D01*
X4816066D01*
X4821236Y2346978D01*
X4825619Y2349907D01*
X4828547Y2354289D01*
X4829576Y2359459D01*
Y2588360D01*
X4828547Y2593529D01*
X4825619Y2597912D01*
X4821236Y2600841D01*
X4816066Y2601869D01*
D02*
G37*
G36*
X4617946D02*
X4509046D01*
X4503876Y2600841D01*
X4499493Y2597912D01*
X4496565Y2593529D01*
X4495537Y2588360D01*
Y2359459D01*
X4496565Y2354289D01*
X4499493Y2349907D01*
X4503876Y2346978D01*
X4509046Y2345950D01*
X4617946D01*
X4623116Y2346978D01*
X4627499Y2349907D01*
X4630427Y2354289D01*
X4631456Y2359459D01*
Y2588360D01*
X4630427Y2593529D01*
X4627499Y2597912D01*
X4623116Y2600841D01*
X4617946Y2601869D01*
D02*
G37*
G36*
X4216626D02*
X4107726D01*
X4102556Y2600841D01*
X4098173Y2597912D01*
X4095245Y2593529D01*
X4094217Y2588360D01*
Y2359459D01*
X4095245Y2354289D01*
X4098173Y2349907D01*
X4102556Y2346978D01*
X4107726Y2345950D01*
X4216626D01*
X4221796Y2346978D01*
X4226179Y2349907D01*
X4229107Y2354289D01*
X4230136Y2359459D01*
Y2588360D01*
X4229107Y2593529D01*
X4226179Y2597912D01*
X4221796Y2600841D01*
X4216626Y2601869D01*
D02*
G37*
G36*
X4018506D02*
X3909606D01*
X3904436Y2600841D01*
X3900053Y2597912D01*
X3897125Y2593529D01*
X3896097Y2588360D01*
Y2359459D01*
X3897125Y2354289D01*
X3900053Y2349907D01*
X3904436Y2346978D01*
X3909606Y2345950D01*
X4018506D01*
X4023676Y2346978D01*
X4028059Y2349907D01*
X4030987Y2354289D01*
X4032016Y2359459D01*
Y2588360D01*
X4030987Y2593529D01*
X4028059Y2597912D01*
X4023676Y2600841D01*
X4018506Y2601869D01*
D02*
G37*
G36*
X3006010Y2359312D02*
X2971610D01*
Y2310130D01*
X3023292D01*
Y2342030D01*
X3021976Y2348644D01*
X3018230Y2354250D01*
X3012623Y2357997D01*
X3006010Y2359312D01*
D02*
G37*
G36*
X2958910D02*
X2924510D01*
X2917897Y2357997D01*
X2912290Y2354250D01*
X2908544Y2348644D01*
X2907228Y2342030D01*
Y2310130D01*
X2958910D01*
Y2359312D01*
D02*
G37*
G36*
X3603366Y2346129D02*
X3495266D01*
Y2284519D01*
X3616876D01*
Y2332619D01*
X3615847Y2337789D01*
X3612919Y2342172D01*
X3608536Y2345100D01*
X3603366Y2346129D01*
D02*
G37*
G36*
X3482566D02*
X3374466D01*
X3369296Y2345100D01*
X3364913Y2342172D01*
X3361985Y2337789D01*
X3360956Y2332619D01*
Y2284519D01*
X3482566D01*
Y2346129D01*
D02*
G37*
G36*
X3023292Y2297430D02*
X2971610D01*
Y2248248D01*
X3006010D01*
X3012623Y2249563D01*
X3018230Y2253310D01*
X3021976Y2258916D01*
X3023292Y2265530D01*
Y2297430D01*
D02*
G37*
G36*
X2958910D02*
X2907228D01*
Y2265530D01*
X2908544Y2258916D01*
X2912290Y2253310D01*
X2917897Y2249563D01*
X2924510Y2248248D01*
X2958910D01*
Y2297430D01*
D02*
G37*
G36*
X3616876Y2271819D02*
X3495266D01*
Y2210210D01*
X3603366D01*
X3608536Y2211238D01*
X3612919Y2214167D01*
X3615847Y2218550D01*
X3616876Y2223719D01*
Y2271819D01*
D02*
G37*
G36*
X3482566D02*
X3360956D01*
Y2223719D01*
X3361985Y2218550D01*
X3364913Y2214167D01*
X3369296Y2211238D01*
X3374466Y2210210D01*
X3482566D01*
Y2271819D01*
D02*
G37*
G36*
X680000Y2238047D02*
X586350D01*
Y2181350D01*
X698047D01*
Y2220000D01*
X696673Y2226906D01*
X692761Y2232761D01*
X686906Y2236673D01*
X680000Y2238047D01*
D02*
G37*
G36*
X1520000D02*
X1426350D01*
Y2181350D01*
X1538047D01*
Y2220000D01*
X1536673Y2226906D01*
X1532761Y2232761D01*
X1526906Y2236673D01*
X1520000Y2238047D01*
D02*
G37*
G36*
X573650D02*
X480000D01*
X473094Y2236673D01*
X467239Y2232761D01*
X463327Y2226906D01*
X461953Y2220000D01*
Y2181350D01*
X573650D01*
Y2238047D01*
D02*
G37*
G36*
X1413650D02*
X1320000D01*
X1313094Y2236673D01*
X1307239Y2232761D01*
X1303327Y2226906D01*
X1301953Y2220000D01*
Y2181350D01*
X1413650D01*
Y2238047D01*
D02*
G37*
G36*
X5284959Y2222296D02*
X5253059D01*
Y2170614D01*
X5302241D01*
Y2205014D01*
X5300926Y2211628D01*
X5297180Y2217235D01*
X5291573Y2220981D01*
X5284959Y2222296D01*
D02*
G37*
G36*
X5240359D02*
X5208459D01*
X5201846Y2220981D01*
X5196239Y2217235D01*
X5192493Y2211628D01*
X5191177Y2205014D01*
Y2170614D01*
X5240359D01*
Y2222296D01*
D02*
G37*
G36*
X1828428Y2202270D02*
X1796528D01*
Y2153088D01*
X1845710D01*
Y2184988D01*
X1844395Y2191601D01*
X1840648Y2197208D01*
X1835042Y2200954D01*
X1828428Y2202270D01*
D02*
G37*
G36*
X1783828D02*
X1751928D01*
X1745315Y2200954D01*
X1739708Y2197208D01*
X1735961Y2191601D01*
X1734646Y2184988D01*
Y2153088D01*
X1783828D01*
Y2202270D01*
D02*
G37*
G36*
X1538047Y2168650D02*
X1426350D01*
Y2111953D01*
X1520000D01*
X1526906Y2113327D01*
X1532761Y2117239D01*
X1536673Y2123094D01*
X1538047Y2130000D01*
Y2168650D01*
D02*
G37*
G36*
X1413650D02*
X1301953D01*
Y2130000D01*
X1303327Y2123094D01*
X1307239Y2117239D01*
X1313094Y2113327D01*
X1320000Y2111953D01*
X1413650D01*
Y2168650D01*
D02*
G37*
G36*
X698047D02*
X586350D01*
Y2111953D01*
X680000D01*
X686906Y2113327D01*
X692761Y2117239D01*
X696673Y2123094D01*
X698047Y2130000D01*
Y2168650D01*
D02*
G37*
G36*
X573650D02*
X461953D01*
Y2130000D01*
X463327Y2123094D01*
X467239Y2117239D01*
X473094Y2113327D01*
X480000Y2111953D01*
X573650D01*
Y2168650D01*
D02*
G37*
G36*
X5302241Y2157914D02*
X5253059D01*
Y2106233D01*
X5284959D01*
X5291573Y2107548D01*
X5297180Y2111294D01*
X5300926Y2116901D01*
X5302241Y2123514D01*
Y2157914D01*
D02*
G37*
G36*
X5240359D02*
X5191177D01*
Y2123514D01*
X5192493Y2116901D01*
X5196239Y2111294D01*
X5201846Y2107548D01*
X5208459Y2106233D01*
X5240359D01*
Y2157914D01*
D02*
G37*
G36*
X1845710Y2140388D02*
X1796528D01*
Y2091206D01*
X1828428D01*
X1835042Y2092521D01*
X1840648Y2096268D01*
X1844395Y2101874D01*
X1845710Y2108488D01*
Y2140388D01*
D02*
G37*
G36*
X1783828D02*
X1734646D01*
Y2108488D01*
X1735961Y2101874D01*
X1739708Y2096268D01*
X1745315Y2092521D01*
X1751928Y2091206D01*
X1783828D01*
Y2140388D01*
D02*
G37*
G36*
X3809329Y2677181D02*
X3537252D01*
X3529819Y2675703D01*
X3523517Y2671492D01*
X3307978Y2455952D01*
X3303767Y2449651D01*
X3302289Y2442218D01*
Y2333621D01*
X3278361Y2309694D01*
X3274151Y2303392D01*
X3272673Y2295959D01*
Y2216226D01*
X3120628Y2064182D01*
X2538739D01*
X2538738Y2064182D01*
X2531305Y2062703D01*
X2525004Y2058493D01*
X2378901Y1912390D01*
X2369573Y1913618D01*
X2359731Y1912323D01*
X2350560Y1908524D01*
X2342685Y1902481D01*
X2336642Y1894606D01*
X2332843Y1885435D01*
X2331547Y1875593D01*
X2332775Y1866264D01*
X2275934Y1809423D01*
X2200293D01*
X2192745Y1827203D01*
X2200832Y1835577D01*
X2221467D01*
X2228900Y1837055D01*
X2235201Y1841266D01*
X2317064Y1923128D01*
X2326393Y1921900D01*
X2336234Y1923196D01*
X2345405Y1926995D01*
X2353281Y1933038D01*
X2359323Y1940913D01*
X2363122Y1950084D01*
X2364418Y1959925D01*
X2363190Y1969254D01*
X2476678Y2082742D01*
X3082605D01*
X3090039Y2084221D01*
X3096340Y2088431D01*
X3213682Y2205773D01*
X3217892Y2212075D01*
X3219371Y2219507D01*
X3219370Y2219509D01*
Y2302902D01*
X3236792Y2320323D01*
X3246120Y2319095D01*
X3255962Y2320390D01*
X3265133Y2324189D01*
X3273008Y2330232D01*
X3279051Y2338107D01*
X3282850Y2347278D01*
X3284145Y2357120D01*
X3282850Y2366962D01*
X3279051Y2376133D01*
X3273008Y2384008D01*
X3265133Y2390051D01*
X3255962Y2393850D01*
X3246120Y2395145D01*
X3236278Y2393850D01*
X3227107Y2390051D01*
X3219232Y2384008D01*
X3213189Y2376133D01*
X3209390Y2366962D01*
X3208095Y2357120D01*
X3209323Y2347791D01*
X3186213Y2324681D01*
X3182003Y2318380D01*
X3180524Y2310947D01*
Y2227553D01*
X3074560Y2121589D01*
X2468633D01*
X2461200Y2120110D01*
X2454898Y2115900D01*
X2335721Y1996723D01*
X2326393Y1997951D01*
X2316551Y1996655D01*
X2307380Y1992856D01*
X2299505Y1986813D01*
X2293462Y1978938D01*
X2289663Y1969767D01*
X2288367Y1959925D01*
X2289595Y1950597D01*
X2213422Y1874423D01*
X2189765D01*
X2185405Y1880105D01*
Y1894895D01*
X2191047Y1902248D01*
X2194594Y1910811D01*
X2195804Y1920000D01*
X2194594Y1929189D01*
X2191047Y1937752D01*
X2185405Y1945105D01*
Y1959895D01*
X2191047Y1967248D01*
X2194594Y1975811D01*
X2194968Y1978650D01*
X2112800D01*
X2030632D01*
X2031006Y1975811D01*
X2034553Y1967248D01*
X2040195Y1959895D01*
Y1945105D01*
X2034553Y1937752D01*
X2031006Y1929189D01*
X2029797Y1920000D01*
X2031006Y1910811D01*
X2034553Y1902248D01*
X2040195Y1894895D01*
Y1880104D01*
X2034553Y1872752D01*
X2031006Y1864189D01*
X2029797Y1855000D01*
X2031006Y1845811D01*
X2034553Y1837248D01*
X2040195Y1829895D01*
Y1815105D01*
X2034553Y1807752D01*
X2031006Y1799189D01*
X2029797Y1790000D01*
X2031006Y1780811D01*
X2034553Y1772248D01*
X2040195Y1764895D01*
Y1750104D01*
X2034553Y1742752D01*
X2031006Y1734189D01*
X2029797Y1725000D01*
X2031006Y1715811D01*
X2034553Y1707248D01*
X2040195Y1699895D01*
Y1685105D01*
X2034553Y1677752D01*
X2031006Y1669189D01*
X2029797Y1660000D01*
X2031006Y1650811D01*
X2034553Y1642248D01*
X2040195Y1634895D01*
Y1620104D01*
X2034553Y1612752D01*
X2031006Y1604189D01*
X2029797Y1595000D01*
X2031006Y1585811D01*
X2034553Y1577248D01*
X2040195Y1569895D01*
X2047548Y1564253D01*
X2056111Y1560706D01*
X2065300Y1559496D01*
X2108473D01*
Y1536312D01*
X2096120D01*
X2089507Y1534996D01*
X2083900Y1531250D01*
X2080154Y1525643D01*
X2078838Y1519030D01*
Y1471877D01*
X2023914D01*
X2021543Y1477600D01*
X2011493Y1490698D01*
X1998395Y1500748D01*
X1983143Y1507066D01*
X1966775Y1509221D01*
X1950407Y1507066D01*
X1935154Y1500748D01*
X1922057Y1490698D01*
X1912007Y1477600D01*
X1905689Y1462348D01*
X1903534Y1445980D01*
X1905689Y1429612D01*
X1908059Y1423889D01*
X1865048Y1380878D01*
X1859434Y1372476D01*
X1857463Y1362565D01*
Y1133125D01*
X1853250Y1130311D01*
X1849504Y1124704D01*
X1848189Y1118090D01*
Y1043898D01*
X1848147Y1043690D01*
Y1017997D01*
X1799740Y969590D01*
X1744153D01*
X1736720Y968112D01*
X1730418Y963901D01*
X1596626Y830109D01*
X1592415Y823807D01*
X1590937Y816374D01*
Y728576D01*
X1583472Y722848D01*
X1577429Y714973D01*
X1573630Y705802D01*
X1572335Y695960D01*
X1573630Y686118D01*
X1577429Y676947D01*
X1583472Y669072D01*
X1591347Y663029D01*
X1600518Y659230D01*
X1610360Y657935D01*
X1620202Y659230D01*
X1629373Y663029D01*
X1637248Y669072D01*
X1643291Y676947D01*
X1647090Y686118D01*
X1648385Y695960D01*
X1647090Y705802D01*
X1643291Y714973D01*
X1637248Y722848D01*
X1629783Y728576D01*
Y808329D01*
X1752198Y930744D01*
X1807785D01*
X1815218Y932222D01*
X1821520Y936433D01*
X1881305Y996218D01*
X1885515Y1002519D01*
X1886993Y1009952D01*
Y1024308D01*
X1946970D01*
X1953584Y1025624D01*
X1959191Y1029370D01*
X1962937Y1034977D01*
X1964252Y1041590D01*
Y1053943D01*
X2004793D01*
Y1030340D01*
X2006011Y1024215D01*
X2009481Y1019021D01*
X2014674Y1015551D01*
X2020800Y1014333D01*
X2074800D01*
X2080926Y1015551D01*
X2086119Y1019021D01*
X2089589Y1024215D01*
X2090808Y1030340D01*
Y1129340D01*
X2089589Y1135466D01*
X2086119Y1140659D01*
X2080926Y1144130D01*
X2074800Y1145348D01*
X2020800D01*
X2014674Y1144130D01*
X2009481Y1140659D01*
X2006011Y1135466D01*
X2004793Y1129340D01*
Y1105738D01*
X1964252D01*
Y1118090D01*
X1962937Y1124704D01*
X1959191Y1130311D01*
X1953584Y1134057D01*
X1946970Y1135372D01*
X1909258D01*
Y1351838D01*
X1944684Y1387264D01*
X1950407Y1384894D01*
X1966775Y1382739D01*
X1983143Y1384894D01*
X1998395Y1391212D01*
X2011493Y1401262D01*
X2021543Y1414359D01*
X2023914Y1420082D01*
X2102070D01*
X2102904Y1420248D01*
X2165872D01*
X2166662Y1420091D01*
X2301588D01*
Y1381150D01*
X2302903Y1374536D01*
X2306650Y1368930D01*
X2312256Y1365183D01*
X2318870Y1363868D01*
X2331222D01*
Y1315964D01*
X2333194Y1306054D01*
X2338808Y1297652D01*
X2400085Y1236374D01*
Y917870D01*
X2401859Y908950D01*
X2406912Y901389D01*
X2476582Y831719D01*
X2484143Y826666D01*
X2493063Y824892D01*
X2718616D01*
X2838285Y705223D01*
X2845847Y700170D01*
X2854767Y698396D01*
X5141648D01*
X5150568Y700170D01*
X5158129Y705223D01*
X5228930Y776023D01*
X5233982Y783585D01*
X5235757Y792504D01*
Y860578D01*
X5360850Y985672D01*
X5365903Y993233D01*
X5367677Y1002153D01*
Y1013738D01*
X5414959D01*
X5421573Y1015054D01*
X5427180Y1018800D01*
X5430926Y1024407D01*
X5432241Y1031020D01*
Y1107520D01*
X5430926Y1114134D01*
X5427180Y1119740D01*
X5421573Y1123487D01*
X5414959Y1124802D01*
X5400017D01*
Y1221877D01*
X5414959D01*
X5421573Y1223193D01*
X5427180Y1226939D01*
X5430926Y1232546D01*
X5432241Y1239159D01*
Y1315660D01*
X5430926Y1322273D01*
X5427180Y1327880D01*
X5421573Y1331626D01*
X5414959Y1332941D01*
X5400017D01*
Y2207991D01*
X5398243Y2216911D01*
X5393190Y2224472D01*
X5336758Y2280905D01*
X5329196Y2285958D01*
X5320277Y2287732D01*
X5302241D01*
Y2340014D01*
X5300926Y2346628D01*
X5297180Y2352234D01*
X5291573Y2355981D01*
X5284959Y2357296D01*
X5208459D01*
X5201846Y2355981D01*
X5196239Y2352234D01*
X5192493Y2346628D01*
X5191177Y2340014D01*
Y2322494D01*
X5158976D01*
Y2330079D01*
X5157947Y2335249D01*
X5155019Y2339632D01*
X5150636Y2342560D01*
X5145466Y2343589D01*
X4955683D01*
Y2474308D01*
X4974510D01*
X4981123Y2475623D01*
X4986730Y2479370D01*
X4990476Y2484976D01*
X4991792Y2491590D01*
Y2568090D01*
X4990476Y2574704D01*
X4986730Y2580310D01*
X4981123Y2584057D01*
X4974510Y2585372D01*
X4898010D01*
X4891396Y2584057D01*
X4885790Y2580310D01*
X4882043Y2574704D01*
X4880728Y2568090D01*
Y2491590D01*
X4882043Y2484976D01*
X4885790Y2479370D01*
X4891396Y2475623D01*
X4898010Y2474308D01*
X4916837D01*
Y2343589D01*
X4916566D01*
X4911396Y2342560D01*
X4907013Y2339632D01*
X4904085Y2335249D01*
X4903056Y2330079D01*
Y2221179D01*
X4904085Y2216010D01*
X4907013Y2211627D01*
X4911396Y2208698D01*
X4916566Y2207670D01*
X5145466D01*
X5150636Y2208698D01*
X5155019Y2211627D01*
X5157947Y2216010D01*
X5158976Y2221179D01*
Y2275878D01*
X5191177D01*
Y2258514D01*
X5192493Y2251901D01*
X5196239Y2246294D01*
X5201846Y2242548D01*
X5208459Y2241232D01*
X5278466D01*
X5279049Y2241116D01*
X5310622D01*
X5353402Y2198337D01*
Y1332941D01*
X5338459D01*
X5331846Y1331626D01*
X5326239Y1327880D01*
X5322493Y1322273D01*
X5321177Y1315660D01*
Y1239159D01*
X5322493Y1232546D01*
X5326239Y1226939D01*
X5331846Y1223193D01*
X5338459Y1221877D01*
X5353402D01*
Y1124802D01*
X5338459D01*
X5331846Y1123487D01*
X5326239Y1119740D01*
X5322493Y1114134D01*
X5321177Y1107520D01*
Y1037512D01*
X5321061Y1036930D01*
Y1011807D01*
X5195968Y886713D01*
X5190915Y879152D01*
X5189141Y870232D01*
Y802159D01*
X5131994Y745011D01*
X2864421D01*
X2747694Y861739D01*
Y1045386D01*
X2808773Y1106465D01*
X2934943D01*
X2942376Y1107943D01*
X2948677Y1112154D01*
X2994085Y1157561D01*
X2998295Y1163863D01*
X2999774Y1171296D01*
Y1368232D01*
X3097833Y1466291D01*
X3102044Y1472592D01*
X3103522Y1480025D01*
Y1521040D01*
X3158499D01*
X3165113Y1522355D01*
X3170719Y1526102D01*
X3174466Y1531708D01*
X3175781Y1538322D01*
Y1614822D01*
X3174466Y1621435D01*
X3170719Y1627042D01*
X3165113Y1630788D01*
X3158499Y1632104D01*
X3081999D01*
X3075386Y1630788D01*
X3069779Y1627042D01*
X3066032Y1621435D01*
X3064717Y1614822D01*
Y1540629D01*
X3064676Y1540422D01*
Y1488071D01*
X2966616Y1390011D01*
X2962406Y1383710D01*
X2960928Y1376277D01*
Y1179341D01*
X2926898Y1145311D01*
X2800727D01*
X2793294Y1143833D01*
X2786993Y1139622D01*
X2714536Y1067166D01*
X2710326Y1060864D01*
X2708847Y1053431D01*
Y871508D01*
X2502717D01*
X2446701Y927524D01*
Y1223783D01*
X2517282D01*
X2519365Y1216918D01*
X2527276Y1202116D01*
X2537923Y1189143D01*
X2550897Y1178496D01*
X2565698Y1170585D01*
X2581758Y1165713D01*
X2598460Y1164068D01*
X2603460D01*
X2620162Y1165713D01*
X2636222Y1170585D01*
X2651023Y1178496D01*
X2663997Y1189143D01*
X2674644Y1202116D01*
X2682555Y1216918D01*
X2687427Y1232978D01*
X2689072Y1249680D01*
X2687427Y1266382D01*
X2682555Y1282442D01*
X2674644Y1297244D01*
X2663997Y1310217D01*
X2651023Y1320864D01*
X2636222Y1328775D01*
X2620162Y1333647D01*
X2603460Y1335292D01*
X2598460D01*
X2581758Y1333647D01*
X2565698Y1328775D01*
X2550897Y1320864D01*
X2537923Y1310217D01*
X2527276Y1297244D01*
X2519365Y1282442D01*
X2517282Y1275578D01*
X2434131D01*
X2383018Y1326692D01*
Y1363868D01*
X2395370D01*
X2401984Y1365183D01*
X2407590Y1368930D01*
X2411337Y1374536D01*
X2412652Y1381150D01*
Y1457650D01*
X2411337Y1464264D01*
X2407590Y1469870D01*
X2401984Y1473617D01*
X2395370Y1474932D01*
X2318870D01*
X2312256Y1473617D01*
X2309667Y1471886D01*
X2189902D01*
Y1519030D01*
X2188587Y1525643D01*
X2184841Y1531250D01*
X2179234Y1534996D01*
X2172620Y1536312D01*
X2160268D01*
Y1559496D01*
X2160300D01*
X2169489Y1560706D01*
X2178052Y1564253D01*
X2185405Y1569895D01*
X2191047Y1577248D01*
X2194594Y1585811D01*
X2195804Y1595000D01*
X2194594Y1604189D01*
X2191047Y1612752D01*
X2185405Y1620105D01*
Y1624603D01*
X2200832Y1640577D01*
X2408621D01*
X2416054Y1642055D01*
X2422356Y1646266D01*
X2444064Y1667974D01*
X2453393Y1666746D01*
X2463234Y1668042D01*
X2472405Y1671840D01*
X2480281Y1677883D01*
X2486323Y1685759D01*
X2490122Y1694930D01*
X2491418Y1704771D01*
X2490190Y1714100D01*
X2686027Y1909937D01*
X3147236D01*
Y1891337D01*
X3128409D01*
X3121796Y1890022D01*
X3116189Y1886276D01*
X3112443Y1880669D01*
X3111127Y1874055D01*
Y1797555D01*
X3112443Y1790942D01*
X3116189Y1785335D01*
X3121796Y1781589D01*
X3128409Y1780273D01*
X3204909D01*
X3211523Y1781589D01*
X3217129Y1785335D01*
X3220876Y1790942D01*
X3222191Y1797555D01*
Y1874055D01*
X3220876Y1880669D01*
X3217129Y1886276D01*
X3211523Y1890022D01*
X3204909Y1891337D01*
X3186082D01*
Y1909937D01*
X3224385D01*
X3231818Y1911416D01*
X3238120Y1915626D01*
X3331930Y2009436D01*
X3440266D01*
X3440839Y2009550D01*
X3603366D01*
X3608536Y2010578D01*
X3612919Y2013507D01*
X3615847Y2017890D01*
X3616876Y2023059D01*
Y2131959D01*
X3617021Y2132136D01*
X3695361D01*
X4162502Y1664995D01*
X4168804Y1660785D01*
X4176237Y1659306D01*
X4903056D01*
Y1624279D01*
X4904085Y1619110D01*
X4907013Y1614727D01*
X4911396Y1611798D01*
X4916566Y1610770D01*
X5145466D01*
X5150636Y1611798D01*
X5155019Y1614727D01*
X5157947Y1619110D01*
X5158976Y1624279D01*
Y1733179D01*
X5157947Y1738349D01*
X5155019Y1742732D01*
X5150636Y1745660D01*
X5145466Y1746689D01*
X4916566D01*
X4911396Y1745660D01*
X4907013Y1742732D01*
X4904085Y1738349D01*
X4903056Y1733179D01*
Y1698153D01*
X4184282D01*
X3717141Y2165294D01*
X3710840Y2169504D01*
X3703407Y2170982D01*
X3335169D01*
X3327736Y2169504D01*
X3321435Y2165294D01*
X3161799Y2005658D01*
X2608863D01*
X2601430Y2004179D01*
X2595129Y1999969D01*
X2422081Y1826922D01*
X2412753Y1828150D01*
X2402911Y1826854D01*
X2393740Y1823055D01*
X2385865Y1817012D01*
X2379822Y1809137D01*
X2376023Y1799966D01*
X2374727Y1790124D01*
X2375955Y1780796D01*
X2339583Y1744423D01*
X2200292D01*
X2192745Y1762203D01*
X2200832Y1770577D01*
X2283980D01*
X2291413Y1772055D01*
X2297714Y1776266D01*
X2360244Y1838796D01*
X2369573Y1837568D01*
X2379414Y1838863D01*
X2388585Y1842662D01*
X2396461Y1848705D01*
X2402503Y1856580D01*
X2406302Y1865751D01*
X2407598Y1875593D01*
X2406370Y1884922D01*
X2546784Y2025335D01*
X3128673D01*
X3136107Y2026814D01*
X3142408Y2031024D01*
X3305830Y2194446D01*
X3310040Y2200748D01*
X3311519Y2208181D01*
Y2287914D01*
X3335446Y2311841D01*
X3339657Y2318142D01*
X3341135Y2325575D01*
Y2434173D01*
X3545297Y2638335D01*
X3801284D01*
X3815483Y2624136D01*
Y2602015D01*
X3815306Y2601869D01*
X3706406D01*
X3701236Y2600841D01*
X3696853Y2597912D01*
X3693925Y2593529D01*
X3692897Y2588360D01*
Y2359459D01*
X3693925Y2354289D01*
X3696853Y2349907D01*
X3701236Y2346978D01*
X3706406Y2345950D01*
X3815306D01*
X3815483Y2345804D01*
Y2304274D01*
X3816962Y2296841D01*
X3821172Y2290539D01*
X4050476Y2061235D01*
X4056778Y2057025D01*
X4064211Y2055546D01*
X4903056D01*
Y2020519D01*
X4904085Y2015350D01*
X4907013Y2010967D01*
X4911396Y2008038D01*
X4916566Y2007010D01*
X5145466D01*
X5150636Y2008038D01*
X5155019Y2010967D01*
X5157947Y2015350D01*
X5158976Y2020519D01*
Y2129419D01*
X5157947Y2134589D01*
X5155019Y2138972D01*
X5150636Y2141900D01*
X5145466Y2142929D01*
X4916566D01*
X4911396Y2141900D01*
X4907013Y2138972D01*
X4904085Y2134589D01*
X4903056Y2129419D01*
Y2094393D01*
X4072256D01*
X3854329Y2312319D01*
Y2632180D01*
X3854330Y2632181D01*
X3852851Y2639614D01*
X3848641Y2645915D01*
X3823064Y2671492D01*
X3816762Y2675703D01*
X3809329Y2677181D01*
D02*
G37*
G36*
X2160300Y2020503D02*
X2119150D01*
Y1991350D01*
X2194968D01*
X2194594Y1994189D01*
X2191047Y2002752D01*
X2185405Y2010105D01*
X2178052Y2015747D01*
X2169489Y2019294D01*
X2160300Y2020503D01*
D02*
G37*
G36*
X2106450D02*
X2065300D01*
X2056111Y2019294D01*
X2047548Y2015747D01*
X2040195Y2010105D01*
X2034553Y2002752D01*
X2031006Y1994189D01*
X2030633Y1991350D01*
X2106450D01*
Y2020503D01*
D02*
G37*
G36*
X3074909Y1891337D02*
X3043009D01*
Y1842155D01*
X3092191D01*
Y1874055D01*
X3090876Y1880669D01*
X3087129Y1886276D01*
X3081523Y1890022D01*
X3074909Y1891337D01*
D02*
G37*
G36*
X3030309D02*
X2998409D01*
X2991796Y1890022D01*
X2986189Y1886276D01*
X2982443Y1880669D01*
X2981127Y1874055D01*
Y1842155D01*
X3030309D01*
Y1891337D01*
D02*
G37*
G36*
X3603366Y1947349D02*
X3374466D01*
X3369296Y1946320D01*
X3364913Y1943392D01*
X3361985Y1939009D01*
X3360956Y1933839D01*
Y1861050D01*
X3328352D01*
X3320919Y1859571D01*
X3314618Y1855361D01*
X3216040Y1756783D01*
X3018430D01*
X3010997Y1755305D01*
X3004696Y1751094D01*
X2786274Y1532673D01*
X2412652D01*
Y1587650D01*
X2411337Y1594264D01*
X2407590Y1599870D01*
X2401984Y1603617D01*
X2395370Y1604932D01*
X2318870D01*
X2312256Y1603617D01*
X2306650Y1599870D01*
X2302903Y1594264D01*
X2301588Y1587650D01*
Y1511150D01*
X2302903Y1504536D01*
X2306650Y1498930D01*
X2312256Y1495183D01*
X2318870Y1493868D01*
X2393063D01*
X2393270Y1493827D01*
X2794320D01*
X2801753Y1495305D01*
X2808054Y1499516D01*
X3026475Y1717937D01*
X3224085D01*
X3231518Y1719415D01*
X3237820Y1723626D01*
X3336397Y1822204D01*
X3361501D01*
X3361985Y1819770D01*
X3364913Y1815387D01*
X3369296Y1812458D01*
X3374466Y1811430D01*
X3603366D01*
X3608536Y1812458D01*
X3612919Y1815387D01*
X3615847Y1819770D01*
X3616876Y1824939D01*
Y1933839D01*
X3615847Y1939009D01*
X3612919Y1943392D01*
X3608536Y1946320D01*
X3603366Y1947349D01*
D02*
G37*
G36*
X3402935Y2454325D02*
X3393093Y2453029D01*
X3383922Y2449230D01*
X3376047Y2443187D01*
X3370004Y2435312D01*
X3366205Y2426141D01*
X3364909Y2416299D01*
X3366205Y2406457D01*
X3370004Y2397287D01*
X3376047Y2389411D01*
X3383922Y2383368D01*
X3393093Y2379570D01*
X3402935Y2378274D01*
X3412776Y2379570D01*
X3421947Y2383368D01*
X3429822Y2389411D01*
X3435550Y2396876D01*
X3583888D01*
X3634914Y2345850D01*
Y2330479D01*
X3636393Y2323046D01*
X3640603Y2316745D01*
X4094233Y1863116D01*
X4094233Y1863115D01*
X4100535Y1858905D01*
X4107968Y1857426D01*
X4107969Y1857426D01*
X4903056D01*
Y1822399D01*
X4904085Y1817230D01*
X4907013Y1812847D01*
X4911396Y1809918D01*
X4916566Y1808890D01*
X5145466D01*
X5150636Y1809918D01*
X5155019Y1812847D01*
X5157947Y1817230D01*
X5158976Y1822399D01*
Y1931299D01*
X5157947Y1936469D01*
X5155019Y1940852D01*
X5150636Y1943780D01*
X5145466Y1944809D01*
X4916566D01*
X4911396Y1943780D01*
X4907013Y1940852D01*
X4904085Y1936469D01*
X4903056Y1931299D01*
Y1896273D01*
X4116013D01*
X3673761Y2338525D01*
Y2353894D01*
X3673761Y2353895D01*
X3672282Y2361328D01*
X3668072Y2367630D01*
X3668071Y2367630D01*
X3605668Y2430033D01*
X3599367Y2434244D01*
X3591934Y2435722D01*
X3435550D01*
X3429822Y2443187D01*
X3421947Y2449230D01*
X3412776Y2453029D01*
X3402935Y2454325D01*
D02*
G37*
G36*
X3092191Y1829455D02*
X3043009D01*
Y1780273D01*
X3074909D01*
X3081523Y1781589D01*
X3087129Y1785335D01*
X3090876Y1790942D01*
X3092191Y1797555D01*
Y1829455D01*
D02*
G37*
G36*
X3030309D02*
X2981127D01*
Y1797555D01*
X2982443Y1790942D01*
X2986189Y1785335D01*
X2991796Y1781589D01*
X2998409Y1780273D01*
X3030309D01*
Y1829455D01*
D02*
G37*
G36*
X3605906Y1546029D02*
X3377006D01*
X3371836Y1545000D01*
X3367453Y1542072D01*
X3364525Y1537689D01*
X3363496Y1532519D01*
Y1423619D01*
X3364525Y1418450D01*
X3367453Y1414067D01*
X3371836Y1411138D01*
X3377006Y1410110D01*
X3605906D01*
X3611076Y1411138D01*
X3615459Y1414067D01*
X3618387Y1418450D01*
X3619416Y1423619D01*
Y1532519D01*
X3618387Y1537689D01*
X3615459Y1542072D01*
X3611076Y1545000D01*
X3605906Y1546029D01*
D02*
G37*
G36*
X5145466Y1543489D02*
X4916566D01*
X4911396Y1542460D01*
X4907013Y1539532D01*
X4904085Y1535149D01*
X4903056Y1529979D01*
Y1421079D01*
X4904085Y1415910D01*
X4907013Y1411527D01*
X4911396Y1408598D01*
X4916566Y1407570D01*
X5145466D01*
X5150636Y1408598D01*
X5155019Y1411527D01*
X5157947Y1415910D01*
X5158976Y1421079D01*
Y1529979D01*
X5157947Y1535149D01*
X5155019Y1539532D01*
X5150636Y1542460D01*
X5145466Y1543489D01*
D02*
G37*
G36*
X1540730Y1401312D02*
X1508830D01*
Y1349630D01*
X1558012D01*
Y1384030D01*
X1556697Y1390644D01*
X1552950Y1396250D01*
X1547344Y1399997D01*
X1540730Y1401312D01*
D02*
G37*
G36*
X2172620D02*
X2140720D01*
Y1349630D01*
X2189902D01*
Y1384030D01*
X2188587Y1390644D01*
X2184841Y1396250D01*
X2179234Y1399997D01*
X2172620Y1401312D01*
D02*
G37*
G36*
X2128020D02*
X2096120D01*
X2089507Y1399997D01*
X2083900Y1396250D01*
X2080154Y1390644D01*
X2078838Y1384030D01*
Y1349630D01*
X2128020D01*
Y1401312D01*
D02*
G37*
G36*
X1496130D02*
X1464230D01*
X1457617Y1399997D01*
X1452010Y1396250D01*
X1448264Y1390644D01*
X1446948Y1384030D01*
Y1349630D01*
X1496130D01*
Y1401312D01*
D02*
G37*
G36*
X262578Y1396249D02*
X230677D01*
Y1347067D01*
X279859D01*
Y1378967D01*
X278544Y1385580D01*
X274798Y1391187D01*
X269191Y1394933D01*
X262578Y1396249D01*
D02*
G37*
G36*
X217977D02*
X186077D01*
X179464Y1394933D01*
X173857Y1391187D01*
X170111Y1385580D01*
X168795Y1378967D01*
Y1347067D01*
X217977D01*
Y1396249D01*
D02*
G37*
G36*
X2189902Y1336930D02*
X2140720D01*
Y1285248D01*
X2172620D01*
X2179234Y1286564D01*
X2184841Y1290310D01*
X2188587Y1295917D01*
X2189902Y1302530D01*
Y1336930D01*
D02*
G37*
G36*
X2128020D02*
X2078838D01*
Y1302530D01*
X2080154Y1295917D01*
X2083900Y1290310D01*
X2089507Y1286564D01*
X2096120Y1285248D01*
X2128020D01*
Y1336930D01*
D02*
G37*
G36*
X1558012D02*
X1508830D01*
Y1285248D01*
X1540730D01*
X1547344Y1286564D01*
X1552950Y1290310D01*
X1556697Y1295917D01*
X1558012Y1302530D01*
Y1336930D01*
D02*
G37*
G36*
X1496130D02*
X1446948D01*
Y1302530D01*
X1448264Y1295917D01*
X1452010Y1290310D01*
X1457617Y1286564D01*
X1464230Y1285248D01*
X1496130D01*
Y1336930D01*
D02*
G37*
G36*
X279859Y1334367D02*
X230677D01*
Y1285185D01*
X262578D01*
X269191Y1286500D01*
X274798Y1290246D01*
X278544Y1295853D01*
X279859Y1302467D01*
Y1334367D01*
D02*
G37*
G36*
X217977D02*
X168795D01*
Y1302467D01*
X170111Y1295853D01*
X173857Y1290246D01*
X179464Y1286500D01*
X186077Y1285185D01*
X217977D01*
Y1334367D01*
D02*
G37*
G36*
X2861310Y1334913D02*
Y1256030D01*
X2942447D01*
X2941427Y1266382D01*
X2936555Y1282442D01*
X2928644Y1297243D01*
X2917997Y1310217D01*
X2905023Y1320864D01*
X2890222Y1328775D01*
X2874162Y1333647D01*
X2861310Y1334913D01*
D02*
G37*
G36*
X2848610D02*
X2835758Y1333647D01*
X2819698Y1328775D01*
X2804897Y1320864D01*
X2791923Y1310217D01*
X2781276Y1297243D01*
X2773365Y1282442D01*
X2768493Y1266382D01*
X2767473Y1256030D01*
X2848610D01*
Y1334913D01*
D02*
G37*
G36*
X3795914Y1772202D02*
X3334453D01*
X3327020Y1770724D01*
X3320718Y1766514D01*
X3247895Y1693691D01*
X3044064D01*
X3044062Y1693691D01*
X3036630Y1692212D01*
X3030328Y1688002D01*
X3030328Y1688001D01*
X2714201Y1371874D01*
X2709991Y1365573D01*
X2708512Y1358140D01*
Y1167413D01*
X2645718Y1104620D01*
X2641508Y1098318D01*
X2640030Y1090885D01*
Y1081484D01*
X2544085D01*
X2532058Y1079092D01*
X2521861Y1072279D01*
X2515049Y1062082D01*
X2512656Y1050055D01*
Y941305D01*
X2515049Y929278D01*
X2521861Y919081D01*
X2532058Y912268D01*
X2544085Y909876D01*
X2657835D01*
X2669862Y912268D01*
X2680059Y919081D01*
X2686871Y929278D01*
X2689264Y941305D01*
Y1050055D01*
X2686871Y1062082D01*
X2680059Y1072279D01*
X2684696Y1088660D01*
X2741669Y1145633D01*
X2741669Y1145633D01*
X2745880Y1151935D01*
X2747358Y1159368D01*
X2747358Y1159369D01*
Y1350095D01*
X3052108Y1654844D01*
X3255941D01*
X3263374Y1656323D01*
X3269675Y1660533D01*
X3342498Y1733356D01*
X3363351D01*
X3363496Y1733179D01*
Y1649502D01*
X3344867D01*
X3344866Y1649503D01*
X3337433Y1648024D01*
X3331131Y1643814D01*
X3319463Y1632145D01*
X3286399D01*
X3286192Y1632104D01*
X3211999D01*
X3205386Y1630788D01*
X3199779Y1627042D01*
X3196032Y1621435D01*
X3194717Y1614822D01*
Y1540629D01*
X3194676Y1540422D01*
Y1362864D01*
X3154887Y1323075D01*
X3144222Y1328775D01*
X3128162Y1333647D01*
X3111460Y1335292D01*
X3106460D01*
X3089758Y1333647D01*
X3073698Y1328775D01*
X3058897Y1320864D01*
X3045923Y1310217D01*
X3035276Y1297244D01*
X3027365Y1282442D01*
X3022493Y1266382D01*
X3020848Y1249680D01*
X3022493Y1232978D01*
X3027365Y1216918D01*
X3035276Y1202116D01*
X3045923Y1189143D01*
X3058897Y1178496D01*
X3073698Y1170585D01*
X3089758Y1165713D01*
X3106460Y1164068D01*
X3111460D01*
X3128162Y1165713D01*
X3144222Y1170585D01*
X3159023Y1178496D01*
X3171997Y1189143D01*
X3182644Y1202116D01*
X3190555Y1216918D01*
X3195427Y1232978D01*
X3197072Y1249680D01*
X3195427Y1266382D01*
X3190555Y1282442D01*
X3183114Y1296365D01*
X3227833Y1341085D01*
X3232044Y1347386D01*
X3233522Y1354819D01*
X3233522Y1354820D01*
Y1521040D01*
X3288499D01*
X3295113Y1522355D01*
X3300719Y1526102D01*
X3304466Y1531708D01*
X3305781Y1538322D01*
Y1593299D01*
X3327508D01*
X3334941Y1594777D01*
X3341242Y1598988D01*
X3352911Y1610656D01*
X3442806D01*
X3443378Y1610770D01*
X3605906D01*
X3611076Y1611798D01*
X3615459Y1614727D01*
X3618387Y1619110D01*
X3619416Y1624279D01*
Y1733179D01*
X3619561Y1733356D01*
X3787869D01*
X4257550Y1263675D01*
X4263851Y1259465D01*
X4271284Y1257986D01*
X4903056D01*
Y1222959D01*
X4904085Y1217790D01*
X4907013Y1213407D01*
X4911396Y1210478D01*
X4916566Y1209450D01*
X5145466D01*
X5150636Y1210478D01*
X5155019Y1213407D01*
X5157947Y1217790D01*
X5158976Y1222959D01*
Y1257986D01*
X5191177D01*
Y1239159D01*
X5192493Y1232546D01*
X5196239Y1226939D01*
X5201846Y1223193D01*
X5208459Y1221877D01*
X5284959D01*
X5291573Y1223193D01*
X5297180Y1226939D01*
X5300926Y1232546D01*
X5302241Y1239159D01*
Y1315660D01*
X5300926Y1322273D01*
X5297180Y1327880D01*
X5291573Y1331626D01*
X5284959Y1332941D01*
X5208459D01*
X5201846Y1331626D01*
X5196239Y1327880D01*
X5192493Y1322273D01*
X5191177Y1315660D01*
Y1296833D01*
X5158976D01*
Y1331859D01*
X5157947Y1337029D01*
X5155019Y1341412D01*
X5150636Y1344340D01*
X5145466Y1345369D01*
X4916566D01*
X4911396Y1344340D01*
X4907013Y1341412D01*
X4904085Y1337029D01*
X4903056Y1331859D01*
Y1296833D01*
X4279330D01*
X3809649Y1766514D01*
X3803347Y1770724D01*
X3795914Y1772202D01*
D02*
G37*
G36*
X3605906Y1347909D02*
X3377006D01*
X3371836Y1346880D01*
X3367453Y1343952D01*
X3364525Y1339569D01*
X3363496Y1334399D01*
Y1225499D01*
X3364525Y1220330D01*
X3367453Y1215947D01*
X3371836Y1213018D01*
X3377006Y1211990D01*
X3605906D01*
X3611076Y1213018D01*
X3615459Y1215947D01*
X3618387Y1220330D01*
X3619416Y1225499D01*
Y1334399D01*
X3618387Y1339569D01*
X3615459Y1343952D01*
X3611076Y1346880D01*
X3605906Y1347909D01*
D02*
G37*
G36*
X2942447Y1243330D02*
X2861310D01*
Y1164447D01*
X2874162Y1165712D01*
X2890222Y1170584D01*
X2905023Y1178496D01*
X2917997Y1189143D01*
X2928644Y1202116D01*
X2936555Y1216917D01*
X2941427Y1232978D01*
X2942447Y1243330D01*
D02*
G37*
G36*
X2848610D02*
X2767473D01*
X2768493Y1232978D01*
X2773365Y1216917D01*
X2781276Y1202116D01*
X2791923Y1189143D01*
X2804897Y1178496D01*
X2819698Y1170584D01*
X2835758Y1165712D01*
X2848610Y1164447D01*
Y1243330D01*
D02*
G37*
G36*
X1367010Y1162107D02*
X1335110D01*
Y1112925D01*
X1384292D01*
Y1144825D01*
X1382977Y1151438D01*
X1379230Y1157045D01*
X1373624Y1160791D01*
X1367010Y1162107D01*
D02*
G37*
G36*
X1322410D02*
X1290510D01*
X1283897Y1160791D01*
X1278290Y1157045D01*
X1274544Y1151438D01*
X1273228Y1144825D01*
Y1112925D01*
X1322410D01*
Y1162107D01*
D02*
G37*
G36*
X1811970Y1135372D02*
X1777570D01*
Y1086191D01*
X1829252D01*
Y1118090D01*
X1827937Y1124704D01*
X1824191Y1130311D01*
X1818584Y1134057D01*
X1811970Y1135372D01*
D02*
G37*
G36*
X1764870D02*
X1730471D01*
X1723857Y1134057D01*
X1718250Y1130311D01*
X1714504Y1124704D01*
X1713189Y1118090D01*
Y1086191D01*
X1764870D01*
Y1135372D01*
D02*
G37*
G36*
X1384292Y1100225D02*
X1335110D01*
Y1051043D01*
X1367010D01*
X1373624Y1052358D01*
X1379230Y1056105D01*
X1382977Y1061711D01*
X1384292Y1068325D01*
Y1100225D01*
D02*
G37*
G36*
X1322410D02*
X1273228D01*
Y1068325D01*
X1274544Y1061711D01*
X1278290Y1056105D01*
X1283897Y1052358D01*
X1290510Y1051043D01*
X1322410D01*
Y1100225D01*
D02*
G37*
G36*
X1829252Y1073491D02*
X1777570D01*
Y1024308D01*
X1811970D01*
X1818584Y1025624D01*
X1824191Y1029370D01*
X1827937Y1034977D01*
X1829252Y1041590D01*
Y1073491D01*
D02*
G37*
G36*
X1764870D02*
X1713189D01*
Y1041590D01*
X1714504Y1034977D01*
X1718250Y1029370D01*
X1723857Y1025624D01*
X1730471Y1024308D01*
X1764870D01*
Y1073491D01*
D02*
G37*
G36*
X3605906Y1144709D02*
X3377006D01*
X3371836Y1143680D01*
X3367453Y1140752D01*
X3364525Y1136369D01*
X3363496Y1131199D01*
Y1047522D01*
X3294970D01*
X3287537Y1046044D01*
X3281235Y1041834D01*
X3254505Y1015103D01*
X3194602D01*
X3190555Y1028442D01*
X3182644Y1043244D01*
X3171997Y1056217D01*
X3159023Y1066864D01*
X3144222Y1074775D01*
X3128162Y1079647D01*
X3111460Y1081292D01*
X3106460D01*
X3089758Y1079647D01*
X3073698Y1074775D01*
X3058897Y1066864D01*
X3045923Y1056217D01*
X3035276Y1043244D01*
X3027365Y1028442D01*
X3022493Y1012382D01*
X3020848Y995680D01*
X3022493Y978978D01*
X3027365Y962918D01*
X3035276Y948116D01*
X3045923Y935143D01*
X3058897Y924496D01*
X3073698Y916585D01*
X3089758Y911713D01*
X3106460Y910068D01*
X3111460D01*
X3128162Y911713D01*
X3144222Y916585D01*
X3159023Y924496D01*
X3171997Y935143D01*
X3182644Y948116D01*
X3190555Y962918D01*
X3194602Y976257D01*
X3262550D01*
X3269984Y977735D01*
X3276285Y981946D01*
X3303015Y1008676D01*
X3442806D01*
X3443378Y1008790D01*
X3605906D01*
X3611076Y1009818D01*
X3615459Y1012747D01*
X3618387Y1017130D01*
X3619416Y1022299D01*
Y1131199D01*
X3618387Y1136369D01*
X3615459Y1140752D01*
X3611076Y1143680D01*
X3605906Y1144709D01*
D02*
G37*
G36*
X2264800Y1145348D02*
X2210800D01*
X2204674Y1144130D01*
X2199481Y1140659D01*
X2196011Y1135466D01*
X2194792Y1129340D01*
Y1030340D01*
X2196011Y1024215D01*
X2199481Y1019021D01*
X2204674Y1015551D01*
X2210800Y1014333D01*
X2264800D01*
X2270926Y1015551D01*
X2276119Y1019021D01*
X2279589Y1024215D01*
X2280807Y1030340D01*
Y1129340D01*
X2279589Y1135466D01*
X2276119Y1140659D01*
X2270926Y1144130D01*
X2264800Y1145348D01*
D02*
G37*
G36*
X5145466Y1144709D02*
X4916566D01*
X4911396Y1143680D01*
X4907013Y1140752D01*
X4904085Y1136369D01*
X4903056Y1131199D01*
Y1022299D01*
X4904085Y1017130D01*
X4907013Y1012747D01*
X4911396Y1009818D01*
X4916566Y1008790D01*
X5145466D01*
X5150636Y1009818D01*
X5155019Y1012747D01*
X5157947Y1017130D01*
X5158976Y1022299D01*
Y1131199D01*
X5157947Y1136369D01*
X5155019Y1140752D01*
X5150636Y1143680D01*
X5145466Y1144709D01*
D02*
G37*
G36*
X310178Y1038057D02*
X305278D01*
Y1003934D01*
X324401D01*
Y1023834D01*
X323319Y1029277D01*
X320236Y1033891D01*
X315621Y1036974D01*
X310178Y1038057D01*
D02*
G37*
G36*
X1498750Y1023032D02*
X1422250D01*
X1415636Y1021717D01*
X1410030Y1017971D01*
X1406283Y1012364D01*
X1404968Y1005750D01*
Y988218D01*
X1384292D01*
Y1005750D01*
X1382977Y1012364D01*
X1379230Y1017971D01*
X1373624Y1021717D01*
X1367010Y1023032D01*
X1290510D01*
X1283897Y1021717D01*
X1278290Y1017971D01*
X1274544Y1012364D01*
X1273228Y1005750D01*
Y929250D01*
X1274544Y922637D01*
X1278290Y917030D01*
X1283897Y913284D01*
X1290510Y911968D01*
X1367010D01*
X1373624Y913284D01*
X1379230Y917030D01*
X1382977Y922637D01*
X1384292Y929250D01*
Y946782D01*
X1404968D01*
Y929250D01*
X1406283Y922637D01*
X1410030Y917030D01*
X1415636Y913284D01*
X1422250Y911968D01*
X1498750D01*
X1505364Y913284D01*
X1510970Y917030D01*
X1514717Y922637D01*
X1516032Y929250D01*
Y1005750D01*
X1514717Y1012364D01*
X1510970Y1017971D01*
X1505364Y1021717D01*
X1498750Y1023032D01*
D02*
G37*
G36*
X324401Y991234D02*
X305278D01*
Y957111D01*
X310178D01*
X315621Y958193D01*
X320236Y961276D01*
X323319Y965891D01*
X324401Y971334D01*
Y991234D01*
D02*
G37*
G36*
X485290Y989792D02*
X453390D01*
Y940610D01*
X502572D01*
Y972510D01*
X501257Y979124D01*
X497510Y984730D01*
X491904Y988477D01*
X485290Y989792D01*
D02*
G37*
G36*
X440690D02*
X408790D01*
X402176Y988477D01*
X396570Y984730D01*
X392823Y979124D01*
X391508Y972510D01*
Y940610D01*
X440690D01*
Y989792D01*
D02*
G37*
G36*
X310178Y893057D02*
X287678D01*
X282235Y891974D01*
X277621Y888891D01*
X270235D01*
X265621Y891974D01*
X260178Y893057D01*
X237678D01*
X232235Y891974D01*
X227621Y888891D01*
X220235D01*
X215621Y891974D01*
X210178Y893057D01*
X187678D01*
X182235Y891974D01*
X177621Y888891D01*
X174538Y884277D01*
X173455Y878834D01*
Y846937D01*
X173355Y846434D01*
Y779432D01*
X171078D01*
X164464Y778117D01*
X158858Y774370D01*
X155111Y768764D01*
X153796Y762150D01*
Y685650D01*
X155111Y679036D01*
X158858Y673430D01*
X161375Y671748D01*
Y158228D01*
X162853Y150795D01*
X167064Y144494D01*
X264760Y46797D01*
X271062Y42587D01*
X278494Y41108D01*
X278496Y41108D01*
X1339785D01*
X1347219Y42587D01*
X1353520Y46797D01*
X1396476Y89753D01*
X1780089D01*
X1785123Y77600D01*
X1795174Y64502D01*
X1808271Y54452D01*
X1823524Y48134D01*
X1839892Y45979D01*
X1856260Y48134D01*
X1871512Y54452D01*
X1884610Y64502D01*
X1894660Y77600D01*
X1899712Y89797D01*
X1927386D01*
X1940700Y76483D01*
X1940701Y76482D01*
X1947002Y72272D01*
X1954435Y70793D01*
X1954437Y70793D01*
X2014820D01*
X2022253Y72272D01*
X2028554Y76482D01*
X2082764Y130691D01*
X2082764Y130692D01*
X2086975Y136993D01*
X2088454Y144426D01*
X2088453Y144427D01*
Y162908D01*
X2148430D01*
X2155044Y164223D01*
X2160650Y167970D01*
X2164397Y173576D01*
X2165712Y180190D01*
Y197622D01*
X2312716D01*
X2315230Y189335D01*
X2323485Y173891D01*
X2334594Y160354D01*
X2348131Y149245D01*
X2363575Y140990D01*
X2380333Y135906D01*
X2397760Y134190D01*
X2415188Y135906D01*
X2431945Y140990D01*
X2447390Y149245D01*
X2460926Y160354D01*
X2472036Y173891D01*
X2480291Y189335D01*
X2485374Y206093D01*
X2487091Y223520D01*
X2485374Y240947D01*
X2480291Y257705D01*
X2472036Y273149D01*
X2460926Y286686D01*
X2447390Y297795D01*
X2431945Y306050D01*
X2417184Y310528D01*
Y382328D01*
X2436011D01*
X2442624Y383644D01*
X2448231Y387390D01*
X2451977Y392997D01*
X2453293Y399610D01*
Y476111D01*
X2451977Y482724D01*
X2448231Y488331D01*
X2442624Y492077D01*
X2436011Y493392D01*
X2359510D01*
X2352897Y492077D01*
X2347290Y488331D01*
X2343544Y482724D01*
X2342228Y476111D01*
Y399610D01*
X2343544Y392997D01*
X2347290Y387390D01*
X2352897Y383644D01*
X2359510Y382328D01*
X2378337D01*
Y310528D01*
X2363575Y306050D01*
X2348131Y297795D01*
X2334594Y286686D01*
X2323485Y273149D01*
X2315230Y257705D01*
X2312716Y249418D01*
X2165712D01*
Y256690D01*
X2164397Y263304D01*
X2160650Y268910D01*
X2155044Y272657D01*
X2153698Y272924D01*
Y292546D01*
X2158578Y293517D01*
X2163689Y296932D01*
X2167104Y302042D01*
X2168303Y308071D01*
Y392570D01*
X2167104Y398599D01*
X2163689Y403709D01*
X2158578Y407124D01*
X2152550Y408323D01*
X2103050D01*
X2097022Y407124D01*
X2091911Y403709D01*
X2088497Y398599D01*
X2087298Y392570D01*
Y308071D01*
X2088497Y302042D01*
X2091911Y296932D01*
X2097022Y293517D01*
X2101903Y292546D01*
Y273972D01*
X2066930D01*
X2060317Y272657D01*
X2054710Y268910D01*
X2050964Y263304D01*
X2049648Y256690D01*
Y182498D01*
X2049607Y182290D01*
Y152471D01*
X2006775Y109639D01*
X1962480D01*
X1949166Y122954D01*
X1942865Y127165D01*
X1935431Y128643D01*
X1899712D01*
X1894660Y140840D01*
X1884610Y153938D01*
X1871512Y163988D01*
X1856260Y170306D01*
X1839892Y172461D01*
X1823524Y170306D01*
X1808271Y163988D01*
X1795174Y153938D01*
X1785123Y140840D01*
X1780053Y128599D01*
X1388430D01*
X1380997Y127121D01*
X1374696Y122911D01*
X1331740Y79955D01*
X286540D01*
X200221Y166273D01*
Y668368D01*
X247578D01*
X254192Y669683D01*
X259798Y673430D01*
X263545Y679036D01*
X264860Y685650D01*
Y762150D01*
X263545Y768764D01*
X259798Y774370D01*
X254192Y778117D01*
X247578Y779432D01*
X212201D01*
Y807351D01*
X222747Y813455D01*
X228729Y815536D01*
X232235Y813193D01*
X237678Y812111D01*
X260178D01*
X265621Y813193D01*
X269127Y815536D01*
X275110Y813455D01*
X285655Y807350D01*
Y769577D01*
X285111Y768764D01*
X283796Y762150D01*
Y685650D01*
X285111Y679036D01*
X288858Y673430D01*
X294464Y669683D01*
X301078Y668368D01*
X377578D01*
X384192Y669683D01*
X389798Y673430D01*
X393545Y679036D01*
X394860Y685650D01*
Y762150D01*
X393545Y768764D01*
X389798Y774370D01*
X384192Y778117D01*
X377578Y779432D01*
X324501D01*
Y846434D01*
X324401Y846937D01*
Y878834D01*
X323318Y884277D01*
X320235Y888891D01*
X315621Y891974D01*
X310178Y893057D01*
D02*
G37*
G36*
X502572Y927910D02*
X453390D01*
Y878728D01*
X485290D01*
X491904Y880043D01*
X497510Y883790D01*
X501257Y889396D01*
X502572Y896010D01*
Y927910D01*
D02*
G37*
G36*
X440690D02*
X391508D01*
Y896010D01*
X392823Y889396D01*
X396570Y883790D01*
X402176Y880043D01*
X408790Y878728D01*
X440690D01*
Y927910D01*
D02*
G37*
G36*
X1811970Y875373D02*
X1777570D01*
Y826191D01*
X1829252D01*
Y858091D01*
X1827937Y864704D01*
X1824191Y870311D01*
X1818584Y874057D01*
X1811970Y875373D01*
D02*
G37*
G36*
X1764870D02*
X1730471D01*
X1723857Y874057D01*
X1718250Y870311D01*
X1714504Y864704D01*
X1713189Y858091D01*
Y826191D01*
X1764870D01*
Y875373D01*
D02*
G37*
G36*
X5284959Y1124802D02*
X5208459D01*
X5201846Y1123487D01*
X5196239Y1119740D01*
X5192493Y1114134D01*
X5191177Y1107520D01*
Y1031020D01*
X5191342Y1030193D01*
Y991946D01*
X5146098Y946703D01*
X5079666D01*
X5079094Y946589D01*
X4916566D01*
X4911396Y945560D01*
X4907013Y942632D01*
X4904085Y938249D01*
X4903056Y933079D01*
Y824179D01*
X4904085Y819010D01*
X4907013Y814627D01*
X4911396Y811698D01*
X4916566Y810670D01*
X5145466D01*
X5150636Y811698D01*
X5155019Y814627D01*
X5157947Y819010D01*
X5158976Y824179D01*
Y908818D01*
X5161576Y909335D01*
X5167878Y913545D01*
X5224499Y970166D01*
X5224499Y970167D01*
X5228710Y976468D01*
X5230188Y983901D01*
Y1013738D01*
X5284959D01*
X5291573Y1015054D01*
X5297180Y1018800D01*
X5300926Y1024407D01*
X5302241Y1031020D01*
Y1107520D01*
X5300926Y1114134D01*
X5297180Y1119740D01*
X5291573Y1123487D01*
X5284959Y1124802D01*
D02*
G37*
G36*
X2857460Y1081292D02*
X2852460D01*
X2835758Y1079648D01*
X2819698Y1074776D01*
X2804897Y1066864D01*
X2791923Y1056217D01*
X2781276Y1043244D01*
X2773365Y1028443D01*
X2768493Y1012382D01*
X2766848Y995680D01*
X2768493Y978978D01*
X2773365Y962918D01*
X2781276Y948117D01*
X2791923Y935143D01*
X2804897Y924496D01*
X2819698Y916585D01*
X2835758Y911713D01*
X2852460Y910068D01*
X2857460D01*
X2874162Y911713D01*
X2890222Y916585D01*
X2900887Y922285D01*
X2974651Y848521D01*
X2974651Y848520D01*
X2980953Y844310D01*
X2988386Y842831D01*
X2988387Y842831D01*
X3363496D01*
Y824179D01*
X3364525Y819010D01*
X3367453Y814627D01*
X3371836Y811698D01*
X3377006Y810670D01*
X3605906D01*
X3611076Y811698D01*
X3615459Y814627D01*
X3618387Y819010D01*
X3619416Y824179D01*
Y933079D01*
X3618387Y938249D01*
X3615459Y942632D01*
X3611076Y945560D01*
X3605906Y946589D01*
X3377006D01*
X3371836Y945560D01*
X3367453Y942632D01*
X3364525Y938249D01*
X3363496Y933079D01*
Y881678D01*
X2996431D01*
X2929114Y948995D01*
X2936555Y962918D01*
X2941427Y978978D01*
X2943072Y995680D01*
X2941427Y1012382D01*
X2936555Y1028443D01*
X2928644Y1043244D01*
X2917997Y1056217D01*
X2905023Y1066864D01*
X2890222Y1074776D01*
X2874162Y1079648D01*
X2857460Y1081292D01*
D02*
G37*
G36*
X1829252Y813491D02*
X1777570D01*
Y764309D01*
X1811970D01*
X1818584Y765624D01*
X1824191Y769370D01*
X1827937Y774977D01*
X1829252Y781591D01*
Y813491D01*
D02*
G37*
G36*
X1764870D02*
X1713189D01*
Y781591D01*
X1714504Y774977D01*
X1718250Y769370D01*
X1723857Y765624D01*
X1730471Y764309D01*
X1764870D01*
Y813491D01*
D02*
G37*
G36*
X1978380Y1335665D02*
X1968538Y1334369D01*
X1959367Y1330570D01*
X1951492Y1324527D01*
X1945449Y1316652D01*
X1941650Y1307481D01*
X1940354Y1297639D01*
X1941650Y1287798D01*
X1945449Y1278627D01*
X1951492Y1270751D01*
X1959367Y1264708D01*
X1968538Y1260910D01*
X1978380Y1259614D01*
X1987708Y1260842D01*
X2068633Y1179917D01*
X2074934Y1175707D01*
X2082367Y1174229D01*
X2268229D01*
X2308924Y1133533D01*
Y893418D01*
X2290920Y875414D01*
X2261450D01*
X2261120Y875348D01*
X2210800D01*
X2204674Y874130D01*
X2199481Y870659D01*
X2196011Y865466D01*
X2194792Y859340D01*
Y760340D01*
X2196011Y754215D01*
X2199481Y749021D01*
X2204674Y745551D01*
X2210800Y744333D01*
X2264800D01*
X2270926Y745551D01*
X2276119Y749021D01*
X2279589Y754215D01*
X2280807Y760340D01*
Y836567D01*
X2298965D01*
X2306398Y838046D01*
X2312700Y842256D01*
X2342082Y871638D01*
X2346292Y877939D01*
X2347771Y885372D01*
Y1141577D01*
X2347771Y1141579D01*
X2346292Y1149011D01*
X2342082Y1155313D01*
X2290009Y1207386D01*
X2283707Y1211596D01*
X2276274Y1213075D01*
X2090413D01*
X2015177Y1288311D01*
X2016405Y1297639D01*
X2015109Y1307481D01*
X2011310Y1316652D01*
X2005268Y1324527D01*
X1997392Y1330570D01*
X1988221Y1334369D01*
X1978380Y1335665D01*
D02*
G37*
G36*
X931039Y765705D02*
X921198Y764409D01*
X912027Y760610D01*
X904151Y754567D01*
X898108Y746692D01*
X894310Y737521D01*
X893014Y727680D01*
X894242Y718351D01*
X876665Y700774D01*
X872455Y694473D01*
X870976Y687040D01*
Y585360D01*
X855137Y580555D01*
X840336Y572644D01*
X827362Y561997D01*
X816715Y549024D01*
X808804Y534222D01*
X803932Y518162D01*
X802287Y501460D01*
X803932Y484758D01*
X808804Y468698D01*
X816715Y453896D01*
X827362Y440923D01*
X840336Y430276D01*
X855137Y422365D01*
X871197Y417493D01*
X887899Y415848D01*
X892899D01*
X909601Y417493D01*
X925662Y422365D01*
X940463Y430276D01*
X953436Y440923D01*
X964083Y453896D01*
X971994Y468698D01*
X976866Y484758D01*
X978511Y501460D01*
X976866Y518162D01*
X971994Y534222D01*
X964083Y549024D01*
X953436Y561997D01*
X940463Y572644D01*
X925662Y580555D01*
X909822Y585360D01*
Y678778D01*
X922734Y690748D01*
X931039Y689654D01*
X940881Y690950D01*
X950052Y694749D01*
X957927Y700792D01*
X963970Y708667D01*
X967769Y717838D01*
X969065Y727680D01*
X967769Y737521D01*
X963970Y746692D01*
X957927Y754567D01*
X950052Y760610D01*
X940881Y764409D01*
X931039Y765705D01*
D02*
G37*
G36*
X1095110Y733085D02*
X1060710D01*
Y683903D01*
X1112391D01*
Y715803D01*
X1111076Y722416D01*
X1107330Y728023D01*
X1101723Y731769D01*
X1095110Y733085D01*
D02*
G37*
G36*
X1048010D02*
X1013610D01*
X1006996Y731769D01*
X1001389Y728023D01*
X997643Y722416D01*
X996328Y715803D01*
Y683903D01*
X1048010D01*
Y733085D01*
D02*
G37*
G36*
X1112391Y671203D02*
X1060710D01*
Y622021D01*
X1095110D01*
X1101723Y623336D01*
X1107330Y627082D01*
X1111076Y632689D01*
X1112391Y639303D01*
Y671203D01*
D02*
G37*
G36*
X1048010D02*
X996328D01*
Y639303D01*
X997643Y632689D01*
X1001389Y627082D01*
X1006996Y623336D01*
X1013610Y622021D01*
X1048010D01*
Y671203D01*
D02*
G37*
G36*
X2661985Y778433D02*
X2489191D01*
X2481758Y776955D01*
X2475457Y772744D01*
X2420176Y717464D01*
X2415966Y711163D01*
X2414487Y703730D01*
Y623392D01*
X2359510D01*
X2352897Y622077D01*
X2347290Y618331D01*
X2343544Y612724D01*
X2342228Y606111D01*
Y529610D01*
X2343544Y522997D01*
X2347290Y517390D01*
X2352897Y513644D01*
X2359510Y512328D01*
X2436011D01*
X2442624Y513644D01*
X2448231Y517390D01*
X2451977Y522997D01*
X2453293Y529610D01*
Y603804D01*
X2453334Y604010D01*
Y695684D01*
X2497236Y739587D01*
X2653940D01*
X2706187Y687340D01*
Y639490D01*
X2706257Y639135D01*
Y576090D01*
X2707457Y570062D01*
X2710871Y564951D01*
X2715982Y561537D01*
X2722010Y560337D01*
X2771510D01*
X2777538Y561537D01*
X2782649Y564951D01*
X2786064Y570062D01*
X2787263Y576090D01*
Y660590D01*
X2786064Y666618D01*
X2782649Y671729D01*
X2777538Y675144D01*
X2771510Y676343D01*
X2745033D01*
Y695385D01*
X2743555Y702818D01*
X2739344Y709119D01*
X2675719Y772744D01*
X2669418Y776955D01*
X2661985Y778433D01*
D02*
G37*
G36*
X642749Y586693D02*
Y507810D01*
X723886D01*
X722866Y518162D01*
X717995Y534222D01*
X710083Y549024D01*
X699436Y561997D01*
X686463Y572644D01*
X671662Y580555D01*
X655601Y585427D01*
X642749Y586693D01*
D02*
G37*
G36*
X630049D02*
X617197Y585427D01*
X601137Y580555D01*
X586336Y572644D01*
X573362Y561997D01*
X562715Y549024D01*
X554804Y534222D01*
X549932Y518162D01*
X548913Y507810D01*
X630049D01*
Y586693D01*
D02*
G37*
G36*
X1936851Y503353D02*
X1904950D01*
Y451671D01*
X1954132D01*
Y486071D01*
X1952817Y492684D01*
X1949071Y498291D01*
X1943464Y502037D01*
X1936851Y503353D01*
D02*
G37*
G36*
X1892250D02*
X1860350D01*
X1853737Y502037D01*
X1848130Y498291D01*
X1844384Y492684D01*
X1843068Y486071D01*
Y451671D01*
X1892250D01*
Y503353D01*
D02*
G37*
G36*
X723886Y495110D02*
X642749D01*
Y416227D01*
X655601Y417493D01*
X671662Y422365D01*
X686463Y430276D01*
X699436Y440923D01*
X710083Y453896D01*
X717995Y468698D01*
X722866Y484758D01*
X723886Y495110D01*
D02*
G37*
G36*
X630049D02*
X548913D01*
X549932Y484758D01*
X554804Y468698D01*
X562715Y453896D01*
X573362Y440923D01*
X586336Y430276D01*
X601137Y422365D01*
X617197Y417493D01*
X630049Y416227D01*
Y495110D01*
D02*
G37*
G36*
X384899Y587072D02*
X379899D01*
X363197Y585427D01*
X347137Y580555D01*
X332336Y572644D01*
X319362Y561997D01*
X308715Y549024D01*
X300804Y534222D01*
X295932Y518162D01*
X294287Y501460D01*
X295932Y484758D01*
X300804Y468698D01*
X308715Y453896D01*
X319362Y440923D01*
X332336Y430276D01*
X347137Y422365D01*
X363197Y417493D01*
X379899Y415848D01*
X384899D01*
X401601Y417493D01*
X417662Y422365D01*
X432463Y430276D01*
X445436Y440923D01*
X456083Y453896D01*
X463994Y468698D01*
X468866Y484758D01*
X470511Y501460D01*
X468866Y518162D01*
X463994Y534222D01*
X456083Y549024D01*
X445436Y561997D01*
X432463Y572644D01*
X417662Y580555D01*
X401601Y585427D01*
X384899Y587072D01*
D02*
G37*
G36*
X1954132Y438971D02*
X1904950D01*
Y387289D01*
X1936851D01*
X1943464Y388604D01*
X1949071Y392350D01*
X1952817Y397957D01*
X1954132Y404571D01*
Y438971D01*
D02*
G37*
G36*
X1892250D02*
X1843068D01*
Y404571D01*
X1844384Y397957D01*
X1848130Y392350D01*
X1853737Y388604D01*
X1860350Y387289D01*
X1892250D01*
Y438971D01*
D02*
G37*
G36*
X896749Y332693D02*
Y253810D01*
X977886D01*
X976866Y264162D01*
X971994Y280222D01*
X964083Y295024D01*
X953436Y307997D01*
X940463Y318644D01*
X925662Y326555D01*
X909601Y331427D01*
X896749Y332693D01*
D02*
G37*
G36*
X884049D02*
X871197Y331427D01*
X855137Y326555D01*
X840336Y318644D01*
X827362Y307997D01*
X816715Y295024D01*
X808804Y280222D01*
X803932Y264162D01*
X802913Y253810D01*
X884049D01*
Y332693D01*
D02*
G37*
G36*
X2013430Y273972D02*
X1979030D01*
Y224790D01*
X2030712D01*
Y256690D01*
X2029397Y263304D01*
X2025651Y268910D01*
X2020044Y272657D01*
X2013430Y273972D01*
D02*
G37*
G36*
X1966330D02*
X1931930D01*
X1925317Y272657D01*
X1919710Y268910D01*
X1915964Y263304D01*
X1914648Y256690D01*
Y224790D01*
X1966330D01*
Y273972D01*
D02*
G37*
G36*
X2030712Y212090D02*
X1979030D01*
Y162908D01*
X2013430D01*
X2020044Y164223D01*
X2025651Y167970D01*
X2029397Y173576D01*
X2030712Y180190D01*
Y212090D01*
D02*
G37*
G36*
X1966330D02*
X1914648D01*
Y180190D01*
X1915964Y173576D01*
X1919710Y167970D01*
X1925317Y164223D01*
X1931930Y162908D01*
X1966330D01*
Y212090D01*
D02*
G37*
G36*
X977886Y241110D02*
X896749D01*
Y162227D01*
X909601Y163493D01*
X925662Y168365D01*
X940463Y176276D01*
X953436Y186923D01*
X964083Y199896D01*
X971994Y214698D01*
X976866Y230758D01*
X977886Y241110D01*
D02*
G37*
G36*
X884049D02*
X802913D01*
X803932Y230758D01*
X808804Y214698D01*
X816715Y199896D01*
X827362Y186923D01*
X840336Y176276D01*
X855137Y168365D01*
X871197Y163493D01*
X884049Y162227D01*
Y241110D01*
D02*
G37*
G36*
X1146899Y587072D02*
X1141899D01*
X1125197Y585427D01*
X1109137Y580555D01*
X1094336Y572644D01*
X1081362Y561997D01*
X1070715Y549024D01*
X1062804Y534222D01*
X1057932Y518162D01*
X1056287Y501460D01*
X1057932Y484758D01*
X1062804Y468698D01*
X1070715Y453896D01*
X1081362Y440923D01*
X1094336Y430276D01*
X1109137Y422365D01*
X1124976Y417560D01*
Y331360D01*
X1109137Y326555D01*
X1094336Y318644D01*
X1081362Y307997D01*
X1070715Y295024D01*
X1062804Y280222D01*
X1057932Y264162D01*
X1056287Y247460D01*
X1057932Y230758D01*
X1062804Y214698D01*
X1070715Y199896D01*
X1081362Y186923D01*
X1094336Y176276D01*
X1109137Y168365D01*
X1125197Y163493D01*
X1141899Y161848D01*
X1146899D01*
X1163601Y163493D01*
X1179662Y168365D01*
X1194463Y176276D01*
X1207436Y186923D01*
X1218083Y199896D01*
X1225995Y214698D01*
X1230866Y230758D01*
X1232511Y247460D01*
X1230866Y264162D01*
X1225995Y280222D01*
X1218083Y295024D01*
X1207436Y307997D01*
X1194463Y318644D01*
X1179662Y326555D01*
X1163822Y331360D01*
Y355037D01*
X1517460D01*
X1524893Y356516D01*
X1531195Y360726D01*
X1624094Y453625D01*
X1624094Y453626D01*
X1628305Y459927D01*
X1629783Y467360D01*
Y499634D01*
X1637248Y505362D01*
X1643291Y513237D01*
X1647090Y522408D01*
X1648385Y532250D01*
X1647090Y542092D01*
X1643291Y551263D01*
X1637248Y559138D01*
X1629373Y565181D01*
X1620202Y568980D01*
X1610360Y570275D01*
X1600518Y568980D01*
X1591347Y565181D01*
X1583472Y559138D01*
X1577429Y551263D01*
X1573630Y542092D01*
X1572335Y532250D01*
X1573630Y522408D01*
X1577429Y513237D01*
X1583472Y505362D01*
X1590937Y499634D01*
Y475405D01*
X1509415Y393883D01*
X1163822D01*
Y417560D01*
X1179662Y422365D01*
X1194463Y430276D01*
X1207436Y440923D01*
X1218083Y453896D01*
X1225995Y468698D01*
X1230866Y484758D01*
X1232511Y501460D01*
X1230866Y518162D01*
X1225995Y534222D01*
X1218083Y549024D01*
X1207436Y561997D01*
X1194463Y572644D01*
X1179662Y580555D01*
X1163601Y585427D01*
X1146899Y587072D01*
D02*
G37*
G36*
X2676510Y446343D02*
X2627010D01*
X2620982Y445144D01*
X2615871Y441729D01*
X2612457Y436618D01*
X2611257Y430590D01*
Y346090D01*
X2612457Y340062D01*
X2615871Y334951D01*
X2620982Y331537D01*
X2623273Y331081D01*
Y313042D01*
X2594610D01*
X2582222Y310578D01*
X2571720Y303560D01*
X2564702Y293058D01*
X2562238Y280670D01*
Y166370D01*
X2564702Y153982D01*
X2571720Y143480D01*
X2582222Y136462D01*
X2594610Y133998D01*
X2708910D01*
X2721299Y136462D01*
X2731801Y143480D01*
X2738818Y153982D01*
X2741282Y166370D01*
Y280670D01*
X2738818Y293058D01*
X2731801Y303560D01*
X2721299Y310578D01*
X2708910Y313042D01*
X2680247D01*
Y331081D01*
X2682538Y331537D01*
X2687649Y334951D01*
X2691063Y340062D01*
X2692263Y346090D01*
Y430590D01*
X2691063Y436618D01*
X2687649Y441729D01*
X2682538Y445144D01*
X2676510Y446343D01*
D02*
G37*
%LPD*%
G36*
X1397162Y1841266D02*
X1403463Y1837055D01*
X1410896Y1835577D01*
X1435308D01*
X1442854Y1817797D01*
X1434768Y1809423D01*
X1324706D01*
X1318978Y1816888D01*
X1311102Y1822931D01*
X1301931Y1826730D01*
X1292090Y1828026D01*
X1282248Y1826730D01*
X1273077Y1822931D01*
X1265202Y1816888D01*
X1259474Y1809423D01*
X1234263D01*
X1226830Y1807945D01*
X1220528Y1803735D01*
X1194449Y1777655D01*
X993472D01*
X986039Y1776176D01*
X979738Y1771966D01*
X851972Y1644200D01*
X847762Y1637899D01*
X846283Y1630466D01*
Y1544077D01*
X828503Y1535664D01*
X821003Y1541814D01*
Y1683805D01*
X932840Y1795642D01*
X1172174D01*
X1179607Y1797120D01*
X1185908Y1801330D01*
X1243679Y1859101D01*
X1289460D01*
X1295188Y1851636D01*
X1303064Y1845593D01*
X1312235Y1841794D01*
X1322076Y1840498D01*
X1331918Y1841794D01*
X1341089Y1845593D01*
X1348964Y1851636D01*
X1354692Y1859101D01*
X1379326D01*
X1397162Y1841266D01*
D02*
G37*
G36*
X1441153Y1752797D02*
X1434287Y1744423D01*
X1378309D01*
X1370876Y1742944D01*
X1364574Y1738734D01*
X1344452Y1718612D01*
X1300361D01*
X1294633Y1726077D01*
X1286758Y1732119D01*
X1277587Y1735918D01*
X1267745Y1737214D01*
X1257904Y1735918D01*
X1248733Y1732119D01*
X1240857Y1726077D01*
X1235129Y1718612D01*
X1062093D01*
X1062092Y1718612D01*
X1054659Y1717133D01*
X1048358Y1712923D01*
X917846Y1582411D01*
X913635Y1576110D01*
X912157Y1568677D01*
Y1539675D01*
X894377Y1532095D01*
X885130Y1540970D01*
Y1622420D01*
X1001518Y1738809D01*
X1202494D01*
X1209927Y1740287D01*
X1216228Y1744497D01*
X1242308Y1770577D01*
X1259474D01*
X1265202Y1763112D01*
X1273077Y1757069D01*
X1282248Y1753271D01*
X1292090Y1751975D01*
X1301931Y1753271D01*
X1311102Y1757069D01*
X1318978Y1763112D01*
X1324706Y1770577D01*
X1432740D01*
X1441153Y1752797D01*
D02*
G37*
G36*
X1442855Y1687797D02*
X1434768Y1679423D01*
X1413216D01*
X1413215Y1679423D01*
X1405782Y1677945D01*
X1399480Y1673734D01*
X1355715Y1629969D01*
X1332046D01*
X1326318Y1637434D01*
X1318442Y1643477D01*
X1309271Y1647276D01*
X1299430Y1648571D01*
X1289588Y1647276D01*
X1280417Y1643477D01*
X1272542Y1637434D01*
X1266814Y1629969D01*
X1238450D01*
X1238449Y1629969D01*
X1231016Y1628491D01*
X1224714Y1624280D01*
X1224714Y1624279D01*
X1177846Y1577412D01*
X1173635Y1571110D01*
X1172157Y1563677D01*
Y1540792D01*
X1154377Y1533245D01*
X1146003Y1541332D01*
Y1590667D01*
X1153468Y1596395D01*
X1159511Y1604270D01*
X1163310Y1613441D01*
X1164605Y1623283D01*
X1163310Y1633124D01*
X1159511Y1642295D01*
X1153468Y1650171D01*
X1145593Y1656214D01*
X1136422Y1660012D01*
X1126580Y1661308D01*
X1116738Y1660012D01*
X1107567Y1656214D01*
X1099692Y1650171D01*
X1093649Y1642295D01*
X1089850Y1633124D01*
X1088555Y1623283D01*
X1089850Y1613441D01*
X1093649Y1604270D01*
X1099692Y1596395D01*
X1107157Y1590667D01*
Y1530265D01*
X1101475Y1525905D01*
X1086685D01*
X1079332Y1531547D01*
X1070769Y1535094D01*
X1061580Y1536304D01*
X1052391Y1535094D01*
X1043828Y1531547D01*
X1036475Y1525905D01*
X1021685D01*
X1014332Y1531547D01*
X1005769Y1535094D01*
X996580Y1536304D01*
X987391Y1535094D01*
X978828Y1531547D01*
X971475Y1525905D01*
X966977D01*
X951003Y1541332D01*
Y1560631D01*
X1070137Y1679765D01*
X1235129D01*
X1240857Y1672301D01*
X1248733Y1666258D01*
X1257904Y1662459D01*
X1267745Y1661163D01*
X1277587Y1662459D01*
X1286758Y1666258D01*
X1294633Y1672301D01*
X1300361Y1679765D01*
X1352497D01*
X1359930Y1681244D01*
X1366232Y1685454D01*
X1386354Y1705577D01*
X1435308D01*
X1442855Y1687797D01*
D02*
G37*
G36*
X2036159Y535321D02*
X1906222Y535320D01*
X1906220Y862340D01*
X2036158Y862340D01*
X2036159Y535321D01*
D02*
G37*
G36*
X3360956Y2131959D02*
Y2048282D01*
X3323884D01*
X3316451Y2046804D01*
X3310150Y2042593D01*
X3216340Y1948783D01*
X2677981D01*
X2670548Y1947305D01*
X2664247Y1943094D01*
X2462721Y1741569D01*
X2453393Y1742797D01*
X2443551Y1741501D01*
X2434380Y1737702D01*
X2426505Y1731659D01*
X2420462Y1723784D01*
X2416663Y1714613D01*
X2415367Y1704771D01*
X2416595Y1695443D01*
X2400576Y1679423D01*
X2200293D01*
X2192745Y1697203D01*
X2200832Y1705577D01*
X2347628D01*
X2355061Y1707055D01*
X2361362Y1711266D01*
X2403424Y1753327D01*
X2412753Y1752099D01*
X2422594Y1753395D01*
X2431765Y1757194D01*
X2439641Y1763237D01*
X2445683Y1771112D01*
X2449482Y1780283D01*
X2450778Y1790124D01*
X2449550Y1799453D01*
X2616908Y1966812D01*
X3169844D01*
X3177277Y1968290D01*
X3183579Y1972500D01*
X3343214Y2132136D01*
X3360811D01*
X3360956Y2131959D01*
D02*
G37*
D10*
X3491456Y878629D02*
D03*
Y1076749D02*
D03*
Y1279949D02*
D03*
Y1478069D02*
D03*
Y1678729D02*
D03*
X3488916Y1879389D02*
D03*
Y2077509D02*
D03*
X5031016Y2275629D02*
D03*
Y1876849D02*
D03*
Y1678729D02*
D03*
Y1475529D02*
D03*
Y1277409D02*
D03*
Y1076749D02*
D03*
X3488916Y2278169D02*
D03*
X5031016Y2074969D02*
D03*
Y878629D02*
D03*
D11*
X3760856Y2473909D02*
D03*
X3964056D02*
D03*
X4162176D02*
D03*
X4365376D02*
D03*
X4563496D02*
D03*
X4761616D02*
D03*
D12*
X5066260Y2529840D02*
D03*
X4936260D02*
D03*
X5066260Y2661920D02*
D03*
X4936260D02*
D03*
X3120249Y1576572D02*
D03*
X3250249D02*
D03*
X354328Y1211072D02*
D03*
X224328D02*
D03*
X224327Y1340717D02*
D03*
X354327D02*
D03*
X339328Y723900D02*
D03*
X209328D02*
D03*
X1790178Y2146738D02*
D03*
X1660178D02*
D03*
X5376709Y1069270D02*
D03*
X5246709D02*
D03*
X5376709Y1277409D02*
D03*
X5246709D02*
D03*
X2133769Y2410478D02*
D03*
X2003769D02*
D03*
X3166659Y1835805D02*
D03*
X3036659D02*
D03*
D13*
X1191580Y1453300D02*
D03*
X1126580D02*
D03*
X1061580D02*
D03*
X996580D02*
D03*
X931580D02*
D03*
X866580D02*
D03*
X801580D02*
D03*
X736580D02*
D03*
X671580D02*
D03*
X606580D02*
D03*
X1191580Y868300D02*
D03*
X1126580D02*
D03*
X1061580D02*
D03*
X996580D02*
D03*
X931580D02*
D03*
X866580D02*
D03*
X801580D02*
D03*
X736580D02*
D03*
X671580D02*
D03*
X606580D02*
D03*
D14*
X1522800Y1985000D02*
D03*
Y1920000D02*
D03*
Y1855000D02*
D03*
Y1790000D02*
D03*
Y1725000D02*
D03*
Y1660000D02*
D03*
Y1595000D02*
D03*
X2112800Y1985000D02*
D03*
Y1920000D02*
D03*
Y1855000D02*
D03*
Y1790000D02*
D03*
Y1725000D02*
D03*
Y1660000D02*
D03*
Y1595000D02*
D03*
D15*
X1328760Y967500D02*
D03*
Y837500D02*
D03*
X2397761Y437860D02*
D03*
Y567860D02*
D03*
X1328760Y1236575D02*
D03*
Y1106575D02*
D03*
X671580Y1856872D02*
D03*
Y1726872D02*
D03*
X1460500Y967500D02*
D03*
Y837500D02*
D03*
X447040Y1064260D02*
D03*
Y934260D02*
D03*
X2357120Y1549400D02*
D03*
Y1419400D02*
D03*
D16*
X1839892Y109220D02*
D03*
X1747378Y612654D02*
D03*
X1966775Y1445980D02*
D03*
D17*
X1267745Y1699189D02*
D03*
X1322076Y1878524D02*
D03*
X1292090Y1790000D02*
D03*
X1299430Y1610546D02*
D03*
X2412753Y1790124D02*
D03*
X468508Y1320468D02*
D03*
X2326393Y1959925D02*
D03*
X336308Y1094934D02*
D03*
X2369573Y1875593D02*
D03*
X2453393Y1704771D02*
D03*
X1897768Y2410478D02*
D03*
X2241495D02*
D03*
X671580Y1619665D02*
D03*
X561340Y1856872D02*
D03*
D18*
X2651760Y388340D02*
D03*
X2556760Y618340D02*
D03*
X2746760D02*
D03*
X2127800Y350321D02*
D03*
X2032800Y580321D02*
D03*
X2222800D02*
D03*
D19*
X1189360Y677553D02*
D03*
X1054360D02*
D03*
X2107680Y218440D02*
D03*
X1972680D02*
D03*
X1906220Y819841D02*
D03*
X1771220D02*
D03*
X1906220Y1079840D02*
D03*
X1771220D02*
D03*
X3100260Y2303780D02*
D03*
X2965260D02*
D03*
D20*
X1898600Y580321D02*
D03*
Y445321D02*
D03*
X5246709Y2299264D02*
D03*
Y2164264D02*
D03*
X2134370Y1478280D02*
D03*
Y1343280D02*
D03*
X1502480Y1478280D02*
D03*
Y1343280D02*
D03*
D21*
X1420000Y2175000D02*
D03*
X580000D02*
D03*
X1420000Y2625000D02*
D03*
X580000D02*
D03*
D22*
X2047800Y809840D02*
D03*
X2142800D02*
D03*
X2237800D02*
D03*
Y1079840D02*
D03*
X2047800D02*
D03*
D23*
X298928Y997584D02*
D03*
X248928D02*
D03*
X198928D02*
D03*
Y852584D02*
D03*
X248928D02*
D03*
X298928D02*
D03*
D24*
X2283980Y1790000D02*
X2369573Y1875593D01*
X2112800Y1790000D02*
X2283980D01*
X2347628Y1725000D02*
X2608863Y1986235D01*
X2369573Y1875593D02*
X2538738Y2044758D01*
X2221467Y1855000D02*
X2468633Y2102165D01*
X3834906Y2304274D02*
Y2632181D01*
X3809329Y2657758D02*
X3834906Y2632181D01*
Y2304274D02*
X4064211Y2074969D01*
X3537252Y2657758D02*
X3809329D01*
X931580Y1568677D02*
X1062092Y1699189D01*
X931580Y1453300D02*
Y1568677D01*
X1062092Y1699189D02*
X1267745D01*
X924794Y1815065D02*
X1172174D01*
X1235633Y1878524D02*
X1322076D01*
X1172174Y1815065D02*
X1235633Y1878524D01*
X1322076D02*
X1387372D01*
X1202494Y1758232D02*
X1234263Y1790000D01*
X993472Y1758232D02*
X1202494D01*
X1234263Y1790000D02*
X1292090D01*
X1522800D01*
X1126580Y1453300D02*
Y1623283D01*
X1238449Y1610546D02*
X1299430D01*
X1363761D01*
X1413215Y1660000D02*
X1522800D01*
X1363761Y1610546D02*
X1413215Y1660000D01*
X1191580Y1563677D02*
X1238449Y1610546D01*
X1267745Y1699189D02*
X1352497D01*
X1378309Y1725000D02*
X1522800D01*
X1352497Y1699189D02*
X1378309Y1725000D01*
X865706Y1630466D02*
X993472Y1758232D01*
X801580Y1691851D02*
X924794Y1815065D01*
X606580Y1453300D02*
Y1500711D01*
X360230Y1747061D02*
Y2271794D01*
Y1747061D02*
X606580Y1500711D01*
X801580Y1453300D02*
Y1691851D01*
X865706Y1454174D02*
Y1630466D01*
X863825Y1080981D02*
X931580Y1013225D01*
X826572Y1080981D02*
X863825D01*
X301787Y1605765D02*
X826572Y1080981D01*
X931580Y868300D02*
Y1013225D01*
X301787Y1605765D02*
Y2345195D01*
X736580Y1315005D02*
Y1453300D01*
Y1315005D02*
X999865Y1051721D01*
X301787Y2345195D02*
X481350Y2524758D01*
Y2581350D01*
X525000Y2625000D01*
X1420000D01*
X360230Y2271794D02*
X498914Y2410478D01*
X1897768D01*
X422350Y2242344D02*
X469147Y2289141D01*
X422350Y1995862D02*
X561340Y1856872D01*
X422350Y1995862D02*
Y2242344D01*
X469147Y2289141D02*
X2744841D01*
X3654338Y2330479D02*
X4107968Y1876849D01*
X5031016D01*
X3703407Y2151559D02*
X4176237Y1678729D01*
X5031016D01*
X3335169Y2151559D02*
X3703407D01*
X3334453Y1752779D02*
X3795914D01*
X4271284Y1277409D02*
X5031016D01*
X3795914Y1752779D02*
X4271284Y1277409D01*
X3323884Y2028859D02*
X3440266D01*
X3166659Y1929360D02*
X3224385D01*
X3323884Y2028859D01*
X2677981Y1929360D02*
X3166659D01*
X3018430Y1737360D02*
X3224085D01*
X3328352Y1841627D02*
X3451154D01*
X3224085Y1737360D02*
X3328352Y1841627D01*
X3044062Y1674267D02*
X3255941D01*
X3334453Y1752779D01*
X4936260Y2324280D02*
X4984910Y2275629D01*
X5031016D01*
X4936260Y2324280D02*
Y2529840D01*
X2393270Y1513250D02*
X2794320D01*
X3018430Y1737360D01*
X2357120Y1549400D02*
X2393270Y1513250D01*
X5066260Y2529840D02*
Y2661920D01*
X4414026Y2522560D02*
Y2612792D01*
X4463154Y2661920D02*
X4936260D01*
X4414026Y2612792D02*
X4463154Y2661920D01*
X4365376Y2473909D02*
X4414026Y2522560D01*
X5031016Y1277409D02*
X5246709D01*
X2854960Y995680D02*
X2988386Y862255D01*
X3475081D02*
X3491456Y878629D01*
X2988386Y862255D02*
X3475081D01*
X3108960Y995680D02*
X3262550D01*
X3294970Y1028099D02*
X3442806D01*
X3262550Y995680D02*
X3294970Y1028099D01*
X3442806D02*
X3491456Y1076749D01*
X2468633Y2102165D02*
X3082605D01*
X3402935Y2416299D02*
X3591934D01*
X3321712Y2442218D02*
X3537252Y2657758D01*
X3321712Y2325575D02*
Y2442218D01*
X3654338Y2330479D02*
Y2353895D01*
X3591934Y2416299D02*
X3654338Y2353895D01*
X3199947Y2219507D02*
Y2310947D01*
X3246120Y2357120D02*
Y2357120D01*
X3199947Y2310947D02*
X3246120Y2357120D01*
X3292096Y2295959D02*
X3321712Y2325575D01*
X3082605Y2102165D02*
X3199947Y2219507D01*
X3214099Y1540422D02*
X3286399Y1612722D01*
X2980351Y1171296D02*
Y1376277D01*
X3084099Y1480025D02*
Y1540422D01*
X2980351Y1376277D02*
X3084099Y1480025D01*
Y1540422D02*
X3120249Y1576572D01*
X3214099Y1354819D02*
Y1540422D01*
X3108960Y1249680D02*
X3214099Y1354819D01*
X3286399Y1612722D02*
X3327508D01*
X3344866Y1630079D02*
X3442806D01*
X3327508Y1612722D02*
X3344866Y1630079D01*
X3451154Y1841627D02*
X3488916Y1879389D01*
X3166659Y1835805D02*
Y1929360D01*
X2727935Y1358140D02*
X3044062Y1674267D01*
X2727935Y1159368D02*
Y1358140D01*
X2453393Y1704771D02*
X2677981Y1929360D01*
X3169844Y1986235D02*
X3335169Y2151559D01*
X2608863Y1986235D02*
X3169844D01*
X3128673Y2044758D02*
X3292096Y2208181D01*
X2538738Y2044758D02*
X3128673D01*
X3442806Y1630079D02*
X3491456Y1678729D01*
X4064211Y2074969D02*
X5031016D01*
X3292096Y2208181D02*
Y2295959D01*
X2408621Y1660000D02*
X2453393Y1704771D01*
X2728270Y847803D02*
Y848200D01*
Y1053431D01*
X2276274Y1193652D02*
X2328347Y1141579D01*
X2298965Y855990D02*
X2328347Y885372D01*
Y1141579D01*
X1839892Y109220D02*
X1935431D01*
X1339785Y60532D02*
X1388430Y109176D01*
X1839848D02*
X1839892Y109220D01*
X1388430Y109176D02*
X1839848D01*
X1954435Y90216D02*
X2014820D01*
X1935431Y109220D02*
X1954435Y90216D01*
X2934943Y1125888D02*
X2980351Y1171296D01*
X2800727Y1125888D02*
X2934943D01*
X2728270Y1053431D02*
X2800727Y1125888D01*
X2659453Y1054173D02*
Y1090885D01*
X2727935Y1159368D01*
X2600960Y995680D02*
X2659453Y1054173D01*
X865706Y1454174D02*
X866580Y1453300D01*
X1220594Y1985001D02*
X1522799D01*
X1126580Y1890986D02*
X1220594Y1985001D01*
X2112800Y1725000D02*
X2347628D01*
X2112800Y1855000D02*
X2221467D01*
X2112800Y1660000D02*
X2408621D01*
X2241495Y2410478D02*
X2311388D01*
X2362309Y2359556D01*
X2561256D01*
X2701700Y2500000D01*
X2744841Y2289141D02*
X2955700Y2500000D01*
X561340Y1856872D02*
X671580D01*
X2433911Y604010D02*
Y703730D01*
X2489191Y759010D02*
X2661985D01*
X2433911Y703730D02*
X2489191Y759010D01*
X768847Y1020129D02*
X818908D01*
X468508Y1320468D02*
X768847Y1020129D01*
X818908D02*
X866580Y972457D01*
Y868300D02*
Y972457D01*
X606580Y868300D02*
Y988732D01*
X567202Y1028110D02*
X606580Y988732D01*
X483190Y1028110D02*
X567202D01*
X416366Y1094934D02*
X483190Y1028110D01*
X336308Y1094934D02*
X416366D01*
X277165D02*
X336308D01*
X377117Y1320468D02*
X468508D01*
X192778Y1003734D02*
Y1179522D01*
X354329Y1340715D02*
X369497Y1325548D01*
X192778Y1179522D02*
X224328Y1211072D01*
X354328Y1211072D02*
X354329Y1211074D01*
X354327Y1340717D02*
X354329Y1340715D01*
Y1211074D02*
Y1340715D01*
X192778Y740450D02*
X209328Y723900D01*
X192778Y740450D02*
Y846434D01*
X198928Y852584D01*
X305078Y758150D02*
X339328Y723900D01*
X305078Y758150D02*
Y846434D01*
X180798Y695370D02*
X209328Y723900D01*
X180798Y158228D02*
Y695370D01*
X255078Y1072847D02*
X277165Y1094934D01*
X255078Y1003734D02*
Y1072847D01*
X248928Y997584D02*
X255078Y1003734D01*
X298928Y852584D02*
X305078Y846434D01*
X180798Y158228D02*
X278494Y60532D01*
X248928Y852584D02*
X298928D01*
X192778Y1003734D02*
X198928Y997584D01*
X1292610Y1272725D02*
X1356672Y1208663D01*
X1602024D02*
X1691001Y1297639D01*
X1356672Y1208663D02*
X1602024D01*
X2082367Y1193652D02*
X2276274D01*
X1978380Y1297639D02*
X2082367Y1193652D01*
X671580Y1453300D02*
Y1726872D01*
X1660178Y2015418D02*
Y2146738D01*
X1522800Y1790000D02*
X1522800Y1790000D01*
Y1985000D02*
X1629760D01*
X1660178Y2015418D01*
X1522799Y1985001D02*
X1522800Y1985000D01*
X278494Y60532D02*
X1339785D01*
X1123185Y1272725D02*
X1292610D01*
X1061580Y1334330D02*
X1123185Y1272725D01*
X764540Y172312D02*
Y581625D01*
X801580Y618665D02*
Y868300D01*
X764540Y581625D02*
X801580Y618665D01*
X713480Y711485D02*
X736580Y734585D01*
X713480Y675033D02*
Y711485D01*
X736580Y734585D02*
Y868300D01*
X890399Y501460D02*
Y687040D01*
X931039Y727680D01*
X5210765Y1033326D02*
X5246709Y1069270D01*
X5210765Y983901D02*
Y1033326D01*
X1387372Y1878524D02*
X1410896Y1855000D01*
X1522800D01*
X1897768Y2410478D02*
X2003769D01*
X2133769D02*
X2241495D01*
X1191580Y1453300D02*
Y1563677D01*
X1061580Y1334330D02*
Y1453300D01*
X2014820Y90216D02*
X2069030Y144426D01*
X3440266Y2028859D02*
X3488916Y2077509D01*
X2397761Y567860D02*
X2433911Y604010D01*
X2397761Y223520D02*
Y437860D01*
X2661985Y759010D02*
X2725610Y695385D01*
Y639490D02*
X2746760Y618340D01*
X2725610Y639490D02*
Y695385D01*
X507306Y118367D02*
X636399Y247460D01*
X326825Y118367D02*
X507306D01*
X813269Y123583D02*
X1272022D01*
X1395899Y247460D01*
X764540Y172312D02*
X813269Y123583D01*
X508000Y574893D02*
X577316Y644209D01*
X682655D02*
X713480Y675033D01*
X577316Y644209D02*
X682655D01*
X245983Y199208D02*
X326825Y118367D01*
X5079666Y927280D02*
X5154143D01*
X5210765Y983901D01*
X1144399Y374460D02*
X1517460D01*
X1610360Y467360D01*
X1144399Y374460D02*
Y501460D01*
Y247460D02*
Y374460D01*
X1395899Y247460D02*
X1398399D01*
X245983Y199208D02*
Y557438D01*
X508000Y373060D02*
Y574893D01*
X382399Y247460D02*
X382400D01*
X508000Y373060D01*
X5031016Y878629D02*
X5079666Y927280D01*
X1903720Y1079840D02*
X1906220D01*
X1867570Y1043690D02*
X1903720Y1079840D01*
X1867570Y1009952D02*
Y1043690D01*
X1807785Y950167D02*
X1867570Y1009952D01*
X1610360Y816374D02*
X1744153Y950167D01*
X1807785D01*
X419127Y625085D02*
X499401Y705358D01*
X619213D02*
X671580Y757725D01*
X499401Y705358D02*
X619213D01*
X1610360Y695960D02*
Y816374D01*
Y467360D02*
Y532250D01*
X245983Y557438D02*
X313630Y625085D01*
X671580Y757725D02*
Y868300D01*
X313630Y625085D02*
X419127D01*
X2069030Y144426D02*
Y182290D01*
X2105180Y218440D02*
X2107680D01*
X2069030Y182290D02*
X2105180Y218440D01*
X2261450Y855990D02*
X2298965D01*
X2237800Y809840D02*
Y832340D01*
X2261450Y855990D01*
D25*
X2423404Y1249680D02*
X2600960D01*
X2423393D02*
X2423404D01*
X2357120Y1315964D02*
Y1419400D01*
X2330531Y1445989D02*
X2357120Y1419400D01*
X2166662Y1445989D02*
X2330531D01*
X2357120Y1315964D02*
X2423404Y1249680D01*
X2600960D02*
X2600960Y1249680D01*
X2134370Y1478280D02*
Y1585946D01*
X1883360Y1362565D02*
X1966775Y1445980D01*
X2102070D01*
X1883360Y1102700D02*
Y1362565D01*
X2134370Y1478280D02*
X2166662Y1445989D01*
X2102070Y1445980D02*
X2134370Y1478280D01*
X2112800Y1595000D02*
X2125316D01*
X2134370Y1585946D01*
X1883360Y1102700D02*
X1906220Y1079840D01*
X2047800D01*
X2112760Y223520D02*
X2397761D01*
X2107680Y218440D02*
X2112760Y223520D01*
X2127800Y238560D01*
Y350321D01*
D26*
X5031016Y2275629D02*
X5054573Y2299186D01*
X5246631D01*
X5246709Y2299264D01*
X5376709Y1277409D02*
Y2207991D01*
Y1069270D02*
Y1277409D01*
X5320277Y2264424D02*
X5376709Y2207991D01*
X5279049Y2264424D02*
X5320277D01*
X2423393Y917870D02*
X2493063Y848200D01*
X2423393Y917870D02*
Y1249680D01*
X2728270Y848200D02*
X2854767Y721704D01*
X5141648D01*
X2493063Y848200D02*
X2728270D01*
X1610360Y947707D02*
Y1120547D01*
X1747378Y612654D02*
X1866267D01*
X1536738D02*
X1747378D01*
X5141648Y721704D02*
X5212449Y792504D01*
X1783480Y1443440D02*
Y1834140D01*
X2145475Y2196135D02*
X3033690D01*
X1783480Y1834140D02*
X2145475Y2196135D01*
X3065420Y2227865D02*
Y2271440D01*
X3033690Y2196135D02*
X3065420Y2227865D01*
Y2271440D02*
X3087600Y2293620D01*
X3100260D01*
X3124063Y2317423D01*
Y2414363D02*
X3209700Y2500000D01*
X3124063Y2317423D02*
Y2414363D01*
X1783480Y1233765D02*
Y1443440D01*
X1502480Y1478280D02*
Y1583599D01*
Y1475780D02*
Y1478280D01*
X1179880Y656553D02*
X1398399D01*
X1154519Y681913D02*
X1179880Y656553D01*
X1398399Y501460D02*
Y656553D01*
X1492840D01*
X1502480Y1583599D02*
X1513881Y1595000D01*
X1522800D01*
X1534820Y1443440D02*
X1783480D01*
X1783480Y1443440D01*
X1502480Y1475780D02*
X1534820Y1443440D01*
X1610360Y1120547D02*
X1695543Y1205729D01*
X1755444D01*
X1783480Y1233765D01*
X1866267Y612654D02*
X1898600Y580321D01*
X1492840Y656552D02*
X1536738Y612654D01*
X5246709Y2296764D02*
Y2299264D01*
Y2296764D02*
X5279049Y2264424D01*
X1492840Y656552D02*
Y656553D01*
Y805160D01*
X1460500Y837500D02*
X1492840Y805160D01*
Y869840D02*
X1532493D01*
X1610360Y947707D01*
X1460500Y837500D02*
X1492840Y869840D01*
X1154519Y681913D02*
Y739316D01*
X1126580Y767255D02*
Y868300D01*
Y767255D02*
X1154519Y739316D01*
X5344369Y1002153D02*
Y1036930D01*
X5376709Y1069270D01*
X5212449Y792504D02*
Y870232D01*
X5344369Y1002153D01*
D27*
X1191580Y868300D02*
X1205271Y854609D01*
X1334511D01*
X1328760Y967500D02*
X1460500D01*
D28*
X2651760Y223520D02*
Y385800D01*
D29*
X190500Y2222500D02*
D03*
X2245360Y2095500D02*
D03*
X190500Y1968500D02*
D03*
X1714500Y2603500D02*
D03*
X1968500D02*
D03*
D30*
X2600960Y995680D02*
D03*
X1398399Y247460D02*
D03*
D31*
X2854960Y995680D02*
D03*
X3108960Y995680D02*
D03*
Y1249680D02*
D03*
X2854960Y1249680D02*
D03*
X2600960Y1249680D02*
D03*
X1144399Y247460D02*
D03*
X890399D02*
D03*
X636399D02*
D03*
X382399D02*
D03*
Y501460D02*
D03*
X636399D02*
D03*
X890399D02*
D03*
X1144399D02*
D03*
X1398399D02*
D03*
D32*
X2397760Y223520D02*
D03*
X3209700Y2500000D02*
D03*
X2955700D02*
D03*
X2701700D02*
D03*
D33*
X2651760Y223520D02*
D03*
X2447700Y2500000D02*
D03*
D34*
X200000Y2600000D02*
D03*
X5400000D02*
D03*
X2700000Y1700000D02*
D03*
X5400000Y800000D02*
D03*
D35*
X3850425Y2750483D02*
D03*
X1078193Y1562115D02*
D03*
X1126580Y1623283D02*
D03*
X910929Y1613295D02*
D03*
X943297Y1770515D02*
D03*
X1223376Y1653525D02*
D03*
X1345515Y1654596D02*
D03*
X350726Y2328384D02*
D03*
X999865Y1051721D02*
D03*
X3655012Y2436924D02*
D03*
X3774515Y2311090D02*
D03*
X5306060Y1374140D02*
D03*
X5308600Y1176020D02*
D03*
X4848860Y1361440D02*
D03*
X4866640Y1785620D02*
D03*
X3402935Y2416299D02*
D03*
X3246120Y2357120D02*
D03*
X3643922Y2278169D02*
D03*
Y2222500D02*
D03*
X1126580Y1890986D02*
D03*
X3247701Y2226712D02*
D03*
X3127703Y2218590D02*
D03*
X2265734Y1835793D02*
D03*
X1449375Y605779D02*
D03*
X1345866Y605261D02*
D03*
X1443958Y705824D02*
D03*
X1199551Y758665D02*
D03*
X142240Y1340717D02*
D03*
X430393Y1270562D02*
D03*
X223520Y1424432D02*
D03*
X437008Y1384893D02*
D03*
X781327Y1348822D02*
D03*
X298928Y932180D02*
D03*
X2854960Y864245D02*
D03*
X2600960Y1124781D02*
D03*
X3091798Y2465792D02*
D03*
X2477837Y2243994D02*
D03*
X2744050Y2244737D02*
D03*
X2542113Y2147328D02*
D03*
X1833666Y1811831D02*
D03*
X1730928Y1835318D02*
D03*
X1833158Y1615898D02*
D03*
X5431371Y2048566D02*
D03*
X4871720Y1973580D02*
D03*
X5428829Y1721689D02*
D03*
X5313680Y1838960D02*
D03*
X5316443Y1588181D02*
D03*
X3614869Y668638D02*
D03*
X4774682Y670662D02*
D03*
X4524248Y771906D02*
D03*
X3918974Y772629D02*
D03*
X5246709Y2074969D02*
D03*
X1326669Y109710D02*
D03*
X1053960Y596369D02*
D03*
X1078039Y1933779D02*
D03*
X348049Y1693248D02*
D03*
X1368365Y1834474D02*
D03*
X877664Y1897491D02*
D03*
X1691001Y1297639D02*
D03*
X1735620Y1341689D02*
D03*
X738625Y1566689D02*
D03*
X3645623Y1708438D02*
D03*
X3351745Y776880D02*
D03*
X3058160Y776674D02*
D03*
X3234706Y1249680D02*
D03*
X2987999Y1060856D02*
D03*
X4222323Y657921D02*
D03*
X5547360Y1546860D02*
D03*
X2600902Y2334455D02*
D03*
X2321085Y2335281D02*
D03*
X1978380Y1297639D02*
D03*
X2078280Y713740D02*
D03*
X2142800D02*
D03*
X2205020D02*
D03*
Y906780D02*
D03*
X2142800D02*
D03*
X2078280D02*
D03*
X1735620Y1253589D02*
D03*
X1831340D02*
D03*
Y1341689D02*
D03*
X1933760Y1253589D02*
D03*
Y1341689D02*
D03*
X2335926Y2752158D02*
D03*
X845819Y1673793D02*
D03*
X109750Y1126383D02*
D03*
X1336145Y1745132D02*
D03*
X1414574Y1597810D02*
D03*
X624206Y1560833D02*
D03*
X1790178Y2065251D02*
D03*
X987042Y1561843D02*
D03*
X1544320Y55880D02*
D03*
X1763439Y54141D02*
D03*
X3147229Y1488103D02*
D03*
X2481665Y1362133D02*
D03*
X3336844Y1688254D02*
D03*
X3335524Y1978203D02*
D03*
X2556760Y538700D02*
D03*
X2618740D02*
D03*
Y618340D02*
D03*
Y696824D02*
D03*
X2556760D02*
D03*
X2493860Y618340D02*
D03*
Y538700D02*
D03*
Y696824D02*
D03*
X3636955Y1799018D02*
D03*
X3641611Y2107413D02*
D03*
X3635995Y1999165D02*
D03*
X3346598Y1797577D02*
D03*
X2214880Y1343280D02*
D03*
X3333702Y2075746D02*
D03*
X2328200Y1769829D02*
D03*
X3339580Y2200246D02*
D03*
X2877820Y2273300D02*
D03*
Y2334260D02*
D03*
X2964644Y2384456D02*
D03*
X3124700Y2755900D02*
D03*
X2389789Y1704119D02*
D03*
X209149Y2371705D02*
D03*
X5472444Y1075824D02*
D03*
X5407414Y984782D02*
D03*
X2884107Y599223D02*
D03*
X3147277Y650550D02*
D03*
X5139394Y652953D02*
D03*
X4620214Y2754064D02*
D03*
X229163Y45074D02*
D03*
X1011909Y1713392D02*
D03*
X1733453Y1492176D02*
D03*
X854030Y745342D02*
D03*
X612446Y760886D02*
D03*
X669430Y693279D02*
D03*
X757530Y692941D02*
D03*
X1053960Y760893D02*
D03*
X996580D02*
D03*
X1658693Y927359D02*
D03*
X1565513Y807765D02*
D03*
X1557010Y663021D02*
D03*
X1663710D02*
D03*
X1665433Y562221D02*
D03*
X1555287D02*
D03*
X1610360Y532250D02*
D03*
Y695960D02*
D03*
X2844183Y2147923D02*
D03*
X1420000Y2085340D02*
D03*
X410906Y1937105D02*
D03*
X101976Y722125D02*
D03*
X109355Y201352D02*
D03*
X714303Y110886D02*
D03*
X2820478Y79803D02*
D03*
Y281940D02*
D03*
X2515023D02*
D03*
X2250440D02*
D03*
Y90216D02*
D03*
X2034467Y45074D02*
D03*
X2515023Y79803D02*
D03*
X447040Y853440D02*
D03*
X237826Y1117890D02*
D03*
X349008Y997584D02*
D03*
X225774Y602274D02*
D03*
X691709Y1348607D02*
D03*
X799593Y976079D02*
D03*
X656481Y980263D02*
D03*
X1116517Y1341689D02*
D03*
X531563Y2348557D02*
D03*
X580000Y2085340D02*
D03*
X1414720Y1914285D02*
D03*
X2138202Y2244429D02*
D03*
X1408676Y1106575D02*
D03*
X3049868Y2150022D02*
D03*
X558800Y2738120D02*
D03*
X1409700Y2745740D02*
D03*
X2134370Y1259840D02*
D03*
X2052320Y1343280D02*
D03*
X3336146Y2277714D02*
D03*
X931039Y727680D02*
D03*
X1582420Y1343280D02*
D03*
X970265Y677553D02*
D03*
X1686560Y820000D02*
D03*
Y1079840D02*
D03*
X5165644Y2164264D02*
D03*
X1419860Y1343280D02*
D03*
X1982840Y445321D02*
D03*
X2004060Y1985000D02*
D03*
X528320Y934260D02*
D03*
X5326107Y2164264D02*
D03*
X2112800Y2046644D02*
D03*
X1502480Y1259840D02*
D03*
X2284346Y580321D02*
D03*
Y502860D02*
D03*
Y657413D02*
D03*
X2160580Y657860D02*
D03*
Y502860D02*
D03*
Y580321D02*
D03*
X996580Y976622D02*
D03*
X2252980Y1559560D02*
D03*
X2222500Y1985000D02*
D03*
X3488251Y2372249D02*
D03*
X1771220Y1160526D02*
D03*
X1770860Y998220D02*
D03*
X1771220Y901700D02*
D03*
Y739140D02*
D03*
X422547Y691934D02*
D03*
X1884680Y218440D02*
D03*
X1971892Y304600D02*
D03*
X1972680Y134266D02*
D03*
X1898600Y357941D02*
D03*
X1816100Y445321D02*
D03*
X2222800Y502860D02*
D03*
Y657860D02*
D03*
%TF.MD5,5a184fb05eebaa42bddfcb6fde35c166*%
M02*
