%TF.GenerationSoftware,Altium Limited,Altium Designer,20.1.8 (145)*%
G04 Layer_Color=65535*
%FSLAX45Y45*%
%MOMM*%
%TF.SameCoordinates,A8D28DC8-49F5-44E5-8DCE-E7A12525CE2F*%
%TF.FilePolarity,Positive*%
%TF.FileFunction,Legend,Bot*%
%TF.Part,Single*%
G01*
G75*
%TA.AperFunction,NonConductor*%
%ADD36C,0.15240*%
%ADD37C,0.12700*%
D36*
X3300783Y2291416D02*
X3351567D01*
Y2253328D01*
X3326175Y2266024D01*
X3313479D01*
X3300783Y2253328D01*
Y2227936D01*
X3313479Y2215240D01*
X3338871D01*
X3351567Y2227936D01*
X3275391Y2291416D02*
Y2240632D01*
X3250000Y2215240D01*
X3224608Y2240632D01*
Y2291416D01*
X3199216Y2278720D02*
X3186520Y2291416D01*
X3161128D01*
X3148433Y2278720D01*
Y2227936D01*
X3161128Y2215240D01*
X3186520D01*
X3199216Y2227936D01*
Y2278720D01*
X3063480Y2291415D02*
X3012696D01*
X3038088D01*
Y2215240D01*
X2987304Y2291415D02*
X2936521Y2215240D01*
Y2291415D02*
X2987304Y2215240D01*
X2813480D02*
Y2291415D01*
X2775392D01*
X2762696Y2278719D01*
Y2253328D01*
X2775392Y2240632D01*
X2813480D01*
X2788088D02*
X2762696Y2215240D01*
X2737304Y2291415D02*
X2686521Y2215240D01*
Y2291415D02*
X2737304Y2215240D01*
X2550784Y2278719D02*
X2563479Y2291415D01*
X2588871D01*
X2601567Y2278719D01*
Y2227936D01*
X2588871Y2215240D01*
X2563479D01*
X2550784Y2227936D01*
Y2253328D01*
X2576175D01*
X2525392Y2215240D02*
Y2291415D01*
X2474608Y2215240D01*
Y2291415D01*
X2449216D02*
Y2215240D01*
X2411129D01*
X2398433Y2227936D01*
Y2278719D01*
X2411129Y2291415D01*
X2449216D01*
X3567306Y1289556D02*
X3554610Y1302252D01*
X3529218D01*
X3516522Y1289556D01*
Y1276860D01*
X3529218Y1264164D01*
X3541914D01*
X3529218D01*
X3516522Y1251468D01*
Y1238772D01*
X3529218Y1226077D01*
X3554610D01*
X3567306Y1238772D01*
X3491130Y1302252D02*
Y1251468D01*
X3465739Y1226077D01*
X3440347Y1251468D01*
Y1302252D01*
X3414955Y1289556D02*
X3402259Y1302252D01*
X3376867D01*
X3364172Y1289556D01*
Y1276860D01*
X3376867Y1264164D01*
X3389563D01*
X3376867D01*
X3364172Y1251468D01*
Y1238772D01*
X3376867Y1226077D01*
X3402259D01*
X3414955Y1238772D01*
X3899715Y1289556D02*
X3912411Y1302252D01*
X3937803D01*
X3950499Y1289556D01*
Y1238772D01*
X3937803Y1226077D01*
X3912411D01*
X3899715Y1238772D01*
Y1264164D01*
X3925107D01*
X3874323Y1226077D02*
Y1302252D01*
X3823540Y1226077D01*
Y1302252D01*
X3798148D02*
Y1226077D01*
X3760060D01*
X3747365Y1238772D01*
Y1289556D01*
X3760060Y1302252D01*
X3798148D01*
X4260958D02*
X4235566D01*
X4248262D01*
Y1226077D01*
X4260958D01*
X4235566D01*
X4159390Y1302252D02*
X4184782D01*
X4197478Y1289556D01*
Y1238772D01*
X4184782Y1226077D01*
X4159390D01*
X4146695Y1238772D01*
Y1289556D01*
X4159390Y1302252D01*
X4121303Y1289556D02*
X4108607Y1302252D01*
X4083215D01*
X4070519Y1289556D01*
Y1238772D01*
X4083215Y1226077D01*
X4108607D01*
X4121303Y1238772D01*
Y1289556D01*
X4218677Y991226D02*
Y1067402D01*
X4180589D01*
X4167893Y1054706D01*
Y1029314D01*
X4180589Y1016618D01*
X4218677D01*
X4193285D02*
X4167893Y991226D01*
X4142501Y1067402D02*
X4091718Y991226D01*
Y1067402D02*
X4142501Y991226D01*
X3918677Y1067402D02*
X3867893D01*
X3893285D01*
Y991226D01*
X3842501Y1067402D02*
X3791718Y991226D01*
Y1067402D02*
X3842501Y991226D01*
X3620244Y1067402D02*
X3671027D01*
Y991226D01*
X3620244D01*
X3671027Y1029314D02*
X3645636D01*
X3594852Y991226D02*
Y1067402D01*
X3544069Y991226D01*
Y1067402D01*
X3518677Y991226D02*
Y1042010D01*
X3493285Y1067402D01*
X3467893Y1042010D01*
Y991226D01*
Y1029314D01*
X3518677D01*
X3442501Y1067402D02*
Y991226D01*
X3404414D01*
X3391718Y1003922D01*
Y1016618D01*
X3404414Y1029314D01*
X3442501D01*
X3404414D01*
X3391718Y1042010D01*
Y1054706D01*
X3404414Y1067402D01*
X3442501D01*
X3366326D02*
Y991226D01*
X3315543D01*
X3239367Y1067402D02*
X3290151D01*
Y991226D01*
X3239367D01*
X3290151Y1029314D02*
X3264759D01*
X350783Y928720D02*
X363479Y941415D01*
X388871D01*
X401567Y928720D01*
Y916024D01*
X388871Y903328D01*
X363479D01*
X350783Y890632D01*
Y877936D01*
X363479Y865240D01*
X388871D01*
X401567Y877936D01*
X325392Y941415D02*
Y865240D01*
X300000Y890632D01*
X274608Y865240D01*
Y941415D01*
X198433Y928720D02*
X211128Y941415D01*
X236520D01*
X249216Y928720D01*
Y877936D01*
X236520Y865240D01*
X211128D01*
X198433Y877936D01*
X650784Y928720D02*
X663479Y941415D01*
X688871D01*
X701567Y928720D01*
Y877936D01*
X688871Y865240D01*
X663479D01*
X650784Y877936D01*
Y903328D01*
X676175D01*
X625392Y865240D02*
Y941415D01*
X574608Y865240D01*
Y941415D01*
X549216D02*
Y865240D01*
X511129D01*
X498433Y877936D01*
Y928720D01*
X511129Y941415D01*
X549216D01*
X982523Y928720D02*
X995219Y941415D01*
X1020611D01*
X1033307Y928720D01*
Y916024D01*
X1020611Y903328D01*
X995219D01*
X982523Y890632D01*
Y877936D01*
X995219Y865240D01*
X1020611D01*
X1033307Y877936D01*
X957131Y941415D02*
Y865240D01*
X931740Y890632D01*
X906348Y865240D01*
Y941415D01*
X880956D02*
X855564D01*
X868260D01*
Y865240D01*
X880956D01*
X855564D01*
X779389Y941415D02*
X804781D01*
X817477Y928720D01*
Y877936D01*
X804781Y865240D01*
X779389D01*
X766693Y877936D01*
Y928720D01*
X779389Y941415D01*
X1301567Y928720D02*
X1288871Y941415D01*
X1263479D01*
X1250783Y928720D01*
Y916024D01*
X1263479Y903328D01*
X1276175D01*
X1263479D01*
X1250783Y890632D01*
Y877936D01*
X1263479Y865240D01*
X1288871D01*
X1301567Y877936D01*
X1225392Y941415D02*
Y890632D01*
X1200000Y865240D01*
X1174608Y890632D01*
Y941415D01*
X1149216Y928720D02*
X1136520Y941415D01*
X1111128D01*
X1098433Y928720D01*
Y916024D01*
X1111128Y903328D01*
X1123824D01*
X1111128D01*
X1098433Y890632D01*
Y877936D01*
X1111128Y865240D01*
X1136520D01*
X1149216Y877936D01*
X1550784Y941415D02*
X1601567D01*
Y903328D01*
X1576175Y916024D01*
X1563479D01*
X1550784Y903328D01*
Y877936D01*
X1563479Y865240D01*
X1588871D01*
X1601567Y877936D01*
X1525392Y941415D02*
Y890632D01*
X1500000Y865240D01*
X1474608Y890632D01*
Y941415D01*
X1449216Y928720D02*
X1436520Y941415D01*
X1411128D01*
X1398433Y928720D01*
Y877936D01*
X1411128Y865240D01*
X1436520D01*
X1449216Y877936D01*
Y928720D01*
X1601567Y665240D02*
Y741416D01*
X1563479D01*
X1550784Y728720D01*
Y703328D01*
X1563479Y690632D01*
X1601567D01*
X1576175D02*
X1550784Y665240D01*
X1474608Y728720D02*
X1487304Y741416D01*
X1512696D01*
X1525392Y728720D01*
Y716024D01*
X1512696Y703328D01*
X1487304D01*
X1474608Y690632D01*
Y677936D01*
X1487304Y665240D01*
X1512696D01*
X1525392Y677936D01*
X1449216Y741416D02*
X1398433D01*
X1423824D01*
Y665240D01*
X1301567Y728720D02*
X1288871Y741416D01*
X1263479D01*
X1250783Y728720D01*
Y716024D01*
X1263479Y703328D01*
X1276175D01*
X1263479D01*
X1250783Y690632D01*
Y677936D01*
X1263479Y665240D01*
X1288871D01*
X1301567Y677936D01*
X1225392Y741416D02*
Y690632D01*
X1200000Y665240D01*
X1174608Y690632D01*
Y741416D01*
X1149216Y728720D02*
X1136520Y741416D01*
X1111128D01*
X1098433Y728720D01*
Y716024D01*
X1111128Y703328D01*
X1123824D01*
X1111128D01*
X1098433Y690632D01*
Y677936D01*
X1111128Y665240D01*
X1136520D01*
X1149216Y677936D01*
X950783Y728720D02*
X963479Y741416D01*
X988871D01*
X1001567Y728720D01*
Y677936D01*
X988871Y665240D01*
X963479D01*
X950783Y677936D01*
Y703328D01*
X976175D01*
X925392Y665240D02*
Y741416D01*
X874608Y665240D01*
Y741416D01*
X849216D02*
Y665240D01*
X811128D01*
X798433Y677936D01*
Y728720D01*
X811128Y741416D01*
X849216D01*
X663479D02*
X612696D01*
X638088D01*
Y665240D01*
X587304Y741416D02*
X536521Y665240D01*
Y741416D02*
X587304Y665240D01*
X363479D02*
Y741416D01*
X325392D01*
X312696Y728720D01*
Y703328D01*
X325392Y690632D01*
X363479D01*
X338087D02*
X312696Y665240D01*
X287304Y741416D02*
X236520Y665240D01*
Y741416D02*
X287304Y665240D01*
D37*
X900000Y1130470D02*
X920313D01*
X910157D01*
Y1079687D01*
X920313Y1069530D01*
X930470D01*
X940627Y1079687D01*
X879687Y1069530D02*
X859373D01*
X869530D01*
Y1130470D01*
X879687Y1120313D01*
X2602968Y436270D02*
Y375330D01*
X2572498D01*
X2562341Y385487D01*
Y395644D01*
X2572498Y405800D01*
X2602968D01*
X2572498D01*
X2562341Y415957D01*
Y426114D01*
X2572498Y436270D01*
X2602968D01*
X2542028Y375330D02*
Y415957D01*
X2521714Y436270D01*
X2501401Y415957D01*
Y375330D01*
Y405800D01*
X2542028D01*
X2481087Y436270D02*
X2440461D01*
X2460774D01*
Y375330D01*
X2420147D02*
X2399834D01*
X2409991D01*
Y436270D01*
X2420147Y426114D01*
%TF.MD5,e25d9cd2796f328ffc95478f8a0ad111*%
M02*
