%TF.GenerationSoftware,Altium Limited,Altium Designer,20.1.8 (145)*%
G04 Layer_Color=0*
%FSLAX45Y45*%
%MOMM*%
%TF.SameCoordinates,FD79255C-762C-4566-ADEE-39C3475191BA*%
%TF.FilePolarity,Positive*%
%TF.FileFunction,Plated,1,4,PTH,Drill*%
%TF.Part,Single*%
G01*
G75*
%TA.AperFunction,ComponentDrill*%
%ADD68C,0.95000*%
%ADD69C,0.75000*%
%TA.AperFunction,OtherDrill,Pad Free-1 (2mm,2mm)*%
%ADD70C,2.20000*%
%TA.AperFunction,OtherDrill,Pad Free-1 (2mm,26mm)*%
%ADD71C,2.20000*%
%TA.AperFunction,OtherDrill,Pad Free-1 (54mm,26mm)*%
%ADD72C,2.20000*%
%TA.AperFunction,ViaDrill,NotFilled*%
%ADD73C,0.30000*%
D68*
X5461000Y1143000D02*
D03*
Y889000D02*
D03*
X127000Y2286000D02*
D03*
Y2032000D02*
D03*
Y508000D02*
D03*
Y762000D02*
D03*
X2921000Y2667000D02*
D03*
X3175000D02*
D03*
X5461000Y2032000D02*
D03*
Y1778000D02*
D03*
X1590804Y247460D02*
D03*
X1336804D02*
D03*
X1082804D02*
D03*
X828804D02*
D03*
X574804D02*
D03*
Y501460D02*
D03*
X828804D02*
D03*
X1082804D02*
D03*
X1336804D02*
D03*
X1590804D02*
D03*
X2693799Y908317D02*
D03*
X2947799Y908318D02*
D03*
X3201799Y908317D02*
D03*
Y1162317D02*
D03*
X2947799Y1162317D02*
D03*
X2693799Y1162317D02*
D03*
X2367280Y242570D02*
D03*
X2621280D02*
D03*
D69*
X1202640Y1973580D02*
D03*
X1002640D02*
D03*
X802640D02*
D03*
X602640D02*
D03*
D70*
X200000Y200000D02*
D03*
D71*
Y2600000D02*
D03*
D72*
X5400000D02*
D03*
D73*
X504029Y1719802D02*
D03*
X577988Y1573833D02*
D03*
X538293Y1480450D02*
D03*
X458354Y1390742D02*
D03*
X2488166Y1108456D02*
D03*
X710878Y2754219D02*
D03*
X2905020Y417584D02*
D03*
Y45780D02*
D03*
X3041334Y1632838D02*
D03*
X2353172Y1309553D02*
D03*
X2488166Y1210176D02*
D03*
X2054502Y1584900D02*
D03*
X1682059Y1582360D02*
D03*
X3368777Y1926439D02*
D03*
X3042124Y1536198D02*
D03*
X3328967Y1813478D02*
D03*
X3103723Y1961598D02*
D03*
X3041334Y1899209D02*
D03*
X382481Y947711D02*
D03*
X393480Y1207075D02*
D03*
X604391Y1241134D02*
D03*
X670723Y1307880D02*
D03*
X841930Y1269749D02*
D03*
X913963Y1064638D02*
D03*
X642602Y1714307D02*
D03*
X1356250Y1681990D02*
D03*
X2357484Y1815642D02*
D03*
X2833639Y889706D02*
D03*
X3411534Y1172437D02*
D03*
X3371317Y1265297D02*
D03*
X3401423Y1383903D02*
D03*
X3307323Y1408773D02*
D03*
X3401423Y1584563D02*
D03*
X3119830Y1242934D02*
D03*
X3357424Y1075149D02*
D03*
X3124041Y992878D02*
D03*
X3130696Y818274D02*
D03*
X3272902D02*
D03*
X3049698Y739880D02*
D03*
X3341203D02*
D03*
X5547360Y1447800D02*
D03*
X675881Y980440D02*
D03*
X398723Y623960D02*
D03*
X510200Y139880D02*
D03*
X1471930D02*
D03*
X894284Y45780D02*
D03*
X965558Y107581D02*
D03*
X3700999Y2593176D02*
D03*
X4986977Y2549702D02*
D03*
X3627020Y2652275D02*
D03*
X2273195Y1924179D02*
D03*
X2273996Y1865231D02*
D03*
X2335416Y1616990D02*
D03*
X2347742Y1711090D02*
D03*
X45780Y1221740D02*
D03*
X2418240Y1517125D02*
D03*
X2714640Y1517758D02*
D03*
Y1638409D02*
D03*
Y1771486D02*
D03*
X2714639Y1904562D02*
D03*
X2418240Y1954000D02*
D03*
X2273117Y1546212D02*
D03*
X3335859Y2439917D02*
D03*
X3260606Y2501104D02*
D03*
X45780Y1652177D02*
D03*
X341335Y1126143D02*
D03*
X334982Y1390957D02*
D03*
X398723Y384785D02*
D03*
X1864040Y618160D02*
D03*
X1162072Y584653D02*
D03*
X1001030Y760202D02*
D03*
X1413980Y616466D02*
D03*
X5486400Y690880D02*
D03*
X472782Y1658620D02*
D03*
Y1501140D02*
D03*
X226683Y1402080D02*
D03*
X2651678Y2125980D02*
D03*
X3368776Y2278169D02*
D03*
X2484120Y2753995D02*
D03*
X3700716Y2418140D02*
D03*
X1757060Y891981D02*
D03*
X1326030Y1345203D02*
D03*
X672088Y1569646D02*
D03*
X942740Y1766456D02*
D03*
X1682059Y1485720D02*
D03*
X1681697Y1876990D02*
D03*
Y1971090D02*
D03*
X1464711Y2236850D02*
D03*
X1633709D02*
D03*
X1549210Y2323574D02*
D03*
X1811679Y2125980D02*
D03*
X1155505Y978645D02*
D03*
X4908881Y2122019D02*
D03*
Y2027919D02*
D03*
X4786754D02*
D03*
X4786973Y2122019D02*
D03*
X4847818Y1996440D02*
D03*
Y2153920D02*
D03*
X4910877Y1680330D02*
D03*
X776930Y1561397D02*
D03*
X1167664Y760186D02*
D03*
X4892877Y2412200D02*
D03*
X2227226Y1264920D02*
D03*
X2139926Y1159316D02*
D03*
X2227226Y1054100D02*
D03*
X2088661Y1286679D02*
D03*
X2053011Y1370499D02*
D03*
X2164861Y1452868D02*
D03*
X5547360Y2275629D02*
D03*
X5462712Y2170994D02*
D03*
X5222277Y2080260D02*
D03*
X5195473Y2177405D02*
D03*
X1501144Y700914D02*
D03*
X1413375Y782983D02*
D03*
X1931692Y226060D02*
D03*
X2104267Y225860D02*
D03*
X1108204Y1049906D02*
D03*
X2853538Y662045D02*
D03*
X4985034Y2371330D02*
D03*
X936030Y1345203D02*
D03*
X2163600Y1988820D02*
D03*
X2761580Y653579D02*
D03*
X2688997Y724360D02*
D03*
X1992492Y336199D02*
D03*
X1864396Y426900D02*
D03*
X2072585D02*
D03*
X757338Y757621D02*
D03*
X1852380Y1286679D02*
D03*
X1928580Y1452880D02*
D03*
X1988820Y1369780D02*
D03*
X1463283Y1524553D02*
D03*
X3368777Y2104509D02*
D03*
X1002345Y1692985D02*
D03*
X1413107Y1776090D02*
D03*
X1458572Y45780D02*
D03*
X2437980Y638660D02*
D03*
Y559020D02*
D03*
X2562860D02*
D03*
Y638660D02*
D03*
X2437980Y717144D02*
D03*
X2562860D02*
D03*
X2500880Y559020D02*
D03*
Y717144D02*
D03*
X841930Y709136D02*
D03*
X1424304Y1616967D02*
D03*
X1108204Y725775D02*
D03*
X3680176Y2104509D02*
D03*
X1148553Y1565478D02*
D03*
X1069216Y1623848D02*
D03*
X1462901Y1859373D02*
D03*
X5089128Y645780D02*
D03*
X4395820D02*
D03*
X3702512D02*
D03*
X3009204D02*
D03*
X3773022Y2318209D02*
D03*
X2054005Y1924179D02*
D03*
X906930Y1561397D02*
D03*
X920920Y970539D02*
D03*
X3680931Y2753995D02*
D03*
X3679482Y2278169D02*
D03*
X4620214Y2753995D02*
D03*
X2169160Y45780D02*
D03*
X1548883Y2753995D02*
D03*
X3523811Y2373519D02*
D03*
%TF.MD5,32c83c9d723785b04cfe1b8682ed14a5*%
M02*
