%TF.GenerationSoftware,Altium Limited,Altium Designer,20.1.8 (145)*%
G04 Layer_Color=16777215*
%FSLAX45Y45*%
%MOMM*%
%TF.SameCoordinates,FD79255C-762C-4566-ADEE-39C3475191BA*%
%TF.FilePolarity,Positive*%
%TF.FileFunction,Legend,Top*%
%TF.Part,Single*%
G01*
G75*
%TA.AperFunction,NonConductor*%
%ADD38C,0.15240*%
%ADD39C,0.12700*%
%ADD46C,0.25000*%
%ADD47C,0.60000*%
%ADD48C,0.10160*%
%ADD49C,0.20320*%
%ADD50C,0.20000*%
%ADD51C,0.25400*%
G36*
X1436600Y845820D02*
X1411200Y871220D01*
X1436600Y896620D01*
Y845820D01*
D02*
G37*
G36*
X1585190Y848106D02*
X1562076Y871220D01*
X1585190Y894334D01*
Y848106D01*
D02*
G37*
G36*
X3200964Y1466443D02*
X3177850Y1489558D01*
X3200964Y1512671D01*
Y1466443D01*
D02*
G37*
G36*
X3052374Y1464157D02*
X3026974Y1489557D01*
X3052374Y1514957D01*
Y1464157D01*
D02*
G37*
G36*
X2645997Y81148D02*
X2596564D01*
Y97125D01*
X2645997D01*
Y81148D01*
D02*
G37*
G36*
X2373864Y96302D02*
X2404807D01*
Y83299D01*
X2373864D01*
Y52027D01*
X2360697D01*
Y83299D01*
X2329753D01*
Y96302D01*
X2360697D01*
Y127245D01*
X2373864D01*
Y96302D01*
D02*
G37*
D38*
X1196357Y2748255D02*
X1145573D01*
Y2710168D01*
X1170965Y2722863D01*
X1183661D01*
X1196357Y2710168D01*
Y2684776D01*
X1183661Y2672080D01*
X1158269D01*
X1145573Y2684776D01*
X1221748Y2748255D02*
Y2697472D01*
X1247140Y2672080D01*
X1272532Y2697472D01*
Y2748255D01*
X1297924Y2735559D02*
X1310620Y2748255D01*
X1336012D01*
X1348707Y2735559D01*
Y2684776D01*
X1336012Y2672080D01*
X1310620D01*
X1297924Y2684776D01*
Y2735559D01*
X932201Y2748255D02*
X982984D01*
X957592D01*
Y2672080D01*
X1008376Y2748255D02*
X1059159Y2672080D01*
Y2748255D02*
X1008376Y2672080D01*
X718841D02*
Y2748255D01*
X756928D01*
X769624Y2735559D01*
Y2710168D01*
X756928Y2697472D01*
X718841D01*
X744232D02*
X769624Y2672080D01*
X795016Y2748255D02*
X845799Y2672080D01*
Y2748255D02*
X795016Y2672080D01*
X487697Y2735559D02*
X475001Y2748255D01*
X449609D01*
X436913Y2735559D01*
Y2684776D01*
X449609Y2672080D01*
X475001D01*
X487697Y2684776D01*
Y2710168D01*
X462305D01*
X513088Y2672080D02*
Y2748255D01*
X563872Y2672080D01*
Y2748255D01*
X589264D02*
Y2672080D01*
X627352D01*
X640047Y2684776D01*
Y2735559D01*
X627352Y2748255D01*
X589264D01*
D39*
X2242599Y2090017D02*
X2232442Y2100174D01*
X2212128D01*
X2201972Y2090017D01*
Y2079861D01*
X2212128Y2069704D01*
X2232442D01*
X2242599Y2059547D01*
Y2049391D01*
X2232442Y2039234D01*
X2212128D01*
X2201972Y2049391D01*
X2262912Y2039234D02*
X2283225D01*
X2273069D01*
Y2100174D01*
X2262912Y2090017D01*
X1169366Y1633210D02*
Y1582427D01*
X1179523Y1572270D01*
X1199836D01*
X1209993Y1582427D01*
Y1633210D01*
X1230306Y1623053D02*
X1240463Y1633210D01*
X1260776D01*
X1270933Y1623053D01*
Y1612897D01*
X1260776Y1602740D01*
X1250620D01*
X1260776D01*
X1270933Y1592583D01*
Y1582427D01*
X1260776Y1572270D01*
X1240463D01*
X1230306Y1582427D01*
X1521477Y789930D02*
Y728990D01*
X1551947D01*
X1562103Y739147D01*
Y779773D01*
X1551947Y789930D01*
X1521477D01*
X1623043Y728990D02*
X1582417D01*
X1623043Y769617D01*
Y779773D01*
X1612887Y789930D01*
X1592573D01*
X1582417Y779773D01*
X1417031Y1226186D02*
Y1287126D01*
X1447501D01*
X1457657Y1276969D01*
Y1256656D01*
X1447501Y1246499D01*
X1417031D01*
X1437344D02*
X1457657Y1226186D01*
X1477971D02*
X1498284D01*
X1488128D01*
Y1287126D01*
X1477971Y1276969D01*
X1569381Y1226186D02*
X1528754D01*
X1569381Y1266812D01*
Y1276969D01*
X1559224Y1287126D01*
X1538911D01*
X1528754Y1276969D01*
X2933696Y1590931D02*
Y1651871D01*
X2964166D01*
X2974322Y1641715D01*
Y1621401D01*
X2964166Y1611244D01*
X2933696D01*
X2954009D02*
X2974322Y1590931D01*
X2994636Y1641715D02*
X3004793Y1651871D01*
X3025106D01*
X3035263Y1641715D01*
Y1631558D01*
X3025106Y1621401D01*
X3035263Y1611244D01*
Y1601088D01*
X3025106Y1590931D01*
X3004793D01*
X2994636Y1601088D01*
Y1611244D01*
X3004793Y1621401D01*
X2994636Y1631558D01*
Y1641715D01*
X3004793Y1621401D02*
X3025106D01*
X2932342Y1521591D02*
Y1460651D01*
X2962812D01*
X2972968Y1470807D01*
Y1511434D01*
X2962812Y1521591D01*
X2932342D01*
X2993282Y1460651D02*
X3013595D01*
X3003438D01*
Y1521591D01*
X2993282Y1511434D01*
X182897Y1701810D02*
Y1762750D01*
X213367D01*
X223523Y1752593D01*
Y1732280D01*
X213367Y1722123D01*
X182897D01*
X203210D02*
X223523Y1701810D01*
X284463Y1762750D02*
X264150Y1752593D01*
X243837Y1732280D01*
Y1711967D01*
X253993Y1701810D01*
X274307D01*
X284463Y1711967D01*
Y1722123D01*
X274307Y1732280D01*
X243837D01*
X312437Y1699270D02*
Y1760210D01*
X342907D01*
X353063Y1750053D01*
Y1729740D01*
X342907Y1719583D01*
X312437D01*
X332750D02*
X353063Y1699270D01*
X373377Y1750053D02*
X383533Y1760210D01*
X403847D01*
X414003Y1750053D01*
Y1739897D01*
X403847Y1729740D01*
X393690D01*
X403847D01*
X414003Y1719583D01*
Y1709427D01*
X403847Y1699270D01*
X383533D01*
X373377Y1709427D01*
X2269382Y1640888D02*
Y1701828D01*
X2299852D01*
X2310009Y1691671D01*
Y1671358D01*
X2299852Y1661201D01*
X2269382D01*
X2289696D02*
X2310009Y1640888D01*
X2330322D02*
X2350636D01*
X2340479D01*
Y1701828D01*
X2330322Y1691671D01*
X2421733Y1701828D02*
X2381106D01*
Y1671358D01*
X2401419Y1681515D01*
X2411576D01*
X2421733Y1671358D01*
Y1651045D01*
X2411576Y1640888D01*
X2391263D01*
X2381106Y1651045D01*
X2273451Y1527983D02*
Y1588923D01*
X2303921D01*
X2314078Y1578766D01*
Y1558453D01*
X2303921Y1548296D01*
X2273451D01*
X2293765D02*
X2314078Y1527983D01*
X2334392D02*
X2354705D01*
X2344548D01*
Y1588923D01*
X2334392Y1578766D01*
X2425802Y1588923D02*
X2405488Y1578766D01*
X2385175Y1558453D01*
Y1538140D01*
X2395332Y1527983D01*
X2415645D01*
X2425802Y1538140D01*
Y1548296D01*
X2415645Y1558453D01*
X2385175D01*
X2270400Y1778205D02*
Y1839145D01*
X2300870D01*
X2311027Y1828988D01*
Y1808675D01*
X2300870Y1798518D01*
X2270400D01*
X2290713D02*
X2311027Y1778205D01*
X2331340D02*
X2351653D01*
X2341497D01*
Y1839145D01*
X2331340Y1828988D01*
X2412594Y1778205D02*
Y1839145D01*
X2382124Y1808675D01*
X2422750D01*
X2267348Y1908402D02*
Y1969342D01*
X2297818D01*
X2307975Y1959185D01*
Y1938872D01*
X2297818Y1928715D01*
X2267348D01*
X2287662D02*
X2307975Y1908402D01*
X2328288D02*
X2348602D01*
X2338445D01*
Y1969342D01*
X2328288Y1959185D01*
X2379072D02*
X2389229Y1969342D01*
X2409542D01*
X2419699Y1959185D01*
Y1949029D01*
X2409542Y1938872D01*
X2399385D01*
X2409542D01*
X2419699Y1928715D01*
Y1918559D01*
X2409542Y1908402D01*
X2389229D01*
X2379072Y1918559D01*
X309883Y2316470D02*
X289570D01*
X299727D01*
Y2265687D01*
X289570Y2255530D01*
X279413D01*
X269257Y2265687D01*
X330197Y2306313D02*
X340353Y2316470D01*
X360667D01*
X370823Y2306313D01*
Y2296157D01*
X360667Y2286000D01*
X350510D01*
X360667D01*
X370823Y2275843D01*
Y2265687D01*
X360667Y2255530D01*
X340353D01*
X330197Y2265687D01*
X2488714Y1390104D02*
X2499293Y1400684D01*
X2520453D01*
X2531033Y1390104D01*
Y1379525D01*
X2520453Y1368945D01*
X2509873D01*
X2520453D01*
X2531033Y1358365D01*
Y1347785D01*
X2520453Y1337205D01*
X2499293D01*
X2488714Y1347785D01*
X2552193Y1400684D02*
Y1358365D01*
X2573353Y1337205D01*
X2594513Y1358365D01*
Y1400684D01*
X2615672Y1390104D02*
X2626252Y1400684D01*
X2647412D01*
X2657992Y1390104D01*
Y1379525D01*
X2647412Y1368945D01*
X2636832D01*
X2647412D01*
X2657992Y1358365D01*
Y1347785D01*
X2647412Y1337205D01*
X2626252D01*
X2615672Y1347785D01*
X1713406Y1277704D02*
X1671086D01*
Y1245964D01*
X1692246Y1256544D01*
X1702826D01*
X1713406Y1245964D01*
Y1224805D01*
X1702826Y1214225D01*
X1681666D01*
X1671086Y1224805D01*
X1734565Y1277704D02*
Y1235384D01*
X1755725Y1214225D01*
X1776885Y1235384D01*
Y1277704D01*
X1840365Y1267124D02*
X1829785Y1277704D01*
X1808625D01*
X1798045Y1267124D01*
Y1256544D01*
X1808625Y1245964D01*
X1829785D01*
X1840365Y1235384D01*
Y1224805D01*
X1829785Y1214225D01*
X1808625D01*
X1798045Y1224805D01*
X2020207Y1285943D02*
X2009627Y1296523D01*
X1988467D01*
X1977888Y1285943D01*
Y1243623D01*
X1988467Y1233044D01*
X2009627D01*
X2020207Y1243623D01*
Y1264783D01*
X1999047D01*
X2041367Y1233044D02*
Y1296523D01*
X2083687Y1233044D01*
Y1296523D01*
X2104846D02*
Y1233044D01*
X2136586D01*
X2147166Y1243623D01*
Y1285943D01*
X2136586Y1296523D01*
X2104846D01*
X1703183Y194708D02*
X1713762Y184128D01*
X1734922D01*
X1745502Y194708D01*
Y237027D01*
X1734922Y247607D01*
X1713762D01*
X1703183Y237027D01*
Y226448D01*
X1713762Y215868D01*
X1745502D01*
X1766662Y247607D02*
Y205288D01*
X1787822Y184128D01*
X1808982Y205288D01*
Y247607D01*
X1830141Y237027D02*
X1840721Y247607D01*
X1861881D01*
X1872461Y237027D01*
Y194708D01*
X1861881Y184128D01*
X1840721D01*
X1830141Y194708D01*
Y237027D01*
X1733056Y636571D02*
X1690736D01*
Y604831D01*
X1711896Y615411D01*
X1722476D01*
X1733056Y604831D01*
Y583671D01*
X1722476Y573092D01*
X1701316D01*
X1690736Y583671D01*
X1754215Y636571D02*
Y594251D01*
X1775375Y573092D01*
X1796535Y594251D01*
Y636571D01*
X1817695Y625991D02*
X1828275Y636571D01*
X1849435D01*
X1860015Y625991D01*
Y583671D01*
X1849435Y573092D01*
X1828275D01*
X1817695Y583671D01*
Y625991D01*
X1413892Y1314372D02*
Y1375312D01*
X1444362D01*
X1454518Y1365155D01*
Y1344842D01*
X1444362Y1334685D01*
X1413892D01*
X1434205D02*
X1454518Y1314372D01*
X1505302D02*
Y1375312D01*
X1474832Y1344842D01*
X1515458D01*
X2070103Y990607D02*
Y1031233D01*
X2059947Y1041390D01*
X2039633D01*
X2029477Y1031233D01*
Y990607D01*
X2039633Y980450D01*
X2059947D01*
X2049790Y1000763D02*
X2070103Y980450D01*
X2059947D02*
X2070103Y990607D01*
X2131043Y980450D02*
X2090417D01*
X2131043Y1021077D01*
Y1031233D01*
X2120887Y1041390D01*
X2100573D01*
X2090417Y1031233D01*
X2904509Y1850463D02*
Y1911404D01*
X2934979D01*
X2945136Y1901247D01*
Y1880934D01*
X2934979Y1870777D01*
X2904509D01*
X2924823D02*
X2945136Y1850463D01*
X2965449D02*
X2985763D01*
X2975606D01*
Y1911404D01*
X2965449Y1901247D01*
X3016233Y1850463D02*
X3036546D01*
X3026390D01*
Y1911404D01*
X3016233Y1901247D01*
X2930622Y801808D02*
X2910308D01*
X2920465D01*
Y751025D01*
X2910308Y740868D01*
X2900152D01*
X2889995Y751025D01*
X2991562Y740868D02*
X2950935D01*
X2991562Y781495D01*
Y791651D01*
X2981405Y801808D01*
X2961092D01*
X2950935Y791651D01*
X121920Y1148087D02*
Y1188713D01*
X111763Y1198870D01*
X91450D01*
X81293Y1188713D01*
Y1148087D01*
X91450Y1137930D01*
X111763D01*
X101607Y1158243D02*
X121920Y1137930D01*
X111763D02*
X121920Y1148087D01*
X142233Y1137930D02*
X162547D01*
X152390D01*
Y1198870D01*
X142233Y1188713D01*
X538738Y1188730D02*
Y1249670D01*
X569208D01*
X579364Y1239514D01*
Y1219200D01*
X569208Y1209044D01*
X538738D01*
X559051D02*
X579364Y1188730D01*
X640305Y1249670D02*
X599678D01*
Y1219200D01*
X619991Y1229357D01*
X630148D01*
X640305Y1219200D01*
Y1198887D01*
X630148Y1188730D01*
X609834D01*
X599678Y1198887D01*
X347993Y693430D02*
Y754370D01*
X378463D01*
X388620Y744213D01*
Y723900D01*
X378463Y713743D01*
X347993D01*
X368307D02*
X388620Y693430D01*
X408933D02*
X429247D01*
X419090D01*
Y754370D01*
X408933Y744213D01*
X1005788Y1642889D02*
X944847D01*
Y1673359D01*
X955004Y1683516D01*
X975318D01*
X985474Y1673359D01*
Y1642889D01*
Y1663203D02*
X1005788Y1683516D01*
Y1703829D02*
Y1724143D01*
Y1713986D01*
X944847D01*
X955004Y1703829D01*
Y1754613D02*
X944847Y1764770D01*
Y1785083D01*
X955004Y1795240D01*
X995631D01*
X1005788Y1785083D01*
Y1764770D01*
X995631Y1754613D01*
X955004D01*
X644036Y1690420D02*
X583096D01*
Y1720890D01*
X593253Y1731047D01*
X613566D01*
X623723Y1720890D01*
Y1690420D01*
Y1710734D02*
X644036Y1731047D01*
X583096Y1751360D02*
Y1791987D01*
X593253D01*
X633880Y1751360D01*
X644036D01*
X4204064Y2705513D02*
Y2654729D01*
X4214221Y2644573D01*
X4234534D01*
X4244691Y2654729D01*
Y2705513D01*
X4295474Y2644573D02*
Y2705513D01*
X4265004Y2675043D01*
X4305631D01*
X1800951Y2073246D02*
Y2022463D01*
X1811107Y2012306D01*
X1831421D01*
X1841577Y2022463D01*
Y2073246D01*
X1902518D02*
X1861891D01*
Y2042776D01*
X1882204Y2052933D01*
X1892361D01*
X1902518Y2042776D01*
Y2022463D01*
X1892361Y2012306D01*
X1872048D01*
X1861891Y2022463D01*
X2087897Y828030D02*
Y777247D01*
X2098053Y767090D01*
X2118367D01*
X2128523Y777247D01*
Y828030D01*
X2189463Y767090D02*
X2148837D01*
X2189463Y807717D01*
Y817873D01*
X2179307Y828030D01*
X2158993D01*
X2148837Y817873D01*
X2312041Y427649D02*
Y376865D01*
X2322198Y366709D01*
X2342511D01*
X2352668Y376865D01*
Y427649D01*
X2372981Y366709D02*
X2393295D01*
X2383138D01*
Y427649D01*
X2372981Y417492D01*
X2890690Y1719660D02*
Y1780600D01*
X2921161D01*
X2931317Y1770444D01*
Y1750130D01*
X2921161Y1739973D01*
X2890690D01*
X2911004D02*
X2931317Y1719660D01*
X2951631D02*
X2971944D01*
X2961787D01*
Y1780600D01*
X2951631Y1770444D01*
X3002414Y1780600D02*
X3043041D01*
Y1770444D01*
X3002414Y1729817D01*
Y1719660D01*
X5217034Y1288175D02*
Y1349115D01*
X5247504D01*
X5257660Y1338958D01*
Y1318645D01*
X5247504Y1308488D01*
X5217034D01*
X5237347D02*
X5257660Y1288175D01*
X5277974D02*
X5298287D01*
X5288130D01*
Y1349115D01*
X5277974Y1338958D01*
X5328757D02*
X5338914Y1349115D01*
X5359227D01*
X5369384Y1338958D01*
Y1328802D01*
X5359227Y1318645D01*
X5369384Y1308488D01*
Y1298332D01*
X5359227Y1288175D01*
X5338914D01*
X5328757Y1298332D01*
Y1308488D01*
X5338914Y1318645D01*
X5328757Y1328802D01*
Y1338958D01*
X5338914Y1318645D02*
X5359227D01*
X5404930Y1289548D02*
Y1350489D01*
X5435400D01*
X5445557Y1340332D01*
Y1320018D01*
X5435400Y1309862D01*
X5404930D01*
X5425243D02*
X5445557Y1289548D01*
X5465870Y1299705D02*
X5476027Y1289548D01*
X5496340D01*
X5506497Y1299705D01*
Y1340332D01*
X5496340Y1350489D01*
X5476027D01*
X5465870Y1340332D01*
Y1330175D01*
X5476027Y1320018D01*
X5506497D01*
X2786397Y434350D02*
Y495290D01*
X2816867D01*
X2827023Y485133D01*
Y464820D01*
X2816867Y454663D01*
X2786397D01*
X2806710D02*
X2827023Y434350D01*
X2887963D02*
X2847337D01*
X2887963Y474977D01*
Y485133D01*
X2877807Y495290D01*
X2857493D01*
X2847337Y485133D01*
X2688203Y376865D02*
Y417492D01*
X2678046Y427649D01*
X2657733D01*
X2647576Y417492D01*
Y376865D01*
X2657733Y366709D01*
X2678046D01*
X2667889Y387022D02*
X2688203Y366709D01*
X2678046D02*
X2688203Y376865D01*
X2708516Y417492D02*
X2718673Y427649D01*
X2738986D01*
X2749143Y417492D01*
Y407335D01*
X2738986Y397179D01*
X2728829D01*
X2738986D01*
X2749143Y387022D01*
Y376865D01*
X2738986Y366709D01*
X2718673D01*
X2708516Y376865D01*
X1626057Y1388404D02*
X1615901Y1398561D01*
X1595587D01*
X1585430Y1388404D01*
Y1347777D01*
X1595587Y1337621D01*
X1615901D01*
X1626057Y1347777D01*
X1686997Y1398561D02*
X1666684Y1388404D01*
X1646371Y1368091D01*
Y1347777D01*
X1656527Y1337621D01*
X1676841D01*
X1686997Y1347777D01*
Y1357934D01*
X1676841Y1368091D01*
X1646371D01*
X1544602Y2373794D02*
X1534445Y2383951D01*
X1514132D01*
X1503975Y2373794D01*
Y2333167D01*
X1514132Y2323011D01*
X1534445D01*
X1544602Y2333167D01*
X1564915Y2373794D02*
X1575072Y2383951D01*
X1595385D01*
X1605542Y2373794D01*
Y2363637D01*
X1595385Y2353481D01*
X1605542Y2343324D01*
Y2333167D01*
X1595385Y2323011D01*
X1575072D01*
X1564915Y2333167D01*
Y2343324D01*
X1575072Y2353481D01*
X1564915Y2363637D01*
Y2373794D01*
X1575072Y2353481D02*
X1595385D01*
X2291747Y1497390D02*
X2281591Y1507546D01*
X2261277D01*
X2251120Y1497390D01*
Y1456763D01*
X2261277Y1446606D01*
X2281591D01*
X2291747Y1456763D01*
X2312061Y1507546D02*
X2352687D01*
Y1497390D01*
X2312061Y1456763D01*
Y1446606D01*
X5363048Y2164466D02*
X5352892Y2174622D01*
X5332578D01*
X5322421Y2164466D01*
Y2123839D01*
X5332578Y2113682D01*
X5352892D01*
X5363048Y2123839D01*
X5423988Y2174622D02*
X5383362D01*
Y2144152D01*
X5403675Y2154309D01*
X5413832D01*
X5423988Y2144152D01*
Y2123839D01*
X5413832Y2113682D01*
X5393518D01*
X5383362Y2123839D01*
X2521825Y1180120D02*
X2511668Y1190277D01*
X2491355D01*
X2481198Y1180120D01*
Y1139493D01*
X2491355Y1129337D01*
X2511668D01*
X2521825Y1139493D01*
X2542138Y1180120D02*
X2552295Y1190277D01*
X2572609D01*
X2582765Y1180120D01*
Y1169963D01*
X2572609Y1159807D01*
X2562452D01*
X2572609D01*
X2582765Y1149650D01*
Y1139493D01*
X2572609Y1129337D01*
X2552295D01*
X2542138Y1139493D01*
X1956812Y731429D02*
X1946655Y741586D01*
X1926342D01*
X1916185Y731429D01*
Y690802D01*
X1926342Y680645D01*
X1946655D01*
X1956812Y690802D01*
X2017752Y680645D02*
X1977126D01*
X2017752Y721272D01*
Y731429D01*
X2007596Y741586D01*
X1987282D01*
X1977126Y731429D01*
X2105942Y115227D02*
X2095785Y125384D01*
X2075472D01*
X2065315Y115227D01*
Y74600D01*
X2075472Y64443D01*
X2095785D01*
X2105942Y74600D01*
X2126255Y64443D02*
X2146569D01*
X2136412D01*
Y125384D01*
X2126255Y115227D01*
X1127763Y718813D02*
X1117607Y728970D01*
X1097293D01*
X1087137Y718813D01*
Y678187D01*
X1097293Y668030D01*
X1117607D01*
X1127763Y678187D01*
X1178547Y668030D02*
Y728970D01*
X1148077Y698500D01*
X1188703D01*
D46*
X700252Y959124D02*
G03*
X700252Y959124I-12500J0D01*
G01*
X169982Y1032943D02*
G03*
X169982Y1032943I-12500J0D01*
G01*
X2086078Y1434908D02*
G03*
X2086078Y1434908I-12500J0D01*
G01*
D47*
X851560Y1073380D02*
G03*
X851560Y1073380I-30000J0D01*
G01*
X2008600Y1549040D02*
G03*
X2008600Y1549040I-30000J0D01*
G01*
D48*
X400000Y200000D02*
G03*
X400000Y200000I-200000J0D01*
G01*
X5600000Y2600000D02*
G03*
X5600000Y2600000I-200000J0D01*
G01*
X400000Y2599999D02*
G03*
X400000Y2599999I-200000J0D01*
G01*
X2672080Y88900D02*
G03*
X2672080Y88900I-50800J0D01*
G01*
X2418080D02*
G03*
X2418080Y88900I-50800J0D01*
G01*
X1381680Y934740D02*
Y1386860D01*
X721280Y934740D02*
Y1386860D01*
X1381680D01*
X721280Y934740D02*
X1381680D01*
X1698220Y812800D02*
Y929640D01*
X1573760Y906220D02*
Y929640D01*
Y812800D02*
Y836220D01*
X1436600Y845820D02*
Y896620D01*
X1449300Y812800D02*
X1698220D01*
X1449300Y929640D02*
X1698220D01*
X1449300Y812800D02*
Y929640D01*
X1411200Y871220D02*
X1436600Y845820D01*
X1411200Y871220D02*
X1436600Y896620D01*
X1448840Y1061720D02*
X1697760D01*
Y944880D02*
Y1061720D01*
X1448840Y944880D02*
X1697760D01*
X1448840D02*
Y1061720D01*
X3065074Y1677817D02*
X3313994Y1677818D01*
Y1560977D02*
Y1677818D01*
X3065074Y1560977D02*
X3313994Y1560977D01*
X3065074Y1560977D02*
Y1677817D01*
X3313994Y1431137D02*
Y1547977D01*
X3189534Y1524557D02*
Y1547977D01*
Y1431137D02*
Y1454557D01*
X3052374Y1464157D02*
Y1514957D01*
X3065074Y1431137D02*
X3313994D01*
X3065074Y1547977D02*
X3313994D01*
X3065074Y1431137D02*
Y1547977D01*
X3026974Y1489557D02*
X3052374Y1464157D01*
X3026974Y1489557D02*
X3052374Y1514957D01*
X1346480Y641269D02*
Y758109D01*
X1216940Y641269D02*
X1476020D01*
X1216940D02*
Y758109D01*
X1476020D01*
Y641269D02*
Y758109D01*
X189982Y1205443D02*
X479982D01*
X189982Y1125443D02*
X479982D01*
Y1205443D01*
X189982Y1125443D02*
Y1205443D01*
X168263Y1427123D02*
X285103D01*
Y1676043D01*
X168263D02*
X285103D01*
X168263Y1427123D02*
Y1676043D01*
X297907D02*
X414747D01*
X297907Y1427123D02*
Y1676043D01*
Y1427123D02*
X414747D01*
Y1676043D01*
X2441980Y1607963D02*
Y1724803D01*
Y1607963D02*
X2690900D01*
Y1724803D01*
X2441980D02*
X2690900D01*
X2441980Y1469605D02*
Y1586445D01*
Y1469605D02*
X2690900D01*
Y1586445D01*
X2441980D02*
X2690900D01*
X2441980Y1746322D02*
Y1863162D01*
Y1746322D02*
X2690900D01*
Y1863162D01*
X2441980D02*
X2690900D01*
X2441980Y1884680D02*
Y2001520D01*
Y1884680D02*
X2690900D01*
Y2001520D01*
X2441980D02*
X2690900D01*
X2462166Y1080576D02*
Y1238056D01*
X2167526Y1080576D02*
X2462166D01*
X2167526D02*
Y1238056D01*
X2462166D01*
X2314846Y1080576D02*
Y1238056D01*
X5227772Y2196889D02*
Y2354369D01*
X5522412D01*
Y2196889D02*
Y2354369D01*
X5227772Y2196889D02*
X5522412D01*
X5375092D02*
Y2354369D01*
X2252705Y147320D02*
Y304800D01*
X1958065Y147320D02*
X2252705D01*
X1958065D02*
Y304800D01*
X2252705D01*
X2105385Y147320D02*
Y304800D01*
X2211266Y1050453D02*
X2363666D01*
X2211266Y740573D02*
Y1050453D01*
X2363666D02*
X2363666Y740573D01*
X2211266Y740573D02*
X2363666Y740573D01*
X1695680Y1076960D02*
Y1193800D01*
X1446760D02*
X1695680D01*
X1446760Y1076960D02*
Y1193800D01*
Y1076960D02*
X1695680D01*
X1637460Y1990660D02*
X2102280D01*
X1637460Y1467420D02*
X2102280D01*
X1637460D02*
Y1990660D01*
X2102280Y1467420D02*
Y1990660D01*
X2205711Y1311360D02*
Y1428200D01*
X2076171Y1428200D02*
X2335251D01*
Y1311359D02*
Y1428200D01*
X2076171Y1311359D02*
X2335251D01*
X2076171D02*
Y1428200D01*
X1846580Y762220D02*
X1998980D01*
Y1072100D01*
X1846580Y1072100D02*
X1846580Y762220D01*
X1846580Y1072100D02*
X1998980Y1072100D01*
X1835140Y1311360D02*
Y1428200D01*
X1705600Y1311360D02*
X1964680D01*
X1705600D02*
Y1428200D01*
X1964680D01*
Y1311360D02*
Y1428200D01*
X2750820Y599860D02*
X2750820Y447460D01*
X2440940Y599860D02*
X2750820Y599860D01*
X2440940Y447460D02*
X2750820D01*
X2440940D02*
Y599860D01*
X1889751Y661840D02*
X2047231D01*
X2047231Y367200D01*
X1889750D02*
X2047231D01*
X1889750D02*
X1889751Y661840D01*
X1889750Y514520D02*
X2047231D01*
X660718Y1593045D02*
Y1841965D01*
X777558D01*
Y1593045D02*
Y1841965D01*
X660718Y1593045D02*
X777558D01*
X1490790Y2298890D02*
X1607630D01*
X1490790Y2039810D02*
Y2298890D01*
Y2039810D02*
X1607630D01*
Y2298890D01*
X1490790Y2169350D02*
X1607630D01*
X3065074Y1936818D02*
X3313994D01*
Y1819978D02*
Y1936818D01*
X3065074Y1819978D02*
X3313994D01*
X3065074D02*
Y1936818D01*
Y1690138D02*
Y1806978D01*
Y1690138D02*
X3313994D01*
Y1806978D01*
X3065074D02*
X3313994D01*
X2890240Y161608D02*
Y410528D01*
X2773400Y161608D02*
X2890240D01*
X2773400D02*
Y410528D01*
X2890240D01*
X5236672Y1370350D02*
X5353512D01*
Y1619270D01*
X5236672D02*
X5353512D01*
X5236672Y1370350D02*
Y1619270D01*
X2087210Y448661D02*
Y601061D01*
Y448661D02*
X2397090D01*
X2087210Y601061D02*
X2397090Y601061D01*
X2397090Y448661D01*
X801120Y1593045D02*
Y1841965D01*
X917960D01*
Y1593045D02*
Y1841965D01*
X801120Y1593045D02*
X917960D01*
X275521Y774700D02*
X524441D01*
X275521D02*
Y891540D01*
X524441D01*
Y774700D02*
Y891540D01*
X5366672Y1370350D02*
X5483512D01*
Y1619270D01*
X5366672D02*
X5483512D01*
X5366672Y1370350D02*
Y1619270D01*
X533641Y920520D02*
X650481D01*
Y1169440D01*
X533641D02*
X650481D01*
X533641Y920520D02*
Y1169440D01*
D49*
X2231679Y2376744D02*
X2274131Y2478077D01*
X1934479Y2742784D02*
X2534479D01*
X1983019Y2312784D02*
X2473239D01*
X1983019Y2577784D02*
X2473239D01*
X2231679Y2312784D02*
Y2376744D01*
Y2478077D02*
Y2577784D01*
D50*
X1934479Y2142784D02*
X2534479D01*
Y2742784D01*
X1934479Y2142784D02*
Y2742784D01*
D51*
X5107057Y17569D02*
Y779569D01*
Y2379769D02*
Y2443269D01*
X4903857D02*
X5107057D01*
X3481457D02*
X3684657D01*
X3481457Y2367069D02*
Y2443269D01*
Y17569D02*
Y779569D01*
Y17569D02*
X5107057D01*
%TF.MD5,8a0b1879884ae899596e5aaf91d20528*%
M02*
