%TF.GenerationSoftware,Altium Limited,Altium Designer,20.1.8 (145)*%
G04 Layer_Color=39423*
%FSLAX45Y45*%
%MOMM*%
%TF.SameCoordinates,FD79255C-762C-4566-ADEE-39C3475191BA*%
%TF.FilePolarity,Negative*%
%TF.FileFunction,Soldermask,Top*%
%TF.Part,Single*%
G01*
G75*
%TA.AperFunction,ViaPad*%
%ADD34C,3.60000*%
%TA.AperFunction,ComponentPad*%
%ADD40C,1.57600*%
%ADD41C,1.32600*%
G04:AMPARAMS|DCode=42|XSize=1.576mm|YSize=1.526mm|CornerRadius=0.21925mm|HoleSize=0mm|Usage=FLASHONLY|Rotation=180.000|XOffset=0mm|YOffset=0mm|HoleType=Round|Shape=RoundedRectangle|*
%AMROUNDEDRECTD42*
21,1,1.57600,1.08750,0,0,180.0*
21,1,1.13750,1.52600,0,0,180.0*
1,1,0.43850,-0.56875,0.54375*
1,1,0.43850,0.56875,0.54375*
1,1,0.43850,0.56875,-0.54375*
1,1,0.43850,-0.56875,-0.54375*
%
%ADD42ROUNDEDRECTD42*%
%ADD43O,1.57600X1.52600*%
%ADD44C,1.60000*%
G04:AMPARAMS|DCode=45|XSize=1.6mm|YSize=1.6mm|CornerRadius=0.2285mm|HoleSize=0mm|Usage=FLASHONLY|Rotation=180.000|XOffset=0mm|YOffset=0mm|HoleType=Round|Shape=RoundedRectangle|*
%AMROUNDEDRECTD45*
21,1,1.60000,1.14300,0,0,180.0*
21,1,1.14300,1.60000,0,0,180.0*
1,1,0.45700,-0.57150,0.57150*
1,1,0.45700,0.57150,0.57150*
1,1,0.45700,0.57150,-0.57150*
1,1,0.45700,-0.57150,-0.57150*
%
%ADD45ROUNDEDRECTD45*%
%TA.AperFunction,SMDPad,CuDef*%
G04:AMPARAMS|DCode=52|XSize=2.176mm|YSize=1.076mm|CornerRadius=0.088mm|HoleSize=0mm|Usage=FLASHONLY|Rotation=180.000|XOffset=0mm|YOffset=0mm|HoleType=Round|Shape=RoundedRectangle|*
%AMROUNDEDRECTD52*
21,1,2.17600,0.90000,0,0,180.0*
21,1,2.00000,1.07600,0,0,180.0*
1,1,0.17600,-1.00000,0.45000*
1,1,0.17600,1.00000,0.45000*
1,1,0.17600,1.00000,-0.45000*
1,1,0.17600,-1.00000,-0.45000*
%
%ADD52ROUNDEDRECTD52*%
%ADD53O,0.52600X1.47600*%
G04:AMPARAMS|DCode=54|XSize=0.926mm|YSize=0.926mm|CornerRadius=0.0805mm|HoleSize=0mm|Usage=FLASHONLY|Rotation=270.000|XOffset=0mm|YOffset=0mm|HoleType=Round|Shape=RoundedRectangle|*
%AMROUNDEDRECTD54*
21,1,0.92600,0.76500,0,0,270.0*
21,1,0.76500,0.92600,0,0,270.0*
1,1,0.16100,-0.38250,-0.38250*
1,1,0.16100,-0.38250,0.38250*
1,1,0.16100,0.38250,0.38250*
1,1,0.16100,0.38250,-0.38250*
%
%ADD54ROUNDEDRECTD54*%
G04:AMPARAMS|DCode=55|XSize=0.926mm|YSize=0.976mm|CornerRadius=0.0805mm|HoleSize=0mm|Usage=FLASHONLY|Rotation=270.000|XOffset=0mm|YOffset=0mm|HoleType=Round|Shape=RoundedRectangle|*
%AMROUNDEDRECTD55*
21,1,0.92600,0.81500,0,0,270.0*
21,1,0.76500,0.97600,0,0,270.0*
1,1,0.16100,-0.40750,-0.38250*
1,1,0.16100,-0.40750,0.38250*
1,1,0.16100,0.40750,0.38250*
1,1,0.16100,0.40750,-0.38250*
%
%ADD55ROUNDEDRECTD55*%
G04:AMPARAMS|DCode=56|XSize=0.576mm|YSize=1.126mm|CornerRadius=0.063mm|HoleSize=0mm|Usage=FLASHONLY|Rotation=180.000|XOffset=0mm|YOffset=0mm|HoleType=Round|Shape=RoundedRectangle|*
%AMROUNDEDRECTD56*
21,1,0.57600,1.00000,0,0,180.0*
21,1,0.45000,1.12600,0,0,180.0*
1,1,0.12600,-0.22500,0.50000*
1,1,0.12600,0.22500,0.50000*
1,1,0.12600,0.22500,-0.50000*
1,1,0.12600,-0.22500,-0.50000*
%
%ADD56ROUNDEDRECTD56*%
G04:AMPARAMS|DCode=57|XSize=0.926mm|YSize=0.926mm|CornerRadius=0.0805mm|HoleSize=0mm|Usage=FLASHONLY|Rotation=180.000|XOffset=0mm|YOffset=0mm|HoleType=Round|Shape=RoundedRectangle|*
%AMROUNDEDRECTD57*
21,1,0.92600,0.76500,0,0,180.0*
21,1,0.76500,0.92600,0,0,180.0*
1,1,0.16100,-0.38250,0.38250*
1,1,0.16100,0.38250,0.38250*
1,1,0.16100,0.38250,-0.38250*
1,1,0.16100,-0.38250,-0.38250*
%
%ADD57ROUNDEDRECTD57*%
G04:AMPARAMS|DCode=58|XSize=1.351mm|YSize=0.976mm|CornerRadius=0.083mm|HoleSize=0mm|Usage=FLASHONLY|Rotation=90.000|XOffset=0mm|YOffset=0mm|HoleType=Round|Shape=RoundedRectangle|*
%AMROUNDEDRECTD58*
21,1,1.35100,0.81000,0,0,90.0*
21,1,1.18500,0.97600,0,0,90.0*
1,1,0.16600,0.40500,0.59250*
1,1,0.16600,0.40500,-0.59250*
1,1,0.16600,-0.40500,-0.59250*
1,1,0.16600,-0.40500,0.59250*
%
%ADD58ROUNDEDRECTD58*%
G04:AMPARAMS|DCode=59|XSize=0.676mm|YSize=0.976mm|CornerRadius=0.068mm|HoleSize=0mm|Usage=FLASHONLY|Rotation=270.000|XOffset=0mm|YOffset=0mm|HoleType=Round|Shape=RoundedRectangle|*
%AMROUNDEDRECTD59*
21,1,0.67600,0.84000,0,0,270.0*
21,1,0.54000,0.97600,0,0,270.0*
1,1,0.13600,-0.42000,-0.27000*
1,1,0.13600,-0.42000,0.27000*
1,1,0.13600,0.42000,0.27000*
1,1,0.13600,0.42000,-0.27000*
%
%ADD59ROUNDEDRECTD59*%
%ADD60O,1.47600X0.52600*%
%ADD61C,1.07600*%
G04:AMPARAMS|DCode=62|XSize=0.676mm|YSize=0.976mm|CornerRadius=0.068mm|HoleSize=0mm|Usage=FLASHONLY|Rotation=0.000|XOffset=0mm|YOffset=0mm|HoleType=Round|Shape=RoundedRectangle|*
%AMROUNDEDRECTD62*
21,1,0.67600,0.84000,0,0,0.0*
21,1,0.54000,0.97600,0,0,0.0*
1,1,0.13600,0.27000,-0.42000*
1,1,0.13600,-0.27000,-0.42000*
1,1,0.13600,-0.27000,0.42000*
1,1,0.13600,0.27000,0.42000*
%
%ADD62ROUNDEDRECTD62*%
G04:AMPARAMS|DCode=63|XSize=1.351mm|YSize=0.976mm|CornerRadius=0.083mm|HoleSize=0mm|Usage=FLASHONLY|Rotation=180.000|XOffset=0mm|YOffset=0mm|HoleType=Round|Shape=RoundedRectangle|*
%AMROUNDEDRECTD63*
21,1,1.35100,0.81000,0,0,180.0*
21,1,1.18500,0.97600,0,0,180.0*
1,1,0.16600,-0.59250,0.40500*
1,1,0.16600,0.59250,0.40500*
1,1,0.16600,0.59250,-0.40500*
1,1,0.16600,-0.59250,-0.40500*
%
%ADD63ROUNDEDRECTD63*%
G04:AMPARAMS|DCode=64|XSize=0.926mm|YSize=0.976mm|CornerRadius=0.0805mm|HoleSize=0mm|Usage=FLASHONLY|Rotation=0.000|XOffset=0mm|YOffset=0mm|HoleType=Round|Shape=RoundedRectangle|*
%AMROUNDEDRECTD64*
21,1,0.92600,0.81500,0,0,0.0*
21,1,0.76500,0.97600,0,0,0.0*
1,1,0.16100,0.38250,-0.40750*
1,1,0.16100,-0.38250,-0.40750*
1,1,0.16100,-0.38250,0.40750*
1,1,0.16100,0.38250,0.40750*
%
%ADD64ROUNDEDRECTD64*%
%TA.AperFunction,ConnectorPad*%
G04:AMPARAMS|DCode=65|XSize=1.176mm|YSize=2.376mm|CornerRadius=0.0435mm|HoleSize=0mm|Usage=FLASHONLY|Rotation=270.000|XOffset=0mm|YOffset=0mm|HoleType=Round|Shape=RoundedRectangle|*
%AMROUNDEDRECTD65*
21,1,1.17600,2.28900,0,0,270.0*
21,1,1.08900,2.37600,0,0,270.0*
1,1,0.08700,-1.14450,-0.54450*
1,1,0.08700,-1.14450,0.54450*
1,1,0.08700,1.14450,0.54450*
1,1,0.08700,1.14450,-0.54450*
%
%ADD65ROUNDEDRECTD65*%
G04:AMPARAMS|DCode=66|XSize=1.176mm|YSize=2.376mm|CornerRadius=0.0435mm|HoleSize=0mm|Usage=FLASHONLY|Rotation=0.000|XOffset=0mm|YOffset=0mm|HoleType=Round|Shape=RoundedRectangle|*
%AMROUNDEDRECTD66*
21,1,1.17600,2.28900,0,0,0.0*
21,1,1.08900,2.37600,0,0,0.0*
1,1,0.08700,0.54450,-1.14450*
1,1,0.08700,-0.54450,-1.14450*
1,1,0.08700,-0.54450,1.14450*
1,1,0.08700,0.54450,1.14450*
%
%ADD66ROUNDEDRECTD66*%
D34*
X200000Y200000D02*
D03*
Y2600000D02*
D03*
X5400000D02*
D03*
D40*
X5461000Y1143000D02*
D03*
Y889000D02*
D03*
X127000Y2286000D02*
D03*
Y2032000D02*
D03*
Y508000D02*
D03*
Y762000D02*
D03*
X2921000Y2667000D02*
D03*
X3175000D02*
D03*
X5461000Y2032000D02*
D03*
Y1778000D02*
D03*
D41*
X1202640Y1973580D02*
D03*
X1002640D02*
D03*
X802640D02*
D03*
X602640D02*
D03*
D42*
X1590804Y247460D02*
D03*
X2693799Y908317D02*
D03*
D43*
X1336804Y247460D02*
D03*
X1082804D02*
D03*
X828804D02*
D03*
X574804D02*
D03*
Y501460D02*
D03*
X828804D02*
D03*
X1082804D02*
D03*
X1336804D02*
D03*
X1590804D02*
D03*
X2947799Y908318D02*
D03*
X3201799Y908317D02*
D03*
Y1162317D02*
D03*
X2947799Y1162317D02*
D03*
X2693799Y1162317D02*
D03*
D44*
X2367280Y242570D02*
D03*
D45*
X2621280D02*
D03*
D52*
X2651678Y2217784D02*
D03*
X1811679D02*
D03*
X2651678Y2667784D02*
D03*
X1811679D02*
D03*
D53*
X1343980Y1453300D02*
D03*
X1278980D02*
D03*
X1213980D02*
D03*
X1148980D02*
D03*
X1083980D02*
D03*
X1018980D02*
D03*
X953980D02*
D03*
X888980D02*
D03*
X823980D02*
D03*
X758980D02*
D03*
X1343980Y868300D02*
D03*
X1278980D02*
D03*
X1213980D02*
D03*
X1148980D02*
D03*
X1083980D02*
D03*
X1018980D02*
D03*
X953980D02*
D03*
X888980D02*
D03*
X823980D02*
D03*
X758980D02*
D03*
D54*
X1638760Y871220D02*
D03*
X1508760D02*
D03*
X1508300Y1003300D02*
D03*
X1638300D02*
D03*
X3124534Y1619398D02*
D03*
X3254533Y1619398D02*
D03*
Y1489557D02*
D03*
X3124534Y1489558D02*
D03*
X2631440Y1666383D02*
D03*
X2501440D02*
D03*
X2631440Y1528025D02*
D03*
X2501440D02*
D03*
X2631440Y1804742D02*
D03*
X2501440D02*
D03*
X2631440Y1943100D02*
D03*
X2501440D02*
D03*
X1506220Y1135380D02*
D03*
X1636220D02*
D03*
X3124534Y1878398D02*
D03*
X3254534D02*
D03*
Y1748558D02*
D03*
X3124534D02*
D03*
X464982Y833120D02*
D03*
X334982D02*
D03*
D55*
X1278980Y699689D02*
D03*
X1413980D02*
D03*
X2273211Y1369780D02*
D03*
X2138211D02*
D03*
X1767640D02*
D03*
X1902640D02*
D03*
D56*
X239981Y1297943D02*
D03*
X334982Y1297943D02*
D03*
X429981Y1297943D02*
D03*
Y1032943D02*
D03*
X334982Y1032943D02*
D03*
X239981D02*
D03*
D57*
X226683Y1616583D02*
D03*
Y1486583D02*
D03*
X356327Y1486583D02*
D03*
Y1616583D02*
D03*
X719138Y1652505D02*
D03*
Y1782505D02*
D03*
X2831820Y351068D02*
D03*
Y221068D02*
D03*
X5295092Y1559809D02*
D03*
Y1429809D02*
D03*
X859540Y1652505D02*
D03*
Y1782505D02*
D03*
X5425092Y1559809D02*
D03*
Y1429809D02*
D03*
X592061Y1109980D02*
D03*
Y979980D02*
D03*
D58*
X2402466Y1159316D02*
D03*
X2227226D02*
D03*
X5287472Y2275629D02*
D03*
X5462712D02*
D03*
X2193005Y226060D02*
D03*
X2017765D02*
D03*
D59*
X2402466Y800513D02*
D03*
Y990513D02*
D03*
X2172466Y895513D02*
D03*
X1807780Y1012160D02*
D03*
Y822160D02*
D03*
X2037780Y917160D02*
D03*
D60*
X1573600Y1794040D02*
D03*
Y1729040D02*
D03*
Y1664040D02*
D03*
Y1599040D02*
D03*
Y1924040D02*
D03*
Y1859040D02*
D03*
Y1534040D02*
D03*
X2163600Y1924040D02*
D03*
Y1859040D02*
D03*
Y1794040D02*
D03*
Y1729040D02*
D03*
Y1664040D02*
D03*
Y1599040D02*
D03*
Y1534040D02*
D03*
D61*
X2420990Y1369780D02*
D03*
X1877310Y1165818D02*
D03*
X2052320D02*
D03*
X1787187Y109220D02*
D03*
X1754344Y501460D02*
D03*
D62*
X2595880Y408660D02*
D03*
X2500880Y638660D02*
D03*
X2690880D02*
D03*
X2337150Y639861D02*
D03*
X2147150D02*
D03*
X2242150Y409861D02*
D03*
D63*
X1968491Y602140D02*
D03*
Y426900D02*
D03*
D64*
X1549210Y2236850D02*
D03*
Y2101850D02*
D03*
D65*
X5066577Y878629D02*
D03*
Y2074969D02*
D03*
X3524477Y2278169D02*
D03*
X5066577Y1076749D02*
D03*
Y1277409D02*
D03*
Y1475529D02*
D03*
Y1678729D02*
D03*
Y1876849D02*
D03*
Y2275629D02*
D03*
X3524477Y2077509D02*
D03*
Y1879389D02*
D03*
X3527017Y1678729D02*
D03*
Y1478069D02*
D03*
Y1279949D02*
D03*
Y1076749D02*
D03*
Y878629D02*
D03*
D66*
X4797177Y2473909D02*
D03*
X4599057D02*
D03*
X4400937D02*
D03*
X4197737D02*
D03*
X3999617D02*
D03*
X3796417D02*
D03*
%TF.MD5,4279934c02c55631f0cc9a4e78de3692*%
M02*
