%TF.GenerationSoftware,Altium Limited,Altium Designer,20.1.8 (145)*%
G04 Layer_Physical_Order=2*
G04 Layer_Color=36540*
%FSLAX45Y45*%
%MOMM*%
%TF.SameCoordinates,FD79255C-762C-4566-ADEE-39C3475191BA*%
%TF.FilePolarity,Positive*%
%TF.FileFunction,Copper,L2,Inr,Signal*%
%TF.Part,Single*%
G01*
G75*
%TA.AperFunction,ComponentPad*%
%ADD30C,1.50000*%
%ADD31C,1.25000*%
G04:AMPARAMS|DCode=32|XSize=1.5mm|YSize=1.45mm|CornerRadius=0.18125mm|HoleSize=0mm|Usage=FLASHONLY|Rotation=180.000|XOffset=0mm|YOffset=0mm|HoleType=Round|Shape=RoundedRectangle|*
%AMROUNDEDRECTD32*
21,1,1.50000,1.08750,0,0,180.0*
21,1,1.13750,1.45000,0,0,180.0*
1,1,0.36250,-0.56875,0.54375*
1,1,0.36250,0.56875,0.54375*
1,1,0.36250,0.56875,-0.54375*
1,1,0.36250,-0.56875,-0.54375*
%
%ADD32ROUNDEDRECTD32*%
%ADD33O,1.50000X1.45000*%
%TA.AperFunction,ViaPad*%
%ADD34C,3.60000*%
%TA.AperFunction,ComponentPad*%
%ADD35C,1.52400*%
G04:AMPARAMS|DCode=36|XSize=1.524mm|YSize=1.524mm|CornerRadius=0.1905mm|HoleSize=0mm|Usage=FLASHONLY|Rotation=180.000|XOffset=0mm|YOffset=0mm|HoleType=Round|Shape=RoundedRectangle|*
%AMROUNDEDRECTD36*
21,1,1.52400,1.14300,0,0,180.0*
21,1,1.14300,1.52400,0,0,180.0*
1,1,0.38100,-0.57150,0.57150*
1,1,0.38100,0.57150,0.57150*
1,1,0.38100,0.57150,-0.57150*
1,1,0.38100,-0.57150,-0.57150*
%
%ADD36ROUNDEDRECTD36*%
%TA.AperFunction,ViaPad*%
%ADD37C,0.56000*%
G36*
X200000Y2782065D02*
X5400001D01*
Y2782065D01*
X5417460Y2781291D01*
X5431639Y2779424D01*
X5447156Y2775984D01*
X5462315Y2771205D01*
X5476999Y2765122D01*
X5491097Y2757783D01*
X5504502Y2749243D01*
X5517112Y2739567D01*
X5528831Y2728829D01*
X5539569Y2717111D01*
X5549244Y2704501D01*
X5557784Y2691096D01*
X5565123Y2676998D01*
X5571206Y2662313D01*
X5575986Y2647155D01*
X5579426Y2631637D01*
X5581500Y2615879D01*
X5582162Y2600724D01*
X5582067Y2600000D01*
Y800000D01*
X5582162Y799276D01*
X5581500Y784121D01*
X5579426Y768363D01*
X5575986Y752845D01*
X5571206Y737686D01*
X5565123Y723002D01*
X5557784Y708903D01*
X5549244Y695498D01*
X5539568Y682888D01*
X5528830Y671170D01*
X5517112Y660432D01*
X5504502Y650756D01*
X5491097Y642216D01*
X5476998Y634877D01*
X5462314Y628794D01*
X5447155Y624015D01*
X5431638Y620575D01*
X5415879Y618500D01*
X5400725Y617838D01*
X5400000Y617934D01*
X3068580Y617933D01*
X3050800Y617966D01*
X3037592Y617225D01*
X3033595Y616545D01*
X3024550Y615008D01*
X3011838Y611346D01*
X2999617Y606284D01*
X2988038Y599885D01*
X2977250Y592230D01*
X2967386Y583415D01*
X2958571Y573551D01*
X2950916Y562762D01*
X2944517Y551184D01*
X2939454Y538962D01*
X2935792Y526250D01*
X2934255Y517206D01*
X2933575Y513209D01*
X2932834Y500000D01*
X2932867D01*
Y17933D01*
X200000D01*
X199276Y17838D01*
X184121Y18500D01*
X168363Y20574D01*
X152845Y24014D01*
X137686Y28794D01*
X123002Y34876D01*
X108903Y42216D01*
X95498Y50756D01*
X82888Y60432D01*
X71170Y71170D01*
X60432Y82888D01*
X50756Y95498D01*
X42216Y108903D01*
X34876Y123002D01*
X28794Y137686D01*
X24014Y152845D01*
X20574Y168363D01*
X18500Y184121D01*
X17846Y199100D01*
X17934Y199769D01*
X17933Y2600000D01*
X17838Y2600724D01*
X18500Y2615878D01*
X20574Y2631636D01*
X24014Y2647154D01*
X28794Y2662312D01*
X34876Y2676997D01*
X42216Y2691095D01*
X50756Y2704501D01*
X60432Y2717110D01*
X71170Y2728829D01*
X82888Y2739567D01*
X95498Y2749243D01*
X108903Y2757783D01*
X123002Y2765122D01*
X137686Y2771205D01*
X152845Y2775984D01*
X168363Y2779424D01*
X184121Y2781499D01*
X199276Y2782161D01*
X200000Y2782065D01*
D02*
G37*
%LPC*%
G36*
X4847818Y2194817D02*
X4839839Y2194031D01*
X4832167Y2191704D01*
X4825097Y2187925D01*
X4818899Y2182838D01*
X4813813Y2176641D01*
X4810034Y2169570D01*
X4807707Y2161899D01*
X4806921Y2153920D01*
X4807707Y2145941D01*
X4810034Y2138270D01*
X4813813Y2131199D01*
X4818899Y2125002D01*
X4825097Y2119915D01*
X4832167Y2116136D01*
X4839839Y2113809D01*
X4847818Y2113023D01*
X4855796Y2113809D01*
X4863468Y2116136D01*
X4870539Y2119915D01*
X4876736Y2125002D01*
X4881822Y2131199D01*
X4885601Y2138270D01*
X4887929Y2145941D01*
X4888714Y2153920D01*
X4887929Y2161899D01*
X4885601Y2169570D01*
X4881822Y2176641D01*
X4876736Y2182838D01*
X4870539Y2187925D01*
X4863468Y2191704D01*
X4855796Y2194031D01*
X4847818Y2194817D01*
D02*
G37*
G36*
X608990Y2048525D02*
Y1979930D01*
X677585D01*
X677357Y1983417D01*
X675433Y1993085D01*
X672265Y2002419D01*
X667905Y2011261D01*
X662428Y2019457D01*
X655928Y2026868D01*
X648517Y2033368D01*
X640321Y2038845D01*
X631479Y2043205D01*
X622145Y2046373D01*
X612477Y2048297D01*
X608990Y2048525D01*
D02*
G37*
G36*
X596290D02*
X592803Y2048297D01*
X583135Y2046373D01*
X573800Y2043205D01*
X564959Y2038845D01*
X556763Y2033368D01*
X549351Y2026868D01*
X542852Y2019457D01*
X537375Y2011261D01*
X533015Y2002419D01*
X529847Y1993085D01*
X527923Y1983417D01*
X527695Y1979930D01*
X596290D01*
Y2048525D01*
D02*
G37*
G36*
X4847818Y2037337D02*
X4839839Y2036551D01*
X4832167Y2034224D01*
X4825097Y2030445D01*
X4818899Y2025358D01*
X4813813Y2019161D01*
X4810034Y2012090D01*
X4807707Y2004419D01*
X4806921Y1996440D01*
X4807707Y1988461D01*
X4810034Y1980790D01*
X4813813Y1973719D01*
X4818899Y1967522D01*
X4825097Y1962435D01*
X4832167Y1958656D01*
X4839839Y1956329D01*
X4847818Y1955543D01*
X4855796Y1956329D01*
X4863468Y1958656D01*
X4870539Y1962435D01*
X4876736Y1967522D01*
X4881822Y1973719D01*
X4885601Y1980790D01*
X4887929Y1988461D01*
X4888714Y1996440D01*
X4887929Y2004419D01*
X4885601Y2012090D01*
X4881822Y2019161D01*
X4876736Y2025358D01*
X4870539Y2030445D01*
X4863468Y2034224D01*
X4855796Y2036551D01*
X4847818Y2037337D01*
D02*
G37*
G36*
X677585Y1967230D02*
X608990D01*
Y1898635D01*
X612477Y1898863D01*
X622145Y1900787D01*
X631479Y1903955D01*
X640321Y1908315D01*
X648517Y1913792D01*
X655928Y1920292D01*
X662428Y1927703D01*
X667905Y1935899D01*
X672265Y1944741D01*
X675433Y1954075D01*
X677357Y1963743D01*
X677585Y1967230D01*
D02*
G37*
G36*
X596290D02*
X527695D01*
X527923Y1963743D01*
X529847Y1954075D01*
X533015Y1944741D01*
X537375Y1935899D01*
X542852Y1927703D01*
X549351Y1920292D01*
X556763Y1913792D01*
X564959Y1908315D01*
X573800Y1903955D01*
X583135Y1900787D01*
X592803Y1898863D01*
X596290Y1898635D01*
Y1967230D01*
D02*
G37*
G36*
X1202640Y2048941D02*
X1192803Y2048297D01*
X1183135Y2046373D01*
X1173801Y2043205D01*
X1164959Y2038845D01*
X1156763Y2033368D01*
X1149352Y2026868D01*
X1142852Y2019457D01*
X1137375Y2011261D01*
X1133015Y2002419D01*
X1129847Y1993085D01*
X1127923Y1983417D01*
X1127279Y1973580D01*
X1127923Y1963743D01*
X1129847Y1954075D01*
X1133015Y1944741D01*
X1137375Y1935899D01*
X1142852Y1927703D01*
X1149352Y1920292D01*
X1156763Y1913792D01*
X1164959Y1908315D01*
X1173801Y1903955D01*
X1183135Y1900787D01*
X1192803Y1898863D01*
X1202640Y1898219D01*
X1212477Y1898863D01*
X1222145Y1900787D01*
X1231479Y1903955D01*
X1240321Y1908315D01*
X1248517Y1913792D01*
X1255928Y1920292D01*
X1262428Y1927703D01*
X1267905Y1935899D01*
X1272265Y1944741D01*
X1275433Y1954075D01*
X1277357Y1963743D01*
X1278001Y1973580D01*
X1277357Y1983417D01*
X1275433Y1993085D01*
X1272265Y2002419D01*
X1267905Y2011261D01*
X1262428Y2019457D01*
X1255928Y2026868D01*
X1248517Y2033368D01*
X1240321Y2038845D01*
X1231479Y2043205D01*
X1222145Y2046373D01*
X1212477Y2048297D01*
X1202640Y2048941D01*
D02*
G37*
G36*
X1002640D02*
X992803Y2048297D01*
X983135Y2046373D01*
X973800Y2043205D01*
X964959Y2038845D01*
X956763Y2033368D01*
X949351Y2026868D01*
X942852Y2019457D01*
X937375Y2011261D01*
X933015Y2002419D01*
X929847Y1993085D01*
X927923Y1983417D01*
X927279Y1973580D01*
X927923Y1963743D01*
X929847Y1954075D01*
X933015Y1944741D01*
X937375Y1935899D01*
X942852Y1927703D01*
X949351Y1920292D01*
X956763Y1913792D01*
X964959Y1908315D01*
X973800Y1903955D01*
X983135Y1900787D01*
X992803Y1898863D01*
X1002640Y1898219D01*
X1012477Y1898863D01*
X1022145Y1900787D01*
X1031479Y1903955D01*
X1040320Y1908315D01*
X1048517Y1913792D01*
X1055928Y1920292D01*
X1062428Y1927703D01*
X1067905Y1935899D01*
X1072265Y1944741D01*
X1075433Y1954075D01*
X1077356Y1963743D01*
X1078001Y1973580D01*
X1077356Y1983417D01*
X1075433Y1993085D01*
X1072265Y2002419D01*
X1067905Y2011261D01*
X1062428Y2019457D01*
X1055928Y2026868D01*
X1048517Y2033368D01*
X1040320Y2038845D01*
X1031479Y2043205D01*
X1022145Y2046373D01*
X1012477Y2048297D01*
X1002640Y2048941D01*
D02*
G37*
G36*
X802640D02*
X792803Y2048297D01*
X783135Y2046373D01*
X773801Y2043205D01*
X764959Y2038845D01*
X756763Y2033368D01*
X749352Y2026868D01*
X742852Y2019457D01*
X737375Y2011261D01*
X733015Y2002419D01*
X729847Y1993085D01*
X727923Y1983417D01*
X727279Y1973580D01*
X727923Y1963743D01*
X729847Y1954075D01*
X733015Y1944741D01*
X737375Y1935899D01*
X742852Y1927703D01*
X749352Y1920292D01*
X756763Y1913792D01*
X764959Y1908315D01*
X773801Y1903955D01*
X783135Y1900787D01*
X792803Y1898863D01*
X802640Y1898219D01*
X812477Y1898863D01*
X822145Y1900787D01*
X831479Y1903955D01*
X840321Y1908315D01*
X848517Y1913792D01*
X855928Y1920292D01*
X862428Y1927703D01*
X867905Y1935899D01*
X872265Y1944741D01*
X875433Y1954075D01*
X877357Y1963743D01*
X878001Y1973580D01*
X877357Y1983417D01*
X875433Y1993085D01*
X872265Y2002419D01*
X867905Y2011261D01*
X862428Y2019457D01*
X855928Y2026868D01*
X848517Y2033368D01*
X840321Y2038845D01*
X831479Y2043205D01*
X822145Y2046373D01*
X812477Y2048297D01*
X802640Y2048941D01*
D02*
G37*
G36*
X472782Y1699517D02*
X464804Y1698731D01*
X457132Y1696404D01*
X450061Y1692625D01*
X443864Y1687538D01*
X438778Y1681341D01*
X434999Y1674270D01*
X432671Y1666599D01*
X431886Y1658620D01*
X432671Y1650641D01*
X434999Y1642970D01*
X438778Y1635899D01*
X443864Y1629702D01*
X450061Y1624615D01*
X457132Y1620836D01*
X464804Y1618509D01*
X472782Y1617723D01*
X480761Y1618509D01*
X488433Y1620836D01*
X495503Y1624615D01*
X501701Y1629702D01*
X506787Y1635899D01*
X510566Y1642970D01*
X512893Y1650641D01*
X513679Y1658620D01*
X512893Y1666599D01*
X510566Y1674270D01*
X506787Y1681341D01*
X501701Y1687538D01*
X495503Y1692625D01*
X488433Y1696404D01*
X480761Y1698731D01*
X472782Y1699517D01*
D02*
G37*
G36*
Y1542037D02*
X464804Y1541251D01*
X457132Y1538924D01*
X450061Y1535145D01*
X443864Y1530058D01*
X438778Y1523861D01*
X434999Y1516790D01*
X432671Y1509119D01*
X431886Y1501140D01*
X432671Y1493161D01*
X434999Y1485490D01*
X438778Y1478419D01*
X443864Y1472222D01*
X450061Y1467135D01*
X457132Y1463356D01*
X464804Y1461029D01*
X472782Y1460243D01*
X480761Y1461029D01*
X488433Y1463356D01*
X495503Y1467135D01*
X501701Y1472222D01*
X506787Y1478419D01*
X510566Y1485490D01*
X512893Y1493161D01*
X513679Y1501140D01*
X512893Y1509119D01*
X510566Y1516790D01*
X506787Y1523861D01*
X501701Y1530058D01*
X495503Y1535145D01*
X488433Y1538924D01*
X480761Y1541251D01*
X472782Y1542037D01*
D02*
G37*
G36*
X2954149Y1247448D02*
Y1168667D01*
X3035265D01*
X3034951Y1173462D01*
X3032772Y1184416D01*
X3029182Y1194992D01*
X3024242Y1205009D01*
X3018037Y1214295D01*
X3010673Y1222692D01*
X3002276Y1230056D01*
X2992990Y1236261D01*
X2982973Y1241201D01*
X2972397Y1244791D01*
X2961443Y1246970D01*
X2954149Y1247448D01*
D02*
G37*
G36*
X2941449D02*
X2934154Y1246970D01*
X2923200Y1244791D01*
X2912624Y1241201D01*
X2902607Y1236261D01*
X2893321Y1230056D01*
X2884924Y1222692D01*
X2877560Y1214295D01*
X2871355Y1205009D01*
X2866415Y1194992D01*
X2862825Y1184416D01*
X2860647Y1173462D01*
X2860332Y1168667D01*
X2941449D01*
Y1247448D01*
D02*
G37*
G36*
X3035265Y1155967D02*
X2954149D01*
Y1077187D01*
X2961443Y1077665D01*
X2972397Y1079844D01*
X2982973Y1083434D01*
X2992990Y1088373D01*
X3002276Y1094578D01*
X3010673Y1101942D01*
X3018037Y1110339D01*
X3024242Y1119626D01*
X3029182Y1129643D01*
X3032772Y1140218D01*
X3034951Y1151172D01*
X3035265Y1155967D01*
D02*
G37*
G36*
X2941449D02*
X2860332D01*
X2860647Y1151172D01*
X2862825Y1140218D01*
X2866415Y1129643D01*
X2871355Y1119626D01*
X2877560Y1110339D01*
X2884924Y1101942D01*
X2893321Y1094578D01*
X2902607Y1088373D01*
X2912624Y1083434D01*
X2923200Y1079844D01*
X2934154Y1077665D01*
X2941449Y1077187D01*
Y1155967D01*
D02*
G37*
G36*
X3204299Y1247700D02*
X3199299D01*
X3188154Y1246970D01*
X3177200Y1244791D01*
X3166624Y1241201D01*
X3156607Y1236261D01*
X3147321Y1230056D01*
X3138924Y1222692D01*
X3131560Y1214295D01*
X3125355Y1205009D01*
X3120415Y1194992D01*
X3116825Y1184416D01*
X3114647Y1173462D01*
X3113916Y1162317D01*
X3114647Y1151173D01*
X3116825Y1140219D01*
X3120415Y1129643D01*
X3125355Y1119626D01*
X3131560Y1110340D01*
X3138924Y1101943D01*
X3147321Y1094579D01*
X3156607Y1088374D01*
X3166624Y1083434D01*
X3177200Y1079844D01*
X3188154Y1077665D01*
X3199299Y1076935D01*
X3204299D01*
X3215443Y1077665D01*
X3226397Y1079844D01*
X3236973Y1083434D01*
X3246990Y1088374D01*
X3256276Y1094579D01*
X3264673Y1101943D01*
X3272037Y1110340D01*
X3278242Y1119626D01*
X3283182Y1129643D01*
X3286772Y1140219D01*
X3288951Y1151173D01*
X3289682Y1162317D01*
X3288951Y1173462D01*
X3286772Y1184416D01*
X3283182Y1194992D01*
X3278242Y1205009D01*
X3272037Y1214295D01*
X3264673Y1222692D01*
X3256276Y1230056D01*
X3246990Y1236261D01*
X3236973Y1241201D01*
X3226397Y1244791D01*
X3215443Y1246970D01*
X3204299Y1247700D01*
D02*
G37*
G36*
X2696299D02*
X2691299D01*
X2680154Y1246970D01*
X2669200Y1244791D01*
X2658624Y1241201D01*
X2648607Y1236261D01*
X2639321Y1230056D01*
X2630924Y1222692D01*
X2623560Y1214295D01*
X2617355Y1205009D01*
X2612415Y1194992D01*
X2608825Y1184416D01*
X2606647Y1173462D01*
X2605916Y1162317D01*
X2606647Y1151173D01*
X2608825Y1140219D01*
X2612415Y1129643D01*
X2617355Y1119626D01*
X2623560Y1110340D01*
X2630924Y1101943D01*
X2639321Y1094579D01*
X2648607Y1088374D01*
X2658624Y1083434D01*
X2669200Y1079844D01*
X2680154Y1077665D01*
X2691299Y1076935D01*
X2696299D01*
X2707443Y1077665D01*
X2718397Y1079844D01*
X2728973Y1083434D01*
X2738990Y1088374D01*
X2748276Y1094579D01*
X2756673Y1101943D01*
X2764037Y1110340D01*
X2770242Y1119626D01*
X2775182Y1129643D01*
X2778772Y1140219D01*
X2780951Y1151173D01*
X2781682Y1162317D01*
X2780951Y1173462D01*
X2778772Y1184416D01*
X2775182Y1194992D01*
X2770242Y1205009D01*
X2764037Y1214295D01*
X2756673Y1222692D01*
X2748276Y1230056D01*
X2738990Y1236261D01*
X2728973Y1241201D01*
X2718397Y1244791D01*
X2707443Y1246970D01*
X2696299Y1247700D01*
D02*
G37*
G36*
X1108204Y1090803D02*
X1100226Y1090017D01*
X1092554Y1087690D01*
X1085483Y1083910D01*
X1079286Y1078824D01*
X1074200Y1072627D01*
X1070421Y1065556D01*
X1068093Y1057885D01*
X1067307Y1049906D01*
X1068093Y1041927D01*
X1070421Y1034255D01*
X1074200Y1027185D01*
X1079286Y1020988D01*
X1085483Y1015901D01*
X1092554Y1012122D01*
X1100226Y1009795D01*
X1108204Y1009009D01*
X1116183Y1009795D01*
X1123855Y1012122D01*
X1130925Y1015901D01*
X1137123Y1020988D01*
X1142209Y1027185D01*
X1145988Y1034255D01*
X1148315Y1041927D01*
X1149101Y1049906D01*
X1148315Y1057885D01*
X1145988Y1065556D01*
X1142209Y1072627D01*
X1137123Y1078824D01*
X1130925Y1083910D01*
X1123855Y1087690D01*
X1116183Y1090017D01*
X1108204Y1090803D01*
D02*
G37*
G36*
X2750674Y993667D02*
X2636924D01*
X2630881Y993071D01*
X2625071Y991309D01*
X2619716Y988447D01*
X2615022Y984594D01*
X2611170Y979901D01*
X2608308Y974546D01*
X2606545Y968735D01*
X2605950Y962693D01*
Y853942D01*
X2606545Y847900D01*
X2608308Y842089D01*
X2611170Y836734D01*
X2615022Y832041D01*
X2619716Y828188D01*
X2625071Y825326D01*
X2630881Y823564D01*
X2636924Y822968D01*
X2750674D01*
X2756716Y823564D01*
X2762527Y825326D01*
X2767882Y828188D01*
X2772576Y832041D01*
X2776428Y836734D01*
X2779290Y842089D01*
X2781053Y847900D01*
X2781648Y853942D01*
Y962693D01*
X2781053Y968735D01*
X2779290Y974546D01*
X2776428Y979901D01*
X2772576Y984594D01*
X2767882Y988447D01*
X2762527Y991309D01*
X2756716Y993071D01*
X2750674Y993667D01*
D02*
G37*
G36*
X2950299Y993701D02*
X2945299D01*
X2934154Y992970D01*
X2923200Y990791D01*
X2912624Y987201D01*
X2902607Y982261D01*
X2893321Y976056D01*
X2884924Y968693D01*
X2877560Y960296D01*
X2871355Y951009D01*
X2866415Y940992D01*
X2862825Y930416D01*
X2860647Y919462D01*
X2859916Y908318D01*
X2860647Y897173D01*
X2862825Y886219D01*
X2866415Y875643D01*
X2871355Y865626D01*
X2877560Y856340D01*
X2884924Y847943D01*
X2893321Y840579D01*
X2902607Y834374D01*
X2912624Y829434D01*
X2923200Y825844D01*
X2934154Y823665D01*
X2945299Y822935D01*
X2950299D01*
X2961443Y823665D01*
X2972397Y825844D01*
X2982973Y829434D01*
X2992990Y834374D01*
X3002276Y840579D01*
X3010673Y847943D01*
X3018037Y856340D01*
X3024242Y865626D01*
X3029182Y875643D01*
X3032772Y886219D01*
X3034951Y897173D01*
X3035682Y908318D01*
X3034951Y919462D01*
X3032772Y930416D01*
X3029182Y940992D01*
X3024242Y951009D01*
X3018037Y960296D01*
X3010673Y968693D01*
X3002276Y976056D01*
X2992990Y982261D01*
X2982973Y987201D01*
X2972397Y990791D01*
X2961443Y992970D01*
X2950299Y993701D01*
D02*
G37*
G36*
X3204299Y993700D02*
X3199299D01*
X3188154Y992970D01*
X3177200Y990791D01*
X3166624Y987201D01*
X3156607Y982261D01*
X3147321Y976056D01*
X3138924Y968692D01*
X3131560Y960295D01*
X3125355Y951009D01*
X3120415Y940992D01*
X3116825Y930416D01*
X3114647Y919462D01*
X3113916Y908317D01*
X3114647Y897173D01*
X3116825Y886219D01*
X3120415Y875643D01*
X3125355Y865626D01*
X3131560Y856340D01*
X3138924Y847943D01*
X3147321Y840579D01*
X3156607Y834374D01*
X3166624Y829434D01*
X3177200Y825844D01*
X3188154Y823665D01*
X3199299Y822935D01*
X3204299D01*
X3215443Y823665D01*
X3226397Y825844D01*
X3236973Y829434D01*
X3246990Y834374D01*
X3256276Y840579D01*
X3264673Y847943D01*
X3272037Y856340D01*
X3278242Y865626D01*
X3283182Y875643D01*
X3286772Y886219D01*
X3288951Y897173D01*
X3289682Y908317D01*
X3288951Y919462D01*
X3286772Y930416D01*
X3283182Y940992D01*
X3278242Y951009D01*
X3272037Y960295D01*
X3264673Y968692D01*
X3256276Y976056D01*
X3246990Y982261D01*
X3236973Y987201D01*
X3226397Y990791D01*
X3215443Y992970D01*
X3204299Y993700D01*
D02*
G37*
G36*
X1108204Y766671D02*
X1100226Y765885D01*
X1092554Y763558D01*
X1085483Y759779D01*
X1079286Y754693D01*
X1074200Y748496D01*
X1070421Y741425D01*
X1068093Y733753D01*
X1067307Y725775D01*
X1068093Y717796D01*
X1070421Y710124D01*
X1074200Y703053D01*
X1079286Y696856D01*
X1085483Y691770D01*
X1092554Y687991D01*
X1100226Y685664D01*
X1108204Y684878D01*
X1116183Y685664D01*
X1123855Y687991D01*
X1130925Y691770D01*
X1137123Y696856D01*
X1142209Y703053D01*
X1145988Y710124D01*
X1148315Y717796D01*
X1149101Y725775D01*
X1148315Y733753D01*
X1145988Y741425D01*
X1142209Y748496D01*
X1137123Y754693D01*
X1130925Y759779D01*
X1123855Y763558D01*
X1116183Y765885D01*
X1108204Y766671D01*
D02*
G37*
G36*
X835154Y586590D02*
Y507810D01*
X916271D01*
X915957Y512605D01*
X913778Y523559D01*
X910188Y534135D01*
X905248Y544151D01*
X899043Y553438D01*
X891679Y561835D01*
X883282Y569199D01*
X873996Y575404D01*
X863979Y580344D01*
X853403Y583934D01*
X842449Y586112D01*
X835154Y586590D01*
D02*
G37*
G36*
X822454D02*
X815160Y586112D01*
X804206Y583934D01*
X793630Y580344D01*
X783613Y575404D01*
X774327Y569199D01*
X765930Y561835D01*
X758566Y553438D01*
X752361Y544151D01*
X747421Y534135D01*
X743831Y523559D01*
X741652Y512605D01*
X741338Y507810D01*
X822454D01*
Y586590D01*
D02*
G37*
G36*
X916271Y495110D02*
X835154D01*
Y416330D01*
X842449Y416808D01*
X853403Y418986D01*
X863979Y422576D01*
X873996Y427516D01*
X883282Y433721D01*
X891679Y441085D01*
X899043Y449482D01*
X905248Y458769D01*
X910188Y468785D01*
X913778Y479361D01*
X915957Y490315D01*
X916271Y495110D01*
D02*
G37*
G36*
X822454D02*
X741338D01*
X741652Y490315D01*
X743831Y479361D01*
X747421Y468785D01*
X752361Y458769D01*
X758566Y449482D01*
X765930Y441085D01*
X774327Y433721D01*
X783613Y427516D01*
X793630Y422576D01*
X804206Y418986D01*
X815160Y416808D01*
X822454Y416330D01*
Y495110D01*
D02*
G37*
G36*
X1593304Y586843D02*
X1588304D01*
X1577160Y586112D01*
X1566206Y583934D01*
X1555630Y580344D01*
X1545613Y575404D01*
X1536327Y569199D01*
X1527930Y561835D01*
X1520566Y553438D01*
X1514361Y544151D01*
X1509421Y534135D01*
X1505831Y523559D01*
X1503652Y512605D01*
X1502922Y501460D01*
X1503652Y490315D01*
X1505831Y479361D01*
X1509421Y468785D01*
X1514361Y458769D01*
X1520566Y449482D01*
X1527930Y441085D01*
X1536327Y433721D01*
X1545613Y427516D01*
X1555630Y422576D01*
X1566206Y418986D01*
X1577160Y416808D01*
X1588304Y416077D01*
X1593304D01*
X1604449Y416808D01*
X1615403Y418986D01*
X1625979Y422576D01*
X1635996Y427516D01*
X1645282Y433721D01*
X1653679Y441085D01*
X1661043Y449482D01*
X1667248Y458769D01*
X1672188Y468785D01*
X1675778Y479361D01*
X1677957Y490315D01*
X1678687Y501460D01*
X1677957Y512605D01*
X1675778Y523559D01*
X1672188Y534135D01*
X1667248Y544151D01*
X1661043Y553438D01*
X1653679Y561835D01*
X1645282Y569199D01*
X1635996Y575404D01*
X1625979Y580344D01*
X1615403Y583934D01*
X1604449Y586112D01*
X1593304Y586843D01*
D02*
G37*
G36*
X1339304D02*
X1334304D01*
X1323160Y586112D01*
X1312206Y583934D01*
X1301630Y580344D01*
X1291613Y575404D01*
X1282327Y569199D01*
X1273930Y561835D01*
X1266566Y553438D01*
X1260361Y544151D01*
X1255421Y534135D01*
X1251831Y523559D01*
X1249652Y512605D01*
X1248922Y501460D01*
X1249652Y490315D01*
X1251831Y479361D01*
X1255421Y468785D01*
X1260361Y458769D01*
X1266566Y449482D01*
X1273930Y441085D01*
X1282327Y433721D01*
X1291613Y427516D01*
X1301630Y422576D01*
X1312206Y418986D01*
X1323160Y416808D01*
X1334304Y416077D01*
X1339304D01*
X1350449Y416808D01*
X1361403Y418986D01*
X1371979Y422576D01*
X1381996Y427516D01*
X1391282Y433721D01*
X1399679Y441085D01*
X1407043Y449482D01*
X1413248Y458769D01*
X1418188Y468785D01*
X1421778Y479361D01*
X1423957Y490315D01*
X1424687Y501460D01*
X1423957Y512605D01*
X1421778Y523559D01*
X1418188Y534135D01*
X1413248Y544151D01*
X1407043Y553438D01*
X1399679Y561835D01*
X1391282Y569199D01*
X1381996Y575404D01*
X1371979Y580344D01*
X1361403Y583934D01*
X1350449Y586112D01*
X1339304Y586843D01*
D02*
G37*
G36*
X1085304D02*
X1080304D01*
X1069160Y586112D01*
X1058206Y583934D01*
X1047630Y580344D01*
X1037613Y575404D01*
X1028327Y569199D01*
X1019930Y561835D01*
X1012566Y553438D01*
X1006361Y544151D01*
X1001421Y534135D01*
X997831Y523559D01*
X995652Y512605D01*
X994922Y501460D01*
X995652Y490315D01*
X997831Y479361D01*
X1001421Y468785D01*
X1006361Y458769D01*
X1012566Y449482D01*
X1019930Y441085D01*
X1028327Y433721D01*
X1037613Y427516D01*
X1047630Y422576D01*
X1058206Y418986D01*
X1069160Y416808D01*
X1080304Y416077D01*
X1085304D01*
X1096449Y416808D01*
X1107403Y418986D01*
X1117979Y422576D01*
X1127996Y427516D01*
X1137282Y433721D01*
X1145679Y441085D01*
X1153043Y449482D01*
X1159248Y458769D01*
X1164188Y468785D01*
X1167778Y479361D01*
X1169957Y490315D01*
X1170687Y501460D01*
X1169957Y512605D01*
X1167778Y523559D01*
X1164188Y534135D01*
X1159248Y544151D01*
X1153043Y553438D01*
X1145679Y561835D01*
X1137282Y569199D01*
X1127996Y575404D01*
X1117979Y580344D01*
X1107403Y583934D01*
X1096449Y586112D01*
X1085304Y586843D01*
D02*
G37*
G36*
X577304D02*
X572304D01*
X561160Y586112D01*
X550206Y583934D01*
X539630Y580344D01*
X529613Y575404D01*
X520327Y569199D01*
X511930Y561835D01*
X504566Y553438D01*
X498361Y544151D01*
X493421Y534135D01*
X489831Y523559D01*
X487652Y512605D01*
X486922Y501460D01*
X487652Y490315D01*
X489831Y479361D01*
X493421Y468785D01*
X498361Y458769D01*
X504566Y449482D01*
X511930Y441085D01*
X520327Y433721D01*
X529613Y427516D01*
X539630Y422576D01*
X550206Y418986D01*
X561160Y416808D01*
X572304Y416077D01*
X577304D01*
X588449Y416808D01*
X599403Y418986D01*
X609979Y422576D01*
X619996Y427516D01*
X629282Y433721D01*
X637679Y441085D01*
X645043Y449482D01*
X651248Y458769D01*
X656188Y468785D01*
X659778Y479361D01*
X661957Y490315D01*
X662687Y501460D01*
X661957Y512605D01*
X659778Y523559D01*
X656188Y534135D01*
X651248Y544151D01*
X645043Y553438D01*
X637679Y561835D01*
X629282Y569199D01*
X619996Y575404D01*
X609979Y580344D01*
X599403Y583934D01*
X588449Y586112D01*
X577304Y586843D01*
D02*
G37*
G36*
X1089154Y332590D02*
Y253810D01*
X1170271D01*
X1169957Y258605D01*
X1167778Y269559D01*
X1164188Y280135D01*
X1159248Y290151D01*
X1153043Y299438D01*
X1145679Y307835D01*
X1137282Y315199D01*
X1127996Y321404D01*
X1117979Y326344D01*
X1107403Y329934D01*
X1096449Y332112D01*
X1089154Y332590D01*
D02*
G37*
G36*
X1076454D02*
X1069160Y332112D01*
X1058206Y329934D01*
X1047630Y326344D01*
X1037613Y321404D01*
X1028327Y315199D01*
X1019930Y307835D01*
X1012566Y299438D01*
X1006361Y290151D01*
X1001421Y280135D01*
X997831Y269559D01*
X995652Y258605D01*
X995338Y253810D01*
X1076454D01*
Y332590D01*
D02*
G37*
G36*
X1170271Y241110D02*
X1089154D01*
Y162330D01*
X1096449Y162808D01*
X1107403Y164986D01*
X1117979Y168576D01*
X1127996Y173516D01*
X1137282Y179721D01*
X1145679Y187085D01*
X1153043Y195482D01*
X1159248Y204769D01*
X1164188Y214785D01*
X1167778Y225361D01*
X1169957Y236315D01*
X1170271Y241110D01*
D02*
G37*
G36*
X1076454D02*
X995338D01*
X995652Y236315D01*
X997831Y225361D01*
X1001421Y214785D01*
X1006361Y204769D01*
X1012566Y195482D01*
X1019930Y187085D01*
X1028327Y179721D01*
X1037613Y173516D01*
X1047630Y168576D01*
X1058206Y164986D01*
X1069160Y162808D01*
X1076454Y162330D01*
Y241110D01*
D02*
G37*
G36*
X1647679Y332809D02*
X1533929D01*
X1527887Y332214D01*
X1522076Y330451D01*
X1516721Y327589D01*
X1512027Y323737D01*
X1508175Y319043D01*
X1505313Y313688D01*
X1503550Y307878D01*
X1502955Y301835D01*
Y193085D01*
X1503550Y187042D01*
X1505313Y181232D01*
X1508175Y175877D01*
X1512027Y171183D01*
X1516721Y167331D01*
X1522076Y164469D01*
X1527887Y162706D01*
X1533929Y162111D01*
X1647679D01*
X1653722Y162706D01*
X1659532Y164469D01*
X1664887Y167331D01*
X1669581Y171183D01*
X1673433Y175877D01*
X1676295Y181232D01*
X1678058Y187042D01*
X1678653Y193085D01*
Y301835D01*
X1678058Y307878D01*
X1676295Y313688D01*
X1673433Y319043D01*
X1669581Y323737D01*
X1664887Y327589D01*
X1659532Y330451D01*
X1653722Y332214D01*
X1647679Y332809D01*
D02*
G37*
G36*
X1339304Y332843D02*
X1334304D01*
X1323160Y332112D01*
X1312206Y329934D01*
X1301630Y326344D01*
X1291613Y321404D01*
X1282327Y315199D01*
X1273930Y307835D01*
X1266566Y299438D01*
X1260361Y290151D01*
X1255421Y280135D01*
X1251831Y269559D01*
X1249652Y258605D01*
X1248922Y247460D01*
X1249652Y236315D01*
X1251831Y225361D01*
X1255421Y214785D01*
X1260361Y204769D01*
X1266566Y195482D01*
X1273930Y187085D01*
X1282327Y179721D01*
X1291613Y173516D01*
X1301630Y168576D01*
X1312206Y164986D01*
X1323160Y162808D01*
X1334304Y162077D01*
X1339304D01*
X1350449Y162808D01*
X1361403Y164986D01*
X1371979Y168576D01*
X1381996Y173516D01*
X1391282Y179721D01*
X1399679Y187085D01*
X1407043Y195482D01*
X1413248Y204769D01*
X1418188Y214785D01*
X1421778Y225361D01*
X1423957Y236315D01*
X1424687Y247460D01*
X1423957Y258605D01*
X1421778Y269559D01*
X1418188Y280135D01*
X1413248Y290151D01*
X1407043Y299438D01*
X1399679Y307835D01*
X1391282Y315199D01*
X1381996Y321404D01*
X1371979Y326344D01*
X1361403Y329934D01*
X1350449Y332112D01*
X1339304Y332843D01*
D02*
G37*
G36*
X831304D02*
X826304D01*
X815160Y332112D01*
X804206Y329934D01*
X793630Y326344D01*
X783613Y321404D01*
X774327Y315199D01*
X765930Y307835D01*
X758566Y299438D01*
X752361Y290151D01*
X747421Y280135D01*
X743831Y269559D01*
X741652Y258605D01*
X740922Y247460D01*
X741652Y236315D01*
X743831Y225361D01*
X747421Y214785D01*
X752361Y204769D01*
X758566Y195482D01*
X765930Y187085D01*
X774327Y179721D01*
X783613Y173516D01*
X793630Y168576D01*
X804206Y164986D01*
X815160Y162808D01*
X826304Y162077D01*
X831304D01*
X842449Y162808D01*
X853403Y164986D01*
X863979Y168576D01*
X873996Y173516D01*
X883282Y179721D01*
X891679Y187085D01*
X899043Y195482D01*
X905248Y204769D01*
X910188Y214785D01*
X913778Y225361D01*
X915957Y236315D01*
X916687Y247460D01*
X915957Y258605D01*
X913778Y269559D01*
X910188Y280135D01*
X905248Y290151D01*
X899043Y299438D01*
X891679Y307835D01*
X883282Y315199D01*
X873996Y321404D01*
X863979Y326344D01*
X853403Y329934D01*
X842449Y332112D01*
X831304Y332843D01*
D02*
G37*
G36*
X577304D02*
X572304D01*
X561160Y332112D01*
X550206Y329934D01*
X539630Y326344D01*
X529613Y321404D01*
X520327Y315199D01*
X511930Y307835D01*
X504566Y299438D01*
X498361Y290151D01*
X493421Y280135D01*
X489831Y269559D01*
X487652Y258605D01*
X486922Y247460D01*
X487652Y236315D01*
X489831Y225361D01*
X493421Y214785D01*
X498361Y204769D01*
X504566Y195482D01*
X511930Y187085D01*
X520327Y179721D01*
X529613Y173516D01*
X539630Y168576D01*
X550206Y164986D01*
X561160Y162808D01*
X572304Y162077D01*
X577304D01*
X588449Y162808D01*
X599403Y164986D01*
X609979Y168576D01*
X619996Y173516D01*
X629282Y179721D01*
X637679Y187085D01*
X645043Y195482D01*
X651248Y204769D01*
X656188Y214785D01*
X659778Y225361D01*
X661957Y236315D01*
X662687Y247460D01*
X661957Y258605D01*
X659778Y269559D01*
X656188Y280135D01*
X651248Y290151D01*
X645043Y299438D01*
X637679Y307835D01*
X629282Y315199D01*
X619996Y321404D01*
X609979Y326344D01*
X599403Y329934D01*
X588449Y332112D01*
X577304Y332843D01*
D02*
G37*
G36*
X2678430Y331624D02*
X2564130D01*
X2557906Y331011D01*
X2551921Y329195D01*
X2546406Y326247D01*
X2541571Y322279D01*
X2537603Y317445D01*
X2534655Y311929D01*
X2532839Y305944D01*
X2532227Y299720D01*
Y185420D01*
X2532839Y179196D01*
X2534655Y173211D01*
X2537603Y167695D01*
X2541571Y162861D01*
X2546406Y158893D01*
X2551921Y155945D01*
X2557906Y154129D01*
X2564130Y153516D01*
X2678430D01*
X2684654Y154129D01*
X2690639Y155945D01*
X2696155Y158893D01*
X2700990Y162861D01*
X2704957Y167695D01*
X2707905Y173211D01*
X2709721Y179196D01*
X2710334Y185420D01*
Y299720D01*
X2709721Y305944D01*
X2707905Y311929D01*
X2704957Y317445D01*
X2700990Y322279D01*
X2696155Y326247D01*
X2690639Y329195D01*
X2684654Y331011D01*
X2678430Y331624D01*
D02*
G37*
G36*
X2367280Y331661D02*
X2355652Y330898D01*
X2344222Y328625D01*
X2333187Y324879D01*
X2322735Y319725D01*
X2313045Y313250D01*
X2304284Y305567D01*
X2296600Y296805D01*
X2290125Y287116D01*
X2284971Y276664D01*
X2281225Y265628D01*
X2278952Y254199D01*
X2278189Y242570D01*
X2278952Y230941D01*
X2281225Y219512D01*
X2284971Y208476D01*
X2290125Y198024D01*
X2296600Y188335D01*
X2304284Y179573D01*
X2313045Y171890D01*
X2322735Y165415D01*
X2333187Y160261D01*
X2344222Y156515D01*
X2355652Y154241D01*
X2367280Y153479D01*
X2378909Y154241D01*
X2390339Y156515D01*
X2401374Y160261D01*
X2411826Y165415D01*
X2421515Y171890D01*
X2430277Y179573D01*
X2437961Y188335D01*
X2444435Y198024D01*
X2449589Y208476D01*
X2453335Y219512D01*
X2455609Y230941D01*
X2456371Y242570D01*
X2455609Y254199D01*
X2453335Y265628D01*
X2449589Y276664D01*
X2444435Y287116D01*
X2437961Y296805D01*
X2430277Y305567D01*
X2421515Y313250D01*
X2411826Y319725D01*
X2401374Y324879D01*
X2390339Y328625D01*
X2378909Y330898D01*
X2367280Y331661D01*
D02*
G37*
%LPD*%
D30*
X5461000Y1143000D02*
D03*
Y889000D02*
D03*
X127000Y2286000D02*
D03*
Y2032000D02*
D03*
Y508000D02*
D03*
Y762000D02*
D03*
X2921000Y2667000D02*
D03*
X3175000D02*
D03*
X5461000Y2032000D02*
D03*
Y1778000D02*
D03*
D31*
X1202640Y1973580D02*
D03*
X1002640D02*
D03*
X802640D02*
D03*
X602640D02*
D03*
D32*
X1590804Y247460D02*
D03*
X2693799Y908317D02*
D03*
D33*
X1336804Y247460D02*
D03*
X1082804D02*
D03*
X828804D02*
D03*
X574804D02*
D03*
Y501460D02*
D03*
X828804D02*
D03*
X1082804D02*
D03*
X1336804D02*
D03*
X1590804D02*
D03*
X2947799Y908318D02*
D03*
X3201799Y908317D02*
D03*
Y1162317D02*
D03*
X2947799Y1162317D02*
D03*
X2693799Y1162317D02*
D03*
D34*
X200000Y200000D02*
D03*
Y2600000D02*
D03*
X5400000D02*
D03*
D35*
X2367280Y242570D02*
D03*
D36*
X2621280D02*
D03*
D37*
X504029Y1719802D02*
D03*
X577988Y1573833D02*
D03*
X538293Y1480450D02*
D03*
X458354Y1390742D02*
D03*
X2488166Y1108456D02*
D03*
X710878Y2754219D02*
D03*
X2905020Y417584D02*
D03*
Y45780D02*
D03*
X3041334Y1632838D02*
D03*
X2353172Y1309553D02*
D03*
X2488166Y1210176D02*
D03*
X2054502Y1584900D02*
D03*
X1682059Y1582360D02*
D03*
X3368777Y1926439D02*
D03*
X3042124Y1536198D02*
D03*
X3328967Y1813478D02*
D03*
X3103723Y1961598D02*
D03*
X3041334Y1899209D02*
D03*
X382481Y947711D02*
D03*
X393480Y1207075D02*
D03*
X604391Y1241134D02*
D03*
X670723Y1307880D02*
D03*
X841930Y1269749D02*
D03*
X913963Y1064638D02*
D03*
X642602Y1714307D02*
D03*
X1356250Y1681990D02*
D03*
X2357484Y1815642D02*
D03*
X2833639Y889706D02*
D03*
X3411534Y1172437D02*
D03*
X3371317Y1265297D02*
D03*
X3401423Y1383903D02*
D03*
X3307323Y1408773D02*
D03*
X3401423Y1584563D02*
D03*
X3119830Y1242934D02*
D03*
X3357424Y1075149D02*
D03*
X3124041Y992878D02*
D03*
X3130696Y818274D02*
D03*
X3272902D02*
D03*
X3049698Y739880D02*
D03*
X3341203D02*
D03*
X5547360Y1447800D02*
D03*
X675881Y980440D02*
D03*
X398723Y623960D02*
D03*
X510200Y139880D02*
D03*
X1471930D02*
D03*
X894284Y45780D02*
D03*
X965558Y107581D02*
D03*
X3700999Y2593176D02*
D03*
X4986977Y2549702D02*
D03*
X3627020Y2652275D02*
D03*
X2273195Y1924179D02*
D03*
X2273996Y1865231D02*
D03*
X2335416Y1616990D02*
D03*
X2347742Y1711090D02*
D03*
X45780Y1221740D02*
D03*
X2418240Y1517125D02*
D03*
X2714640Y1517758D02*
D03*
Y1638409D02*
D03*
Y1771486D02*
D03*
X2714639Y1904562D02*
D03*
X2418240Y1954000D02*
D03*
X2273117Y1546212D02*
D03*
X3335859Y2439917D02*
D03*
X3260606Y2501104D02*
D03*
X45780Y1652177D02*
D03*
X341335Y1126143D02*
D03*
X334982Y1390957D02*
D03*
X398723Y384785D02*
D03*
X1864040Y618160D02*
D03*
X1162072Y584653D02*
D03*
X1001030Y760202D02*
D03*
X1413980Y616466D02*
D03*
X5486400Y690880D02*
D03*
X472782Y1658620D02*
D03*
Y1501140D02*
D03*
X226683Y1402080D02*
D03*
X2651678Y2125980D02*
D03*
X3368776Y2278169D02*
D03*
X2484120Y2753995D02*
D03*
X3700716Y2418140D02*
D03*
X1757060Y891981D02*
D03*
X1326030Y1345203D02*
D03*
X672088Y1569646D02*
D03*
X942740Y1766456D02*
D03*
X1682059Y1485720D02*
D03*
X1681697Y1876990D02*
D03*
Y1971090D02*
D03*
X1464711Y2236850D02*
D03*
X1633709D02*
D03*
X1549210Y2323574D02*
D03*
X1811679Y2125980D02*
D03*
X1155505Y978645D02*
D03*
X4908881Y2122019D02*
D03*
Y2027919D02*
D03*
X4786754D02*
D03*
X4786973Y2122019D02*
D03*
X4847818Y1996440D02*
D03*
Y2153920D02*
D03*
X4910877Y1680330D02*
D03*
X776930Y1561397D02*
D03*
X1167664Y760186D02*
D03*
X4892877Y2412200D02*
D03*
X2227226Y1264920D02*
D03*
X2139926Y1159316D02*
D03*
X2227226Y1054100D02*
D03*
X2088661Y1286679D02*
D03*
X2053011Y1370499D02*
D03*
X2164861Y1452868D02*
D03*
X5547360Y2275629D02*
D03*
X5462712Y2170994D02*
D03*
X5222277Y2080260D02*
D03*
X5195473Y2177405D02*
D03*
X1501144Y700914D02*
D03*
X1413375Y782983D02*
D03*
X1931692Y226060D02*
D03*
X2104267Y225860D02*
D03*
X1108204Y1049906D02*
D03*
X2853538Y662045D02*
D03*
X4985034Y2371330D02*
D03*
X936030Y1345203D02*
D03*
X2163600Y1988820D02*
D03*
X2761580Y653579D02*
D03*
X2688997Y724360D02*
D03*
X1992492Y336199D02*
D03*
X1864396Y426900D02*
D03*
X2072585D02*
D03*
X757338Y757621D02*
D03*
X1852380Y1286679D02*
D03*
X1928580Y1452880D02*
D03*
X1988820Y1369780D02*
D03*
X1463283Y1524553D02*
D03*
X3368777Y2104509D02*
D03*
X1002345Y1692985D02*
D03*
X1413107Y1776090D02*
D03*
X1458572Y45780D02*
D03*
X2437980Y638660D02*
D03*
Y559020D02*
D03*
X2562860D02*
D03*
Y638660D02*
D03*
X2437980Y717144D02*
D03*
X2562860D02*
D03*
X2500880Y559020D02*
D03*
Y717144D02*
D03*
X841930Y709136D02*
D03*
X1424304Y1616967D02*
D03*
X1108204Y725775D02*
D03*
X3680176Y2104509D02*
D03*
X1148553Y1565478D02*
D03*
X1069216Y1623848D02*
D03*
X1462901Y1859373D02*
D03*
X5089128Y645780D02*
D03*
X4395820D02*
D03*
X3702512D02*
D03*
X3009204D02*
D03*
X3773022Y2318209D02*
D03*
X2054005Y1924179D02*
D03*
X906930Y1561397D02*
D03*
X920920Y970539D02*
D03*
X3680931Y2753995D02*
D03*
X3679482Y2278169D02*
D03*
X4620214Y2753995D02*
D03*
X2169160Y45780D02*
D03*
X1548883Y2753995D02*
D03*
X3523811Y2373519D02*
D03*
%TF.MD5,39d2a03e5cca00b7420d3812c3f1a07a*%
M02*
