%TF.GenerationSoftware,Altium Limited,Altium Designer,20.1.8 (145)*%
G04 Layer_Color=65535*
%FSLAX45Y45*%
%MOMM*%
%TF.SameCoordinates,98D083CD-8668-4ABA-A521-F4C8EB5CE2D3*%
%TF.FilePolarity,Positive*%
%TF.FileFunction,Legend,Bot*%
%TF.Part,Single*%
G01*
G75*
%TA.AperFunction,NonConductor*%
%ADD36C,0.15240*%
%ADD37C,0.10160*%
D36*
X3300783Y2291416D02*
X3351567D01*
Y2253328D01*
X3326175Y2266024D01*
X3313479D01*
X3300783Y2253328D01*
Y2227936D01*
X3313479Y2215240D01*
X3338871D01*
X3351567Y2227936D01*
X3275391Y2291416D02*
Y2240632D01*
X3250000Y2215240D01*
X3224608Y2240632D01*
Y2291416D01*
X3199216Y2278720D02*
X3186520Y2291416D01*
X3161128D01*
X3148433Y2278720D01*
Y2227936D01*
X3161128Y2215240D01*
X3186520D01*
X3199216Y2227936D01*
Y2278720D01*
X3063480Y2291415D02*
X3012696D01*
X3038088D01*
Y2215240D01*
X2987304Y2291415D02*
X2936521Y2215240D01*
Y2291415D02*
X2987304Y2215240D01*
X2813480D02*
Y2291415D01*
X2775392D01*
X2762696Y2278719D01*
Y2253328D01*
X2775392Y2240632D01*
X2813480D01*
X2788088D02*
X2762696Y2215240D01*
X2737304Y2291415D02*
X2686521Y2215240D01*
Y2291415D02*
X2737304Y2215240D01*
X2550784Y2278719D02*
X2563479Y2291415D01*
X2588871D01*
X2601567Y2278719D01*
Y2227936D01*
X2588871Y2215240D01*
X2563479D01*
X2550784Y2227936D01*
Y2253328D01*
X2576175D01*
X2525392Y2215240D02*
Y2291415D01*
X2474608Y2215240D01*
Y2291415D01*
X2449216D02*
Y2215240D01*
X2411129D01*
X2398433Y2227936D01*
Y2278719D01*
X2411129Y2291415D01*
X2449216D01*
X3601567Y1078719D02*
X3588871Y1091415D01*
X3563479D01*
X3550783Y1078719D01*
Y1066024D01*
X3563479Y1053328D01*
X3576175D01*
X3563479D01*
X3550783Y1040632D01*
Y1027936D01*
X3563479Y1015240D01*
X3588871D01*
X3601567Y1027936D01*
X3525391Y1091415D02*
Y1040632D01*
X3500000Y1015240D01*
X3474608Y1040632D01*
Y1091415D01*
X3449216Y1078719D02*
X3436520Y1091415D01*
X3411128D01*
X3398433Y1078719D01*
Y1066024D01*
X3411128Y1053328D01*
X3423824D01*
X3411128D01*
X3398433Y1040632D01*
Y1027936D01*
X3411128Y1015240D01*
X3436520D01*
X3449216Y1027936D01*
X3933976Y1078719D02*
X3946672Y1091415D01*
X3972064D01*
X3984760Y1078719D01*
Y1027936D01*
X3972064Y1015240D01*
X3946672D01*
X3933976Y1027936D01*
Y1053328D01*
X3959368D01*
X3908585Y1015240D02*
Y1091415D01*
X3857801Y1015240D01*
Y1091415D01*
X3832409D02*
Y1015240D01*
X3794321D01*
X3781626Y1027936D01*
Y1078719D01*
X3794321Y1091415D01*
X3832409D01*
X4295219D02*
X4269827D01*
X4282523D01*
Y1015240D01*
X4295219D01*
X4269827D01*
X4193652Y1091415D02*
X4219043D01*
X4231739Y1078719D01*
Y1027936D01*
X4219043Y1015240D01*
X4193652D01*
X4180956Y1027936D01*
Y1078719D01*
X4193652Y1091415D01*
X4155564Y1078719D02*
X4142868Y1091415D01*
X4117476D01*
X4104780Y1078719D01*
Y1027936D01*
X4117476Y1015240D01*
X4142868D01*
X4155564Y1027936D01*
Y1078719D01*
X4263479Y1215240D02*
Y1291416D01*
X4225391D01*
X4212696Y1278720D01*
Y1253328D01*
X4225391Y1240632D01*
X4263479D01*
X4238087D02*
X4212696Y1215240D01*
X4187304Y1291416D02*
X4136520Y1215240D01*
Y1291416D02*
X4187304Y1215240D01*
X3963479Y1291416D02*
X3912696D01*
X3938087D01*
Y1215240D01*
X3887304Y1291416D02*
X3836520Y1215240D01*
Y1291416D02*
X3887304Y1215240D01*
X3665047Y1291416D02*
X3715830D01*
Y1215240D01*
X3665047D01*
X3715830Y1253328D02*
X3690438D01*
X3639655Y1215240D02*
Y1291416D01*
X3588871Y1215240D01*
Y1291416D01*
X3563479Y1215240D02*
Y1266024D01*
X3538087Y1291416D01*
X3512696Y1266024D01*
Y1215240D01*
Y1253328D01*
X3563479D01*
X3487304Y1291416D02*
Y1215240D01*
X3449216D01*
X3436520Y1227936D01*
Y1240632D01*
X3449216Y1253328D01*
X3487304D01*
X3449216D01*
X3436520Y1266024D01*
Y1278720D01*
X3449216Y1291416D01*
X3487304D01*
X3411129D02*
Y1215240D01*
X3360345D01*
X3284170Y1291416D02*
X3334953D01*
Y1215240D01*
X3284170D01*
X3334953Y1253328D02*
X3309561D01*
X350783Y928720D02*
X363479Y941415D01*
X388871D01*
X401567Y928720D01*
Y916024D01*
X388871Y903328D01*
X363479D01*
X350783Y890632D01*
Y877936D01*
X363479Y865240D01*
X388871D01*
X401567Y877936D01*
X325392Y941415D02*
Y865240D01*
X300000Y890632D01*
X274608Y865240D01*
Y941415D01*
X198433Y928720D02*
X211128Y941415D01*
X236520D01*
X249216Y928720D01*
Y877936D01*
X236520Y865240D01*
X211128D01*
X198433Y877936D01*
X650784Y928720D02*
X663479Y941415D01*
X688871D01*
X701567Y928720D01*
Y877936D01*
X688871Y865240D01*
X663479D01*
X650784Y877936D01*
Y903328D01*
X676175D01*
X625392Y865240D02*
Y941415D01*
X574608Y865240D01*
Y941415D01*
X549216D02*
Y865240D01*
X511129D01*
X498433Y877936D01*
Y928720D01*
X511129Y941415D01*
X549216D01*
X982523Y928720D02*
X995219Y941415D01*
X1020611D01*
X1033307Y928720D01*
Y916024D01*
X1020611Y903328D01*
X995219D01*
X982523Y890632D01*
Y877936D01*
X995219Y865240D01*
X1020611D01*
X1033307Y877936D01*
X957131Y941415D02*
Y865240D01*
X931740Y890632D01*
X906348Y865240D01*
Y941415D01*
X880956D02*
X855564D01*
X868260D01*
Y865240D01*
X880956D01*
X855564D01*
X779389Y941415D02*
X804781D01*
X817477Y928720D01*
Y877936D01*
X804781Y865240D01*
X779389D01*
X766693Y877936D01*
Y928720D01*
X779389Y941415D01*
X1301567Y928720D02*
X1288871Y941415D01*
X1263479D01*
X1250783Y928720D01*
Y916024D01*
X1263479Y903328D01*
X1276175D01*
X1263479D01*
X1250783Y890632D01*
Y877936D01*
X1263479Y865240D01*
X1288871D01*
X1301567Y877936D01*
X1225392Y941415D02*
Y890632D01*
X1200000Y865240D01*
X1174608Y890632D01*
Y941415D01*
X1149216Y928720D02*
X1136520Y941415D01*
X1111128D01*
X1098433Y928720D01*
Y916024D01*
X1111128Y903328D01*
X1123824D01*
X1111128D01*
X1098433Y890632D01*
Y877936D01*
X1111128Y865240D01*
X1136520D01*
X1149216Y877936D01*
X1550784Y941415D02*
X1601567D01*
Y903328D01*
X1576175Y916024D01*
X1563479D01*
X1550784Y903328D01*
Y877936D01*
X1563479Y865240D01*
X1588871D01*
X1601567Y877936D01*
X1525392Y941415D02*
Y890632D01*
X1500000Y865240D01*
X1474608Y890632D01*
Y941415D01*
X1449216Y928720D02*
X1436520Y941415D01*
X1411128D01*
X1398433Y928720D01*
Y877936D01*
X1411128Y865240D01*
X1436520D01*
X1449216Y877936D01*
Y928720D01*
X1601567Y665240D02*
Y741416D01*
X1563479D01*
X1550784Y728720D01*
Y703328D01*
X1563479Y690632D01*
X1601567D01*
X1576175D02*
X1550784Y665240D01*
X1474608Y728720D02*
X1487304Y741416D01*
X1512696D01*
X1525392Y728720D01*
Y716024D01*
X1512696Y703328D01*
X1487304D01*
X1474608Y690632D01*
Y677936D01*
X1487304Y665240D01*
X1512696D01*
X1525392Y677936D01*
X1449216Y741416D02*
X1398433D01*
X1423824D01*
Y665240D01*
X1301567Y728720D02*
X1288871Y741416D01*
X1263479D01*
X1250783Y728720D01*
Y716024D01*
X1263479Y703328D01*
X1276175D01*
X1263479D01*
X1250783Y690632D01*
Y677936D01*
X1263479Y665240D01*
X1288871D01*
X1301567Y677936D01*
X1225392Y741416D02*
Y690632D01*
X1200000Y665240D01*
X1174608Y690632D01*
Y741416D01*
X1149216Y728720D02*
X1136520Y741416D01*
X1111128D01*
X1098433Y728720D01*
Y716024D01*
X1111128Y703328D01*
X1123824D01*
X1111128D01*
X1098433Y690632D01*
Y677936D01*
X1111128Y665240D01*
X1136520D01*
X1149216Y677936D01*
X950783Y728720D02*
X963479Y741416D01*
X988871D01*
X1001567Y728720D01*
Y677936D01*
X988871Y665240D01*
X963479D01*
X950783Y677936D01*
Y703328D01*
X976175D01*
X925392Y665240D02*
Y741416D01*
X874608Y665240D01*
Y741416D01*
X849216D02*
Y665240D01*
X811128D01*
X798433Y677936D01*
Y728720D01*
X811128Y741416D01*
X849216D01*
X663479D02*
X612696D01*
X638088D01*
Y665240D01*
X587304Y741416D02*
X536521Y665240D01*
Y741416D02*
X587304Y665240D01*
X363479D02*
Y741416D01*
X325392D01*
X312696Y728720D01*
Y703328D01*
X325392Y690632D01*
X363479D01*
X338087D02*
X312696Y665240D01*
X287304Y741416D02*
X236520Y665240D01*
Y741416D02*
X287304Y665240D01*
D37*
X2810157Y1480470D02*
X2830470D01*
X2820313D01*
Y1429686D01*
X2830470Y1419530D01*
X2840627D01*
X2850783Y1429686D01*
X2749216Y1419530D02*
X2789843D01*
X2749216Y1460157D01*
Y1470313D01*
X2759373Y1480470D01*
X2779687D01*
X2789843Y1470313D01*
X900000Y1130470D02*
X920313D01*
X910157D01*
Y1079687D01*
X920313Y1069530D01*
X930470D01*
X940627Y1079687D01*
X879687Y1069530D02*
X859373D01*
X869530D01*
Y1130470D01*
X879687Y1120313D01*
X2602968Y436270D02*
Y375330D01*
X2572498D01*
X2562341Y385487D01*
Y395644D01*
X2572498Y405800D01*
X2602968D01*
X2572498D01*
X2562341Y415957D01*
Y426114D01*
X2572498Y436270D01*
X2602968D01*
X2542028Y375330D02*
Y415957D01*
X2521714Y436270D01*
X2501401Y415957D01*
Y375330D01*
Y405800D01*
X2542028D01*
X2481087Y436270D02*
X2440461D01*
X2460774D01*
Y375330D01*
X2420147D02*
X2399834D01*
X2409991D01*
Y436270D01*
X2420147Y426114D01*
%TF.MD5,acf1a7684a2000a8546b8728ce8a628d*%
M02*
