%TF.GenerationSoftware,Altium Limited,Altium Designer,20.1.8 (145)*%
G04 Layer_Color=16711833*
%FSLAX45Y45*%
%MOMM*%
%TF.SameCoordinates,98D083CD-8668-4ABA-A521-F4C8EB5CE2D3*%
%TF.FilePolarity,Negative*%
%TF.FileFunction,Soldermask,Bot*%
%TF.Part,Single*%
G01*
G75*
%TA.AperFunction,ViaPad*%
%ADD34C,3.00000*%
%TA.AperFunction,ComponentPad*%
%ADD38C,1.57600*%
G04:AMPARAMS|DCode=39|XSize=1.6mm|YSize=1.6mm|CornerRadius=0.2285mm|HoleSize=0mm|Usage=FLASHONLY|Rotation=180.000|XOffset=0mm|YOffset=0mm|HoleType=Round|Shape=RoundedRectangle|*
%AMROUNDEDRECTD39*
21,1,1.60000,1.14300,0,0,180.0*
21,1,1.14300,1.60000,0,0,180.0*
1,1,0.45700,-0.57150,0.57150*
1,1,0.45700,0.57150,0.57150*
1,1,0.45700,0.57150,-0.57150*
1,1,0.45700,-0.57150,-0.57150*
%
%ADD39ROUNDEDRECTD39*%
%ADD40C,1.60000*%
G04:AMPARAMS|DCode=41|XSize=1.576mm|YSize=1.526mm|CornerRadius=0.21925mm|HoleSize=0mm|Usage=FLASHONLY|Rotation=180.000|XOffset=0mm|YOffset=0mm|HoleType=Round|Shape=RoundedRectangle|*
%AMROUNDEDRECTD41*
21,1,1.57600,1.08750,0,0,180.0*
21,1,1.13750,1.52600,0,0,180.0*
1,1,0.43850,-0.56875,0.54375*
1,1,0.43850,0.56875,0.54375*
1,1,0.43850,0.56875,-0.54375*
1,1,0.43850,-0.56875,-0.54375*
%
%ADD41ROUNDEDRECTD41*%
%ADD42O,1.57600X1.52600*%
D34*
X200000Y2600000D02*
D03*
X5400000D02*
D03*
X2700000Y1700000D02*
D03*
X5400000Y800000D02*
D03*
D38*
X192904Y2146670D02*
D03*
X5046980Y2580640D02*
D03*
X192904Y1799694D02*
D03*
X1715259Y2578745D02*
D03*
X3042860Y1656590D02*
D03*
D39*
X2651760Y223520D02*
D03*
X2497700Y2500000D02*
D03*
D40*
X2397760Y223520D02*
D03*
X3259700Y2500000D02*
D03*
X3005700D02*
D03*
X2751700D02*
D03*
D41*
X1398399Y247460D02*
D03*
X2550160Y1275080D02*
D03*
D42*
X1144399Y247460D02*
D03*
X890399D02*
D03*
X636399D02*
D03*
X382399D02*
D03*
Y501460D02*
D03*
X636399D02*
D03*
X890399D02*
D03*
X1144399D02*
D03*
X1398399D02*
D03*
X2804160Y1275080D02*
D03*
X3058160D02*
D03*
Y1021080D02*
D03*
X2804160D02*
D03*
X2550160D02*
D03*
%TF.MD5,409ec7a0769daca22aafeaf9b280534a*%
M02*
