%TF.GenerationSoftware,Altium Limited,Altium Designer,20.1.8 (145)*%
G04 Layer_Color=0*
%FSLAX45Y45*%
%MOMM*%
%TF.SameCoordinates,98D083CD-8668-4ABA-A521-F4C8EB5CE2D3*%
%TF.FilePolarity,Positive*%
%TF.FileFunction,Plated,1,4,PTH,Drill*%
%TF.Part,Single*%
G01*
G75*
%TA.AperFunction,ComponentDrill*%
%ADD64C,0.95000*%
%TA.AperFunction,OtherDrill,Pad Free-1 (2mm,26mm)*%
%ADD65C,2.35000*%
%TA.AperFunction,OtherDrill,Pad Free-1 (54mm,26mm)*%
%ADD66C,2.35000*%
%TA.AperFunction,OtherDrill,Pad Free-1 (27mm,17mm)*%
%ADD67C,2.35000*%
%TA.AperFunction,OtherDrill,Pad Free-1 (54mm,8mm)*%
%ADD68C,2.35000*%
%TA.AperFunction,ViaDrill,NotFilled*%
%ADD69C,0.30000*%
D64*
X192904Y2146670D02*
D03*
X5046980Y2580640D02*
D03*
X192904Y1799694D02*
D03*
X1715259Y2578745D02*
D03*
X3042860Y1656590D02*
D03*
X2651760Y223520D02*
D03*
X2397760D02*
D03*
X3259700Y2500000D02*
D03*
X3005700D02*
D03*
X2751700D02*
D03*
X2497700D02*
D03*
X1398399Y247460D02*
D03*
X1144399D02*
D03*
X890399D02*
D03*
X636399D02*
D03*
X382399D02*
D03*
Y501460D02*
D03*
X636399D02*
D03*
X890399D02*
D03*
X1144399D02*
D03*
X1398399D02*
D03*
X2550160Y1275080D02*
D03*
X2804160D02*
D03*
X3058160D02*
D03*
Y1021080D02*
D03*
X2804160D02*
D03*
X2550160D02*
D03*
D65*
X200000Y2600000D02*
D03*
D66*
X5400000D02*
D03*
D67*
X2700000Y1700000D02*
D03*
D68*
X5400000Y800000D02*
D03*
D69*
X551846Y1700636D02*
D03*
X1153213Y2025857D02*
D03*
X976707Y1584193D02*
D03*
X3221556Y1924387D02*
D03*
X1029547Y1620743D02*
D03*
X1126580D02*
D03*
Y1931626D02*
D03*
X902860Y1809097D02*
D03*
X1544320Y55880D02*
D03*
X1789121Y50794D02*
D03*
X2828525Y1394642D02*
D03*
X2632646Y1164797D02*
D03*
X2487712Y1402767D02*
D03*
X3334884Y1683884D02*
D03*
X2929274Y1934099D02*
D03*
X3332606Y1905283D02*
D03*
X2556760Y538700D02*
D03*
X2618740D02*
D03*
Y618340D02*
D03*
Y696824D02*
D03*
X2556760D02*
D03*
X2493860Y618340D02*
D03*
Y538700D02*
D03*
Y696824D02*
D03*
X3215451Y2279479D02*
D03*
X3402264Y2469494D02*
D03*
X3216324Y2344893D02*
D03*
X3488769Y2195609D02*
D03*
X3636955Y1799018D02*
D03*
X3743797Y1998638D02*
D03*
X3644300Y2026983D02*
D03*
X3335021Y1802756D02*
D03*
X1633608Y1251502D02*
D03*
X1936900Y1225923D02*
D03*
X1987859Y1363641D02*
D03*
X1730875Y1347909D02*
D03*
X1966064Y1297639D02*
D03*
X3331573Y2104648D02*
D03*
X2226654Y1787092D02*
D03*
X3264146Y2200768D02*
D03*
X2844800Y2270760D02*
D03*
X2931764Y2308346D02*
D03*
X3124700Y2585720D02*
D03*
X3037840Y2669540D02*
D03*
X3124700Y2755900D02*
D03*
X3638799Y2660574D02*
D03*
X4541163Y2658788D02*
D03*
X2271900Y1704548D02*
D03*
X209149Y2371705D02*
D03*
X5472444Y1075824D02*
D03*
X5407414Y984782D02*
D03*
X2967606Y647601D02*
D03*
X3147277Y650550D02*
D03*
X5139394Y652953D02*
D03*
X4618892Y2752791D02*
D03*
X3639699Y2752792D02*
D03*
X229163Y45074D02*
D03*
X1305215Y1680376D02*
D03*
X1079354Y1676474D02*
D03*
X963916Y1744157D02*
D03*
X1830098Y1250099D02*
D03*
X1994823Y2102724D02*
D03*
X1658620Y1529080D02*
D03*
X845630Y686322D02*
D03*
X612446Y760886D02*
D03*
X669430Y693279D02*
D03*
X757530Y680241D02*
D03*
X1053960Y760893D02*
D03*
X996580D02*
D03*
X1654105Y927212D02*
D03*
X1562997Y813153D02*
D03*
X1557010Y663021D02*
D03*
X1663710D02*
D03*
X1665433Y562221D02*
D03*
X1555287D02*
D03*
X1610360Y532250D02*
D03*
Y695960D02*
D03*
X1934778Y2292505D02*
D03*
X408816Y2346013D02*
D03*
X418566Y2017136D02*
D03*
X101976Y722125D02*
D03*
X109355Y201352D02*
D03*
X714303Y110886D02*
D03*
X2820478Y79803D02*
D03*
X2840787Y505320D02*
D03*
X2515023Y331124D02*
D03*
X2250440Y281940D02*
D03*
X2308860Y121920D02*
D03*
X2034467Y45074D02*
D03*
X2519680Y132080D02*
D03*
X559145Y1140441D02*
D03*
X270454Y1148583D02*
D03*
X383865Y1076951D02*
D03*
X211341Y604570D02*
D03*
X702934Y1247677D02*
D03*
X742919Y1103827D02*
D03*
X781064Y977900D02*
D03*
X1116517Y1341689D02*
D03*
X495687Y2267579D02*
D03*
X534390Y2068646D02*
D03*
X1390346Y1923178D02*
D03*
X1552620Y2055327D02*
D03*
X1414780Y1144675D02*
D03*
X1722120Y2250900D02*
D03*
X1029547Y1931626D02*
D03*
X1420000Y2529840D02*
D03*
X581555D02*
D03*
X2332780Y1457960D02*
D03*
X2249050Y1375724D02*
D03*
X3333391Y2278169D02*
D03*
X969802Y1053622D02*
D03*
X890399Y732760D02*
D03*
X1689589Y1297639D02*
D03*
X1303020Y1457960D02*
D03*
X1023880Y596900D02*
D03*
X940125Y677553D02*
D03*
X1686560Y820000D02*
D03*
Y1079840D02*
D03*
X5381709Y2359706D02*
D03*
X1387800Y1541780D02*
D03*
X1982840Y445321D02*
D03*
X1831853Y1346203D02*
D03*
X2004060Y1985000D02*
D03*
X231140Y1442720D02*
D03*
X469900Y878660D02*
D03*
X5381709Y2192423D02*
D03*
X2142800Y906780D02*
D03*
X2205020D02*
D03*
X2078280D02*
D03*
Y713740D02*
D03*
X2142800D02*
D03*
X2205020D02*
D03*
X2112800Y2046644D02*
D03*
X1387800Y1374140D02*
D03*
X2284346Y580321D02*
D03*
Y502860D02*
D03*
Y657413D02*
D03*
X2160580Y657860D02*
D03*
Y502860D02*
D03*
Y580321D02*
D03*
X996580Y976622D02*
D03*
X2249050Y1539240D02*
D03*
X2222500Y1985000D02*
D03*
X5467520Y2275737D02*
D03*
X3488251Y2372249D02*
D03*
X3643110Y2278169D02*
D03*
X1771220Y1160780D02*
D03*
X1770860Y998220D02*
D03*
X1771220Y901700D02*
D03*
Y739140D02*
D03*
X384568Y883572D02*
D03*
X1884680Y218440D02*
D03*
X1971892Y304600D02*
D03*
X1972680Y134266D02*
D03*
X1898600Y357941D02*
D03*
X1816100Y445321D02*
D03*
X2222800Y502860D02*
D03*
Y657860D02*
D03*
%TF.MD5,3f37cb7230929af136a411c7bc1e39da*%
M02*
