%TF.GenerationSoftware,Altium Limited,Altium Designer,20.1.8 (145)*%
G04 Layer_Physical_Order=1*
G04 Layer_Color=2232046*
%FSLAX45Y45*%
%MOMM*%
%TF.SameCoordinates,98D083CD-8668-4ABA-A521-F4C8EB5CE2D3*%
%TF.FilePolarity,Positive*%
%TF.FileFunction,Copper,L1,Top,Signal*%
%TF.Part,Single*%
G01*
G75*
%TA.AperFunction,SMDPad,CuDef*%
G04:AMPARAMS|DCode=10|XSize=0.85mm|YSize=0.85mm|CornerRadius=0.0425mm|HoleSize=0mm|Usage=FLASHONLY|Rotation=270.000|XOffset=0mm|YOffset=0mm|HoleType=Round|Shape=RoundedRectangle|*
%AMROUNDEDRECTD10*
21,1,0.85000,0.76500,0,0,270.0*
21,1,0.76500,0.85000,0,0,270.0*
1,1,0.08500,-0.38250,-0.38250*
1,1,0.08500,-0.38250,0.38250*
1,1,0.08500,0.38250,0.38250*
1,1,0.08500,0.38250,-0.38250*
%
%ADD10ROUNDEDRECTD10*%
%ADD11C,1.50000*%
%ADD12O,0.45000X1.40000*%
%ADD13O,1.40000X0.45000*%
G04:AMPARAMS|DCode=14|XSize=0.55mm|YSize=0.9mm|CornerRadius=0.0275mm|HoleSize=0mm|Usage=FLASHONLY|Rotation=0.000|XOffset=0mm|YOffset=0mm|HoleType=Round|Shape=RoundedRectangle|*
%AMROUNDEDRECTD14*
21,1,0.55000,0.84500,0,0,0.0*
21,1,0.49500,0.90000,0,0,0.0*
1,1,0.05500,0.24750,-0.42250*
1,1,0.05500,-0.24750,-0.42250*
1,1,0.05500,-0.24750,0.42250*
1,1,0.05500,0.24750,0.42250*
%
%ADD14ROUNDEDRECTD14*%
G04:AMPARAMS|DCode=15|XSize=0.8mm|YSize=0.8mm|CornerRadius=0.04mm|HoleSize=0mm|Usage=FLASHONLY|Rotation=0.000|XOffset=0mm|YOffset=0mm|HoleType=Round|Shape=RoundedRectangle|*
%AMROUNDEDRECTD15*
21,1,0.80000,0.72000,0,0,0.0*
21,1,0.72000,0.80000,0,0,0.0*
1,1,0.08000,0.36000,-0.36000*
1,1,0.08000,-0.36000,-0.36000*
1,1,0.08000,-0.36000,0.36000*
1,1,0.08000,0.36000,0.36000*
%
%ADD15ROUNDEDRECTD15*%
%TA.AperFunction,ConnectorPad*%
G04:AMPARAMS|DCode=16|XSize=1.1mm|YSize=2.3mm|CornerRadius=0.0055mm|HoleSize=0mm|Usage=FLASHONLY|Rotation=270.000|XOffset=0mm|YOffset=0mm|HoleType=Round|Shape=RoundedRectangle|*
%AMROUNDEDRECTD16*
21,1,1.10000,2.28900,0,0,270.0*
21,1,1.08900,2.30000,0,0,270.0*
1,1,0.01100,-1.14450,-0.54450*
1,1,0.01100,-1.14450,0.54450*
1,1,0.01100,1.14450,0.54450*
1,1,0.01100,1.14450,-0.54450*
%
%ADD16ROUNDEDRECTD16*%
G04:AMPARAMS|DCode=17|XSize=1.1mm|YSize=2.3mm|CornerRadius=0.0055mm|HoleSize=0mm|Usage=FLASHONLY|Rotation=0.000|XOffset=0mm|YOffset=0mm|HoleType=Round|Shape=RoundedRectangle|*
%AMROUNDEDRECTD17*
21,1,1.10000,2.28900,0,0,0.0*
21,1,1.08900,2.30000,0,0,0.0*
1,1,0.01100,0.54450,-1.14450*
1,1,0.01100,-0.54450,-1.14450*
1,1,0.01100,-0.54450,1.14450*
1,1,0.01100,0.54450,1.14450*
%
%ADD17ROUNDEDRECTD17*%
%TA.AperFunction,SMDPad,CuDef*%
G04:AMPARAMS|DCode=18|XSize=0.85mm|YSize=0.85mm|CornerRadius=0.0425mm|HoleSize=0mm|Usage=FLASHONLY|Rotation=0.000|XOffset=0mm|YOffset=0mm|HoleType=Round|Shape=RoundedRectangle|*
%AMROUNDEDRECTD18*
21,1,0.85000,0.76500,0,0,0.0*
21,1,0.76500,0.85000,0,0,0.0*
1,1,0.08500,0.38250,-0.38250*
1,1,0.08500,-0.38250,-0.38250*
1,1,0.08500,-0.38250,0.38250*
1,1,0.08500,0.38250,0.38250*
%
%ADD18ROUNDEDRECTD18*%
G04:AMPARAMS|DCode=19|XSize=0.85mm|YSize=0.9mm|CornerRadius=0.0425mm|HoleSize=0mm|Usage=FLASHONLY|Rotation=90.000|XOffset=0mm|YOffset=0mm|HoleType=Round|Shape=RoundedRectangle|*
%AMROUNDEDRECTD19*
21,1,0.85000,0.81500,0,0,90.0*
21,1,0.76500,0.90000,0,0,90.0*
1,1,0.08500,0.40750,0.38250*
1,1,0.08500,0.40750,-0.38250*
1,1,0.08500,-0.40750,-0.38250*
1,1,0.08500,-0.40750,0.38250*
%
%ADD19ROUNDEDRECTD19*%
G04:AMPARAMS|DCode=20|XSize=0.85mm|YSize=0.9mm|CornerRadius=0.0425mm|HoleSize=0mm|Usage=FLASHONLY|Rotation=180.000|XOffset=0mm|YOffset=0mm|HoleType=Round|Shape=RoundedRectangle|*
%AMROUNDEDRECTD20*
21,1,0.85000,0.81500,0,0,180.0*
21,1,0.76500,0.90000,0,0,180.0*
1,1,0.08500,-0.38250,0.40750*
1,1,0.08500,0.38250,0.40750*
1,1,0.08500,0.38250,-0.40750*
1,1,0.08500,-0.38250,-0.40750*
%
%ADD20ROUNDEDRECTD20*%
G04:AMPARAMS|DCode=21|XSize=2.1mm|YSize=1mm|CornerRadius=0.05mm|HoleSize=0mm|Usage=FLASHONLY|Rotation=180.000|XOffset=0mm|YOffset=0mm|HoleType=Round|Shape=RoundedRectangle|*
%AMROUNDEDRECTD21*
21,1,2.10000,0.90000,0,0,180.0*
21,1,2.00000,1.00000,0,0,180.0*
1,1,0.10000,-1.00000,0.45000*
1,1,0.10000,1.00000,0.45000*
1,1,0.10000,1.00000,-0.45000*
1,1,0.10000,-1.00000,-0.45000*
%
%ADD21ROUNDEDRECTD21*%
G04:AMPARAMS|DCode=22|XSize=0.6mm|YSize=1.05mm|CornerRadius=0.03mm|HoleSize=0mm|Usage=FLASHONLY|Rotation=180.000|XOffset=0mm|YOffset=0mm|HoleType=Round|Shape=RoundedRectangle|*
%AMROUNDEDRECTD22*
21,1,0.60000,0.99000,0,0,180.0*
21,1,0.54000,1.05000,0,0,180.0*
1,1,0.06000,-0.27000,0.49500*
1,1,0.06000,0.27000,0.49500*
1,1,0.06000,0.27000,-0.49500*
1,1,0.06000,-0.27000,-0.49500*
%
%ADD22ROUNDEDRECTD22*%
G04:AMPARAMS|DCode=23|XSize=0.25mm|YSize=0.55mm|CornerRadius=0.0125mm|HoleSize=0mm|Usage=FLASHONLY|Rotation=0.000|XOffset=0mm|YOffset=0mm|HoleType=Round|Shape=RoundedRectangle|*
%AMROUNDEDRECTD23*
21,1,0.25000,0.52500,0,0,0.0*
21,1,0.22500,0.55000,0,0,0.0*
1,1,0.02500,0.11250,-0.26250*
1,1,0.02500,-0.11250,-0.26250*
1,1,0.02500,-0.11250,0.26250*
1,1,0.02500,0.11250,0.26250*
%
%ADD23ROUNDEDRECTD23*%
%TA.AperFunction,Conductor*%
%ADD24C,0.12700*%
%ADD25C,0.15240*%
%ADD26C,0.20320*%
%ADD27C,0.25400*%
%ADD28C,0.30480*%
%TA.AperFunction,ComponentPad*%
%ADD29C,1.50000*%
G04:AMPARAMS|DCode=30|XSize=1.524mm|YSize=1.524mm|CornerRadius=0.1905mm|HoleSize=0mm|Usage=FLASHONLY|Rotation=180.000|XOffset=0mm|YOffset=0mm|HoleType=Round|Shape=RoundedRectangle|*
%AMROUNDEDRECTD30*
21,1,1.52400,1.14300,0,0,180.0*
21,1,1.14300,1.52400,0,0,180.0*
1,1,0.38100,-0.57150,0.57150*
1,1,0.38100,0.57150,0.57150*
1,1,0.38100,0.57150,-0.57150*
1,1,0.38100,-0.57150,-0.57150*
%
%ADD30ROUNDEDRECTD30*%
%ADD31C,1.52400*%
G04:AMPARAMS|DCode=32|XSize=1.5mm|YSize=1.45mm|CornerRadius=0.18125mm|HoleSize=0mm|Usage=FLASHONLY|Rotation=180.000|XOffset=0mm|YOffset=0mm|HoleType=Round|Shape=RoundedRectangle|*
%AMROUNDEDRECTD32*
21,1,1.50000,1.08750,0,0,180.0*
21,1,1.13750,1.45000,0,0,180.0*
1,1,0.36250,-0.56875,0.54375*
1,1,0.36250,0.56875,0.54375*
1,1,0.36250,0.56875,-0.54375*
1,1,0.36250,-0.56875,-0.54375*
%
%ADD32ROUNDEDRECTD32*%
%ADD33O,1.50000X1.45000*%
%TA.AperFunction,ViaPad*%
%ADD34C,3.00000*%
%ADD35C,0.50000*%
G36*
X200000Y2781870D02*
X5400001D01*
X5400001Y2781870D01*
Y2781870D01*
X5417330Y2780781D01*
X5428495Y2779903D01*
X5456287Y2773230D01*
X5482693Y2762293D01*
X5507064Y2747359D01*
X5528797Y2728796D01*
X5547360Y2707062D01*
X5562294Y2682692D01*
X5573232Y2656286D01*
X5579904Y2628494D01*
X5582069Y2600990D01*
X5581872Y2600000D01*
Y800000D01*
X5582069Y799010D01*
X5579904Y771506D01*
X5573232Y743714D01*
X5562294Y717307D01*
X5547360Y692937D01*
X5528797Y671203D01*
X5507063Y652641D01*
X5482693Y637707D01*
X5456287Y626769D01*
X5428494Y620096D01*
X5400990Y617932D01*
X5400000Y618129D01*
X3000000Y618129D01*
Y618350D01*
X2976911Y616076D01*
X2954709Y609341D01*
X2934248Y598405D01*
X2916314Y583686D01*
X2901596Y565752D01*
X2890659Y545291D01*
X2883924Y523089D01*
X2881650Y500001D01*
X2881872D01*
Y18128D01*
X200000D01*
X199010Y17931D01*
X171506Y20096D01*
X143714Y26768D01*
X117307Y37706D01*
X92937Y52640D01*
X71203Y71203D01*
X52640Y92937D01*
X37706Y117307D01*
X26768Y143714D01*
X20096Y171506D01*
X17944Y198843D01*
X18128Y199769D01*
X18128Y2600000D01*
X17931Y2600989D01*
X20096Y2628493D01*
X26768Y2656285D01*
X37706Y2682691D01*
X52640Y2707062D01*
X71203Y2728796D01*
X92937Y2747358D01*
X117307Y2762292D01*
X143714Y2773230D01*
X171506Y2779903D01*
X199010Y2782067D01*
X200000Y2781870D01*
D02*
G37*
%LPC*%
G36*
X3165450Y2725072D02*
X3131050D01*
Y2675890D01*
X3182732D01*
Y2707790D01*
X3181416Y2714404D01*
X3177670Y2720010D01*
X3172063Y2723757D01*
X3165450Y2725072D01*
D02*
G37*
G36*
X3118350D02*
X3083950D01*
X3077336Y2723757D01*
X3071730Y2720010D01*
X3067983Y2714404D01*
X3066668Y2707790D01*
Y2675890D01*
X3118350D01*
Y2725072D01*
D02*
G37*
G36*
X680000Y2688047D02*
X586350D01*
Y2631350D01*
X698047D01*
Y2670000D01*
X696673Y2676906D01*
X692761Y2682761D01*
X686906Y2686673D01*
X680000Y2688047D01*
D02*
G37*
G36*
X1520000D02*
X1426350D01*
Y2631350D01*
X1538047D01*
Y2670000D01*
X1536673Y2676906D01*
X1532761Y2682761D01*
X1526906Y2686673D01*
X1520000Y2688047D01*
D02*
G37*
G36*
X573650D02*
X480000D01*
X473094Y2686673D01*
X467239Y2682761D01*
X463327Y2676906D01*
X461953Y2670000D01*
Y2631350D01*
X573650D01*
Y2688047D01*
D02*
G37*
G36*
X1413650D02*
X1320000D01*
X1313094Y2686673D01*
X1307239Y2682761D01*
X1303327Y2676906D01*
X1301953Y2670000D01*
Y2631350D01*
X1413650D01*
Y2688047D01*
D02*
G37*
G36*
X3182732Y2663190D02*
X3131050D01*
Y2614008D01*
X3165450D01*
X3172063Y2615323D01*
X3177670Y2619070D01*
X3181416Y2624676D01*
X3182732Y2631290D01*
Y2663190D01*
D02*
G37*
G36*
X3118350D02*
X3066668D01*
Y2631290D01*
X3067983Y2624676D01*
X3071730Y2619070D01*
X3077336Y2615323D01*
X3083950Y2614008D01*
X3118350D01*
Y2663190D01*
D02*
G37*
G36*
X1538047Y2618650D02*
X1426350D01*
Y2561953D01*
X1520000D01*
X1526906Y2563327D01*
X1532761Y2567239D01*
X1536673Y2573094D01*
X1538047Y2580000D01*
Y2618650D01*
D02*
G37*
G36*
X1413650D02*
X1301953D01*
Y2580000D01*
X1303327Y2573094D01*
X1307239Y2567239D01*
X1313094Y2563327D01*
X1320000Y2561953D01*
X1413650D01*
Y2618650D01*
D02*
G37*
G36*
X698047D02*
X586350D01*
Y2561953D01*
X680000D01*
X686906Y2563327D01*
X692761Y2567239D01*
X696673Y2573094D01*
X698047Y2580000D01*
Y2618650D01*
D02*
G37*
G36*
X573650D02*
X461953D01*
Y2580000D01*
X463327Y2573094D01*
X467239Y2567239D01*
X473094Y2563327D01*
X480000Y2561953D01*
X573650D01*
Y2618650D01*
D02*
G37*
G36*
X2554850Y2589522D02*
X2504050D01*
Y2506350D01*
X2587222D01*
Y2557150D01*
X2584758Y2569538D01*
X2577740Y2580040D01*
X2567238Y2587058D01*
X2554850Y2589522D01*
D02*
G37*
G36*
X2491350D02*
X2440550D01*
X2428162Y2587058D01*
X2417659Y2580040D01*
X2410642Y2569538D01*
X2408178Y2557150D01*
Y2506350D01*
X2491350D01*
Y2589522D01*
D02*
G37*
G36*
X3300450Y2725072D02*
X3218950D01*
X3212336Y2723757D01*
X3206730Y2720010D01*
X3202983Y2714404D01*
X3201668Y2707790D01*
Y2631290D01*
X3202983Y2624676D01*
X3206730Y2619070D01*
X3212336Y2615323D01*
X3218950Y2614008D01*
X3236392D01*
Y2585830D01*
X3225515Y2582530D01*
X3210071Y2574275D01*
X3196534Y2563166D01*
X3185424Y2549629D01*
X3177169Y2534185D01*
X3172086Y2517427D01*
X3170370Y2500000D01*
X3172086Y2482572D01*
X3177169Y2465815D01*
X3182528Y2455790D01*
X2972946Y2246208D01*
X1997179D01*
X1988259Y2244434D01*
X1980698Y2239381D01*
X1766080Y2024763D01*
X1761027Y2017201D01*
X1759253Y2008282D01*
Y1481268D01*
X1580832D01*
Y1496210D01*
X1579517Y1502824D01*
X1575770Y1508430D01*
X1570163Y1512177D01*
X1563550Y1513492D01*
X1546108D01*
Y1559496D01*
X1570300D01*
X1579489Y1560706D01*
X1588052Y1564253D01*
X1595405Y1569895D01*
X1601047Y1577248D01*
X1604594Y1585811D01*
X1605804Y1595000D01*
X1604594Y1604189D01*
X1601047Y1612752D01*
X1595405Y1620105D01*
Y1634895D01*
X1601047Y1642248D01*
X1604594Y1650811D01*
X1605804Y1660000D01*
X1604594Y1669189D01*
X1601047Y1677752D01*
X1595405Y1685105D01*
Y1699895D01*
X1601047Y1707248D01*
X1604594Y1715811D01*
X1605804Y1725000D01*
X1604594Y1734189D01*
X1601047Y1742752D01*
X1595405Y1750105D01*
Y1764895D01*
X1601047Y1772248D01*
X1604594Y1780811D01*
X1605804Y1790000D01*
X1604594Y1799189D01*
X1601047Y1807752D01*
X1595405Y1815105D01*
Y1829895D01*
X1601047Y1837248D01*
X1604594Y1845811D01*
X1605804Y1855000D01*
X1604594Y1864189D01*
X1601047Y1872752D01*
X1595405Y1880105D01*
Y1894895D01*
X1601047Y1902248D01*
X1604594Y1910811D01*
X1605804Y1920000D01*
X1604594Y1929189D01*
X1601047Y1937752D01*
X1595405Y1945105D01*
Y1959895D01*
X1601047Y1967248D01*
X1604594Y1975811D01*
X1605804Y1985000D01*
X1604594Y1994189D01*
X1601047Y2002752D01*
X1595405Y2010105D01*
X1588052Y2015747D01*
X1579489Y2019294D01*
X1570300Y2020503D01*
X1475300D01*
X1466111Y2019294D01*
X1457548Y2015747D01*
X1450195Y2010105D01*
X1449447Y2009130D01*
X1422052D01*
Y2064107D01*
X1420737Y2070720D01*
X1416990Y2076327D01*
X1411384Y2080073D01*
X1404770Y2081389D01*
X1328270D01*
X1321656Y2080073D01*
X1316050Y2076327D01*
X1312303Y2070720D01*
X1310988Y2064107D01*
Y1987606D01*
X1311264Y1986220D01*
X1310947Y1984626D01*
Y1961179D01*
X1300817Y1951049D01*
X1159196D01*
X1153468Y1958514D01*
X1145593Y1964557D01*
X1136422Y1968356D01*
X1126580Y1969652D01*
X1116738Y1968356D01*
X1107567Y1964557D01*
X1099692Y1958514D01*
X1093649Y1950639D01*
X1089850Y1941468D01*
X1088555Y1931626D01*
X1089850Y1921785D01*
X1093649Y1912614D01*
X1099692Y1904738D01*
X1107567Y1898695D01*
X1116738Y1894897D01*
X1126580Y1893601D01*
X1136422Y1894897D01*
X1145593Y1898695D01*
X1153468Y1904738D01*
X1159196Y1912203D01*
X1308863D01*
X1316296Y1913682D01*
X1322597Y1917892D01*
X1344103Y1939399D01*
X1344104Y1939399D01*
X1348315Y1945701D01*
X1349793Y1953134D01*
X1349793Y1953135D01*
Y1970324D01*
X1402463D01*
X1402670Y1970283D01*
X1443296D01*
X1444553Y1967248D01*
X1450195Y1959895D01*
Y1945105D01*
X1444553Y1937752D01*
X1441006Y1929189D01*
X1439796Y1920000D01*
X1441006Y1910811D01*
X1444553Y1902248D01*
X1450195Y1894895D01*
Y1890397D01*
X1434768Y1874423D01*
X886043D01*
X886042Y1874423D01*
X878609Y1872944D01*
X872308Y1868734D01*
X872307Y1868733D01*
X787846Y1784272D01*
X783635Y1777971D01*
X782157Y1770538D01*
Y1530265D01*
X776475Y1525905D01*
X761685D01*
X754332Y1531547D01*
X745769Y1535094D01*
X736580Y1536304D01*
X727391Y1535094D01*
X718828Y1531547D01*
X711475Y1525905D01*
X706978D01*
X691003Y1541332D01*
Y1631564D01*
X689525Y1638997D01*
X685314Y1645298D01*
X629013Y1701600D01*
Y1758130D01*
X628972Y1758337D01*
Y1832530D01*
X627657Y1839143D01*
X623910Y1844750D01*
X618304Y1848496D01*
X611690Y1849812D01*
X535190D01*
X528577Y1848496D01*
X522970Y1844750D01*
X519223Y1839143D01*
X517908Y1832530D01*
Y1756030D01*
X519223Y1749416D01*
X522970Y1743810D01*
X528577Y1740063D01*
X535190Y1738748D01*
X590167D01*
Y1693554D01*
X591646Y1686121D01*
X595856Y1679820D01*
X652157Y1623519D01*
Y1541814D01*
X643783Y1534947D01*
X626003Y1543361D01*
Y1558706D01*
X626003Y1558707D01*
X624524Y1566140D01*
X620314Y1572441D01*
X620313Y1572442D01*
X456893Y1735862D01*
Y1758130D01*
X456852Y1758337D01*
Y1832530D01*
X455537Y1839143D01*
X451790Y1844750D01*
X446184Y1848496D01*
X439570Y1849812D01*
X363070D01*
X356456Y1848496D01*
X350850Y1844750D01*
X347103Y1839143D01*
X345788Y1832530D01*
Y1756030D01*
X347103Y1749416D01*
X350850Y1743810D01*
X356456Y1740063D01*
X363070Y1738748D01*
X418047D01*
Y1727817D01*
X419525Y1720384D01*
X423736Y1714082D01*
X587157Y1550662D01*
Y1530264D01*
X581475Y1525905D01*
X575833Y1518552D01*
X572286Y1509989D01*
X571076Y1500800D01*
Y1405800D01*
X572286Y1396611D01*
X575833Y1388048D01*
X581475Y1380695D01*
X588828Y1375053D01*
X597391Y1371506D01*
X606580Y1370296D01*
X615769Y1371506D01*
X624332Y1375053D01*
X631685Y1380695D01*
X646475D01*
X653828Y1375053D01*
X662391Y1371506D01*
X671580Y1370296D01*
X680769Y1371506D01*
X689332Y1375053D01*
X696685Y1380695D01*
X701182D01*
X717157Y1365268D01*
Y1286844D01*
X718635Y1279410D01*
X722846Y1273109D01*
X933004Y1062950D01*
X931776Y1053622D01*
X933072Y1043780D01*
X936871Y1034609D01*
X942914Y1026734D01*
X950789Y1020691D01*
X959960Y1016892D01*
X969802Y1015596D01*
X979643Y1016892D01*
X988814Y1020691D01*
X996690Y1026734D01*
X1002733Y1034609D01*
X1006531Y1043780D01*
X1007827Y1053622D01*
X1006531Y1063463D01*
X1002733Y1072634D01*
X996690Y1080510D01*
X988814Y1086553D01*
X979643Y1090351D01*
X969802Y1091647D01*
X960473Y1090419D01*
X756003Y1294889D01*
Y1376336D01*
X761685Y1380695D01*
X776475D01*
X783828Y1375053D01*
X792391Y1371506D01*
X801580Y1370296D01*
X810769Y1371506D01*
X819332Y1375053D01*
X826685Y1380695D01*
X841475D01*
X848828Y1375053D01*
X857391Y1371506D01*
X866580Y1370296D01*
X875769Y1371506D01*
X884332Y1375053D01*
X891685Y1380695D01*
X906475D01*
X913828Y1375053D01*
X922391Y1371506D01*
X931580Y1370296D01*
X940769Y1371506D01*
X949332Y1375053D01*
X956685Y1380695D01*
X971475D01*
X978828Y1375053D01*
X987391Y1371506D01*
X996580Y1370296D01*
X1005769Y1371506D01*
X1014332Y1375053D01*
X1021685Y1380695D01*
X1026183D01*
X1042157Y1365268D01*
Y1334330D01*
X1043635Y1326897D01*
X1047846Y1320596D01*
X1084537Y1283905D01*
X1090838Y1279695D01*
X1098271Y1278216D01*
X1275768D01*
Y1236425D01*
X1277084Y1229811D01*
X1280830Y1224205D01*
X1286437Y1220458D01*
X1293050Y1219143D01*
X1369550D01*
X1376164Y1220458D01*
X1381770Y1224205D01*
X1385517Y1229811D01*
X1386832Y1236425D01*
Y1278216D01*
X1656974D01*
X1662702Y1270751D01*
X1670577Y1264708D01*
X1679748Y1260910D01*
X1689589Y1259614D01*
X1699431Y1260910D01*
X1708602Y1264708D01*
X1716477Y1270751D01*
X1722520Y1278627D01*
X1726319Y1287798D01*
X1727615Y1297639D01*
X1726319Y1307481D01*
X1722520Y1316652D01*
X1716477Y1324527D01*
X1708602Y1330570D01*
X1699431Y1334369D01*
X1689589Y1335665D01*
X1679748Y1334369D01*
X1670577Y1330570D01*
X1662702Y1324527D01*
X1656974Y1317062D01*
X1386009D01*
X1385517Y1319538D01*
X1381770Y1325145D01*
X1376164Y1328891D01*
X1369550Y1330207D01*
X1293050D01*
X1286437Y1328891D01*
X1280830Y1325145D01*
X1277084Y1319538D01*
X1276591Y1317062D01*
X1106316D01*
X1081003Y1342376D01*
Y1376336D01*
X1086685Y1380695D01*
X1101475D01*
X1108828Y1375053D01*
X1117391Y1371506D01*
X1126580Y1370296D01*
X1135769Y1371506D01*
X1144332Y1375053D01*
X1151685Y1380695D01*
X1166475D01*
X1173828Y1375053D01*
X1182391Y1371506D01*
X1191580Y1370296D01*
X1200769Y1371506D01*
X1209332Y1375053D01*
X1216685Y1380695D01*
X1222327Y1388048D01*
X1225874Y1396611D01*
X1227084Y1405800D01*
Y1500800D01*
X1225920Y1509636D01*
X1356861Y1640577D01*
X1445836D01*
X1450195Y1634895D01*
Y1620104D01*
X1444553Y1612752D01*
X1441006Y1604189D01*
X1439796Y1595000D01*
X1441006Y1585811D01*
X1444553Y1577248D01*
X1450195Y1569895D01*
X1457548Y1564253D01*
X1466111Y1560706D01*
X1475300Y1559496D01*
X1499492D01*
Y1513492D01*
X1482050D01*
X1475437Y1512177D01*
X1469830Y1508430D01*
X1466084Y1502824D01*
X1464768Y1496210D01*
Y1419710D01*
X1466084Y1413096D01*
X1469830Y1407490D01*
X1475437Y1403743D01*
X1482050Y1402428D01*
X1563550D01*
X1570163Y1403743D01*
X1575770Y1407490D01*
X1579517Y1413096D01*
X1580832Y1419710D01*
Y1434652D01*
X1759253D01*
Y1275396D01*
X1722232Y1238375D01*
X1670394D01*
X1661474Y1236601D01*
X1653913Y1231548D01*
X1628799Y1206435D01*
X1619199Y1211566D01*
X1602668Y1216581D01*
X1585476Y1218274D01*
X1568284Y1216581D01*
X1551752Y1211566D01*
X1536517Y1203422D01*
X1523163Y1192463D01*
X1512203Y1179109D01*
X1504060Y1163873D01*
X1499045Y1147342D01*
X1497352Y1130150D01*
X1499045Y1112957D01*
X1504060Y1096426D01*
X1512203Y1081190D01*
X1523163Y1067836D01*
X1536517Y1056877D01*
X1551752Y1048733D01*
X1561963Y1045636D01*
Y917972D01*
X1537140Y893148D01*
X1513160D01*
X1512578Y893032D01*
X1442570D01*
X1435956Y891717D01*
X1430350Y887971D01*
X1426603Y882364D01*
X1425288Y875750D01*
Y799250D01*
X1426603Y792637D01*
X1430350Y787030D01*
X1435956Y783284D01*
X1442570Y781968D01*
X1457512D01*
Y679860D01*
X1216911D01*
Y715803D01*
X1215596Y722416D01*
X1211850Y728023D01*
X1206243Y731769D01*
X1199630Y733085D01*
X1149888D01*
Y788105D01*
X1163126Y794162D01*
X1167386Y794996D01*
X1173828Y790053D01*
X1182391Y786506D01*
X1191580Y785296D01*
X1200769Y786506D01*
X1209332Y790053D01*
X1216685Y795695D01*
X1222327Y803048D01*
X1225874Y811611D01*
X1227084Y820800D01*
Y829162D01*
X1278273D01*
Y781500D01*
X1279569Y774984D01*
X1283260Y769460D01*
X1288784Y765769D01*
X1295300Y764473D01*
X1367300D01*
X1373816Y765769D01*
X1379340Y769460D01*
X1383031Y774984D01*
X1384327Y781500D01*
Y853500D01*
X1383031Y860016D01*
X1379340Y865540D01*
X1373816Y869231D01*
X1367300Y870527D01*
X1299279D01*
X1298920Y870598D01*
X1298919Y870598D01*
X1227084D01*
Y915800D01*
X1225874Y924989D01*
X1222327Y933552D01*
X1216685Y940905D01*
X1209332Y946547D01*
X1200769Y950094D01*
X1191580Y951304D01*
X1182391Y950094D01*
X1173828Y946547D01*
X1166475Y940905D01*
X1151685D01*
X1144332Y946547D01*
X1135769Y950094D01*
X1126580Y951304D01*
X1117391Y950094D01*
X1108828Y946547D01*
X1101475Y940905D01*
X1086685D01*
X1079332Y946547D01*
X1070769Y950094D01*
X1061580Y951304D01*
X1052391Y950094D01*
X1043828Y946547D01*
X1036475Y940905D01*
X1021685D01*
X1014332Y946547D01*
X1005769Y950094D01*
X1002930Y950468D01*
Y868300D01*
Y786132D01*
X1005769Y786506D01*
X1014332Y790053D01*
X1021685Y795695D01*
X1036475D01*
X1043828Y790053D01*
X1052391Y786506D01*
X1061580Y785296D01*
X1070769Y786506D01*
X1079332Y790053D01*
X1085774Y794996D01*
X1090035Y794162D01*
X1103272Y788105D01*
Y724076D01*
X1102163Y722416D01*
X1100848Y715803D01*
Y639303D01*
X1102163Y632689D01*
X1105909Y627082D01*
X1111516Y623336D01*
X1118130Y622021D01*
X1199630D01*
X1206243Y623336D01*
X1211850Y627082D01*
X1215596Y632689D01*
X1215706Y633245D01*
X1375091D01*
Y584182D01*
X1363137Y580555D01*
X1348336Y572644D01*
X1335362Y561997D01*
X1324715Y549024D01*
X1316804Y534222D01*
X1311932Y518162D01*
X1310287Y501460D01*
X1311932Y484758D01*
X1316804Y468698D01*
X1324715Y453896D01*
X1335362Y440923D01*
X1348336Y430276D01*
X1363137Y422365D01*
X1379197Y417493D01*
X1395899Y415848D01*
X1400899D01*
X1417601Y417493D01*
X1433662Y422365D01*
X1448463Y430276D01*
X1461436Y440923D01*
X1472083Y453896D01*
X1479994Y468698D01*
X1484866Y484758D01*
X1486511Y501460D01*
X1484866Y518162D01*
X1479994Y534222D01*
X1472083Y549024D01*
X1461436Y561997D01*
X1448463Y572644D01*
X1433662Y580555D01*
X1421707Y584182D01*
Y633245D01*
X1471170D01*
X1508275Y596140D01*
X1515837Y591087D01*
X1524756Y589313D01*
X1843068D01*
Y539571D01*
X1844384Y532957D01*
X1848130Y527350D01*
X1853737Y523604D01*
X1860350Y522289D01*
X1936851D01*
X1937266Y522372D01*
X2007780Y522372D01*
X2008051Y522318D01*
X2057550D01*
X2063579Y523517D01*
X2068689Y526932D01*
X2072104Y532042D01*
X2073303Y538071D01*
Y622571D01*
X2072104Y628599D01*
X2068689Y633709D01*
X2063579Y637124D01*
X2057550Y638323D01*
X2049107D01*
Y744333D01*
X2074800D01*
X2080926Y745551D01*
X2086119Y749021D01*
X2089589Y754215D01*
X2090808Y760340D01*
Y859340D01*
X2089589Y865466D01*
X2086119Y870659D01*
X2080926Y874130D01*
X2074800Y875348D01*
X2020800D01*
X2020505Y875289D01*
X1947391Y875289D01*
X1946970Y875373D01*
X1865470D01*
X1858857Y874057D01*
X1853250Y870311D01*
X1849504Y864704D01*
X1848189Y858091D01*
Y781591D01*
X1849504Y774977D01*
X1853250Y769370D01*
X1858857Y765624D01*
X1865470Y764309D01*
X1885650D01*
X1885651Y650925D01*
X1873078Y638353D01*
X1860350D01*
X1853737Y637037D01*
X1852078Y635929D01*
X1534411D01*
X1504128Y666212D01*
Y781968D01*
X1519070D01*
X1525684Y783284D01*
X1531290Y787030D01*
X1535037Y792637D01*
X1536352Y799250D01*
Y846532D01*
X1546794D01*
X1555713Y848307D01*
X1563275Y853359D01*
X1601752Y891836D01*
X1606805Y899398D01*
X1608579Y908317D01*
Y1045512D01*
X1619199Y1048733D01*
X1634435Y1056877D01*
X1647789Y1067836D01*
X1658749Y1081190D01*
X1666892Y1096426D01*
X1671907Y1112957D01*
X1673600Y1130150D01*
X1671907Y1147342D01*
X1666892Y1163873D01*
X1661761Y1173473D01*
X1680048Y1191760D01*
X1731886D01*
X1740806Y1193534D01*
X1748367Y1198586D01*
X1799042Y1249261D01*
X1804094Y1256822D01*
X1805868Y1265742D01*
Y1457960D01*
Y1998628D01*
X2006833Y2199592D01*
X2982600D01*
X2991520Y2201366D01*
X2999081Y2206419D01*
X3215490Y2422828D01*
X3225515Y2417469D01*
X3242272Y2412386D01*
X3259700Y2410670D01*
X3277127Y2412386D01*
X3293885Y2417469D01*
X3309329Y2425724D01*
X3322866Y2436834D01*
X3333975Y2450371D01*
X3342230Y2465815D01*
X3347314Y2482572D01*
X3349030Y2500000D01*
X3347314Y2517427D01*
X3342230Y2534185D01*
X3333975Y2549629D01*
X3322866Y2563166D01*
X3309329Y2574275D01*
X3293885Y2582530D01*
X3283008Y2585830D01*
Y2614008D01*
X3300450D01*
X3307063Y2615323D01*
X3312670Y2619070D01*
X3316416Y2624676D01*
X3317732Y2631290D01*
Y2707790D01*
X3316416Y2714404D01*
X3312670Y2720010D01*
X3307063Y2723757D01*
X3300450Y2725072D01*
D02*
G37*
G36*
X3005700Y2589330D02*
X2988272Y2587614D01*
X2971515Y2582530D01*
X2956071Y2574275D01*
X2942534Y2563166D01*
X2931424Y2549629D01*
X2923169Y2534185D01*
X2918086Y2517427D01*
X2916370Y2500000D01*
X2918086Y2482572D01*
X2923169Y2465815D01*
X2930441Y2452210D01*
X2843982Y2365750D01*
X487643D01*
X487642Y2365750D01*
X480209Y2364272D01*
X473908Y2360061D01*
X473907Y2360061D01*
X395160Y2281314D01*
X390950Y2275012D01*
X389471Y2267579D01*
Y2118360D01*
X390950Y2110927D01*
X395160Y2104625D01*
X517867Y1981919D01*
Y1960430D01*
X517908Y1960223D01*
Y1886030D01*
X519223Y1879416D01*
X522970Y1873810D01*
X528577Y1870063D01*
X535190Y1868748D01*
X611690D01*
X618304Y1870063D01*
X623910Y1873810D01*
X627657Y1879416D01*
X628972Y1886030D01*
Y1962530D01*
X627657Y1969143D01*
X623910Y1974750D01*
X618304Y1978496D01*
X611690Y1979812D01*
X556713D01*
Y1989964D01*
X555235Y1997397D01*
X551024Y2003698D01*
X428317Y2126405D01*
Y2259534D01*
X495687Y2326904D01*
X2852027D01*
X2859460Y2328382D01*
X2865761Y2332593D01*
X2957910Y2424741D01*
X2971515Y2417469D01*
X2988272Y2412386D01*
X3005700Y2410670D01*
X3023127Y2412386D01*
X3039885Y2417469D01*
X3055329Y2425724D01*
X3068866Y2436834D01*
X3079975Y2450371D01*
X3088230Y2465815D01*
X3093314Y2482572D01*
X3095030Y2500000D01*
X3093314Y2517427D01*
X3088230Y2534185D01*
X3079975Y2549629D01*
X3068866Y2563166D01*
X3055329Y2574275D01*
X3039885Y2582530D01*
X3023127Y2587614D01*
X3005700Y2589330D01*
D02*
G37*
G36*
X2622481Y2648642D02*
X2172019D01*
X2164586Y2647164D01*
X2158285Y2642953D01*
X2158284Y2642953D01*
X1986236Y2470904D01*
X445663D01*
X438230Y2469426D01*
X431929Y2465215D01*
X315500Y2348786D01*
X311290Y2342485D01*
X309811Y2335052D01*
Y2041829D01*
X311290Y2034395D01*
X315500Y2028094D01*
X345747Y1997848D01*
Y1960430D01*
X345788Y1960223D01*
Y1886030D01*
X347103Y1879416D01*
X350850Y1873810D01*
X356456Y1870063D01*
X363070Y1868748D01*
X439570D01*
X446184Y1870063D01*
X451790Y1873810D01*
X455537Y1879416D01*
X456852Y1886030D01*
Y1962530D01*
X455537Y1969143D01*
X451790Y1974750D01*
X446184Y1978496D01*
X439570Y1979812D01*
X384593D01*
Y2005892D01*
X384593Y2005893D01*
X383115Y2013326D01*
X378904Y2019627D01*
X378903Y2019628D01*
X348657Y2049874D01*
Y2327007D01*
X453709Y2432058D01*
X1994281D01*
X2001714Y2433536D01*
X2008015Y2437747D01*
X2180064Y2609796D01*
X2614435D01*
X2676441Y2547790D01*
X2669169Y2534185D01*
X2664086Y2517427D01*
X2662370Y2500000D01*
X2664086Y2482572D01*
X2669169Y2465815D01*
X2677424Y2450371D01*
X2688534Y2436834D01*
X2702071Y2425724D01*
X2717515Y2417469D01*
X2734272Y2412386D01*
X2751700Y2410670D01*
X2769127Y2412386D01*
X2785885Y2417469D01*
X2801329Y2425724D01*
X2814866Y2436834D01*
X2825975Y2450371D01*
X2834230Y2465815D01*
X2839314Y2482572D01*
X2841030Y2500000D01*
X2839314Y2517427D01*
X2834230Y2534185D01*
X2825975Y2549629D01*
X2814866Y2563166D01*
X2801329Y2574275D01*
X2785885Y2582530D01*
X2769127Y2587614D01*
X2751700Y2589330D01*
X2734272Y2587614D01*
X2717515Y2582530D01*
X2703910Y2575259D01*
X2636215Y2642953D01*
X2629914Y2647164D01*
X2622481Y2648642D01*
D02*
G37*
G36*
X2587222Y2493650D02*
X2504050D01*
Y2410478D01*
X2554850D01*
X2567238Y2412942D01*
X2577740Y2419959D01*
X2584758Y2430461D01*
X2587222Y2442850D01*
Y2493650D01*
D02*
G37*
G36*
X2491350D02*
X2408178D01*
Y2442850D01*
X2410642Y2430461D01*
X2417659Y2419959D01*
X2428162Y2412942D01*
X2440550Y2410478D01*
X2491350D01*
Y2493650D01*
D02*
G37*
G36*
X4630145Y2724476D02*
X3620983D01*
X3613550Y2722998D01*
X3607249Y2718787D01*
X3607248Y2718787D01*
X3581015Y2692554D01*
X3576805Y2686253D01*
X3575326Y2678820D01*
Y2670021D01*
X3411596Y2506291D01*
X3402264Y2507519D01*
X3392423Y2506224D01*
X3383252Y2502425D01*
X3375377Y2496382D01*
X3369334Y2488507D01*
X3365535Y2479336D01*
X3364239Y2469494D01*
X3365535Y2459652D01*
X3369334Y2450482D01*
X3375377Y2442606D01*
X3383252Y2436563D01*
X3392423Y2432765D01*
X3402264Y2431469D01*
X3412106Y2432765D01*
X3421277Y2436563D01*
X3429152Y2442606D01*
X3435195Y2450482D01*
X3438994Y2459652D01*
X3440290Y2469494D01*
X3439062Y2478820D01*
X3608484Y2648242D01*
X3612694Y2654543D01*
X3614173Y2661976D01*
Y2670774D01*
X3629028Y2685630D01*
X4622099D01*
X4693543Y2614187D01*
Y2522559D01*
X4693657Y2521987D01*
Y2359459D01*
X4694685Y2354289D01*
X4697613Y2349907D01*
X4701996Y2346978D01*
X4707166Y2345950D01*
X4816066D01*
X4821236Y2346978D01*
X4825619Y2349907D01*
X4828547Y2354289D01*
X4829576Y2359459D01*
Y2588360D01*
X4828547Y2593529D01*
X4825619Y2597912D01*
X4821236Y2600841D01*
X4816066Y2601869D01*
X4732389D01*
Y2622232D01*
X4730911Y2629665D01*
X4726700Y2635966D01*
X4726699Y2635967D01*
X4643879Y2718787D01*
X4637578Y2722998D01*
X4630145Y2724476D01*
D02*
G37*
G36*
X4494004Y2662940D02*
X3684827D01*
X3677394Y2661461D01*
X3671093Y2657251D01*
X3416844Y2403002D01*
X3353411D01*
X3353410Y2403003D01*
X3345977Y2401524D01*
X3339675Y2397313D01*
X3277538Y2335176D01*
X3273328Y2328875D01*
X3271849Y2321442D01*
Y2301051D01*
X3225651Y2254852D01*
X3189516D01*
X3182083Y2253374D01*
X3175782Y2249164D01*
X3040726Y2114108D01*
X2483043D01*
X2475609Y2112629D01*
X2469308Y2108419D01*
X2235312Y1874423D01*
X2189765D01*
X2185405Y1880105D01*
Y1894895D01*
X2191047Y1902248D01*
X2194594Y1910811D01*
X2195804Y1920000D01*
X2194594Y1929189D01*
X2191047Y1937752D01*
X2185405Y1945105D01*
Y1959895D01*
X2191047Y1967248D01*
X2194594Y1975811D01*
X2194968Y1978650D01*
X2112800D01*
X2030632D01*
X2031006Y1975811D01*
X2034553Y1967248D01*
X2040195Y1959895D01*
Y1945105D01*
X2034553Y1937752D01*
X2031006Y1929189D01*
X2029797Y1920000D01*
X2031006Y1910811D01*
X2034553Y1902248D01*
X2040195Y1894895D01*
Y1880104D01*
X2034553Y1872752D01*
X2031006Y1864189D01*
X2029797Y1855000D01*
X2031006Y1845811D01*
X2034553Y1837248D01*
X2040195Y1829895D01*
Y1825397D01*
X2024768Y1809423D01*
X1992485D01*
X1979433Y1822475D01*
Y1995200D01*
X2120745Y2136512D01*
X3027366D01*
X3034799Y2137991D01*
X3041100Y2142201D01*
X3206995Y2308096D01*
X3216324Y2306868D01*
X3226165Y2308163D01*
X3235336Y2311962D01*
X3243211Y2318005D01*
X3249254Y2325880D01*
X3253053Y2335051D01*
X3254349Y2344893D01*
X3253053Y2354735D01*
X3249254Y2363906D01*
X3243211Y2371781D01*
X3235336Y2377824D01*
X3226165Y2381623D01*
X3216324Y2382918D01*
X3206482Y2381623D01*
X3197311Y2377824D01*
X3189436Y2371781D01*
X3183393Y2363906D01*
X3179594Y2354735D01*
X3178298Y2344893D01*
X3179526Y2335564D01*
X3019320Y2175358D01*
X2112700D01*
X2105267Y2173880D01*
X2098965Y2169670D01*
X1946276Y2016980D01*
X1942065Y2010679D01*
X1940587Y2003246D01*
Y1814430D01*
X1942065Y1806997D01*
X1946276Y1800696D01*
X1970705Y1776266D01*
X1970706Y1776266D01*
X1977007Y1772055D01*
X1984440Y1770577D01*
X2035836D01*
X2040195Y1764895D01*
Y1750104D01*
X2034553Y1742752D01*
X2031006Y1734189D01*
X2029797Y1725000D01*
X2031006Y1715811D01*
X2034553Y1707248D01*
X2040195Y1699895D01*
Y1685105D01*
X2034553Y1677752D01*
X2031006Y1669189D01*
X2029797Y1660000D01*
X2031006Y1650811D01*
X2034553Y1642248D01*
X2040195Y1634895D01*
Y1620104D01*
X2034553Y1612752D01*
X2031006Y1604189D01*
X2029797Y1595000D01*
X2031006Y1585811D01*
X2034553Y1577248D01*
X2040195Y1569895D01*
X2047548Y1564253D01*
X2056111Y1560706D01*
X2065300Y1559496D01*
X2086903D01*
Y1513492D01*
X2073300D01*
X2066687Y1512177D01*
X2061080Y1508430D01*
X2057334Y1502824D01*
X2056018Y1496210D01*
Y1454058D01*
X1981102D01*
X1971191Y1452086D01*
X1962790Y1446472D01*
X1865048Y1348731D01*
X1859434Y1340329D01*
X1857463Y1330418D01*
Y1133125D01*
X1853250Y1130311D01*
X1849504Y1124704D01*
X1848189Y1118090D01*
Y1043898D01*
X1848147Y1043690D01*
Y1017997D01*
X1799740Y969590D01*
X1744153D01*
X1736720Y968112D01*
X1730418Y963901D01*
X1596626Y830109D01*
X1592415Y823807D01*
X1590937Y816374D01*
Y728576D01*
X1583472Y722848D01*
X1577429Y714973D01*
X1573630Y705802D01*
X1572335Y695960D01*
X1573630Y686118D01*
X1577429Y676947D01*
X1583472Y669072D01*
X1591347Y663029D01*
X1600518Y659230D01*
X1610360Y657935D01*
X1620202Y659230D01*
X1629373Y663029D01*
X1637248Y669072D01*
X1643291Y676947D01*
X1647090Y686118D01*
X1648385Y695960D01*
X1647090Y705802D01*
X1643291Y714973D01*
X1637248Y722848D01*
X1629783Y728576D01*
Y808329D01*
X1752198Y930744D01*
X1807785D01*
X1815218Y932222D01*
X1821520Y936433D01*
X1881305Y996218D01*
X1885515Y1002519D01*
X1886993Y1009952D01*
Y1024308D01*
X1946970D01*
X1953584Y1025624D01*
X1959191Y1029370D01*
X1962937Y1034977D01*
X1964252Y1041590D01*
Y1053943D01*
X2004793D01*
Y1030340D01*
X2006011Y1024215D01*
X2009481Y1019021D01*
X2014674Y1015551D01*
X2020800Y1014333D01*
X2074800D01*
X2080926Y1015551D01*
X2086119Y1019021D01*
X2089589Y1024215D01*
X2090808Y1030340D01*
Y1129340D01*
X2089589Y1135466D01*
X2086119Y1140659D01*
X2080926Y1144130D01*
X2074800Y1145348D01*
X2020800D01*
X2014674Y1144130D01*
X2009481Y1140659D01*
X2006011Y1135466D01*
X2004793Y1129340D01*
Y1105738D01*
X1964252D01*
Y1118090D01*
X1962937Y1124704D01*
X1959191Y1130311D01*
X1953584Y1134057D01*
X1946970Y1135372D01*
X1909258D01*
Y1319691D01*
X1991829Y1402262D01*
X2086750D01*
X2087583Y1402428D01*
X2120453D01*
Y1383344D01*
X2122424Y1373434D01*
X2128038Y1365032D01*
X2235654Y1257416D01*
X2244056Y1251802D01*
X2253967Y1249831D01*
X2284784D01*
X2472817Y1061798D01*
X2468565Y1053842D01*
X2463693Y1037782D01*
X2462048Y1021080D01*
X2463693Y1004378D01*
X2468565Y988318D01*
X2476476Y973516D01*
X2487123Y960543D01*
X2500097Y949896D01*
X2514898Y941985D01*
X2530958Y937113D01*
X2547660Y935468D01*
X2552660D01*
X2569362Y937113D01*
X2585422Y941985D01*
X2592506Y945771D01*
X2661019Y877259D01*
X2668580Y872206D01*
X2677500Y870432D01*
X2703793D01*
X2764502Y809723D01*
X2759371Y800124D01*
X2754356Y783592D01*
X2752663Y766400D01*
X2754356Y749208D01*
X2759371Y732676D01*
X2767514Y717441D01*
X2778473Y704087D01*
X2791828Y693127D01*
X2807063Y684984D01*
X2823595Y679969D01*
X2840787Y678276D01*
X2857979Y679969D01*
X2874510Y684984D01*
X2889746Y693127D01*
X2903100Y704087D01*
X2914059Y717441D01*
X2922203Y732676D01*
X2925363Y743092D01*
X3002628D01*
Y695810D01*
X3003943Y689196D01*
X3007689Y683590D01*
X3013296Y679843D01*
X3019910Y678528D01*
X3096410D01*
X3103023Y679843D01*
X3108630Y683590D01*
X3112376Y689196D01*
X3113692Y695810D01*
Y710752D01*
X5154005D01*
X5162924Y712527D01*
X5170486Y717579D01*
X5228930Y776023D01*
X5233982Y783585D01*
X5235757Y792504D01*
Y860578D01*
X5360850Y985672D01*
X5365903Y993233D01*
X5367677Y1002153D01*
Y1018818D01*
X5414959D01*
X5421573Y1020134D01*
X5427180Y1023880D01*
X5430926Y1029487D01*
X5432241Y1036100D01*
Y1112600D01*
X5430926Y1119214D01*
X5427180Y1124820D01*
X5421573Y1128567D01*
X5414959Y1129882D01*
X5400017D01*
Y1221877D01*
X5414959D01*
X5421573Y1223193D01*
X5427180Y1226939D01*
X5430926Y1232546D01*
X5432241Y1239159D01*
Y1309167D01*
X5432357Y1309749D01*
Y2022777D01*
X5430583Y2031696D01*
X5425530Y2039258D01*
X5387227Y2077561D01*
X5379666Y2082614D01*
X5370746Y2084388D01*
X5343812D01*
Y2131670D01*
X5342497Y2138284D01*
X5338750Y2143890D01*
X5333144Y2147637D01*
X5326530Y2148952D01*
X5279248D01*
Y2220205D01*
X5287459D01*
X5294073Y2221520D01*
X5299680Y2225267D01*
X5303426Y2230873D01*
X5304741Y2237487D01*
Y2313987D01*
X5303426Y2320600D01*
X5299680Y2326207D01*
X5294073Y2329953D01*
X5287459Y2331269D01*
X5205959D01*
X5199346Y2329953D01*
X5193739Y2326207D01*
X5189993Y2320600D01*
X5188677Y2313987D01*
Y2298937D01*
X5158976D01*
Y2330079D01*
X5157947Y2335249D01*
X5155019Y2339632D01*
X5150636Y2342560D01*
X5145466Y2343589D01*
X4916566D01*
X4911396Y2342560D01*
X4907013Y2339632D01*
X4904085Y2335249D01*
X4903056Y2330079D01*
Y2221179D01*
X4904085Y2216010D01*
X4907013Y2211627D01*
X4911396Y2208698D01*
X4916566Y2207670D01*
X5145466D01*
X5150636Y2208698D01*
X5155019Y2211627D01*
X5157947Y2216010D01*
X5158976Y2221179D01*
Y2252322D01*
X5188677D01*
Y2237487D01*
X5189993Y2230873D01*
X5193739Y2225267D01*
X5199346Y2221520D01*
X5205959Y2220205D01*
X5232632D01*
Y2125760D01*
X5232748Y2125178D01*
Y2055170D01*
X5234063Y2048556D01*
X5237810Y2042950D01*
X5243416Y2039203D01*
X5250030Y2037888D01*
X5320038D01*
X5320620Y2037772D01*
X5361092D01*
X5385742Y2013123D01*
Y1332941D01*
X5338459D01*
X5331846Y1331626D01*
X5326239Y1327879D01*
X5322493Y1322273D01*
X5321177Y1315659D01*
Y1239159D01*
X5322493Y1232546D01*
X5326239Y1226939D01*
X5331846Y1223193D01*
X5338459Y1221877D01*
X5353402D01*
Y1129882D01*
X5338459D01*
X5331846Y1128567D01*
X5326239Y1124820D01*
X5322493Y1119214D01*
X5321177Y1112600D01*
Y1042592D01*
X5321061Y1042010D01*
Y1011807D01*
X5195968Y886713D01*
X5190915Y879152D01*
X5189141Y870232D01*
Y802159D01*
X5144350Y757368D01*
X3113692D01*
Y772310D01*
X3112376Y778924D01*
X3108630Y784530D01*
X3103023Y788277D01*
X3096410Y789592D01*
X3026402D01*
X3025820Y789708D01*
X2925363D01*
X2922203Y800124D01*
X2914059Y815359D01*
X2903100Y828713D01*
X2889746Y839673D01*
X2874510Y847816D01*
X2857979Y852831D01*
X2840787Y854524D01*
X2823595Y852831D01*
X2807063Y847816D01*
X2797464Y842685D01*
X2729928Y910221D01*
X2722366Y915274D01*
X2713447Y917048D01*
X2687154D01*
X2626227Y977975D01*
X2631755Y988318D01*
X2636627Y1004378D01*
X2638272Y1021080D01*
X2636627Y1037782D01*
X2631755Y1053842D01*
X2623844Y1068644D01*
X2613197Y1081617D01*
X2600223Y1092264D01*
X2585422Y1100175D01*
X2569362Y1105047D01*
X2552660Y1106692D01*
X2547660D01*
X2530958Y1105047D01*
X2514898Y1100175D01*
X2510200Y1097664D01*
X2327558Y1280307D01*
X2408363Y1361113D01*
X2408364Y1361113D01*
X2412575Y1367415D01*
X2414053Y1374847D01*
Y1440068D01*
X2469030D01*
X2475644Y1441383D01*
X2481250Y1445130D01*
X2484997Y1450736D01*
X2486312Y1457350D01*
Y1533850D01*
X2484997Y1540464D01*
X2481250Y1546070D01*
X2475644Y1549817D01*
X2469030Y1551132D01*
X2392530D01*
X2385916Y1549817D01*
X2380310Y1546070D01*
X2376563Y1540464D01*
X2375248Y1533850D01*
Y1459657D01*
X2375207Y1459450D01*
Y1382893D01*
X2293940Y1301626D01*
X2264694D01*
X2172248Y1394072D01*
Y1428160D01*
X2172082Y1428994D01*
Y1496210D01*
X2170767Y1502824D01*
X2167021Y1508430D01*
X2161414Y1512177D01*
X2154800Y1513492D01*
X2138698D01*
Y1559496D01*
X2160300D01*
X2169489Y1560706D01*
X2178052Y1564253D01*
X2185405Y1569895D01*
X2191047Y1577248D01*
X2194594Y1585811D01*
X2195804Y1595000D01*
X2194594Y1604189D01*
X2191047Y1612752D01*
X2185405Y1620105D01*
Y1624603D01*
X2200832Y1640577D01*
X2289649D01*
X2297082Y1642055D01*
X2303383Y1646266D01*
X2599355Y1942238D01*
X2804469D01*
X2925700Y1821007D01*
X2932001Y1816796D01*
X2939434Y1815318D01*
X3198077D01*
X3205510Y1816796D01*
X3211811Y1821007D01*
X3324821Y1934016D01*
X3360811D01*
X3360956Y1933839D01*
Y1866229D01*
X3316775D01*
X3309342Y1864751D01*
X3303041Y1860541D01*
X3219603Y1777103D01*
X2926935D01*
X2801969Y1902069D01*
X2795668Y1906280D01*
X2788234Y1907758D01*
X2620967D01*
X2613534Y1906280D01*
X2607232Y1902069D01*
X2453196Y1748033D01*
X2448985Y1741732D01*
X2447507Y1734299D01*
Y1681132D01*
X2392530D01*
X2385916Y1679817D01*
X2380310Y1676070D01*
X2376563Y1670464D01*
X2375248Y1663850D01*
Y1587350D01*
X2376563Y1580736D01*
X2380310Y1575130D01*
X2385916Y1571383D01*
X2392530Y1570068D01*
X2469030D01*
X2475644Y1571383D01*
X2481250Y1575130D01*
X2484997Y1580736D01*
X2486312Y1587350D01*
Y1661543D01*
X2486353Y1661750D01*
Y1726253D01*
X2629012Y1868912D01*
X2780189D01*
X2905155Y1743946D01*
X2911456Y1739735D01*
X2918890Y1738257D01*
X3227649D01*
X3235082Y1739735D01*
X3241383Y1743946D01*
X3324821Y1827383D01*
X3360956D01*
Y1824939D01*
X3361985Y1819770D01*
X3364913Y1815387D01*
X3369296Y1812458D01*
X3374466Y1811430D01*
X3603366D01*
X3608536Y1812458D01*
X3612919Y1815387D01*
X3615847Y1819770D01*
X3616876Y1824939D01*
Y1933839D01*
X3617021Y1934016D01*
X3858439D01*
X3865872Y1935494D01*
X3872173Y1939705D01*
X4127260Y2194792D01*
X4131471Y2201093D01*
X4132949Y2208526D01*
Y2345950D01*
X4216626D01*
X4221796Y2346978D01*
X4226179Y2349907D01*
X4229107Y2354289D01*
X4230136Y2359459D01*
Y2588360D01*
X4229107Y2593529D01*
X4226179Y2597912D01*
X4221796Y2600841D01*
X4216626Y2601869D01*
X4107726D01*
X4102556Y2600841D01*
X4098173Y2597912D01*
X4095245Y2593529D01*
X4094217Y2588360D01*
Y2425831D01*
X4094103Y2425259D01*
Y2216571D01*
X3850394Y1972862D01*
X3316775D01*
X3309342Y1971384D01*
X3303041Y1967173D01*
X3190032Y1854164D01*
X2947480D01*
X2826249Y1975395D01*
X2819947Y1979605D01*
X2812514Y1981084D01*
X2591310D01*
X2583876Y1979605D01*
X2577575Y1975395D01*
X2281603Y1679423D01*
X2200293D01*
X2192745Y1697203D01*
X2200832Y1705577D01*
X2226858D01*
X2234291Y1707055D01*
X2240592Y1711266D01*
X2540466Y2011140D01*
X3075797D01*
X3083230Y2012618D01*
X3089531Y2016829D01*
X3204838Y2132136D01*
X3360811D01*
X3360956Y2131959D01*
Y2048282D01*
X3269079D01*
X3269078Y2048282D01*
X3261645Y2046804D01*
X3255344Y2042593D01*
X3255343Y2042593D01*
X3202423Y1989672D01*
X3176453D01*
X3176246Y1989631D01*
X3102053D01*
X3095440Y1988316D01*
X3089833Y1984570D01*
X3086087Y1978963D01*
X3084771Y1972349D01*
Y1895849D01*
X3086087Y1889236D01*
X3089833Y1883629D01*
X3095440Y1879883D01*
X3102053Y1878567D01*
X3178553D01*
X3185167Y1879883D01*
X3190773Y1883629D01*
X3194520Y1889236D01*
X3195835Y1895849D01*
Y1950826D01*
X3210468D01*
X3217901Y1952305D01*
X3224203Y1956515D01*
X3277123Y2009436D01*
X3440266D01*
X3440839Y2009550D01*
X3603366D01*
X3608536Y2010578D01*
X3612919Y2013507D01*
X3615847Y2017890D01*
X3616876Y2023059D01*
Y2131959D01*
X3617021Y2132136D01*
X3670868D01*
X3678301Y2133615D01*
X3684602Y2137825D01*
X3725939Y2179163D01*
X3725940Y2179163D01*
X3730151Y2185465D01*
X3731629Y2192897D01*
Y2345950D01*
X3815306D01*
X3820476Y2346978D01*
X3824859Y2349907D01*
X3827787Y2354289D01*
X3828816Y2359459D01*
Y2588360D01*
X3827787Y2593529D01*
X3824859Y2597912D01*
X3820476Y2600841D01*
X3815306Y2601869D01*
X3706406D01*
X3701236Y2600841D01*
X3696853Y2597912D01*
X3693925Y2593529D01*
X3692897Y2588360D01*
Y2425831D01*
X3692783Y2425259D01*
Y2200943D01*
X3662822Y2170982D01*
X3196793D01*
X3189360Y2169504D01*
X3183059Y2165294D01*
X3183058Y2165293D01*
X3067751Y2049986D01*
X2532422D01*
X2532421Y2049986D01*
X2524988Y2048507D01*
X2518687Y2044297D01*
X2518686Y2044296D01*
X2218812Y1744423D01*
X2189765D01*
X2185405Y1750105D01*
Y1764895D01*
X2191047Y1772248D01*
X2194594Y1780811D01*
X2195804Y1790000D01*
X2194594Y1799189D01*
X2191047Y1807752D01*
X2185405Y1815105D01*
Y1819602D01*
X2200832Y1835577D01*
X2243358D01*
X2250791Y1837055D01*
X2257092Y1841266D01*
X2491088Y2075262D01*
X3048772D01*
X3056205Y2076740D01*
X3062506Y2080950D01*
X3197562Y2216006D01*
X3233696D01*
X3241129Y2217485D01*
X3247431Y2221695D01*
X3305007Y2279271D01*
X3309217Y2285573D01*
X3310696Y2293006D01*
Y2313397D01*
X3361455Y2364156D01*
X3424890D01*
X3432323Y2365635D01*
X3438624Y2369845D01*
X3692873Y2624094D01*
X4485959D01*
X4495423Y2614629D01*
Y2522559D01*
X4495537Y2521987D01*
Y2359459D01*
X4496565Y2354289D01*
X4499493Y2349907D01*
X4503876Y2346978D01*
X4509046Y2345950D01*
X4617946D01*
X4623116Y2346978D01*
X4627499Y2349907D01*
X4630427Y2354289D01*
X4631456Y2359459D01*
Y2588360D01*
X4630427Y2593529D01*
X4627499Y2597912D01*
X4623116Y2600841D01*
X4617946Y2601869D01*
X4534269D01*
Y2622675D01*
X4532791Y2630108D01*
X4528580Y2636409D01*
X4507738Y2657251D01*
X4501437Y2661461D01*
X4494004Y2662940D01*
D02*
G37*
G36*
X4419826Y2601869D02*
X4310926D01*
X4305756Y2600841D01*
X4301373Y2597912D01*
X4298445Y2593529D01*
X4297417Y2588360D01*
Y2359459D01*
X4298445Y2354289D01*
X4301373Y2349907D01*
X4305756Y2346978D01*
X4310926Y2345950D01*
X4419826D01*
X4424996Y2346978D01*
X4429379Y2349907D01*
X4432307Y2354289D01*
X4433336Y2359459D01*
Y2588360D01*
X4432307Y2593529D01*
X4429379Y2597912D01*
X4424996Y2600841D01*
X4419826Y2601869D01*
D02*
G37*
G36*
X4018506D02*
X3909606D01*
X3904436Y2600841D01*
X3900053Y2597912D01*
X3897125Y2593529D01*
X3896097Y2588360D01*
Y2359459D01*
X3897125Y2354289D01*
X3900053Y2349907D01*
X3904436Y2346978D01*
X3909606Y2345950D01*
X4018506D01*
X4023676Y2346978D01*
X4028059Y2349907D01*
X4030987Y2354289D01*
X4032016Y2359459D01*
Y2588360D01*
X4030987Y2593529D01*
X4028059Y2597912D01*
X4023676Y2600841D01*
X4018506Y2601869D01*
D02*
G37*
G36*
X3603366Y2346129D02*
X3495266D01*
Y2284519D01*
X3616876D01*
Y2332619D01*
X3615847Y2337789D01*
X3612919Y2342172D01*
X3608536Y2345100D01*
X3603366Y2346129D01*
D02*
G37*
G36*
X3482566D02*
X3374466D01*
X3369296Y2345100D01*
X3364913Y2342172D01*
X3361985Y2337789D01*
X3360956Y2332619D01*
Y2284519D01*
X3482566D01*
Y2346129D01*
D02*
G37*
G36*
X5422459Y2331269D02*
X5388059D01*
Y2282087D01*
X5439741D01*
Y2313987D01*
X5438426Y2320600D01*
X5434680Y2326207D01*
X5429073Y2329953D01*
X5422459Y2331269D01*
D02*
G37*
G36*
X5375359D02*
X5340959D01*
X5334346Y2329953D01*
X5328739Y2326207D01*
X5324993Y2320600D01*
X5323677Y2313987D01*
Y2282087D01*
X5375359D01*
Y2331269D01*
D02*
G37*
G36*
X5439741Y2269387D02*
X5388059D01*
Y2220205D01*
X5422459D01*
X5429073Y2221520D01*
X5434680Y2225267D01*
X5438426Y2230873D01*
X5439741Y2237487D01*
Y2269387D01*
D02*
G37*
G36*
X5375359D02*
X5323677D01*
Y2237487D01*
X5324993Y2230873D01*
X5328739Y2225267D01*
X5334346Y2221520D01*
X5340959Y2220205D01*
X5375359D01*
Y2269387D01*
D02*
G37*
G36*
X3616876Y2271819D02*
X3495266D01*
Y2210210D01*
X3603366D01*
X3608536Y2211238D01*
X3612919Y2214167D01*
X3615847Y2218550D01*
X3616876Y2223719D01*
Y2271819D01*
D02*
G37*
G36*
X3482566D02*
X3360956D01*
Y2223719D01*
X3361985Y2218550D01*
X3364913Y2214167D01*
X3369296Y2211238D01*
X3374466Y2210210D01*
X3482566D01*
Y2271819D01*
D02*
G37*
G36*
X1520000Y2238047D02*
X1320000D01*
X1313094Y2236673D01*
X1307239Y2232761D01*
X1303327Y2226906D01*
X1301953Y2220000D01*
Y2194423D01*
X698047D01*
Y2220000D01*
X696673Y2226906D01*
X692761Y2232761D01*
X686906Y2236673D01*
X680000Y2238047D01*
X480000D01*
X473094Y2236673D01*
X467239Y2232761D01*
X463327Y2226906D01*
X461953Y2220000D01*
Y2130000D01*
X463327Y2123094D01*
X467239Y2117239D01*
X473094Y2113327D01*
X480000Y2111953D01*
X680000D01*
X686906Y2113327D01*
X692761Y2117239D01*
X696673Y2123094D01*
X698047Y2130000D01*
Y2155577D01*
X1010124D01*
Y1964242D01*
X1002659Y1958514D01*
X996616Y1950639D01*
X992817Y1941468D01*
X991522Y1931626D01*
X992817Y1921785D01*
X996616Y1912614D01*
X1002659Y1904738D01*
X1010534Y1898695D01*
X1019705Y1894897D01*
X1029547Y1893601D01*
X1039389Y1894897D01*
X1048559Y1898695D01*
X1056435Y1904738D01*
X1062478Y1912614D01*
X1066277Y1921785D01*
X1067572Y1931626D01*
X1066277Y1941468D01*
X1062478Y1950639D01*
X1056435Y1958514D01*
X1048970Y1964242D01*
Y2155577D01*
X1301953D01*
Y2130000D01*
X1303327Y2123094D01*
X1307239Y2117239D01*
X1313094Y2113327D01*
X1320000Y2111953D01*
X1520000D01*
X1526906Y2113327D01*
X1532761Y2117239D01*
X1536673Y2123094D01*
X1538047Y2130000D01*
Y2220000D01*
X1536673Y2226906D01*
X1532761Y2232761D01*
X1526906Y2236673D01*
X1520000Y2238047D01*
D02*
G37*
G36*
X1274770Y2081389D02*
X1242870D01*
Y2032207D01*
X1292052D01*
Y2064107D01*
X1290737Y2070720D01*
X1286990Y2076327D01*
X1281384Y2080073D01*
X1274770Y2081389D01*
D02*
G37*
G36*
X1230170D02*
X1198270D01*
X1191656Y2080073D01*
X1186050Y2076327D01*
X1182303Y2070720D01*
X1180988Y2064107D01*
Y2032207D01*
X1230170D01*
Y2081389D01*
D02*
G37*
G36*
X5145466Y2142929D02*
X4916566D01*
X4911396Y2141900D01*
X4907013Y2138972D01*
X4904085Y2134589D01*
X4903056Y2129419D01*
Y2020519D01*
X4904085Y2015350D01*
X4907013Y2010967D01*
X4911396Y2008038D01*
X4916566Y2007010D01*
X5145466D01*
X5150636Y2008038D01*
X5155019Y2010967D01*
X5157947Y2015350D01*
X5158976Y2020519D01*
Y2129419D01*
X5157947Y2134589D01*
X5155019Y2138972D01*
X5150636Y2141900D01*
X5145466Y2142929D01*
D02*
G37*
G36*
X2160300Y2020503D02*
X2119150D01*
Y1991350D01*
X2194968D01*
X2194594Y1994189D01*
X2191047Y2002752D01*
X2185405Y2010105D01*
X2178052Y2015747D01*
X2169489Y2019294D01*
X2160300Y2020503D01*
D02*
G37*
G36*
X2106450D02*
X2065300D01*
X2056111Y2019294D01*
X2047548Y2015747D01*
X2040195Y2010105D01*
X2034553Y2002752D01*
X2031006Y1994189D01*
X2030633Y1991350D01*
X2106450D01*
Y2020503D01*
D02*
G37*
G36*
X1292052Y2019507D02*
X1242870D01*
Y1970324D01*
X1274770D01*
X1281384Y1971640D01*
X1286990Y1975386D01*
X1290737Y1980993D01*
X1292052Y1987606D01*
Y2019507D01*
D02*
G37*
G36*
X1230170D02*
X1180988D01*
Y1987606D01*
X1182303Y1980993D01*
X1186050Y1975386D01*
X1191656Y1971640D01*
X1198270Y1970324D01*
X1230170D01*
Y2019507D01*
D02*
G37*
G36*
X3048553Y1989631D02*
X3016653D01*
Y1940449D01*
X3065835D01*
Y1972349D01*
X3064520Y1978963D01*
X3060773Y1984570D01*
X3055167Y1988316D01*
X3048553Y1989631D01*
D02*
G37*
G36*
X3003953D02*
X2972053D01*
X2965440Y1988316D01*
X2959833Y1984570D01*
X2956087Y1978963D01*
X2954771Y1972349D01*
Y1940449D01*
X3003953D01*
Y1989631D01*
D02*
G37*
G36*
X3065835Y1927749D02*
X3016653D01*
Y1878567D01*
X3048553D01*
X3055167Y1879883D01*
X3060773Y1883629D01*
X3064520Y1889236D01*
X3065835Y1895849D01*
Y1927749D01*
D02*
G37*
G36*
X3003953D02*
X2954771D01*
Y1895849D01*
X2956087Y1889236D01*
X2959833Y1883629D01*
X2965440Y1879883D01*
X2972053Y1878567D01*
X3003953D01*
Y1927749D01*
D02*
G37*
G36*
X5145466Y1944809D02*
X4916566D01*
X4911396Y1943780D01*
X4907013Y1940852D01*
X4904085Y1936469D01*
X4903056Y1931299D01*
Y1822399D01*
X4904085Y1817230D01*
X4907013Y1812847D01*
X4911396Y1809918D01*
X4916566Y1808890D01*
X5145466D01*
X5150636Y1809918D01*
X5155019Y1812847D01*
X5157947Y1817230D01*
X5158976Y1822399D01*
Y1931299D01*
X5157947Y1936469D01*
X5155019Y1940852D01*
X5150636Y1943780D01*
X5145466Y1944809D01*
D02*
G37*
G36*
X5326530Y2018952D02*
X5250030D01*
X5243416Y2017637D01*
X5237810Y2013890D01*
X5234063Y2008284D01*
X5232748Y2001670D01*
Y1925170D01*
X5234063Y1918556D01*
X5237810Y1912950D01*
X5243416Y1909203D01*
X5250030Y1907888D01*
X5268857D01*
Y1884507D01*
X5252280D01*
X5245764Y1883211D01*
X5240240Y1879520D01*
X5236549Y1873996D01*
X5235253Y1867480D01*
Y1795480D01*
X5236549Y1788964D01*
X5240240Y1783440D01*
X5245764Y1779749D01*
X5252280Y1778453D01*
X5324280D01*
X5330796Y1779749D01*
X5336320Y1783440D01*
X5340011Y1788964D01*
X5341307Y1795480D01*
Y1867480D01*
X5340011Y1873996D01*
X5336320Y1879520D01*
X5330796Y1883211D01*
X5324280Y1884507D01*
X5307703D01*
Y1907888D01*
X5326530D01*
X5333144Y1909203D01*
X5338750Y1912950D01*
X5342497Y1918556D01*
X5343812Y1925170D01*
Y2001670D01*
X5342497Y2008284D01*
X5338750Y2013890D01*
X5333144Y2017637D01*
X5326530Y2018952D01*
D02*
G37*
G36*
X5145466Y1746689D02*
X4916566D01*
X4911396Y1745660D01*
X4907013Y1742732D01*
X4904085Y1738349D01*
X4903056Y1733179D01*
Y1624279D01*
X4904085Y1619110D01*
X4907013Y1614727D01*
X4911396Y1611798D01*
X4916566Y1610770D01*
X5145466D01*
X5150636Y1611798D01*
X5155019Y1614727D01*
X5157947Y1619110D01*
X5158976Y1624279D01*
Y1662057D01*
X5235253D01*
Y1645480D01*
X5236549Y1638964D01*
X5240240Y1633440D01*
X5245764Y1629749D01*
X5252280Y1628453D01*
X5324280D01*
X5330796Y1629749D01*
X5336320Y1633440D01*
X5340011Y1638964D01*
X5341307Y1645480D01*
Y1717480D01*
X5340011Y1723996D01*
X5336320Y1729520D01*
X5330796Y1733211D01*
X5324280Y1734507D01*
X5252280D01*
X5245764Y1733211D01*
X5240240Y1729520D01*
X5236549Y1723996D01*
X5235253Y1717480D01*
Y1700903D01*
X5158976D01*
Y1733179D01*
X5157947Y1738349D01*
X5155019Y1742732D01*
X5150636Y1745660D01*
X5145466Y1746689D01*
D02*
G37*
G36*
X1428550Y1513492D02*
X1394150D01*
Y1464310D01*
X1445832D01*
Y1496210D01*
X1444517Y1502824D01*
X1440770Y1508430D01*
X1435163Y1512177D01*
X1428550Y1513492D01*
D02*
G37*
G36*
X1381450D02*
X1347050D01*
X1340437Y1512177D01*
X1334830Y1508430D01*
X1331084Y1502824D01*
X1329768Y1496210D01*
Y1464310D01*
X1381450D01*
Y1513492D01*
D02*
G37*
G36*
X2289800D02*
X2255400D01*
Y1464310D01*
X2307082D01*
Y1496210D01*
X2305767Y1502824D01*
X2302021Y1508430D01*
X2296414Y1512177D01*
X2289800Y1513492D01*
D02*
G37*
G36*
X2242700D02*
X2208300D01*
X2201687Y1512177D01*
X2196080Y1508430D01*
X2192334Y1502824D01*
X2191018Y1496210D01*
Y1464310D01*
X2242700D01*
Y1513492D01*
D02*
G37*
G36*
X3605906Y1546029D02*
X3377006D01*
X3371836Y1545000D01*
X3367453Y1542072D01*
X3364525Y1537689D01*
X3363496Y1532519D01*
Y1423619D01*
X3364525Y1418450D01*
X3367453Y1414067D01*
X3371836Y1411138D01*
X3377006Y1410110D01*
X3605906D01*
X3611076Y1411138D01*
X3615459Y1414067D01*
X3618387Y1418450D01*
X3619416Y1423619D01*
Y1532519D01*
X3618387Y1537689D01*
X3615459Y1542072D01*
X3611076Y1545000D01*
X3605906Y1546029D01*
D02*
G37*
G36*
X5145466Y1543489D02*
X4916566D01*
X4911396Y1542460D01*
X4907013Y1539532D01*
X4904085Y1535149D01*
X4903056Y1529979D01*
Y1421079D01*
X4904085Y1415910D01*
X4907013Y1411527D01*
X4911396Y1408598D01*
X4916566Y1407570D01*
X5145466D01*
X5150636Y1408598D01*
X5155019Y1411527D01*
X5157947Y1415910D01*
X5158976Y1421079D01*
Y1529979D01*
X5157947Y1535149D01*
X5155019Y1539532D01*
X5150636Y1542460D01*
X5145466Y1543489D01*
D02*
G37*
G36*
X2307082Y1451610D02*
X2255400D01*
Y1402428D01*
X2289800D01*
X2296414Y1403743D01*
X2302021Y1407490D01*
X2305767Y1413096D01*
X2307082Y1419710D01*
Y1451610D01*
D02*
G37*
G36*
X2242700D02*
X2191018D01*
Y1419710D01*
X2192334Y1413096D01*
X2196080Y1407490D01*
X2201687Y1403743D01*
X2208300Y1402428D01*
X2242700D01*
Y1451610D01*
D02*
G37*
G36*
X1445832Y1451610D02*
X1394150D01*
Y1402428D01*
X1428550D01*
X1435163Y1403743D01*
X1440770Y1407490D01*
X1444517Y1413096D01*
X1445832Y1419710D01*
Y1451610D01*
D02*
G37*
G36*
X1381450D02*
X1329768D01*
Y1419710D01*
X1331084Y1413096D01*
X1334830Y1407490D01*
X1340437Y1403743D01*
X1347050Y1402428D01*
X1381450D01*
Y1451610D01*
D02*
G37*
G36*
X270198Y1414537D02*
X238297D01*
Y1365355D01*
X287479D01*
Y1397255D01*
X286164Y1403868D01*
X282418Y1409475D01*
X276811Y1413221D01*
X270198Y1414537D01*
D02*
G37*
G36*
X225597D02*
X193697D01*
X187084Y1413221D01*
X181477Y1409475D01*
X177731Y1403868D01*
X176415Y1397255D01*
Y1365355D01*
X225597D01*
Y1414537D01*
D02*
G37*
G36*
X287479Y1352655D02*
X238297D01*
Y1303473D01*
X270198D01*
X276811Y1304788D01*
X282418Y1308534D01*
X286164Y1314141D01*
X287479Y1320755D01*
Y1352655D01*
D02*
G37*
G36*
X225597D02*
X176415D01*
Y1320755D01*
X177731Y1314141D01*
X181477Y1308534D01*
X187084Y1304788D01*
X193697Y1303473D01*
X225597D01*
Y1352655D01*
D02*
G37*
G36*
X3662859Y1772202D02*
X3328990D01*
X3321557Y1770724D01*
X3315255Y1766514D01*
X3315255Y1766513D01*
X3115891Y1567149D01*
X2786798D01*
X2779365Y1565670D01*
X2773064Y1561460D01*
X2592374Y1380770D01*
X2588164Y1374469D01*
X2586685Y1367036D01*
Y1360884D01*
X2493285D01*
X2481258Y1358492D01*
X2471061Y1351679D01*
X2464249Y1341482D01*
X2461856Y1329455D01*
Y1220705D01*
X2464249Y1208678D01*
X2471061Y1198481D01*
X2481258Y1191668D01*
X2493285Y1189276D01*
X2607035D01*
X2619062Y1191668D01*
X2629259Y1198481D01*
X2636071Y1208678D01*
X2638464Y1220705D01*
Y1329455D01*
X2636071Y1341482D01*
X2629259Y1351679D01*
X2635460Y1368919D01*
X2794844Y1528303D01*
X3123936D01*
X3131369Y1529781D01*
X3137671Y1533992D01*
X3337035Y1733356D01*
X3363351D01*
X3363496Y1733179D01*
Y1649502D01*
X3359520D01*
X3352087Y1648024D01*
X3345786Y1643813D01*
X3184515Y1482543D01*
X2813594D01*
X2806161Y1481064D01*
X2799860Y1476854D01*
X2664952Y1341946D01*
X2660741Y1335645D01*
X2659263Y1328211D01*
Y1190370D01*
X2660741Y1182937D01*
X2664952Y1176636D01*
X2704702Y1136886D01*
X2704702Y1136886D01*
X2711004Y1132675D01*
X2718437Y1131197D01*
X2718438Y1131197D01*
X2862016D01*
X2909118Y1084095D01*
Y1039095D01*
X2910597Y1031662D01*
X2914807Y1025361D01*
X2932822Y1007347D01*
X2932822Y1007346D01*
X2939124Y1003136D01*
X2946556Y1001657D01*
X2946558Y1001657D01*
X2972518D01*
X2976565Y988318D01*
X2984476Y973516D01*
X2995123Y960543D01*
X3008097Y949896D01*
X3022898Y941985D01*
X3038737Y937180D01*
Y919592D01*
X3019910D01*
X3013296Y918277D01*
X3007689Y914530D01*
X3003943Y908924D01*
X3002628Y902310D01*
Y825810D01*
X3003943Y819196D01*
X3007689Y813590D01*
X3013296Y809843D01*
X3019910Y808528D01*
X3096410D01*
X3103023Y809843D01*
X3108630Y813590D01*
X3112376Y819196D01*
X3113692Y825810D01*
Y902310D01*
X3112376Y908924D01*
X3108630Y914530D01*
X3103023Y918277D01*
X3096410Y919592D01*
X3077583D01*
Y937180D01*
X3093422Y941985D01*
X3108223Y949896D01*
X3121197Y960543D01*
X3131844Y973516D01*
X3139755Y988318D01*
X3144627Y1004378D01*
X3146272Y1021080D01*
X3144627Y1037782D01*
X3139755Y1053842D01*
X3131844Y1068644D01*
X3121197Y1081617D01*
X3108223Y1092264D01*
X3093422Y1100175D01*
X3077362Y1105047D01*
X3060660Y1106692D01*
X3055660D01*
X3038958Y1105047D01*
X3022898Y1100175D01*
X3008097Y1092264D01*
X2995123Y1081617D01*
X2984476Y1068644D01*
X2976565Y1053842D01*
X2972518Y1040503D01*
X2954602D01*
X2947964Y1047141D01*
Y1092140D01*
X2946486Y1099573D01*
X2942276Y1105874D01*
X2883796Y1164354D01*
X2877494Y1168565D01*
X2870061Y1170043D01*
X2726482D01*
X2698109Y1198416D01*
Y1320166D01*
X2821640Y1443696D01*
X3192561D01*
X3199994Y1445175D01*
X3206295Y1449385D01*
X3367566Y1610656D01*
X3442806D01*
X3443379Y1610770D01*
X3605906D01*
X3611076Y1611798D01*
X3615459Y1614727D01*
X3618387Y1619110D01*
X3619416Y1624279D01*
Y1733179D01*
X3619561Y1733356D01*
X3654814D01*
X4041275Y1346895D01*
X4041275Y1346895D01*
X4075845Y1312325D01*
X4082147Y1308115D01*
X4089580Y1306636D01*
X4903056D01*
Y1222959D01*
X4904085Y1217790D01*
X4907013Y1213407D01*
X4911396Y1210478D01*
X4916566Y1209450D01*
X5145466D01*
X5150636Y1210478D01*
X5155019Y1213407D01*
X5157947Y1217790D01*
X5158976Y1222959D01*
Y1257986D01*
X5191177D01*
Y1239159D01*
X5192493Y1232546D01*
X5196239Y1226939D01*
X5201846Y1223193D01*
X5208459Y1221877D01*
X5284959D01*
X5291573Y1223193D01*
X5297180Y1226939D01*
X5300926Y1232546D01*
X5302241Y1239159D01*
Y1315659D01*
X5300926Y1322273D01*
X5297180Y1327879D01*
X5291573Y1331626D01*
X5284959Y1332941D01*
X5208459D01*
X5201846Y1331626D01*
X5196239Y1327879D01*
X5192493Y1322273D01*
X5191177Y1315659D01*
Y1296832D01*
X5158976D01*
Y1331859D01*
X5157947Y1337029D01*
X5155019Y1341412D01*
X5150636Y1344340D01*
X5145466Y1345369D01*
X4982937D01*
X4982366Y1345482D01*
X4097625D01*
X4068743Y1374364D01*
X4068743Y1374365D01*
X3676594Y1766514D01*
X3670292Y1770724D01*
X3662859Y1772202D01*
D02*
G37*
G36*
X3605906Y1347909D02*
X3377006D01*
X3371836Y1346880D01*
X3367453Y1343952D01*
X3364525Y1339569D01*
X3363496Y1334399D01*
Y1225499D01*
X3364525Y1220330D01*
X3367453Y1215947D01*
X3371836Y1213018D01*
X3377006Y1211990D01*
X3605906D01*
X3611076Y1213018D01*
X3615459Y1215947D01*
X3618387Y1220330D01*
X3619416Y1225499D01*
Y1334399D01*
X3618387Y1339569D01*
X3615459Y1343952D01*
X3611076Y1346880D01*
X3605906Y1347909D01*
D02*
G37*
G36*
X1369550Y1200207D02*
X1337650D01*
Y1151025D01*
X1386832D01*
Y1182925D01*
X1385517Y1189538D01*
X1381770Y1195145D01*
X1376164Y1198891D01*
X1369550Y1200207D01*
D02*
G37*
G36*
X1324950D02*
X1293050D01*
X1286437Y1198891D01*
X1280830Y1195145D01*
X1277084Y1189538D01*
X1275768Y1182925D01*
Y1151025D01*
X1324950D01*
Y1200207D01*
D02*
G37*
G36*
X1386832Y1138325D02*
X1337650D01*
Y1089143D01*
X1369550D01*
X1376164Y1090458D01*
X1381770Y1094205D01*
X1385517Y1099811D01*
X1386832Y1106425D01*
Y1138325D01*
D02*
G37*
G36*
X1324950D02*
X1275768D01*
Y1106425D01*
X1277084Y1099811D01*
X1280830Y1094205D01*
X1286437Y1090458D01*
X1293050Y1089143D01*
X1324950D01*
Y1138325D01*
D02*
G37*
G36*
X1811970Y1135372D02*
X1777570D01*
Y1086191D01*
X1829252D01*
Y1118090D01*
X1827937Y1124704D01*
X1824191Y1130311D01*
X1818584Y1134057D01*
X1811970Y1135372D01*
D02*
G37*
G36*
X1764870D02*
X1730471D01*
X1723857Y1134057D01*
X1718250Y1130311D01*
X1714504Y1124704D01*
X1713189Y1118090D01*
Y1086191D01*
X1764870D01*
Y1135372D01*
D02*
G37*
G36*
X2810510Y1106313D02*
Y1027430D01*
X2891647D01*
X2890627Y1037782D01*
X2885755Y1053842D01*
X2877844Y1068644D01*
X2867197Y1081617D01*
X2854223Y1092264D01*
X2839422Y1100175D01*
X2823362Y1105047D01*
X2810510Y1106313D01*
D02*
G37*
G36*
X2797810D02*
X2784958Y1105047D01*
X2768898Y1100175D01*
X2754097Y1092264D01*
X2741123Y1081617D01*
X2730476Y1068644D01*
X2722565Y1053842D01*
X2717693Y1037782D01*
X2716673Y1027430D01*
X2797810D01*
Y1106313D01*
D02*
G37*
G36*
X1829252Y1073491D02*
X1777570D01*
Y1024308D01*
X1811970D01*
X1818584Y1025624D01*
X1824191Y1029370D01*
X1827937Y1034977D01*
X1829252Y1041590D01*
Y1073491D01*
D02*
G37*
G36*
X1764870D02*
X1713189D01*
Y1041590D01*
X1714504Y1034977D01*
X1718250Y1029370D01*
X1723857Y1025624D01*
X1730471Y1024308D01*
X1764870D01*
Y1073491D01*
D02*
G37*
G36*
X2264800Y1145348D02*
X2210800D01*
X2204674Y1144130D01*
X2199481Y1140659D01*
X2196011Y1135466D01*
X2194792Y1129340D01*
Y1030340D01*
X2196011Y1024215D01*
X2199481Y1019021D01*
X2204674Y1015551D01*
X2210800Y1014333D01*
X2264800D01*
X2270926Y1015551D01*
X2276119Y1019021D01*
X2279589Y1024215D01*
X2280807Y1030340D01*
Y1129340D01*
X2279589Y1135466D01*
X2276119Y1140659D01*
X2270926Y1144130D01*
X2264800Y1145348D01*
D02*
G37*
G36*
X5145466Y1144709D02*
X4916566D01*
X4911396Y1143680D01*
X4907013Y1140752D01*
X4904085Y1136369D01*
X4903056Y1131199D01*
Y1022299D01*
X4904085Y1017130D01*
X4907013Y1012747D01*
X4911396Y1009818D01*
X4916566Y1008790D01*
X5145466D01*
X5150636Y1009818D01*
X5155019Y1012747D01*
X5157947Y1017130D01*
X5158976Y1022299D01*
Y1131199D01*
X5157947Y1136369D01*
X5155019Y1140752D01*
X5150636Y1143680D01*
X5145466Y1144709D01*
D02*
G37*
G36*
X3060660Y1360692D02*
X3055660D01*
X3038958Y1359047D01*
X3022898Y1354175D01*
X3008097Y1346264D01*
X2995123Y1335617D01*
X2984476Y1322644D01*
X2976565Y1307842D01*
X2971693Y1291782D01*
X2970048Y1275080D01*
X2971693Y1258378D01*
X2976565Y1242318D01*
X2984476Y1227516D01*
X2995123Y1214543D01*
X3008097Y1203896D01*
X3022898Y1195985D01*
X3038958Y1191113D01*
X3055660Y1189468D01*
X3060660D01*
X3077362Y1191113D01*
X3093422Y1195985D01*
X3107865Y1203704D01*
X3199904Y1111665D01*
X3206205Y1107455D01*
X3213638Y1105976D01*
X3363496D01*
Y1022299D01*
X3364525Y1017130D01*
X3367453Y1012747D01*
X3371836Y1009818D01*
X3377006Y1008790D01*
X3605906D01*
X3611076Y1009818D01*
X3615459Y1012747D01*
X3618387Y1017130D01*
X3619416Y1022299D01*
Y1131199D01*
X3618387Y1136369D01*
X3615459Y1140752D01*
X3611076Y1143680D01*
X3605906Y1144709D01*
X3443378D01*
X3442806Y1144823D01*
X3221684D01*
X3134333Y1232174D01*
X3139755Y1242318D01*
X3144627Y1258378D01*
X3146272Y1275080D01*
X3144627Y1291782D01*
X3139755Y1307842D01*
X3131844Y1322644D01*
X3121197Y1335617D01*
X3108223Y1346264D01*
X3093422Y1354175D01*
X3077362Y1359047D01*
X3060660Y1360692D01*
D02*
G37*
G36*
X1519070Y1023032D02*
X1442570D01*
X1435956Y1021717D01*
X1430350Y1017971D01*
X1426603Y1012364D01*
X1425288Y1005750D01*
Y988218D01*
X1384327D01*
Y1003500D01*
X1383031Y1010016D01*
X1379340Y1015540D01*
X1373816Y1019231D01*
X1367300Y1020527D01*
X1295300D01*
X1288784Y1019231D01*
X1283260Y1015540D01*
X1279569Y1010016D01*
X1278273Y1003500D01*
Y931500D01*
X1279569Y924984D01*
X1283260Y919460D01*
X1288784Y915769D01*
X1295300Y914473D01*
X1367300D01*
X1373816Y915769D01*
X1379340Y919460D01*
X1383031Y924984D01*
X1384327Y931500D01*
Y946782D01*
X1425288D01*
Y929250D01*
X1426603Y922637D01*
X1430350Y917030D01*
X1435956Y913284D01*
X1442570Y911968D01*
X1519070D01*
X1525684Y913284D01*
X1531290Y917030D01*
X1535037Y922637D01*
X1536352Y929250D01*
Y1005750D01*
X1535037Y1012364D01*
X1531290Y1017971D01*
X1525684Y1021717D01*
X1519070Y1023032D01*
D02*
G37*
G36*
X508150Y1015304D02*
X476250D01*
Y966122D01*
X525432D01*
Y998022D01*
X524117Y1004635D01*
X520370Y1010242D01*
X514764Y1013988D01*
X508150Y1015304D01*
D02*
G37*
G36*
X463550D02*
X431650D01*
X425036Y1013988D01*
X419430Y1010242D01*
X415683Y1004635D01*
X414368Y998022D01*
Y966122D01*
X463550D01*
Y1015304D01*
D02*
G37*
G36*
X400198Y1414537D02*
X323697D01*
X317084Y1413221D01*
X311477Y1409475D01*
X307731Y1403868D01*
X306415Y1397255D01*
Y1320755D01*
X307731Y1314141D01*
X311477Y1308534D01*
X317084Y1304788D01*
X323697Y1303473D01*
X342524D01*
Y1284892D01*
X323698D01*
X317084Y1283577D01*
X311477Y1279831D01*
X307731Y1274224D01*
X306416Y1267610D01*
Y1191110D01*
X307731Y1184497D01*
X311477Y1178890D01*
X317084Y1175144D01*
X323698Y1173828D01*
X397888D01*
X398098Y1173787D01*
X713906D01*
X912157Y975535D01*
Y955792D01*
X894377Y948245D01*
X886003Y956332D01*
Y965244D01*
X884525Y972677D01*
X880314Y978978D01*
X791936Y1067356D01*
X785635Y1071566D01*
X778202Y1073045D01*
X525432D01*
Y1128022D01*
X524117Y1134635D01*
X520370Y1140242D01*
X514764Y1143988D01*
X508150Y1145304D01*
X433957D01*
X433750Y1145345D01*
X310089D01*
X302656Y1143866D01*
X296354Y1139656D01*
X274364Y1117666D01*
X270154Y1111365D01*
X268675Y1103931D01*
Y1083303D01*
X256948Y1076196D01*
X245221Y1083303D01*
Y1173828D01*
X270198D01*
X276811Y1175144D01*
X282418Y1178890D01*
X286164Y1184497D01*
X287480Y1191110D01*
Y1267610D01*
X286164Y1274224D01*
X282418Y1279831D01*
X276811Y1283577D01*
X270198Y1284892D01*
X193698D01*
X187084Y1283577D01*
X181477Y1279831D01*
X177731Y1274224D01*
X176416Y1267610D01*
Y1191110D01*
X177731Y1184497D01*
X181477Y1178890D01*
X187084Y1175144D01*
X193698Y1173828D01*
X206375D01*
Y1034722D01*
X206475Y1034219D01*
Y1002322D01*
X207558Y996879D01*
X210641Y992264D01*
X215255Y989181D01*
X220698Y988099D01*
X243198D01*
X248641Y989181D01*
X253255Y992264D01*
X260641D01*
X265256Y989181D01*
X270698Y988099D01*
X283236D01*
X290601Y970319D01*
X268214Y947932D01*
X264004Y941631D01*
X262525Y934198D01*
X259653Y931874D01*
X244745Y923737D01*
X243198Y924045D01*
X220698D01*
X215255Y922962D01*
X210641Y919879D01*
X207558Y915265D01*
X206475Y909822D01*
Y857322D01*
X206597Y856708D01*
Y779432D01*
X153290D01*
X146677Y778117D01*
X141070Y774370D01*
X137324Y768764D01*
X136008Y762150D01*
Y685650D01*
X137324Y679036D01*
X137421Y678890D01*
Y182181D01*
X138900Y174748D01*
X143110Y168447D01*
X143111Y168446D01*
X264760Y46797D01*
X271062Y42587D01*
X278494Y41108D01*
X278496Y41108D01*
X1442407D01*
X1449840Y42587D01*
X1456142Y46797D01*
X1519461Y110117D01*
X1588106D01*
X1592444Y95816D01*
X1600587Y80581D01*
X1611547Y67227D01*
X1624901Y56267D01*
X1640136Y48124D01*
X1656668Y43109D01*
X1673860Y41416D01*
X1691052Y43109D01*
X1707584Y48124D01*
X1722819Y56267D01*
X1736173Y67227D01*
X1747133Y80581D01*
X1755276Y95816D01*
X1759614Y110117D01*
X1824813D01*
X1858448Y76482D01*
X1864750Y72272D01*
X1872182Y70793D01*
X1872184Y70793D01*
X2014820D01*
X2022253Y72272D01*
X2028554Y76482D01*
X2082764Y130691D01*
X2082764Y130692D01*
X2086975Y136993D01*
X2088454Y144426D01*
X2088453Y144427D01*
Y162908D01*
X2148430D01*
X2155044Y164223D01*
X2160650Y167970D01*
X2164397Y173576D01*
X2165712Y180190D01*
Y197622D01*
X2312716D01*
X2315230Y189335D01*
X2323485Y173891D01*
X2334594Y160354D01*
X2348131Y149245D01*
X2363575Y140990D01*
X2380333Y135906D01*
X2397760Y134190D01*
X2415188Y135906D01*
X2431945Y140990D01*
X2447390Y149245D01*
X2460926Y160354D01*
X2472036Y173891D01*
X2480291Y189335D01*
X2485374Y206093D01*
X2487091Y223520D01*
X2485374Y240947D01*
X2480291Y257705D01*
X2472036Y273149D01*
X2460926Y286686D01*
X2447390Y297795D01*
X2431945Y306050D01*
X2417184Y310528D01*
Y382328D01*
X2436011D01*
X2442624Y383644D01*
X2448231Y387390D01*
X2451977Y392997D01*
X2453293Y399610D01*
Y476111D01*
X2451977Y482724D01*
X2448231Y488331D01*
X2442624Y492077D01*
X2436011Y493392D01*
X2359510D01*
X2352897Y492077D01*
X2347290Y488331D01*
X2343544Y482724D01*
X2342228Y476111D01*
Y399610D01*
X2343544Y392997D01*
X2347290Y387390D01*
X2352897Y383644D01*
X2359510Y382328D01*
X2378337D01*
Y310528D01*
X2363575Y306050D01*
X2348131Y297795D01*
X2334594Y286686D01*
X2323485Y273149D01*
X2315230Y257705D01*
X2312716Y249418D01*
X2165712D01*
Y256690D01*
X2164397Y263304D01*
X2160650Y268910D01*
X2155044Y272657D01*
X2153698Y272924D01*
Y292546D01*
X2158578Y293517D01*
X2163689Y296932D01*
X2167104Y302042D01*
X2168303Y308071D01*
Y392570D01*
X2167104Y398599D01*
X2163689Y403709D01*
X2158578Y407124D01*
X2152550Y408323D01*
X2103050D01*
X2097022Y407124D01*
X2091911Y403709D01*
X2088497Y398599D01*
X2087298Y392570D01*
Y308071D01*
X2088497Y302042D01*
X2091911Y296932D01*
X2097022Y293517D01*
X2101903Y292546D01*
Y273972D01*
X2066930D01*
X2060317Y272657D01*
X2054710Y268910D01*
X2050964Y263304D01*
X2049648Y256690D01*
Y182498D01*
X2049607Y182290D01*
Y152471D01*
X2006775Y109639D01*
X1880228D01*
X1846593Y143274D01*
X1840292Y147485D01*
X1832859Y148963D01*
X1759614D01*
X1755276Y163264D01*
X1747133Y178499D01*
X1736173Y191853D01*
X1722819Y202813D01*
X1707584Y210956D01*
X1691052Y215971D01*
X1673860Y217664D01*
X1656668Y215971D01*
X1640136Y210956D01*
X1624901Y202813D01*
X1611547Y191853D01*
X1600587Y178499D01*
X1592444Y163264D01*
X1588106Y148963D01*
X1511416D01*
X1503983Y147485D01*
X1497682Y143274D01*
X1497681Y143274D01*
X1434362Y79955D01*
X286540D01*
X176268Y190227D01*
Y668368D01*
X229790D01*
X236404Y669683D01*
X242010Y673430D01*
X245757Y679036D01*
X247072Y685650D01*
Y762150D01*
X245757Y768764D01*
X245443Y769233D01*
Y828405D01*
X257033Y835637D01*
X268562Y828435D01*
Y770617D01*
X267324Y768764D01*
X266008Y762150D01*
Y685650D01*
X267324Y679036D01*
X271070Y673430D01*
X276677Y669683D01*
X283290Y668368D01*
X359790D01*
X366404Y669683D01*
X372010Y673430D01*
X375757Y679036D01*
X377072Y685650D01*
Y762150D01*
X375757Y768764D01*
X372010Y774370D01*
X366404Y778117D01*
X359790Y779432D01*
X307409D01*
Y828994D01*
X308138Y830405D01*
X320698Y843099D01*
X325598D01*
Y883572D01*
Y924045D01*
X324409D01*
X318573Y932960D01*
X316572Y941352D01*
X339532Y964313D01*
X343743Y970615D01*
X345221Y978048D01*
Y988501D01*
X348641Y989181D01*
X353256Y992264D01*
X356339Y996879D01*
X357421Y1002322D01*
Y1054822D01*
X356339Y1060265D01*
X353256Y1064879D01*
X348641Y1067962D01*
X343198Y1069045D01*
X320699D01*
X308182Y1081874D01*
X307522Y1083172D01*
Y1095886D01*
X318134Y1106499D01*
X414368D01*
Y1051522D01*
X415683Y1044908D01*
X419430Y1039301D01*
X425036Y1035555D01*
X431650Y1034240D01*
X505843D01*
X506050Y1034199D01*
X770157D01*
X840915Y963440D01*
X838081Y945521D01*
X824463Y942610D01*
X819332Y946547D01*
X810769Y950094D01*
X801580Y951304D01*
X792391Y950094D01*
X783828Y946547D01*
X776475Y940905D01*
X761685D01*
X754332Y946547D01*
X745769Y950094D01*
X736580Y951304D01*
X727391Y950094D01*
X718828Y946547D01*
X711475Y940905D01*
X696685D01*
X689332Y946547D01*
X680769Y950094D01*
X671580Y951304D01*
X662391Y950094D01*
X653828Y946547D01*
X646475Y940905D01*
X631685D01*
X624332Y946547D01*
X615769Y950094D01*
X606580Y951304D01*
X597391Y950094D01*
X588828Y946547D01*
X581475Y940905D01*
X575833Y933552D01*
X572286Y924989D01*
X571076Y915800D01*
Y820800D01*
X572286Y811611D01*
X575833Y803048D01*
X581475Y795695D01*
X588828Y790053D01*
X597391Y786506D01*
X606580Y785296D01*
X615769Y786506D01*
X624332Y790053D01*
X631685Y795695D01*
X636183D01*
X649778Y782565D01*
X649892Y763505D01*
X611168Y724781D01*
X499401D01*
X491968Y723303D01*
X485667Y719093D01*
X411082Y644508D01*
X313632D01*
X313630Y644508D01*
X306198Y643029D01*
X299896Y638819D01*
X232249Y571172D01*
X228038Y564871D01*
X226560Y557438D01*
Y199208D01*
X228038Y191775D01*
X232249Y185474D01*
X313090Y104633D01*
X313090Y104633D01*
X319392Y100422D01*
X326825Y98944D01*
X507306D01*
X514739Y100422D01*
X521040Y104633D01*
X590473Y174065D01*
X601137Y168365D01*
X617197Y163493D01*
X633899Y161848D01*
X638899D01*
X655601Y163493D01*
X671662Y168365D01*
X686463Y176276D01*
X699436Y186923D01*
X710083Y199896D01*
X717995Y214698D01*
X722866Y230758D01*
X724511Y247460D01*
X722866Y264162D01*
X717995Y280222D01*
X710083Y295024D01*
X699436Y307997D01*
X686463Y318644D01*
X671662Y326555D01*
X655601Y331427D01*
X638899Y333072D01*
X633899D01*
X617197Y331427D01*
X601137Y326555D01*
X586336Y318644D01*
X573362Y307997D01*
X562715Y295024D01*
X554804Y280222D01*
X549932Y264162D01*
X548287Y247460D01*
X549932Y230758D01*
X554804Y214698D01*
X562246Y200775D01*
X499261Y137790D01*
X334870D01*
X265406Y207254D01*
Y549392D01*
X321676Y605662D01*
X419127D01*
X426560Y607140D01*
X432862Y611351D01*
X507446Y685935D01*
X619213D01*
X626646Y687414D01*
X632948Y691624D01*
X685314Y743990D01*
X685314Y743991D01*
X689525Y750292D01*
X691003Y757725D01*
X691003Y757726D01*
Y780808D01*
X708783Y788355D01*
X717157Y780268D01*
Y729632D01*
X699746Y712221D01*
X695536Y705920D01*
X694057Y698487D01*
Y683079D01*
X674610Y663632D01*
X577317D01*
X577316Y663632D01*
X569883Y662153D01*
X563582Y657943D01*
X563581Y657942D01*
X494266Y588627D01*
X490055Y582326D01*
X488577Y574893D01*
Y381106D01*
X428326Y320855D01*
X417662Y326555D01*
X401601Y331427D01*
X384899Y333072D01*
X379899D01*
X363197Y331427D01*
X347137Y326555D01*
X332336Y318644D01*
X319362Y307997D01*
X308715Y295024D01*
X300804Y280222D01*
X295932Y264162D01*
X294287Y247460D01*
X295932Y230758D01*
X300804Y214698D01*
X308715Y199896D01*
X319362Y186923D01*
X332336Y176276D01*
X347137Y168365D01*
X363197Y163493D01*
X379899Y161848D01*
X384899D01*
X401601Y163493D01*
X417662Y168365D01*
X432463Y176276D01*
X445436Y186923D01*
X456083Y199896D01*
X463994Y214698D01*
X468866Y230758D01*
X470511Y247460D01*
X468866Y264162D01*
X463994Y280222D01*
X456553Y294145D01*
X521734Y359326D01*
X521734Y359326D01*
X525945Y365628D01*
X527423Y373060D01*
Y566847D01*
X585361Y624785D01*
X682655D01*
X690088Y626264D01*
X696390Y630474D01*
X727214Y661299D01*
X731425Y667600D01*
X732903Y675033D01*
Y690441D01*
X750314Y707852D01*
X754525Y714154D01*
X756003Y721587D01*
Y780808D01*
X773783Y788355D01*
X782157Y780268D01*
Y665516D01*
X750806Y634165D01*
X746595Y627864D01*
X745117Y620431D01*
Y172312D01*
X746595Y164879D01*
X750806Y158578D01*
X799535Y109849D01*
X805836Y105638D01*
X813269Y104160D01*
X1272022D01*
X1279455Y105638D01*
X1285756Y109849D01*
X1338221Y162313D01*
X1341524Y161656D01*
X1455274D01*
X1467302Y164048D01*
X1477498Y170861D01*
X1484311Y181058D01*
X1486703Y193085D01*
Y301835D01*
X1484311Y313862D01*
X1477498Y324059D01*
X1467302Y330872D01*
X1455274Y333264D01*
X1341524D01*
X1329497Y330872D01*
X1319301Y324059D01*
X1312488Y313862D01*
X1310095Y301835D01*
Y193085D01*
X1310753Y189782D01*
X1263977Y143006D01*
X821314D01*
X783963Y180357D01*
Y612386D01*
X815314Y643736D01*
X815314Y643737D01*
X819525Y650038D01*
X821003Y657471D01*
X821003Y657472D01*
Y791335D01*
X826685Y795695D01*
X841475D01*
X848828Y790053D01*
X857391Y786506D01*
X866580Y785296D01*
X875769Y786506D01*
X884332Y790053D01*
X891685Y795695D01*
X906475D01*
X913828Y790053D01*
X922391Y786506D01*
X931580Y785296D01*
X940769Y786506D01*
X949332Y790053D01*
X956685Y795695D01*
X971475D01*
X978828Y790053D01*
X987391Y786506D01*
X990230Y786132D01*
Y868300D01*
Y950468D01*
X987391Y950094D01*
X978828Y946547D01*
X971475Y940905D01*
X966977D01*
X951003Y956332D01*
Y983581D01*
X949525Y991014D01*
X945314Y997315D01*
X735685Y1206944D01*
X729384Y1211154D01*
X721951Y1212633D01*
X417480D01*
Y1267610D01*
X416164Y1274224D01*
X412418Y1279831D01*
X406811Y1283577D01*
X400198Y1284892D01*
X381371D01*
Y1303473D01*
X400198D01*
X406811Y1304788D01*
X412418Y1308534D01*
X416164Y1314141D01*
X417479Y1320755D01*
Y1397255D01*
X416164Y1403868D01*
X412418Y1409475D01*
X406811Y1413221D01*
X400198Y1414537D01*
D02*
G37*
G36*
X2891647Y1014730D02*
X2810510D01*
Y935847D01*
X2823362Y937113D01*
X2839422Y941985D01*
X2854223Y949896D01*
X2867197Y960543D01*
X2877844Y973516D01*
X2885755Y988318D01*
X2890627Y1004378D01*
X2891647Y1014730D01*
D02*
G37*
G36*
X2797810D02*
X2716673D01*
X2717693Y1004378D01*
X2722565Y988318D01*
X2730476Y973516D01*
X2741123Y960543D01*
X2754097Y949896D01*
X2768898Y941985D01*
X2784958Y937113D01*
X2797810Y935847D01*
Y1014730D01*
D02*
G37*
G36*
X525432Y953422D02*
X476250D01*
Y904240D01*
X508150D01*
X514764Y905555D01*
X520370Y909301D01*
X524117Y914908D01*
X525432Y921522D01*
Y953422D01*
D02*
G37*
G36*
X463550D02*
X414368D01*
Y921522D01*
X415683Y914908D01*
X419430Y909301D01*
X425036Y905555D01*
X431650Y904240D01*
X463550D01*
Y953422D01*
D02*
G37*
G36*
X343198Y924045D02*
X338298D01*
Y889922D01*
X357421D01*
Y909822D01*
X356338Y915265D01*
X353255Y919879D01*
X348641Y922962D01*
X343198Y924045D01*
D02*
G37*
G36*
X357421Y877222D02*
X338298D01*
Y843099D01*
X343198D01*
X348641Y844181D01*
X353255Y847264D01*
X356338Y851879D01*
X357421Y857322D01*
Y877222D01*
D02*
G37*
G36*
X1811970Y875373D02*
X1777570D01*
Y826191D01*
X1829252D01*
Y858091D01*
X1827937Y864704D01*
X1824191Y870311D01*
X1818584Y874057D01*
X1811970Y875373D01*
D02*
G37*
G36*
X1764870D02*
X1730471D01*
X1723857Y874057D01*
X1718250Y870311D01*
X1714504Y864704D01*
X1713189Y858091D01*
Y826191D01*
X1764870D01*
Y875373D01*
D02*
G37*
G36*
X5284959Y1129882D02*
X5208459D01*
X5201846Y1128567D01*
X5196239Y1124820D01*
X5192493Y1119214D01*
X5191177Y1112600D01*
Y1036100D01*
X5191342Y1035273D01*
Y991946D01*
X5146098Y946703D01*
X5079666D01*
X5079094Y946589D01*
X4916566D01*
X4911396Y945560D01*
X4907013Y942632D01*
X4904085Y938249D01*
X4903056Y933079D01*
Y824179D01*
X4904085Y819010D01*
X4907013Y814627D01*
X4911396Y811698D01*
X4916566Y810670D01*
X5145466D01*
X5150636Y811698D01*
X5155019Y814627D01*
X5157947Y819010D01*
X5158976Y824179D01*
Y908818D01*
X5161576Y909335D01*
X5167878Y913545D01*
X5224499Y970166D01*
X5224499Y970167D01*
X5228710Y976468D01*
X5230188Y983901D01*
Y1018818D01*
X5284959D01*
X5291573Y1020134D01*
X5297180Y1023880D01*
X5300926Y1029487D01*
X5302241Y1036100D01*
Y1112600D01*
X5300926Y1119214D01*
X5297180Y1124820D01*
X5291573Y1128567D01*
X5284959Y1129882D01*
D02*
G37*
G36*
X2806660Y1360692D02*
X2801660D01*
X2784958Y1359047D01*
X2768898Y1354175D01*
X2754097Y1346264D01*
X2741123Y1335617D01*
X2730476Y1322644D01*
X2722565Y1307842D01*
X2717693Y1291782D01*
X2716048Y1275080D01*
X2717693Y1258378D01*
X2722565Y1242318D01*
X2730476Y1227516D01*
X2741123Y1214543D01*
X2754097Y1203896D01*
X2768898Y1195985D01*
X2784958Y1191113D01*
X2801660Y1189468D01*
X2806660D01*
X2823362Y1191113D01*
X2839422Y1195985D01*
X2854223Y1203896D01*
X2867197Y1214543D01*
X2877844Y1227516D01*
X2885755Y1242318D01*
X2889802Y1255656D01*
X2907176D01*
X2912552Y1250281D01*
Y1198065D01*
X2914030Y1190632D01*
X2918241Y1184331D01*
X2968053Y1134518D01*
X2974355Y1130308D01*
X2981788Y1128829D01*
X2981789Y1128829D01*
X3102109D01*
X3317393Y913545D01*
X3323694Y909335D01*
X3331127Y907856D01*
X3363496D01*
Y824179D01*
X3364525Y819010D01*
X3367453Y814627D01*
X3371836Y811698D01*
X3377006Y810670D01*
X3605906D01*
X3611076Y811698D01*
X3615459Y814627D01*
X3618387Y819010D01*
X3619416Y824179D01*
Y933079D01*
X3618387Y938249D01*
X3615459Y942632D01*
X3611076Y945560D01*
X3605906Y946589D01*
X3443378D01*
X3442806Y946703D01*
X3339172D01*
X3123888Y1161987D01*
X3117587Y1166197D01*
X3110154Y1167676D01*
X2989833D01*
X2951398Y1206111D01*
Y1258326D01*
X2949919Y1265759D01*
X2945709Y1272061D01*
X2928956Y1288814D01*
X2922655Y1293024D01*
X2915222Y1294503D01*
X2889802D01*
X2885755Y1307842D01*
X2877844Y1322644D01*
X2867197Y1335617D01*
X2854223Y1346264D01*
X2839422Y1354175D01*
X2823362Y1359047D01*
X2806660Y1360692D01*
D02*
G37*
G36*
X1829252Y813491D02*
X1777570D01*
Y764309D01*
X1811970D01*
X1818584Y765624D01*
X1824191Y769370D01*
X1827937Y774977D01*
X1829252Y781591D01*
Y813491D01*
D02*
G37*
G36*
X1764870D02*
X1713189D01*
Y781591D01*
X1714504Y774977D01*
X1718250Y769370D01*
X1723857Y765624D01*
X1730471Y764309D01*
X1764870D01*
Y813491D01*
D02*
G37*
G36*
X1966064Y1335665D02*
X1956222Y1334369D01*
X1947051Y1330570D01*
X1939176Y1324527D01*
X1933133Y1316652D01*
X1929334Y1307481D01*
X1928038Y1297639D01*
X1929334Y1287798D01*
X1933133Y1278627D01*
X1939176Y1270751D01*
X1947051Y1264708D01*
X1956222Y1260910D01*
X1966064Y1259614D01*
X1975905Y1260910D01*
X1985076Y1264708D01*
X1992952Y1270751D01*
X1998680Y1278216D01*
X2089726D01*
X2188025Y1179917D01*
X2194326Y1175707D01*
X2201759Y1174229D01*
X2268229D01*
X2307500Y1134958D01*
Y891993D01*
X2290920Y875414D01*
X2261450D01*
X2261120Y875348D01*
X2210800D01*
X2204674Y874130D01*
X2199481Y870659D01*
X2196011Y865466D01*
X2194792Y859340D01*
Y760340D01*
X2196011Y754215D01*
X2199481Y749021D01*
X2204674Y745551D01*
X2210800Y744333D01*
X2264800D01*
X2270926Y745551D01*
X2276119Y749021D01*
X2279589Y754215D01*
X2280807Y760340D01*
Y836567D01*
X2298965D01*
X2306398Y838046D01*
X2312700Y842256D01*
X2340657Y870214D01*
X2344868Y876515D01*
X2346346Y883948D01*
Y1143003D01*
X2344868Y1150436D01*
X2340657Y1156737D01*
X2290009Y1207386D01*
X2283707Y1211596D01*
X2276274Y1213075D01*
X2209805D01*
X2111505Y1311374D01*
X2105204Y1315584D01*
X2097771Y1317063D01*
X2097768Y1317062D01*
X1998680D01*
X1992952Y1324527D01*
X1985076Y1330570D01*
X1975905Y1334369D01*
X1966064Y1335665D01*
D02*
G37*
G36*
X1064630Y733085D02*
X1030230D01*
Y683903D01*
X1081911D01*
Y715803D01*
X1080596Y722416D01*
X1076850Y728023D01*
X1071243Y731769D01*
X1064630Y733085D01*
D02*
G37*
G36*
X1017530D02*
X983130D01*
X976516Y731769D01*
X970909Y728023D01*
X967163Y722416D01*
X965848Y715803D01*
Y683903D01*
X1017530D01*
Y733085D01*
D02*
G37*
G36*
X1081911Y671203D02*
X1030230D01*
Y622021D01*
X1064630D01*
X1071243Y623336D01*
X1076850Y627082D01*
X1080596Y632689D01*
X1081911Y639303D01*
Y671203D01*
D02*
G37*
G36*
X1017530D02*
X965848D01*
Y639303D01*
X967163Y632689D01*
X970909Y627082D01*
X976516Y623336D01*
X983130Y622021D01*
X1017530D01*
Y671203D01*
D02*
G37*
G36*
X2661985Y778433D02*
X2469243D01*
X2461810Y776955D01*
X2455508Y772744D01*
X2420176Y737412D01*
X2415966Y731111D01*
X2414487Y723678D01*
Y623392D01*
X2359510D01*
X2352897Y622077D01*
X2347290Y618331D01*
X2343544Y612724D01*
X2342228Y606111D01*
Y529610D01*
X2343544Y522997D01*
X2347290Y517390D01*
X2352897Y513644D01*
X2359510Y512328D01*
X2436011D01*
X2442624Y513644D01*
X2448231Y517390D01*
X2451977Y522997D01*
X2453293Y529610D01*
Y603804D01*
X2453334Y604010D01*
Y715633D01*
X2477288Y739587D01*
X2653940D01*
X2706187Y687340D01*
Y639490D01*
X2706257Y639135D01*
Y576090D01*
X2707457Y570062D01*
X2710871Y564951D01*
X2715982Y561537D01*
X2722010Y560337D01*
X2771510D01*
X2777538Y561537D01*
X2782649Y564951D01*
X2786064Y570062D01*
X2787263Y576090D01*
Y660590D01*
X2786064Y666618D01*
X2782649Y671729D01*
X2777538Y675144D01*
X2771510Y676343D01*
X2745033D01*
Y695385D01*
X2743555Y702818D01*
X2739344Y709119D01*
X2675719Y772744D01*
X2669418Y776955D01*
X2661985Y778433D01*
D02*
G37*
G36*
X642749Y586693D02*
Y507810D01*
X723886D01*
X722866Y518162D01*
X717995Y534222D01*
X710083Y549024D01*
X699436Y561997D01*
X686463Y572644D01*
X671662Y580555D01*
X655601Y585427D01*
X642749Y586693D01*
D02*
G37*
G36*
X630049D02*
X617197Y585427D01*
X601137Y580555D01*
X586336Y572644D01*
X573362Y561997D01*
X562715Y549024D01*
X554804Y534222D01*
X549932Y518162D01*
X548913Y507810D01*
X630049D01*
Y586693D01*
D02*
G37*
G36*
X1936851Y503353D02*
X1904950D01*
Y451671D01*
X1954132D01*
Y486071D01*
X1952817Y492684D01*
X1949071Y498291D01*
X1943464Y502037D01*
X1936851Y503353D01*
D02*
G37*
G36*
X1892250D02*
X1860350D01*
X1853737Y502037D01*
X1848130Y498291D01*
X1844384Y492684D01*
X1843068Y486071D01*
Y451671D01*
X1892250D01*
Y503353D01*
D02*
G37*
G36*
X723886Y495110D02*
X642749D01*
Y416227D01*
X655601Y417493D01*
X671662Y422365D01*
X686463Y430276D01*
X699436Y440923D01*
X710083Y453896D01*
X717995Y468698D01*
X722866Y484758D01*
X723886Y495110D01*
D02*
G37*
G36*
X630049D02*
X548913D01*
X549932Y484758D01*
X554804Y468698D01*
X562715Y453896D01*
X573362Y440923D01*
X586336Y430276D01*
X601137Y422365D01*
X617197Y417493D01*
X630049Y416227D01*
Y495110D01*
D02*
G37*
G36*
X890399Y770785D02*
X880558Y769489D01*
X871387Y765690D01*
X863511Y759647D01*
X857468Y751772D01*
X853670Y742601D01*
X852374Y732760D01*
X853670Y722918D01*
X857468Y713747D01*
X863511Y705872D01*
X870976Y700144D01*
Y585360D01*
X855137Y580555D01*
X840336Y572644D01*
X827362Y561997D01*
X816715Y549024D01*
X808804Y534222D01*
X803932Y518162D01*
X802287Y501460D01*
X803932Y484758D01*
X808804Y468698D01*
X816715Y453896D01*
X827362Y440923D01*
X840336Y430276D01*
X855137Y422365D01*
X871197Y417493D01*
X887899Y415848D01*
X892899D01*
X909601Y417493D01*
X925662Y422365D01*
X940463Y430276D01*
X953436Y440923D01*
X964083Y453896D01*
X971994Y468698D01*
X976866Y484758D01*
X978511Y501460D01*
X976866Y518162D01*
X971994Y534222D01*
X964083Y549024D01*
X953436Y561997D01*
X940463Y572644D01*
X925662Y580555D01*
X909822Y585360D01*
Y700144D01*
X917287Y705872D01*
X923330Y713747D01*
X927129Y722918D01*
X928425Y732760D01*
X927129Y742601D01*
X923330Y751772D01*
X917287Y759647D01*
X909412Y765690D01*
X900241Y769489D01*
X890399Y770785D01*
D02*
G37*
G36*
X384899Y587072D02*
X379899D01*
X363197Y585427D01*
X347137Y580555D01*
X332336Y572644D01*
X319362Y561997D01*
X308715Y549024D01*
X300804Y534222D01*
X295932Y518162D01*
X294287Y501460D01*
X295932Y484758D01*
X300804Y468698D01*
X308715Y453896D01*
X319362Y440923D01*
X332336Y430276D01*
X347137Y422365D01*
X363197Y417493D01*
X379899Y415848D01*
X384899D01*
X401601Y417493D01*
X417662Y422365D01*
X432463Y430276D01*
X445436Y440923D01*
X456083Y453896D01*
X463994Y468698D01*
X468866Y484758D01*
X470511Y501460D01*
X468866Y518162D01*
X463994Y534222D01*
X456083Y549024D01*
X445436Y561997D01*
X432463Y572644D01*
X417662Y580555D01*
X401601Y585427D01*
X384899Y587072D01*
D02*
G37*
G36*
X1954132Y438971D02*
X1904950D01*
Y387289D01*
X1936851D01*
X1943464Y388604D01*
X1949071Y392350D01*
X1952817Y397957D01*
X1954132Y404571D01*
Y438971D01*
D02*
G37*
G36*
X1892250D02*
X1843068D01*
Y404571D01*
X1844384Y397957D01*
X1848130Y392350D01*
X1853737Y388604D01*
X1860350Y387289D01*
X1892250D01*
Y438971D01*
D02*
G37*
G36*
X896749Y332693D02*
Y253810D01*
X977886D01*
X976866Y264162D01*
X971994Y280222D01*
X964083Y295024D01*
X953436Y307997D01*
X940463Y318644D01*
X925662Y326555D01*
X909601Y331427D01*
X896749Y332693D01*
D02*
G37*
G36*
X884049D02*
X871197Y331427D01*
X855137Y326555D01*
X840336Y318644D01*
X827362Y307997D01*
X816715Y295024D01*
X808804Y280222D01*
X803932Y264162D01*
X802913Y253810D01*
X884049D01*
Y332693D01*
D02*
G37*
G36*
X2013430Y273972D02*
X1979030D01*
Y224790D01*
X2030712D01*
Y256690D01*
X2029397Y263304D01*
X2025651Y268910D01*
X2020044Y272657D01*
X2013430Y273972D01*
D02*
G37*
G36*
X1966330D02*
X1931930D01*
X1925317Y272657D01*
X1919710Y268910D01*
X1915964Y263304D01*
X1914648Y256690D01*
Y224790D01*
X1966330D01*
Y273972D01*
D02*
G37*
G36*
X2030712Y212090D02*
X1979030D01*
Y162908D01*
X2013430D01*
X2020044Y164223D01*
X2025651Y167970D01*
X2029397Y173576D01*
X2030712Y180190D01*
Y212090D01*
D02*
G37*
G36*
X1966330D02*
X1914648D01*
Y180190D01*
X1915964Y173576D01*
X1919710Y167970D01*
X1925317Y164223D01*
X1931930Y162908D01*
X1966330D01*
Y212090D01*
D02*
G37*
G36*
X977886Y241110D02*
X896749D01*
Y162227D01*
X909601Y163493D01*
X925662Y168365D01*
X940463Y176276D01*
X953436Y186923D01*
X964083Y199896D01*
X971994Y214698D01*
X976866Y230758D01*
X977886Y241110D01*
D02*
G37*
G36*
X884049D02*
X802913D01*
X803932Y230758D01*
X808804Y214698D01*
X816715Y199896D01*
X827362Y186923D01*
X840336Y176276D01*
X855137Y168365D01*
X871197Y163493D01*
X884049Y162227D01*
Y241110D01*
D02*
G37*
G36*
X1146899Y587072D02*
X1141899D01*
X1125197Y585427D01*
X1109137Y580555D01*
X1094336Y572644D01*
X1081362Y561997D01*
X1070715Y549024D01*
X1062804Y534222D01*
X1057932Y518162D01*
X1056287Y501460D01*
X1057932Y484758D01*
X1062804Y468698D01*
X1070715Y453896D01*
X1081362Y440923D01*
X1094336Y430276D01*
X1109137Y422365D01*
X1124976Y417560D01*
Y331360D01*
X1109137Y326555D01*
X1094336Y318644D01*
X1081362Y307997D01*
X1070715Y295024D01*
X1062804Y280222D01*
X1057932Y264162D01*
X1056287Y247460D01*
X1057932Y230758D01*
X1062804Y214698D01*
X1070715Y199896D01*
X1081362Y186923D01*
X1094336Y176276D01*
X1109137Y168365D01*
X1125197Y163493D01*
X1141899Y161848D01*
X1146899D01*
X1163601Y163493D01*
X1179662Y168365D01*
X1194463Y176276D01*
X1207436Y186923D01*
X1218083Y199896D01*
X1225995Y214698D01*
X1230866Y230758D01*
X1232511Y247460D01*
X1230866Y264162D01*
X1225995Y280222D01*
X1218083Y295024D01*
X1207436Y307997D01*
X1194463Y318644D01*
X1179662Y326555D01*
X1163822Y331360D01*
Y355037D01*
X1517460D01*
X1524893Y356516D01*
X1531195Y360726D01*
X1624094Y453625D01*
X1624094Y453626D01*
X1628305Y459927D01*
X1629783Y467360D01*
Y499634D01*
X1637248Y505362D01*
X1643291Y513237D01*
X1647090Y522408D01*
X1648385Y532250D01*
X1647090Y542092D01*
X1643291Y551263D01*
X1637248Y559138D01*
X1629373Y565181D01*
X1620202Y568980D01*
X1610360Y570275D01*
X1600518Y568980D01*
X1591347Y565181D01*
X1583472Y559138D01*
X1577429Y551263D01*
X1573630Y542092D01*
X1572335Y532250D01*
X1573630Y522408D01*
X1577429Y513237D01*
X1583472Y505362D01*
X1590937Y499634D01*
Y475405D01*
X1509415Y393883D01*
X1163822D01*
Y417560D01*
X1179662Y422365D01*
X1194463Y430276D01*
X1207436Y440923D01*
X1218083Y453896D01*
X1225995Y468698D01*
X1230866Y484758D01*
X1232511Y501460D01*
X1230866Y518162D01*
X1225995Y534222D01*
X1218083Y549024D01*
X1207436Y561997D01*
X1194463Y572644D01*
X1179662Y580555D01*
X1163601Y585427D01*
X1146899Y587072D01*
D02*
G37*
G36*
X2676510Y446343D02*
X2627010D01*
X2620982Y445144D01*
X2615871Y441729D01*
X2612457Y436618D01*
X2611257Y430590D01*
Y346090D01*
X2612457Y340062D01*
X2615871Y334951D01*
X2620982Y331537D01*
X2623273Y331081D01*
Y313042D01*
X2594610D01*
X2582222Y310578D01*
X2571720Y303560D01*
X2564702Y293058D01*
X2562238Y280670D01*
Y166370D01*
X2564702Y153982D01*
X2571720Y143480D01*
X2582222Y136462D01*
X2594610Y133998D01*
X2708910D01*
X2721299Y136462D01*
X2731801Y143480D01*
X2738818Y153982D01*
X2741282Y166370D01*
Y280670D01*
X2738818Y293058D01*
X2731801Y303560D01*
X2721299Y310578D01*
X2708910Y313042D01*
X2680247D01*
Y331081D01*
X2682538Y331537D01*
X2687649Y334951D01*
X2691063Y340062D01*
X2692263Y346090D01*
Y430590D01*
X2691063Y436618D01*
X2687649Y441729D01*
X2682538Y445144D01*
X2676510Y446343D01*
D02*
G37*
%LPD*%
G36*
X1442855Y1687797D02*
X1434768Y1679423D01*
X1348816D01*
X1341383Y1677945D01*
X1335081Y1673734D01*
X1196945Y1535597D01*
X1191580Y1536304D01*
X1182391Y1535094D01*
X1173828Y1531547D01*
X1166475Y1525905D01*
X1161977D01*
X1146003Y1541332D01*
Y1588127D01*
X1153468Y1593855D01*
X1159511Y1601730D01*
X1163310Y1610901D01*
X1164605Y1620743D01*
X1163310Y1630584D01*
X1159511Y1639755D01*
X1153468Y1647631D01*
X1145593Y1653674D01*
X1136422Y1657472D01*
X1126580Y1658768D01*
X1116738Y1657472D01*
X1107567Y1653674D01*
X1099692Y1647631D01*
X1093649Y1639755D01*
X1089850Y1630584D01*
X1088555Y1620743D01*
X1089850Y1610901D01*
X1093649Y1601730D01*
X1099692Y1593855D01*
X1107157Y1588127D01*
Y1530265D01*
X1101475Y1525905D01*
X1086685D01*
X1079332Y1531547D01*
X1070769Y1535094D01*
X1061580Y1536304D01*
X1052391Y1535094D01*
X1043927Y1531588D01*
X1042428Y1532304D01*
X1036551Y1535480D01*
X1034628Y1552350D01*
X1043281Y1561003D01*
X1047491Y1567304D01*
X1048970Y1574737D01*
Y1588127D01*
X1056435Y1593855D01*
X1062478Y1601730D01*
X1066277Y1610901D01*
X1067572Y1620743D01*
X1066277Y1630584D01*
X1062478Y1639755D01*
X1056435Y1647631D01*
X1048559Y1653674D01*
X1039389Y1657472D01*
X1029547Y1658768D01*
X1019705Y1657472D01*
X1010534Y1653674D01*
X1002659Y1647631D01*
X996616Y1639755D01*
X992817Y1630584D01*
X991522Y1620743D01*
X992817Y1610901D01*
X996616Y1601730D01*
X1002659Y1593855D01*
X1000926Y1573585D01*
X984089Y1556748D01*
X979879Y1550447D01*
X978400Y1543014D01*
Y1539592D01*
X960620Y1532044D01*
X951003Y1541332D01*
Y1641479D01*
X1015101Y1705577D01*
X1435308D01*
X1442855Y1687797D01*
D02*
G37*
G36*
Y1817797D02*
X1434768Y1809423D01*
X946484D01*
X939051Y1807945D01*
X932749Y1803734D01*
X852846Y1723830D01*
X848635Y1717529D01*
X847157Y1710096D01*
Y1540792D01*
X829377Y1533245D01*
X821003Y1541332D01*
Y1762492D01*
X894087Y1835577D01*
X1435308D01*
X1442855Y1817797D01*
D02*
G37*
G36*
X1442855Y1752797D02*
X1434768Y1744423D01*
X1007055D01*
X999622Y1742944D01*
X993321Y1738734D01*
X917846Y1663259D01*
X913635Y1656958D01*
X912157Y1649525D01*
Y1540792D01*
X894377Y1533245D01*
X886003Y1541332D01*
Y1702051D01*
X954529Y1770577D01*
X1435308D01*
X1442855Y1752797D01*
D02*
G37*
G36*
X2036159Y535321D02*
X1898600Y535320D01*
X1898598Y862340D01*
X2036158Y862340D01*
X2036159Y535321D01*
D02*
G37*
D10*
X1366520Y2025857D02*
D03*
X1236520D02*
D03*
X5376709Y1074350D02*
D03*
X5246709D02*
D03*
X5376709Y1277409D02*
D03*
X5246709D02*
D03*
X231948Y1229360D02*
D03*
X361948D02*
D03*
X191540Y723900D02*
D03*
X321540D02*
D03*
X361947Y1359005D02*
D03*
X231947D02*
D03*
X3140303Y1934099D02*
D03*
X3010303D02*
D03*
D11*
X1673860Y129540D02*
D03*
X1585476Y1130150D02*
D03*
X2840787Y766400D02*
D03*
D12*
X1191580Y1453300D02*
D03*
X1126580D02*
D03*
X1061580D02*
D03*
X996580D02*
D03*
X931580D02*
D03*
X866580D02*
D03*
X801580D02*
D03*
X736580D02*
D03*
X671580D02*
D03*
X606580D02*
D03*
X1191580Y868300D02*
D03*
X1126580D02*
D03*
X1061580D02*
D03*
X996580D02*
D03*
X931580D02*
D03*
X866580D02*
D03*
X801580D02*
D03*
X736580D02*
D03*
X671580D02*
D03*
X606580D02*
D03*
D13*
X1522800Y1985000D02*
D03*
Y1920000D02*
D03*
Y1855000D02*
D03*
Y1790000D02*
D03*
Y1725000D02*
D03*
Y1660000D02*
D03*
Y1595000D02*
D03*
X2112800Y1985000D02*
D03*
Y1920000D02*
D03*
Y1855000D02*
D03*
Y1790000D02*
D03*
Y1725000D02*
D03*
Y1660000D02*
D03*
Y1595000D02*
D03*
D14*
X2651760Y388340D02*
D03*
X2556760Y618340D02*
D03*
X2746760D02*
D03*
X2127800Y350321D02*
D03*
X2032800Y580321D02*
D03*
X2222800D02*
D03*
D15*
X1331300Y967500D02*
D03*
Y817500D02*
D03*
X5288280Y1831480D02*
D03*
Y1681480D02*
D03*
D16*
X5031016Y878629D02*
D03*
Y2074969D02*
D03*
X3488916Y2278169D02*
D03*
X5031016Y1076749D02*
D03*
Y1277409D02*
D03*
Y1475529D02*
D03*
Y1678729D02*
D03*
Y1876849D02*
D03*
Y2275629D02*
D03*
X3488916Y2077509D02*
D03*
Y1879389D02*
D03*
X3491456Y1678729D02*
D03*
Y1478069D02*
D03*
Y1279949D02*
D03*
Y1076749D02*
D03*
Y878629D02*
D03*
D17*
X4761616Y2473909D02*
D03*
X4563496D02*
D03*
X4365376D02*
D03*
X4162176D02*
D03*
X3964056D02*
D03*
X3760856D02*
D03*
D18*
X2397761Y437860D02*
D03*
Y567860D02*
D03*
X1331300Y1274675D02*
D03*
Y1144675D02*
D03*
X3058160Y864060D02*
D03*
Y734060D02*
D03*
X401320Y1924280D02*
D03*
Y1794280D02*
D03*
X573440Y1924280D02*
D03*
Y1794280D02*
D03*
X1480820Y967500D02*
D03*
Y837500D02*
D03*
X469900Y1089772D02*
D03*
Y959772D02*
D03*
X2430780Y1625600D02*
D03*
Y1495600D02*
D03*
X5288280Y1963420D02*
D03*
Y2093420D02*
D03*
D19*
X1158880Y677553D02*
D03*
X1023880D02*
D03*
X2107680Y218440D02*
D03*
X1972680D02*
D03*
X1906220Y819841D02*
D03*
X1771220D02*
D03*
X1906220Y1079840D02*
D03*
X1771220D02*
D03*
X5246709Y2275737D02*
D03*
X5381709D02*
D03*
X2114050Y1457960D02*
D03*
X2249050D02*
D03*
X3259700Y2669540D02*
D03*
X3124700D02*
D03*
X1522800Y1457960D02*
D03*
X1387800D02*
D03*
D20*
X1898600Y580321D02*
D03*
Y445321D02*
D03*
D21*
X1420000Y2175000D02*
D03*
X580000D02*
D03*
X1420000Y2625000D02*
D03*
X580000D02*
D03*
D22*
X2047800Y809840D02*
D03*
X2142800D02*
D03*
X2237800D02*
D03*
Y1079840D02*
D03*
X2047800D02*
D03*
D23*
X331948Y1028572D02*
D03*
X281948D02*
D03*
X231948D02*
D03*
Y883572D02*
D03*
X281948D02*
D03*
X331948D02*
D03*
D24*
X329234Y2041829D02*
X365170Y2005893D01*
Y1960430D02*
Y2005893D01*
X329234Y2041829D02*
Y2335052D01*
X537290Y1960430D02*
Y1989964D01*
X408894Y2118360D02*
Y2267579D01*
Y2118360D02*
X537290Y1989964D01*
X437470Y1727817D02*
Y1758130D01*
X606580Y1453300D02*
Y1558707D01*
X437470Y1727817D02*
X606580Y1558707D01*
Y1453300D02*
X606580Y1453300D01*
X401320Y1794280D02*
X437470Y1758130D01*
X609590Y1693554D02*
Y1758130D01*
X671580Y1453300D02*
Y1631564D01*
X609590Y1693554D02*
X671580Y1631564D01*
X573440Y1794280D02*
X609590Y1758130D01*
X365170Y1960430D02*
X401320Y1924280D01*
X537290Y1960430D02*
X573440Y1924280D01*
X1191580Y1502764D02*
X1348816Y1660000D01*
X1522800D01*
X1518093Y1989706D02*
X1522800Y1985000D01*
X1402670Y1989706D02*
X1518093D01*
X1366520Y2025857D02*
X1402670Y1989706D01*
X1126580Y1931626D02*
X1308863D01*
X1330370Y1953134D01*
Y1984626D02*
X1366520Y2020777D01*
X1330370Y1953134D02*
Y1984626D01*
X931580Y1453300D02*
Y1649525D01*
X1007055Y1725000D01*
X1522800D01*
X997824Y1454544D02*
Y1543014D01*
X1029547Y1574737D02*
Y1620743D01*
X997824Y1543014D02*
X1029547Y1574737D01*
X3269078Y2028859D02*
X3440266D01*
X3176453Y1970249D02*
X3210468D01*
X3269078Y2028859D01*
X3140303Y1934099D02*
X3176453Y1970249D01*
X2466930Y1734299D02*
X2620967Y1888335D01*
X2788234D02*
X2918890Y1757680D01*
X2620967Y1888335D02*
X2788234D01*
X2289649Y1660000D02*
X2591310Y1961661D01*
X2812514D01*
X2939434Y1834741D01*
X2394630Y1374847D02*
Y1459450D01*
X2295511Y1275728D02*
X2394630Y1374847D01*
Y1459450D02*
X2430780Y1495600D01*
X2466930Y1661750D02*
Y1734299D01*
X2430780Y1625600D02*
X2466930Y1661750D01*
X1126580Y1453300D02*
Y1620743D01*
X580000Y2175000D02*
X1029547D01*
X1420000D01*
X1029547Y1931626D02*
Y2175000D01*
X1191580Y1453300D02*
Y1502764D01*
X445663Y2451481D02*
X1994281D01*
X2172019Y2629219D02*
X2622481D01*
X1994281Y2451481D02*
X2172019Y2629219D01*
X866580Y1710096D02*
X946484Y1790000D01*
X866580Y1453300D02*
Y1710096D01*
X946484Y1790000D02*
X1522800D01*
X801580Y1453300D02*
Y1770538D01*
X886042Y1855000D02*
X1522800D01*
X801580Y1770538D02*
X886042Y1855000D01*
X1354264Y1297639D02*
X1689589D01*
X1331300Y1274675D02*
X1354264Y1297639D01*
X2097771Y1297640D02*
X2201759Y1193652D01*
X2276274D01*
X1308336Y1297639D02*
X1331300Y1274675D01*
X1098271Y1297639D02*
X1308336D01*
X1061580Y1334330D02*
X1098271Y1297639D01*
X1061580Y1334330D02*
Y1453300D01*
X1872182Y90216D02*
X2014820D01*
X1832859Y129540D02*
X1872182Y90216D01*
X2014820D02*
X2069030Y144426D01*
X278494Y60532D02*
X1442407D01*
X1511416Y129540D01*
X1673860D01*
X1832859D01*
X156845Y182181D02*
X278494Y60532D01*
X2606109Y1367036D02*
X2786798Y1547726D01*
X3123936D02*
X3328990Y1752779D01*
X2786798Y1547726D02*
X3123936D01*
X3192561Y1463120D02*
X3359520Y1630079D01*
X2678686Y1328211D02*
X2813594Y1463120D01*
X3192561D01*
X5033767Y1681480D02*
X5291476D01*
X5031016Y1678729D02*
X5033767Y1681480D01*
X5288280Y1831480D02*
Y1963420D01*
X2918890Y1757680D02*
X3227649D01*
X3316775Y1846806D01*
X3440266Y2028859D02*
X3488916Y2077509D01*
X3198077Y1834741D02*
X3316775Y1953439D01*
X2939434Y1834741D02*
X3198077D01*
X3316775Y1953439D02*
X3858439D01*
X3316775Y1846806D02*
X3456333D01*
X3488916Y1879389D01*
X3328990Y1752779D02*
X3662859D01*
X4055009Y1360630D01*
X3858439Y1953439D02*
X4113526Y2208526D01*
X2112800Y1660000D02*
X2289649D01*
X2532421Y2030563D02*
X3075797D01*
X2226858Y1725000D02*
X2532421Y2030563D01*
X2112800Y1725000D02*
X2226858D01*
X2112800Y1855000D02*
X2243358D01*
X2483043Y2094685D02*
X3048772D01*
X2243358Y1855000D02*
X2483043Y2094685D01*
X3075797Y2030563D02*
X3196793Y2151559D01*
X3048772Y2094685D02*
X3189516Y2235429D01*
X1960010Y2003246D02*
X2112700Y2155935D01*
X3027366D02*
X3216324Y2344893D01*
X2112700Y2155935D02*
X3027366D01*
X3196793Y2151559D02*
X3670868D01*
X3189516Y2235429D02*
X3233696D01*
X3291273Y2293006D02*
Y2321442D01*
X3233696Y2235429D02*
X3291273Y2293006D01*
X2928541Y1039095D02*
X2946556Y1021080D01*
X2870061Y1150620D02*
X2928541Y1092140D01*
Y1039095D02*
Y1092140D01*
X2946556Y1021080D02*
X3058160D01*
X2804160Y1275079D02*
X2915222D01*
X2931975Y1198065D02*
Y1258326D01*
X2915222Y1275079D02*
X2931975Y1258326D01*
Y1198065D02*
X2981788Y1148252D01*
X3110154D01*
X2804160Y1275080D02*
X2804160Y1275079D01*
X2606109Y1331029D02*
Y1367036D01*
X2550160Y1275080D02*
X2606109Y1331029D01*
X2678686Y1190370D02*
Y1328211D01*
X2718437Y1150620D02*
X2870061D01*
X2678686Y1190370D02*
X2718437Y1150620D01*
X408894Y2267579D02*
X487642Y2346327D01*
X2852027D02*
X3005700Y2500000D01*
X487642Y2346327D02*
X2852027D01*
X2622481Y2629219D02*
X2751700Y2500000D01*
X329234Y2335052D02*
X445663Y2451481D01*
X2433911Y723678D02*
X2469243Y759010D01*
X2433911Y604010D02*
Y723678D01*
X2469243Y759010D02*
X2661985D01*
X2397761Y567860D02*
X2433911Y604010D01*
X2397761Y223520D02*
Y437860D01*
X2661985Y759010D02*
X2725610Y695385D01*
Y639490D02*
X2746760Y618340D01*
X2725610Y639490D02*
Y695385D01*
X3291273Y2321442D02*
X3353410Y2383579D01*
X3684827Y2643517D02*
X4494004D01*
X4514846Y2622675D01*
Y2522559D02*
Y2622675D01*
X3402264Y2469494D02*
X3402268D01*
X3594749Y2661976D02*
Y2678820D01*
X3402268Y2469494D02*
X3594749Y2661976D01*
X3424890Y2383579D02*
X3684827Y2643517D01*
X3353410Y2383579D02*
X3424890D01*
X3594749Y2678820D02*
X3620983Y2705053D01*
X4630145D01*
X4712966Y2622232D01*
X3058160Y864060D02*
Y1021080D01*
X3670868Y2151559D02*
X3712206Y2192897D01*
Y2425259D01*
X507306Y118367D02*
X636399Y247460D01*
X326825Y118367D02*
X507306D01*
X813269Y123583D02*
X1272022D01*
X1395899Y247460D01*
X764540Y172312D02*
X813269Y123583D01*
X508000Y574893D02*
X577316Y644209D01*
X682655D02*
X713480Y675033D01*
X577316Y644209D02*
X682655D01*
X245983Y199208D02*
X326825Y118367D01*
X3058160Y1275080D02*
X3063958D01*
X3213638Y1125400D02*
X3442806D01*
X3063958Y1275080D02*
X3213638Y1125400D01*
X3331127Y927280D02*
X3442806D01*
X3110154Y1148252D02*
X3331127Y927280D01*
X2326923Y883948D02*
Y1143003D01*
X2298965Y855990D02*
X2326923Y883948D01*
X2276274Y1193652D02*
X2326923Y1143003D01*
X5210765Y983901D02*
Y1038406D01*
X5079666Y927280D02*
X5154143D01*
X5210765Y983901D01*
X4055009Y1360630D02*
X4055009D01*
X4089580Y1326059D01*
X4982366D01*
X5031016Y1277409D01*
X5246709D01*
X1966064Y1297639D02*
X2097770D01*
X1144399Y374460D02*
X1517460D01*
X1610360Y467360D01*
X1144399Y374460D02*
Y501460D01*
Y247460D02*
Y374460D01*
X4113526Y2208526D02*
Y2425259D01*
X4514846Y2522559D02*
X4563496Y2473909D01*
X4712966Y2522559D02*
Y2622232D01*
Y2522559D02*
X4761616Y2473909D01*
X1984440Y1790000D02*
X2112800D01*
X1960010Y1814430D02*
X1984440Y1790000D01*
X1960010Y1814430D02*
Y2003246D01*
X156844Y182181D02*
X156845D01*
X1395899Y247460D02*
X1398399D01*
X764540Y172312D02*
Y620431D01*
X245983Y199208D02*
Y557438D01*
X191540Y723900D02*
X226020Y758380D01*
X156844Y689204D02*
X191540Y723900D01*
X156844Y182181D02*
Y689204D01*
X508000Y373060D02*
Y574893D01*
X382399Y247460D02*
X382400D01*
X508000Y373060D01*
X3712206Y2425259D02*
X3760856Y2473909D01*
X4113526Y2425259D02*
X4162176Y2473909D01*
X3442806Y1125400D02*
X3491456Y1076749D01*
X3442806Y927280D02*
X3491456Y878629D01*
X3359520Y1630079D02*
X3442806D01*
X3491456Y1678729D01*
X5031016Y878629D02*
X5079666Y927280D01*
X5210765Y1038406D02*
X5246709Y1074350D01*
X1903720Y1079840D02*
X1906220D01*
X1867570Y1043690D02*
X1903720Y1079840D01*
X1867570Y1009952D02*
Y1043690D01*
X1807785Y950167D02*
X1867570Y1009952D01*
X1610360Y816374D02*
X1744153Y950167D01*
X1807785D01*
X713480Y675033D02*
Y698487D01*
X419127Y625085D02*
X499401Y705358D01*
X619213D02*
X671580Y757725D01*
X499401Y705358D02*
X619213D01*
X713480Y698487D02*
X736580Y721587D01*
Y868300D01*
X1610360Y695960D02*
Y816374D01*
Y467360D02*
Y532250D01*
X245983Y557438D02*
X313630Y625085D01*
X310089Y1125922D02*
X433750D01*
X288098Y1034722D02*
Y1103931D01*
X310089Y1125922D01*
X671580Y757725D02*
Y868300D01*
X313630Y625085D02*
X419127D01*
X433750Y1125922D02*
X506050Y1053622D01*
X736580Y1286844D02*
Y1453300D01*
Y1286844D02*
X969802Y1053622D01*
X721951Y1193210D02*
X931580Y983581D01*
X398098Y1193210D02*
X721951D01*
X931580Y868300D02*
Y983581D01*
X778202Y1053622D02*
X866580Y965244D01*
X506050Y1053622D02*
X778202D01*
X866580Y868300D02*
Y965244D01*
X890399Y501460D02*
Y730220D01*
X2069030Y144426D02*
Y182290D01*
X2105180Y218440D02*
X2107680D01*
X2069030Y182290D02*
X2105180Y218440D01*
X764540Y620431D02*
X801580Y657471D01*
X2261450Y855990D02*
X2298965D01*
X2237800Y809840D02*
Y832340D01*
X2261450Y855990D01*
X801580Y657471D02*
Y868300D01*
X226020Y758380D02*
Y877644D01*
X281948Y883572D02*
X287985Y877534D01*
Y754913D02*
X318999Y723900D01*
X287985Y754913D02*
Y877534D01*
X226020Y877644D02*
X231948Y883572D01*
X361947Y1229360D02*
X398098Y1193210D01*
X225798Y1034722D02*
Y1223210D01*
X231948Y1229360D01*
X225798Y1034722D02*
X231948Y1028572D01*
X281948D02*
X288098Y1034722D01*
X281948Y883572D02*
Y934198D01*
X325798Y978048D02*
Y1022422D01*
X281948Y934198D02*
X325798Y978048D01*
Y1022422D02*
X331948Y1028572D01*
X361947Y1229360D02*
Y1359005D01*
D25*
X1191580Y863627D02*
Y868300D01*
X1205327Y849880D02*
X1298920D01*
X1191580Y863627D02*
X1205327Y849880D01*
X1298920D02*
X1331300Y817500D01*
Y967500D02*
X1480820D01*
D26*
X1670394Y1215067D02*
X1731886D01*
X1782561Y1265742D02*
Y1457960D01*
X1731886Y1215067D02*
X1782561Y1265742D01*
X1585476Y1130150D02*
X1670394Y1215067D01*
X1513160Y869840D02*
X1546794D01*
X1585271Y908317D02*
Y1129945D01*
X1546794Y869840D02*
X1585271Y908317D01*
X1480820Y837500D02*
X1513160Y869840D01*
X5288280Y2093420D02*
X5320620Y2061080D01*
X5255940Y2125760D02*
X5288280Y2093420D01*
X5376709Y1074350D02*
Y1277409D01*
X5409049Y1309749D01*
X1782561Y1457960D02*
Y2008282D01*
X2550160Y1021079D02*
X2677500Y893740D01*
X2840787Y766400D02*
X3025820D01*
X2677500Y893740D02*
X2713447D01*
X2840787Y766400D01*
X5255940Y2125760D02*
Y2266506D01*
X5320620Y2061080D02*
X5370746D01*
X5409049Y2022777D01*
X5246709Y2275737D02*
X5255940Y2266506D01*
X5409049Y1309749D02*
Y2022777D01*
X5031016Y2275629D02*
X5246656D01*
Y2275683D02*
X5246709Y2275737D01*
X1782560Y1457960D02*
X1782561Y1457960D01*
X1522800Y1457960D02*
X1782560D01*
X1782561Y2008282D02*
X1997179Y2222900D01*
X3058160Y734060D02*
X3058160Y734060D01*
X5154005D02*
X5212449Y792504D01*
X3058160Y734060D02*
X5154005D01*
X3025820Y766400D02*
X3058160Y734060D01*
X5212449Y792504D02*
Y870232D01*
X1997179Y2222900D02*
X2982600D01*
X3259700Y2500000D01*
Y2669540D01*
X5344369Y1002153D02*
Y1042010D01*
X5212449Y870232D02*
X5344369Y1002153D01*
Y1042010D02*
X5376709Y1074350D01*
X1898600Y580321D02*
Y582821D01*
X1156380Y677553D02*
X1156980D01*
X1398399Y656553D02*
X1480820D01*
X1868800Y612621D02*
X1898600Y582821D01*
X1480820Y656553D02*
Y837500D01*
X1522800Y1457960D02*
Y1595000D01*
X1126580Y707353D02*
X1156380Y677553D01*
X1398399Y450660D02*
Y656553D01*
X1158880Y677553D02*
X1179880Y656553D01*
X1524756Y612621D02*
X1868800D01*
X1126580Y707353D02*
Y868300D01*
X1179880Y656553D02*
X1398399D01*
X1480822Y656555D02*
X1524756Y612621D01*
X5246656Y2275629D02*
Y2275683D01*
X2550160Y1021079D02*
Y1021080D01*
D27*
X1883360Y1102700D02*
Y1330418D01*
X1981102Y1428160D02*
X2086750D01*
X1883360Y1330418D02*
X1981102Y1428160D01*
X2086750D02*
X2116551Y1457960D01*
X2112800D02*
Y1595000D01*
X2253967Y1275728D02*
X2295511D01*
X1883360Y1102700D02*
X1906220Y1079840D01*
X2295511Y1275728D02*
X2550159Y1021080D01*
X2146351Y1383344D02*
X2253967Y1275728D01*
X2146351Y1383344D02*
Y1428160D01*
X2116551Y1457960D02*
X2146351Y1428160D01*
X2550159Y1021080D02*
X2550160D01*
X1906220Y1079840D02*
X2047800D01*
X2112760Y223520D02*
X2397761D01*
X2107680Y218440D02*
X2112760Y223520D01*
X2127800Y238560D01*
Y350321D01*
D28*
X2651760Y223520D02*
Y385800D01*
D29*
X192904Y2146670D02*
D03*
X5046980Y2580640D02*
D03*
X192904Y1799694D02*
D03*
X1715259Y2578745D02*
D03*
X3042860Y1656590D02*
D03*
D30*
X2651760Y223520D02*
D03*
X2497700Y2500000D02*
D03*
D31*
X2397760Y223520D02*
D03*
X3259700Y2500000D02*
D03*
X3005700D02*
D03*
X2751700D02*
D03*
D32*
X1398399Y247460D02*
D03*
X2550160Y1275080D02*
D03*
D33*
X1144399Y247460D02*
D03*
X890399D02*
D03*
X636399D02*
D03*
X382399D02*
D03*
Y501460D02*
D03*
X636399D02*
D03*
X890399D02*
D03*
X1144399D02*
D03*
X1398399D02*
D03*
X2804160Y1275080D02*
D03*
X3058160D02*
D03*
Y1021080D02*
D03*
X2804160D02*
D03*
X2550160D02*
D03*
D34*
X200000Y2600000D02*
D03*
X5400000D02*
D03*
X2700000Y1700000D02*
D03*
X5400000Y800000D02*
D03*
D35*
X551846Y1700636D02*
D03*
X1153213Y2025857D02*
D03*
X976707Y1584193D02*
D03*
X3221556Y1924387D02*
D03*
X1029547Y1620743D02*
D03*
X1126580D02*
D03*
Y1931626D02*
D03*
X902860Y1809097D02*
D03*
X1544320Y55880D02*
D03*
X1789121Y50794D02*
D03*
X2828525Y1394642D02*
D03*
X2632646Y1164797D02*
D03*
X2487712Y1402767D02*
D03*
X3334884Y1683884D02*
D03*
X2929274Y1934099D02*
D03*
X3332606Y1905283D02*
D03*
X2556760Y538700D02*
D03*
X2618740D02*
D03*
Y618340D02*
D03*
Y696824D02*
D03*
X2556760D02*
D03*
X2493860Y618340D02*
D03*
Y538700D02*
D03*
Y696824D02*
D03*
X3215451Y2279479D02*
D03*
X3402264Y2469494D02*
D03*
X3216324Y2344893D02*
D03*
X3488769Y2195609D02*
D03*
X3636955Y1799018D02*
D03*
X3743797Y1998638D02*
D03*
X3644300Y2026983D02*
D03*
X3335021Y1802756D02*
D03*
X1633608Y1251502D02*
D03*
X1936900Y1225923D02*
D03*
X1987859Y1363641D02*
D03*
X1730875Y1347909D02*
D03*
X1966064Y1297639D02*
D03*
X3331573Y2104648D02*
D03*
X2226654Y1787092D02*
D03*
X3264146Y2200768D02*
D03*
X2844800Y2270760D02*
D03*
X2931764Y2308346D02*
D03*
X3124700Y2585720D02*
D03*
X3037840Y2669540D02*
D03*
X3124700Y2755900D02*
D03*
X3638799Y2660574D02*
D03*
X4541163Y2658788D02*
D03*
X2271900Y1704548D02*
D03*
X209149Y2371705D02*
D03*
X5472444Y1075824D02*
D03*
X5407414Y984782D02*
D03*
X2967606Y647601D02*
D03*
X3147277Y650550D02*
D03*
X5139394Y652953D02*
D03*
X4618892Y2752791D02*
D03*
X3639699Y2752792D02*
D03*
X229163Y45074D02*
D03*
X1305215Y1680376D02*
D03*
X1079354Y1676474D02*
D03*
X963916Y1744157D02*
D03*
X1830098Y1250099D02*
D03*
X1994823Y2102724D02*
D03*
X1658620Y1529080D02*
D03*
X845630Y686322D02*
D03*
X612446Y760886D02*
D03*
X669430Y693279D02*
D03*
X757530Y680241D02*
D03*
X1053960Y760893D02*
D03*
X996580D02*
D03*
X1654105Y927212D02*
D03*
X1562997Y813153D02*
D03*
X1557010Y663021D02*
D03*
X1663710D02*
D03*
X1665433Y562221D02*
D03*
X1555287D02*
D03*
X1610360Y532250D02*
D03*
Y695960D02*
D03*
X1934778Y2292505D02*
D03*
X408816Y2346013D02*
D03*
X418566Y2017136D02*
D03*
X101976Y722125D02*
D03*
X109355Y201352D02*
D03*
X714303Y110886D02*
D03*
X2820478Y79803D02*
D03*
X2840787Y505320D02*
D03*
X2515023Y331124D02*
D03*
X2250440Y281940D02*
D03*
X2308860Y121920D02*
D03*
X2034467Y45074D02*
D03*
X2519680Y132080D02*
D03*
X559145Y1140441D02*
D03*
X270454Y1148583D02*
D03*
X383865Y1076951D02*
D03*
X211341Y604570D02*
D03*
X702934Y1247677D02*
D03*
X742919Y1103827D02*
D03*
X781064Y977900D02*
D03*
X1116517Y1341689D02*
D03*
X495687Y2267579D02*
D03*
X534390Y2068646D02*
D03*
X1390346Y1923178D02*
D03*
X1552620Y2055327D02*
D03*
X1414780Y1144675D02*
D03*
X1722120Y2250900D02*
D03*
X1029547Y1931626D02*
D03*
X1420000Y2529840D02*
D03*
X581555D02*
D03*
X2332780Y1457960D02*
D03*
X2249050Y1375724D02*
D03*
X3333391Y2278169D02*
D03*
X969802Y1053622D02*
D03*
X890399Y732760D02*
D03*
X1689589Y1297639D02*
D03*
X1303020Y1457960D02*
D03*
X1023880Y596900D02*
D03*
X940125Y677553D02*
D03*
X1686560Y820000D02*
D03*
Y1079840D02*
D03*
X5381709Y2359706D02*
D03*
X1387800Y1541780D02*
D03*
X1982840Y445321D02*
D03*
X1831853Y1346203D02*
D03*
X2004060Y1985000D02*
D03*
X231140Y1442720D02*
D03*
X469900Y878660D02*
D03*
X5381709Y2192423D02*
D03*
X2142800Y906780D02*
D03*
X2205020D02*
D03*
X2078280D02*
D03*
Y713740D02*
D03*
X2142800D02*
D03*
X2205020D02*
D03*
X2112800Y2046644D02*
D03*
X1387800Y1374140D02*
D03*
X2284346Y580321D02*
D03*
Y502860D02*
D03*
Y657413D02*
D03*
X2160580Y657860D02*
D03*
Y502860D02*
D03*
Y580321D02*
D03*
X996580Y976622D02*
D03*
X2249050Y1539240D02*
D03*
X2222500Y1985000D02*
D03*
X5467520Y2275737D02*
D03*
X3488251Y2372249D02*
D03*
X3643110Y2278169D02*
D03*
X1771220Y1160780D02*
D03*
X1770860Y998220D02*
D03*
X1771220Y901700D02*
D03*
Y739140D02*
D03*
X384568Y883572D02*
D03*
X1884680Y218440D02*
D03*
X1971892Y304600D02*
D03*
X1972680Y134266D02*
D03*
X1898600Y357941D02*
D03*
X1816100Y445321D02*
D03*
X2222800Y502860D02*
D03*
Y657860D02*
D03*
%TF.MD5,7f2e7635fec05838ea00736b38ed7b75*%
M02*
