%TF.GenerationSoftware,Altium Limited,Altium Designer,20.1.8 (145)*%
G04 Layer_Color=24703*
%FSLAX45Y45*%
%MOMM*%
%TF.SameCoordinates,98D083CD-8668-4ABA-A521-F4C8EB5CE2D3*%
%TF.FilePolarity,Positive*%
%TF.FileFunction,Paste,Top*%
%TF.Part,Single*%
G01*
G75*
%TA.AperFunction,SMDPad,CuDef*%
G04:AMPARAMS|DCode=10|XSize=0.85mm|YSize=0.85mm|CornerRadius=0.0425mm|HoleSize=0mm|Usage=FLASHONLY|Rotation=270.000|XOffset=0mm|YOffset=0mm|HoleType=Round|Shape=RoundedRectangle|*
%AMROUNDEDRECTD10*
21,1,0.85000,0.76500,0,0,270.0*
21,1,0.76500,0.85000,0,0,270.0*
1,1,0.08500,-0.38250,-0.38250*
1,1,0.08500,-0.38250,0.38250*
1,1,0.08500,0.38250,0.38250*
1,1,0.08500,0.38250,-0.38250*
%
%ADD10ROUNDEDRECTD10*%
%ADD11C,1.50000*%
%ADD12O,0.45000X1.40000*%
%ADD13O,1.40000X0.45000*%
G04:AMPARAMS|DCode=14|XSize=0.55mm|YSize=0.9mm|CornerRadius=0.0275mm|HoleSize=0mm|Usage=FLASHONLY|Rotation=0.000|XOffset=0mm|YOffset=0mm|HoleType=Round|Shape=RoundedRectangle|*
%AMROUNDEDRECTD14*
21,1,0.55000,0.84500,0,0,0.0*
21,1,0.49500,0.90000,0,0,0.0*
1,1,0.05500,0.24750,-0.42250*
1,1,0.05500,-0.24750,-0.42250*
1,1,0.05500,-0.24750,0.42250*
1,1,0.05500,0.24750,0.42250*
%
%ADD14ROUNDEDRECTD14*%
G04:AMPARAMS|DCode=15|XSize=0.8mm|YSize=0.8mm|CornerRadius=0.04mm|HoleSize=0mm|Usage=FLASHONLY|Rotation=0.000|XOffset=0mm|YOffset=0mm|HoleType=Round|Shape=RoundedRectangle|*
%AMROUNDEDRECTD15*
21,1,0.80000,0.72000,0,0,0.0*
21,1,0.72000,0.80000,0,0,0.0*
1,1,0.08000,0.36000,-0.36000*
1,1,0.08000,-0.36000,-0.36000*
1,1,0.08000,-0.36000,0.36000*
1,1,0.08000,0.36000,0.36000*
%
%ADD15ROUNDEDRECTD15*%
%TA.AperFunction,ConnectorPad*%
G04:AMPARAMS|DCode=16|XSize=1.1mm|YSize=2.3mm|CornerRadius=0.0055mm|HoleSize=0mm|Usage=FLASHONLY|Rotation=270.000|XOffset=0mm|YOffset=0mm|HoleType=Round|Shape=RoundedRectangle|*
%AMROUNDEDRECTD16*
21,1,1.10000,2.28900,0,0,270.0*
21,1,1.08900,2.30000,0,0,270.0*
1,1,0.01100,-1.14450,-0.54450*
1,1,0.01100,-1.14450,0.54450*
1,1,0.01100,1.14450,0.54450*
1,1,0.01100,1.14450,-0.54450*
%
%ADD16ROUNDEDRECTD16*%
G04:AMPARAMS|DCode=17|XSize=1.1mm|YSize=2.3mm|CornerRadius=0.0055mm|HoleSize=0mm|Usage=FLASHONLY|Rotation=0.000|XOffset=0mm|YOffset=0mm|HoleType=Round|Shape=RoundedRectangle|*
%AMROUNDEDRECTD17*
21,1,1.10000,2.28900,0,0,0.0*
21,1,1.08900,2.30000,0,0,0.0*
1,1,0.01100,0.54450,-1.14450*
1,1,0.01100,-0.54450,-1.14450*
1,1,0.01100,-0.54450,1.14450*
1,1,0.01100,0.54450,1.14450*
%
%ADD17ROUNDEDRECTD17*%
%TA.AperFunction,SMDPad,CuDef*%
G04:AMPARAMS|DCode=18|XSize=0.85mm|YSize=0.85mm|CornerRadius=0.0425mm|HoleSize=0mm|Usage=FLASHONLY|Rotation=0.000|XOffset=0mm|YOffset=0mm|HoleType=Round|Shape=RoundedRectangle|*
%AMROUNDEDRECTD18*
21,1,0.85000,0.76500,0,0,0.0*
21,1,0.76500,0.85000,0,0,0.0*
1,1,0.08500,0.38250,-0.38250*
1,1,0.08500,-0.38250,-0.38250*
1,1,0.08500,-0.38250,0.38250*
1,1,0.08500,0.38250,0.38250*
%
%ADD18ROUNDEDRECTD18*%
G04:AMPARAMS|DCode=19|XSize=0.85mm|YSize=0.9mm|CornerRadius=0.0425mm|HoleSize=0mm|Usage=FLASHONLY|Rotation=90.000|XOffset=0mm|YOffset=0mm|HoleType=Round|Shape=RoundedRectangle|*
%AMROUNDEDRECTD19*
21,1,0.85000,0.81500,0,0,90.0*
21,1,0.76500,0.90000,0,0,90.0*
1,1,0.08500,0.40750,0.38250*
1,1,0.08500,0.40750,-0.38250*
1,1,0.08500,-0.40750,-0.38250*
1,1,0.08500,-0.40750,0.38250*
%
%ADD19ROUNDEDRECTD19*%
G04:AMPARAMS|DCode=20|XSize=0.85mm|YSize=0.9mm|CornerRadius=0.0425mm|HoleSize=0mm|Usage=FLASHONLY|Rotation=180.000|XOffset=0mm|YOffset=0mm|HoleType=Round|Shape=RoundedRectangle|*
%AMROUNDEDRECTD20*
21,1,0.85000,0.81500,0,0,180.0*
21,1,0.76500,0.90000,0,0,180.0*
1,1,0.08500,-0.38250,0.40750*
1,1,0.08500,0.38250,0.40750*
1,1,0.08500,0.38250,-0.40750*
1,1,0.08500,-0.38250,-0.40750*
%
%ADD20ROUNDEDRECTD20*%
G04:AMPARAMS|DCode=21|XSize=2.1mm|YSize=1mm|CornerRadius=0.05mm|HoleSize=0mm|Usage=FLASHONLY|Rotation=180.000|XOffset=0mm|YOffset=0mm|HoleType=Round|Shape=RoundedRectangle|*
%AMROUNDEDRECTD21*
21,1,2.10000,0.90000,0,0,180.0*
21,1,2.00000,1.00000,0,0,180.0*
1,1,0.10000,-1.00000,0.45000*
1,1,0.10000,1.00000,0.45000*
1,1,0.10000,1.00000,-0.45000*
1,1,0.10000,-1.00000,-0.45000*
%
%ADD21ROUNDEDRECTD21*%
G04:AMPARAMS|DCode=22|XSize=0.6mm|YSize=1.05mm|CornerRadius=0.03mm|HoleSize=0mm|Usage=FLASHONLY|Rotation=180.000|XOffset=0mm|YOffset=0mm|HoleType=Round|Shape=RoundedRectangle|*
%AMROUNDEDRECTD22*
21,1,0.60000,0.99000,0,0,180.0*
21,1,0.54000,1.05000,0,0,180.0*
1,1,0.06000,-0.27000,0.49500*
1,1,0.06000,0.27000,0.49500*
1,1,0.06000,0.27000,-0.49500*
1,1,0.06000,-0.27000,-0.49500*
%
%ADD22ROUNDEDRECTD22*%
G04:AMPARAMS|DCode=23|XSize=0.25mm|YSize=0.55mm|CornerRadius=0.0125mm|HoleSize=0mm|Usage=FLASHONLY|Rotation=0.000|XOffset=0mm|YOffset=0mm|HoleType=Round|Shape=RoundedRectangle|*
%AMROUNDEDRECTD23*
21,1,0.25000,0.52500,0,0,0.0*
21,1,0.22500,0.55000,0,0,0.0*
1,1,0.02500,0.11250,-0.26250*
1,1,0.02500,-0.11250,-0.26250*
1,1,0.02500,-0.11250,0.26250*
1,1,0.02500,0.11250,0.26250*
%
%ADD23ROUNDEDRECTD23*%
D10*
X1366520Y2025857D02*
D03*
X1236520D02*
D03*
X5376709Y1074350D02*
D03*
X5246709D02*
D03*
X5376709Y1277409D02*
D03*
X5246709D02*
D03*
X231948Y1229360D02*
D03*
X361948D02*
D03*
X191540Y723900D02*
D03*
X321540D02*
D03*
X361947Y1359005D02*
D03*
X231947D02*
D03*
X3140303Y1934099D02*
D03*
X3010303D02*
D03*
D11*
X1673860Y129540D02*
D03*
X1585476Y1130150D02*
D03*
X2840787Y766400D02*
D03*
D12*
X1191580Y1453300D02*
D03*
X1126580D02*
D03*
X1061580D02*
D03*
X996580D02*
D03*
X931580D02*
D03*
X866580D02*
D03*
X801580D02*
D03*
X736580D02*
D03*
X671580D02*
D03*
X606580D02*
D03*
X1191580Y868300D02*
D03*
X1126580D02*
D03*
X1061580D02*
D03*
X996580D02*
D03*
X931580D02*
D03*
X866580D02*
D03*
X801580D02*
D03*
X736580D02*
D03*
X671580D02*
D03*
X606580D02*
D03*
D13*
X1522800Y1985000D02*
D03*
Y1920000D02*
D03*
Y1855000D02*
D03*
Y1790000D02*
D03*
Y1725000D02*
D03*
Y1660000D02*
D03*
Y1595000D02*
D03*
X2112800Y1985000D02*
D03*
Y1920000D02*
D03*
Y1855000D02*
D03*
Y1790000D02*
D03*
Y1725000D02*
D03*
Y1660000D02*
D03*
Y1595000D02*
D03*
D14*
X2651760Y388340D02*
D03*
X2556760Y618340D02*
D03*
X2746760D02*
D03*
X2127800Y350321D02*
D03*
X2032800Y580321D02*
D03*
X2222800D02*
D03*
D15*
X1331300Y967500D02*
D03*
Y817500D02*
D03*
X5288280Y1831480D02*
D03*
Y1681480D02*
D03*
D16*
X5031016Y878629D02*
D03*
Y2074969D02*
D03*
X3488916Y2278169D02*
D03*
X5031016Y1076749D02*
D03*
Y1277409D02*
D03*
Y1475529D02*
D03*
Y1678729D02*
D03*
Y1876849D02*
D03*
Y2275629D02*
D03*
X3488916Y2077509D02*
D03*
Y1879389D02*
D03*
X3491456Y1678729D02*
D03*
Y1478069D02*
D03*
Y1279949D02*
D03*
Y1076749D02*
D03*
Y878629D02*
D03*
D17*
X4761616Y2473909D02*
D03*
X4563496D02*
D03*
X4365376D02*
D03*
X4162176D02*
D03*
X3964056D02*
D03*
X3760856D02*
D03*
D18*
X2397761Y437860D02*
D03*
Y567860D02*
D03*
X1331300Y1274675D02*
D03*
Y1144675D02*
D03*
X3058160Y864060D02*
D03*
Y734060D02*
D03*
X401320Y1924280D02*
D03*
Y1794280D02*
D03*
X573440Y1924280D02*
D03*
Y1794280D02*
D03*
X1480820Y967500D02*
D03*
Y837500D02*
D03*
X469900Y1089772D02*
D03*
Y959772D02*
D03*
X2430780Y1625600D02*
D03*
Y1495600D02*
D03*
X5288280Y1963420D02*
D03*
Y2093420D02*
D03*
D19*
X1158880Y677553D02*
D03*
X1023880D02*
D03*
X2107680Y218440D02*
D03*
X1972680D02*
D03*
X1906220Y819841D02*
D03*
X1771220D02*
D03*
X1906220Y1079840D02*
D03*
X1771220D02*
D03*
X5246709Y2275737D02*
D03*
X5381709D02*
D03*
X2114050Y1457960D02*
D03*
X2249050D02*
D03*
X3259700Y2669540D02*
D03*
X3124700D02*
D03*
X1522800Y1457960D02*
D03*
X1387800D02*
D03*
D20*
X1898600Y580321D02*
D03*
Y445321D02*
D03*
D21*
X1420000Y2175000D02*
D03*
X580000D02*
D03*
X1420000Y2625000D02*
D03*
X580000D02*
D03*
D22*
X2047800Y809840D02*
D03*
X2142800D02*
D03*
X2237800D02*
D03*
Y1079840D02*
D03*
X2047800D02*
D03*
D23*
X331948Y1028572D02*
D03*
X281948D02*
D03*
X231948D02*
D03*
Y883572D02*
D03*
X281948D02*
D03*
X331948D02*
D03*
%TF.MD5,017a08fed24c5ff485a6130bc33c3654*%
M02*
