%TF.GenerationSoftware,Altium Limited,Altium Designer,20.1.8 (145)*%
G04 Layer_Color=39423*
%FSLAX45Y45*%
%MOMM*%
%TF.SameCoordinates,BC6BF5D2-64E0-48A2-8BE4-7255E7142536*%
%TF.FilePolarity,Negative*%
%TF.FileFunction,Soldermask,Top*%
%TF.Part,Single*%
G01*
G75*
%TA.AperFunction,BGAPad,CuDef*%
%ADD21R,1.45000X1.45000*%
%ADD24R,0.50000X0.50000*%
%TA.AperFunction,SMDPad,CuDef*%
%ADD26R,2.50000X1.00000*%
%TA.AperFunction,ComponentPad*%
%ADD47C,3.40320*%
%ADD48C,1.95320*%
%ADD49C,1.70320*%
%ADD50C,1.80320*%
%ADD51C,1.78320*%
G04:AMPARAMS|DCode=52|XSize=1.7832mm|YSize=1.7832mm|CornerRadius=0.2596mm|HoleSize=0mm|Usage=FLASHONLY|Rotation=0.000|XOffset=0mm|YOffset=0mm|HoleType=Round|Shape=RoundedRectangle|*
%AMROUNDEDRECTD52*
21,1,1.78320,1.26400,0,0,0.0*
21,1,1.26400,1.78320,0,0,0.0*
1,1,0.51920,0.63200,-0.63200*
1,1,0.51920,-0.63200,-0.63200*
1,1,0.51920,-0.63200,0.63200*
1,1,0.51920,0.63200,0.63200*
%
%ADD52ROUNDEDRECTD52*%
%TA.AperFunction,WasherPad*%
%ADD53C,3.40320*%
%TA.AperFunction,SMDPad,CuDef*%
G04:AMPARAMS|DCode=58|XSize=1.0512mm|YSize=1.0512mm|CornerRadius=0.15248mm|HoleSize=0mm|Usage=FLASHONLY|Rotation=180.000|XOffset=0mm|YOffset=0mm|HoleType=Round|Shape=RoundedRectangle|*
%AMROUNDEDRECTD58*
21,1,1.05120,0.74624,0,0,180.0*
21,1,0.74624,1.05120,0,0,180.0*
1,1,0.30496,-0.37312,0.37312*
1,1,0.30496,0.37312,0.37312*
1,1,0.30496,0.37312,-0.37312*
1,1,0.30496,-0.37312,-0.37312*
%
%ADD58ROUNDEDRECTD58*%
G04:AMPARAMS|DCode=59|XSize=0.7032mm|YSize=1.0032mm|CornerRadius=0.1041mm|HoleSize=0mm|Usage=FLASHONLY|Rotation=90.000|XOffset=0mm|YOffset=0mm|HoleType=Round|Shape=RoundedRectangle|*
%AMROUNDEDRECTD59*
21,1,0.70320,0.79500,0,0,90.0*
21,1,0.49500,1.00320,0,0,90.0*
1,1,0.20820,0.39750,0.24750*
1,1,0.20820,0.39750,-0.24750*
1,1,0.20820,-0.39750,-0.24750*
1,1,0.20820,-0.39750,0.24750*
%
%ADD59ROUNDEDRECTD59*%
G04:AMPARAMS|DCode=60|XSize=1.0512mm|YSize=1.0512mm|CornerRadius=0.144mm|HoleSize=0mm|Usage=FLASHONLY|Rotation=0.000|XOffset=0mm|YOffset=0mm|HoleType=Round|Shape=RoundedRectangle|*
%AMROUNDEDRECTD60*
21,1,1.05120,0.76320,0,0,0.0*
21,1,0.76320,1.05120,0,0,0.0*
1,1,0.28800,0.38160,-0.38160*
1,1,0.28800,-0.38160,-0.38160*
1,1,0.28800,-0.38160,0.38160*
1,1,0.28800,0.38160,0.38160*
%
%ADD60ROUNDEDRECTD60*%
G04:AMPARAMS|DCode=61|XSize=1.0512mm|YSize=1.0512mm|CornerRadius=0.144mm|HoleSize=0mm|Usage=FLASHONLY|Rotation=270.000|XOffset=0mm|YOffset=0mm|HoleType=Round|Shape=RoundedRectangle|*
%AMROUNDEDRECTD61*
21,1,1.05120,0.76320,0,0,270.0*
21,1,0.76320,1.05120,0,0,270.0*
1,1,0.28800,-0.38160,-0.38160*
1,1,0.28800,-0.38160,0.38160*
1,1,0.28800,0.38160,0.38160*
1,1,0.28800,0.38160,-0.38160*
%
%ADD61ROUNDEDRECTD61*%
G04:AMPARAMS|DCode=62|XSize=0.7032mm|YSize=1.2532mm|CornerRadius=0.1266mm|HoleSize=0mm|Usage=FLASHONLY|Rotation=270.000|XOffset=0mm|YOffset=0mm|HoleType=Round|Shape=RoundedRectangle|*
%AMROUNDEDRECTD62*
21,1,0.70320,1.00000,0,0,270.0*
21,1,0.45000,1.25320,0,0,270.0*
1,1,0.25320,-0.50000,-0.22500*
1,1,0.25320,-0.50000,0.22500*
1,1,0.25320,0.50000,0.22500*
1,1,0.25320,0.50000,-0.22500*
%
%ADD62ROUNDEDRECTD62*%
G04:AMPARAMS|DCode=63|XSize=0.632mm|YSize=0.932mm|CornerRadius=0.1mm|HoleSize=0mm|Usage=FLASHONLY|Rotation=90.000|XOffset=0mm|YOffset=0mm|HoleType=Round|Shape=RoundedRectangle|*
%AMROUNDEDRECTD63*
21,1,0.63200,0.73200,0,0,90.0*
21,1,0.43200,0.93200,0,0,90.0*
1,1,0.20000,0.36600,0.21600*
1,1,0.20000,0.36600,-0.21600*
1,1,0.20000,-0.36600,-0.21600*
1,1,0.20000,-0.36600,0.21600*
%
%ADD63ROUNDEDRECTD63*%
G04:AMPARAMS|DCode=64|XSize=0.8032mm|YSize=1.3032mm|CornerRadius=0.1316mm|HoleSize=0mm|Usage=FLASHONLY|Rotation=90.000|XOffset=0mm|YOffset=0mm|HoleType=Round|Shape=RoundedRectangle|*
%AMROUNDEDRECTD64*
21,1,0.80320,1.04000,0,0,90.0*
21,1,0.54000,1.30320,0,0,90.0*
1,1,0.26320,0.52000,0.27000*
1,1,0.26320,0.52000,-0.27000*
1,1,0.26320,-0.52000,-0.27000*
1,1,0.26320,-0.52000,0.27000*
%
%ADD64ROUNDEDRECTD64*%
G04:AMPARAMS|DCode=65|XSize=1.0512mm|YSize=1.0512mm|CornerRadius=0.15248mm|HoleSize=0mm|Usage=FLASHONLY|Rotation=270.000|XOffset=0mm|YOffset=0mm|HoleType=Round|Shape=RoundedRectangle|*
%AMROUNDEDRECTD65*
21,1,1.05120,0.74624,0,0,270.0*
21,1,0.74624,1.05120,0,0,270.0*
1,1,0.30496,-0.37312,-0.37312*
1,1,0.30496,-0.37312,0.37312*
1,1,0.30496,0.37312,0.37312*
1,1,0.30496,0.37312,-0.37312*
%
%ADD65ROUNDEDRECTD65*%
%ADD66C,1.20320*%
%TA.AperFunction,ConnectorPad*%
%ADD67R,0.50000X0.90000*%
%ADD68R,0.60320X1.00320*%
%ADD69R,1.00320X0.60320*%
%ADD70R,0.90000X0.50000*%
%TA.AperFunction,SMDPad,CuDef*%
%ADD71R,0.80000X0.80000*%
%TA.AperFunction,BGAPad,CuDef*%
%ADD72R,0.65200X0.65200*%
%TA.AperFunction,SMDPad,CuDef*%
%ADD73R,0.35200X0.30200*%
%TA.AperFunction,BGAPad,CuDef*%
%ADD74R,0.65240X0.65240*%
%TA.AperFunction,SMDPad,CuDef*%
G04:AMPARAMS|DCode=75|XSize=1.4782mm|YSize=1.1032mm|CornerRadius=0.1466mm|HoleSize=0mm|Usage=FLASHONLY|Rotation=90.000|XOffset=0mm|YOffset=0mm|HoleType=Round|Shape=RoundedRectangle|*
%AMROUNDEDRECTD75*
21,1,1.47820,0.81000,0,0,90.0*
21,1,1.18500,1.10320,0,0,90.0*
1,1,0.29320,0.40500,0.59250*
1,1,0.29320,0.40500,-0.59250*
1,1,0.29320,-0.40500,-0.59250*
1,1,0.29320,-0.40500,0.59250*
%
%ADD75ROUNDEDRECTD75*%
G04:AMPARAMS|DCode=76|XSize=1.4782mm|YSize=1.1032mm|CornerRadius=0.1466mm|HoleSize=0mm|Usage=FLASHONLY|Rotation=0.000|XOffset=0mm|YOffset=0mm|HoleType=Round|Shape=RoundedRectangle|*
%AMROUNDEDRECTD76*
21,1,1.47820,0.81000,0,0,0.0*
21,1,1.18500,1.10320,0,0,0.0*
1,1,0.29320,0.59250,-0.40500*
1,1,0.29320,-0.59250,-0.40500*
1,1,0.29320,-0.59250,0.40500*
1,1,0.29320,0.59250,0.40500*
%
%ADD76ROUNDEDRECTD76*%
G36*
X5628000Y4230600D02*
Y4145600D01*
X5483000D01*
Y4290600D01*
X5568000D01*
X5628000Y4230600D01*
D02*
G37*
D21*
X5358000Y4020600D02*
D03*
X5555500Y3823100D02*
D03*
Y4020600D02*
D03*
X5358000Y4218100D02*
D03*
X5160500D02*
D03*
Y4020600D02*
D03*
Y3823100D02*
D03*
X5358000D02*
D03*
D24*
X3400000Y2895000D02*
D03*
X3025000D02*
D03*
X3100000Y3105000D02*
D03*
X3475000D02*
D03*
X3400000D02*
D03*
X3475000Y2895000D02*
D03*
D26*
X3250000Y3000000D02*
D03*
D47*
X4750000Y2900000D02*
D03*
X1747500Y2897500D02*
D03*
D48*
X3030000Y5570000D02*
D03*
X1750000D02*
D03*
D49*
X508000Y2032000D02*
D03*
X254000D02*
D03*
X2286000Y4318000D02*
D03*
X508000Y1524000D02*
D03*
X3810000Y3810000D02*
D03*
X6350000Y2032000D02*
D03*
X254000Y1778000D02*
D03*
Y1524000D02*
D03*
X5842000Y2032000D02*
D03*
Y2286000D02*
D03*
X3556000Y3810000D02*
D03*
X6096000Y2032000D02*
D03*
X508000Y1778000D02*
D03*
X6350000Y2286000D02*
D03*
X2032000Y4318000D02*
D03*
X6096000Y2286000D02*
D03*
D50*
X577801Y3658025D02*
D03*
Y3404025D02*
D03*
Y3150025D02*
D03*
X323801D02*
D03*
Y3404025D02*
D03*
Y3658025D02*
D03*
D51*
X400000Y4473000D02*
D03*
D52*
Y4727000D02*
D03*
D53*
X6150000Y350000D02*
D03*
Y5450000D02*
D03*
X350000Y350000D02*
D03*
Y5450000D02*
D03*
D58*
X813053Y3658025D02*
D03*
Y3788025D02*
D03*
X1077514Y5009237D02*
D03*
Y5139237D02*
D03*
X1336040Y4791480D02*
D03*
Y4921480D02*
D03*
X614402Y4473000D02*
D03*
Y4343000D02*
D03*
X2060184Y4819237D02*
D03*
Y4689237D02*
D03*
X3786015Y4195798D02*
D03*
Y4065798D02*
D03*
D59*
X3903080Y2730921D02*
D03*
X3683080D02*
D03*
X2598791Y3529063D02*
D03*
X2818791D02*
D03*
D60*
X2494212Y3864463D02*
D03*
Y3734463D02*
D03*
X3250370Y5139237D02*
D03*
Y5009237D02*
D03*
X1016000Y3658025D02*
D03*
X1016000Y3788025D02*
D03*
X3799036Y5009237D02*
D03*
Y5139237D02*
D03*
X508401Y4112721D02*
D03*
Y3982721D02*
D03*
D61*
X3315000Y3787293D02*
D03*
X3185000D02*
D03*
X3463539Y5009237D02*
D03*
X3593539D02*
D03*
D62*
X2694898Y3734463D02*
D03*
Y3924463D02*
D03*
X2984898D02*
D03*
Y3829463D02*
D03*
Y3734463D02*
D03*
X1540627Y5009237D02*
D03*
Y4914237D02*
D03*
Y4819237D02*
D03*
X1805627D02*
D03*
Y4914237D02*
D03*
X1805627Y5009237D02*
D03*
X2604740Y5009237D02*
D03*
X2604740Y4819237D02*
D03*
X2314740D02*
D03*
Y4914237D02*
D03*
X2314740Y5009237D02*
D03*
X3986719Y4273298D02*
D03*
Y4178297D02*
D03*
Y4083298D02*
D03*
X4251719D02*
D03*
Y4178297D02*
D03*
Y4273298D02*
D03*
D63*
X1965537Y3464463D02*
D03*
Y3554463D02*
D03*
Y3644463D02*
D03*
Y3734463D02*
D03*
X2085537D02*
D03*
Y3644463D02*
D03*
Y3554463D02*
D03*
Y3464463D02*
D03*
D64*
X2583573Y5475000D02*
D03*
Y5665000D02*
D03*
X2833574Y5570000D02*
D03*
D65*
X1939166D02*
D03*
X2069166D02*
D03*
X3856719Y4500600D02*
D03*
X3986719D02*
D03*
X4670242Y3717580D02*
D03*
X4540242D02*
D03*
X3903080Y2519405D02*
D03*
X3773080D02*
D03*
X2391526Y3541763D02*
D03*
X2261526D02*
D03*
X3059560Y3277900D02*
D03*
X2929560D02*
D03*
X3561180Y3303300D02*
D03*
X3431180D02*
D03*
X5282600Y4781447D02*
D03*
X5412600D02*
D03*
X2818791Y2695330D02*
D03*
X2948791D02*
D03*
X4605241Y4365678D02*
D03*
X4475242Y4365678D02*
D03*
Y4083298D02*
D03*
X4605242D02*
D03*
D66*
X3044736Y5009237D02*
D03*
X4605241Y4224488D02*
D03*
X3500000Y2658018D02*
D03*
X3268650Y2565330D02*
D03*
X3997940Y5009237D02*
D03*
X508401Y3842625D02*
D03*
X1750000Y5356860D02*
D03*
D67*
X5758000Y4610600D02*
D03*
X5678000D02*
D03*
X4958000D02*
D03*
D68*
X5598000D02*
D03*
X5518000D02*
D03*
X5438000D02*
D03*
X5358000D02*
D03*
X5278000D02*
D03*
X5198000D02*
D03*
X5118000D02*
D03*
X5038000D02*
D03*
X4958000Y3430600D02*
D03*
X5038000D02*
D03*
X5118000D02*
D03*
X5198000D02*
D03*
X5278000D02*
D03*
X5358000D02*
D03*
X5438000D02*
D03*
X5518000D02*
D03*
X5598000D02*
D03*
X5678000D02*
D03*
X5758000D02*
D03*
D69*
X4868000Y4500600D02*
D03*
Y4420600D02*
D03*
Y4260600D02*
D03*
Y4180600D02*
D03*
Y4100600D02*
D03*
Y4020600D02*
D03*
Y3940600D02*
D03*
Y3860600D02*
D03*
Y3780600D02*
D03*
Y3620600D02*
D03*
Y3540600D02*
D03*
Y3700600D02*
D03*
D70*
Y4340600D02*
D03*
X5848000Y3540600D02*
D03*
Y3620600D02*
D03*
Y3700600D02*
D03*
Y3780600D02*
D03*
Y3860600D02*
D03*
Y3940600D02*
D03*
Y4020600D02*
D03*
Y4100600D02*
D03*
Y4180600D02*
D03*
Y4260600D02*
D03*
Y4340600D02*
D03*
Y4420600D02*
D03*
Y4500600D02*
D03*
D71*
X5853000Y4615600D02*
D03*
X4863000D02*
D03*
Y3425600D02*
D03*
X5853000D02*
D03*
D72*
X3100000Y2895000D02*
D03*
X3025000Y3105000D02*
D03*
X3175000Y2895000D02*
D03*
Y3105000D02*
D03*
X3250000Y2895000D02*
D03*
Y3105000D02*
D03*
X3325000Y2895000D02*
D03*
Y3105000D02*
D03*
D73*
X3010000Y3075000D02*
D03*
D74*
X3515000Y3000000D02*
D03*
X2985000D02*
D03*
D75*
X2818791Y3000000D02*
D03*
X2643551D02*
D03*
X3683080Y3000000D02*
D03*
X3858320D02*
D03*
D76*
X5598000Y4884654D02*
D03*
Y5059894D02*
D03*
X2841629Y5009237D02*
D03*
X2841629Y5184477D02*
D03*
X2060184Y5009237D02*
D03*
X2060183Y5184477D02*
D03*
X3239840Y3384877D02*
D03*
Y3560117D02*
D03*
%TF.MD5,3cdd36c88a4f824c69402e13ddfb8e43*%
M02*
