%TF.GenerationSoftware,Altium Limited,Altium Designer,20.1.8 (145)*%
G04 Layer_Color=0*
%FSLAX45Y45*%
%MOMM*%
%TF.SameCoordinates,BC6BF5D2-64E0-48A2-8BE4-7255E7142536*%
%TF.FilePolarity,Positive*%
%TF.FileFunction,Plated,1,4,PTH,Drill*%
%TF.Part,Single*%
G01*
G75*
%TA.AperFunction,ComponentDrill*%
%ADD83C,0.90000*%
%ADD84C,0.90000*%
%ADD85C,1.05000*%
%TA.AperFunction,ViaDrill,NotFilled*%
%ADD86C,0.30000*%
D83*
X3030000Y5570000D02*
D03*
X1750000D02*
D03*
X508000Y1524000D02*
D03*
X6350000Y2032000D02*
D03*
X254000Y1778000D02*
D03*
Y1524000D02*
D03*
X6096000Y2032000D02*
D03*
X508000Y1778000D02*
D03*
X6350000Y2286000D02*
D03*
X6096000D02*
D03*
X577801Y3658025D02*
D03*
Y3404025D02*
D03*
Y3150025D02*
D03*
X323801D02*
D03*
Y3404025D02*
D03*
Y3658025D02*
D03*
D84*
X508000Y2032000D02*
D03*
X254000D02*
D03*
X2286000Y4318000D02*
D03*
X3810000Y3810000D02*
D03*
X5842000Y2032000D02*
D03*
Y2286000D02*
D03*
X3556000Y3810000D02*
D03*
X2032000Y4318000D02*
D03*
D85*
X400000Y4473000D02*
D03*
Y4727000D02*
D03*
D86*
X2494212Y3953522D02*
D03*
X2405153Y3864463D02*
D03*
X2583271Y3864463D02*
D03*
X3313186Y3876352D02*
D03*
X3402096Y3787293D02*
D03*
X3313186Y3698234D02*
D03*
X2708533Y4247187D02*
D03*
X2698977Y4356126D02*
D03*
X2879191Y4324435D02*
D03*
X5710581Y880000D02*
D03*
X2758391Y4180466D02*
D03*
X2879191Y4132172D02*
D03*
X2758391Y4414589D02*
D03*
X2963540Y4321180D02*
D03*
X2917820Y4206880D02*
D03*
X383884Y3851942D02*
D03*
X4450895Y3717580D02*
D03*
X2885505Y3829453D02*
D03*
X3086100D02*
D03*
X3357480Y2656863D02*
D03*
X3175000Y2463800D02*
D03*
X4036120Y2281470D02*
D03*
X1165948Y5139237D02*
D03*
X4414162Y2099529D02*
D03*
X4307598Y2122846D02*
D03*
X5484271Y5058983D02*
D03*
X5598000Y5153983D02*
D03*
X5711729Y5058983D02*
D03*
X6215380Y880000D02*
D03*
Y1720000D02*
D03*
X2953379Y5184477D02*
D03*
X2583574Y5552156D02*
D03*
Y5397844D02*
D03*
X2503279Y5549616D02*
D03*
X2480418Y5474999D02*
D03*
X2686729D02*
D03*
X2663869Y5549616D02*
D03*
X2503280Y5400384D02*
D03*
X2663869D02*
D03*
X2841629Y5275940D02*
D03*
X2728379Y5184477D02*
D03*
X4304154Y2581123D02*
D03*
X3175000Y2656863D02*
D03*
X2149927Y4689237D02*
D03*
X4145924Y2281470D02*
D03*
X4226560Y2047240D02*
D03*
X2416308Y4914237D02*
D03*
X4226560Y2500286D02*
D03*
X4145924Y2609063D02*
D03*
X3128090Y3561057D02*
D03*
X1105060Y3788026D02*
D03*
X1016000Y3876936D02*
D03*
X926941Y3788026D02*
D03*
X3339429Y5139237D02*
D03*
X3250370Y5228148D02*
D03*
X3161310Y5139237D02*
D03*
X3888095D02*
D03*
X3799036Y5228148D02*
D03*
X3709976Y5139237D02*
D03*
X3768619Y4500600D02*
D03*
X1879154Y3554463D02*
D03*
X1879154Y3644463D02*
D03*
X2171933Y5184478D02*
D03*
X1946933D02*
D03*
X2060183Y5275941D02*
D03*
X2213173Y4914237D02*
D03*
X1907250Y4914237D02*
D03*
X4952920Y4340600D02*
D03*
X5710581Y1720000D02*
D03*
X2643551Y2886750D02*
D03*
X3025000Y2824760D02*
D03*
X3086430Y2969160D02*
D03*
Y3040280D02*
D03*
X3239840Y3652520D02*
D03*
X3474000Y2824760D02*
D03*
X3400000D02*
D03*
X3413570Y2969160D02*
D03*
Y3040280D02*
D03*
X3858320Y2886005D02*
D03*
X4385760Y4365678D02*
D03*
X4776475Y3488366D02*
D03*
Y3413750D02*
D03*
X4783184Y4694668D02*
D03*
Y4615600D02*
D03*
X4958000Y4694668D02*
D03*
X5758000Y3704833D02*
D03*
Y3622716D02*
D03*
Y3869066D02*
D03*
Y3786950D02*
D03*
Y4115416D02*
D03*
Y4033300D02*
D03*
Y4279650D02*
D03*
Y4197533D02*
D03*
Y4443883D02*
D03*
X5853000Y4694668D02*
D03*
X5758000D02*
D03*
X2643551Y3113250D02*
D03*
X3100000Y3171255D02*
D03*
X3475000D02*
D03*
X3400000D02*
D03*
X3858320Y3111500D02*
D03*
X4776475Y3339135D02*
D03*
X4783080Y4340600D02*
D03*
X4924980Y3339135D02*
D03*
X4958000Y4531612D02*
D03*
X5158213Y3718380D02*
D03*
X5160500Y3922971D02*
D03*
Y4120471D02*
D03*
X5158213Y4322820D02*
D03*
X5357999Y3718380D02*
D03*
X5358000Y3922971D02*
D03*
Y4120471D02*
D03*
X5357999Y4322820D02*
D03*
X5557786Y3718380D02*
D03*
X5556276Y3922971D02*
D03*
Y4120471D02*
D03*
X5557786Y4322820D02*
D03*
X5853000Y3339578D02*
D03*
X5766979Y3339578D02*
D03*
X5758000Y3540600D02*
D03*
Y3951183D02*
D03*
Y4361766D02*
D03*
Y4526000D02*
D03*
X2953760Y2895000D02*
D03*
X2552473Y2999861D02*
D03*
X2929813Y3186231D02*
D03*
X3543917Y2895000D02*
D03*
X3949780Y3000000D02*
D03*
X4151546Y4178161D02*
D03*
X4863000Y4694668D02*
D03*
X5058320Y3819119D02*
D03*
X5259196Y3823100D02*
D03*
X5456696D02*
D03*
X5657680Y3819120D02*
D03*
X5058320Y4020599D02*
D03*
X5259196Y4020600D02*
D03*
X5457893D02*
D03*
X5657680Y4020600D02*
D03*
X5058320Y4222078D02*
D03*
X5259196Y4218100D02*
D03*
X5456696D02*
D03*
X5657680Y4222079D02*
D03*
X5678000Y4694668D02*
D03*
X3543917Y3105000D02*
D03*
X3351590Y3561057D02*
D03*
X4850728Y3339135D02*
D03*
X5058320Y3718380D02*
D03*
X5258106D02*
D03*
X5457893D02*
D03*
X5657679D02*
D03*
X5058320Y3919859D02*
D03*
X5259196Y3922971D02*
D03*
X5456696D02*
D03*
X5657680Y3919860D02*
D03*
X5058320Y4121338D02*
D03*
X5259196Y4120471D02*
D03*
X5456696D02*
D03*
X5657680Y4121339D02*
D03*
X5058320Y4322818D02*
D03*
X5258106Y4322820D02*
D03*
X5457893D02*
D03*
X5657679Y4322819D02*
D03*
X5678000Y4526000D02*
D03*
%TF.MD5,5b7fbf6a18d3ebcc7752007aade9365b*%
M02*
