%TF.GenerationSoftware,Altium Limited,Altium Designer,20.1.8 (145)*%
G04 Layer_Color=12040119*
%FSLAX45Y45*%
%MOMM*%
%TF.SameCoordinates,BC6BF5D2-64E0-48A2-8BE4-7255E7142536*%
%TF.FilePolarity,Positive*%
%TF.FileFunction,Paste,Top*%
%TF.Part,Single*%
G01*
G75*
%TA.AperFunction,SMDPad,CuDef*%
G04:AMPARAMS|DCode=10|XSize=0.848mm|YSize=0.848mm|CornerRadius=0.05088mm|HoleSize=0mm|Usage=FLASHONLY|Rotation=180.000|XOffset=0mm|YOffset=0mm|HoleType=Round|Shape=RoundedRectangle|*
%AMROUNDEDRECTD10*
21,1,0.84800,0.74624,0,0,180.0*
21,1,0.74624,0.84800,0,0,180.0*
1,1,0.10176,-0.37312,0.37312*
1,1,0.10176,0.37312,0.37312*
1,1,0.10176,0.37312,-0.37312*
1,1,0.10176,-0.37312,-0.37312*
%
%ADD10ROUNDEDRECTD10*%
G04:AMPARAMS|DCode=11|XSize=0.5mm|YSize=0.8mm|CornerRadius=0.0025mm|HoleSize=0mm|Usage=FLASHONLY|Rotation=90.000|XOffset=0mm|YOffset=0mm|HoleType=Round|Shape=RoundedRectangle|*
%AMROUNDEDRECTD11*
21,1,0.50000,0.79500,0,0,90.0*
21,1,0.49500,0.80000,0,0,90.0*
1,1,0.00500,0.39750,0.24750*
1,1,0.00500,0.39750,-0.24750*
1,1,0.00500,-0.39750,-0.24750*
1,1,0.00500,-0.39750,0.24750*
%
%ADD11ROUNDEDRECTD11*%
G04:AMPARAMS|DCode=12|XSize=0.848mm|YSize=0.848mm|CornerRadius=0.0424mm|HoleSize=0mm|Usage=FLASHONLY|Rotation=0.000|XOffset=0mm|YOffset=0mm|HoleType=Round|Shape=RoundedRectangle|*
%AMROUNDEDRECTD12*
21,1,0.84800,0.76320,0,0,0.0*
21,1,0.76320,0.84800,0,0,0.0*
1,1,0.08480,0.38160,-0.38160*
1,1,0.08480,-0.38160,-0.38160*
1,1,0.08480,-0.38160,0.38160*
1,1,0.08480,0.38160,0.38160*
%
%ADD12ROUNDEDRECTD12*%
G04:AMPARAMS|DCode=13|XSize=0.848mm|YSize=0.848mm|CornerRadius=0.0424mm|HoleSize=0mm|Usage=FLASHONLY|Rotation=270.000|XOffset=0mm|YOffset=0mm|HoleType=Round|Shape=RoundedRectangle|*
%AMROUNDEDRECTD13*
21,1,0.84800,0.76320,0,0,270.0*
21,1,0.76320,0.84800,0,0,270.0*
1,1,0.08480,-0.38160,-0.38160*
1,1,0.08480,-0.38160,0.38160*
1,1,0.08480,0.38160,0.38160*
1,1,0.08480,0.38160,-0.38160*
%
%ADD13ROUNDEDRECTD13*%
G04:AMPARAMS|DCode=14|XSize=0.5mm|YSize=1.05mm|CornerRadius=0.025mm|HoleSize=0mm|Usage=FLASHONLY|Rotation=270.000|XOffset=0mm|YOffset=0mm|HoleType=Round|Shape=RoundedRectangle|*
%AMROUNDEDRECTD14*
21,1,0.50000,1.00000,0,0,270.0*
21,1,0.45000,1.05000,0,0,270.0*
1,1,0.05000,-0.50000,-0.22500*
1,1,0.05000,-0.50000,0.22500*
1,1,0.05000,0.50000,0.22500*
1,1,0.05000,0.50000,-0.22500*
%
%ADD14ROUNDEDRECTD14*%
G04:AMPARAMS|DCode=15|XSize=0.48mm|YSize=0.78mm|CornerRadius=0.024mm|HoleSize=0mm|Usage=FLASHONLY|Rotation=90.000|XOffset=0mm|YOffset=0mm|HoleType=Round|Shape=RoundedRectangle|*
%AMROUNDEDRECTD15*
21,1,0.48000,0.73200,0,0,90.0*
21,1,0.43200,0.78000,0,0,90.0*
1,1,0.04800,0.36600,0.21600*
1,1,0.04800,0.36600,-0.21600*
1,1,0.04800,-0.36600,-0.21600*
1,1,0.04800,-0.36600,0.21600*
%
%ADD15ROUNDEDRECTD15*%
G04:AMPARAMS|DCode=16|XSize=0.6mm|YSize=1.1mm|CornerRadius=0.03mm|HoleSize=0mm|Usage=FLASHONLY|Rotation=90.000|XOffset=0mm|YOffset=0mm|HoleType=Round|Shape=RoundedRectangle|*
%AMROUNDEDRECTD16*
21,1,0.60000,1.04000,0,0,90.0*
21,1,0.54000,1.10000,0,0,90.0*
1,1,0.06000,0.52000,0.27000*
1,1,0.06000,0.52000,-0.27000*
1,1,0.06000,-0.52000,-0.27000*
1,1,0.06000,-0.52000,0.27000*
%
%ADD16ROUNDEDRECTD16*%
G04:AMPARAMS|DCode=17|XSize=0.848mm|YSize=0.848mm|CornerRadius=0.05088mm|HoleSize=0mm|Usage=FLASHONLY|Rotation=270.000|XOffset=0mm|YOffset=0mm|HoleType=Round|Shape=RoundedRectangle|*
%AMROUNDEDRECTD17*
21,1,0.84800,0.74624,0,0,270.0*
21,1,0.74624,0.84800,0,0,270.0*
1,1,0.10176,-0.37312,-0.37312*
1,1,0.10176,-0.37312,0.37312*
1,1,0.10176,0.37312,0.37312*
1,1,0.10176,0.37312,-0.37312*
%
%ADD17ROUNDEDRECTD17*%
%TA.AperFunction,ConnectorPad*%
%ADD19R,0.40000X0.80000*%
%ADD20R,0.80000X0.40000*%
%TA.AperFunction,BGAPad,CuDef*%
%ADD21R,1.45000X1.45000*%
%TA.AperFunction,SMDPad,CuDef*%
%ADD23R,0.70000X0.70000*%
%TA.AperFunction,BGAPad,CuDef*%
%ADD24R,0.50000X0.50000*%
%TA.AperFunction,SMDPad,CuDef*%
%ADD25R,0.20000X0.15000*%
%ADD26R,2.50000X1.00000*%
G04:AMPARAMS|DCode=27|XSize=1.275mm|YSize=0.9mm|CornerRadius=0.045mm|HoleSize=0mm|Usage=FLASHONLY|Rotation=90.000|XOffset=0mm|YOffset=0mm|HoleType=Round|Shape=RoundedRectangle|*
%AMROUNDEDRECTD27*
21,1,1.27500,0.81000,0,0,90.0*
21,1,1.18500,0.90000,0,0,90.0*
1,1,0.09000,0.40500,0.59250*
1,1,0.09000,0.40500,-0.59250*
1,1,0.09000,-0.40500,-0.59250*
1,1,0.09000,-0.40500,0.59250*
%
%ADD27ROUNDEDRECTD27*%
G04:AMPARAMS|DCode=28|XSize=1.275mm|YSize=0.9mm|CornerRadius=0.045mm|HoleSize=0mm|Usage=FLASHONLY|Rotation=0.000|XOffset=0mm|YOffset=0mm|HoleType=Round|Shape=RoundedRectangle|*
%AMROUNDEDRECTD28*
21,1,1.27500,0.81000,0,0,0.0*
21,1,1.18500,0.90000,0,0,0.0*
1,1,0.09000,0.59250,-0.40500*
1,1,0.09000,-0.59250,-0.40500*
1,1,0.09000,-0.59250,0.40500*
1,1,0.09000,0.59250,0.40500*
%
%ADD28ROUNDEDRECTD28*%
G36*
X5483000Y4145600D02*
Y4290600D01*
X5568000D01*
X5628000Y4230600D01*
Y4145600D01*
X5483000D01*
D02*
G37*
D10*
X813053Y3658025D02*
D03*
Y3788025D02*
D03*
X1077514Y5009237D02*
D03*
Y5139237D02*
D03*
X1336040Y4791480D02*
D03*
Y4921480D02*
D03*
X614402Y4473000D02*
D03*
Y4343000D02*
D03*
X2060184Y4819237D02*
D03*
Y4689237D02*
D03*
X3786015Y4195798D02*
D03*
Y4065798D02*
D03*
D11*
X3903080Y2730921D02*
D03*
X3683080D02*
D03*
X2598791Y3529063D02*
D03*
X2818791D02*
D03*
D12*
X2494212Y3864463D02*
D03*
Y3734463D02*
D03*
X3250370Y5139237D02*
D03*
Y5009237D02*
D03*
X1016000Y3658025D02*
D03*
X1016000Y3788025D02*
D03*
X3799036Y5009237D02*
D03*
Y5139237D02*
D03*
X508401Y4112721D02*
D03*
Y3982721D02*
D03*
D13*
X3315000Y3787293D02*
D03*
X3185000D02*
D03*
X3463539Y5009237D02*
D03*
X3593539D02*
D03*
D14*
X2694898Y3734463D02*
D03*
Y3924463D02*
D03*
X2984898D02*
D03*
Y3829463D02*
D03*
Y3734463D02*
D03*
X1540627Y5009237D02*
D03*
Y4914237D02*
D03*
Y4819237D02*
D03*
X1805627D02*
D03*
Y4914237D02*
D03*
X1805627Y5009237D02*
D03*
X2604740Y5009237D02*
D03*
X2604740Y4819237D02*
D03*
X2314740D02*
D03*
Y4914237D02*
D03*
X2314740Y5009237D02*
D03*
X3986719Y4273298D02*
D03*
Y4178297D02*
D03*
Y4083298D02*
D03*
X4251719D02*
D03*
Y4178297D02*
D03*
Y4273298D02*
D03*
D15*
X1965537Y3464463D02*
D03*
Y3554463D02*
D03*
Y3644463D02*
D03*
Y3734463D02*
D03*
X2085537D02*
D03*
Y3644463D02*
D03*
Y3554463D02*
D03*
Y3464463D02*
D03*
D16*
X2583573Y5475000D02*
D03*
Y5665000D02*
D03*
X2833574Y5570000D02*
D03*
D17*
X1939166D02*
D03*
X2069166D02*
D03*
X3856719Y4500600D02*
D03*
X3986719D02*
D03*
X4670242Y3717580D02*
D03*
X4540242D02*
D03*
X3903080Y2519405D02*
D03*
X3773080D02*
D03*
X2391526Y3541763D02*
D03*
X2261526D02*
D03*
X3059560Y3277900D02*
D03*
X2929560D02*
D03*
X3561180Y3303300D02*
D03*
X3431180D02*
D03*
X5282600Y4781447D02*
D03*
X5412600D02*
D03*
X2818791Y2695330D02*
D03*
X2948791D02*
D03*
X4605241Y4365678D02*
D03*
X4475242Y4365678D02*
D03*
Y4083298D02*
D03*
X4605242D02*
D03*
D19*
X5758000Y4610600D02*
D03*
X5678000D02*
D03*
X5598000D02*
D03*
X5518000D02*
D03*
X5438000D02*
D03*
X5358000D02*
D03*
X5278000D02*
D03*
X5198000D02*
D03*
X5118000D02*
D03*
X5038000D02*
D03*
X4958000D02*
D03*
Y3430600D02*
D03*
X5038000D02*
D03*
X5118000D02*
D03*
X5198000D02*
D03*
X5278000D02*
D03*
X5358000D02*
D03*
X5438000D02*
D03*
X5518000D02*
D03*
X5598000D02*
D03*
X5678000D02*
D03*
X5758000D02*
D03*
D20*
X4868000Y4500600D02*
D03*
Y4420600D02*
D03*
Y4340600D02*
D03*
Y4260600D02*
D03*
Y4180600D02*
D03*
Y4100600D02*
D03*
Y4020600D02*
D03*
Y3940600D02*
D03*
Y3860600D02*
D03*
Y3780600D02*
D03*
Y3620600D02*
D03*
Y3540600D02*
D03*
X5848000D02*
D03*
Y3620600D02*
D03*
Y3700600D02*
D03*
Y3780600D02*
D03*
Y3860600D02*
D03*
Y3940600D02*
D03*
Y4020600D02*
D03*
Y4100600D02*
D03*
Y4180600D02*
D03*
Y4260600D02*
D03*
Y4340600D02*
D03*
Y4420600D02*
D03*
Y4500600D02*
D03*
X4868000Y3700600D02*
D03*
D21*
X5358000Y4020600D02*
D03*
X5555500Y3823100D02*
D03*
Y4020600D02*
D03*
X5358000Y4218100D02*
D03*
X5160500D02*
D03*
Y4020600D02*
D03*
Y3823100D02*
D03*
X5358000D02*
D03*
D23*
X5853000Y4615600D02*
D03*
X4863000D02*
D03*
Y3425600D02*
D03*
X5853000D02*
D03*
D24*
X3400000Y2895000D02*
D03*
X3100000D02*
D03*
X3025000D02*
D03*
Y3105000D02*
D03*
X3100000D02*
D03*
X3475000D02*
D03*
X3175000Y2895000D02*
D03*
Y3105000D02*
D03*
X3250000Y2895000D02*
D03*
Y3105000D02*
D03*
X3325000Y2895000D02*
D03*
Y3105000D02*
D03*
X3400000D02*
D03*
X3475000Y2895000D02*
D03*
X3515000Y3000000D02*
D03*
X2985000D02*
D03*
D25*
X3010000Y3075000D02*
D03*
D26*
X3250000Y3000000D02*
D03*
D27*
X2818791Y3000000D02*
D03*
X2643551D02*
D03*
X3683080Y3000000D02*
D03*
X3858320D02*
D03*
D28*
X5598000Y4884654D02*
D03*
Y5059894D02*
D03*
X2841629Y5009237D02*
D03*
X2841629Y5184477D02*
D03*
X2060184Y5009237D02*
D03*
X2060183Y5184477D02*
D03*
X3239840Y3384877D02*
D03*
Y3560117D02*
D03*
%TF.MD5,c51dc0f4622d55ee340e068372258a47*%
M02*
