%TF.GenerationSoftware,Altium Limited,Altium Designer,20.1.8 (145)*%
G04 Layer_Color=65535*
%FSLAX45Y45*%
%MOMM*%
%TF.SameCoordinates,BC6BF5D2-64E0-48A2-8BE4-7255E7142536*%
%TF.FilePolarity,Positive*%
%TF.FileFunction,Legend,Bot*%
%TF.Part,Single*%
G01*
G75*
%TA.AperFunction,NonConductor*%
%ADD42C,0.20000*%
%ADD43C,0.25400*%
%ADD44C,0.20320*%
%ADD45C,0.12700*%
G36*
X3132499Y5201305D02*
X2927510D01*
Y5429995D01*
X3132499D01*
Y5201305D01*
D02*
G37*
G36*
X1847965Y5203340D02*
X1652049D01*
Y5429993D01*
X1847965D01*
Y5203340D01*
D02*
G37*
G36*
X1077035Y3724347D02*
X1078560Y3724069D01*
X1079808Y3723515D01*
X1080779Y3722960D01*
X1081750Y3722405D01*
X1082305Y3721850D01*
X1082721Y3721573D01*
X1082859Y3721434D01*
X1083830Y3720325D01*
X1084524Y3719215D01*
X1084940Y3718106D01*
X1085217Y3716996D01*
X1085494Y3716164D01*
X1085633Y3715471D01*
Y3714916D01*
Y3714777D01*
Y3713668D01*
X1085494Y3712558D01*
X1085356Y3711726D01*
Y3711588D01*
Y3711449D01*
X1085078Y3710201D01*
X1084662Y3709091D01*
X1084524Y3708398D01*
X1084385Y3708259D01*
Y3708121D01*
X1083830Y3707011D01*
X1083553Y3705902D01*
X1083275Y3705070D01*
X1083137Y3704931D01*
Y3704792D01*
X1061225Y3645435D01*
X1060531Y3643216D01*
X1059838Y3641275D01*
X1059560Y3640443D01*
X1059283Y3639888D01*
X1059144Y3639472D01*
Y3639333D01*
X1058174Y3637253D01*
X1057619Y3636282D01*
X1057203Y3635450D01*
X1056787Y3634757D01*
X1056509Y3634202D01*
X1056371Y3633925D01*
X1056232Y3633786D01*
X1054845Y3632122D01*
X1053320Y3630735D01*
X1052626Y3630319D01*
X1052072Y3629903D01*
X1051794Y3629764D01*
X1051656Y3629625D01*
X1050546Y3629071D01*
X1049298Y3628793D01*
X1047079Y3628239D01*
X1046108D01*
X1045415Y3628100D01*
X1044721D01*
X1043196Y3628239D01*
X1041809Y3628377D01*
X1040699Y3628655D01*
X1039729Y3628932D01*
X1038897Y3629209D01*
X1038342Y3629348D01*
X1037926Y3629625D01*
X1037787D01*
X1035846Y3631012D01*
X1034459Y3632399D01*
X1033904Y3632954D01*
X1033488Y3633370D01*
X1033349Y3633647D01*
X1033211Y3633786D01*
X1032101Y3635728D01*
X1031130Y3637530D01*
X1030714Y3638363D01*
X1030576Y3638917D01*
X1030298Y3639333D01*
Y3639472D01*
X1029466Y3641830D01*
X1029050Y3642800D01*
X1028773Y3643771D01*
X1028495Y3644465D01*
X1028357Y3645019D01*
X1028218Y3645297D01*
Y3645435D01*
X1006167Y3704792D01*
X1005612Y3706318D01*
X1005335Y3707566D01*
X1005058Y3708259D01*
X1004919Y3708537D01*
X1004503Y3709646D01*
X1004087Y3710756D01*
X1003948Y3711449D01*
X1003810Y3711588D01*
Y3711726D01*
X1003532Y3712975D01*
X1003393Y3713945D01*
Y3714639D01*
Y3714916D01*
X1003671Y3716580D01*
X1004087Y3717967D01*
X1004364Y3718522D01*
X1004503Y3718938D01*
X1004780Y3719215D01*
Y3719354D01*
X1005890Y3720880D01*
X1006999Y3722128D01*
X1007554Y3722544D01*
X1007970Y3722821D01*
X1008247Y3723098D01*
X1008386D01*
X1010189Y3723931D01*
X1011853Y3724347D01*
X1012547Y3724485D01*
X1013517D01*
X1014766Y3724347D01*
X1015875Y3724208D01*
X1016985Y3723931D01*
X1017817Y3723653D01*
X1018510Y3723237D01*
X1018926Y3722960D01*
X1019203Y3722821D01*
X1019342Y3722682D01*
X1020729Y3721296D01*
X1021700Y3720047D01*
X1021977Y3719493D01*
X1022254Y3719215D01*
X1022393Y3718938D01*
Y3718799D01*
X1022671Y3717967D01*
X1023087Y3716858D01*
X1023919Y3714500D01*
X1024335Y3713529D01*
X1024612Y3712697D01*
X1024751Y3712142D01*
X1024889Y3711865D01*
X1044305Y3651538D01*
X1063721Y3712004D01*
X1064414Y3714084D01*
X1065247Y3715887D01*
X1065940Y3717412D01*
X1066495Y3718799D01*
X1067049Y3719770D01*
X1067465Y3720602D01*
X1067743Y3721018D01*
X1067882Y3721157D01*
X1068852Y3722266D01*
X1069962Y3723098D01*
X1071210Y3723653D01*
X1072458Y3724069D01*
X1073706Y3724347D01*
X1074677Y3724485D01*
X1075509D01*
X1077035Y3724347D01*
D02*
G37*
G36*
X952912D02*
X956102Y3723931D01*
X959153Y3723376D01*
X961788Y3722821D01*
X963869Y3722266D01*
X964839Y3721989D01*
X965671Y3721712D01*
X966226Y3721434D01*
X966642Y3721296D01*
X966920Y3721157D01*
X967058D01*
X969971Y3719770D01*
X972744Y3718245D01*
X975102Y3716580D01*
X977321Y3715055D01*
X978985Y3713668D01*
X980233Y3712558D01*
X981065Y3711726D01*
X981204Y3711588D01*
X981343Y3711449D01*
X983423Y3708953D01*
X985365Y3706318D01*
X987029Y3703821D01*
X988277Y3701464D01*
X989248Y3699384D01*
X989664Y3698413D01*
X990080Y3697719D01*
X990357Y3697026D01*
X990496Y3696610D01*
X990635Y3696332D01*
Y3696194D01*
X991744Y3692727D01*
X992437Y3689260D01*
X992992Y3685931D01*
X993408Y3682880D01*
X993547Y3681355D01*
X993686Y3680106D01*
Y3678997D01*
X993824Y3678026D01*
Y3677194D01*
Y3676639D01*
Y3676223D01*
Y3676085D01*
Y3673588D01*
X993686Y3671092D01*
X993408Y3668873D01*
X993131Y3666931D01*
X992992Y3665406D01*
X992715Y3664158D01*
X992576Y3663326D01*
Y3663187D01*
Y3663048D01*
X992021Y3660829D01*
X991467Y3658610D01*
X990773Y3656669D01*
X990218Y3655005D01*
X989525Y3653479D01*
X989109Y3652370D01*
X988832Y3651676D01*
X988693Y3651399D01*
X987722Y3649457D01*
X986613Y3647793D01*
X985642Y3646268D01*
X984671Y3645019D01*
X983978Y3644049D01*
X983284Y3643216D01*
X982868Y3642800D01*
X982730Y3642662D01*
X981065Y3640581D01*
X979401Y3638779D01*
X977737Y3637253D01*
X976350Y3636005D01*
X975102Y3635034D01*
X974131Y3634341D01*
X973576Y3633925D01*
X973299Y3633786D01*
X971357Y3632677D01*
X969416Y3631844D01*
X967613Y3631151D01*
X965949Y3630458D01*
X964423Y3630042D01*
X963314Y3629764D01*
X962620Y3629487D01*
X962343D01*
X957628Y3628655D01*
X955409Y3628377D01*
X953329Y3628239D01*
X951526D01*
X950139Y3628100D01*
X948891D01*
X945424Y3628239D01*
X942095Y3628516D01*
X939183Y3629071D01*
X936686Y3629625D01*
X934606Y3630180D01*
X933774Y3630458D01*
X933081Y3630735D01*
X932526Y3630874D01*
X932110Y3631012D01*
X931971Y3631151D01*
X931833D01*
X929198Y3632399D01*
X926701Y3633786D01*
X924621Y3635173D01*
X922957Y3636421D01*
X921570Y3637530D01*
X920460Y3638501D01*
X919906Y3639056D01*
X919628Y3639333D01*
X917964Y3641275D01*
X916439Y3643078D01*
X915190Y3644881D01*
X914220Y3646406D01*
X913526Y3647793D01*
X912972Y3648903D01*
X912694Y3649457D01*
X912555Y3649735D01*
X911862Y3651676D01*
X911307Y3653479D01*
X910891Y3655143D01*
X910614Y3656530D01*
X910475Y3657778D01*
X910337Y3658610D01*
Y3659304D01*
Y3659443D01*
X910475Y3660829D01*
X910753Y3662078D01*
X911169Y3663187D01*
X911723Y3664158D01*
X912278Y3664990D01*
X912694Y3665545D01*
X912972Y3665822D01*
X913110Y3665961D01*
X914220Y3666931D01*
X915329Y3667625D01*
X916439Y3668041D01*
X917409Y3668457D01*
X918380Y3668596D01*
X919074Y3668734D01*
X919767D01*
X921293Y3668596D01*
X922679Y3668318D01*
X923789Y3667902D01*
X924621Y3667486D01*
X925314Y3666931D01*
X925730Y3666515D01*
X926008Y3666238D01*
X926146Y3666099D01*
X927395Y3664019D01*
X928504Y3662078D01*
X928781Y3661384D01*
X929059Y3660691D01*
X929336Y3660275D01*
Y3660136D01*
X930446Y3657501D01*
X931694Y3655143D01*
X933081Y3653202D01*
X934329Y3651538D01*
X935438Y3650289D01*
X936409Y3649457D01*
X936964Y3648903D01*
X937241Y3648764D01*
X939321Y3647516D01*
X941402Y3646684D01*
X943482Y3645990D01*
X945424Y3645574D01*
X947226Y3645297D01*
X948613Y3645158D01*
X949861D01*
X952358Y3645297D01*
X954715Y3645713D01*
X956657Y3646129D01*
X958460Y3646822D01*
X959985Y3647377D01*
X960956Y3647793D01*
X961650Y3648209D01*
X961927Y3648348D01*
X963730Y3649735D01*
X965255Y3651260D01*
X966642Y3652924D01*
X967752Y3654450D01*
X968722Y3655975D01*
X969277Y3657085D01*
X969693Y3657917D01*
X969832Y3658056D01*
Y3658194D01*
X970803Y3660829D01*
X971496Y3663742D01*
X971912Y3666654D01*
X972190Y3669428D01*
X972467Y3671785D01*
Y3672895D01*
X972606Y3673727D01*
Y3674559D01*
Y3675114D01*
Y3675391D01*
Y3675530D01*
X972467Y3678304D01*
X972328Y3680939D01*
X972051Y3683435D01*
X971635Y3685654D01*
X971080Y3687873D01*
X970525Y3689814D01*
X969971Y3691479D01*
X969416Y3693143D01*
X968861Y3694530D01*
X968306Y3695778D01*
X967752Y3696749D01*
X967197Y3697581D01*
X966781Y3698274D01*
X966504Y3698690D01*
X966226Y3698967D01*
Y3699106D01*
X964978Y3700632D01*
X963730Y3701880D01*
X962343Y3702989D01*
X960817Y3703960D01*
X959431Y3704792D01*
X958044Y3705347D01*
X955409Y3706456D01*
X952912Y3707011D01*
X951942Y3707150D01*
X951110Y3707288D01*
X950277Y3707427D01*
X949307D01*
X946810Y3707288D01*
X944591Y3706872D01*
X942650Y3706456D01*
X941124Y3705902D01*
X939738Y3705208D01*
X938767Y3704792D01*
X938073Y3704376D01*
X937935Y3704237D01*
X936270Y3702851D01*
X934745Y3701325D01*
X933358Y3699800D01*
X932249Y3698135D01*
X931278Y3696749D01*
X930446Y3695639D01*
X930030Y3694807D01*
X929891Y3694668D01*
Y3694530D01*
X929059Y3693004D01*
X928365Y3691756D01*
X927533Y3690646D01*
X926979Y3689814D01*
X926424Y3689121D01*
X926008Y3688705D01*
X925869Y3688427D01*
X925730Y3688289D01*
X924898Y3687734D01*
X923928Y3687318D01*
X921847Y3686763D01*
X921015Y3686625D01*
X920322Y3686486D01*
X919628D01*
X918241Y3686625D01*
X916993Y3686902D01*
X915884Y3687318D01*
X914913Y3687873D01*
X914220Y3688427D01*
X913665Y3688844D01*
X913388Y3689121D01*
X913249Y3689260D01*
X912417Y3690369D01*
X911723Y3691479D01*
X911307Y3692449D01*
X910891Y3693559D01*
X910753Y3694391D01*
X910614Y3695084D01*
Y3695500D01*
Y3695639D01*
X910753Y3697997D01*
X911307Y3700216D01*
X912139Y3702435D01*
X912972Y3704376D01*
X913942Y3706040D01*
X914636Y3707427D01*
X915190Y3708259D01*
X915468Y3708398D01*
Y3708537D01*
X917409Y3711033D01*
X919628Y3713252D01*
X921847Y3715193D01*
X924066Y3716719D01*
X926146Y3718106D01*
X927672Y3719077D01*
X928365Y3719493D01*
X928781Y3719770D01*
X929059Y3719909D01*
X929198D01*
X932665Y3721434D01*
X936132Y3722544D01*
X939460Y3723376D01*
X942650Y3723931D01*
X944037Y3724069D01*
X945424Y3724208D01*
X946533Y3724347D01*
X947504Y3724485D01*
X949445D01*
X952912Y3724347D01*
D02*
G37*
G36*
X856943D02*
X860133Y3723931D01*
X863184Y3723376D01*
X865819Y3722821D01*
X867899Y3722266D01*
X868870Y3721989D01*
X869702Y3721712D01*
X870257Y3721434D01*
X870673Y3721296D01*
X870950Y3721157D01*
X871089D01*
X874001Y3719770D01*
X876775Y3718245D01*
X879133Y3716580D01*
X881352Y3715055D01*
X883016Y3713668D01*
X884264Y3712558D01*
X885096Y3711726D01*
X885235Y3711588D01*
X885373Y3711449D01*
X887454Y3708953D01*
X889395Y3706318D01*
X891059Y3703821D01*
X892308Y3701464D01*
X893278Y3699384D01*
X893694Y3698413D01*
X894110Y3697719D01*
X894388Y3697026D01*
X894527Y3696610D01*
X894665Y3696332D01*
Y3696194D01*
X895775Y3692727D01*
X896468Y3689260D01*
X897023Y3685931D01*
X897439Y3682880D01*
X897578Y3681355D01*
X897716Y3680106D01*
Y3678997D01*
X897855Y3678026D01*
Y3677194D01*
Y3676639D01*
Y3676223D01*
Y3676085D01*
Y3673588D01*
X897716Y3671092D01*
X897439Y3668873D01*
X897162Y3666931D01*
X897023Y3665406D01*
X896745Y3664158D01*
X896607Y3663326D01*
Y3663187D01*
Y3663048D01*
X896052Y3660829D01*
X895497Y3658610D01*
X894804Y3656669D01*
X894249Y3655005D01*
X893556Y3653479D01*
X893140Y3652370D01*
X892862Y3651676D01*
X892724Y3651399D01*
X891753Y3649457D01*
X890643Y3647793D01*
X889673Y3646268D01*
X888702Y3645019D01*
X888008Y3644049D01*
X887315Y3643216D01*
X886899Y3642800D01*
X886760Y3642662D01*
X885096Y3640581D01*
X883432Y3638779D01*
X881768Y3637253D01*
X880381Y3636005D01*
X879133Y3635034D01*
X878162Y3634341D01*
X877607Y3633925D01*
X877330Y3633786D01*
X875388Y3632677D01*
X873447Y3631844D01*
X871644Y3631151D01*
X869979Y3630458D01*
X868454Y3630042D01*
X867344Y3629764D01*
X866651Y3629487D01*
X866374D01*
X861658Y3628655D01*
X859439Y3628377D01*
X857359Y3628239D01*
X855556D01*
X854169Y3628100D01*
X852921D01*
X849454Y3628239D01*
X846126Y3628516D01*
X843213Y3629071D01*
X840717Y3629625D01*
X838637Y3630180D01*
X837805Y3630458D01*
X837111Y3630735D01*
X836557Y3630874D01*
X836141Y3631012D01*
X836002Y3631151D01*
X835863D01*
X833228Y3632399D01*
X830732Y3633786D01*
X828652Y3635173D01*
X826987Y3636421D01*
X825601Y3637530D01*
X824491Y3638501D01*
X823936Y3639056D01*
X823659Y3639333D01*
X821995Y3641275D01*
X820469Y3643078D01*
X819221Y3644881D01*
X818250Y3646406D01*
X817557Y3647793D01*
X817002Y3648903D01*
X816725Y3649457D01*
X816586Y3649735D01*
X815893Y3651676D01*
X815338Y3653479D01*
X814922Y3655143D01*
X814645Y3656530D01*
X814506Y3657778D01*
X814367Y3658610D01*
Y3659304D01*
Y3659443D01*
X814506Y3660829D01*
X814783Y3662078D01*
X815199Y3663187D01*
X815754Y3664158D01*
X816309Y3664990D01*
X816725Y3665545D01*
X817002Y3665822D01*
X817141Y3665961D01*
X818250Y3666931D01*
X819360Y3667625D01*
X820469Y3668041D01*
X821440Y3668457D01*
X822411Y3668596D01*
X823104Y3668734D01*
X823798D01*
X825323Y3668596D01*
X826710Y3668318D01*
X827820Y3667902D01*
X828652Y3667486D01*
X829345Y3666931D01*
X829761Y3666515D01*
X830038Y3666238D01*
X830177Y3666099D01*
X831425Y3664019D01*
X832535Y3662078D01*
X832812Y3661384D01*
X833090Y3660691D01*
X833367Y3660275D01*
Y3660136D01*
X834476Y3657501D01*
X835725Y3655143D01*
X837111Y3653202D01*
X838360Y3651538D01*
X839469Y3650289D01*
X840440Y3649457D01*
X840995Y3648903D01*
X841272Y3648764D01*
X843352Y3647516D01*
X845432Y3646684D01*
X847513Y3645990D01*
X849454Y3645574D01*
X851257Y3645297D01*
X852644Y3645158D01*
X853892D01*
X856388Y3645297D01*
X858746Y3645713D01*
X860688Y3646129D01*
X862491Y3646822D01*
X864016Y3647377D01*
X864987Y3647793D01*
X865680Y3648209D01*
X865958Y3648348D01*
X867761Y3649735D01*
X869286Y3651260D01*
X870673Y3652924D01*
X871782Y3654450D01*
X872753Y3655975D01*
X873308Y3657085D01*
X873724Y3657917D01*
X873863Y3658056D01*
Y3658194D01*
X874833Y3660829D01*
X875527Y3663742D01*
X875943Y3666654D01*
X876220Y3669428D01*
X876498Y3671785D01*
Y3672895D01*
X876636Y3673727D01*
Y3674559D01*
Y3675114D01*
Y3675391D01*
Y3675530D01*
X876498Y3678304D01*
X876359Y3680939D01*
X876082Y3683435D01*
X875666Y3685654D01*
X875111Y3687873D01*
X874556Y3689814D01*
X874001Y3691479D01*
X873447Y3693143D01*
X872892Y3694530D01*
X872337Y3695778D01*
X871782Y3696749D01*
X871228Y3697581D01*
X870812Y3698274D01*
X870534Y3698690D01*
X870257Y3698967D01*
Y3699106D01*
X869009Y3700632D01*
X867761Y3701880D01*
X866374Y3702989D01*
X864848Y3703960D01*
X863461Y3704792D01*
X862074Y3705347D01*
X859439Y3706456D01*
X856943Y3707011D01*
X855972Y3707150D01*
X855140Y3707288D01*
X854308Y3707427D01*
X853337D01*
X850841Y3707288D01*
X848622Y3706872D01*
X846681Y3706456D01*
X845155Y3705902D01*
X843768Y3705208D01*
X842797Y3704792D01*
X842104Y3704376D01*
X841965Y3704237D01*
X840301Y3702851D01*
X838776Y3701325D01*
X837389Y3699800D01*
X836279Y3698135D01*
X835308Y3696749D01*
X834476Y3695639D01*
X834060Y3694807D01*
X833922Y3694668D01*
Y3694530D01*
X833090Y3693004D01*
X832396Y3691756D01*
X831564Y3690646D01*
X831009Y3689814D01*
X830455Y3689121D01*
X830038Y3688705D01*
X829900Y3688427D01*
X829761Y3688289D01*
X828929Y3687734D01*
X827958Y3687318D01*
X825878Y3686763D01*
X825046Y3686625D01*
X824352Y3686486D01*
X823659D01*
X822272Y3686625D01*
X821024Y3686902D01*
X819915Y3687318D01*
X818944Y3687873D01*
X818250Y3688427D01*
X817696Y3688844D01*
X817418Y3689121D01*
X817280Y3689260D01*
X816447Y3690369D01*
X815754Y3691479D01*
X815338Y3692449D01*
X814922Y3693559D01*
X814783Y3694391D01*
X814645Y3695084D01*
Y3695500D01*
Y3695639D01*
X814783Y3697997D01*
X815338Y3700216D01*
X816170Y3702435D01*
X817002Y3704376D01*
X817973Y3706040D01*
X818666Y3707427D01*
X819221Y3708259D01*
X819498Y3708398D01*
Y3708537D01*
X821440Y3711033D01*
X823659Y3713252D01*
X825878Y3715193D01*
X828097Y3716719D01*
X830177Y3718106D01*
X831703Y3719077D01*
X832396Y3719493D01*
X832812Y3719770D01*
X833090Y3719909D01*
X833228D01*
X836695Y3721434D01*
X840162Y3722544D01*
X843491Y3723376D01*
X846681Y3723931D01*
X848067Y3724069D01*
X849454Y3724208D01*
X850564Y3724347D01*
X851534Y3724485D01*
X853476D01*
X856943Y3724347D01*
D02*
G37*
G36*
X1285369D02*
X1286617Y3724208D01*
X1287726Y3723792D01*
X1288697Y3723515D01*
X1289529Y3723098D01*
X1290084Y3722682D01*
X1290500Y3722544D01*
X1290639Y3722405D01*
X1291748Y3721573D01*
X1292580Y3720741D01*
X1293412Y3719909D01*
X1293967Y3718938D01*
X1294522Y3718245D01*
X1294799Y3717551D01*
X1294938Y3717135D01*
X1295077Y3716996D01*
X1295354Y3716026D01*
X1295631Y3714777D01*
X1295909Y3712420D01*
X1296047Y3711449D01*
Y3710617D01*
Y3710062D01*
Y3709785D01*
Y3639749D01*
X1295909Y3637808D01*
X1295631Y3636005D01*
X1295215Y3634618D01*
X1294661Y3633370D01*
X1294245Y3632399D01*
X1293829Y3631706D01*
X1293551Y3631290D01*
X1293412Y3631151D01*
X1292303Y3630180D01*
X1291194Y3629348D01*
X1289945Y3628793D01*
X1288836Y3628516D01*
X1287726Y3628239D01*
X1286894Y3628100D01*
X1286201D01*
X1284675Y3628239D01*
X1283289Y3628516D01*
X1282040Y3629071D01*
X1281070Y3629625D01*
X1280237Y3630180D01*
X1279683Y3630735D01*
X1279267Y3631012D01*
X1279128Y3631151D01*
X1278157Y3632399D01*
X1277464Y3633786D01*
X1276909Y3635311D01*
X1276632Y3636698D01*
X1276354Y3637946D01*
X1276216Y3638917D01*
Y3639611D01*
Y3639888D01*
Y3691895D01*
X1244041Y3639195D01*
X1242931Y3637530D01*
X1241961Y3636144D01*
X1241545Y3635589D01*
X1241406Y3635173D01*
X1241129Y3635034D01*
Y3634895D01*
X1240019Y3633509D01*
X1238910Y3632399D01*
X1238078Y3631567D01*
X1237939Y3631428D01*
X1237800Y3631290D01*
X1236413Y3630180D01*
X1235026Y3629487D01*
X1234472Y3629209D01*
X1234194Y3629071D01*
X1233917Y3628932D01*
X1233778D01*
X1232114Y3628516D01*
X1230450Y3628239D01*
X1229756Y3628100D01*
X1228786D01*
X1226844Y3628239D01*
X1225041Y3628655D01*
X1223516Y3629348D01*
X1222268Y3630180D01*
X1221158Y3631151D01*
X1220187Y3632260D01*
X1219494Y3633509D01*
X1218800Y3634757D01*
X1217968Y3637114D01*
X1217691Y3638224D01*
X1217552Y3639195D01*
Y3640027D01*
X1217414Y3640720D01*
Y3641136D01*
Y3641275D01*
Y3712697D01*
X1217552Y3714777D01*
X1217830Y3716442D01*
X1218246Y3717967D01*
X1218800Y3719215D01*
X1219355Y3720186D01*
X1219771Y3720880D01*
X1220049Y3721296D01*
X1220187Y3721434D01*
X1221297Y3722405D01*
X1222406Y3723237D01*
X1223654Y3723792D01*
X1224764Y3724069D01*
X1225873Y3724347D01*
X1226705Y3724485D01*
X1227399D01*
X1228924Y3724347D01*
X1230311Y3724069D01*
X1231559Y3723515D01*
X1232530Y3722960D01*
X1233362Y3722405D01*
X1233917Y3721850D01*
X1234333Y3721573D01*
X1234472Y3721434D01*
X1235304Y3720186D01*
X1235859Y3718799D01*
X1236413Y3717274D01*
X1236691Y3715887D01*
X1236829Y3714639D01*
X1236968Y3713668D01*
Y3712975D01*
Y3712697D01*
Y3659997D01*
X1269836Y3712558D01*
X1270946Y3714361D01*
X1271916Y3715887D01*
X1272332Y3716442D01*
X1272610Y3716858D01*
X1272887Y3717135D01*
Y3717274D01*
X1273858Y3718799D01*
X1274829Y3720047D01*
X1275522Y3720741D01*
X1275661Y3721018D01*
X1275800D01*
X1277048Y3721989D01*
X1278157Y3722821D01*
X1278989Y3723376D01*
X1279267Y3723515D01*
X1279405D01*
X1280931Y3724069D01*
X1282456Y3724347D01*
X1283150Y3724485D01*
X1284121D01*
X1285369Y3724347D01*
D02*
G37*
G36*
X1373017Y3722682D02*
X1374265Y3722544D01*
X1375236Y3722266D01*
X1376068Y3721989D01*
X1376623Y3721850D01*
X1377039Y3721573D01*
X1377178D01*
X1378148Y3721018D01*
X1378980Y3720463D01*
X1380229Y3719077D01*
X1380783Y3718383D01*
X1381061Y3717828D01*
X1381199Y3717551D01*
X1381338Y3717412D01*
X1381754Y3716303D01*
X1382032Y3715193D01*
X1382448Y3712836D01*
Y3711865D01*
X1382586Y3711033D01*
Y3710478D01*
Y3710340D01*
Y3642107D01*
X1382448Y3639888D01*
X1382170Y3637808D01*
X1381615Y3636282D01*
X1381061Y3634895D01*
X1380645Y3633786D01*
X1380090Y3633093D01*
X1379813Y3632677D01*
X1379674Y3632538D01*
X1378426Y3631567D01*
X1376900Y3630874D01*
X1375375Y3630319D01*
X1373849Y3630042D01*
X1372462Y3629764D01*
X1371353Y3629625D01*
X1320178D01*
X1318514Y3629764D01*
X1316989Y3630042D01*
X1315741Y3630319D01*
X1314631Y3630874D01*
X1313799Y3631290D01*
X1313106Y3631567D01*
X1312828Y3631844D01*
X1312690Y3631983D01*
X1311857Y3632954D01*
X1311164Y3633925D01*
X1310748Y3634895D01*
X1310332Y3635866D01*
X1310193Y3636837D01*
X1310055Y3637530D01*
Y3637946D01*
Y3638085D01*
X1310193Y3639472D01*
X1310471Y3640581D01*
X1310887Y3641691D01*
X1311303Y3642523D01*
X1311857Y3643216D01*
X1312273Y3643771D01*
X1312551Y3644049D01*
X1312690Y3644187D01*
X1313799Y3645019D01*
X1314908Y3645574D01*
X1316157Y3646129D01*
X1317405Y3646406D01*
X1318514Y3646545D01*
X1319346Y3646684D01*
X1361645D01*
Y3670121D01*
X1324894D01*
X1323230Y3670260D01*
X1321704Y3670537D01*
X1320456Y3670815D01*
X1319485Y3671231D01*
X1318653Y3671647D01*
X1318098Y3672063D01*
X1317821Y3672201D01*
X1317682Y3672340D01*
X1316850Y3673311D01*
X1316295Y3674282D01*
X1315741Y3675252D01*
X1315463Y3676223D01*
X1315325Y3677055D01*
X1315186Y3677749D01*
Y3678165D01*
Y3678304D01*
X1315325Y3679552D01*
X1315602Y3680800D01*
X1316018Y3681771D01*
X1316434Y3682603D01*
X1316850Y3683296D01*
X1317266Y3683712D01*
X1317543Y3683990D01*
X1317682Y3684128D01*
X1318653Y3684960D01*
X1319901Y3685515D01*
X1321011Y3685931D01*
X1322259Y3686209D01*
X1323230Y3686347D01*
X1324062Y3686486D01*
X1361645D01*
Y3706318D01*
X1321704D01*
X1319901Y3706456D01*
X1318376Y3706734D01*
X1317127Y3707011D01*
X1316018Y3707427D01*
X1315325Y3707843D01*
X1314631Y3708259D01*
X1314354Y3708398D01*
X1314215Y3708537D01*
X1313383Y3709507D01*
X1312690Y3710478D01*
X1312273Y3711449D01*
X1311857Y3712420D01*
X1311719Y3713391D01*
X1311580Y3714084D01*
Y3714500D01*
Y3714639D01*
X1311719Y3715887D01*
X1311996Y3717135D01*
X1312412Y3718106D01*
X1312828Y3718938D01*
X1313383Y3719631D01*
X1313799Y3720186D01*
X1314076Y3720463D01*
X1314215Y3720602D01*
X1315186Y3721434D01*
X1316434Y3721989D01*
X1317682Y3722405D01*
X1318930Y3722682D01*
X1320040Y3722821D01*
X1320872Y3722960D01*
X1371769D01*
X1373017Y3722682D01*
D02*
G37*
G36*
X975379Y3474347D02*
X976627Y3474208D01*
X977737Y3473792D01*
X978708Y3473515D01*
X979540Y3473098D01*
X980095Y3472682D01*
X980511Y3472544D01*
X980649Y3472405D01*
X981759Y3471573D01*
X982591Y3470741D01*
X983423Y3469909D01*
X983978Y3468938D01*
X984532Y3468245D01*
X984810Y3467551D01*
X984948Y3467135D01*
X985087Y3466996D01*
X985365Y3466026D01*
X985642Y3464777D01*
X985919Y3462420D01*
X986058Y3461449D01*
Y3460617D01*
Y3460062D01*
Y3459785D01*
Y3389749D01*
X985919Y3387808D01*
X985642Y3386005D01*
X985226Y3384618D01*
X984671Y3383370D01*
X984255Y3382399D01*
X983839Y3381706D01*
X983562Y3381290D01*
X983423Y3381151D01*
X982314Y3380180D01*
X981204Y3379348D01*
X979956Y3378793D01*
X978846Y3378516D01*
X977737Y3378239D01*
X976905Y3378100D01*
X976211D01*
X974686Y3378239D01*
X973299Y3378516D01*
X972051Y3379071D01*
X971080Y3379625D01*
X970248Y3380180D01*
X969693Y3380735D01*
X969277Y3381012D01*
X969139Y3381151D01*
X968168Y3382399D01*
X967474Y3383786D01*
X966920Y3385311D01*
X966642Y3386698D01*
X966365Y3387946D01*
X966226Y3388917D01*
Y3389611D01*
Y3389888D01*
Y3441895D01*
X934051Y3389195D01*
X932942Y3387530D01*
X931971Y3386144D01*
X931555Y3385589D01*
X931416Y3385173D01*
X931139Y3385034D01*
Y3384895D01*
X930030Y3383509D01*
X928920Y3382399D01*
X928088Y3381567D01*
X927949Y3381428D01*
X927811Y3381290D01*
X926424Y3380180D01*
X925037Y3379487D01*
X924482Y3379209D01*
X924205Y3379071D01*
X923928Y3378932D01*
X923789D01*
X922125Y3378516D01*
X920460Y3378239D01*
X919767Y3378100D01*
X918796D01*
X916855Y3378239D01*
X915052Y3378655D01*
X913526Y3379348D01*
X912278Y3380180D01*
X911169Y3381151D01*
X910198Y3382260D01*
X909504Y3383509D01*
X908811Y3384757D01*
X907979Y3387114D01*
X907702Y3388224D01*
X907563Y3389195D01*
Y3390027D01*
X907424Y3390720D01*
Y3391136D01*
Y3391275D01*
Y3462697D01*
X907563Y3464777D01*
X907840Y3466442D01*
X908256Y3467967D01*
X908811Y3469215D01*
X909366Y3470186D01*
X909782Y3470880D01*
X910059Y3471296D01*
X910198Y3471434D01*
X911307Y3472405D01*
X912417Y3473237D01*
X913665Y3473792D01*
X914774Y3474069D01*
X915884Y3474347D01*
X916716Y3474485D01*
X917409D01*
X918935Y3474347D01*
X920322Y3474069D01*
X921570Y3473515D01*
X922541Y3472960D01*
X923373Y3472405D01*
X923928Y3471850D01*
X924344Y3471573D01*
X924482Y3471434D01*
X925314Y3470186D01*
X925869Y3468799D01*
X926424Y3467274D01*
X926701Y3465887D01*
X926840Y3464639D01*
X926979Y3463668D01*
Y3462975D01*
Y3462697D01*
Y3409997D01*
X959847Y3462558D01*
X960956Y3464361D01*
X961927Y3465887D01*
X962343Y3466442D01*
X962620Y3466858D01*
X962898Y3467135D01*
Y3467274D01*
X963869Y3468799D01*
X964839Y3470047D01*
X965533Y3470741D01*
X965671Y3471018D01*
X965810D01*
X967058Y3471989D01*
X968168Y3472821D01*
X969000Y3473376D01*
X969277Y3473515D01*
X969416D01*
X970941Y3474069D01*
X972467Y3474347D01*
X973160Y3474485D01*
X974131D01*
X975379Y3474347D01*
D02*
G37*
G36*
X1048327D02*
X1052210Y3473931D01*
X1055677Y3473376D01*
X1058590Y3472821D01*
X1059977Y3472405D01*
X1061086Y3472128D01*
X1062057Y3471850D01*
X1063028Y3471573D01*
X1063582Y3471296D01*
X1064137Y3471157D01*
X1064414Y3471018D01*
X1064553D01*
X1067743Y3469631D01*
X1070794Y3468106D01*
X1073429Y3466442D01*
X1075648Y3464916D01*
X1077451Y3463529D01*
X1078838Y3462420D01*
X1079670Y3461588D01*
X1079808Y3461449D01*
X1079947Y3461310D01*
X1082166Y3458814D01*
X1084108Y3456318D01*
X1085633Y3453683D01*
X1087020Y3451325D01*
X1087991Y3449245D01*
X1088407Y3448274D01*
X1088823Y3447581D01*
X1089100Y3446887D01*
X1089239Y3446471D01*
X1089378Y3446194D01*
Y3446055D01*
X1090487Y3442588D01*
X1091180Y3439121D01*
X1091735Y3435792D01*
X1092151Y3432741D01*
X1092290Y3431355D01*
X1092429Y3430106D01*
Y3428997D01*
X1092567Y3428026D01*
Y3427333D01*
Y3426778D01*
Y3426362D01*
Y3426223D01*
X1092429Y3422201D01*
X1092013Y3418457D01*
X1091458Y3415129D01*
X1090903Y3412078D01*
X1090626Y3410829D01*
X1090348Y3409720D01*
X1090071Y3408749D01*
X1089794Y3407778D01*
X1089516Y3407224D01*
X1089378Y3406669D01*
X1089239Y3406391D01*
Y3406253D01*
X1087852Y3403063D01*
X1086327Y3400012D01*
X1084801Y3397377D01*
X1083137Y3395158D01*
X1081750Y3393355D01*
X1080640Y3391968D01*
X1079947Y3391136D01*
X1079670Y3390998D01*
Y3390859D01*
X1077173Y3388640D01*
X1074677Y3386698D01*
X1072181Y3385034D01*
X1069823Y3383786D01*
X1067743Y3382676D01*
X1066911Y3382260D01*
X1066217Y3381844D01*
X1065524Y3381706D01*
X1065108Y3381428D01*
X1064830Y3381290D01*
X1064692D01*
X1061363Y3380180D01*
X1057896Y3379487D01*
X1054568Y3378932D01*
X1051517Y3378516D01*
X1050269Y3378377D01*
X1049021Y3378239D01*
X1047911D01*
X1046940Y3378100D01*
X1045137D01*
X1041809Y3378239D01*
X1038619Y3378377D01*
X1035707Y3378793D01*
X1033211Y3379209D01*
X1031130Y3379487D01*
X1030298Y3379764D01*
X1029605Y3379903D01*
X1029050Y3380041D01*
X1028634D01*
X1028357Y3380180D01*
X1028218D01*
X1025306Y3381012D01*
X1022393Y3382122D01*
X1019619Y3383093D01*
X1017123Y3384202D01*
X1015043Y3385173D01*
X1014211Y3385589D01*
X1013379Y3386005D01*
X1012824Y3386282D01*
X1012408Y3386560D01*
X1012131Y3386698D01*
X1011992D01*
X1009912Y3387946D01*
X1009080Y3388501D01*
X1008386Y3389056D01*
X1007831Y3389472D01*
X1007277Y3389888D01*
X1007138Y3390027D01*
X1006999Y3390165D01*
X1005751Y3391691D01*
X1004919Y3392939D01*
X1004642Y3393494D01*
X1004364Y3393910D01*
X1004226Y3394187D01*
Y3394326D01*
X1003671Y3396268D01*
X1003532Y3398209D01*
X1003393Y3399041D01*
Y3399735D01*
Y3400151D01*
Y3400289D01*
Y3417625D01*
X1003532Y3419428D01*
X1003671Y3420953D01*
X1003948Y3422340D01*
X1004364Y3423450D01*
X1004780Y3424282D01*
X1005058Y3424836D01*
X1005196Y3425252D01*
X1005335Y3425391D01*
X1006167Y3426362D01*
X1006861Y3427194D01*
X1007831Y3427749D01*
X1008525Y3428304D01*
X1009218Y3428581D01*
X1009773Y3428858D01*
X1010189Y3428997D01*
X1010328D01*
X1012685Y3429552D01*
X1013795Y3429690D01*
X1014904D01*
X1015875Y3429829D01*
X1038064D01*
X1039590Y3429690D01*
X1040977Y3429413D01*
X1042086Y3429136D01*
X1043196Y3428720D01*
X1043889Y3428165D01*
X1044583Y3427887D01*
X1044860Y3427610D01*
X1044999Y3427471D01*
X1045831Y3426501D01*
X1046386Y3425530D01*
X1046940Y3424559D01*
X1047218Y3423588D01*
X1047356Y3422756D01*
X1047495Y3422063D01*
Y3421647D01*
Y3421508D01*
X1047356Y3419982D01*
X1047079Y3418734D01*
X1046524Y3417625D01*
X1045969Y3416793D01*
X1045415Y3416099D01*
X1044860Y3415683D01*
X1044583Y3415406D01*
X1044444Y3415267D01*
X1043196Y3414713D01*
X1041809Y3414296D01*
X1040422Y3413880D01*
X1039035Y3413742D01*
X1037787Y3413603D01*
X1036816Y3413464D01*
X1022809D01*
Y3400705D01*
X1026554Y3398903D01*
X1028357Y3398209D01*
X1030021Y3397516D01*
X1031408Y3397100D01*
X1032378Y3396684D01*
X1033072Y3396545D01*
X1033349Y3396406D01*
X1035429Y3395851D01*
X1037510Y3395574D01*
X1039451Y3395297D01*
X1041254Y3395019D01*
X1042780D01*
X1043889Y3394881D01*
X1044999D01*
X1047218Y3395019D01*
X1049437Y3395297D01*
X1051378Y3395574D01*
X1053320Y3396129D01*
X1054984Y3396684D01*
X1056648Y3397377D01*
X1058035Y3398209D01*
X1059422Y3398903D01*
X1060531Y3399596D01*
X1061502Y3400428D01*
X1062473Y3401121D01*
X1063166Y3401676D01*
X1063721Y3402231D01*
X1064137Y3402647D01*
X1064276Y3402786D01*
X1064414Y3402924D01*
X1065663Y3404589D01*
X1066633Y3406253D01*
X1067604Y3408194D01*
X1068436Y3410136D01*
X1069684Y3414019D01*
X1070517Y3417902D01*
X1070794Y3419705D01*
X1070933Y3421369D01*
X1071071Y3422895D01*
X1071210Y3424143D01*
X1071349Y3425252D01*
Y3426085D01*
Y3426639D01*
Y3426778D01*
X1071210Y3429413D01*
X1071071Y3431909D01*
X1070794Y3434128D01*
X1070378Y3436070D01*
X1070100Y3437595D01*
X1069823Y3438844D01*
X1069684Y3439537D01*
X1069546Y3439814D01*
X1068852Y3441895D01*
X1068020Y3443836D01*
X1067188Y3445500D01*
X1066356Y3447026D01*
X1065524Y3448135D01*
X1064969Y3448967D01*
X1064553Y3449522D01*
X1064414Y3449661D01*
X1063028Y3451048D01*
X1061641Y3452296D01*
X1060254Y3453405D01*
X1059006Y3454237D01*
X1057896Y3454931D01*
X1057064Y3455347D01*
X1056371Y3455624D01*
X1056232Y3455763D01*
X1054429Y3456456D01*
X1052488Y3457011D01*
X1050685Y3457288D01*
X1049021Y3457566D01*
X1047634Y3457705D01*
X1046386Y3457843D01*
X1045415D01*
X1043334Y3457705D01*
X1041393Y3457566D01*
X1039867Y3457288D01*
X1038481Y3457011D01*
X1037371Y3456595D01*
X1036539Y3456318D01*
X1035984Y3456179D01*
X1035846Y3456040D01*
X1034459Y3455347D01*
X1033349Y3454653D01*
X1032240Y3453821D01*
X1031408Y3453128D01*
X1030714Y3452573D01*
X1030298Y3452018D01*
X1030021Y3451741D01*
X1029882Y3451602D01*
X1028911Y3450493D01*
X1027941Y3449383D01*
X1026138Y3446749D01*
X1025306Y3445639D01*
X1024751Y3444668D01*
X1024335Y3444114D01*
X1024196Y3443836D01*
X1023087Y3442588D01*
X1021977Y3441617D01*
X1021006Y3441062D01*
X1020868Y3440785D01*
X1020729D01*
X1019203Y3440092D01*
X1017678Y3439814D01*
X1017123Y3439676D01*
X1016291D01*
X1014766Y3439814D01*
X1013379Y3440092D01*
X1012269Y3440508D01*
X1011160Y3441062D01*
X1010328Y3441617D01*
X1009773Y3442033D01*
X1009357Y3442311D01*
X1009218Y3442449D01*
X1008247Y3443559D01*
X1007554Y3444807D01*
X1006999Y3445916D01*
X1006722Y3447026D01*
X1006445Y3447997D01*
X1006306Y3448690D01*
Y3449245D01*
Y3449383D01*
X1006445Y3450770D01*
X1006722Y3452018D01*
X1006999Y3453405D01*
X1007415Y3454515D01*
X1007970Y3455624D01*
X1008247Y3456456D01*
X1008525Y3457011D01*
X1008663Y3457150D01*
X1009634Y3458814D01*
X1010744Y3460340D01*
X1011853Y3461726D01*
X1012963Y3462975D01*
X1013933Y3463945D01*
X1014766Y3464777D01*
X1015320Y3465332D01*
X1015598Y3465471D01*
X1017401Y3466858D01*
X1019342Y3468106D01*
X1021422Y3469215D01*
X1023225Y3470186D01*
X1024889Y3470880D01*
X1026276Y3471434D01*
X1026831Y3471573D01*
X1027247Y3471712D01*
X1027386Y3471850D01*
X1027524D01*
X1030298Y3472682D01*
X1033211Y3473376D01*
X1035984Y3473792D01*
X1038481Y3474208D01*
X1040838Y3474347D01*
X1041809D01*
X1042641Y3474485D01*
X1044167D01*
X1048327Y3474347D01*
D02*
G37*
G36*
X877468Y3472821D02*
X879410Y3472544D01*
X881074Y3471989D01*
X882322Y3471434D01*
X883432Y3470880D01*
X884125Y3470325D01*
X884541Y3470047D01*
X884680Y3469909D01*
X885651Y3468661D01*
X886344Y3467135D01*
X886899Y3465610D01*
X887176Y3463945D01*
X887454Y3462558D01*
X887592Y3461449D01*
Y3460617D01*
Y3460478D01*
Y3460340D01*
Y3393771D01*
Y3392107D01*
X887454Y3390720D01*
X887315Y3389333D01*
X887176Y3388224D01*
X887038Y3387392D01*
X886899Y3386698D01*
X886760Y3386282D01*
Y3386144D01*
X886344Y3385034D01*
X885789Y3384063D01*
X885235Y3383231D01*
X884541Y3382538D01*
X883987Y3381983D01*
X883432Y3381567D01*
X883154Y3381428D01*
X883016Y3381290D01*
X881768Y3380735D01*
X880519Y3380319D01*
X877884Y3379903D01*
X876636Y3379764D01*
X875666Y3379625D01*
X848483D01*
X846265Y3379764D01*
X844323Y3379903D01*
X842659Y3380041D01*
X841272D01*
X840162Y3380180D01*
X839608Y3380319D01*
X839330D01*
X837389Y3380735D01*
X835725Y3381151D01*
X834060Y3381567D01*
X832673Y3382122D01*
X831425Y3382538D01*
X830593Y3382954D01*
X829900Y3383093D01*
X829761Y3383231D01*
X828097Y3384063D01*
X826433Y3385034D01*
X824907Y3386144D01*
X823659Y3387114D01*
X822550Y3387946D01*
X821579Y3388640D01*
X821024Y3389195D01*
X820885Y3389333D01*
X819360Y3390859D01*
X817973Y3392384D01*
X816725Y3394049D01*
X815615Y3395574D01*
X814783Y3396822D01*
X814090Y3397793D01*
X813674Y3398486D01*
X813535Y3398764D01*
X812426Y3400844D01*
X811593Y3403063D01*
X810761Y3405143D01*
X810068Y3407085D01*
X809652Y3408749D01*
X809236Y3410136D01*
X808959Y3410968D01*
Y3411107D01*
Y3411245D01*
X808404Y3413880D01*
X808126Y3416515D01*
X807849Y3419150D01*
X807572Y3421508D01*
Y3423450D01*
X807433Y3425114D01*
Y3425669D01*
Y3426085D01*
Y3426362D01*
Y3426501D01*
X807572Y3431077D01*
X807988Y3435376D01*
X808681Y3439260D01*
X809652Y3442865D01*
X810761Y3446194D01*
X811871Y3449245D01*
X813119Y3451880D01*
X814506Y3454376D01*
X815754Y3456456D01*
X817141Y3458259D01*
X818250Y3459785D01*
X819360Y3461033D01*
X820331Y3462004D01*
X821024Y3462697D01*
X821440Y3463113D01*
X821579Y3463252D01*
X823936Y3465332D01*
X826155Y3466996D01*
X828374Y3468383D01*
X830455Y3469354D01*
X832257Y3470186D01*
X833506Y3470602D01*
X834060Y3470880D01*
X834476D01*
X834615Y3471018D01*
X834754D01*
X837389Y3471712D01*
X840301Y3472128D01*
X843075Y3472544D01*
X845571Y3472682D01*
X847790Y3472821D01*
X848761Y3472960D01*
X875249D01*
X877468Y3472821D01*
D02*
G37*
G36*
X884888Y3223376D02*
X888216Y3222821D01*
X891129Y3222128D01*
X893625Y3221157D01*
X895705Y3220186D01*
X896537Y3219770D01*
X897370Y3219493D01*
X897924Y3219077D01*
X898340Y3218938D01*
X898479Y3218661D01*
X898618D01*
X901114Y3216719D01*
X903333Y3214500D01*
X905136Y3212281D01*
X906661Y3210062D01*
X907910Y3208121D01*
X908742Y3206456D01*
X909019Y3205902D01*
X909296Y3205486D01*
X909435Y3205208D01*
Y3205070D01*
X910267Y3202712D01*
X910961Y3200354D01*
X911515Y3197997D01*
X911931Y3195916D01*
X912347Y3194113D01*
X912625Y3192588D01*
Y3192033D01*
X912763Y3191617D01*
Y3191479D01*
Y3191340D01*
X913041Y3188427D01*
X913318Y3185515D01*
X913457Y3182603D01*
X913596Y3179968D01*
X913734Y3177749D01*
Y3176778D01*
Y3175946D01*
Y3175252D01*
Y3174698D01*
Y3174420D01*
Y3174282D01*
Y3171647D01*
X913596Y3169012D01*
X913457Y3166793D01*
X913318Y3164712D01*
X913180Y3163048D01*
X913041Y3161800D01*
X912902Y3160968D01*
Y3160829D01*
Y3160691D01*
X912486Y3158333D01*
X912070Y3156253D01*
X911515Y3154173D01*
X910961Y3152370D01*
X910545Y3150844D01*
X910128Y3149735D01*
X909990Y3149041D01*
X909851Y3148764D01*
X908326Y3145435D01*
X906523Y3142384D01*
X904581Y3139749D01*
X902640Y3137669D01*
X900975Y3135866D01*
X899588Y3134618D01*
X899034Y3134202D01*
X898618Y3133925D01*
X898479Y3133647D01*
X898340D01*
X895289Y3131844D01*
X892238Y3130458D01*
X889326Y3129625D01*
X886552Y3128932D01*
X884195Y3128516D01*
X883224Y3128377D01*
X882392D01*
X881698Y3128239D01*
X880727D01*
X877538Y3128377D01*
X874625Y3128932D01*
X871990Y3129487D01*
X869771Y3130319D01*
X867830Y3131012D01*
X866443Y3131706D01*
X865888Y3131844D01*
X865472Y3132122D01*
X865334Y3132260D01*
X865195D01*
X862699Y3133925D01*
X860480Y3135866D01*
X858538Y3137808D01*
X856874Y3139749D01*
X855487Y3141414D01*
X854655Y3142800D01*
X854239Y3143355D01*
X853961Y3143771D01*
X853823Y3143910D01*
Y3144049D01*
X852575Y3146406D01*
X851604Y3148764D01*
X850772Y3151121D01*
X850217Y3153202D01*
X849662Y3155005D01*
X849385Y3156391D01*
X849246Y3156946D01*
X849108Y3157362D01*
Y3157501D01*
Y3157640D01*
X848691Y3160552D01*
X848275Y3163603D01*
X847998Y3166515D01*
X847859Y3169289D01*
X847721Y3171785D01*
Y3172756D01*
Y3173727D01*
Y3174420D01*
Y3174975D01*
Y3175252D01*
Y3175391D01*
Y3178858D01*
X847859Y3182048D01*
X848137Y3185099D01*
X848414Y3188011D01*
X848830Y3190508D01*
X849246Y3193004D01*
X849662Y3195223D01*
X850078Y3197165D01*
X850633Y3198967D01*
X851049Y3200493D01*
X851465Y3201741D01*
X851743Y3202851D01*
X852159Y3203683D01*
X852297Y3204376D01*
X852575Y3204653D01*
Y3204792D01*
X853684Y3207011D01*
X854794Y3208953D01*
X856042Y3210617D01*
X857013Y3212142D01*
X857983Y3213252D01*
X858815Y3214223D01*
X859370Y3214777D01*
X859509Y3214916D01*
X861173Y3216442D01*
X862837Y3217690D01*
X864363Y3218938D01*
X865888Y3219770D01*
X867275Y3220463D01*
X868246Y3221018D01*
X868939Y3221296D01*
X869217Y3221434D01*
X871297Y3222128D01*
X873377Y3222682D01*
X875457Y3223098D01*
X877260Y3223376D01*
X878925Y3223515D01*
X880173Y3223653D01*
X881282D01*
X884888Y3223376D01*
D02*
G37*
G36*
X1043681Y3224347D02*
X1045068Y3223931D01*
X1046455Y3223515D01*
X1047426Y3222960D01*
X1048396Y3222266D01*
X1048951Y3221850D01*
X1049367Y3221434D01*
X1049506Y3221296D01*
X1050477Y3220047D01*
X1051170Y3218522D01*
X1051586Y3216996D01*
X1051864Y3215471D01*
X1052141Y3214084D01*
X1052280Y3212975D01*
Y3212281D01*
Y3212142D01*
Y3212004D01*
Y3140443D01*
X1052141Y3138363D01*
X1051864Y3136421D01*
X1051447Y3134757D01*
X1050893Y3133509D01*
X1050338Y3132538D01*
X1049922Y3131706D01*
X1049645Y3131290D01*
X1049506Y3131151D01*
X1048396Y3130180D01*
X1047148Y3129348D01*
X1045900Y3128793D01*
X1044652Y3128516D01*
X1043681Y3128239D01*
X1042710Y3128100D01*
X1042017D01*
X1040353Y3128239D01*
X1038827Y3128516D01*
X1037579Y3129071D01*
X1036470Y3129625D01*
X1035499Y3130180D01*
X1034944Y3130735D01*
X1034528Y3131012D01*
X1034389Y3131151D01*
X1033419Y3132538D01*
X1032586Y3133925D01*
X1032032Y3135450D01*
X1031754Y3136976D01*
X1031477Y3138363D01*
X1031338Y3139472D01*
Y3140165D01*
Y3140443D01*
Y3212004D01*
X1031477Y3214223D01*
X1031754Y3216026D01*
X1032309Y3217690D01*
X1032864Y3218938D01*
X1033419Y3219909D01*
X1033973Y3220741D01*
X1034251Y3221157D01*
X1034389Y3221296D01*
X1035499Y3222405D01*
X1036747Y3223098D01*
X1038134Y3223653D01*
X1039243Y3224069D01*
X1040353Y3224347D01*
X1041185Y3224485D01*
X1042017D01*
X1043681Y3224347D01*
D02*
G37*
G36*
X975171D02*
X978777Y3223931D01*
X981967Y3223376D01*
X984879Y3222821D01*
X986127Y3222405D01*
X987237Y3222128D01*
X988069Y3221850D01*
X988901Y3221573D01*
X989594Y3221296D01*
X990010Y3221157D01*
X990288Y3221018D01*
X990427D01*
X993478Y3219631D01*
X996113Y3218106D01*
X998609Y3216442D01*
X1000689Y3214916D01*
X1002353Y3213529D01*
X1003601Y3212420D01*
X1004434Y3211588D01*
X1004572Y3211449D01*
X1004711Y3211310D01*
X1006791Y3208814D01*
X1008594Y3206318D01*
X1010120Y3203683D01*
X1011368Y3201325D01*
X1012339Y3199245D01*
X1012755Y3198274D01*
X1013032Y3197581D01*
X1013309Y3196887D01*
X1013448Y3196471D01*
X1013587Y3196194D01*
Y3196055D01*
X1014558Y3192727D01*
X1015390Y3189260D01*
X1015944Y3185931D01*
X1016222Y3183019D01*
X1016360Y3181632D01*
X1016499Y3180384D01*
Y3179274D01*
X1016638Y3178304D01*
Y3177610D01*
Y3176917D01*
Y3176639D01*
Y3176501D01*
X1016499Y3172617D01*
X1016222Y3169150D01*
X1015667Y3165822D01*
X1015112Y3162910D01*
X1014974Y3161661D01*
X1014696Y3160552D01*
X1014419Y3159443D01*
X1014141Y3158610D01*
X1014003Y3158056D01*
X1013864Y3157501D01*
X1013725Y3157224D01*
Y3157085D01*
X1012477Y3153895D01*
X1011090Y3150844D01*
X1009704Y3148209D01*
X1008317Y3145990D01*
X1006930Y3144049D01*
X1005959Y3142662D01*
X1005543Y3142246D01*
X1005266Y3141830D01*
X1004988Y3141691D01*
Y3141552D01*
X1002631Y3139195D01*
X1000273Y3137253D01*
X997915Y3135589D01*
X995558Y3134063D01*
X993616Y3132954D01*
X991952Y3132260D01*
X991397Y3131983D01*
X990981Y3131706D01*
X990704Y3131567D01*
X990565D01*
X987237Y3130458D01*
X983770Y3129625D01*
X980580Y3128932D01*
X977529Y3128516D01*
X976142Y3128377D01*
X974894Y3128239D01*
X973784D01*
X972814Y3128100D01*
X971011D01*
X966989Y3128239D01*
X963244Y3128655D01*
X959916Y3129209D01*
X957004Y3129764D01*
X955756Y3130041D01*
X954646Y3130319D01*
X953814Y3130596D01*
X952982Y3130874D01*
X952288Y3131151D01*
X951872Y3131290D01*
X951595Y3131428D01*
X951456D01*
X948405Y3132815D01*
X945632Y3134479D01*
X943135Y3136144D01*
X941055Y3137669D01*
X939391Y3139195D01*
X938004Y3140304D01*
X937311Y3141136D01*
X937033Y3141275D01*
Y3141414D01*
X934953Y3144049D01*
X933150Y3146684D01*
X931625Y3149180D01*
X930376Y3151676D01*
X929406Y3153756D01*
X928990Y3154589D01*
X928712Y3155282D01*
X928435Y3155975D01*
X928296Y3156391D01*
X928157Y3156669D01*
Y3156808D01*
X927187Y3160136D01*
X926355Y3163603D01*
X925800Y3166931D01*
X925522Y3169982D01*
X925384Y3171231D01*
X925245Y3172479D01*
Y3173588D01*
X925106Y3174559D01*
Y3175391D01*
Y3175946D01*
Y3176223D01*
Y3176362D01*
X925384Y3181632D01*
X925938Y3186347D01*
X926355Y3188566D01*
X926771Y3190646D01*
X927325Y3192588D01*
X927741Y3194391D01*
X928296Y3196055D01*
X928851Y3197442D01*
X929267Y3198690D01*
X929683Y3199661D01*
X929960Y3200493D01*
X930238Y3201048D01*
X930515Y3201464D01*
Y3201602D01*
X932734Y3205486D01*
X935230Y3208814D01*
X937865Y3211726D01*
X940500Y3214223D01*
X942858Y3216026D01*
X943829Y3216858D01*
X944661Y3217412D01*
X945493Y3217967D01*
X946048Y3218245D01*
X946325Y3218522D01*
X946464D01*
X948405Y3219631D01*
X950486Y3220463D01*
X954785Y3221989D01*
X958945Y3223098D01*
X962828Y3223792D01*
X964493Y3223931D01*
X966157Y3224208D01*
X967682Y3224347D01*
X968930D01*
X969901Y3224485D01*
X971288D01*
X975171Y3224347D01*
D02*
G37*
G36*
X1285577Y3474347D02*
X1286825Y3474069D01*
X1287934Y3473653D01*
X1288905Y3473237D01*
X1289599Y3472821D01*
X1290153Y3472405D01*
X1290569Y3472128D01*
X1290708Y3471989D01*
X1291679Y3471018D01*
X1292372Y3470186D01*
X1292788Y3469215D01*
X1293066Y3468383D01*
X1293343Y3467551D01*
X1293482Y3466996D01*
Y3466580D01*
Y3466442D01*
X1293343Y3464361D01*
X1292788Y3462420D01*
X1292650Y3461726D01*
X1292372Y3461172D01*
X1292234Y3460756D01*
Y3460617D01*
X1291124Y3458537D01*
X1289876Y3456595D01*
X1289460Y3455902D01*
X1289044Y3455347D01*
X1288767Y3454931D01*
X1288628Y3454792D01*
X1271570Y3428165D01*
X1291540Y3399180D01*
X1293066Y3396684D01*
X1294314Y3394465D01*
X1295146Y3392384D01*
X1295701Y3390581D01*
X1295978Y3389195D01*
X1296117Y3388085D01*
X1296255Y3387530D01*
Y3387253D01*
X1296117Y3385728D01*
X1295839Y3384341D01*
X1295423Y3383093D01*
X1295007Y3382260D01*
X1294591Y3381428D01*
X1294175Y3380874D01*
X1293898Y3380596D01*
X1293759Y3380458D01*
X1292788Y3379625D01*
X1291679Y3379071D01*
X1290569Y3378655D01*
X1289599Y3378377D01*
X1288767Y3378239D01*
X1287934Y3378100D01*
X1287380D01*
X1285715Y3378239D01*
X1284329Y3378516D01*
X1283774Y3378655D01*
X1283358Y3378793D01*
X1283219Y3378932D01*
X1283080D01*
X1281694Y3379487D01*
X1280723Y3380180D01*
X1280168Y3380735D01*
X1279891Y3380874D01*
X1278920Y3381844D01*
X1278365Y3382538D01*
X1277949Y3383093D01*
X1277810Y3383231D01*
X1277394Y3383786D01*
X1277117Y3384341D01*
X1276285Y3385728D01*
X1275869Y3386282D01*
X1275592Y3386837D01*
X1275314Y3387114D01*
Y3387253D01*
X1258949Y3413187D01*
X1243694Y3388085D01*
X1242862Y3386698D01*
X1242030Y3385450D01*
X1241475Y3384479D01*
X1240921Y3383647D01*
X1240505Y3383093D01*
X1240227Y3382676D01*
X1239950Y3382399D01*
Y3382260D01*
X1238840Y3381012D01*
X1237870Y3380180D01*
X1236899Y3379487D01*
X1236760Y3379348D01*
X1236621D01*
X1234957Y3378655D01*
X1233293Y3378239D01*
X1232600D01*
X1232045Y3378100D01*
X1231629D01*
X1229548Y3378239D01*
X1228023Y3378793D01*
X1227330Y3378932D01*
X1226913Y3379209D01*
X1226636Y3379348D01*
X1226497D01*
X1224972Y3380319D01*
X1223862Y3381428D01*
X1223308Y3382260D01*
X1223030Y3382399D01*
Y3382538D01*
X1222337Y3384202D01*
X1221921Y3385589D01*
X1221782Y3386282D01*
Y3386698D01*
Y3386976D01*
Y3387114D01*
X1222060Y3389056D01*
X1222476Y3390720D01*
X1222753Y3391414D01*
X1222892Y3391968D01*
X1223169Y3392246D01*
Y3392384D01*
X1223724Y3393494D01*
X1224417Y3394742D01*
X1225804Y3397100D01*
X1226497Y3398209D01*
X1227052Y3399041D01*
X1227468Y3399596D01*
X1227607Y3399735D01*
X1246052Y3428026D01*
X1228439Y3454237D01*
X1226775Y3456872D01*
X1225527Y3459230D01*
X1224695Y3461310D01*
X1224001Y3462975D01*
X1223724Y3464361D01*
X1223585Y3465332D01*
X1223446Y3466026D01*
Y3466164D01*
X1223585Y3467412D01*
X1223862Y3468522D01*
X1224278Y3469493D01*
X1224695Y3470325D01*
X1225249Y3471018D01*
X1225665Y3471573D01*
X1225943Y3471850D01*
X1226081Y3471989D01*
X1227052Y3472821D01*
X1228162Y3473376D01*
X1229271Y3473931D01*
X1230242Y3474208D01*
X1231213Y3474347D01*
X1231906Y3474485D01*
X1232600D01*
X1234125Y3474347D01*
X1235373Y3474069D01*
X1236205Y3473792D01*
X1236344Y3473653D01*
X1236483D01*
X1237592Y3472960D01*
X1238563Y3472266D01*
X1239256Y3471712D01*
X1239534Y3471573D01*
Y3471434D01*
X1240505Y3470325D01*
X1241337Y3469215D01*
X1241891Y3468383D01*
X1242169Y3468106D01*
Y3467967D01*
X1243140Y3466442D01*
X1243833Y3465193D01*
X1244249Y3464639D01*
X1244388Y3464223D01*
X1244665Y3463945D01*
Y3463807D01*
X1258672Y3441756D01*
X1271154Y3463113D01*
X1272541Y3465332D01*
X1273650Y3467135D01*
X1274759Y3468661D01*
X1275730Y3469770D01*
X1276424Y3470741D01*
X1276978Y3471434D01*
X1277256Y3471712D01*
X1277394Y3471850D01*
X1278365Y3472682D01*
X1279475Y3473376D01*
X1280584Y3473792D01*
X1281694Y3474208D01*
X1282664Y3474347D01*
X1283497Y3474485D01*
X1284190D01*
X1285577Y3474347D01*
D02*
G37*
G36*
X1369481Y3472821D02*
X1371006Y3472544D01*
X1372393Y3472128D01*
X1373364Y3471712D01*
X1374335Y3471296D01*
X1374889Y3470880D01*
X1375305Y3470602D01*
X1375444Y3470463D01*
X1376415Y3469493D01*
X1377108Y3468522D01*
X1377524Y3467412D01*
X1377802Y3466303D01*
X1378079Y3465332D01*
X1378218Y3464639D01*
Y3464084D01*
Y3463945D01*
X1378079Y3462558D01*
X1377802Y3461310D01*
X1377386Y3460201D01*
X1376831Y3459230D01*
X1376415Y3458537D01*
X1375999Y3457982D01*
X1375721Y3457705D01*
X1375583Y3457566D01*
X1374473Y3456734D01*
X1373225Y3456179D01*
X1371977Y3455763D01*
X1370590Y3455486D01*
X1369481Y3455347D01*
X1368510Y3455208D01*
X1348817D01*
Y3390443D01*
X1348678Y3388363D01*
X1348401Y3386421D01*
X1347985Y3384757D01*
X1347430Y3383509D01*
X1346875Y3382538D01*
X1346459Y3381706D01*
X1346182Y3381290D01*
X1346043Y3381151D01*
X1344934Y3380180D01*
X1343685Y3379348D01*
X1342299Y3378793D01*
X1341189Y3378516D01*
X1340080Y3378239D01*
X1339248Y3378100D01*
X1338415D01*
X1336751Y3378239D01*
X1335226Y3378516D01*
X1333978Y3379071D01*
X1332868Y3379625D01*
X1331897Y3380180D01*
X1331343Y3380735D01*
X1330926Y3381012D01*
X1330788Y3381151D01*
X1329817Y3382538D01*
X1329124Y3383925D01*
X1328569Y3385450D01*
X1328291Y3386976D01*
X1328014Y3388363D01*
X1327875Y3389472D01*
Y3390165D01*
Y3390443D01*
Y3455208D01*
X1309292D01*
X1307489Y3455347D01*
X1305825Y3455624D01*
X1304438Y3455902D01*
X1303328Y3456456D01*
X1302358Y3456872D01*
X1301803Y3457150D01*
X1301387Y3457427D01*
X1301248Y3457566D01*
X1300277Y3458537D01*
X1299584Y3459646D01*
X1299168Y3460617D01*
X1298752Y3461726D01*
X1298613Y3462558D01*
X1298474Y3463252D01*
Y3463807D01*
Y3463945D01*
X1298613Y3465332D01*
X1298890Y3466719D01*
X1299307Y3467828D01*
X1299861Y3468661D01*
X1300416Y3469493D01*
X1300832Y3470047D01*
X1301109Y3470325D01*
X1301248Y3470463D01*
X1302358Y3471296D01*
X1303606Y3471850D01*
X1304993Y3472405D01*
X1306241Y3472682D01*
X1307489Y3472821D01*
X1308460Y3472960D01*
X1367678D01*
X1369481Y3472821D01*
D02*
G37*
G36*
X1283843Y3224347D02*
X1285091Y3224069D01*
X1286201Y3223653D01*
X1287172Y3223237D01*
X1287865Y3222821D01*
X1288420Y3222405D01*
X1288836Y3222128D01*
X1288975Y3221989D01*
X1289945Y3221018D01*
X1290639Y3220186D01*
X1291055Y3219215D01*
X1291332Y3218383D01*
X1291610Y3217551D01*
X1291748Y3216996D01*
Y3216580D01*
Y3216442D01*
X1291610Y3214361D01*
X1291055Y3212420D01*
X1290916Y3211726D01*
X1290639Y3211172D01*
X1290500Y3210756D01*
Y3210617D01*
X1289391Y3208537D01*
X1288142Y3206595D01*
X1287726Y3205902D01*
X1287310Y3205347D01*
X1287033Y3204931D01*
X1286894Y3204792D01*
X1269836Y3178165D01*
X1289807Y3149180D01*
X1291332Y3146684D01*
X1292580Y3144465D01*
X1293412Y3142384D01*
X1293967Y3140581D01*
X1294245Y3139195D01*
X1294383Y3138085D01*
X1294522Y3137530D01*
Y3137253D01*
X1294383Y3135728D01*
X1294106Y3134341D01*
X1293690Y3133093D01*
X1293274Y3132260D01*
X1292858Y3131428D01*
X1292442Y3130874D01*
X1292164Y3130596D01*
X1292026Y3130458D01*
X1291055Y3129625D01*
X1289945Y3129071D01*
X1288836Y3128655D01*
X1287865Y3128377D01*
X1287033Y3128239D01*
X1286201Y3128100D01*
X1285646D01*
X1283982Y3128239D01*
X1282595Y3128516D01*
X1282040Y3128655D01*
X1281624Y3128793D01*
X1281486Y3128932D01*
X1281347D01*
X1279960Y3129487D01*
X1278989Y3130180D01*
X1278435Y3130735D01*
X1278157Y3130874D01*
X1277186Y3131844D01*
X1276632Y3132538D01*
X1276216Y3133093D01*
X1276077Y3133231D01*
X1275661Y3133786D01*
X1275384Y3134341D01*
X1274551Y3135728D01*
X1274135Y3136282D01*
X1273858Y3136837D01*
X1273581Y3137114D01*
Y3137253D01*
X1257216Y3163187D01*
X1241961Y3138085D01*
X1241129Y3136698D01*
X1240296Y3135450D01*
X1239742Y3134479D01*
X1239187Y3133647D01*
X1238771Y3133093D01*
X1238494Y3132676D01*
X1238216Y3132399D01*
Y3132260D01*
X1237107Y3131012D01*
X1236136Y3130180D01*
X1235165Y3129487D01*
X1235026Y3129348D01*
X1234888D01*
X1233224Y3128655D01*
X1231559Y3128239D01*
X1230866D01*
X1230311Y3128100D01*
X1229895D01*
X1227815Y3128239D01*
X1226289Y3128793D01*
X1225596Y3128932D01*
X1225180Y3129209D01*
X1224903Y3129348D01*
X1224764D01*
X1223238Y3130319D01*
X1222129Y3131428D01*
X1221574Y3132260D01*
X1221297Y3132399D01*
Y3132538D01*
X1220603Y3134202D01*
X1220187Y3135589D01*
X1220049Y3136282D01*
Y3136698D01*
Y3136976D01*
Y3137114D01*
X1220326Y3139056D01*
X1220742Y3140720D01*
X1221019Y3141414D01*
X1221158Y3141968D01*
X1221435Y3142246D01*
Y3142384D01*
X1221990Y3143494D01*
X1222684Y3144742D01*
X1224070Y3147100D01*
X1224764Y3148209D01*
X1225319Y3149041D01*
X1225735Y3149596D01*
X1225873Y3149735D01*
X1244318Y3178026D01*
X1226705Y3204237D01*
X1225041Y3206872D01*
X1223793Y3209230D01*
X1222961Y3211310D01*
X1222268Y3212975D01*
X1221990Y3214361D01*
X1221852Y3215332D01*
X1221713Y3216026D01*
Y3216164D01*
X1221852Y3217412D01*
X1222129Y3218522D01*
X1222545Y3219493D01*
X1222961Y3220325D01*
X1223516Y3221018D01*
X1223932Y3221573D01*
X1224209Y3221850D01*
X1224348Y3221989D01*
X1225319Y3222821D01*
X1226428Y3223376D01*
X1227538Y3223931D01*
X1228508Y3224208D01*
X1229479Y3224347D01*
X1230173Y3224485D01*
X1230866D01*
X1232391Y3224347D01*
X1233640Y3224069D01*
X1234472Y3223792D01*
X1234610Y3223653D01*
X1234749D01*
X1235859Y3222960D01*
X1236829Y3222266D01*
X1237523Y3221712D01*
X1237800Y3221573D01*
Y3221434D01*
X1238771Y3220325D01*
X1239603Y3219215D01*
X1240158Y3218383D01*
X1240435Y3218106D01*
Y3217967D01*
X1241406Y3216442D01*
X1242099Y3215193D01*
X1242515Y3214639D01*
X1242654Y3214223D01*
X1242931Y3213945D01*
Y3213807D01*
X1256939Y3191756D01*
X1269420Y3213113D01*
X1270807Y3215332D01*
X1271916Y3217135D01*
X1273026Y3218661D01*
X1273997Y3219770D01*
X1274690Y3220741D01*
X1275245Y3221434D01*
X1275522Y3221712D01*
X1275661Y3221850D01*
X1276632Y3222682D01*
X1277741Y3223376D01*
X1278851Y3223792D01*
X1279960Y3224208D01*
X1280931Y3224347D01*
X1281763Y3224485D01*
X1282456D01*
X1283843Y3224347D01*
D02*
G37*
G36*
X1369689Y3222821D02*
X1371769Y3222544D01*
X1373294Y3221989D01*
X1374681Y3221434D01*
X1375791Y3220880D01*
X1376484Y3220325D01*
X1376900Y3220047D01*
X1377039Y3219909D01*
X1378010Y3218661D01*
X1378703Y3217135D01*
X1379258Y3215610D01*
X1379535Y3213945D01*
X1379813Y3212558D01*
X1379951Y3211449D01*
Y3210617D01*
Y3210478D01*
Y3210340D01*
Y3140443D01*
X1379813Y3138363D01*
X1379535Y3136560D01*
X1379119Y3134895D01*
X1378564Y3133647D01*
X1378148Y3132676D01*
X1377732Y3131844D01*
X1377455Y3131428D01*
X1377316Y3131290D01*
X1376207Y3130180D01*
X1374959Y3129487D01*
X1373572Y3128932D01*
X1372324Y3128516D01*
X1371214Y3128239D01*
X1370382Y3128100D01*
X1369550D01*
X1367886Y3128239D01*
X1366360Y3128516D01*
X1365112Y3129071D01*
X1364003Y3129625D01*
X1363032Y3130180D01*
X1362477Y3130735D01*
X1362061Y3131012D01*
X1361922Y3131151D01*
X1360952Y3132538D01*
X1360258Y3133925D01*
X1359703Y3135450D01*
X1359426Y3136976D01*
X1359149Y3138363D01*
X1359010Y3139472D01*
Y3140165D01*
Y3140443D01*
Y3168457D01*
X1352353D01*
X1350828Y3168318D01*
X1349579Y3168041D01*
X1348470Y3167902D01*
X1347499Y3167625D01*
X1346944Y3167347D01*
X1346528Y3167209D01*
X1346390D01*
X1345280Y3166654D01*
X1344171Y3165961D01*
X1343200Y3165267D01*
X1342229Y3164435D01*
X1341536Y3163742D01*
X1340981Y3163187D01*
X1340565Y3162771D01*
X1340426Y3162632D01*
X1339317Y3161384D01*
X1338069Y3159997D01*
X1336959Y3158610D01*
X1335850Y3157224D01*
X1335018Y3156114D01*
X1334324Y3155143D01*
X1333769Y3154589D01*
X1333631Y3154311D01*
X1326142Y3140304D01*
X1325171Y3138779D01*
X1324339Y3137392D01*
X1323507Y3136144D01*
X1322952Y3135311D01*
X1322536Y3134479D01*
X1322120Y3133925D01*
X1321843Y3133647D01*
Y3133509D01*
X1320595Y3131983D01*
X1319346Y3130735D01*
X1318792Y3130319D01*
X1318376Y3129903D01*
X1318098Y3129764D01*
X1317960Y3129625D01*
X1316989Y3129071D01*
X1316018Y3128793D01*
X1314215Y3128239D01*
X1313383D01*
X1312690Y3128100D01*
X1312135D01*
X1310055Y3128239D01*
X1309084Y3128516D01*
X1308390Y3128793D01*
X1307697Y3128932D01*
X1307281Y3129209D01*
X1307003Y3129348D01*
X1306865D01*
X1305339Y3130319D01*
X1304230Y3131290D01*
X1303536Y3132122D01*
X1303259Y3132260D01*
Y3132399D01*
X1302427Y3133925D01*
X1302011Y3135311D01*
X1301872Y3135866D01*
Y3136282D01*
Y3136560D01*
Y3136698D01*
X1302011Y3137530D01*
X1302150Y3138501D01*
X1302843Y3140720D01*
X1303259Y3141691D01*
X1303675Y3142523D01*
X1303814Y3143216D01*
X1303952Y3143355D01*
X1304785Y3145158D01*
X1305617Y3147100D01*
X1306587Y3148764D01*
X1307420Y3150428D01*
X1308252Y3151815D01*
X1308945Y3152924D01*
X1309361Y3153618D01*
X1309500Y3153895D01*
X1310887Y3155975D01*
X1312273Y3158056D01*
X1313522Y3159859D01*
X1314770Y3161523D01*
X1315879Y3162910D01*
X1316711Y3164019D01*
X1317405Y3164574D01*
X1317543Y3164851D01*
X1319208Y3166654D01*
X1320872Y3168041D01*
X1322397Y3169289D01*
X1323784Y3170121D01*
X1324894Y3170676D01*
X1325726Y3171092D01*
X1326419Y3171369D01*
X1326558D01*
X1322675Y3172201D01*
X1319208Y3173450D01*
X1316295Y3174698D01*
X1313938Y3176085D01*
X1311996Y3177471D01*
X1310609Y3178581D01*
X1310193Y3178997D01*
X1309777Y3179274D01*
X1309500Y3179552D01*
X1308390Y3180800D01*
X1307420Y3182187D01*
X1306033Y3184960D01*
X1304923Y3187873D01*
X1304091Y3190508D01*
X1303675Y3193004D01*
X1303536Y3193975D01*
Y3194807D01*
X1303398Y3195639D01*
Y3196194D01*
Y3196471D01*
Y3196610D01*
X1303536Y3198551D01*
X1303675Y3200354D01*
X1303952Y3202018D01*
X1304230Y3203405D01*
X1304646Y3204653D01*
X1304923Y3205624D01*
X1305062Y3206179D01*
X1305201Y3206456D01*
X1305894Y3208121D01*
X1306726Y3209785D01*
X1307697Y3211172D01*
X1308529Y3212281D01*
X1309222Y3213252D01*
X1309916Y3214084D01*
X1310332Y3214500D01*
X1310471Y3214639D01*
X1311719Y3215887D01*
X1313106Y3216996D01*
X1314354Y3217828D01*
X1315463Y3218522D01*
X1316434Y3219215D01*
X1317266Y3219631D01*
X1317821Y3219770D01*
X1317960Y3219909D01*
X1321149Y3221157D01*
X1322536Y3221573D01*
X1323923Y3221850D01*
X1325171Y3222128D01*
X1326003Y3222266D01*
X1326558Y3222405D01*
X1326835D01*
X1328638Y3222544D01*
X1330441Y3222682D01*
X1332244Y3222821D01*
X1333908Y3222960D01*
X1367470D01*
X1369689Y3222821D01*
D02*
G37*
%LPC*%
G36*
X3082499Y5379995D02*
X2977510D01*
X2989916D01*
X2988805Y5379810D01*
X2987323Y5379440D01*
X2985842Y5379070D01*
X2984176Y5378329D01*
X2982694Y5377218D01*
X2981213Y5375922D01*
X2981028Y5375737D01*
X2980657Y5375181D01*
X2980102Y5374255D01*
X2979361Y5372959D01*
X2978621Y5371293D01*
X2978065Y5369256D01*
X2977695Y5367034D01*
X2977510Y5364256D01*
Y5251305D01*
Y5268155D01*
X2977695Y5267229D01*
Y5266118D01*
X2977880Y5264822D01*
X2978250Y5263341D01*
X2979361Y5260193D01*
X2980287Y5258526D01*
X2981213Y5256860D01*
X2982509Y5255379D01*
X2983990Y5254082D01*
X2985657Y5252971D01*
X2987694Y5252046D01*
X2990101Y5251490D01*
X2992693Y5251305D01*
X2993989D01*
X2994915Y5251490D01*
X2997137Y5251860D01*
X2999359Y5252416D01*
X2999544D01*
X2999915Y5252601D01*
X3000285Y5252786D01*
X3001026Y5253157D01*
X3002877Y5254082D01*
X3004729Y5255564D01*
X3004914Y5255749D01*
X3005099Y5255934D01*
X3006210Y5257045D01*
X3007692Y5258526D01*
X3009173Y5260378D01*
Y5260563D01*
X3009543Y5260748D01*
X3009729Y5261304D01*
X3010284Y5262045D01*
X3011580Y5263896D01*
X3013062Y5266118D01*
X3056020Y5336481D01*
Y5267044D01*
Y5266674D01*
Y5265748D01*
X3056205Y5264452D01*
X3056576Y5262785D01*
X3056946Y5260934D01*
X3057687Y5258897D01*
X3058612Y5257045D01*
X3059909Y5255379D01*
X3060094Y5255193D01*
X3060649Y5254823D01*
X3061390Y5254082D01*
X3062501Y5253342D01*
X3063797Y5252601D01*
X3065464Y5251860D01*
X3067315Y5251490D01*
X3069352Y5251305D01*
X3082499D01*
X3070278D01*
X3071389Y5251490D01*
X3072870Y5251860D01*
X3074351Y5252231D01*
X3076018Y5252971D01*
X3077499Y5254082D01*
X3078981Y5255379D01*
X3079166Y5255564D01*
X3079536Y5256119D01*
X3080092Y5257045D01*
X3080647Y5258341D01*
X3081388Y5260008D01*
X3081943Y5261859D01*
X3082314Y5264267D01*
X3082499Y5266859D01*
Y5362590D01*
X3082314Y5363886D01*
X3081943Y5367034D01*
X3081573Y5368700D01*
X3081203Y5369996D01*
X3081017Y5370182D01*
X3080832Y5370737D01*
X3080462Y5371663D01*
X3079721Y5372589D01*
X3078981Y5373885D01*
X3077870Y5374996D01*
X3076759Y5376107D01*
X3075277Y5377218D01*
X3075092Y5377403D01*
X3074537Y5377588D01*
X3073796Y5378144D01*
X3072685Y5378699D01*
X3071389Y5379070D01*
X3069908Y5379625D01*
X3068241Y5379810D01*
X3066575Y5379995D01*
X3082499D01*
D02*
G37*
%LPD*%
G36*
X3064353Y5379810D02*
X3062316Y5379440D01*
X3060279Y5378699D01*
X3060094D01*
X3059723Y5378514D01*
X3058612Y5377773D01*
X3057131Y5376662D01*
X3055465Y5375366D01*
X3055279D01*
X3055094Y5374996D01*
X3054168Y5374070D01*
X3052872Y5372404D01*
X3051576Y5370367D01*
Y5370182D01*
X3051206Y5369811D01*
X3050835Y5369256D01*
X3050280Y5368515D01*
X3048984Y5366478D01*
X3047502Y5364071D01*
X3003618Y5293893D01*
Y5364256D01*
Y5364627D01*
Y5365552D01*
X3003433Y5366849D01*
X3003248Y5368515D01*
X3002877Y5370367D01*
X3002137Y5372404D01*
X3001396Y5374255D01*
X3000285Y5375922D01*
X3000100Y5376107D01*
X2999544Y5376477D01*
X2998804Y5377218D01*
X2997693Y5377959D01*
X2996397Y5378699D01*
X2994730Y5379440D01*
X2992878Y5379810D01*
X2990842Y5379995D01*
X3065278D01*
X3064353Y5379810D01*
D02*
G37*
%LPC*%
G36*
X1797965Y5379994D02*
X1702049D01*
D01*
X1745748D01*
X1744452Y5379808D01*
X1741304Y5379623D01*
X1737786Y5379438D01*
X1734082Y5379068D01*
X1730379Y5378327D01*
X1727231Y5377586D01*
X1726861D01*
X1725935Y5377216D01*
X1724454Y5376661D01*
X1722602Y5375920D01*
X1720565Y5374994D01*
X1718158Y5373698D01*
X1715936Y5372217D01*
X1713714Y5370365D01*
X1713529Y5370180D01*
X1712788Y5369439D01*
X1711677Y5368328D01*
X1710381Y5367032D01*
X1709085Y5365180D01*
X1707604Y5362958D01*
X1706307Y5360551D01*
X1705011Y5357959D01*
X1704826Y5357588D01*
X1704456Y5356663D01*
X1704085Y5355181D01*
X1703530Y5353330D01*
X1702974Y5350922D01*
X1702419Y5348145D01*
X1702234Y5345182D01*
X1702049Y5341849D01*
Y5345182D01*
Y5341849D01*
Y5339998D01*
X1702234Y5338702D01*
X1702419Y5337035D01*
X1702604Y5335183D01*
X1702974Y5333147D01*
X1703530Y5330925D01*
X1705011Y5326295D01*
X1705937Y5323888D01*
X1707048Y5321481D01*
X1708529Y5319074D01*
X1710196Y5316667D01*
X1712048Y5314630D01*
X1714084Y5312593D01*
X1714270Y5312408D01*
X1714640Y5312223D01*
X1715381Y5311667D01*
X1716306Y5311112D01*
X1717603Y5310371D01*
X1719084Y5309445D01*
X1720936Y5308519D01*
X1722972Y5307594D01*
X1725380Y5306668D01*
X1727972Y5305742D01*
X1730935Y5305001D01*
X1734082Y5304075D01*
X1737601Y5303520D01*
X1741304Y5302965D01*
X1745192Y5302779D01*
X1749451Y5302594D01*
X1770005D01*
Y5269820D01*
Y5269449D01*
Y5268524D01*
X1770190Y5267042D01*
X1770560Y5265376D01*
X1770930Y5263339D01*
X1771671Y5261302D01*
X1772782Y5259265D01*
X1774078Y5257599D01*
X1774263Y5257414D01*
X1774819Y5256858D01*
X1775560Y5256303D01*
X1776856Y5255562D01*
X1778152Y5254636D01*
X1780004Y5254081D01*
X1781855Y5253525D01*
X1784077Y5253340D01*
X1785188D01*
X1786299Y5253525D01*
X1787781Y5253896D01*
X1789262Y5254451D01*
X1791114Y5255192D01*
X1792780Y5256118D01*
X1794261Y5257599D01*
X1794447Y5257784D01*
X1794817Y5258339D01*
X1795372Y5259450D01*
X1796113Y5260747D01*
X1796854Y5262413D01*
X1797409Y5264450D01*
X1797779Y5266857D01*
X1797965Y5269635D01*
Y5258339D01*
Y5364625D01*
X1797779Y5366106D01*
X1797409Y5368143D01*
X1797039Y5370180D01*
X1796298Y5372217D01*
X1795187Y5374253D01*
X1793891Y5375920D01*
X1793706Y5376105D01*
X1793150Y5376475D01*
X1792039Y5377216D01*
X1790743Y5377957D01*
X1788892Y5378697D01*
X1786670Y5379438D01*
X1783892Y5379808D01*
X1780929Y5379994D01*
X1797965D01*
D02*
G37*
%LPD*%
G36*
X1770005Y5324444D02*
X1753895D01*
X1752414Y5324629D01*
X1750377D01*
X1748155Y5324814D01*
X1745933Y5325184D01*
X1743711Y5325555D01*
X1741489Y5326110D01*
X1741304D01*
X1740563Y5326481D01*
X1739637Y5326851D01*
X1738341Y5327406D01*
X1735564Y5329073D01*
X1734268Y5330184D01*
X1733157Y5331480D01*
X1732971Y5331665D01*
X1732786Y5332221D01*
X1732231Y5332961D01*
X1731675Y5334072D01*
X1731305Y5335554D01*
X1730749Y5337220D01*
X1730564Y5339072D01*
X1730379Y5341294D01*
Y5341664D01*
Y5342590D01*
X1730564Y5343886D01*
X1730935Y5345553D01*
X1731490Y5347404D01*
X1732231Y5349441D01*
X1733342Y5351293D01*
X1734823Y5353144D01*
X1735008Y5353330D01*
X1735749Y5353885D01*
X1737230Y5354811D01*
X1739267Y5355737D01*
X1740563Y5356107D01*
X1741859Y5356477D01*
X1743711Y5357033D01*
X1745563Y5357403D01*
X1747600Y5357774D01*
X1750007Y5357959D01*
X1752599Y5358144D01*
X1770005D01*
Y5324444D01*
D02*
G37*
%LPC*%
G36*
X866651Y3455902D02*
X855972D01*
X853060Y3455763D01*
X850286Y3455624D01*
X847929Y3455347D01*
X845987Y3455070D01*
X844323Y3454653D01*
X843075Y3454376D01*
X842381Y3454237D01*
X842104Y3454099D01*
X840024Y3453267D01*
X838221Y3452018D01*
X836557Y3450770D01*
X835170Y3449383D01*
X834060Y3447997D01*
X833228Y3446887D01*
X832673Y3446194D01*
X832535Y3446055D01*
Y3445916D01*
X831841Y3444668D01*
X831287Y3443281D01*
X830316Y3440230D01*
X829622Y3437041D01*
X829068Y3433851D01*
X828790Y3430939D01*
Y3429690D01*
X828652Y3428720D01*
Y3427749D01*
Y3427055D01*
Y3426639D01*
Y3426501D01*
X828790Y3423172D01*
X829068Y3420121D01*
X829484Y3417209D01*
X830038Y3414574D01*
X830871Y3412216D01*
X831564Y3409997D01*
X832396Y3408194D01*
X833228Y3406391D01*
X834199Y3404866D01*
X835031Y3403618D01*
X835725Y3402508D01*
X836418Y3401676D01*
X837111Y3400983D01*
X837527Y3400567D01*
X837805Y3400289D01*
X837943Y3400151D01*
X839192Y3399319D01*
X840578Y3398625D01*
X841133Y3398348D01*
X841688Y3398070D01*
X841965Y3397932D01*
X842104D01*
X843907Y3397377D01*
X845571Y3397100D01*
X846126Y3396961D01*
X846681Y3396822D01*
X848067D01*
X849177Y3396684D01*
X866651D01*
Y3455902D01*
D02*
G37*
G36*
X881282Y3208537D02*
X881005D01*
X879202Y3208398D01*
X877538Y3207982D01*
X876151Y3207427D01*
X875041Y3206872D01*
X874209Y3206179D01*
X873516Y3205624D01*
X873100Y3205208D01*
X872961Y3205070D01*
X871852Y3203683D01*
X871020Y3202018D01*
X870187Y3200354D01*
X869633Y3198690D01*
X869217Y3197165D01*
X868939Y3195916D01*
X868662Y3195084D01*
Y3194946D01*
Y3194807D01*
X868246Y3192033D01*
X867830Y3188982D01*
X867552Y3186070D01*
X867414Y3183157D01*
X867275Y3180522D01*
Y3179413D01*
Y3178442D01*
Y3177749D01*
Y3177194D01*
Y3176778D01*
Y3176639D01*
Y3172479D01*
X867552Y3168734D01*
X867691Y3165406D01*
X867969Y3162771D01*
X868107Y3161523D01*
X868246Y3160552D01*
X868385Y3159720D01*
Y3158888D01*
X868523Y3158333D01*
X868662Y3157917D01*
Y3157778D01*
Y3157640D01*
X869217Y3155143D01*
X869771Y3152924D01*
X870465Y3151121D01*
X871158Y3149596D01*
X871852Y3148348D01*
X872406Y3147516D01*
X872684Y3146961D01*
X872822Y3146822D01*
X873932Y3145713D01*
X875319Y3144881D01*
X876706Y3144187D01*
X877954Y3143771D01*
X879063Y3143494D01*
X880034Y3143355D01*
X880866D01*
X882530Y3143494D01*
X884056Y3143910D01*
X885443Y3144465D01*
X886552Y3145019D01*
X887384Y3145574D01*
X888078Y3146129D01*
X888494Y3146545D01*
X888632Y3146684D01*
X889603Y3148070D01*
X890574Y3149735D01*
X891267Y3151538D01*
X891822Y3153202D01*
X892238Y3154866D01*
X892516Y3156114D01*
X892793Y3156946D01*
Y3157085D01*
Y3157224D01*
X893209Y3160136D01*
X893486Y3163187D01*
X893764Y3166377D01*
X893902Y3169428D01*
Y3172063D01*
X894041Y3173172D01*
Y3174143D01*
Y3174975D01*
Y3175530D01*
Y3175946D01*
Y3176085D01*
Y3179136D01*
X893902Y3182048D01*
X893764Y3184683D01*
X893625Y3187041D01*
X893348Y3189260D01*
X893070Y3191340D01*
X892793Y3193143D01*
X892516Y3194807D01*
X892377Y3196194D01*
X892100Y3197442D01*
X891822Y3198413D01*
X891545Y3199245D01*
X891406Y3199938D01*
X891267Y3200354D01*
X891129Y3200632D01*
Y3200770D01*
X890574Y3202157D01*
X889881Y3203405D01*
X889049Y3204376D01*
X888216Y3205208D01*
X886552Y3206595D01*
X884888Y3207566D01*
X883362Y3208121D01*
X882114Y3208398D01*
X881282Y3208537D01*
D02*
G37*
G36*
X972120Y3207427D02*
X971288D01*
X968653Y3207288D01*
X966157Y3206872D01*
X963938Y3206318D01*
X961996Y3205624D01*
X960471Y3204931D01*
X959223Y3204376D01*
X958529Y3203960D01*
X958252Y3203821D01*
X956172Y3202296D01*
X954507Y3200632D01*
X952982Y3198829D01*
X951734Y3197165D01*
X950763Y3195639D01*
X950069Y3194252D01*
X949653Y3193420D01*
X949515Y3193281D01*
Y3193143D01*
X948405Y3190508D01*
X947712Y3187595D01*
X947157Y3184822D01*
X946741Y3182187D01*
X946464Y3179968D01*
Y3178997D01*
X946325Y3178165D01*
Y3177471D01*
Y3176917D01*
Y3176639D01*
Y3176501D01*
X946464Y3172756D01*
X946880Y3169289D01*
X947434Y3166238D01*
X947989Y3163742D01*
X948683Y3161661D01*
X948960Y3160829D01*
X949237Y3160136D01*
X949515Y3159581D01*
X949653Y3159165D01*
X949792Y3159026D01*
Y3158888D01*
X951179Y3156391D01*
X952566Y3154311D01*
X954091Y3152508D01*
X955478Y3150983D01*
X956865Y3149873D01*
X957836Y3149180D01*
X958529Y3148625D01*
X958807Y3148486D01*
X960887Y3147377D01*
X963106Y3146545D01*
X965047Y3145990D01*
X966989Y3145574D01*
X968653Y3145297D01*
X969901Y3145158D01*
X971011D01*
X972952Y3145297D01*
X974755Y3145435D01*
X976281Y3145713D01*
X977806Y3146129D01*
X978916Y3146406D01*
X979887Y3146684D01*
X980441Y3146822D01*
X980580Y3146961D01*
X982105Y3147793D01*
X983631Y3148764D01*
X984879Y3149596D01*
X986127Y3150567D01*
X986959Y3151399D01*
X987792Y3152092D01*
X988208Y3152647D01*
X988346Y3152786D01*
X989456Y3154311D01*
X990565Y3155975D01*
X991536Y3157640D01*
X992229Y3159304D01*
X992784Y3160691D01*
X993200Y3161800D01*
X993478Y3162494D01*
X993616Y3162771D01*
X994171Y3165129D01*
X994587Y3167486D01*
X995003Y3169844D01*
X995142Y3171924D01*
X995280Y3173727D01*
X995419Y3175252D01*
Y3175807D01*
Y3176223D01*
Y3176362D01*
Y3176501D01*
X995280Y3179274D01*
X995142Y3181771D01*
X994864Y3183990D01*
X994448Y3186070D01*
X994171Y3187734D01*
X993894Y3188844D01*
X993755Y3189676D01*
X993616Y3189953D01*
X992784Y3192033D01*
X991952Y3193975D01*
X991120Y3195639D01*
X990288Y3197026D01*
X989594Y3198135D01*
X989040Y3198967D01*
X988624Y3199522D01*
X988485Y3199661D01*
X987237Y3201048D01*
X985989Y3202157D01*
X984740Y3203128D01*
X983492Y3203960D01*
X982522Y3204515D01*
X981689Y3204931D01*
X981135Y3205208D01*
X980996Y3205347D01*
X979332Y3206040D01*
X977668Y3206595D01*
X976003Y3206872D01*
X974478Y3207150D01*
X973230Y3207288D01*
X972120Y3207427D01*
D02*
G37*
G36*
X1359010Y3206595D02*
X1340288D01*
X1337653Y3206318D01*
X1335434Y3206179D01*
X1333769Y3205902D01*
X1332521Y3205624D01*
X1331689Y3205486D01*
X1331273Y3205208D01*
X1331134D01*
X1329054Y3204099D01*
X1328361Y3203405D01*
X1327667Y3202851D01*
X1327113Y3202296D01*
X1326697Y3201741D01*
X1326558Y3201464D01*
X1326419Y3201325D01*
X1325865Y3200354D01*
X1325310Y3199383D01*
X1324894Y3197442D01*
X1324755Y3196748D01*
X1324616Y3196055D01*
Y3195639D01*
Y3195500D01*
X1324755Y3193975D01*
X1324894Y3192588D01*
X1325310Y3191340D01*
X1325726Y3190369D01*
X1326142Y3189537D01*
X1326419Y3188982D01*
X1326697Y3188705D01*
X1326835Y3188566D01*
X1327667Y3187734D01*
X1328638Y3187041D01*
X1330857Y3185931D01*
X1331689Y3185515D01*
X1332521Y3185376D01*
X1333076Y3185099D01*
X1333215D01*
X1334879Y3184822D01*
X1336682Y3184544D01*
X1338485Y3184406D01*
X1340149Y3184267D01*
X1341674Y3184128D01*
X1359010D01*
Y3206595D01*
D02*
G37*
%LPD*%
D42*
X400137Y4939700D02*
G03*
X400137Y4939700I-7237J0D01*
G01*
X685000Y4600000D02*
G03*
X685000Y4600000I-285000J0D01*
G01*
X6400000Y997200D02*
Y1597200D01*
X5800000Y997200D02*
X6400000D01*
X5800000Y1597200D02*
X6400000D01*
D43*
X5962500Y5774759D02*
G03*
X6474759Y5262500I187500J-324760D01*
G01*
Y537500D02*
G03*
X5962500Y25240I-324760J-187500D01*
G01*
X537500D02*
G03*
X25240Y537500I-187500J324760D01*
G01*
Y5262500D02*
G03*
X537500Y5774759I324760J187500D01*
G01*
X4274565Y1531595D02*
X4325349D01*
X4299957D01*
Y1404637D01*
X4325349Y1379245D01*
X4350741D01*
X4376132Y1404637D01*
X4223782Y1531595D02*
Y1379245D01*
X4122215D01*
X3969864Y1506203D02*
X3995256Y1531595D01*
X4046039D01*
X4071431Y1506203D01*
Y1404637D01*
X4046039Y1379245D01*
X3995256D01*
X3969864Y1404637D01*
X3817513Y1531595D02*
X3868297D01*
X3842905D01*
Y1404637D01*
X3868297Y1379245D01*
X3893688D01*
X3919080Y1404637D01*
X3766730Y1531595D02*
Y1379245D01*
X3665162D01*
X3512812Y1506203D02*
X3538203Y1531595D01*
X3588987D01*
X3614379Y1506203D01*
Y1404637D01*
X3588987Y1379245D01*
X3538203D01*
X3512812Y1404637D01*
X3360461Y1531595D02*
X3411245D01*
X3385853D01*
Y1404637D01*
X3411245Y1379245D01*
X3436636D01*
X3462028Y1404637D01*
X3309677Y1531595D02*
Y1379245D01*
X3208110D01*
X3055759Y1506203D02*
X3081151Y1531595D01*
X3131935D01*
X3157327Y1506203D01*
Y1404637D01*
X3131935Y1379245D01*
X3081151D01*
X3055759Y1404637D01*
X2903409Y1531595D02*
X2954192D01*
X2928801D01*
Y1404637D01*
X2954192Y1379245D01*
X2979584D01*
X3004976Y1404637D01*
X2852625Y1531595D02*
Y1379245D01*
X2751058D01*
X2598707Y1506203D02*
X2624099Y1531595D01*
X2674883D01*
X2700275Y1506203D01*
Y1404637D01*
X2674883Y1379245D01*
X2624099D01*
X2598707Y1404637D01*
D44*
X6064707Y1257548D02*
X6166040Y1300000D01*
X5800000Y997200D02*
Y1597200D01*
X6230000Y1548660D02*
X6230000Y1058440D01*
X5965000D02*
Y1548660D01*
X6166040Y1300000D02*
X6230000D01*
X5965000D02*
X6064707D01*
D45*
X473657Y4271045D02*
Y4210105D01*
X443187D01*
X433031Y4220262D01*
Y4260889D01*
X443187Y4271045D01*
X473657D01*
X372090Y4260889D02*
X382247Y4271045D01*
X402561D01*
X412717Y4260889D01*
Y4250732D01*
X402561Y4240575D01*
X382247D01*
X372090Y4230419D01*
Y4220262D01*
X382247Y4210105D01*
X402561D01*
X412717Y4220262D01*
X351777Y4210105D02*
X331464D01*
X341620D01*
Y4271045D01*
X351777Y4260889D01*
X2549084Y5610890D02*
Y5549950D01*
X2518613D01*
X2508457Y5560106D01*
Y5570263D01*
X2518613Y5580420D01*
X2549084D01*
X2518613D01*
X2508457Y5590576D01*
Y5600733D01*
X2518613Y5610890D01*
X2549084D01*
X2488143Y5549950D02*
Y5590576D01*
X2467830Y5610890D01*
X2447517Y5590576D01*
Y5549950D01*
Y5580420D01*
X2488143D01*
X2427203Y5610890D02*
X2386576D01*
X2406890D01*
Y5549950D01*
X2366263Y5610890D02*
X2325636D01*
X2345950D01*
Y5549950D01*
X5771804Y1145562D02*
Y1104935D01*
X5741333D01*
Y1125249D01*
Y1104935D01*
X5710863D01*
Y1165875D02*
X5751490D01*
X5771804Y1186189D01*
X5751490Y1206502D01*
X5710863D01*
X5741333D01*
Y1165875D01*
X5761647Y1267442D02*
X5771804Y1257286D01*
Y1236972D01*
X5761647Y1226816D01*
X5721020D01*
X5710863Y1236972D01*
Y1257286D01*
X5721020Y1267442D01*
X5771804Y1287756D02*
Y1328383D01*
Y1308069D01*
X5710863D01*
X5771804Y1379166D02*
Y1358853D01*
X5761647Y1348696D01*
X5721020D01*
X5710863Y1358853D01*
Y1379166D01*
X5721020Y1389323D01*
X5761647D01*
X5771804Y1379166D01*
X5710863Y1409636D02*
X5771804D01*
Y1440106D01*
X5761647Y1450263D01*
X5741333D01*
X5731177Y1440106D01*
Y1409636D01*
Y1429950D02*
X5710863Y1450263D01*
X5771804Y1470576D02*
X5761647D01*
X5741333Y1490890D01*
X5761647Y1511203D01*
X5771804D01*
X5741333Y1490890D02*
X5710863D01*
X650162Y3904089D02*
X690788D01*
Y3843149D01*
X650162D01*
X690788Y3873619D02*
X670475D01*
X589221Y3893932D02*
X599378Y3904089D01*
X619691D01*
X629848Y3893932D01*
Y3883776D01*
X619691Y3873619D01*
X599378D01*
X589221Y3863462D01*
Y3853305D01*
X599378Y3843149D01*
X619691D01*
X629848Y3853305D01*
X568908Y3843149D02*
Y3904089D01*
X538438D01*
X528281Y3893932D01*
Y3873619D01*
X538438Y3863462D01*
X568908D01*
X507968Y3832992D02*
X467341D01*
X447028Y3843149D02*
Y3904089D01*
X416557D01*
X406401Y3893932D01*
Y3873619D01*
X416557Y3863462D01*
X447028D01*
X386087Y3843149D02*
Y3904089D01*
X355617D01*
X345461Y3893932D01*
Y3873619D01*
X355617Y3863462D01*
X386087D01*
X365774D02*
X345461Y3843149D01*
X294677Y3904089D02*
X314990D01*
X325147Y3893932D01*
Y3853305D01*
X314990Y3843149D01*
X294677D01*
X284520Y3853305D01*
Y3893932D01*
X294677Y3904089D01*
X223580Y3893932D02*
X233737Y3904089D01*
X254050D01*
X264207Y3893932D01*
Y3853305D01*
X254050Y3843149D01*
X233737D01*
X223580Y3853305D01*
Y3873619D01*
X243894D01*
%TF.MD5,43a1a985e468a5e1b1acd6ba857fb730*%
M02*
