%TF.GenerationSoftware,Altium Limited,Altium Designer,20.1.8 (145)*%
G04 Layer_Color=39423*
%FSLAX45Y45*%
%MOMM*%
%TF.SameCoordinates,106D5BB1-83B8-4C97-8579-1C7B844FC3FF*%
%TF.FilePolarity,Negative*%
%TF.FileFunction,Soldermask,Top*%
%TF.Part,Single*%
G01*
G75*
%TA.AperFunction,ViaPad*%
%ADD30C,3.60000*%
%TA.AperFunction,ComponentPad*%
%ADD38C,1.57600*%
%ADD39C,1.60000*%
G04:AMPARAMS|DCode=40|XSize=1.6mm|YSize=1.6mm|CornerRadius=0.2285mm|HoleSize=0mm|Usage=FLASHONLY|Rotation=0.000|XOffset=0mm|YOffset=0mm|HoleType=Round|Shape=RoundedRectangle|*
%AMROUNDEDRECTD40*
21,1,1.60000,1.14300,0,0,0.0*
21,1,1.14300,1.60000,0,0,0.0*
1,1,0.45700,0.57150,-0.57150*
1,1,0.45700,-0.57150,-0.57150*
1,1,0.45700,-0.57150,0.57150*
1,1,0.45700,0.57150,0.57150*
%
%ADD40ROUNDEDRECTD40*%
G04:AMPARAMS|DCode=41|XSize=1.576mm|YSize=1.526mm|CornerRadius=0.21925mm|HoleSize=0mm|Usage=FLASHONLY|Rotation=180.000|XOffset=0mm|YOffset=0mm|HoleType=Round|Shape=RoundedRectangle|*
%AMROUNDEDRECTD41*
21,1,1.57600,1.08750,0,0,180.0*
21,1,1.13750,1.52600,0,0,180.0*
1,1,0.43850,-0.56875,0.54375*
1,1,0.43850,0.56875,0.54375*
1,1,0.43850,0.56875,-0.54375*
1,1,0.43850,-0.56875,-0.54375*
%
%ADD41ROUNDEDRECTD41*%
%ADD42O,1.57600X1.52600*%
%TA.AperFunction,SMDPad,CuDef*%
%ADD49O,1.47600X0.52600*%
G04:AMPARAMS|DCode=50|XSize=0.926mm|YSize=0.976mm|CornerRadius=0.0805mm|HoleSize=0mm|Usage=FLASHONLY|Rotation=270.000|XOffset=0mm|YOffset=0mm|HoleType=Round|Shape=RoundedRectangle|*
%AMROUNDEDRECTD50*
21,1,0.92600,0.81500,0,0,270.0*
21,1,0.76500,0.97600,0,0,270.0*
1,1,0.16100,-0.40750,-0.38250*
1,1,0.16100,-0.40750,0.38250*
1,1,0.16100,0.40750,0.38250*
1,1,0.16100,0.40750,-0.38250*
%
%ADD50ROUNDEDRECTD50*%
%ADD51C,1.07600*%
G04:AMPARAMS|DCode=52|XSize=0.676mm|YSize=0.976mm|CornerRadius=0.068mm|HoleSize=0mm|Usage=FLASHONLY|Rotation=90.000|XOffset=0mm|YOffset=0mm|HoleType=Round|Shape=RoundedRectangle|*
%AMROUNDEDRECTD52*
21,1,0.67600,0.84000,0,0,90.0*
21,1,0.54000,0.97600,0,0,90.0*
1,1,0.13600,0.42000,0.27000*
1,1,0.13600,0.42000,-0.27000*
1,1,0.13600,-0.42000,-0.27000*
1,1,0.13600,-0.42000,0.27000*
%
%ADD52ROUNDEDRECTD52*%
G04:AMPARAMS|DCode=53|XSize=0.676mm|YSize=0.976mm|CornerRadius=0.068mm|HoleSize=0mm|Usage=FLASHONLY|Rotation=0.000|XOffset=0mm|YOffset=0mm|HoleType=Round|Shape=RoundedRectangle|*
%AMROUNDEDRECTD53*
21,1,0.67600,0.84000,0,0,0.0*
21,1,0.54000,0.97600,0,0,0.0*
1,1,0.13600,0.27000,-0.42000*
1,1,0.13600,-0.27000,-0.42000*
1,1,0.13600,-0.27000,0.42000*
1,1,0.13600,0.27000,0.42000*
%
%ADD53ROUNDEDRECTD53*%
G04:AMPARAMS|DCode=54|XSize=0.326mm|YSize=0.626mm|CornerRadius=0.0505mm|HoleSize=0mm|Usage=FLASHONLY|Rotation=0.000|XOffset=0mm|YOffset=0mm|HoleType=Round|Shape=RoundedRectangle|*
%AMROUNDEDRECTD54*
21,1,0.32600,0.52500,0,0,0.0*
21,1,0.22500,0.62600,0,0,0.0*
1,1,0.10100,0.11250,-0.26250*
1,1,0.10100,-0.11250,-0.26250*
1,1,0.10100,-0.11250,0.26250*
1,1,0.10100,0.11250,0.26250*
%
%ADD54ROUNDEDRECTD54*%
G04:AMPARAMS|DCode=55|XSize=1.351mm|YSize=0.976mm|CornerRadius=0.083mm|HoleSize=0mm|Usage=FLASHONLY|Rotation=180.000|XOffset=0mm|YOffset=0mm|HoleType=Round|Shape=RoundedRectangle|*
%AMROUNDEDRECTD55*
21,1,1.35100,0.81000,0,0,180.0*
21,1,1.18500,0.97600,0,0,180.0*
1,1,0.16600,-0.59250,0.40500*
1,1,0.16600,0.59250,0.40500*
1,1,0.16600,0.59250,-0.40500*
1,1,0.16600,-0.59250,-0.40500*
%
%ADD55ROUNDEDRECTD55*%
G04:AMPARAMS|DCode=56|XSize=0.926mm|YSize=0.926mm|CornerRadius=0.0805mm|HoleSize=0mm|Usage=FLASHONLY|Rotation=90.000|XOffset=0mm|YOffset=0mm|HoleType=Round|Shape=RoundedRectangle|*
%AMROUNDEDRECTD56*
21,1,0.92600,0.76500,0,0,90.0*
21,1,0.76500,0.92600,0,0,90.0*
1,1,0.16100,0.38250,0.38250*
1,1,0.16100,0.38250,-0.38250*
1,1,0.16100,-0.38250,-0.38250*
1,1,0.16100,-0.38250,0.38250*
%
%ADD56ROUNDEDRECTD56*%
G04:AMPARAMS|DCode=57|XSize=0.926mm|YSize=0.926mm|CornerRadius=0.0805mm|HoleSize=0mm|Usage=FLASHONLY|Rotation=0.000|XOffset=0mm|YOffset=0mm|HoleType=Round|Shape=RoundedRectangle|*
%AMROUNDEDRECTD57*
21,1,0.92600,0.76500,0,0,0.0*
21,1,0.76500,0.92600,0,0,0.0*
1,1,0.16100,0.38250,-0.38250*
1,1,0.16100,-0.38250,-0.38250*
1,1,0.16100,-0.38250,0.38250*
1,1,0.16100,0.38250,0.38250*
%
%ADD57ROUNDEDRECTD57*%
%ADD58O,0.52600X1.47600*%
%TA.AperFunction,ConnectorPad*%
G04:AMPARAMS|DCode=59|XSize=1.176mm|YSize=2.376mm|CornerRadius=0.0435mm|HoleSize=0mm|Usage=FLASHONLY|Rotation=270.000|XOffset=0mm|YOffset=0mm|HoleType=Round|Shape=RoundedRectangle|*
%AMROUNDEDRECTD59*
21,1,1.17600,2.28900,0,0,270.0*
21,1,1.08900,2.37600,0,0,270.0*
1,1,0.08700,-1.14450,-0.54450*
1,1,0.08700,-1.14450,0.54450*
1,1,0.08700,1.14450,0.54450*
1,1,0.08700,1.14450,-0.54450*
%
%ADD59ROUNDEDRECTD59*%
G04:AMPARAMS|DCode=60|XSize=1.176mm|YSize=2.376mm|CornerRadius=0.0435mm|HoleSize=0mm|Usage=FLASHONLY|Rotation=0.000|XOffset=0mm|YOffset=0mm|HoleType=Round|Shape=RoundedRectangle|*
%AMROUNDEDRECTD60*
21,1,1.17600,2.28900,0,0,0.0*
21,1,1.08900,2.37600,0,0,0.0*
1,1,0.08700,0.54450,-1.14450*
1,1,0.08700,-0.54450,-1.14450*
1,1,0.08700,-0.54450,1.14450*
1,1,0.08700,0.54450,1.14450*
%
%ADD60ROUNDEDRECTD60*%
%TA.AperFunction,SMDPad,CuDef*%
G04:AMPARAMS|DCode=61|XSize=2.176mm|YSize=1.076mm|CornerRadius=0.088mm|HoleSize=0mm|Usage=FLASHONLY|Rotation=180.000|XOffset=0mm|YOffset=0mm|HoleType=Round|Shape=RoundedRectangle|*
%AMROUNDEDRECTD61*
21,1,2.17600,0.90000,0,0,180.0*
21,1,2.00000,1.07600,0,0,180.0*
1,1,0.17600,-1.00000,0.45000*
1,1,0.17600,1.00000,0.45000*
1,1,0.17600,1.00000,-0.45000*
1,1,0.17600,-1.00000,-0.45000*
%
%ADD61ROUNDEDRECTD61*%
G04:AMPARAMS|DCode=62|XSize=0.676mm|YSize=1.126mm|CornerRadius=0.068mm|HoleSize=0mm|Usage=FLASHONLY|Rotation=180.000|XOffset=0mm|YOffset=0mm|HoleType=Round|Shape=RoundedRectangle|*
%AMROUNDEDRECTD62*
21,1,0.67600,0.99000,0,0,180.0*
21,1,0.54000,1.12600,0,0,180.0*
1,1,0.13600,-0.27000,0.49500*
1,1,0.13600,0.27000,0.49500*
1,1,0.13600,0.27000,-0.49500*
1,1,0.13600,-0.27000,-0.49500*
%
%ADD62ROUNDEDRECTD62*%
D30*
X2800000Y1700000D02*
D03*
X200000Y800000D02*
D03*
Y2600000D02*
D03*
X5400000D02*
D03*
Y800000D02*
D03*
D38*
X5080000Y2667000D02*
D03*
X127000Y2286000D02*
D03*
X5461000Y2032000D02*
D03*
Y1778000D02*
D03*
X2032000Y2667000D02*
D03*
X1778000D02*
D03*
X127000Y2032000D02*
D03*
D39*
X3308000Y2500000D02*
D03*
X3054000D02*
D03*
X2800000D02*
D03*
X2367280Y242570D02*
D03*
D40*
X2546000Y2500000D02*
D03*
X2621280Y242570D02*
D03*
D41*
X1540004Y247460D02*
D03*
X2693799Y1009917D02*
D03*
D42*
X1286004Y247460D02*
D03*
X1032004D02*
D03*
X778004D02*
D03*
X524004D02*
D03*
Y501460D02*
D03*
X778004D02*
D03*
X1032004D02*
D03*
X1286004D02*
D03*
X1540004D02*
D03*
X2947799Y1009918D02*
D03*
X3201799Y1009917D02*
D03*
Y1263917D02*
D03*
X2947799Y1263917D02*
D03*
X2693799Y1263917D02*
D03*
D49*
X1522800Y1928660D02*
D03*
Y1863660D02*
D03*
Y1798660D02*
D03*
Y1733660D02*
D03*
Y2058660D02*
D03*
Y1993660D02*
D03*
Y1668660D02*
D03*
X2112800Y2058660D02*
D03*
Y1993660D02*
D03*
Y1928660D02*
D03*
Y1863660D02*
D03*
Y1798660D02*
D03*
Y1733660D02*
D03*
Y1668660D02*
D03*
D50*
X2112810Y1504400D02*
D03*
X2247810D02*
D03*
X1734620D02*
D03*
X1869620D02*
D03*
X3630225Y2531241D02*
D03*
X3495225D02*
D03*
X2058205Y218440D02*
D03*
X2193205D02*
D03*
X2129370Y1163320D02*
D03*
X2264370Y1163320D02*
D03*
X5417191Y2275629D02*
D03*
X5282192D02*
D03*
X1237620Y683268D02*
D03*
X1102620D02*
D03*
D51*
X2129370Y1304557D02*
D03*
X2160704Y2205578D02*
D03*
X2517140Y818916D02*
D03*
X1787187Y109220D02*
D03*
X1754344Y501460D02*
D03*
D52*
X1663000Y1325600D02*
D03*
Y1135600D02*
D03*
X1893000Y1230600D02*
D03*
D53*
X2595880Y408660D02*
D03*
X2500880Y638660D02*
D03*
X2690880D02*
D03*
X2337150Y589061D02*
D03*
X2147150D02*
D03*
X2242150Y359061D02*
D03*
D54*
X326868Y1251364D02*
D03*
X276868D02*
D03*
X226868D02*
D03*
Y1396364D02*
D03*
X276868D02*
D03*
X326868D02*
D03*
D55*
X1968491Y591980D02*
D03*
Y416740D02*
D03*
D56*
X1997419Y2406359D02*
D03*
X2127419D02*
D03*
X3159414Y1573089D02*
D03*
X3289414D02*
D03*
X3159414Y1962609D02*
D03*
X3289414D02*
D03*
Y1702929D02*
D03*
X3159414D02*
D03*
X3289414Y1832769D02*
D03*
X3159414D02*
D03*
X354328Y1627632D02*
D03*
X224328D02*
D03*
X224327Y1757277D02*
D03*
X354327D02*
D03*
X348853Y1122680D02*
D03*
X218853D02*
D03*
D57*
X1412580Y917970D02*
D03*
Y787970D02*
D03*
X2831820Y351068D02*
D03*
Y221068D02*
D03*
X5307669Y1490769D02*
D03*
Y1360769D02*
D03*
X783680Y1690605D02*
D03*
Y1820605D02*
D03*
X1548835Y943370D02*
D03*
Y813370D02*
D03*
X1412580Y1192806D02*
D03*
Y1062806D02*
D03*
X5307669Y1219130D02*
D03*
Y1089130D02*
D03*
X504190Y1152525D02*
D03*
Y1022525D02*
D03*
D58*
X682780Y868300D02*
D03*
X747780D02*
D03*
X812780D02*
D03*
X877780D02*
D03*
X942780D02*
D03*
X1007780D02*
D03*
X1072780D02*
D03*
X1137780D02*
D03*
X1202780D02*
D03*
X1267780D02*
D03*
X682780Y1453300D02*
D03*
X747780D02*
D03*
X812780D02*
D03*
X877780D02*
D03*
X942780D02*
D03*
X1007780D02*
D03*
X1072780D02*
D03*
X1137780D02*
D03*
X1202780D02*
D03*
X1267780D02*
D03*
D59*
X5066577Y878629D02*
D03*
Y2074969D02*
D03*
X3524477Y2278169D02*
D03*
X5066577Y1076749D02*
D03*
Y1277409D02*
D03*
Y1475529D02*
D03*
Y1678729D02*
D03*
Y1876849D02*
D03*
Y2275629D02*
D03*
X3524477Y2077509D02*
D03*
Y1879389D02*
D03*
X3527017Y1678729D02*
D03*
Y1478069D02*
D03*
Y1279949D02*
D03*
Y1076749D02*
D03*
Y878629D02*
D03*
D60*
X4797177Y2473909D02*
D03*
X4599057D02*
D03*
X4400937D02*
D03*
X4197737D02*
D03*
X3999617D02*
D03*
X3796417D02*
D03*
D61*
X580000Y2625000D02*
D03*
X1420000D02*
D03*
X580000Y2175000D02*
D03*
X1420000D02*
D03*
D62*
X2129370Y733991D02*
D03*
X2224370Y733991D02*
D03*
X2319370Y733991D02*
D03*
Y1003991D02*
D03*
X2129370D02*
D03*
%TF.MD5,b03b157f9ae70b8d9f0cfb7ddfd69156*%
M02*
