%TF.GenerationSoftware,Altium Limited,Altium Designer,20.1.8 (145)*%
G04 Layer_Color=0*
%FSLAX45Y45*%
%MOMM*%
%TF.SameCoordinates,106D5BB1-83B8-4C97-8579-1C7B844FC3FF*%
%TF.FilePolarity,Positive*%
%TF.FileFunction,Plated,1,4,PTH,Drill*%
%TF.Part,Single*%
G01*
G75*
%TA.AperFunction,ComponentDrill*%
%ADD64C,0.95000*%
%TA.AperFunction,OtherDrill,Pad Free-1 (28mm,17mm)*%
%ADD65C,2.20000*%
%TA.AperFunction,OtherDrill,Pad Free-1 (2mm,8mm)*%
%ADD66C,2.20000*%
%TA.AperFunction,OtherDrill,Pad Free-1 (2mm,26mm)*%
%ADD67C,2.20000*%
%TA.AperFunction,OtherDrill,Pad Free-1 (54mm,26mm)*%
%ADD68C,2.20000*%
%TA.AperFunction,OtherDrill,Pad Free-1 (54mm,8mm)*%
%ADD69C,2.20000*%
%TA.AperFunction,ViaDrill,NotFilled*%
%ADD70C,0.30000*%
D64*
X5080000Y2667000D02*
D03*
X127000Y2286000D02*
D03*
X5461000Y2032000D02*
D03*
Y1778000D02*
D03*
X3308000Y2500000D02*
D03*
X3054000D02*
D03*
X2800000D02*
D03*
X2546000D02*
D03*
X2032000Y2667000D02*
D03*
X1778000D02*
D03*
X127000Y2032000D02*
D03*
X1540004Y247460D02*
D03*
X1286004D02*
D03*
X1032004D02*
D03*
X778004D02*
D03*
X524004D02*
D03*
Y501460D02*
D03*
X778004D02*
D03*
X1032004D02*
D03*
X1286004D02*
D03*
X1540004D02*
D03*
X2693799Y1009917D02*
D03*
X2947799Y1009918D02*
D03*
X3201799Y1009917D02*
D03*
Y1263917D02*
D03*
X2947799Y1263917D02*
D03*
X2693799Y1263917D02*
D03*
X2367280Y242570D02*
D03*
X2621280D02*
D03*
D65*
X2800000Y1700000D02*
D03*
D66*
X200000Y800000D02*
D03*
D67*
Y2600000D02*
D03*
D68*
X5400000D02*
D03*
D69*
Y800000D02*
D03*
D70*
X1051300Y1049906D02*
D03*
X2889678Y747500D02*
D03*
X924830Y644925D02*
D03*
X1723691Y1392101D02*
D03*
X2081532Y821903D02*
D03*
X2172953Y914060D02*
D03*
X2058670Y969791D02*
D03*
X1748700Y1146684D02*
D03*
X1807300Y1221161D02*
D03*
X531058Y1478538D02*
D03*
X668582Y1344215D02*
D03*
X621493Y1516232D02*
D03*
X4858366Y2629055D02*
D03*
X4892877Y2412200D02*
D03*
X4985034Y2371330D02*
D03*
X2384748Y2321855D02*
D03*
X2370216Y2081200D02*
D03*
X2088741Y2260786D02*
D03*
X2232666D02*
D03*
X2807073Y2265432D02*
D03*
X3277633Y2612887D02*
D03*
X3182678Y2382569D02*
D03*
X2980070Y2359531D02*
D03*
X2209996Y2360655D02*
D03*
X2431484Y2210119D02*
D03*
X2308947D02*
D03*
X2431484Y2113479D02*
D03*
X2308947D02*
D03*
X2370215Y2241198D02*
D03*
X1916208Y2354886D02*
D03*
X2349500Y1163320D02*
D03*
X1631259Y2010340D02*
D03*
X1305450Y1816610D02*
D03*
X875929Y1158738D02*
D03*
X859830Y1345203D02*
D03*
X1639456Y1720187D02*
D03*
X729830Y1901011D02*
D03*
X863722Y1765804D02*
D03*
X2112800Y2123440D02*
D03*
X2761580Y653579D02*
D03*
X2688997Y724360D02*
D03*
X2730587Y156270D02*
D03*
X2446134D02*
D03*
X2288426D02*
D03*
X2876576Y2065280D02*
D03*
X2908365Y1972816D02*
D03*
X2466280Y1053297D02*
D03*
X5224469Y1372719D02*
D03*
X3372264Y2006459D02*
D03*
X3076816Y2008190D02*
D03*
X3290516Y2159894D02*
D03*
X2804979Y2126760D02*
D03*
X380379Y1396364D02*
D03*
X1968500Y330200D02*
D03*
X1864396Y416740D02*
D03*
X2072585D02*
D03*
X3675994Y1401050D02*
D03*
X2660494Y896718D02*
D03*
X2578099Y979112D02*
D03*
X3076214Y1577999D02*
D03*
X2247810Y1419860D02*
D03*
X681138Y757621D02*
D03*
X3631910Y2616790D02*
D03*
X508742Y1235725D02*
D03*
X5299700Y1928899D02*
D03*
X5382043Y1555769D02*
D03*
X5376899Y1289950D02*
D03*
X5382043Y1425769D02*
D03*
X1870160Y1421299D02*
D03*
X5222277Y1250409D02*
D03*
X1870160Y1587500D02*
D03*
X1955800Y1504400D02*
D03*
X2257188Y1079846D02*
D03*
X2264370Y1247140D02*
D03*
X3371570Y819612D02*
D03*
X1412483Y1661713D02*
D03*
X635730Y1964433D02*
D03*
X2399879Y1778170D02*
D03*
X2331801Y1843170D02*
D03*
X3378039Y1401050D02*
D03*
X3371317Y1653959D02*
D03*
X3368777Y2104509D02*
D03*
X3445607Y1783689D02*
D03*
X3317534Y2383489D02*
D03*
X5217187Y2197239D02*
D03*
X3368776Y2278169D02*
D03*
X2870649Y2753995D02*
D03*
X926145Y1692985D02*
D03*
X1362307Y1910710D02*
D03*
X1458572Y45780D02*
D03*
X2437980Y638660D02*
D03*
Y559020D02*
D03*
X2562860D02*
D03*
Y638660D02*
D03*
X2437980Y717144D02*
D03*
X2562860D02*
D03*
X2500880Y559020D02*
D03*
Y717144D02*
D03*
X344063Y1039480D02*
D03*
X765730Y709136D02*
D03*
X731031Y1562913D02*
D03*
X378125Y326800D02*
D03*
X471761Y702019D02*
D03*
X3370580Y1049020D02*
D03*
X3682181Y1218880D02*
D03*
X1496060Y1062806D02*
D03*
X2334260Y1503680D02*
D03*
X2247810Y1587500D02*
D03*
X267768Y1526652D02*
D03*
X1373504Y1751587D02*
D03*
X2828008Y965511D02*
D03*
X2058205Y301438D02*
D03*
X1972904Y218440D02*
D03*
X3731081Y747500D02*
D03*
X504190Y939623D02*
D03*
X1016653Y680546D02*
D03*
X380965Y1207662D02*
D03*
X858605Y1064638D02*
D03*
X969603Y730855D02*
D03*
X1102620Y599790D02*
D03*
X1105330Y766567D02*
D03*
X334470Y45780D02*
D03*
X5224254Y1148002D02*
D03*
X4914767Y1148689D02*
D03*
X3680176Y2104509D02*
D03*
X3682716Y832213D02*
D03*
X4910093Y1251017D02*
D03*
X5222276Y2101970D02*
D03*
X4901056Y2122019D02*
D03*
X1072353Y1565478D02*
D03*
X993016Y1623848D02*
D03*
X1412101Y1993993D02*
D03*
X5089128Y645780D02*
D03*
X4395820D02*
D03*
X3702512D02*
D03*
X3009204D02*
D03*
X3773022Y2318209D02*
D03*
X3671559Y2447298D02*
D03*
X2003205Y2058799D02*
D03*
X2264340Y1908786D02*
D03*
X830730Y1561397D02*
D03*
X844720Y970539D02*
D03*
X5417191Y2193434D02*
D03*
X5554208Y1164215D02*
D03*
X497486Y108675D02*
D03*
X3807931Y2753995D02*
D03*
X3679482Y2278169D02*
D03*
X223520Y1840992D02*
D03*
X5502676Y2275629D02*
D03*
X55880Y1744092D02*
D03*
X2412366Y2753995D02*
D03*
X1572260Y2175000D02*
D03*
X4620214Y2753995D02*
D03*
X55880Y1120905D02*
D03*
X776990Y115501D02*
D03*
X2854197Y45780D02*
D03*
X2203704D02*
D03*
X580000Y2085340D02*
D03*
X558800Y2753995D02*
D03*
X1371083D02*
D03*
X1072780Y977892D02*
D03*
X2222395Y2058799D02*
D03*
X3523811Y2373519D02*
D03*
%TF.MD5,bf27d85ab3c3ce8378a3cfa96b30057c*%
M02*
