%TF.GenerationSoftware,Altium Limited,Altium Designer,20.1.8 (145)*%
G04 Layer_Color=16777215*
%FSLAX45Y45*%
%MOMM*%
%TF.SameCoordinates,F0989897-1A12-473C-90C7-768902EF80F2*%
%TF.FilePolarity,Positive*%
%TF.FileFunction,Legend,Top*%
%TF.Part,Single*%
G01*
G75*
%TA.AperFunction,NonConductor*%
%ADD39C,0.12700*%
%ADD45C,0.10160*%
%ADD46C,0.60000*%
%ADD47C,0.25000*%
%ADD48C,0.25400*%
%ADD49C,0.20320*%
%ADD50C,0.20000*%
G36*
X1412580Y888276D02*
X1389466Y911390D01*
X1435694D01*
X1412580Y888276D01*
D02*
G37*
G36*
X3286760Y1611336D02*
X3263646Y1634450D01*
X3309874D01*
X3286760Y1611336D01*
D02*
G37*
G36*
X2620597Y81148D02*
X2571164D01*
Y97125D01*
X2620597D01*
Y81148D01*
D02*
G37*
G36*
X2348464Y96302D02*
X2379407D01*
Y83299D01*
X2348464D01*
Y52027D01*
X2335297D01*
Y83299D01*
X2304353D01*
Y96302D01*
X2335297D01*
Y127245D01*
X2348464D01*
Y96302D01*
D02*
G37*
D39*
X2451373Y1479065D02*
X2419633D01*
X2409053Y1468485D01*
Y1447325D01*
X2419633Y1436745D01*
X2451373D01*
X2472533D02*
X2504273D01*
X2514852Y1447325D01*
X2504273Y1457905D01*
X2483113D01*
X2472533Y1468485D01*
X2483113Y1479065D01*
X2514852D01*
X2381973Y1879759D02*
Y1922079D01*
X2392553D01*
X2403133Y1911499D01*
Y1879759D01*
Y1911499D01*
X2413713Y1922079D01*
X2424293Y1911499D01*
Y1879759D01*
X2456033D02*
X2477193D01*
X2487773Y1890339D01*
Y1911499D01*
X2477193Y1922079D01*
X2456033D01*
X2445453Y1911499D01*
Y1890339D01*
X2456033Y1879759D01*
X2253824Y1971090D02*
Y2013409D01*
X2264404D01*
X2274984Y2002830D01*
Y1971090D01*
Y2002830D01*
X2285564Y2013409D01*
X2296143Y2002830D01*
Y1971090D01*
X2317303D02*
X2338463D01*
X2327883D01*
Y2013409D01*
X2317303D01*
X2337097Y1612250D02*
X2305357D01*
X2294777Y1601670D01*
Y1580510D01*
X2305357Y1569930D01*
X2337097D01*
X2358256D02*
Y1633409D01*
Y1591090D02*
X2389996Y1612250D01*
X2358256Y1591090D02*
X2389996Y1569930D01*
X1273866Y1737584D02*
X1263286Y1748164D01*
X1242126D01*
X1231546Y1737584D01*
Y1695264D01*
X1242126Y1684684D01*
X1263286D01*
X1273866Y1695264D01*
X1337346Y1737584D02*
X1326766Y1748164D01*
X1305606D01*
X1295026Y1737584D01*
Y1727004D01*
X1305606Y1716424D01*
X1326766D01*
X1337346Y1705844D01*
Y1695264D01*
X1326766Y1684684D01*
X1305606D01*
X1295026Y1695264D01*
X1217658Y1795000D02*
Y1858480D01*
X1238817Y1837320D01*
X1259977Y1858480D01*
Y1795000D01*
X1312877Y1858480D02*
X1291717D01*
X1281137Y1847900D01*
Y1805580D01*
X1291717Y1795000D01*
X1312877D01*
X1323457Y1805580D01*
Y1847900D01*
X1312877Y1858480D01*
X1075461Y1896388D02*
Y1959868D01*
X1096621Y1938708D01*
X1117781Y1959868D01*
Y1896388D01*
X1138941Y1959868D02*
X1160100D01*
X1149520D01*
Y1896388D01*
X1138941D01*
X1160100D01*
X984683Y1677510D02*
X974103Y1688090D01*
X952943D01*
X942363Y1677510D01*
Y1635190D01*
X952943Y1624610D01*
X974103D01*
X984683Y1635190D01*
X1005843Y1688090D02*
Y1624610D01*
Y1645770D01*
X1048162Y1688090D01*
X1016422Y1656350D01*
X1048162Y1624610D01*
X2743749Y71902D02*
Y132842D01*
X2774219D01*
X2784376Y122685D01*
Y102372D01*
X2774219Y92215D01*
X2743749D01*
X2764063D02*
X2784376Y71902D01*
X2804689D02*
X2825003D01*
X2814846D01*
Y132842D01*
X2804689Y122685D01*
X2812691Y504901D02*
Y545528D01*
X2802534Y555685D01*
X2782220D01*
X2772064Y545528D01*
Y504901D01*
X2782220Y494745D01*
X2802534D01*
X2792377Y515058D02*
X2812691Y494745D01*
X2802534D02*
X2812691Y504901D01*
X2833004Y494745D02*
X2853317D01*
X2843161D01*
Y555685D01*
X2833004Y545528D01*
X1682319Y1071187D02*
X1692899Y1081766D01*
X1714059D01*
X1724639Y1071187D01*
Y1060607D01*
X1714059Y1050027D01*
X1703479D01*
X1714059D01*
X1724639Y1039447D01*
Y1028867D01*
X1714059Y1018287D01*
X1692899D01*
X1682319Y1028867D01*
X1745799Y1081766D02*
Y1039447D01*
X1766958Y1018287D01*
X1788118Y1039447D01*
Y1081766D01*
X1809278Y1071187D02*
X1819858Y1081766D01*
X1841018D01*
X1851598Y1071187D01*
Y1060607D01*
X1841018Y1050027D01*
X1830438D01*
X1841018D01*
X1851598Y1039447D01*
Y1028867D01*
X1841018Y1018287D01*
X1819858D01*
X1809278Y1028867D01*
X1670439Y88776D02*
X1681019Y78196D01*
X1702179D01*
X1712759Y88776D01*
Y131096D01*
X1702179Y141676D01*
X1681019D01*
X1670439Y131096D01*
Y120516D01*
X1681019Y109936D01*
X1712759D01*
X1733919Y141676D02*
Y99356D01*
X1755079Y78196D01*
X1776239Y99356D01*
Y141676D01*
X1797398Y131096D02*
X1807978Y141676D01*
X1829138D01*
X1839718Y131096D01*
Y88776D01*
X1829138Y78196D01*
X1807978D01*
X1797398Y88776D01*
Y131096D01*
X1649952Y715369D02*
X1607632D01*
Y683630D01*
X1628792Y694210D01*
X1639372D01*
X1649952Y683630D01*
Y662470D01*
X1639372Y651890D01*
X1618212D01*
X1607632Y662470D01*
X1671112Y715369D02*
Y673050D01*
X1692271Y651890D01*
X1713431Y673050D01*
Y715369D01*
X1734591Y704790D02*
X1745171Y715369D01*
X1766331D01*
X1776911Y704790D01*
Y662470D01*
X1766331Y651890D01*
X1745171D01*
X1734591Y662470D01*
Y704790D01*
X2917750Y1773693D02*
Y1834633D01*
X2948220D01*
X2958377Y1824476D01*
Y1804163D01*
X2948220Y1794006D01*
X2917750D01*
X2938064D02*
X2958377Y1773693D01*
X2978691D02*
X2999004D01*
X2988847D01*
Y1834633D01*
X2978691Y1824476D01*
X3070101Y1834633D02*
X3049787Y1824476D01*
X3029474Y1804163D01*
Y1783850D01*
X3039631Y1773693D01*
X3059944D01*
X3070101Y1783850D01*
Y1794006D01*
X3059944Y1804163D01*
X3029474D01*
X3235977Y1466630D02*
Y1405689D01*
X3266447D01*
X3276603Y1415846D01*
Y1456473D01*
X3266447Y1466630D01*
X3235977D01*
X3337543Y1405689D02*
X3296917D01*
X3337543Y1446316D01*
Y1456473D01*
X3327387Y1466630D01*
X3307073D01*
X3296917Y1456473D01*
X3156847Y1903015D02*
Y1963955D01*
X3187317D01*
X3197473Y1953798D01*
Y1933485D01*
X3187317Y1923328D01*
X3156847D01*
X3177160D02*
X3197473Y1903015D01*
X3217787D02*
X3238100D01*
X3227944D01*
Y1963955D01*
X3217787Y1953798D01*
X3299040Y1903015D02*
Y1963955D01*
X3268570Y1933485D01*
X3309197D01*
X1347777Y2060071D02*
X1337620Y2070228D01*
X1317306D01*
X1307150Y2060071D01*
Y2049914D01*
X1317306Y2039758D01*
X1337620D01*
X1347777Y2029601D01*
Y2019444D01*
X1337620Y2009288D01*
X1317306D01*
X1307150Y2019444D01*
X1368090Y2009288D02*
X1388403D01*
X1378247D01*
Y2070228D01*
X1368090Y2060071D01*
X2837916Y1409750D02*
X2817603D01*
X2827760D01*
Y1358967D01*
X2817603Y1348810D01*
X2807446D01*
X2797290Y1358967D01*
X2898857Y1348810D02*
X2858230D01*
X2898857Y1389437D01*
Y1399593D01*
X2888700Y1409750D01*
X2868386D01*
X2858230Y1399593D01*
X435749Y1747620D02*
Y1808561D01*
X466219D01*
X476375Y1798404D01*
Y1778090D01*
X466219Y1767934D01*
X435749D01*
X456062D02*
X476375Y1747620D01*
X496689D02*
X517002D01*
X506846D01*
Y1808561D01*
X496689Y1798404D01*
X547472D02*
X557629Y1808561D01*
X577942D01*
X588099Y1798404D01*
Y1788247D01*
X577942Y1778090D01*
X567786D01*
X577942D01*
X588099Y1767934D01*
Y1757777D01*
X577942Y1747620D01*
X557629D01*
X547472Y1757777D01*
X255286Y1453882D02*
Y1494508D01*
X245130Y1504665D01*
X224816D01*
X214659Y1494508D01*
Y1453882D01*
X224816Y1443725D01*
X245130D01*
X234973Y1464038D02*
X255286Y1443725D01*
X245130D02*
X255286Y1453882D01*
X316226Y1443725D02*
X275600D01*
X316226Y1484352D01*
Y1494508D01*
X306070Y1504665D01*
X285756D01*
X275600Y1494508D01*
X420016Y1182016D02*
Y1242957D01*
X450487D01*
X460643Y1232800D01*
Y1212487D01*
X450487Y1202330D01*
X420016D01*
X440330D02*
X460643Y1182016D01*
X480957D02*
X501270D01*
X491113D01*
Y1242957D01*
X480957Y1232800D01*
X572367Y1182016D02*
X531740D01*
X572367Y1222643D01*
Y1232800D01*
X562210Y1242957D01*
X541897D01*
X531740Y1232800D01*
X134350Y1067376D02*
X73410D01*
Y1097846D01*
X83567Y1108003D01*
X103880D01*
X114037Y1097846D01*
Y1067376D01*
Y1087689D02*
X134350Y1108003D01*
Y1128316D02*
Y1148630D01*
Y1138473D01*
X73410D01*
X83567Y1128316D01*
X134350Y1179100D02*
Y1199413D01*
Y1189256D01*
X73410D01*
X83567Y1179100D01*
X434924Y1649457D02*
Y1710397D01*
X465394D01*
X475550Y1700241D01*
Y1679927D01*
X465394Y1669771D01*
X434924D01*
X455237D02*
X475550Y1649457D01*
X495864D02*
X516177D01*
X506021D01*
Y1710397D01*
X495864Y1700241D01*
X546647D02*
X556804Y1710397D01*
X577117D01*
X587274Y1700241D01*
Y1659614D01*
X577117Y1649457D01*
X556804D01*
X546647Y1659614D01*
Y1700241D01*
X1632273Y864717D02*
Y925657D01*
X1662743D01*
X1672900Y915500D01*
Y895187D01*
X1662743Y885030D01*
X1632273D01*
X1652586D02*
X1672900Y864717D01*
X1693213Y874874D02*
X1703370Y864717D01*
X1723683D01*
X1733840Y874874D01*
Y915500D01*
X1723683Y925657D01*
X1703370D01*
X1693213Y915500D01*
Y905344D01*
X1703370Y895187D01*
X1733840D01*
X1375671Y739831D02*
Y678891D01*
X1406141D01*
X1416298Y689047D01*
Y729674D01*
X1406141Y739831D01*
X1375671D01*
X1436611Y678891D02*
X1456924D01*
X1446768D01*
Y739831D01*
X1436611Y729674D01*
X762104Y1949514D02*
Y2010454D01*
X792574D01*
X802731Y2000298D01*
Y1979984D01*
X792574Y1969828D01*
X762104D01*
X782418D02*
X802731Y1949514D01*
X823044Y2000298D02*
X833201Y2010454D01*
X853514D01*
X863671Y2000298D01*
Y1990141D01*
X853514Y1979984D01*
X863671Y1969828D01*
Y1959671D01*
X853514Y1949514D01*
X833201D01*
X823044Y1959671D01*
Y1969828D01*
X833201Y1979984D01*
X823044Y1990141D01*
Y2000298D01*
X833201Y1979984D02*
X853514D01*
X1965977Y2252990D02*
Y2313930D01*
X1996447D01*
X2006603Y2303773D01*
Y2283460D01*
X1996447Y2273303D01*
X1965977D01*
X1986290D02*
X2006603Y2252990D01*
X2026917Y2313930D02*
X2067543D01*
Y2303773D01*
X2026917Y2263147D01*
Y2252990D01*
X3517737Y2563089D02*
Y2512305D01*
X3527894Y2502149D01*
X3548207D01*
X3558364Y2512305D01*
Y2563089D01*
X3619304D02*
X3578677D01*
Y2532619D01*
X3598991Y2542775D01*
X3609147D01*
X3619304Y2532619D01*
Y2512305D01*
X3609147Y2502149D01*
X3588834D01*
X3578677Y2512305D01*
X1889091Y2151538D02*
Y2100755D01*
X1899248Y2090598D01*
X1919561D01*
X1929718Y2100755D01*
Y2151538D01*
X1980502Y2090598D02*
Y2151538D01*
X1950031Y2121068D01*
X1990658D01*
X2171941Y1150132D02*
Y1099348D01*
X2182097Y1089192D01*
X2202411D01*
X2212567Y1099348D01*
Y1150132D01*
X2232881Y1139975D02*
X2243037Y1150132D01*
X2263351D01*
X2273508Y1139975D01*
Y1129818D01*
X2263351Y1119662D01*
X2253194D01*
X2263351D01*
X2273508Y1109505D01*
Y1099348D01*
X2263351Y1089192D01*
X2243037D01*
X2232881Y1099348D01*
X2173046Y647306D02*
Y596522D01*
X2183203Y586366D01*
X2203516D01*
X2213673Y596522D01*
Y647306D01*
X2274613Y586366D02*
X2233986D01*
X2274613Y626992D01*
Y637149D01*
X2264456Y647306D01*
X2244143D01*
X2233986Y637149D01*
X552317Y1385721D02*
Y1334937D01*
X562473Y1324781D01*
X582787D01*
X592943Y1334937D01*
Y1385721D01*
X613257Y1324781D02*
X633570D01*
X623414D01*
Y1385721D01*
X613257Y1375564D01*
X3031863Y1417304D02*
Y1478244D01*
X3062333D01*
X3072490Y1468087D01*
Y1447774D01*
X3062333Y1437617D01*
X3031863D01*
X3052177D02*
X3072490Y1417304D01*
X3133430Y1478244D02*
X3113117Y1468087D01*
X3092803Y1447774D01*
Y1427461D01*
X3102960Y1417304D01*
X3123273D01*
X3133430Y1427461D01*
Y1437617D01*
X3123273Y1447774D01*
X3092803D01*
X5339462Y1389713D02*
Y1450653D01*
X5369932D01*
X5380089Y1440496D01*
Y1420183D01*
X5369932Y1410026D01*
X5339462D01*
X5359775D02*
X5380089Y1389713D01*
X5441029Y1450653D02*
X5400402D01*
Y1420183D01*
X5420715Y1430340D01*
X5430872D01*
X5441029Y1420183D01*
Y1399870D01*
X5430872Y1389713D01*
X5410559D01*
X5400402Y1399870D01*
X5333557Y1132850D02*
Y1193790D01*
X5364027D01*
X5374183Y1183633D01*
Y1163320D01*
X5364027Y1153163D01*
X5333557D01*
X5353870D02*
X5374183Y1132850D01*
X5424967D02*
Y1193790D01*
X5394497Y1163320D01*
X5435123D01*
X1683302Y2222749D02*
Y2283689D01*
X1713773D01*
X1723929Y2273532D01*
Y2253219D01*
X1713773Y2243062D01*
X1683302D01*
X1703616D02*
X1723929Y2222749D01*
X1744243Y2273532D02*
X1754399Y2283689D01*
X1774713D01*
X1784869Y2273532D01*
Y2263375D01*
X1774713Y2253219D01*
X1764556D01*
X1774713D01*
X1784869Y2243062D01*
Y2232905D01*
X1774713Y2222749D01*
X1754399D01*
X1744243Y2232905D01*
X1439949Y1169956D02*
Y1230896D01*
X1470419D01*
X1480575Y1220739D01*
Y1200426D01*
X1470419Y1190269D01*
X1439949D01*
X1460262D02*
X1480575Y1169956D01*
X1541516D02*
X1500889D01*
X1541516Y1210583D01*
Y1220739D01*
X1531359Y1230896D01*
X1511045D01*
X1500889Y1220739D01*
X1616995Y1431093D02*
X1606838Y1441250D01*
X1586525D01*
X1576368Y1431093D01*
Y1390467D01*
X1586525Y1380310D01*
X1606838D01*
X1616995Y1390467D01*
X1637308Y1431093D02*
X1647465Y1441250D01*
X1667778D01*
X1677935Y1431093D01*
Y1420937D01*
X1667778Y1410780D01*
X1677935Y1400623D01*
Y1390467D01*
X1667778Y1380310D01*
X1647465D01*
X1637308Y1390467D01*
Y1400623D01*
X1647465Y1410780D01*
X1637308Y1420937D01*
Y1431093D01*
X1647465Y1410780D02*
X1667778D01*
X3221772Y2358822D02*
X3211616Y2368979D01*
X3191302D01*
X3181146Y2358822D01*
Y2318196D01*
X3191302Y2308039D01*
X3211616D01*
X3221772Y2318196D01*
X3242086Y2368979D02*
X3282713D01*
Y2358822D01*
X3242086Y2318196D01*
Y2308039D01*
X2204723Y1384928D02*
X2194567Y1395085D01*
X2174253D01*
X2164097Y1384928D01*
Y1344302D01*
X2174253Y1334145D01*
X2194567D01*
X2204723Y1344302D01*
X2225037D02*
X2235193Y1334145D01*
X2255507D01*
X2265663Y1344302D01*
Y1384928D01*
X2255507Y1395085D01*
X2235193D01*
X2225037Y1384928D01*
Y1374772D01*
X2235193Y1364615D01*
X2265663D01*
X5300902Y2213017D02*
X5290745Y2223173D01*
X5270432D01*
X5260275Y2213017D01*
Y2172390D01*
X5270432Y2162233D01*
X5290745D01*
X5300902Y2172390D01*
X5361842Y2223173D02*
X5341529Y2213017D01*
X5321215Y2192703D01*
Y2172390D01*
X5331372Y2162233D01*
X5351686D01*
X5361842Y2172390D01*
Y2182547D01*
X5351686Y2192703D01*
X5321215D01*
X1965321Y1220739D02*
X1955164Y1230896D01*
X1934851D01*
X1924694Y1220739D01*
Y1180112D01*
X1934851Y1169956D01*
X1955164D01*
X1965321Y1180112D01*
X2026261Y1230896D02*
X1985635D01*
Y1200426D01*
X2005948Y1210583D01*
X2016105D01*
X2026261Y1200426D01*
Y1180112D01*
X2016105Y1169956D01*
X1995791D01*
X1985635Y1180112D01*
X1842232Y763736D02*
X1832075Y773893D01*
X1811762D01*
X1801605Y763736D01*
Y723109D01*
X1811762Y712953D01*
X1832075D01*
X1842232Y723109D01*
X1893016Y712953D02*
Y773893D01*
X1862545Y743423D01*
X1903172D01*
X1836758Y499021D02*
X1826601Y509178D01*
X1806287D01*
X1796131Y499021D01*
Y458394D01*
X1806287Y448237D01*
X1826601D01*
X1836758Y458394D01*
X1857071Y499021D02*
X1867228Y509178D01*
X1887541D01*
X1897698Y499021D01*
Y488864D01*
X1887541Y478707D01*
X1877384D01*
X1887541D01*
X1897698Y468551D01*
Y458394D01*
X1887541Y448237D01*
X1867228D01*
X1857071Y458394D01*
X2101955Y131628D02*
X2091799Y141784D01*
X2071485D01*
X2061329Y131628D01*
Y91001D01*
X2071485Y80844D01*
X2091799D01*
X2101955Y91001D01*
X2162896Y80844D02*
X2122269D01*
X2162896Y121471D01*
Y131628D01*
X2152739Y141784D01*
X2132426D01*
X2122269Y131628D01*
X989626Y706427D02*
X979470Y716584D01*
X959156D01*
X949000Y706427D01*
Y665800D01*
X959156Y655643D01*
X979470D01*
X989626Y665800D01*
X1009940Y655643D02*
X1030253D01*
X1020097D01*
Y716584D01*
X1009940Y706427D01*
X2696210Y2679112D02*
X2675897D01*
X2686054D01*
Y2628329D01*
X2675897Y2618172D01*
X2665740D01*
X2655583Y2628329D01*
X2716524Y2668956D02*
X2726680Y2679112D01*
X2746994D01*
X2757150Y2668956D01*
Y2658799D01*
X2746994Y2648642D01*
X2736837D01*
X2746994D01*
X2757150Y2638485D01*
Y2628329D01*
X2746994Y2618172D01*
X2726680D01*
X2716524Y2628329D01*
D45*
X400000Y800000D02*
G03*
X400000Y800000I-200000J0D01*
G01*
X5600000D02*
G03*
X5600000Y800000I-200000J0D01*
G01*
Y2600000D02*
G03*
X5600000Y2600000I-200000J0D01*
G01*
X2900000Y1700000D02*
G03*
X2900000Y1700000I-200000J0D01*
G01*
X400000Y2599999D02*
G03*
X400000Y2599999I-200000J0D01*
G01*
X364805Y1404900D02*
G03*
X364805Y1404900I-5080J0D01*
G01*
X2646680Y88900D02*
G03*
X2646680Y88900I-50800J0D01*
G01*
X2392680D02*
G03*
X2392680Y88900I-50800J0D01*
G01*
X2839440Y161608D02*
Y410528D01*
X2722600Y161608D02*
X2839440D01*
X2722600D02*
Y410528D01*
X2839440D01*
X2440940Y447460D02*
Y599860D01*
Y447460D02*
X2750820D01*
X2440940Y599860D02*
X2750820Y599860D01*
X2750820Y447460D01*
X670480Y934740D02*
X1330880D01*
X670480Y1386860D02*
X1330880D01*
X670480Y934740D02*
Y1386860D01*
X1330880Y934740D02*
Y1386860D01*
X2347300Y1412875D02*
Y1529715D01*
X2088221D02*
X2347300D01*
X2088221Y1412875D02*
Y1529715D01*
Y1412875D02*
X2347300D01*
X2217761Y1412875D02*
Y1529715D01*
X1444060Y1281240D02*
X1560900D01*
Y1540320D01*
X1444060D02*
X1560900D01*
X1444060Y1281240D02*
Y1540320D01*
Y1410780D02*
X1560900D01*
X5188289Y1301310D02*
X5305129D01*
Y1550230D01*
X5188289D02*
X5305129D01*
X5188289Y1301310D02*
Y1550230D01*
X2960600Y1616710D02*
X3209520D01*
Y1499870D02*
Y1616710D01*
X2960600Y1499870D02*
X3209520D01*
X2960600D02*
Y1616710D01*
X2960579Y1633220D02*
Y1750061D01*
Y1633220D02*
X3209500D01*
Y1750061D01*
X2960579D02*
X3209500D01*
X3097300Y1883410D02*
X3346220D01*
Y1766570D02*
Y1883410D01*
X3097300Y1766570D02*
X3346220D01*
X3097300D02*
Y1883410D01*
X2069430Y414521D02*
Y566921D01*
Y414521D02*
X2379310D01*
X2069430Y566921D02*
X2379310Y566921D01*
X2379310Y414521D01*
X1978385Y160020D02*
Y276860D01*
Y160020D02*
X2237465D01*
Y276860D01*
X1978385D02*
X2237465D01*
X2107925Y160020D02*
Y276860D01*
X1918961Y742667D02*
X2035801D01*
Y613127D02*
Y872207D01*
X1918961Y613127D02*
X2035801D01*
X1918961D02*
Y872207D01*
X2035801D01*
X1918961Y339260D02*
X2035801D01*
Y598340D01*
X1918961D02*
X2035801D01*
X1918961Y339260D02*
Y598340D01*
Y468800D02*
X2035801D01*
X1918961Y1020056D02*
X2035801D01*
Y1149596D02*
X2035801Y890516D01*
X1918960Y890516D02*
X2035801Y890516D01*
X1918960Y890516D02*
X1918961Y1149596D01*
X2035801D01*
X750660Y1681945D02*
Y1930865D01*
X867500D01*
Y1681945D02*
Y1930865D01*
X750660Y1681945D02*
X867500D01*
X1490415Y775500D02*
X1607255D01*
Y1024420D01*
X1490415D02*
X1607255D01*
X1490415Y775500D02*
Y1024420D01*
X5443672Y2240844D02*
Y2357684D01*
X5184592D02*
X5443672D01*
X5184592Y2240844D02*
Y2357684D01*
Y2240844D02*
X5443672D01*
X5314132Y2240844D02*
Y2357684D01*
X1354160Y775500D02*
X1471000D01*
X1354160D02*
Y1024420D01*
X1471000Y775500D02*
Y1024420D01*
X1387180Y762800D02*
X1437980D01*
X1447580Y899960D02*
X1471000D01*
X1354160D02*
X1377580D01*
X1354160Y1024420D02*
X1471000D01*
X3228340Y1747480D02*
X3345180D01*
X3228340Y1623019D02*
X3251760Y1623020D01*
X3321760D02*
X3345180Y1623019D01*
X3261360Y1485860D02*
X3312160D01*
X3345180Y1498560D02*
Y1747480D01*
X3228340Y1498560D02*
Y1747480D01*
Y1498560D02*
X3345180D01*
X1586660Y2051620D02*
X2051480D01*
X1586660Y1528380D02*
X2051480D01*
X1586660D02*
Y2051620D01*
X2051480Y1528380D02*
Y2051620D01*
X164868Y1569212D02*
X413788D01*
X164868D02*
Y1686052D01*
X413788D01*
Y1569212D02*
Y1686052D01*
X164868Y1815697D02*
X413788D01*
Y1698857D02*
Y1815697D01*
X164868Y1698857D02*
X413788D01*
X164868D02*
Y1815697D01*
X159393Y1064260D02*
X408313D01*
X159393D02*
Y1181100D01*
X408313D01*
Y1064260D02*
Y1181100D01*
X1607025Y1035441D02*
Y1152281D01*
X1358105D02*
X1607025D01*
X1358105Y1035441D02*
Y1152281D01*
Y1035441D02*
X1607025D01*
X1600718Y2088318D02*
Y2205158D01*
Y2088318D02*
X1849638D01*
Y2205158D01*
X1600718D02*
X1849638D01*
X5188289Y1029670D02*
X5305129D01*
Y1278590D01*
X5188289D02*
X5305129D01*
X5188289Y1029670D02*
Y1278590D01*
X1893509Y2333144D02*
Y2449984D01*
Y2333144D02*
X2142429D01*
Y2449984D01*
X1893509D02*
X2142429D01*
X445770Y909725D02*
X562610D01*
Y1158645D01*
X445770D02*
X562610D01*
X445770Y909725D02*
Y1158645D01*
X1195520Y624848D02*
Y741688D01*
X1065980D02*
X1325060D01*
Y624848D02*
Y741688D01*
X1065980Y624848D02*
X1325060D01*
X1065980D02*
Y741688D01*
X3024762Y2271364D02*
Y2388204D01*
X2895222D02*
X3154302D01*
Y2271364D02*
Y2388204D01*
X2895222Y2271364D02*
X3154302D01*
X2895222D02*
Y2388204D01*
X2061810Y795331D02*
Y973131D01*
X2386930Y795331D02*
Y973131D01*
X2061810Y795331D02*
X2386930D01*
X2061810Y973131D02*
X2386930D01*
X185420Y1255292D02*
X368300D01*
Y1392452D01*
X185420Y1255292D02*
Y1392452D01*
X368300D01*
D46*
X800760Y1073380D02*
G03*
X800760Y1073380I-30000J0D01*
G01*
X1957800Y1610000D02*
G03*
X1957800Y1610000I-30000J0D01*
G01*
D47*
X649452Y959124D02*
G03*
X649452Y959124I-12500J0D01*
G01*
X2035278Y1495868D02*
G03*
X2035278Y1495868I-12500J0D01*
G01*
X2076521Y742893D02*
G03*
X2076521Y742893I-12500J0D01*
G01*
D48*
X5071496Y17569D02*
Y779569D01*
Y2379769D02*
Y2443269D01*
X4868296D02*
X5071496D01*
X3445896D02*
X3649096D01*
X3445896Y2367069D02*
Y2443269D01*
Y17569D02*
Y779569D01*
Y17569D02*
X5071496D01*
D49*
X1000000Y2435293D02*
Y2535000D01*
Y2270000D02*
Y2333960D01*
X751340Y2535000D02*
X1241560D01*
X751340Y2270000D02*
X1241560D01*
X702800Y2700000D02*
X1302800D01*
X1000000Y2333960D02*
X1042452Y2435293D01*
D50*
X702800Y2100000D02*
Y2700000D01*
X1302800Y2100000D02*
Y2700000D01*
X702800Y2100000D02*
X1302800D01*
%TF.MD5,d1e182bc93588628439ef2f40455e1c3*%
M02*
