%TF.GenerationSoftware,Altium Limited,Altium Designer,20.1.8 (145)*%
G04 Layer_Color=65535*
%FSLAX45Y45*%
%MOMM*%
%TF.SameCoordinates,F0989897-1A12-473C-90C7-768902EF80F2*%
%TF.FilePolarity,Positive*%
%TF.FileFunction,Legend,Bot*%
%TF.Part,Single*%
G01*
G75*
%TA.AperFunction,NonConductor*%
%ADD38C,0.15240*%
%ADD39C,0.12700*%
D38*
X2413484Y2217106D02*
X2426179Y2229802D01*
X2451571D01*
X2464267Y2217106D01*
Y2166323D01*
X2451571Y2153627D01*
X2426179D01*
X2413484Y2166323D01*
Y2191714D01*
X2438875D01*
X2388092Y2153627D02*
Y2229802D01*
X2337308Y2153627D01*
Y2229802D01*
X2311916D02*
Y2153627D01*
X2273829D01*
X2261133Y2166323D01*
Y2217106D01*
X2273829Y2229802D01*
X2311916D01*
X2680179Y2151380D02*
Y2227555D01*
X2642091D01*
X2629396Y2214859D01*
Y2189468D01*
X2642091Y2176772D01*
X2680179D01*
X2654787D02*
X2629396Y2151380D01*
X2604004Y2227555D02*
X2553220Y2151380D01*
Y2227555D02*
X2604004Y2151380D01*
X2934179Y2227555D02*
X2883396D01*
X2908787D01*
Y2151380D01*
X2858004Y2227555D02*
X2807220Y2151380D01*
Y2227555D02*
X2858004Y2151380D01*
X3175484Y2229802D02*
X3226267D01*
Y2191715D01*
X3200875Y2204410D01*
X3188179D01*
X3175484Y2191715D01*
Y2166323D01*
X3188179Y2153627D01*
X3213571D01*
X3226267Y2166323D01*
X3150092Y2229802D02*
Y2179019D01*
X3124700Y2153627D01*
X3099308Y2179019D01*
Y2229802D01*
X3073916Y2217106D02*
X3061220Y2229802D01*
X3035829D01*
X3023133Y2217106D01*
Y2166323D01*
X3035829Y2153627D01*
X3061220D01*
X3073916Y2166323D01*
Y2217106D01*
X3560956Y1276856D02*
X3548260Y1289552D01*
X3522868D01*
X3510172Y1276856D01*
Y1264160D01*
X3522868Y1251464D01*
X3535564D01*
X3522868D01*
X3510172Y1238768D01*
Y1226072D01*
X3522868Y1213377D01*
X3548260D01*
X3560956Y1226072D01*
X3484780Y1289552D02*
Y1238768D01*
X3459389Y1213377D01*
X3433997Y1238768D01*
Y1289552D01*
X3408605Y1276856D02*
X3395909Y1289552D01*
X3370517D01*
X3357822Y1276856D01*
Y1264160D01*
X3370517Y1251464D01*
X3383213D01*
X3370517D01*
X3357822Y1238768D01*
Y1226072D01*
X3370517Y1213377D01*
X3395909D01*
X3408605Y1226072D01*
X3893365Y1276856D02*
X3906061Y1289552D01*
X3931453D01*
X3944149Y1276856D01*
Y1226072D01*
X3931453Y1213377D01*
X3906061D01*
X3893365Y1226072D01*
Y1251464D01*
X3918757D01*
X3867973Y1213377D02*
Y1289552D01*
X3817190Y1213377D01*
Y1289552D01*
X3791798D02*
Y1213377D01*
X3753710D01*
X3741015Y1226072D01*
Y1276856D01*
X3753710Y1289552D01*
X3791798D01*
X4254608D02*
X4229216D01*
X4241912D01*
Y1213377D01*
X4254608D01*
X4229216D01*
X4153040Y1289552D02*
X4178432D01*
X4191128Y1276856D01*
Y1226072D01*
X4178432Y1213377D01*
X4153040D01*
X4140345Y1226072D01*
Y1276856D01*
X4153040Y1289552D01*
X4114953Y1276856D02*
X4102257Y1289552D01*
X4076865D01*
X4064169Y1276856D01*
Y1226072D01*
X4076865Y1213377D01*
X4102257D01*
X4114953Y1226072D01*
Y1276856D01*
X4218677Y959476D02*
Y1035652D01*
X4180589D01*
X4167893Y1022956D01*
Y997564D01*
X4180589Y984868D01*
X4218677D01*
X4193285D02*
X4167893Y959476D01*
X4142501Y1035652D02*
X4091718Y959476D01*
Y1035652D02*
X4142501Y959476D01*
X3918677Y1035652D02*
X3867893D01*
X3893285D01*
Y959476D01*
X3842501Y1035652D02*
X3791718Y959476D01*
Y1035652D02*
X3842501Y959476D01*
X3620244Y1035652D02*
X3671027D01*
Y959476D01*
X3620244D01*
X3671027Y997564D02*
X3645636D01*
X3594852Y959476D02*
Y1035652D01*
X3544069Y959476D01*
Y1035652D01*
X3518677Y959476D02*
Y1010260D01*
X3493285Y1035652D01*
X3467893Y1010260D01*
Y959476D01*
Y997564D01*
X3518677D01*
X3442501Y1035652D02*
Y959476D01*
X3404414D01*
X3391718Y972172D01*
Y984868D01*
X3404414Y997564D01*
X3442501D01*
X3404414D01*
X3391718Y1010260D01*
Y1022956D01*
X3404414Y1035652D01*
X3442501D01*
X3366326D02*
Y959476D01*
X3315543D01*
X3239367Y1035652D02*
X3290151D01*
Y959476D01*
X3239367D01*
X3290151Y997564D02*
X3264759D01*
X558461Y1080797D02*
X571157Y1068101D01*
Y1042709D01*
X558461Y1030013D01*
X545765D01*
X533069Y1042709D01*
Y1068101D01*
X520373Y1080797D01*
X507677D01*
X494981Y1068101D01*
Y1042709D01*
X507677Y1030013D01*
X571157Y1106189D02*
X494981D01*
X520373Y1131580D01*
X494981Y1156972D01*
X571157D01*
X558461Y1233147D02*
X571157Y1220452D01*
Y1195060D01*
X558461Y1182364D01*
X507677D01*
X494981Y1195060D01*
Y1220452D01*
X507677Y1233147D01*
X812461Y1080797D02*
X825157Y1068101D01*
Y1042709D01*
X812461Y1030013D01*
X761677D01*
X748981Y1042709D01*
Y1068101D01*
X761677Y1080797D01*
X787069D01*
Y1055405D01*
X748981Y1106189D02*
X825157D01*
X748981Y1156972D01*
X825157D01*
Y1182364D02*
X748981D01*
Y1220452D01*
X761677Y1233147D01*
X812461D01*
X825157Y1220452D01*
Y1182364D01*
X1064239Y1080797D02*
X1076935Y1068101D01*
Y1042709D01*
X1064239Y1030013D01*
X1051543D01*
X1038848Y1042709D01*
Y1068101D01*
X1026152Y1080797D01*
X1013456D01*
X1000760Y1068101D01*
Y1042709D01*
X1013456Y1030013D01*
X1076935Y1106189D02*
Y1131580D01*
Y1118884D01*
X1000760D01*
Y1106189D01*
Y1131580D01*
X1076935Y1207756D02*
Y1182364D01*
X1064239Y1169668D01*
X1013456D01*
X1000760Y1182364D01*
Y1207756D01*
X1013456Y1220451D01*
X1064239D01*
X1076935Y1207756D01*
X1320461Y1030013D02*
X1333157Y1042709D01*
Y1068101D01*
X1320461Y1080797D01*
X1307765D01*
X1295069Y1068101D01*
Y1055405D01*
Y1068101D01*
X1282373Y1080797D01*
X1269677D01*
X1256981Y1068101D01*
Y1042709D01*
X1269677Y1030013D01*
X1333157Y1106189D02*
X1282373D01*
X1256981Y1131580D01*
X1282373Y1156972D01*
X1333157D01*
X1320461Y1182364D02*
X1333157Y1195060D01*
Y1220452D01*
X1320461Y1233147D01*
X1307765D01*
X1295069Y1220452D01*
Y1207756D01*
Y1220452D01*
X1282373Y1233147D01*
X1269677D01*
X1256981Y1220452D01*
Y1195060D01*
X1269677Y1182364D01*
X1587157Y1080797D02*
Y1030013D01*
X1549069D01*
X1561765Y1055405D01*
Y1068101D01*
X1549069Y1080797D01*
X1523677D01*
X1510981Y1068101D01*
Y1042709D01*
X1523677Y1030013D01*
X1587157Y1106189D02*
X1536373D01*
X1510981Y1131580D01*
X1536373Y1156972D01*
X1587157D01*
X1574461Y1182364D02*
X1587157Y1195060D01*
Y1220452D01*
X1574461Y1233147D01*
X1523677D01*
X1510981Y1220452D01*
Y1195060D01*
X1523677Y1182364D01*
X1574461D01*
X1510172Y707898D02*
X1586347D01*
Y745986D01*
X1573651Y758682D01*
X1548260D01*
X1535564Y745986D01*
Y707898D01*
Y733290D02*
X1510172Y758682D01*
X1573651Y834857D02*
X1586347Y822161D01*
Y796770D01*
X1573651Y784074D01*
X1560955D01*
X1548260Y796770D01*
Y822161D01*
X1535564Y834857D01*
X1522868D01*
X1510172Y822161D01*
Y796770D01*
X1522868Y784074D01*
X1586347Y860249D02*
Y911032D01*
Y885641D01*
X1510172D01*
X1319651Y707898D02*
X1332347Y720594D01*
Y745986D01*
X1319651Y758682D01*
X1306955D01*
X1294260Y745986D01*
Y733290D01*
Y745986D01*
X1281564Y758682D01*
X1268868D01*
X1256172Y745986D01*
Y720594D01*
X1268868Y707898D01*
X1332347Y784074D02*
X1281564D01*
X1256172Y809465D01*
X1281564Y834857D01*
X1332347D01*
X1319651Y860249D02*
X1332347Y872945D01*
Y898337D01*
X1319651Y911032D01*
X1306955D01*
X1294260Y898337D01*
Y885641D01*
Y898337D01*
X1281564Y911032D01*
X1268868D01*
X1256172Y898337D01*
Y872945D01*
X1268868Y860249D01*
X1065651Y758682D02*
X1078347Y745986D01*
Y720594D01*
X1065651Y707898D01*
X1014868D01*
X1002172Y720594D01*
Y745986D01*
X1014868Y758682D01*
X1040260D01*
Y733290D01*
X1002172Y784074D02*
X1078347D01*
X1002172Y834857D01*
X1078347D01*
Y860249D02*
X1002172D01*
Y898337D01*
X1014868Y911032D01*
X1065651D01*
X1078347Y898337D01*
Y860249D01*
X824347Y707898D02*
Y758682D01*
Y733290D01*
X748172D01*
X824347Y784074D02*
X748172Y834857D01*
X824347D02*
X748172Y784074D01*
X494172Y707898D02*
X570347D01*
Y745986D01*
X557651Y758682D01*
X532260D01*
X519564Y745986D01*
Y707898D01*
Y733290D02*
X494172Y758682D01*
X570347Y784074D02*
X494172Y834857D01*
X570347D02*
X494172Y784074D01*
D39*
X1032004Y141357D02*
X1052318D01*
X1042161D01*
Y90573D01*
X1052318Y80416D01*
X1062474D01*
X1072631Y90573D01*
X1011691Y80416D02*
X991377D01*
X1001534D01*
Y141357D01*
X1011691Y131200D01*
X2547088Y455320D02*
Y394380D01*
X2516618D01*
X2506461Y404537D01*
Y414694D01*
X2516618Y424850D01*
X2547088D01*
X2516618D01*
X2506461Y435007D01*
Y445164D01*
X2516618Y455320D01*
X2547088D01*
X2486148Y394380D02*
Y435007D01*
X2465834Y455320D01*
X2445521Y435007D01*
Y394380D01*
Y424850D01*
X2486148D01*
X2425207Y455320D02*
X2384581D01*
X2404894D01*
Y394380D01*
X2364267D02*
X2343954D01*
X2354111D01*
Y455320D01*
X2364267Y445164D01*
%TF.MD5,89c1494e0a17beb8d218c9de42058c84*%
M02*
