%TF.GenerationSoftware,Altium Limited,Altium Designer,20.1.8 (145)*%
G04 Layer_Color=0*
%FSLAX45Y45*%
%MOMM*%
%TF.SameCoordinates,F0989897-1A12-473C-90C7-768902EF80F2*%
%TF.FilePolarity,Positive*%
%TF.FileFunction,Plated,1,4,PTH,Drill*%
%TF.Part,Single*%
G01*
G75*
%TA.AperFunction,ComponentDrill*%
%ADD68C,0.95000*%
%TA.AperFunction,OtherDrill,Pad Free-1 (27mm,17mm)*%
%ADD69C,2.20000*%
%TA.AperFunction,OtherDrill,Pad Free-1 (2mm,8mm)*%
%ADD70C,2.20000*%
%TA.AperFunction,OtherDrill,Pad Free-1 (2mm,26mm)*%
%ADD71C,2.20000*%
%TA.AperFunction,OtherDrill,Pad Free-1 (54mm,26mm)*%
%ADD72C,2.20000*%
%TA.AperFunction,OtherDrill,Pad Free-1 (54mm,8mm)*%
%ADD73C,2.20000*%
%TA.AperFunction,ViaDrill,NotFilled*%
%ADD74C,0.30000*%
D68*
X1905099Y2603500D02*
D03*
X1651099D02*
D03*
X190500Y1968500D02*
D03*
X2139895Y2603500D02*
D03*
X190500Y2222500D02*
D03*
X1540004Y247460D02*
D03*
X1286004D02*
D03*
X1032004D02*
D03*
X778004D02*
D03*
X524004D02*
D03*
Y501460D02*
D03*
X778004D02*
D03*
X1032004D02*
D03*
X1286004D02*
D03*
X1540004D02*
D03*
X2600960Y995680D02*
D03*
X2854960Y995680D02*
D03*
X3108960Y995680D02*
D03*
Y1249680D02*
D03*
X2854960Y1249680D02*
D03*
X2600960Y1249680D02*
D03*
X2341880Y242570D02*
D03*
X2595880D02*
D03*
X3124700Y2500000D02*
D03*
X2870700D02*
D03*
X2616700D02*
D03*
X2362700D02*
D03*
D69*
X2700000Y1700000D02*
D03*
D70*
X200000Y800000D02*
D03*
D71*
Y2600000D02*
D03*
D72*
X5400000D02*
D03*
D73*
Y800000D02*
D03*
D74*
X1303859Y1762422D02*
D03*
X950230Y1693835D02*
D03*
X1362307Y1837050D02*
D03*
X3053117Y2183190D02*
D03*
X1458572Y45780D02*
D03*
X2437980Y638660D02*
D03*
Y559020D02*
D03*
X2562860D02*
D03*
Y638660D02*
D03*
X2437980Y717144D02*
D03*
X2562860D02*
D03*
X2500880Y559020D02*
D03*
Y717144D02*
D03*
X1813479Y419545D02*
D03*
X344063Y1039480D02*
D03*
X567030Y1747452D02*
D03*
X661130Y1736799D02*
D03*
X791130Y709136D02*
D03*
X761511Y1562913D02*
D03*
X378125Y326800D02*
D03*
X471761Y702019D02*
D03*
X2437687Y2145379D02*
D03*
X2290275Y1648850D02*
D03*
X2276395Y1742950D02*
D03*
X3189533Y913712D02*
D03*
X3646621Y1218880D02*
D03*
X3218260Y1486521D02*
D03*
X3369960Y1577285D02*
D03*
X1483605Y754300D02*
D03*
X2409304Y1157359D02*
D03*
X2285260Y1388745D02*
D03*
X2372648Y1471295D02*
D03*
X2285029Y1554567D02*
D03*
X1898690Y1200426D02*
D03*
X785695Y1954605D02*
D03*
X267768Y1526652D02*
D03*
X1813479Y583650D02*
D03*
X1373504Y1677927D02*
D03*
X2838985Y883285D02*
D03*
X2839244Y747500D02*
D03*
X2060203Y810801D02*
D03*
X1894560Y1087556D02*
D03*
X2060440D02*
D03*
X1895193Y810166D02*
D03*
X1866880Y1139534D02*
D03*
X2040425Y301438D02*
D03*
X1955124Y218440D02*
D03*
X1977381Y315854D02*
D03*
X3695521Y747500D02*
D03*
X2696548Y892643D02*
D03*
X2511024Y1098711D02*
D03*
X2651966Y790923D02*
D03*
X1874619Y552320D02*
D03*
X1874759Y450600D02*
D03*
X1752139D02*
D03*
Y552320D02*
D03*
X504190Y886283D02*
D03*
X1042053Y680546D02*
D03*
X1502480Y1258159D02*
D03*
X3333216Y2104509D02*
D03*
X3787856Y2629609D02*
D03*
X3881956Y2328848D02*
D03*
X3239506Y2283967D02*
D03*
X380965Y1207662D02*
D03*
X860569Y1252838D02*
D03*
X844364Y1158738D02*
D03*
X858605Y1064638D02*
D03*
X903880Y1342604D02*
D03*
X995003Y730855D02*
D03*
X2957262Y2247099D02*
D03*
X1660178Y2469944D02*
D03*
Y2254707D02*
D03*
X3423158Y2467619D02*
D03*
X1128020Y599790D02*
D03*
X1130730Y766567D02*
D03*
X334470Y45780D02*
D03*
X483340Y1207785D02*
D03*
X5325120Y1549209D02*
D03*
X5150758Y981390D02*
D03*
X4879207Y1148689D02*
D03*
X4862680Y2595880D02*
D03*
X4857316Y2472497D02*
D03*
X3644616Y2104509D02*
D03*
X3647156Y832213D02*
D03*
X3028386Y913712D02*
D03*
X3336010Y819612D02*
D03*
X5325120Y1432330D02*
D03*
Y1302330D02*
D03*
X5163509Y1372719D02*
D03*
X4770719Y1230359D02*
D03*
X5186716Y2101970D02*
D03*
X5186708Y2220359D02*
D03*
X4865496Y2122019D02*
D03*
X1630897Y1937950D02*
D03*
X1419146Y1566000D02*
D03*
X1094960Y1563918D02*
D03*
X1015626Y1617662D02*
D03*
X1412101Y1920333D02*
D03*
X5089128Y645780D02*
D03*
X4395820D02*
D03*
X3702512D02*
D03*
X3009204D02*
D03*
X3635571Y2198609D02*
D03*
X3737462Y2318209D02*
D03*
X3665156Y2417224D02*
D03*
X2957262Y2412468D02*
D03*
X2003205Y1985139D02*
D03*
X2264340Y1837666D02*
D03*
X1866880Y1261318D02*
D03*
X1658360Y1139206D02*
D03*
Y1261645D02*
D03*
X1760080Y1153376D02*
D03*
Y1247476D02*
D03*
X856130Y1561397D02*
D03*
X870120Y970539D02*
D03*
X655738Y757621D02*
D03*
X3339580Y2200246D02*
D03*
X2871835Y2329784D02*
D03*
X1076700Y1103246D02*
D03*
X5381631Y2216294D02*
D03*
X5554208Y1164215D02*
D03*
Y2287812D02*
D03*
X497486Y108675D02*
D03*
X3807931Y2753995D02*
D03*
X3643922Y2278169D02*
D03*
X141605Y1757277D02*
D03*
X223520Y1840992D02*
D03*
X353036Y1848027D02*
D03*
X380379Y1396364D02*
D03*
X5427912Y1833440D02*
D03*
X5427498Y1373957D02*
D03*
X5467116Y2299264D02*
D03*
X55880Y1744092D02*
D03*
X1627186Y1200426D02*
D03*
X5554208Y1726014D02*
D03*
X2183366Y2753995D02*
D03*
X1790178Y2063650D02*
D03*
X2995649Y2753995D02*
D03*
X55880Y2367279D02*
D03*
X4620214Y2753995D02*
D03*
X1420000Y2085340D02*
D03*
X55880Y1120905D02*
D03*
Y201352D02*
D03*
X776990Y115501D02*
D03*
X2854197Y45780D02*
D03*
Y474555D02*
D03*
X2203704Y45780D02*
D03*
X55880Y523240D02*
D03*
X580000Y2085340D02*
D03*
X558800Y2753995D02*
D03*
X1371083D02*
D03*
X3333606Y2277714D02*
D03*
X1585595Y1343280D02*
D03*
X1419860D02*
D03*
X2059675Y401300D02*
D03*
X2112800Y2047914D02*
D03*
X1098180Y977892D02*
D03*
X2222395Y1985139D02*
D03*
X3488251Y2373519D02*
D03*
%TF.MD5,7c4fe23b1d239ce9868b462c16fd69fb*%
M02*
