%TF.GenerationSoftware,Altium Limited,Altium Designer,20.1.8 (145)*%
G04 Layer_Physical_Order=1*
G04 Layer_Color=2232046*
%FSLAX45Y45*%
%MOMM*%
%TF.SameCoordinates,F0989897-1A12-473C-90C7-768902EF80F2*%
%TF.FilePolarity,Positive*%
%TF.FileFunction,Copper,L1,Top,Signal*%
%TF.Part,Single*%
G01*
G75*
%TA.AperFunction,SMDPad,CuDef*%
%ADD10C,1.00000*%
G04:AMPARAMS|DCode=11|XSize=0.85mm|YSize=0.85mm|CornerRadius=0.0425mm|HoleSize=0mm|Usage=FLASHONLY|Rotation=0.000|XOffset=0mm|YOffset=0mm|HoleType=Round|Shape=RoundedRectangle|*
%AMROUNDEDRECTD11*
21,1,0.85000,0.76500,0,0,0.0*
21,1,0.76500,0.85000,0,0,0.0*
1,1,0.08500,0.38250,-0.38250*
1,1,0.08500,-0.38250,-0.38250*
1,1,0.08500,-0.38250,0.38250*
1,1,0.08500,0.38250,0.38250*
%
%ADD11ROUNDEDRECTD11*%
G04:AMPARAMS|DCode=12|XSize=0.6mm|YSize=0.9mm|CornerRadius=0.03mm|HoleSize=0mm|Usage=FLASHONLY|Rotation=0.000|XOffset=0mm|YOffset=0mm|HoleType=Round|Shape=RoundedRectangle|*
%AMROUNDEDRECTD12*
21,1,0.60000,0.84000,0,0,0.0*
21,1,0.54000,0.90000,0,0,0.0*
1,1,0.06000,0.27000,-0.42000*
1,1,0.06000,-0.27000,-0.42000*
1,1,0.06000,-0.27000,0.42000*
1,1,0.06000,0.27000,0.42000*
%
%ADD12ROUNDEDRECTD12*%
%ADD13O,0.45000X1.40000*%
G04:AMPARAMS|DCode=14|XSize=0.85mm|YSize=0.9mm|CornerRadius=0.0425mm|HoleSize=0mm|Usage=FLASHONLY|Rotation=270.000|XOffset=0mm|YOffset=0mm|HoleType=Round|Shape=RoundedRectangle|*
%AMROUNDEDRECTD14*
21,1,0.85000,0.81500,0,0,270.0*
21,1,0.76500,0.90000,0,0,270.0*
1,1,0.08500,-0.40750,-0.38250*
1,1,0.08500,-0.40750,0.38250*
1,1,0.08500,0.40750,0.38250*
1,1,0.08500,0.40750,-0.38250*
%
%ADD14ROUNDEDRECTD14*%
G04:AMPARAMS|DCode=15|XSize=0.85mm|YSize=0.9mm|CornerRadius=0.0425mm|HoleSize=0mm|Usage=FLASHONLY|Rotation=180.000|XOffset=0mm|YOffset=0mm|HoleType=Round|Shape=RoundedRectangle|*
%AMROUNDEDRECTD15*
21,1,0.85000,0.81500,0,0,180.0*
21,1,0.76500,0.90000,0,0,180.0*
1,1,0.08500,-0.38250,0.40750*
1,1,0.08500,0.38250,0.40750*
1,1,0.08500,0.38250,-0.40750*
1,1,0.08500,-0.38250,-0.40750*
%
%ADD15ROUNDEDRECTD15*%
%ADD16O,1.40000X0.45000*%
%TA.AperFunction,ConnectorPad*%
G04:AMPARAMS|DCode=17|XSize=1.1mm|YSize=2.3mm|CornerRadius=0.0055mm|HoleSize=0mm|Usage=FLASHONLY|Rotation=270.000|XOffset=0mm|YOffset=0mm|HoleType=Round|Shape=RoundedRectangle|*
%AMROUNDEDRECTD17*
21,1,1.10000,2.28900,0,0,270.0*
21,1,1.08900,2.30000,0,0,270.0*
1,1,0.01100,-1.14450,-0.54450*
1,1,0.01100,-1.14450,0.54450*
1,1,0.01100,1.14450,0.54450*
1,1,0.01100,1.14450,-0.54450*
%
%ADD17ROUNDEDRECTD17*%
G04:AMPARAMS|DCode=18|XSize=1.1mm|YSize=2.3mm|CornerRadius=0.0055mm|HoleSize=0mm|Usage=FLASHONLY|Rotation=0.000|XOffset=0mm|YOffset=0mm|HoleType=Round|Shape=RoundedRectangle|*
%AMROUNDEDRECTD18*
21,1,1.10000,2.28900,0,0,0.0*
21,1,1.08900,2.30000,0,0,0.0*
1,1,0.01100,0.54450,-1.14450*
1,1,0.01100,-0.54450,-1.14450*
1,1,0.01100,-0.54450,1.14450*
1,1,0.01100,0.54450,1.14450*
%
%ADD18ROUNDEDRECTD18*%
%TA.AperFunction,SMDPad,CuDef*%
%ADD19O,0.50000X0.75000*%
G04:AMPARAMS|DCode=20|XSize=0.75mm|YSize=0.5mm|CornerRadius=0mm|HoleSize=0mm|Usage=FLASHONLY|Rotation=45.000|XOffset=0mm|YOffset=0mm|HoleType=Round|Shape=Round|*
%AMOVALD20*
21,1,0.25000,0.50000,0.00000,0.00000,45.0*
1,1,0.50000,-0.08839,-0.08839*
1,1,0.50000,0.08839,0.08839*
%
%ADD20OVALD20*%

%ADD21O,0.75000X0.50000*%
G04:AMPARAMS|DCode=22|XSize=2.1mm|YSize=1mm|CornerRadius=0.05mm|HoleSize=0mm|Usage=FLASHONLY|Rotation=180.000|XOffset=0mm|YOffset=0mm|HoleType=Round|Shape=RoundedRectangle|*
%AMROUNDEDRECTD22*
21,1,2.10000,0.90000,0,0,180.0*
21,1,2.00000,1.00000,0,0,180.0*
1,1,0.10000,-1.00000,0.45000*
1,1,0.10000,1.00000,0.45000*
1,1,0.10000,1.00000,-0.45000*
1,1,0.10000,-1.00000,-0.45000*
%
%ADD22ROUNDEDRECTD22*%
G04:AMPARAMS|DCode=23|XSize=0.85mm|YSize=0.85mm|CornerRadius=0.0425mm|HoleSize=0mm|Usage=FLASHONLY|Rotation=90.000|XOffset=0mm|YOffset=0mm|HoleType=Round|Shape=RoundedRectangle|*
%AMROUNDEDRECTD23*
21,1,0.85000,0.76500,0,0,90.0*
21,1,0.76500,0.85000,0,0,90.0*
1,1,0.08500,0.38250,0.38250*
1,1,0.08500,0.38250,-0.38250*
1,1,0.08500,-0.38250,-0.38250*
1,1,0.08500,-0.38250,0.38250*
%
%ADD23ROUNDEDRECTD23*%
G04:AMPARAMS|DCode=24|XSize=0.6mm|YSize=1.05mm|CornerRadius=0.03mm|HoleSize=0mm|Usage=FLASHONLY|Rotation=180.000|XOffset=0mm|YOffset=0mm|HoleType=Round|Shape=RoundedRectangle|*
%AMROUNDEDRECTD24*
21,1,0.60000,0.99000,0,0,180.0*
21,1,0.54000,1.05000,0,0,180.0*
1,1,0.06000,-0.27000,0.49500*
1,1,0.06000,0.27000,0.49500*
1,1,0.06000,0.27000,-0.49500*
1,1,0.06000,-0.27000,-0.49500*
%
%ADD24ROUNDEDRECTD24*%
G04:AMPARAMS|DCode=25|XSize=0.25mm|YSize=0.55mm|CornerRadius=0.0125mm|HoleSize=0mm|Usage=FLASHONLY|Rotation=0.000|XOffset=0mm|YOffset=0mm|HoleType=Round|Shape=RoundedRectangle|*
%AMROUNDEDRECTD25*
21,1,0.25000,0.52500,0,0,0.0*
21,1,0.22500,0.55000,0,0,0.0*
1,1,0.02500,0.11250,-0.26250*
1,1,0.02500,-0.11250,-0.26250*
1,1,0.02500,-0.11250,0.26250*
1,1,0.02500,0.11250,0.26250*
%
%ADD25ROUNDEDRECTD25*%
%TA.AperFunction,Conductor*%
%ADD26C,0.12700*%
%ADD27C,0.25400*%
%ADD28C,0.20320*%
%ADD29C,0.30480*%
%ADD30C,0.15240*%
%TA.AperFunction,ComponentPad*%
%ADD31C,1.50000*%
G04:AMPARAMS|DCode=32|XSize=1.5mm|YSize=1.45mm|CornerRadius=0.18125mm|HoleSize=0mm|Usage=FLASHONLY|Rotation=180.000|XOffset=0mm|YOffset=0mm|HoleType=Round|Shape=RoundedRectangle|*
%AMROUNDEDRECTD32*
21,1,1.50000,1.08750,0,0,180.0*
21,1,1.13750,1.45000,0,0,180.0*
1,1,0.36250,-0.56875,0.54375*
1,1,0.36250,0.56875,0.54375*
1,1,0.36250,0.56875,-0.54375*
1,1,0.36250,-0.56875,-0.54375*
%
%ADD32ROUNDEDRECTD32*%
%ADD33O,1.50000X1.45000*%
%TA.AperFunction,ViaPad*%
%ADD34C,3.60000*%
%TA.AperFunction,ComponentPad*%
%ADD35C,1.52400*%
G04:AMPARAMS|DCode=36|XSize=1.524mm|YSize=1.524mm|CornerRadius=0.1905mm|HoleSize=0mm|Usage=FLASHONLY|Rotation=180.000|XOffset=0mm|YOffset=0mm|HoleType=Round|Shape=RoundedRectangle|*
%AMROUNDEDRECTD36*
21,1,1.52400,1.14300,0,0,180.0*
21,1,1.14300,1.52400,0,0,180.0*
1,1,0.38100,-0.57150,0.57150*
1,1,0.38100,0.57150,0.57150*
1,1,0.38100,0.57150,-0.57150*
1,1,0.38100,-0.57150,-0.57150*
%
%ADD36ROUNDEDRECTD36*%
%TA.AperFunction,ViaPad*%
%ADD37C,0.56000*%
G36*
X200000Y2782065D02*
X5397715D01*
X5415403Y2781417D01*
X5415921Y2781395D01*
X5417500Y2781327D01*
X5434444Y2778851D01*
X5435544Y2778688D01*
X5452888Y2774343D01*
X5469722Y2768320D01*
X5485884Y2760676D01*
X5501220Y2751484D01*
X5515580Y2740833D01*
X5528828Y2728826D01*
X5540835Y2715579D01*
X5551485Y2701218D01*
X5560677Y2685883D01*
X5568321Y2669720D01*
X5574344Y2652886D01*
X5578689Y2635543D01*
X5581312Y2617857D01*
X5582156Y2600680D01*
X5582067Y2600000D01*
Y800000D01*
X5582156Y799320D01*
X5581312Y782142D01*
X5578689Y764457D01*
X5574344Y747113D01*
X5568321Y730279D01*
X5560677Y714117D01*
X5551485Y698781D01*
X5540834Y684421D01*
X5528827Y671173D01*
X5515580Y659166D01*
X5501219Y648515D01*
X5485884Y639324D01*
X5469721Y631679D01*
X5452887Y625656D01*
X5435544Y621311D01*
X5417858Y618688D01*
X5400680Y617844D01*
X5400000Y617934D01*
X3000000Y617934D01*
Y617967D01*
X2986792Y617225D01*
X2982795Y616545D01*
X2973750Y615008D01*
X2961038Y611346D01*
X2948817Y606284D01*
X2937238Y599885D01*
X2926450Y592230D01*
X2916586Y583415D01*
X2907771Y573551D01*
X2900116Y562762D01*
X2893717Y551184D01*
X2888654Y538962D01*
X2884992Y526250D01*
X2883455Y517206D01*
X2882775Y513209D01*
X2882034Y500000D01*
X2882067D01*
Y17933D01*
X200000D01*
X199320Y17844D01*
X182142Y18688D01*
X164457Y21311D01*
X147113Y25656D01*
X130279Y31679D01*
X114117Y39323D01*
X98781Y48515D01*
X84420Y59166D01*
X71173Y71173D01*
X59166Y84420D01*
X48515Y98781D01*
X39323Y114117D01*
X31679Y130279D01*
X25656Y147113D01*
X21311Y164457D01*
X18688Y182142D01*
X17852Y199150D01*
X17934Y199769D01*
X17933Y2600000D01*
X17844Y2600680D01*
X18688Y2617856D01*
X21311Y2635542D01*
X25656Y2652885D01*
X31679Y2669720D01*
X39323Y2685882D01*
X48515Y2701218D01*
X59166Y2715579D01*
X71173Y2728826D01*
X84420Y2740833D01*
X98781Y2751484D01*
X114117Y2760675D01*
X130279Y2768320D01*
X147113Y2774343D01*
X164457Y2778688D01*
X182142Y2781311D01*
X199320Y2782155D01*
X200000Y2782065D01*
D02*
G37*
%LPC*%
G36*
X1520000Y2687853D02*
X1320000D01*
X1315379Y2687244D01*
X1311074Y2685461D01*
X1307376Y2682624D01*
X1304539Y2678926D01*
X1302756Y2674621D01*
X1302147Y2670000D01*
Y2644214D01*
X697853D01*
Y2670000D01*
X697244Y2674621D01*
X695461Y2678926D01*
X692624Y2682624D01*
X688926Y2685461D01*
X684621Y2687244D01*
X680000Y2687853D01*
X480000D01*
X475380Y2687244D01*
X471074Y2685461D01*
X467376Y2682624D01*
X464539Y2678926D01*
X462756Y2674621D01*
X462147Y2670000D01*
Y2581441D01*
X462135Y2581350D01*
X462136Y2581348D01*
Y2339246D01*
X410237Y2287348D01*
X407184Y2283368D01*
X405264Y2278734D01*
X404609Y2273761D01*
X404610Y2273759D01*
Y2080461D01*
X404609Y2080459D01*
X405264Y2075486D01*
X407184Y2070852D01*
X410237Y2066872D01*
X500766Y1976344D01*
Y1727965D01*
X500766Y1727963D01*
X501420Y1722990D01*
X503340Y1718356D01*
X506393Y1714376D01*
X558893Y1661877D01*
Y1272560D01*
X558893Y1272558D01*
X559548Y1267585D01*
X561468Y1262951D01*
X564521Y1258971D01*
X725390Y1098103D01*
X725391Y1098102D01*
X729370Y1095048D01*
X734005Y1093129D01*
X738977Y1092474D01*
X738979Y1092474D01*
X870135D01*
X994218Y968391D01*
X992081Y950540D01*
X984088Y947210D01*
X981716Y948478D01*
X975080Y950491D01*
X968180Y951170D01*
X961547Y950517D01*
X941767Y970297D01*
Y984642D01*
X941767Y984644D01*
X941113Y989617D01*
X939193Y994252D01*
X936140Y998231D01*
X936139Y998232D01*
X903196Y1031175D01*
X899216Y1034229D01*
X894582Y1036148D01*
X889609Y1036803D01*
X889607Y1036803D01*
X748036D01*
X522209Y1262630D01*
Y1546505D01*
X524041Y1547484D01*
X529782Y1552195D01*
X534493Y1557936D01*
X537993Y1564485D01*
X540149Y1571592D01*
X540877Y1578982D01*
Y1603982D01*
X540149Y1611373D01*
X537993Y1618479D01*
X534493Y1625029D01*
X529782Y1630769D01*
X524041Y1635480D01*
X517492Y1638981D01*
X510385Y1641137D01*
X502995Y1641865D01*
X495604Y1641137D01*
X488498Y1638981D01*
X481948Y1635480D01*
X476208Y1630769D01*
X471497Y1625029D01*
X467996Y1618479D01*
X465840Y1611373D01*
X465774Y1610697D01*
X409674D01*
Y1665882D01*
X409092Y1670307D01*
X407383Y1674430D01*
X404667Y1677971D01*
X401126Y1680688D01*
X397003Y1682396D01*
X392578Y1682979D01*
X373543D01*
Y1701930D01*
X392578D01*
X397003Y1702513D01*
X401126Y1704221D01*
X404666Y1706938D01*
X407383Y1710478D01*
X409091Y1714602D01*
X409674Y1719027D01*
Y1795527D01*
X409091Y1799952D01*
X407383Y1804075D01*
X404666Y1807616D01*
X401126Y1810332D01*
X397003Y1812041D01*
X392578Y1812623D01*
X316077D01*
X311652Y1812041D01*
X307529Y1810332D01*
X303988Y1807616D01*
X301272Y1804075D01*
X299564Y1799952D01*
X298981Y1795527D01*
Y1719027D01*
X299564Y1714602D01*
X301272Y1710478D01*
X303988Y1706938D01*
X307529Y1704221D01*
X311652Y1702513D01*
X316077Y1701930D01*
X335115D01*
Y1682979D01*
X316078D01*
X311653Y1682396D01*
X307529Y1680688D01*
X303989Y1677971D01*
X301272Y1674430D01*
X299564Y1670307D01*
X298981Y1665882D01*
Y1589382D01*
X299564Y1584957D01*
X301272Y1580834D01*
X303989Y1577293D01*
X307529Y1574576D01*
X311653Y1572868D01*
X316078Y1572286D01*
X390339D01*
X390478Y1572268D01*
X390480Y1572268D01*
X465774D01*
X465840Y1571592D01*
X467996Y1564485D01*
X471497Y1557936D01*
X476208Y1552195D01*
X481948Y1547484D01*
X483780Y1546505D01*
Y1254673D01*
X483780Y1254671D01*
X484435Y1249698D01*
X486355Y1245063D01*
X489408Y1241084D01*
X726489Y1004003D01*
X726490Y1004002D01*
X730469Y1000948D01*
X735104Y999029D01*
X740077Y998374D01*
X881650D01*
X903339Y976686D01*
Y968384D01*
X903282Y962243D01*
X898260Y953814D01*
X889644Y948478D01*
X883529Y945209D01*
X882561Y944414D01*
X876542Y940811D01*
X864818D01*
X858799Y944414D01*
X857831Y945209D01*
X851716Y948478D01*
X845080Y950491D01*
X838180Y951170D01*
X831280Y950491D01*
X824644Y948478D01*
X818529Y945209D01*
X817560Y944414D01*
X811541Y940811D01*
X799819D01*
X793800Y944414D01*
X792831Y945209D01*
X786716Y948478D01*
X780080Y950491D01*
X773180Y951170D01*
X766280Y950491D01*
X759644Y948478D01*
X753529Y945209D01*
X752561Y944414D01*
X746542Y940811D01*
X743256D01*
X727394Y955516D01*
Y966147D01*
X727395Y966149D01*
X726739Y971123D01*
X724820Y975757D01*
X721767Y979736D01*
X721766Y979737D01*
X624881Y1076622D01*
X620901Y1079675D01*
X616268Y1081594D01*
X611294Y1082250D01*
X611292Y1082249D01*
X559536D01*
Y1137435D01*
X558954Y1141860D01*
X557246Y1145983D01*
X554529Y1149524D01*
X550988Y1152241D01*
X546865Y1153949D01*
X542440Y1154531D01*
X504801D01*
X487255Y1156548D01*
X486600Y1161521D01*
X484680Y1166155D01*
X481627Y1170135D01*
X481626Y1170136D01*
X447249Y1204512D01*
Y1437944D01*
X449081Y1438923D01*
X454822Y1443634D01*
X459533Y1449375D01*
X463034Y1455924D01*
X465189Y1463031D01*
X465917Y1470421D01*
Y1495421D01*
X465189Y1502812D01*
X463034Y1509918D01*
X459533Y1516468D01*
X454822Y1522208D01*
X449081Y1526919D01*
X442532Y1530420D01*
X435425Y1532576D01*
X428035Y1533304D01*
X420645Y1532576D01*
X413538Y1530420D01*
X406989Y1526919D01*
X401248Y1522208D01*
X396537Y1516468D01*
X395201Y1513968D01*
X302410D01*
X302408Y1513968D01*
X297435Y1513313D01*
X292801Y1511393D01*
X288821Y1508340D01*
X269432Y1488951D01*
X266378Y1484971D01*
X264459Y1480337D01*
X263804Y1475364D01*
X263804Y1475362D01*
Y1450624D01*
X251868Y1443744D01*
X239932Y1450624D01*
Y1572286D01*
X262578D01*
X267003Y1572868D01*
X271126Y1574576D01*
X274667Y1577293D01*
X277383Y1580834D01*
X279092Y1584957D01*
X279674Y1589382D01*
Y1665882D01*
X279092Y1670307D01*
X277383Y1674430D01*
X274667Y1677971D01*
X271126Y1680688D01*
X267003Y1682396D01*
X262578Y1682979D01*
X186078D01*
X181653Y1682396D01*
X177529Y1680688D01*
X173989Y1677971D01*
X171272Y1674430D01*
X169564Y1670307D01*
X168981Y1665882D01*
Y1589382D01*
X169564Y1584957D01*
X171272Y1580834D01*
X173989Y1577293D01*
X177529Y1574576D01*
X181653Y1572868D01*
X186078Y1572286D01*
X201504D01*
Y1402516D01*
X201503Y1402514D01*
X201548Y1402176D01*
Y1370114D01*
X202027Y1366472D01*
X203433Y1363079D01*
X205669Y1360165D01*
X208583Y1357929D01*
X211976Y1356523D01*
X215618Y1356044D01*
X238118D01*
X241759Y1356523D01*
X245153Y1357928D01*
X258583D01*
X261977Y1356523D01*
X265618Y1356044D01*
X288118D01*
X291760Y1356523D01*
X295154Y1357928D01*
X308583D01*
X311977Y1356523D01*
X315618Y1356044D01*
X320518D01*
Y1396364D01*
Y1436684D01*
X315619D01*
X305345Y1446556D01*
X302233Y1451413D01*
Y1467405D01*
X310367Y1475539D01*
X390153D01*
Y1470421D01*
X390881Y1463031D01*
X393036Y1455924D01*
X396537Y1449375D01*
X401248Y1443634D01*
X406989Y1438923D01*
X408821Y1437944D01*
Y1196555D01*
X408820Y1196553D01*
X409475Y1191580D01*
X411395Y1186946D01*
X414448Y1182966D01*
X448826Y1148589D01*
Y1135337D01*
X448825Y1135335D01*
X448844Y1135196D01*
Y1060935D01*
X449426Y1056510D01*
X451134Y1052387D01*
X453851Y1048846D01*
X457392Y1046129D01*
X461515Y1044421D01*
X465940Y1043839D01*
X540201D01*
X540340Y1043820D01*
X540342Y1043821D01*
X603335D01*
X685544Y961612D01*
X685636Y961109D01*
X684790Y942140D01*
X683169Y940811D01*
X678771Y935451D01*
X675502Y929336D01*
X673489Y922700D01*
X672810Y915800D01*
Y820800D01*
X673489Y813900D01*
X675502Y807264D01*
X678771Y801149D01*
X683169Y795789D01*
X688529Y791391D01*
X694644Y788122D01*
X701280Y786109D01*
X708180Y785430D01*
X715080Y786109D01*
X721716Y788122D01*
X727831Y791391D01*
X728799Y792186D01*
X734818Y795789D01*
X738104D01*
X752192Y782729D01*
X752421Y764139D01*
X718067Y729786D01*
X546854D01*
X546852Y729786D01*
X541879Y729131D01*
X537245Y727211D01*
X533265Y724158D01*
X533265Y724157D01*
X384124Y575017D01*
X381071Y571037D01*
X379151Y566403D01*
X378496Y561430D01*
X378496Y561428D01*
Y373755D01*
X378496Y373753D01*
X379151Y368781D01*
X381071Y364146D01*
X384124Y360167D01*
X450196Y294095D01*
X447561Y290151D01*
X442621Y280135D01*
X439031Y269559D01*
X436852Y258605D01*
X436122Y247460D01*
X436852Y236315D01*
X439031Y225361D01*
X442621Y214785D01*
X447561Y204769D01*
X453766Y195482D01*
X461130Y187085D01*
X469527Y179721D01*
X478813Y173516D01*
X488830Y168576D01*
X499406Y164986D01*
X510360Y162808D01*
X521504Y162077D01*
X526504D01*
X537649Y162808D01*
X548603Y164986D01*
X559179Y168576D01*
X569196Y173516D01*
X578482Y179721D01*
X586879Y187085D01*
X594243Y195482D01*
X600448Y204769D01*
X605388Y214785D01*
X608978Y225361D01*
X611157Y236315D01*
X611887Y247460D01*
X611157Y258605D01*
X608978Y269559D01*
X605388Y280135D01*
X600448Y290151D01*
X594243Y299438D01*
X586879Y307835D01*
X578482Y315199D01*
X569196Y321404D01*
X559179Y326344D01*
X548603Y329934D01*
X537649Y332112D01*
X526504Y332843D01*
X521504D01*
X510360Y332112D01*
X499406Y329934D01*
X488830Y326344D01*
X478813Y321404D01*
X477866Y320771D01*
X416925Y381712D01*
Y553471D01*
X554811Y691357D01*
X726024D01*
X726026Y691357D01*
X730999Y692012D01*
X735634Y693931D01*
X739613Y696985D01*
X786766Y744137D01*
X786767Y744138D01*
X789820Y748118D01*
X791740Y752752D01*
X792395Y757725D01*
X792394Y757727D01*
Y781472D01*
X810174Y789234D01*
X818966Y781084D01*
Y697606D01*
X787346Y665987D01*
X744507D01*
X744505Y665987D01*
X739532Y665332D01*
X734898Y663413D01*
X730918Y660359D01*
X730918Y660358D01*
X637243Y566684D01*
X634190Y562704D01*
X632270Y558070D01*
X631615Y553097D01*
X631615Y553095D01*
Y374636D01*
X631615Y374634D01*
X632270Y369661D01*
X634190Y365027D01*
X637243Y361048D01*
X704196Y294095D01*
X701561Y290151D01*
X696621Y280135D01*
X693031Y269559D01*
X690852Y258605D01*
X690122Y247460D01*
X690852Y236315D01*
X693031Y225361D01*
X696621Y214785D01*
X701561Y204769D01*
X707766Y195482D01*
X715130Y187085D01*
X723527Y179721D01*
X732813Y173516D01*
X742830Y168576D01*
X753406Y164986D01*
X764360Y162808D01*
X775504Y162077D01*
X780504D01*
X791649Y162808D01*
X802603Y164986D01*
X813179Y168576D01*
X823196Y173516D01*
X832482Y179721D01*
X840879Y187085D01*
X848243Y195482D01*
X854448Y204769D01*
X859388Y214785D01*
X862978Y225361D01*
X865157Y236315D01*
X865887Y247460D01*
X865157Y258605D01*
X862978Y269559D01*
X859388Y280135D01*
X854448Y290151D01*
X848243Y299438D01*
X840879Y307835D01*
X832482Y315199D01*
X823196Y321404D01*
X813179Y326344D01*
X802603Y329934D01*
X791649Y332112D01*
X780504Y332843D01*
X775504D01*
X764360Y332112D01*
X753406Y329934D01*
X742830Y326344D01*
X732813Y321404D01*
X731866Y320771D01*
X670044Y382593D01*
Y545138D01*
X752464Y627558D01*
X795303D01*
X795305Y627558D01*
X800278Y628213D01*
X804912Y630133D01*
X808892Y633186D01*
X851766Y676060D01*
X851767Y676061D01*
X854820Y680041D01*
X856740Y684675D01*
X857395Y689648D01*
X857394Y689650D01*
Y781473D01*
X875174Y789235D01*
X883966Y781084D01*
Y188288D01*
X883965Y188286D01*
X884621Y183313D01*
X886540Y178679D01*
X889593Y174699D01*
X954296Y109997D01*
X954297Y109996D01*
X958276Y106943D01*
X962910Y105023D01*
X967883Y104368D01*
X967885Y104369D01*
X1362303D01*
X1362305Y104368D01*
X1367278Y105023D01*
X1371912Y106943D01*
X1375892Y109996D01*
X1438355Y172460D01*
X1460180D01*
X1461227Y171183D01*
X1465921Y167331D01*
X1471276Y164469D01*
X1477087Y162706D01*
X1483129Y162111D01*
X1596879D01*
X1602922Y162706D01*
X1608732Y164469D01*
X1614087Y167331D01*
X1618781Y171183D01*
X1622633Y175877D01*
X1625495Y181232D01*
X1627258Y187042D01*
X1627853Y193085D01*
Y301835D01*
X1627258Y307878D01*
X1625495Y313688D01*
X1622633Y319043D01*
X1618781Y323737D01*
X1614087Y327589D01*
X1608732Y330451D01*
X1602922Y332214D01*
X1596879Y332809D01*
X1483129D01*
X1477087Y332214D01*
X1471276Y330451D01*
X1465921Y327589D01*
X1461227Y323737D01*
X1457375Y319043D01*
X1454513Y313688D01*
X1452750Y307878D01*
X1452155Y301835D01*
Y210888D01*
X1430396D01*
X1425423Y210234D01*
X1420789Y208314D01*
X1416809Y205261D01*
X1416809Y205260D01*
X1354346Y142797D01*
X975842D01*
X922394Y196245D01*
Y791157D01*
X922831Y791391D01*
X923800Y792186D01*
X929819Y795789D01*
X941541D01*
X947560Y792186D01*
X948529Y791391D01*
X954644Y788122D01*
X961280Y786109D01*
X968180Y785430D01*
X975080Y786109D01*
X981716Y788122D01*
X987831Y791391D01*
X988799Y792186D01*
X994818Y795789D01*
X1006542D01*
X1012561Y792186D01*
X1013529Y791391D01*
X1019644Y788122D01*
X1026280Y786109D01*
X1033180Y785430D01*
X1040080Y786109D01*
X1046716Y788122D01*
X1052831Y791391D01*
X1053800Y792186D01*
X1059819Y795789D01*
X1071541D01*
X1077560Y792186D01*
X1078529Y791391D01*
X1084644Y788122D01*
X1091280Y786109D01*
X1091830Y786055D01*
Y868300D01*
Y950545D01*
X1091280Y950491D01*
X1084644Y948478D01*
X1078529Y945209D01*
X1077560Y944414D01*
X1071541Y940811D01*
X1068256D01*
X1052394Y955516D01*
Y956602D01*
X1051740Y961575D01*
X1049820Y966209D01*
X1046767Y970189D01*
X1046766Y970190D01*
X891681Y1125275D01*
X887701Y1128328D01*
X883067Y1130248D01*
X878094Y1130903D01*
X878092Y1130903D01*
X746936D01*
X597322Y1280517D01*
Y1669835D01*
X596667Y1674808D01*
X594748Y1679442D01*
X591695Y1683422D01*
X591694Y1683423D01*
X539195Y1735922D01*
Y1984301D01*
X539195Y1984303D01*
X538540Y1989275D01*
X536620Y1993910D01*
X533567Y1997889D01*
X443038Y2088418D01*
Y2265802D01*
X494936Y2317700D01*
X494937Y2317700D01*
X497990Y2321680D01*
X499910Y2326314D01*
X500565Y2331287D01*
X500564Y2331289D01*
Y2562148D01*
X680000D01*
X684621Y2562756D01*
X688926Y2564539D01*
X692624Y2567376D01*
X695461Y2571074D01*
X697244Y2575380D01*
X697853Y2580000D01*
Y2605786D01*
X1302147D01*
Y2580000D01*
X1302756Y2575380D01*
X1304539Y2571074D01*
X1307376Y2567376D01*
X1311074Y2564539D01*
X1315379Y2562756D01*
X1320000Y2562148D01*
X1520000D01*
X1524621Y2562756D01*
X1528926Y2564539D01*
X1532624Y2567376D01*
X1535461Y2571074D01*
X1537244Y2575380D01*
X1537853Y2580000D01*
Y2670000D01*
X1537244Y2674621D01*
X1535461Y2678926D01*
X1532624Y2682624D01*
X1528926Y2685461D01*
X1524621Y2687244D01*
X1520000Y2687853D01*
D02*
G37*
G36*
X2419850Y2589053D02*
X2369050D01*
Y2506350D01*
X2451754D01*
Y2557150D01*
X2451141Y2563374D01*
X2449325Y2569359D01*
X2446377Y2574874D01*
X2442409Y2579709D01*
X2437574Y2583677D01*
X2432059Y2586625D01*
X2426074Y2588441D01*
X2419850Y2589053D01*
D02*
G37*
G36*
X2356350D02*
X2305550D01*
X2299326Y2588441D01*
X2293341Y2586625D01*
X2287825Y2583677D01*
X2282991Y2579709D01*
X2279023Y2574874D01*
X2276075Y2569359D01*
X2274259Y2563374D01*
X2273646Y2557150D01*
Y2506350D01*
X2356350D01*
Y2589053D01*
D02*
G37*
G36*
X3124700Y2589091D02*
X3113071Y2588328D01*
X3101641Y2586055D01*
X3090606Y2582309D01*
X3080154Y2577155D01*
X3070465Y2570680D01*
X3061703Y2562996D01*
X3054020Y2554235D01*
X3047545Y2544545D01*
X3042391Y2534093D01*
X3038645Y2523058D01*
X3036371Y2511628D01*
X3035609Y2500000D01*
X3036371Y2488371D01*
X3038645Y2476941D01*
X3042391Y2465906D01*
X3047545Y2455455D01*
X3054020Y2445765D01*
X3061703Y2437003D01*
X3070465Y2429319D01*
X3080154Y2422845D01*
X3090606Y2417691D01*
X3101596Y2413960D01*
Y2385130D01*
X3051512D01*
X3047087Y2384547D01*
X3042964Y2382839D01*
X3039423Y2380122D01*
X3036706Y2376582D01*
X3034998Y2372459D01*
X3034416Y2368034D01*
Y2297833D01*
X3034364Y2297443D01*
Y2268972D01*
X2984689Y2219296D01*
X2142378D01*
X2136411Y2218511D01*
X2130850Y2216207D01*
X2126074Y2212543D01*
X1692916Y1779385D01*
X1689252Y1774609D01*
X1686948Y1769049D01*
X1686163Y1763081D01*
Y1466497D01*
X1557826D01*
Y1519030D01*
X1557244Y1523455D01*
X1555536Y1527578D01*
X1552819Y1531119D01*
X1549278Y1533836D01*
X1545857Y1535253D01*
Y1559630D01*
X1570300D01*
X1577201Y1560309D01*
X1583836Y1562322D01*
X1589951Y1565590D01*
X1595311Y1569989D01*
X1599710Y1575349D01*
X1602978Y1581464D01*
X1604991Y1588099D01*
X1605670Y1595000D01*
X1604991Y1601900D01*
X1602978Y1608536D01*
X1599710Y1614651D01*
X1598915Y1615619D01*
X1595311Y1621638D01*
Y1633361D01*
X1598915Y1639381D01*
X1599710Y1640349D01*
X1602978Y1646464D01*
X1604991Y1653100D01*
X1605670Y1660000D01*
X1604991Y1666900D01*
X1602978Y1673536D01*
X1599710Y1679651D01*
X1598915Y1680619D01*
X1595311Y1686638D01*
Y1698361D01*
X1598915Y1704380D01*
X1599710Y1705349D01*
X1602978Y1711464D01*
X1604991Y1718099D01*
X1605670Y1725000D01*
X1604991Y1731900D01*
X1602978Y1738536D01*
X1599710Y1744651D01*
X1598915Y1745619D01*
X1595311Y1751638D01*
Y1763361D01*
X1598915Y1769381D01*
X1599710Y1770349D01*
X1602978Y1776464D01*
X1604991Y1783100D01*
X1605670Y1790000D01*
X1604991Y1796900D01*
X1602978Y1803536D01*
X1599710Y1809651D01*
X1598915Y1810619D01*
X1595311Y1816638D01*
Y1828361D01*
X1598915Y1834380D01*
X1599710Y1835349D01*
X1602978Y1841464D01*
X1604991Y1848099D01*
X1605670Y1855000D01*
X1604991Y1861900D01*
X1602978Y1868536D01*
X1599710Y1874651D01*
X1598915Y1875619D01*
X1595311Y1881638D01*
Y1893361D01*
X1598915Y1899381D01*
X1599710Y1900349D01*
X1602978Y1906464D01*
X1604991Y1913100D01*
X1605670Y1920000D01*
X1604991Y1926900D01*
X1602978Y1933536D01*
X1599710Y1939651D01*
X1598915Y1940619D01*
X1595311Y1946638D01*
Y1949924D01*
X1610016Y1965786D01*
X1628100D01*
X1628102Y1965785D01*
X1633075Y1966440D01*
X1637709Y1968360D01*
X1641688Y1971413D01*
X1673764Y2003489D01*
X1673765Y2003490D01*
X1676818Y2007469D01*
X1678738Y2012103D01*
X1679393Y2017076D01*
X1679392Y2017078D01*
Y2091392D01*
X1698428D01*
X1702853Y2091974D01*
X1706976Y2093682D01*
X1710517Y2096399D01*
X1713234Y2099940D01*
X1714942Y2104063D01*
X1715524Y2108488D01*
Y2184988D01*
X1714942Y2189413D01*
X1713234Y2193536D01*
X1710517Y2197077D01*
X1706976Y2199794D01*
X1702853Y2201502D01*
X1698428Y2202084D01*
X1679392D01*
Y2218828D01*
X1682899Y2220703D01*
X1689096Y2225789D01*
X1694183Y2231986D01*
X1697962Y2239057D01*
X1700289Y2246729D01*
X1701075Y2254707D01*
X1700289Y2262686D01*
X1697962Y2270358D01*
X1694183Y2277428D01*
X1689096Y2283626D01*
X1682899Y2288712D01*
X1675829Y2292491D01*
X1668157Y2294818D01*
X1660178Y2295604D01*
X1652199Y2294818D01*
X1644528Y2292491D01*
X1637457Y2288712D01*
X1631260Y2283626D01*
X1626174Y2277428D01*
X1622394Y2270358D01*
X1620067Y2262686D01*
X1619281Y2254707D01*
X1620067Y2246729D01*
X1622394Y2239057D01*
X1626174Y2231986D01*
X1631260Y2225789D01*
X1637457Y2220703D01*
X1640964Y2218828D01*
Y2202084D01*
X1621928D01*
X1617503Y2201502D01*
X1613380Y2199794D01*
X1609839Y2197077D01*
X1607122Y2193536D01*
X1605414Y2189413D01*
X1604832Y2184988D01*
Y2108488D01*
X1605414Y2104063D01*
X1607122Y2099940D01*
X1609839Y2096399D01*
X1613380Y2093682D01*
X1617503Y2091974D01*
X1621928Y2091392D01*
X1640964D01*
Y2025035D01*
X1620143Y2004214D01*
X1599943D01*
X1599710Y2004651D01*
X1595311Y2010010D01*
X1589951Y2014409D01*
X1583836Y2017678D01*
X1577201Y2019690D01*
X1570300Y2020370D01*
X1475300D01*
X1468400Y2019690D01*
X1461764Y2017678D01*
X1455649Y2014409D01*
X1450289Y2010010D01*
X1445891Y2004651D01*
X1442622Y1998535D01*
X1440610Y1991900D01*
X1439930Y1985000D01*
X1440610Y1978099D01*
X1442622Y1971464D01*
X1445891Y1965349D01*
X1446686Y1964380D01*
X1450289Y1958361D01*
Y1946638D01*
X1446686Y1940619D01*
X1445891Y1939651D01*
X1442622Y1933536D01*
X1440610Y1926900D01*
X1439930Y1920000D01*
X1440610Y1913100D01*
X1442622Y1906464D01*
X1445891Y1900349D01*
X1446686Y1899381D01*
X1450289Y1893361D01*
Y1890076D01*
X1436310Y1874997D01*
X1418279Y1874789D01*
X1366669Y1926400D01*
X1362690Y1929453D01*
X1358056Y1931373D01*
X1353083Y1932028D01*
X1353081Y1932027D01*
X1057413D01*
X1057360Y1932248D01*
X1053583Y1941366D01*
X1048426Y1949781D01*
X1042017Y1957286D01*
X1034512Y1963695D01*
X1026098Y1968852D01*
X1016980Y1972629D01*
X1007383Y1974932D01*
X997544Y1975707D01*
X987706Y1974932D01*
X978109Y1972629D01*
X968991Y1968852D01*
X960576Y1963695D01*
X953072Y1957286D01*
X946662Y1949781D01*
X941506Y1941366D01*
X937729Y1932248D01*
X935425Y1922652D01*
X934651Y1912813D01*
X935425Y1902974D01*
X937729Y1893378D01*
X941506Y1884260D01*
X946662Y1875845D01*
X953072Y1868340D01*
X960576Y1861931D01*
X968991Y1856774D01*
X978109Y1852998D01*
X978330Y1852944D01*
Y1815647D01*
X889593Y1726910D01*
X886540Y1722931D01*
X884621Y1718297D01*
X883965Y1713323D01*
X883966Y1713321D01*
Y1530443D01*
X883529Y1530210D01*
X882561Y1529415D01*
X876542Y1525811D01*
X864818D01*
X858799Y1529415D01*
X857831Y1530210D01*
X851716Y1533478D01*
X845080Y1535491D01*
X837538Y1537232D01*
X828295Y1552521D01*
Y1575753D01*
X830126Y1576732D01*
X835867Y1581444D01*
X840578Y1587184D01*
X844079Y1593733D01*
X846235Y1600840D01*
X846962Y1608230D01*
Y1633231D01*
X846235Y1640621D01*
X844079Y1647728D01*
X840578Y1654277D01*
X835867Y1660018D01*
X830126Y1664729D01*
X828295Y1665708D01*
Y1686058D01*
X847330D01*
X851755Y1686641D01*
X855878Y1688349D01*
X859419Y1691066D01*
X862136Y1694606D01*
X863844Y1698730D01*
X864427Y1703155D01*
Y1779655D01*
X863844Y1784080D01*
X862136Y1788203D01*
X859419Y1791744D01*
X855878Y1794460D01*
X851755Y1796169D01*
X847330Y1796751D01*
X770830D01*
X766405Y1796169D01*
X762282Y1794460D01*
X758741Y1791744D01*
X756024Y1788203D01*
X754316Y1784080D01*
X753734Y1779655D01*
Y1703155D01*
X754316Y1698730D01*
X756024Y1694606D01*
X758741Y1691066D01*
X762282Y1688349D01*
X766405Y1686641D01*
X770830Y1686058D01*
X789866D01*
Y1665708D01*
X788034Y1664729D01*
X782293Y1660018D01*
X777582Y1654277D01*
X774082Y1647728D01*
X771926Y1640621D01*
X771198Y1633231D01*
Y1608230D01*
X771926Y1600840D01*
X774082Y1593733D01*
X777582Y1587184D01*
X782293Y1581444D01*
X788034Y1576732D01*
X789866Y1575753D01*
Y1548073D01*
X776856Y1535808D01*
X773180Y1536170D01*
X766280Y1535491D01*
X759644Y1533478D01*
X753529Y1530210D01*
X752561Y1529415D01*
X746542Y1525811D01*
X743256D01*
X727394Y1540516D01*
Y1986469D01*
X1113275Y2372350D01*
X1789291D01*
X1790270Y2370518D01*
X1794981Y2364777D01*
X1800722Y2360066D01*
X1807271Y2356565D01*
X1814378Y2354410D01*
X1821768Y2353682D01*
X1846768D01*
X1854159Y2354410D01*
X1861266Y2356565D01*
X1867815Y2360066D01*
X1873555Y2364777D01*
X1878266Y2370518D01*
X1879246Y2372350D01*
X1897623D01*
Y2353314D01*
X1898205Y2348889D01*
X1899913Y2344766D01*
X1902630Y2341225D01*
X1906171Y2338508D01*
X1910294Y2336800D01*
X1914719Y2336218D01*
X1991219D01*
X1995644Y2336800D01*
X1999767Y2338508D01*
X2003308Y2341225D01*
X2006025Y2344766D01*
X2007733Y2348889D01*
X2008315Y2353314D01*
Y2429814D01*
X2007733Y2434239D01*
X2006025Y2438362D01*
X2003308Y2441903D01*
X1999767Y2444620D01*
X1995644Y2446328D01*
X1991219Y2446910D01*
X1914719D01*
X1910294Y2446328D01*
X1906171Y2444620D01*
X1902630Y2441903D01*
X1899913Y2438362D01*
X1898205Y2434239D01*
X1897623Y2429814D01*
Y2410778D01*
X1879246D01*
X1878266Y2412610D01*
X1873555Y2418351D01*
X1867815Y2423062D01*
X1861266Y2426563D01*
X1854159Y2428718D01*
X1846768Y2429446D01*
X1821768D01*
X1814378Y2428718D01*
X1807271Y2426563D01*
X1800722Y2423062D01*
X1794981Y2418351D01*
X1790270Y2412610D01*
X1789291Y2410778D01*
X1105318D01*
X1105316Y2410779D01*
X1100343Y2410123D01*
X1095709Y2408204D01*
X1091729Y2405151D01*
X1091728Y2405150D01*
X694593Y2008015D01*
X691540Y2004035D01*
X689620Y1999401D01*
X688965Y1994428D01*
X688966Y1994426D01*
Y1530443D01*
X688529Y1530210D01*
X683169Y1525811D01*
X678771Y1520451D01*
X675502Y1514336D01*
X673489Y1507701D01*
X672810Y1500800D01*
Y1405800D01*
X673489Y1398900D01*
X675502Y1392264D01*
X678771Y1386149D01*
X683169Y1380789D01*
X688529Y1376391D01*
X694644Y1373122D01*
X701280Y1371110D01*
X708180Y1370430D01*
X715080Y1371110D01*
X721716Y1373122D01*
X727831Y1376391D01*
X728799Y1377186D01*
X734818Y1380789D01*
X746542D01*
X752561Y1377186D01*
X753529Y1376391D01*
X759644Y1373122D01*
X766280Y1371110D01*
X773180Y1370430D01*
X780080Y1371110D01*
X786716Y1373122D01*
X792831Y1376391D01*
X793800Y1377186D01*
X799819Y1380789D01*
X803104D01*
X818966Y1366084D01*
Y1341768D01*
X818965Y1341766D01*
X819620Y1336793D01*
X821540Y1332159D01*
X824593Y1328179D01*
X1037743Y1115030D01*
X1036589Y1111225D01*
X1035803Y1103246D01*
X1036589Y1095267D01*
X1038916Y1087595D01*
X1042695Y1080525D01*
X1047781Y1074328D01*
X1053979Y1069241D01*
X1061049Y1065462D01*
X1068721Y1063135D01*
X1076700Y1062349D01*
X1084679Y1063135D01*
X1092350Y1065462D01*
X1099421Y1069241D01*
X1105618Y1074328D01*
X1110704Y1080525D01*
X1114484Y1087595D01*
X1116811Y1095267D01*
X1117597Y1103246D01*
X1116811Y1111225D01*
X1114484Y1118896D01*
X1110704Y1125967D01*
X1105618Y1132164D01*
X1099421Y1137250D01*
X1092350Y1141030D01*
X1084679Y1143357D01*
X1076700Y1144143D01*
X1068721Y1143357D01*
X1064916Y1142203D01*
X857394Y1349725D01*
Y1376158D01*
X857831Y1376391D01*
X858799Y1377186D01*
X864818Y1380789D01*
X876542D01*
X882561Y1377186D01*
X883529Y1376391D01*
X889644Y1373122D01*
X896280Y1371110D01*
X903180Y1370430D01*
X910080Y1371110D01*
X916716Y1373122D01*
X922831Y1376391D01*
X923800Y1377186D01*
X929819Y1380789D01*
X941541D01*
X947560Y1377186D01*
X948529Y1376391D01*
X954644Y1373122D01*
X961280Y1371110D01*
X968180Y1370430D01*
X975080Y1371110D01*
X981716Y1373122D01*
X987831Y1376391D01*
X988799Y1377186D01*
X994818Y1380789D01*
X1006542D01*
X1012561Y1377186D01*
X1013529Y1376391D01*
X1019644Y1373122D01*
X1026280Y1371110D01*
X1033180Y1370430D01*
X1040080Y1371110D01*
X1046716Y1373122D01*
X1052831Y1376391D01*
X1053800Y1377186D01*
X1059819Y1380789D01*
X1071541D01*
X1077560Y1377186D01*
X1078529Y1376391D01*
X1084644Y1373122D01*
X1091280Y1371110D01*
X1098180Y1370430D01*
X1105080Y1371110D01*
X1111716Y1373122D01*
X1117831Y1376391D01*
X1118799Y1377186D01*
X1124818Y1380789D01*
X1128104D01*
X1143966Y1366084D01*
Y1076929D01*
X1111193Y1044156D01*
X1052657D01*
X877439Y1219375D01*
X873459Y1222428D01*
X868825Y1224348D01*
X863852Y1225003D01*
X863850Y1225003D01*
X750239D01*
X653829Y1321412D01*
Y1696774D01*
X653829Y1696776D01*
X653174Y1701748D01*
X651255Y1706383D01*
X648201Y1710362D01*
X648200Y1710363D01*
X633294Y1725269D01*
Y1975963D01*
X1107960Y2450629D01*
X1624353D01*
X1626174Y2447223D01*
X1631260Y2441025D01*
X1637457Y2435939D01*
X1644528Y2432160D01*
X1652199Y2429833D01*
X1660178Y2429047D01*
X1668157Y2429833D01*
X1675829Y2432160D01*
X1682899Y2435939D01*
X1689096Y2441025D01*
X1694183Y2447223D01*
X1697962Y2454293D01*
X1700289Y2461965D01*
X1701075Y2469944D01*
X1700289Y2477922D01*
X1697962Y2485594D01*
X1694183Y2492665D01*
X1689096Y2498862D01*
X1682899Y2503948D01*
X1675829Y2507728D01*
X1668157Y2510055D01*
X1660178Y2510841D01*
X1652199Y2510055D01*
X1644528Y2507728D01*
X1637457Y2503948D01*
X1631260Y2498862D01*
X1626174Y2492665D01*
X1624245Y2489058D01*
X1100003D01*
X1100001Y2489058D01*
X1095029Y2488403D01*
X1090394Y2486483D01*
X1086415Y2483430D01*
X1086414Y2483429D01*
X600493Y1997509D01*
X597440Y1993529D01*
X595520Y1988895D01*
X594865Y1983922D01*
X594866Y1983920D01*
Y1717312D01*
X594865Y1717310D01*
X595520Y1712337D01*
X597440Y1707703D01*
X600493Y1703724D01*
X615400Y1688817D01*
Y1313455D01*
X615400Y1313453D01*
X616055Y1308480D01*
X617975Y1303846D01*
X621028Y1299867D01*
X728692Y1192203D01*
X728693Y1192202D01*
X732673Y1189148D01*
X737307Y1187229D01*
X742280Y1186574D01*
X742282Y1186574D01*
X855893D01*
X1031111Y1011356D01*
X1031112Y1011355D01*
X1035091Y1008302D01*
X1039725Y1006383D01*
X1044698Y1005727D01*
X1044700Y1005728D01*
X1119150D01*
X1119152Y1005727D01*
X1124125Y1006382D01*
X1128759Y1008302D01*
X1132739Y1011355D01*
X1176766Y1055383D01*
X1176767Y1055383D01*
X1179820Y1059363D01*
X1181740Y1063997D01*
X1182394Y1068970D01*
Y1366473D01*
X1200174Y1374234D01*
X1208966Y1366084D01*
Y1310158D01*
X1208965Y1310156D01*
X1209620Y1305183D01*
X1211540Y1300548D01*
X1214593Y1296569D01*
X1324322Y1186840D01*
X1324323Y1186839D01*
X1328303Y1183786D01*
X1332937Y1181866D01*
X1337910Y1181211D01*
X1337912Y1181212D01*
X1398351D01*
Y1149208D01*
X1379315D01*
X1374890Y1148625D01*
X1370767Y1146917D01*
X1367226Y1144200D01*
X1364509Y1140660D01*
X1362801Y1136536D01*
X1362219Y1132112D01*
Y1055611D01*
X1362801Y1051186D01*
X1364509Y1047063D01*
X1367226Y1043522D01*
X1370767Y1040806D01*
X1374890Y1039097D01*
X1379315Y1038515D01*
X1455815D01*
X1460240Y1039097D01*
X1464363Y1040806D01*
X1467904Y1043522D01*
X1470621Y1047063D01*
X1472329Y1051186D01*
X1472911Y1055611D01*
Y1132112D01*
X1472329Y1136536D01*
X1470621Y1140660D01*
X1467904Y1144200D01*
X1464363Y1146917D01*
X1460240Y1148625D01*
X1455815Y1149208D01*
X1436779D01*
Y1181212D01*
X1591307D01*
X1593181Y1177705D01*
X1598267Y1171507D01*
X1604465Y1166421D01*
X1611535Y1162642D01*
X1619207Y1160315D01*
X1627186Y1159529D01*
X1635164Y1160315D01*
X1642836Y1162642D01*
X1649907Y1166421D01*
X1656104Y1171507D01*
X1661190Y1177705D01*
X1664969Y1184775D01*
X1667297Y1192447D01*
X1668083Y1200426D01*
X1667297Y1208404D01*
X1664969Y1216076D01*
X1661190Y1223147D01*
X1656104Y1229344D01*
X1649907Y1234430D01*
X1642836Y1238210D01*
X1635164Y1240537D01*
X1627186Y1241323D01*
X1619207Y1240537D01*
X1611535Y1238210D01*
X1604465Y1234430D01*
X1598267Y1229344D01*
X1593181Y1223147D01*
X1591307Y1219640D01*
X1345869D01*
X1247394Y1318115D01*
Y1376158D01*
X1247831Y1376391D01*
X1248799Y1377186D01*
X1254818Y1380789D01*
X1266542D01*
X1272561Y1377186D01*
X1273529Y1376391D01*
X1279644Y1373122D01*
X1286280Y1371110D01*
X1293180Y1370430D01*
X1300080Y1371110D01*
X1306716Y1373122D01*
X1312831Y1376391D01*
X1318191Y1380789D01*
X1322589Y1386149D01*
X1325858Y1392264D01*
X1327871Y1398900D01*
X1328550Y1405800D01*
Y1500800D01*
X1327871Y1507701D01*
X1325858Y1514336D01*
X1322589Y1520451D01*
X1318191Y1525811D01*
X1312831Y1530210D01*
X1312341Y1530471D01*
Y1554475D01*
X1312615Y1554540D01*
X1321733Y1558317D01*
X1330148Y1563474D01*
X1337653Y1569883D01*
X1344062Y1577388D01*
X1349219Y1585803D01*
X1352996Y1594921D01*
X1353049Y1595142D01*
X1376902D01*
X1376904Y1595141D01*
X1381877Y1595796D01*
X1386511Y1597716D01*
X1390490Y1600769D01*
X1429038Y1639317D01*
X1447175Y1638563D01*
X1450289Y1633361D01*
Y1621638D01*
X1446686Y1615619D01*
X1445891Y1614651D01*
X1442622Y1608536D01*
X1440610Y1601900D01*
X1439930Y1595000D01*
X1440610Y1588099D01*
X1442622Y1581464D01*
X1445891Y1575349D01*
X1450289Y1569989D01*
X1455649Y1565590D01*
X1461764Y1562322D01*
X1468400Y1560309D01*
X1475300Y1559630D01*
X1499743D01*
Y1536126D01*
X1464230D01*
X1459805Y1535544D01*
X1455682Y1533836D01*
X1452141Y1531119D01*
X1449424Y1527578D01*
X1447716Y1523455D01*
X1447134Y1519030D01*
Y1437530D01*
X1447716Y1433105D01*
X1449424Y1428982D01*
X1452141Y1425441D01*
X1455682Y1422724D01*
X1459805Y1421016D01*
X1464230Y1420434D01*
X1534431D01*
X1534820Y1420382D01*
X1686163D01*
Y1129402D01*
X1684976Y1128215D01*
X1681312Y1123439D01*
X1679008Y1117879D01*
X1678223Y1111911D01*
Y825677D01*
X1604181D01*
Y873210D01*
X1603599Y877635D01*
X1601891Y881758D01*
X1599174Y885299D01*
X1595633Y888016D01*
X1591510Y889724D01*
X1587085Y890306D01*
X1510585D01*
X1506160Y889724D01*
X1502037Y888016D01*
X1498496Y885299D01*
X1495779Y881758D01*
X1494071Y877635D01*
X1493489Y873210D01*
Y796710D01*
X1494071Y792285D01*
X1495779Y788162D01*
X1498496Y784621D01*
X1502037Y781904D01*
X1506160Y780196D01*
X1510585Y779614D01*
X1580787D01*
X1581175Y779563D01*
X1678222D01*
Y524517D01*
X1624652D01*
X1621388Y534135D01*
X1616448Y544151D01*
X1610243Y553438D01*
X1602879Y561835D01*
X1594482Y569199D01*
X1585196Y575404D01*
X1575179Y580344D01*
X1564603Y583934D01*
X1563062Y584240D01*
Y624953D01*
X1568557Y627229D01*
X1576972Y632386D01*
X1584477Y638795D01*
X1590886Y646300D01*
X1596043Y654714D01*
X1599820Y663832D01*
X1602124Y673429D01*
X1602898Y683268D01*
X1602124Y693106D01*
X1599820Y702703D01*
X1596043Y711821D01*
X1590886Y720236D01*
X1584477Y727740D01*
X1576972Y734150D01*
X1568557Y739306D01*
X1559440Y743083D01*
X1549843Y745387D01*
X1540004Y746161D01*
X1530166Y745387D01*
X1520569Y743083D01*
X1511451Y739306D01*
X1503036Y734150D01*
X1495532Y727740D01*
X1489122Y720236D01*
X1483966Y711821D01*
X1481689Y706325D01*
X1320866D01*
Y721518D01*
X1320283Y725943D01*
X1318575Y730066D01*
X1315858Y733607D01*
X1312318Y736323D01*
X1308194Y738032D01*
X1303770Y738614D01*
X1251237D01*
Y788394D01*
X1267131Y795336D01*
X1267262Y795358D01*
X1272561Y792186D01*
X1273529Y791391D01*
X1279644Y788122D01*
X1286280Y786109D01*
X1293180Y785430D01*
X1300080Y786109D01*
X1306716Y788122D01*
X1312831Y791391D01*
X1318191Y795789D01*
X1322589Y801149D01*
X1325858Y807264D01*
X1327871Y813900D01*
X1328550Y820800D01*
Y835440D01*
X1357234D01*
Y796710D01*
X1357816Y792285D01*
X1359524Y788162D01*
X1362241Y784621D01*
X1365782Y781904D01*
X1369905Y780196D01*
X1374330Y779614D01*
X1450830D01*
X1455255Y780196D01*
X1459378Y781904D01*
X1462919Y784621D01*
X1465636Y788162D01*
X1467344Y792285D01*
X1467926Y796710D01*
Y873210D01*
X1467344Y877635D01*
X1465636Y881758D01*
X1462919Y885299D01*
X1459378Y888016D01*
X1455255Y889724D01*
X1450830Y890306D01*
X1374330D01*
X1369905Y889724D01*
X1365782Y888016D01*
X1362241Y885299D01*
X1359524Y881758D01*
X1357816Y877635D01*
X1357658Y876430D01*
X1328550D01*
Y915800D01*
X1327871Y922700D01*
X1325858Y929336D01*
X1322589Y935451D01*
X1318191Y940811D01*
X1312831Y945209D01*
X1306716Y948478D01*
X1300080Y950491D01*
X1293180Y951170D01*
X1286280Y950491D01*
X1279644Y948478D01*
X1273529Y945209D01*
X1272561Y944414D01*
X1266542Y940811D01*
X1254818D01*
X1248799Y944414D01*
X1247831Y945209D01*
X1241716Y948478D01*
X1235080Y950491D01*
X1228180Y951170D01*
X1221279Y950491D01*
X1214644Y948478D01*
X1208529Y945209D01*
X1207560Y944414D01*
X1201541Y940811D01*
X1189819D01*
X1183800Y944414D01*
X1182831Y945209D01*
X1176716Y948478D01*
X1170080Y950491D01*
X1163180Y951170D01*
X1156280Y950491D01*
X1149644Y948478D01*
X1143529Y945209D01*
X1142561Y944414D01*
X1136542Y940811D01*
X1124818D01*
X1118799Y944414D01*
X1117831Y945209D01*
X1111716Y948478D01*
X1105080Y950491D01*
X1104530Y950545D01*
Y868300D01*
Y786055D01*
X1105080Y786109D01*
X1111716Y788122D01*
X1117831Y791391D01*
X1118799Y792186D01*
X1124818Y795789D01*
X1136542D01*
X1142561Y792186D01*
X1143529Y791391D01*
X1149644Y788122D01*
X1156280Y786109D01*
X1163180Y785430D01*
X1170080Y786109D01*
X1176716Y788122D01*
X1182831Y791391D01*
X1183800Y792186D01*
X1189098Y795358D01*
X1189231Y795335D01*
X1205123Y788394D01*
Y715608D01*
X1205173Y715222D01*
Y645018D01*
X1205756Y640593D01*
X1207464Y636469D01*
X1210181Y632929D01*
X1213721Y630212D01*
X1217845Y628504D01*
X1222270Y627921D01*
X1303770D01*
X1308194Y628504D01*
X1312318Y630212D01*
X1315858Y632929D01*
X1318575Y636469D01*
X1320283Y640593D01*
X1320866Y645018D01*
Y660210D01*
X1481689D01*
X1483966Y654714D01*
X1489122Y646300D01*
X1495532Y638795D01*
X1503036Y632386D01*
X1511451Y627229D01*
X1516947Y624953D01*
Y584240D01*
X1515406Y583934D01*
X1504830Y580344D01*
X1494813Y575404D01*
X1485527Y569199D01*
X1477130Y561835D01*
X1469766Y553438D01*
X1463561Y544151D01*
X1458621Y534135D01*
X1455031Y523559D01*
X1452852Y512605D01*
X1452122Y501460D01*
X1452852Y490315D01*
X1455031Y479361D01*
X1458621Y468785D01*
X1463561Y458769D01*
X1469766Y449482D01*
X1477130Y441085D01*
X1485527Y433721D01*
X1494813Y427516D01*
X1504830Y422576D01*
X1515406Y418986D01*
X1526360Y416808D01*
X1537504Y416077D01*
X1542504D01*
X1553649Y416808D01*
X1564603Y418986D01*
X1575179Y422576D01*
X1585196Y427516D01*
X1594482Y433721D01*
X1602879Y441085D01*
X1610243Y449482D01*
X1616448Y458769D01*
X1621388Y468785D01*
X1624652Y478403D01*
X1945041D01*
X1945428Y478454D01*
X2015631D01*
X2020056Y479036D01*
X2024179Y480744D01*
X2027720Y483461D01*
X2030436Y487002D01*
X2032145Y491125D01*
X2032727Y495550D01*
Y524463D01*
X2101944Y547772D01*
X2129370D01*
X2129941Y547885D01*
X2156370D01*
X2160469Y548425D01*
X2164288Y550007D01*
X2167567Y552523D01*
X2170084Y555803D01*
X2171666Y559622D01*
X2172205Y563721D01*
Y647721D01*
X2171666Y651819D01*
X2170084Y655638D01*
X2167567Y658918D01*
X2164288Y661434D01*
X2160469Y663016D01*
X2156370Y663556D01*
X2142319D01*
Y683896D01*
X2156370D01*
X2160468Y684435D01*
X2164288Y686017D01*
X2167567Y688534D01*
X2170084Y691813D01*
X2171666Y695633D01*
X2172205Y699731D01*
Y798731D01*
X2171666Y802830D01*
X2170084Y806649D01*
X2167567Y809929D01*
X2164288Y812445D01*
X2160468Y814027D01*
X2156370Y814567D01*
X2102370D01*
X2098271Y814027D01*
X2094452Y812445D01*
X2091173Y809929D01*
X2088656Y806649D01*
X2087074Y802830D01*
X2086535Y798731D01*
Y747466D01*
X2014056Y733116D01*
X1977381D01*
X1976863Y733013D01*
X1939130D01*
X1934706Y732430D01*
X1930582Y730722D01*
X1927042Y728005D01*
X1924325Y724465D01*
X1922617Y720341D01*
X1922034Y715917D01*
Y634417D01*
X1922617Y629992D01*
X1924325Y625868D01*
X1927042Y622328D01*
X1930582Y619611D01*
X1934706Y617903D01*
X1939130Y617320D01*
X1964432D01*
Y594146D01*
X1939130D01*
X1934706Y593564D01*
X1930582Y591856D01*
X1927042Y589139D01*
X1924325Y585598D01*
X1922617Y581475D01*
X1922034Y577050D01*
Y524517D01*
X1724336D01*
Y802612D01*
X1724337Y802620D01*
Y1102360D01*
X1725524Y1103547D01*
X1729188Y1108322D01*
X1731492Y1113883D01*
X1732277Y1119851D01*
Y1443440D01*
Y1753530D01*
X2151929Y2173182D01*
X2994239D01*
X3000207Y2173967D01*
X3005768Y2176271D01*
X3010543Y2179935D01*
X3073726Y2243117D01*
X3077390Y2247892D01*
X3079693Y2253453D01*
X3080479Y2259421D01*
Y2274437D01*
X3133012D01*
X3137437Y2275020D01*
X3141560Y2276728D01*
X3145101Y2279445D01*
X3147817Y2282985D01*
X3149526Y2287108D01*
X3150108Y2291533D01*
Y2368034D01*
X3149526Y2372459D01*
X3147817Y2376582D01*
X3147710Y2376721D01*
Y2413935D01*
X3147758Y2413945D01*
X3158794Y2417691D01*
X3169245Y2422845D01*
X3178935Y2429319D01*
X3187696Y2437003D01*
X3195380Y2445765D01*
X3201855Y2455455D01*
X3207009Y2465906D01*
X3210755Y2476941D01*
X3213028Y2488371D01*
X3213791Y2500000D01*
X3213028Y2511628D01*
X3210755Y2523058D01*
X3207009Y2534093D01*
X3201855Y2544545D01*
X3195380Y2554235D01*
X3187696Y2562996D01*
X3178935Y2570680D01*
X3169245Y2577155D01*
X3158794Y2582309D01*
X3147758Y2586055D01*
X3136328Y2588328D01*
X3124700Y2589091D01*
D02*
G37*
G36*
X2451754Y2493650D02*
X2369050D01*
Y2410946D01*
X2419850D01*
X2426074Y2411559D01*
X2432059Y2413375D01*
X2437574Y2416323D01*
X2442409Y2420291D01*
X2446377Y2425125D01*
X2449325Y2430641D01*
X2451141Y2436626D01*
X2451754Y2442850D01*
Y2493650D01*
D02*
G37*
G36*
X2356350D02*
X2273646D01*
Y2442850D01*
X2274259Y2436626D01*
X2276075Y2430641D01*
X2279023Y2425125D01*
X2282991Y2420291D01*
X2287825Y2416323D01*
X2293341Y2413375D01*
X2299326Y2411559D01*
X2305550Y2410946D01*
X2356350D01*
Y2493650D01*
D02*
G37*
G36*
X2870700Y2589091D02*
X2859071Y2588328D01*
X2847641Y2586055D01*
X2836606Y2582309D01*
X2826154Y2577155D01*
X2816465Y2570680D01*
X2807703Y2562996D01*
X2800020Y2554235D01*
X2793545Y2544545D01*
X2788391Y2534093D01*
X2784645Y2523058D01*
X2782371Y2511628D01*
X2781609Y2500000D01*
X2782371Y2488371D01*
X2784645Y2476941D01*
X2788391Y2465906D01*
X2793545Y2455455D01*
X2795723Y2452196D01*
X2635258Y2291732D01*
X1810505D01*
X1755134Y2347102D01*
X1751155Y2350156D01*
X1746521Y2352075D01*
X1741548Y2352730D01*
X1741546Y2352730D01*
X1219269D01*
X1219267Y2352730D01*
X1214294Y2352076D01*
X1209660Y2350156D01*
X1205681Y2347102D01*
X1205680Y2347101D01*
X924679Y2066101D01*
X922692Y2066704D01*
X915301Y2067432D01*
X907910Y2066704D01*
X900804Y2064548D01*
X894254Y2061047D01*
X888514Y2056336D01*
X870836Y2038658D01*
X866125Y2032918D01*
X862624Y2026368D01*
X860469Y2019262D01*
X859741Y2011872D01*
X860469Y2004481D01*
X861072Y2002493D01*
X831643Y1973065D01*
X828590Y1969086D01*
X826670Y1964451D01*
X826016Y1959479D01*
X826016Y1959477D01*
Y1926751D01*
X770830D01*
X766405Y1926169D01*
X762282Y1924460D01*
X758741Y1921744D01*
X756024Y1918203D01*
X754316Y1914080D01*
X753734Y1909655D01*
Y1833155D01*
X754316Y1828730D01*
X756024Y1824606D01*
X758741Y1821066D01*
X762282Y1818349D01*
X766405Y1816641D01*
X770830Y1816058D01*
X847330D01*
X851755Y1816641D01*
X855878Y1818349D01*
X859419Y1821066D01*
X862136Y1824606D01*
X863844Y1828730D01*
X864427Y1833155D01*
Y1907416D01*
X864445Y1907555D01*
X864445Y1907557D01*
Y1951520D01*
X888245Y1975320D01*
X890232Y1974717D01*
X897623Y1973989D01*
X905014Y1974717D01*
X912120Y1976873D01*
X918669Y1980374D01*
X924410Y1985085D01*
X942088Y2002763D01*
X946799Y2008503D01*
X950300Y2015053D01*
X952455Y2022159D01*
X953183Y2029549D01*
X952455Y2036940D01*
X951852Y2038927D01*
X1227226Y2314301D01*
X1733589D01*
X1788959Y2258931D01*
X1788960Y2258930D01*
X1792939Y2255877D01*
X1797573Y2253958D01*
X1802546Y2253303D01*
X1802548Y2253303D01*
X2643215D01*
X2643217Y2253303D01*
X2648190Y2253958D01*
X2652824Y2255877D01*
X2656804Y2258930D01*
X2822896Y2425022D01*
X2826154Y2422845D01*
X2836606Y2417691D01*
X2847641Y2413945D01*
X2859071Y2411671D01*
X2870700Y2410909D01*
X2882328Y2411671D01*
X2893758Y2413945D01*
X2904794Y2417691D01*
X2915245Y2422845D01*
X2924935Y2429319D01*
X2933696Y2437003D01*
X2941380Y2445765D01*
X2947855Y2455455D01*
X2953009Y2465906D01*
X2956755Y2476941D01*
X2959028Y2488371D01*
X2959791Y2500000D01*
X2959028Y2511628D01*
X2956755Y2523058D01*
X2953009Y2534093D01*
X2947855Y2544545D01*
X2941380Y2554235D01*
X2933696Y2562996D01*
X2924935Y2570680D01*
X2915245Y2577155D01*
X2904794Y2582309D01*
X2893758Y2586055D01*
X2882328Y2588328D01*
X2870700Y2589091D01*
D02*
G37*
G36*
X2616700D02*
X2605071Y2588328D01*
X2593641Y2586055D01*
X2582606Y2582309D01*
X2572154Y2577155D01*
X2562465Y2570680D01*
X2553703Y2562996D01*
X2546020Y2554235D01*
X2539545Y2544545D01*
X2534391Y2534093D01*
X2530645Y2523058D01*
X2528371Y2511628D01*
X2527609Y2500000D01*
X2528371Y2488371D01*
X2530645Y2476941D01*
X2534391Y2465906D01*
X2539545Y2455455D01*
X2541723Y2452196D01*
X2459242Y2369715D01*
X2262319D01*
X2249893Y2382141D01*
X2250510Y2384174D01*
X2251238Y2391564D01*
X2250510Y2398954D01*
X2248354Y2406061D01*
X2244853Y2412610D01*
X2240142Y2418351D01*
X2234401Y2423062D01*
X2227852Y2426563D01*
X2220746Y2428718D01*
X2213355Y2429446D01*
X2188355D01*
X2180965Y2428718D01*
X2173858Y2426563D01*
X2167309Y2423062D01*
X2161568Y2418351D01*
X2156857Y2412610D01*
X2155878Y2410778D01*
X2138315D01*
Y2429814D01*
X2137733Y2434239D01*
X2136025Y2438362D01*
X2133308Y2441903D01*
X2129767Y2444620D01*
X2125644Y2446328D01*
X2121219Y2446910D01*
X2044719D01*
X2040294Y2446328D01*
X2036171Y2444620D01*
X2032630Y2441903D01*
X2029913Y2438362D01*
X2028205Y2434239D01*
X2027623Y2429814D01*
Y2353314D01*
X2028205Y2348889D01*
X2029913Y2344766D01*
X2032630Y2341225D01*
X2036171Y2338508D01*
X2040294Y2336800D01*
X2044719Y2336218D01*
X2121219D01*
X2125644Y2336800D01*
X2129767Y2338508D01*
X2133308Y2341225D01*
X2136025Y2344766D01*
X2137733Y2348889D01*
X2138315Y2353314D01*
Y2372350D01*
X2155878D01*
X2156857Y2370518D01*
X2161568Y2364777D01*
X2167309Y2360066D01*
X2173858Y2356565D01*
X2180965Y2354410D01*
X2188355Y2353682D01*
X2213355D01*
X2220746Y2354410D01*
X2222689Y2354999D01*
X2240773Y2336915D01*
X2240774Y2336914D01*
X2244753Y2333861D01*
X2249387Y2331941D01*
X2254360Y2331286D01*
X2254363Y2331286D01*
X2467199D01*
X2467201Y2331286D01*
X2472174Y2331941D01*
X2476808Y2333861D01*
X2480788Y2336914D01*
X2568896Y2425022D01*
X2572154Y2422845D01*
X2582606Y2417691D01*
X2593641Y2413945D01*
X2605071Y2411671D01*
X2616700Y2410909D01*
X2628328Y2411671D01*
X2639758Y2413945D01*
X2650794Y2417691D01*
X2661245Y2422845D01*
X2670935Y2429319D01*
X2679696Y2437003D01*
X2687380Y2445765D01*
X2693855Y2455455D01*
X2699009Y2465906D01*
X2702755Y2476941D01*
X2705028Y2488371D01*
X2705791Y2500000D01*
X2705028Y2511628D01*
X2702755Y2523058D01*
X2699009Y2534093D01*
X2693855Y2544545D01*
X2687380Y2554235D01*
X2679696Y2562996D01*
X2670935Y2570680D01*
X2661245Y2577155D01*
X2650794Y2582309D01*
X2639758Y2586055D01*
X2628328Y2588328D01*
X2616700Y2589091D01*
D02*
G37*
G36*
X4816066Y2601724D02*
X4707166D01*
X4703707Y2601268D01*
X4700484Y2599933D01*
X4697716Y2597809D01*
X4695592Y2595042D01*
X4694257Y2591819D01*
X4693802Y2588360D01*
Y2359459D01*
X4694257Y2356000D01*
X4695592Y2352777D01*
X4697716Y2350010D01*
X4700484Y2347886D01*
X4703707Y2346551D01*
X4707166Y2346095D01*
X4816066D01*
X4819525Y2346551D01*
X4822748Y2347886D01*
X4825516Y2350010D01*
X4827640Y2352777D01*
X4828975Y2356000D01*
X4829430Y2359459D01*
Y2588360D01*
X4828975Y2591819D01*
X4827640Y2595042D01*
X4825516Y2597809D01*
X4822748Y2599933D01*
X4819525Y2601268D01*
X4816066Y2601724D01*
D02*
G37*
G36*
X4617946D02*
X4509046D01*
X4505587Y2601268D01*
X4502364Y2599933D01*
X4499596Y2597809D01*
X4497472Y2595042D01*
X4496137Y2591819D01*
X4495682Y2588360D01*
Y2359459D01*
X4496137Y2356000D01*
X4497472Y2352777D01*
X4499596Y2350010D01*
X4502364Y2347886D01*
X4505587Y2346551D01*
X4509046Y2346095D01*
X4617946D01*
X4621405Y2346551D01*
X4624628Y2347886D01*
X4627396Y2350010D01*
X4629520Y2352777D01*
X4630855Y2356000D01*
X4631310Y2359459D01*
Y2588360D01*
X4630855Y2591819D01*
X4629520Y2595042D01*
X4627396Y2597809D01*
X4624628Y2599933D01*
X4621405Y2601268D01*
X4617946Y2601724D01*
D02*
G37*
G36*
X4419826D02*
X4310926D01*
X4307467Y2601268D01*
X4304244Y2599933D01*
X4301476Y2597809D01*
X4299352Y2595042D01*
X4298017Y2591819D01*
X4297562Y2588360D01*
Y2359459D01*
X4298017Y2356000D01*
X4299352Y2352777D01*
X4301476Y2350010D01*
X4304244Y2347886D01*
X4307467Y2346551D01*
X4310926Y2346095D01*
X4419826D01*
X4423285Y2346551D01*
X4426508Y2347886D01*
X4429276Y2350010D01*
X4431400Y2352777D01*
X4432735Y2356000D01*
X4433190Y2359459D01*
Y2588360D01*
X4432735Y2591819D01*
X4431400Y2595042D01*
X4429276Y2597809D01*
X4426508Y2599933D01*
X4423285Y2601268D01*
X4419826Y2601724D01*
D02*
G37*
G36*
X4216626D02*
X4107726D01*
X4104267Y2601268D01*
X4101044Y2599933D01*
X4098276Y2597809D01*
X4096152Y2595042D01*
X4094817Y2591819D01*
X4094362Y2588360D01*
Y2359459D01*
X4094817Y2356000D01*
X4096152Y2352777D01*
X4098276Y2350010D01*
X4101044Y2347886D01*
X4104267Y2346551D01*
X4107726Y2346095D01*
X4216626D01*
X4220085Y2346551D01*
X4223308Y2347886D01*
X4226076Y2350010D01*
X4228200Y2352777D01*
X4229535Y2356000D01*
X4229990Y2359459D01*
Y2588360D01*
X4229535Y2591819D01*
X4228200Y2595042D01*
X4226076Y2597809D01*
X4223308Y2599933D01*
X4220085Y2601268D01*
X4216626Y2601724D01*
D02*
G37*
G36*
X4018506D02*
X3909606D01*
X3906147Y2601268D01*
X3902924Y2599933D01*
X3900156Y2597809D01*
X3898032Y2595042D01*
X3896697Y2591819D01*
X3896242Y2588360D01*
Y2359459D01*
X3896697Y2356000D01*
X3898032Y2352777D01*
X3900156Y2350010D01*
X3902924Y2347886D01*
X3906147Y2346551D01*
X3909606Y2346095D01*
X4018506D01*
X4021965Y2346551D01*
X4025188Y2347886D01*
X4027956Y2350010D01*
X4030080Y2352777D01*
X4031415Y2356000D01*
X4031870Y2359459D01*
Y2588360D01*
X4031415Y2591819D01*
X4030080Y2595042D01*
X4027956Y2597809D01*
X4025188Y2599933D01*
X4021965Y2601268D01*
X4018506Y2601724D01*
D02*
G37*
G36*
X2998012Y2385130D02*
X2963612D01*
Y2336134D01*
X3015108D01*
Y2368034D01*
X3014526Y2372459D01*
X3012818Y2376582D01*
X3010101Y2380122D01*
X3006560Y2382839D01*
X3002437Y2384547D01*
X2998012Y2385130D01*
D02*
G37*
G36*
X2950912D02*
X2916512D01*
X2912087Y2384547D01*
X2907964Y2382839D01*
X2904423Y2380122D01*
X2901706Y2376582D01*
X2899998Y2372459D01*
X2899416Y2368034D01*
Y2336134D01*
X2950912D01*
Y2385130D01*
D02*
G37*
G36*
X5422381Y2354610D02*
X5387981D01*
Y2305614D01*
X5439478D01*
Y2337514D01*
X5438895Y2341939D01*
X5437187Y2346062D01*
X5434470Y2349603D01*
X5430929Y2352320D01*
X5426806Y2354028D01*
X5422381Y2354610D01*
D02*
G37*
G36*
X5375281D02*
X5340881D01*
X5336456Y2354028D01*
X5332333Y2352320D01*
X5328792Y2349603D01*
X5326076Y2346062D01*
X5324368Y2341939D01*
X5323785Y2337514D01*
Y2305614D01*
X5375281D01*
Y2354610D01*
D02*
G37*
G36*
X3603366Y2345984D02*
X3495266D01*
Y2284519D01*
X3616730D01*
Y2332619D01*
X3616275Y2336078D01*
X3614940Y2339302D01*
X3612816Y2342069D01*
X3610048Y2344193D01*
X3606825Y2345528D01*
X3603366Y2345984D01*
D02*
G37*
G36*
X3482566D02*
X3374466D01*
X3371007Y2345528D01*
X3367784Y2344193D01*
X3365016Y2342069D01*
X3362892Y2339302D01*
X3361557Y2336078D01*
X3361102Y2332619D01*
Y2284519D01*
X3482566D01*
Y2345984D01*
D02*
G37*
G36*
X3015108Y2323434D02*
X2963612D01*
Y2274437D01*
X2998012D01*
X3002437Y2275020D01*
X3006560Y2276728D01*
X3010101Y2279445D01*
X3012818Y2282985D01*
X3014526Y2287108D01*
X3015108Y2291533D01*
Y2323434D01*
D02*
G37*
G36*
X2950912D02*
X2899416D01*
Y2291533D01*
X2899998Y2287108D01*
X2901706Y2282985D01*
X2904423Y2279445D01*
X2907964Y2276728D01*
X2912087Y2275020D01*
X2916512Y2274437D01*
X2950912D01*
Y2323434D01*
D02*
G37*
G36*
X5439478Y2292914D02*
X5387981D01*
Y2243918D01*
X5422381D01*
X5426806Y2244500D01*
X5430929Y2246208D01*
X5434470Y2248925D01*
X5437187Y2252466D01*
X5438895Y2256589D01*
X5439478Y2261014D01*
Y2292914D01*
D02*
G37*
G36*
X5375281D02*
X5323785D01*
Y2261014D01*
X5324368Y2256589D01*
X5326076Y2252466D01*
X5328792Y2248925D01*
X5332333Y2246208D01*
X5336456Y2244500D01*
X5340881Y2243918D01*
X5375281D01*
Y2292914D01*
D02*
G37*
G36*
X3616730Y2271819D02*
X3495266D01*
Y2210355D01*
X3603366D01*
X3606825Y2210811D01*
X3610048Y2212146D01*
X3612816Y2214270D01*
X3614940Y2217037D01*
X3616275Y2220260D01*
X3616730Y2223719D01*
Y2271819D01*
D02*
G37*
G36*
X3482566D02*
X3361102D01*
Y2223719D01*
X3361557Y2220260D01*
X3362892Y2217037D01*
X3365016Y2214270D01*
X3367784Y2212146D01*
X3371007Y2210811D01*
X3374466Y2210355D01*
X3482566D01*
Y2271819D01*
D02*
G37*
G36*
X680000Y2237853D02*
X586350D01*
Y2181350D01*
X697853D01*
Y2220000D01*
X697244Y2224620D01*
X695461Y2228926D01*
X692624Y2232624D01*
X688926Y2235461D01*
X684621Y2237244D01*
X680000Y2237853D01*
D02*
G37*
G36*
X1520000D02*
X1426350D01*
Y2181350D01*
X1537853D01*
Y2220000D01*
X1537244Y2224620D01*
X1535461Y2228926D01*
X1532624Y2232624D01*
X1528926Y2235461D01*
X1524621Y2237244D01*
X1520000Y2237853D01*
D02*
G37*
G36*
X573650D02*
X480000D01*
X475380Y2237244D01*
X471074Y2235461D01*
X467376Y2232624D01*
X464539Y2228926D01*
X462756Y2224620D01*
X462147Y2220000D01*
Y2181350D01*
X573650D01*
Y2237853D01*
D02*
G37*
G36*
X1413650D02*
X1320000D01*
X1315379Y2237244D01*
X1311074Y2235461D01*
X1307376Y2232624D01*
X1304539Y2228926D01*
X1302756Y2224620D01*
X1302147Y2220000D01*
Y2181350D01*
X1413650D01*
Y2237853D01*
D02*
G37*
G36*
X1828428Y2202084D02*
X1796528D01*
Y2153088D01*
X1845524D01*
Y2184988D01*
X1844942Y2189413D01*
X1843234Y2193536D01*
X1840517Y2197077D01*
X1836976Y2199794D01*
X1832853Y2201502D01*
X1828428Y2202084D01*
D02*
G37*
G36*
X1783828D02*
X1751928D01*
X1747503Y2201502D01*
X1743380Y2199794D01*
X1739839Y2197077D01*
X1737122Y2193536D01*
X1735414Y2189413D01*
X1734832Y2184988D01*
Y2153088D01*
X1783828D01*
Y2202084D01*
D02*
G37*
G36*
X1537853Y2168650D02*
X1426350D01*
Y2112147D01*
X1520000D01*
X1524621Y2112756D01*
X1528926Y2114539D01*
X1532624Y2117376D01*
X1535461Y2121074D01*
X1537244Y2125380D01*
X1537853Y2130000D01*
Y2168650D01*
D02*
G37*
G36*
X1413650D02*
X1302147D01*
Y2130000D01*
X1302756Y2125380D01*
X1304539Y2121074D01*
X1307376Y2117376D01*
X1311074Y2114539D01*
X1315379Y2112756D01*
X1320000Y2112147D01*
X1413650D01*
Y2168650D01*
D02*
G37*
G36*
X697853D02*
X586350D01*
Y2112147D01*
X680000D01*
X684621Y2112756D01*
X688926Y2114539D01*
X692624Y2117376D01*
X695461Y2121074D01*
X697244Y2125380D01*
X697853Y2130000D01*
Y2168650D01*
D02*
G37*
G36*
X573650D02*
X462147D01*
Y2130000D01*
X462756Y2125380D01*
X464539Y2121074D01*
X467376Y2117376D01*
X471074Y2114539D01*
X475380Y2112756D01*
X480000Y2112147D01*
X573650D01*
Y2168650D01*
D02*
G37*
G36*
X1845524Y2140388D02*
X1796528D01*
Y2091392D01*
X1828428D01*
X1832853Y2091974D01*
X1836976Y2093682D01*
X1840517Y2096399D01*
X1843234Y2099940D01*
X1844942Y2104063D01*
X1845524Y2108488D01*
Y2140388D01*
D02*
G37*
G36*
X1783828D02*
X1734832D01*
Y2108488D01*
X1735414Y2104063D01*
X1737122Y2099940D01*
X1739839Y2096399D01*
X1743380Y2093682D01*
X1747503Y2091974D01*
X1751928Y2091392D01*
X1783828D01*
Y2140388D01*
D02*
G37*
G36*
X2160300Y2020370D02*
X2119150D01*
Y1991350D01*
X2195045D01*
X2194991Y1991900D01*
X2192978Y1998535D01*
X2189710Y2004651D01*
X2185311Y2010010D01*
X2179951Y2014409D01*
X2173836Y2017678D01*
X2167201Y2019690D01*
X2160300Y2020370D01*
D02*
G37*
G36*
X2106450D02*
X2065300D01*
X2058400Y2019690D01*
X2051765Y2017678D01*
X2045649Y2014409D01*
X2040290Y2010010D01*
X2035891Y2004651D01*
X2032622Y1998535D01*
X2030610Y1991900D01*
X2030556Y1991350D01*
X2106450D01*
Y2020370D01*
D02*
G37*
G36*
X3807345Y2695874D02*
X3807343Y2695874D01*
X3565660D01*
X3560687Y2695219D01*
X3556052Y2693299D01*
X3552073Y2690246D01*
X3552072Y2690245D01*
X3178869Y2317042D01*
X3175816Y2313063D01*
X3173896Y2308428D01*
X3173241Y2303456D01*
X3173242Y2303454D01*
Y2263949D01*
X3064647Y2155354D01*
X2494989D01*
X2494987Y2155355D01*
X2490014Y2154700D01*
X2485379Y2152780D01*
X2481400Y2149727D01*
X2481399Y2149726D01*
X2442672Y2110998D01*
X2361521D01*
X2361467Y2111219D01*
X2357691Y2120337D01*
X2352534Y2128752D01*
X2346125Y2136257D01*
X2338620Y2142666D01*
X2330205Y2147823D01*
X2321087Y2151599D01*
X2311491Y2153903D01*
X2301652Y2154678D01*
X2291813Y2153903D01*
X2282217Y2151599D01*
X2273099Y2147823D01*
X2264684Y2142666D01*
X2257179Y2136257D01*
X2250770Y2128752D01*
X2245613Y2120337D01*
X2241837Y2111219D01*
X2239533Y2101623D01*
X2238758Y2091784D01*
X2239533Y2081945D01*
X2241837Y2072349D01*
X2245613Y2063231D01*
X2250770Y2054816D01*
X2257179Y2047311D01*
X2264684Y2040902D01*
X2273099Y2035745D01*
X2282217Y2031969D01*
X2282438Y2031915D01*
Y1950764D01*
X2206747Y1875074D01*
X2188806Y1875800D01*
X2185311Y1881638D01*
Y1893361D01*
X2188915Y1899381D01*
X2189710Y1900349D01*
X2192978Y1906464D01*
X2194991Y1913100D01*
X2195670Y1920000D01*
X2194991Y1926900D01*
X2192978Y1933536D01*
X2189710Y1939651D01*
X2188915Y1940619D01*
X2185311Y1946638D01*
Y1958361D01*
X2188915Y1964380D01*
X2189710Y1965349D01*
X2192978Y1971464D01*
X2194991Y1978099D01*
X2195045Y1978650D01*
X2112800D01*
X2030555D01*
X2030610Y1978099D01*
X2032622Y1971464D01*
X2035891Y1965349D01*
X2036686Y1964380D01*
X2040290Y1958361D01*
Y1946638D01*
X2036686Y1940619D01*
X2035891Y1939651D01*
X2032622Y1933536D01*
X2030610Y1926900D01*
X2029930Y1920000D01*
X2030610Y1913100D01*
X2032622Y1906464D01*
X2035891Y1900349D01*
X2036686Y1899381D01*
X2040290Y1893361D01*
Y1881638D01*
X2036686Y1875619D01*
X2035891Y1874651D01*
X2032622Y1868536D01*
X2030610Y1861900D01*
X2029930Y1855000D01*
X2030610Y1848099D01*
X2032622Y1841464D01*
X2035891Y1835349D01*
X2036686Y1834380D01*
X2040290Y1828361D01*
Y1816638D01*
X2036686Y1810619D01*
X2035891Y1809651D01*
X2032622Y1803536D01*
X2030610Y1796900D01*
X2029930Y1790000D01*
X2030610Y1783100D01*
X2032622Y1776464D01*
X2035891Y1770349D01*
X2036686Y1769381D01*
X2040290Y1763361D01*
Y1751638D01*
X2036686Y1745619D01*
X2035891Y1744651D01*
X2032622Y1738536D01*
X2030610Y1731900D01*
X2029930Y1725000D01*
X2030610Y1718099D01*
X2032622Y1711464D01*
X2035891Y1705349D01*
X2036686Y1704380D01*
X2040290Y1698361D01*
Y1686638D01*
X2036686Y1680619D01*
X2035891Y1679651D01*
X2032622Y1673536D01*
X2030610Y1666900D01*
X2029930Y1660000D01*
X2030610Y1653100D01*
X2032622Y1646464D01*
X2035891Y1640349D01*
X2036686Y1639381D01*
X2040290Y1633361D01*
Y1621638D01*
X2036686Y1615619D01*
X2035891Y1614651D01*
X2032622Y1608536D01*
X2030610Y1601900D01*
X2029930Y1595000D01*
X2030610Y1588099D01*
X2032622Y1581464D01*
X2035891Y1575349D01*
X2040290Y1569989D01*
X2045649Y1565590D01*
X2051765Y1562322D01*
X2058400Y1560309D01*
X2065300Y1559630D01*
X2103952D01*
Y1525589D01*
X2100963Y1524351D01*
X2097422Y1521634D01*
X2094705Y1518093D01*
X2092997Y1513970D01*
X2092414Y1509545D01*
Y1433045D01*
X2092997Y1428620D01*
X2094705Y1424497D01*
X2097422Y1420956D01*
X2100963Y1418239D01*
X2103952Y1417001D01*
Y1347352D01*
X1843837D01*
X1837206Y1346479D01*
X1831027Y1343920D01*
X1825721Y1339848D01*
X1795365Y1309492D01*
X1791293Y1304186D01*
X1788734Y1298007D01*
X1787861Y1291377D01*
Y1009811D01*
X1784926Y1008595D01*
X1776511Y1003438D01*
X1769006Y997029D01*
X1762597Y989524D01*
X1757440Y981109D01*
X1753663Y971991D01*
X1751359Y962395D01*
X1750585Y952556D01*
X1751359Y942717D01*
X1753663Y933121D01*
X1757440Y924003D01*
X1762597Y915588D01*
X1769006Y908084D01*
X1776511Y901674D01*
X1784926Y896517D01*
X1790422Y894241D01*
Y617379D01*
X1784560Y612568D01*
X1779474Y606371D01*
X1775695Y599301D01*
X1773368Y591629D01*
X1772582Y583650D01*
X1773368Y575671D01*
X1775695Y568000D01*
X1779474Y560929D01*
X1784560Y554732D01*
X1790758Y549646D01*
X1797828Y545866D01*
X1805500Y543539D01*
X1813479Y542753D01*
X1821457Y543539D01*
X1829129Y545866D01*
X1836200Y549646D01*
X1842397Y554732D01*
X1847483Y560929D01*
X1851262Y568000D01*
X1853590Y575671D01*
X1854376Y583650D01*
X1853590Y591629D01*
X1851262Y599301D01*
X1847483Y606371D01*
X1842397Y612568D01*
X1836536Y617378D01*
Y894241D01*
X1842032Y896517D01*
X1850447Y901674D01*
X1857951Y908084D01*
X1864361Y915588D01*
X1869517Y924003D01*
X1870733Y926936D01*
X1922034D01*
Y911806D01*
X1922617Y907381D01*
X1924325Y903258D01*
X1927042Y899717D01*
X1930582Y897000D01*
X1934706Y895292D01*
X1939130Y894710D01*
X2015631D01*
X2020056Y895292D01*
X2024179Y897000D01*
X2027720Y899717D01*
X2030436Y903258D01*
X2032145Y907381D01*
X2032727Y911806D01*
Y956382D01*
X2093977D01*
X2094452Y956017D01*
X2098271Y954435D01*
X2102370Y953896D01*
X2156370D01*
X2160468Y954435D01*
X2164288Y956017D01*
X2167567Y958534D01*
X2170084Y961813D01*
X2171666Y965633D01*
X2172205Y969731D01*
Y1068731D01*
X2171666Y1072830D01*
X2170084Y1076649D01*
X2167567Y1079928D01*
X2164288Y1082445D01*
X2160468Y1084027D01*
X2156370Y1084567D01*
X2102370D01*
X2098271Y1084027D01*
X2094452Y1082445D01*
X2091173Y1079928D01*
X2088656Y1076649D01*
X2087074Y1072830D01*
X2086535Y1068731D01*
Y1007621D01*
X2024819D01*
X2024179Y1008112D01*
X2020056Y1009820D01*
X2015631Y1010402D01*
X1939130D01*
X1934706Y1009820D01*
X1930582Y1008112D01*
X1927042Y1005395D01*
X1924325Y1001854D01*
X1922617Y997731D01*
X1922034Y993306D01*
Y978175D01*
X1870733D01*
X1869517Y981109D01*
X1864361Y989524D01*
X1857951Y997029D01*
X1850447Y1003438D01*
X1842032Y1008595D01*
X1839099Y1009810D01*
Y1280765D01*
X1854448Y1296114D01*
X2377499D01*
X2437107Y1236506D01*
Y913528D01*
X2437893Y907560D01*
X2440196Y901999D01*
X2443860Y897224D01*
X2515605Y825479D01*
X2520380Y821815D01*
X2525941Y819512D01*
X2531909Y818726D01*
X2663483D01*
X2801873Y680336D01*
X2806648Y676672D01*
X2812210Y674368D01*
X2818177Y673583D01*
X4308927D01*
X4314894Y674368D01*
X4320455Y676672D01*
X4325231Y680336D01*
X4821386Y1176492D01*
X5191941D01*
X5191945Y1176455D01*
X5193654Y1172332D01*
X5196370Y1168791D01*
X5199911Y1166074D01*
X5204034Y1164366D01*
X5208459Y1163784D01*
X5284959D01*
X5289384Y1164366D01*
X5293508Y1166074D01*
X5297048Y1168791D01*
X5299765Y1172332D01*
X5301473Y1176455D01*
X5302056Y1180880D01*
Y1228413D01*
X5347547D01*
X5353515Y1229198D01*
X5359075Y1231502D01*
X5363851Y1235166D01*
X5392284Y1263599D01*
X5395948Y1268375D01*
X5398252Y1273936D01*
X5399037Y1279903D01*
Y1490769D01*
Y2106673D01*
X5398252Y2112641D01*
X5395949Y2118202D01*
X5392284Y2122977D01*
X5304529Y2210732D01*
Y2266924D01*
X5304478Y2267314D01*
Y2337514D01*
X5303895Y2341939D01*
X5302187Y2346062D01*
X5299470Y2349603D01*
X5295930Y2352320D01*
X5291807Y2354028D01*
X5287382Y2354610D01*
X5205882D01*
X5201457Y2354028D01*
X5197334Y2352320D01*
X5193793Y2349603D01*
X5191076Y2346062D01*
X5189368Y2341939D01*
X5188785Y2337514D01*
Y2318604D01*
X5158830D01*
Y2330079D01*
X5158375Y2333538D01*
X5157040Y2336762D01*
X5154916Y2339529D01*
X5152148Y2341653D01*
X5148925Y2342988D01*
X5145466Y2343444D01*
X4916566D01*
X4913107Y2342988D01*
X4909884Y2341653D01*
X4907116Y2339529D01*
X4904992Y2336762D01*
X4903657Y2333538D01*
X4903202Y2330079D01*
Y2221179D01*
X4903657Y2217720D01*
X4904992Y2214497D01*
X4907116Y2211730D01*
X4909884Y2209606D01*
X4913107Y2208271D01*
X4916566Y2207815D01*
X5145466D01*
X5148925Y2208271D01*
X5152148Y2209606D01*
X5154916Y2211730D01*
X5157040Y2214497D01*
X5158375Y2217720D01*
X5158830Y2221179D01*
Y2272489D01*
X5188785D01*
Y2261014D01*
X5189368Y2256589D01*
X5191076Y2252466D01*
X5193793Y2248925D01*
X5197334Y2246208D01*
X5201457Y2244500D01*
X5205882Y2243918D01*
X5258414D01*
Y2201182D01*
X5259200Y2195214D01*
X5261504Y2189653D01*
X5265168Y2184878D01*
X5352923Y2097123D01*
Y1509984D01*
X5302056D01*
Y1529020D01*
X5301473Y1533444D01*
X5299765Y1537568D01*
X5297048Y1541108D01*
X5293508Y1543825D01*
X5289384Y1545533D01*
X5284959Y1546116D01*
X5208459D01*
X5204034Y1545533D01*
X5199911Y1543825D01*
X5196370Y1541108D01*
X5193654Y1537568D01*
X5191945Y1533444D01*
X5191363Y1529020D01*
Y1452519D01*
X5191945Y1448094D01*
X5193654Y1443971D01*
X5196370Y1440430D01*
X5199911Y1437714D01*
X5204034Y1436006D01*
X5208459Y1435423D01*
X5284959D01*
X5289384Y1436006D01*
X5293508Y1437714D01*
X5297048Y1440430D01*
X5299765Y1443971D01*
X5301473Y1448094D01*
X5302056Y1452519D01*
Y1471555D01*
X5352923D01*
Y1289454D01*
X5337996Y1274528D01*
X5279049D01*
X5278662Y1274476D01*
X5208459D01*
X5204034Y1273894D01*
X5199911Y1272186D01*
X5196370Y1269469D01*
X5193654Y1265928D01*
X5191945Y1261805D01*
X5191363Y1257380D01*
Y1222607D01*
X5159140D01*
X5158830Y1222960D01*
Y1306455D01*
X5202949D01*
X5204034Y1306006D01*
X5208459Y1305423D01*
X5284959D01*
X5289384Y1306006D01*
X5293508Y1307714D01*
X5297048Y1310430D01*
X5299765Y1313971D01*
X5301473Y1318094D01*
X5302056Y1322519D01*
Y1399020D01*
X5301473Y1403444D01*
X5299765Y1407568D01*
X5297048Y1411108D01*
X5293508Y1413825D01*
X5289384Y1415533D01*
X5284959Y1416116D01*
X5208459D01*
X5204034Y1415533D01*
X5199911Y1413825D01*
X5196370Y1411108D01*
X5193654Y1407568D01*
X5191945Y1403444D01*
X5191363Y1399020D01*
Y1344884D01*
X5148047D01*
X5145466Y1345224D01*
X4916566D01*
X4913107Y1344768D01*
X4909884Y1343433D01*
X4907116Y1341309D01*
X4904992Y1338542D01*
X4903657Y1335318D01*
X4903202Y1331859D01*
Y1296624D01*
X4158893D01*
X4158891Y1296624D01*
X4153919Y1295969D01*
X4149284Y1294049D01*
X4145305Y1290996D01*
X4145304Y1290995D01*
X3646085Y791776D01*
X2891128D01*
X2729208Y953697D01*
X2725228Y956750D01*
X2720595Y958669D01*
X2715621Y959324D01*
X2715619Y959324D01*
X2688809D01*
Y1050055D01*
X2688214Y1056098D01*
X2686451Y1061908D01*
X2683589Y1067263D01*
X2679737Y1071957D01*
X2675043Y1075809D01*
X2669688Y1078671D01*
X2663878Y1080434D01*
X2657835Y1081029D01*
X2544085D01*
X2538042Y1080434D01*
X2532232Y1078671D01*
X2526877Y1075809D01*
X2522183Y1071957D01*
X2518331Y1067263D01*
X2515469Y1061908D01*
X2513706Y1056098D01*
X2513111Y1050055D01*
Y941305D01*
X2513706Y935262D01*
X2515469Y929452D01*
X2518331Y924097D01*
X2522183Y919403D01*
X2526877Y915551D01*
X2532232Y912689D01*
X2538042Y910926D01*
X2544085Y910331D01*
X2657835D01*
X2663878Y910926D01*
X2669688Y912689D01*
X2675043Y915551D01*
X2679737Y919403D01*
X2680962Y920896D01*
X2707662D01*
X2869582Y758976D01*
X2869583Y758975D01*
X2873562Y755922D01*
X2878196Y754003D01*
X2883169Y753347D01*
X2883171Y753348D01*
X3654042D01*
X3654044Y753347D01*
X3659017Y754002D01*
X3663651Y755922D01*
X3667631Y758975D01*
X4166850Y1258195D01*
X4903202D01*
Y1222960D01*
X4902892Y1222607D01*
X4811836D01*
X4805868Y1221821D01*
X4800307Y1219518D01*
X4795532Y1215853D01*
X4299376Y719698D01*
X2827728D01*
X2689338Y858087D01*
X2684563Y861752D01*
X2679002Y864055D01*
X2673034Y864841D01*
X2541459D01*
X2483222Y923079D01*
Y1224061D01*
X2517182D01*
X2519577Y1217005D01*
X2524516Y1206989D01*
X2530721Y1197702D01*
X2538085Y1189305D01*
X2546482Y1181941D01*
X2555769Y1175736D01*
X2565786Y1170796D01*
X2576361Y1167206D01*
X2587315Y1165028D01*
X2598460Y1164297D01*
X2603460D01*
X2614605Y1165028D01*
X2625559Y1167206D01*
X2636134Y1170796D01*
X2646151Y1175736D01*
X2655438Y1181941D01*
X2663835Y1189305D01*
X2671199Y1197702D01*
X2677404Y1206989D01*
X2682343Y1217005D01*
X2685933Y1227581D01*
X2688112Y1238535D01*
X2688843Y1249680D01*
X2688112Y1260825D01*
X2685933Y1271779D01*
X2682343Y1282355D01*
X2677404Y1292371D01*
X2676945Y1293057D01*
X2886955Y1503066D01*
X2980878D01*
X2981810Y1502944D01*
X3058310D01*
X3062735Y1503526D01*
X3066858Y1505234D01*
X3070399Y1507951D01*
X3073116Y1511492D01*
X3074824Y1515615D01*
X3075406Y1520040D01*
Y1596540D01*
X3074824Y1600965D01*
X3073116Y1605088D01*
X3070399Y1608629D01*
X3066858Y1611346D01*
X3062735Y1613054D01*
X3058310Y1613636D01*
X3043097D01*
Y1636294D01*
X3058289D01*
X3062714Y1636876D01*
X3066837Y1638584D01*
X3070378Y1641301D01*
X3073095Y1644842D01*
X3074803Y1648965D01*
X3075386Y1653390D01*
Y1723592D01*
X3075437Y1723980D01*
Y1756168D01*
X3088861Y1769593D01*
X3124420D01*
X3124808Y1769644D01*
X3195010D01*
X3199435Y1770226D01*
X3203558Y1771934D01*
X3207099Y1774651D01*
X3209816Y1778192D01*
X3211524Y1782315D01*
X3212106Y1786740D01*
Y1863240D01*
X3211524Y1867665D01*
X3209816Y1871788D01*
X3207099Y1875329D01*
X3203558Y1878046D01*
X3199435Y1879754D01*
X3195010Y1880336D01*
X3118510D01*
X3114085Y1879754D01*
X3109962Y1878046D01*
X3106421Y1875329D01*
X3103704Y1871788D01*
X3101996Y1867665D01*
X3101414Y1863240D01*
Y1815707D01*
X3079310D01*
X3073343Y1814922D01*
X3067782Y1812618D01*
X3063006Y1808954D01*
X3036075Y1782023D01*
X3032411Y1777247D01*
X3030107Y1771687D01*
X3029322Y1765719D01*
Y1746987D01*
X2981789D01*
X2977364Y1746404D01*
X2973241Y1744696D01*
X2969700Y1741979D01*
X2966983Y1738438D01*
X2965275Y1734315D01*
X2964693Y1729890D01*
Y1653390D01*
X2965275Y1648965D01*
X2966983Y1644842D01*
X2969700Y1641301D01*
X2973241Y1638584D01*
X2977364Y1636876D01*
X2981789Y1636294D01*
X2996982D01*
Y1613636D01*
X2981810D01*
X2977385Y1613054D01*
X2973262Y1611346D01*
X2969721Y1608629D01*
X2967004Y1605088D01*
X2965296Y1600965D01*
X2964714Y1596540D01*
Y1549181D01*
X2877404D01*
X2871436Y1548395D01*
X2865875Y1546092D01*
X2861100Y1542428D01*
X2643569Y1324897D01*
X2636134Y1328564D01*
X2625559Y1332154D01*
X2614605Y1334332D01*
X2603460Y1335063D01*
X2598460D01*
X2587315Y1334332D01*
X2576361Y1332154D01*
X2565786Y1328564D01*
X2555769Y1323624D01*
X2546482Y1317419D01*
X2538085Y1310055D01*
X2530721Y1301658D01*
X2524516Y1292371D01*
X2519577Y1282355D01*
X2517182Y1275299D01*
X2470776D01*
X2406227Y1339848D01*
X2400921Y1343920D01*
X2394742Y1346479D01*
X2388111Y1347352D01*
X2155191D01*
Y1415949D01*
X2191011D01*
X2195436Y1416531D01*
X2199559Y1418239D01*
X2203099Y1420956D01*
X2205816Y1424497D01*
X2207524Y1428620D01*
X2208107Y1433045D01*
Y1509545D01*
X2207524Y1513970D01*
X2205816Y1518093D01*
X2203099Y1521634D01*
X2199559Y1524351D01*
X2195436Y1526059D01*
X2191011Y1526641D01*
X2155191D01*
Y1559630D01*
X2160300D01*
X2167201Y1560309D01*
X2173836Y1562322D01*
X2179951Y1565590D01*
X2185311Y1569989D01*
X2189710Y1575349D01*
X2192978Y1581464D01*
X2194991Y1588099D01*
X2195670Y1595000D01*
X2194991Y1601900D01*
X2192978Y1608536D01*
X2189710Y1614651D01*
X2188915Y1615619D01*
X2185311Y1621638D01*
Y1633361D01*
X2188201Y1638189D01*
X2206454Y1638959D01*
X2257199Y1588213D01*
X2261179Y1585160D01*
X2265813Y1583241D01*
X2270786Y1582586D01*
X2270788Y1582586D01*
X2312265D01*
X2357366Y1537485D01*
X2357367Y1537484D01*
X2361347Y1534430D01*
X2365981Y1532511D01*
X2370954Y1531856D01*
X2404157D01*
X2404211Y1531635D01*
X2407987Y1522517D01*
X2413144Y1514102D01*
X2419553Y1506598D01*
X2427058Y1500188D01*
X2435473Y1495032D01*
X2444591Y1491255D01*
X2454187Y1488951D01*
X2464026Y1488177D01*
X2473865Y1488951D01*
X2483461Y1491255D01*
X2492579Y1495032D01*
X2500994Y1500188D01*
X2508499Y1506598D01*
X2514908Y1514102D01*
X2520065Y1522517D01*
X2523842Y1531635D01*
X2526145Y1541232D01*
X2526920Y1551070D01*
X2526145Y1560909D01*
X2523842Y1570506D01*
X2520065Y1579623D01*
X2514908Y1588038D01*
X2508499Y1595543D01*
X2500994Y1601952D01*
X2492579Y1607109D01*
X2483461Y1610886D01*
X2483240Y1610939D01*
Y1632839D01*
X2489456Y1639054D01*
X2489457Y1639055D01*
X2492510Y1643035D01*
X2494429Y1647669D01*
X2495084Y1652642D01*
Y1784879D01*
X2615121Y1904916D01*
X3221019D01*
X3221021Y1904915D01*
X3225994Y1905570D01*
X3230628Y1907490D01*
X3234608Y1910543D01*
X3333709Y2009645D01*
X3440264D01*
X3440266Y2009644D01*
X3440652Y2009695D01*
X3603366D01*
X3606825Y2010151D01*
X3610048Y2011486D01*
X3612816Y2013610D01*
X3614940Y2016377D01*
X3616275Y2019600D01*
X3616730Y2023059D01*
Y2131959D01*
X3617069Y2132345D01*
X3656146D01*
X4123347Y1665144D01*
X4123348Y1665143D01*
X4127327Y1662089D01*
X4131962Y1660170D01*
X4136935Y1659515D01*
X4136937Y1659515D01*
X4903202D01*
Y1624279D01*
X4903657Y1620820D01*
X4904992Y1617597D01*
X4907116Y1614830D01*
X4909884Y1612706D01*
X4913107Y1611371D01*
X4916566Y1610915D01*
X5145466D01*
X5148925Y1611371D01*
X5152148Y1612706D01*
X5154916Y1614830D01*
X5157040Y1617597D01*
X5158375Y1620820D01*
X5158830Y1624279D01*
Y1733179D01*
X5158375Y1736638D01*
X5157040Y1739862D01*
X5154916Y1742629D01*
X5152148Y1744753D01*
X5148925Y1746088D01*
X5145466Y1746544D01*
X4916566D01*
X4913107Y1746088D01*
X4909884Y1744753D01*
X4907116Y1742629D01*
X4904992Y1739862D01*
X4903657Y1736638D01*
X4903202Y1733179D01*
Y1697944D01*
X4144893D01*
X3677691Y2165146D01*
X3673712Y2168199D01*
X3669078Y2170119D01*
X3664105Y2170774D01*
X3664103Y2170774D01*
X3313729D01*
X3313727Y2170774D01*
X3308755Y2170119D01*
X3304120Y2168199D01*
X3300141Y2165146D01*
X3300140Y2165145D01*
X3152443Y2017449D01*
X2586560D01*
X2586558Y2017449D01*
X2581585Y2016794D01*
X2576950Y2014874D01*
X2572971Y2011821D01*
X2572970Y2011820D01*
X2362087Y1800937D01*
X2359034Y1796958D01*
X2357114Y1792324D01*
X2356460Y1787351D01*
X2356460Y1787349D01*
Y1755769D01*
X2356239Y1755716D01*
X2347121Y1751939D01*
X2338706Y1746782D01*
X2331202Y1740373D01*
X2324792Y1732868D01*
X2319635Y1724453D01*
X2315859Y1715335D01*
X2315806Y1715114D01*
X2264865D01*
X2241393Y1738587D01*
X2237414Y1741640D01*
X2232779Y1743560D01*
X2227807Y1744214D01*
X2227805Y1744214D01*
X2199628D01*
X2191866Y1761994D01*
X2200016Y1770786D01*
X2283211D01*
X2283213Y1770785D01*
X2288186Y1771440D01*
X2292820Y1773360D01*
X2296800Y1776413D01*
X2354263Y1833877D01*
X2354264Y1833878D01*
X2357317Y1837857D01*
X2359237Y1842492D01*
X2359892Y1847464D01*
X2359892Y1847466D01*
Y1892136D01*
X2403003Y1935247D01*
X2403197Y1935129D01*
X2412314Y1931352D01*
X2421911Y1929048D01*
X2431750Y1928274D01*
X2441588Y1929048D01*
X2451185Y1931352D01*
X2460303Y1935129D01*
X2468718Y1940285D01*
X2476222Y1946695D01*
X2482632Y1954200D01*
X2487789Y1962614D01*
X2491565Y1971732D01*
X2493869Y1981329D01*
X2494643Y1991167D01*
X2493869Y2001006D01*
X2491565Y2010603D01*
X2487789Y2019721D01*
X2487670Y2019914D01*
X2523472Y2055716D01*
X3120141D01*
X3120143Y2055716D01*
X3125116Y2056371D01*
X3129750Y2058291D01*
X3133730Y2061344D01*
X3300141Y2227756D01*
X3300142Y2227756D01*
X3303196Y2231736D01*
X3305115Y2236370D01*
X3305770Y2241343D01*
X3305770Y2241345D01*
Y2308110D01*
X3399014Y2401355D01*
X3587313D01*
X3635283Y2353385D01*
Y2334638D01*
X3635283Y2334636D01*
X3635937Y2329663D01*
X3637857Y2325029D01*
X3640910Y2321049D01*
X3900576Y2061384D01*
X3900577Y2061383D01*
X3904557Y2058329D01*
X3909191Y2056410D01*
X3914164Y2055755D01*
X3914166Y2055755D01*
X4903202D01*
Y2020519D01*
X4903657Y2017060D01*
X4904992Y2013837D01*
X4907116Y2011070D01*
X4909884Y2008946D01*
X4913107Y2007611D01*
X4916566Y2007155D01*
X5145466D01*
X5148925Y2007611D01*
X5152148Y2008946D01*
X5154916Y2011070D01*
X5157040Y2013837D01*
X5158375Y2017060D01*
X5158830Y2020519D01*
Y2129419D01*
X5159169Y2129805D01*
X5198247D01*
X5214552Y2113501D01*
Y1973022D01*
X5186244Y1944714D01*
X5079668D01*
X5079666Y1944714D01*
X5079282Y1944664D01*
X4916566D01*
X4913107Y1944208D01*
X4909884Y1942873D01*
X4907116Y1940749D01*
X4904992Y1937982D01*
X4903657Y1934758D01*
X4903202Y1931299D01*
Y1822399D01*
X4903657Y1818940D01*
X4904992Y1815717D01*
X4907116Y1812950D01*
X4909884Y1810826D01*
X4913107Y1809491D01*
X4916566Y1809035D01*
X5145466D01*
X5148925Y1809491D01*
X5152148Y1810826D01*
X5154916Y1812950D01*
X5157040Y1815717D01*
X5158375Y1818940D01*
X5158830Y1822399D01*
Y1906285D01*
X5194201D01*
X5194203Y1906285D01*
X5199176Y1906940D01*
X5203810Y1908860D01*
X5207789Y1911913D01*
X5247352Y1951475D01*
X5247353Y1951476D01*
X5250406Y1955456D01*
X5252326Y1960090D01*
X5252980Y1965063D01*
Y2121458D01*
X5252981Y2121460D01*
X5252326Y2126433D01*
X5250406Y2131067D01*
X5247353Y2135047D01*
X5219793Y2162606D01*
X5215814Y2165660D01*
X5211179Y2167579D01*
X5206207Y2168234D01*
X5206204Y2168234D01*
X4912993D01*
X4854428Y2226799D01*
X4850449Y2229852D01*
X4845815Y2231772D01*
X4840841Y2232427D01*
X4840839Y2232427D01*
X3939012D01*
X3854121Y2317319D01*
Y2649098D01*
X3853466Y2654071D01*
X3851546Y2658706D01*
X3848493Y2662685D01*
X3848492Y2662686D01*
X3820932Y2690246D01*
X3816952Y2693299D01*
X3812318Y2695219D01*
X3807345Y2695874D01*
D02*
G37*
G36*
X3603366Y1947204D02*
X3374466D01*
X3371007Y1946748D01*
X3367784Y1945413D01*
X3365016Y1943289D01*
X3362892Y1940522D01*
X3361557Y1937298D01*
X3361102Y1933839D01*
Y1850635D01*
X3342106D01*
Y1863240D01*
X3341524Y1867665D01*
X3339816Y1871788D01*
X3337099Y1875329D01*
X3333558Y1878046D01*
X3329435Y1879754D01*
X3325010Y1880336D01*
X3248510D01*
X3244085Y1879754D01*
X3239962Y1878046D01*
X3236421Y1875329D01*
X3233704Y1871788D01*
X3231996Y1867665D01*
X3231414Y1863240D01*
Y1786740D01*
X3231996Y1782315D01*
X3233704Y1778192D01*
X3236421Y1774651D01*
X3239962Y1771934D01*
X3244085Y1770226D01*
X3248510Y1769644D01*
X3325010D01*
X3329435Y1770226D01*
X3333558Y1771934D01*
X3337099Y1774651D01*
X3339816Y1778192D01*
X3341524Y1782315D01*
X3342106Y1786740D01*
Y1812206D01*
X3370584D01*
X3371007Y1812031D01*
X3374466Y1811575D01*
X3603366D01*
X3606825Y1812031D01*
X3610048Y1813366D01*
X3612816Y1815490D01*
X3614940Y1818257D01*
X3616275Y1821480D01*
X3616730Y1824939D01*
Y1933839D01*
X3616275Y1937298D01*
X3614940Y1940522D01*
X3612816Y1943289D01*
X3610048Y1945413D01*
X3606825Y1946748D01*
X3603366Y1947204D01*
D02*
G37*
G36*
X262578Y1812623D02*
X230677D01*
Y1763627D01*
X279674D01*
Y1795527D01*
X279091Y1799952D01*
X277383Y1804075D01*
X274666Y1807616D01*
X271126Y1810332D01*
X267003Y1812041D01*
X262578Y1812623D01*
D02*
G37*
G36*
X217977D02*
X186077D01*
X181652Y1812041D01*
X177529Y1810332D01*
X173988Y1807616D01*
X171272Y1804075D01*
X169564Y1799952D01*
X168981Y1795527D01*
Y1763627D01*
X217977D01*
Y1812623D01*
D02*
G37*
G36*
X279674Y1750927D02*
X230677D01*
Y1701930D01*
X262578D01*
X267003Y1702513D01*
X271126Y1704221D01*
X274666Y1706938D01*
X277383Y1710478D01*
X279091Y1714602D01*
X279674Y1719027D01*
Y1750927D01*
D02*
G37*
G36*
X217977D02*
X168981D01*
Y1719027D01*
X169564Y1714602D01*
X171272Y1710478D01*
X173988Y1706938D01*
X177529Y1704221D01*
X181652Y1702513D01*
X186077Y1701930D01*
X217977D01*
Y1750927D01*
D02*
G37*
G36*
X3188289Y1746987D02*
X3111789D01*
X3107364Y1746404D01*
X3103241Y1744696D01*
X3099700Y1741979D01*
X3096983Y1738438D01*
X3095275Y1734315D01*
X3094693Y1729890D01*
Y1653390D01*
X3095275Y1648965D01*
X3096983Y1644842D01*
X3099700Y1641301D01*
X3103241Y1638584D01*
X3107364Y1636876D01*
X3111789Y1636294D01*
X3188289D01*
X3192714Y1636876D01*
X3196837Y1638584D01*
X3200378Y1641301D01*
X3203095Y1644842D01*
X3204803Y1648965D01*
X3205386Y1653390D01*
Y1668805D01*
X3231414D01*
Y1649770D01*
X3231996Y1645345D01*
X3233704Y1641222D01*
X3236421Y1637681D01*
X3239962Y1634964D01*
X3244085Y1633256D01*
X3248510Y1632673D01*
X3325010D01*
X3329435Y1633256D01*
X3333558Y1634964D01*
X3337099Y1637681D01*
X3339816Y1641222D01*
X3341524Y1645345D01*
X3342106Y1649770D01*
Y1726270D01*
X3341524Y1730695D01*
X3339816Y1734818D01*
X3337099Y1738359D01*
X3333558Y1741076D01*
X3329435Y1742784D01*
X3325010Y1743366D01*
X3248510D01*
X3244085Y1742784D01*
X3239962Y1741076D01*
X3236421Y1738359D01*
X3233704Y1734818D01*
X3231996Y1730695D01*
X3231414Y1726270D01*
Y1707234D01*
X3205386D01*
Y1729890D01*
X3204803Y1734315D01*
X3203095Y1738438D01*
X3200378Y1741979D01*
X3196837Y1744696D01*
X3192714Y1746404D01*
X3188289Y1746987D01*
D02*
G37*
G36*
X2326010Y1526641D02*
X2291610D01*
Y1477645D01*
X2343107D01*
Y1509545D01*
X2342524Y1513970D01*
X2340816Y1518093D01*
X2338099Y1521634D01*
X2334558Y1524351D01*
X2330435Y1526059D01*
X2326010Y1526641D01*
D02*
G37*
G36*
X2278910D02*
X2244510D01*
X2240085Y1526059D01*
X2235962Y1524351D01*
X2232421Y1521634D01*
X2229705Y1518093D01*
X2227997Y1513970D01*
X2227414Y1509545D01*
Y1477645D01*
X2278910D01*
Y1526641D01*
D02*
G37*
G36*
X3605906Y1746544D02*
X3377006D01*
X3373547Y1746088D01*
X3370324Y1744753D01*
X3367556Y1742629D01*
X3365432Y1739862D01*
X3364097Y1736638D01*
X3363642Y1733179D01*
Y1624279D01*
X3364097Y1620820D01*
X3365432Y1617597D01*
X3367556Y1614830D01*
X3370324Y1612706D01*
X3373547Y1611371D01*
X3377006Y1610915D01*
X3539722D01*
X3540106Y1610865D01*
X3540108Y1610865D01*
X3637975D01*
X3679026Y1569815D01*
Y1462559D01*
X3639700Y1423234D01*
X3619609D01*
X3619270Y1423620D01*
Y1532519D01*
X3618815Y1535978D01*
X3617480Y1539202D01*
X3615356Y1541969D01*
X3612588Y1544093D01*
X3609365Y1545428D01*
X3605906Y1545884D01*
X3377006D01*
X3373547Y1545428D01*
X3370324Y1544093D01*
X3367556Y1541969D01*
X3366877Y1541084D01*
X3342106D01*
Y1596270D01*
X3341524Y1600695D01*
X3339816Y1604818D01*
X3337099Y1608359D01*
X3333558Y1611076D01*
X3329435Y1612784D01*
X3325010Y1613366D01*
X3248510D01*
X3244085Y1612784D01*
X3239962Y1611076D01*
X3236421Y1608359D01*
X3233704Y1604818D01*
X3231996Y1600695D01*
X3231414Y1596270D01*
Y1519770D01*
X3231996Y1515345D01*
X3233704Y1511222D01*
X3236421Y1507681D01*
X3239962Y1504964D01*
X3244085Y1503256D01*
X3248510Y1502673D01*
X3322771D01*
X3322910Y1502655D01*
X3322912Y1502655D01*
X3363642D01*
Y1423620D01*
X3363303Y1423234D01*
X3133124D01*
Y1502944D01*
X3188310D01*
X3192735Y1503526D01*
X3196858Y1505234D01*
X3200399Y1507951D01*
X3203116Y1511492D01*
X3204824Y1515615D01*
X3205406Y1520040D01*
Y1596540D01*
X3204824Y1600965D01*
X3203116Y1605088D01*
X3200399Y1608629D01*
X3196858Y1611346D01*
X3192735Y1613054D01*
X3188310Y1613636D01*
X3111810D01*
X3107385Y1613054D01*
X3103262Y1611346D01*
X3099721Y1608629D01*
X3097004Y1605088D01*
X3095296Y1600965D01*
X3094714Y1596540D01*
Y1522279D01*
X3094695Y1522140D01*
X3094696Y1522138D01*
Y1404019D01*
Y1334209D01*
X3084361Y1332154D01*
X3073786Y1328564D01*
X3063769Y1323624D01*
X3054482Y1317419D01*
X3046085Y1310055D01*
X3038721Y1301658D01*
X3032516Y1292371D01*
X3027577Y1282355D01*
X3023987Y1271779D01*
X3021808Y1260825D01*
X3021077Y1249680D01*
X3021808Y1238535D01*
X3023987Y1227581D01*
X3027577Y1217005D01*
X3032516Y1206989D01*
X3038721Y1197702D01*
X3046085Y1189305D01*
X3054482Y1181941D01*
X3063769Y1175736D01*
X3073786Y1170796D01*
X3084361Y1167206D01*
X3095315Y1165028D01*
X3106460Y1164297D01*
X3111460D01*
X3122605Y1165028D01*
X3133559Y1167206D01*
X3144134Y1170796D01*
X3154151Y1175736D01*
X3163438Y1181941D01*
X3171835Y1189305D01*
X3179199Y1197702D01*
X3185404Y1206989D01*
X3190343Y1217005D01*
X3193933Y1227581D01*
X3196112Y1238535D01*
X3196843Y1249680D01*
X3196112Y1260825D01*
X3193933Y1271779D01*
X3190343Y1282355D01*
X3185404Y1292371D01*
X3179199Y1301658D01*
X3171835Y1310055D01*
X3163438Y1317419D01*
X3154151Y1323624D01*
X3144134Y1328564D01*
X3133559Y1332154D01*
X3133124Y1332240D01*
Y1384805D01*
X3647657D01*
X3647659Y1384805D01*
X3652632Y1385460D01*
X3657266Y1387379D01*
X3661246Y1390433D01*
X3711826Y1441013D01*
X3711827Y1441014D01*
X3714880Y1444993D01*
X3716800Y1449628D01*
X3717455Y1454600D01*
X3717454Y1454602D01*
Y1577772D01*
X3717455Y1577774D01*
X3716800Y1582747D01*
X3714880Y1587381D01*
X3711827Y1591360D01*
X3711826Y1591361D01*
X3659521Y1643666D01*
X3655542Y1646719D01*
X3650907Y1648639D01*
X3645934Y1649294D01*
X3645932Y1649294D01*
X3619270D01*
Y1733179D01*
X3618815Y1736638D01*
X3617480Y1739862D01*
X3615356Y1742629D01*
X3612588Y1744753D01*
X3609365Y1746088D01*
X3605906Y1746544D01*
D02*
G37*
G36*
X2343107Y1464945D02*
X2291610D01*
Y1415949D01*
X2326010D01*
X2330435Y1416531D01*
X2334558Y1418239D01*
X2338099Y1420956D01*
X2340816Y1424497D01*
X2342524Y1428620D01*
X2343107Y1433045D01*
Y1464945D01*
D02*
G37*
G36*
X2278910D02*
X2227414D01*
Y1433045D01*
X2227997Y1428620D01*
X2229705Y1424497D01*
X2232421Y1420956D01*
X2235962Y1418239D01*
X2240085Y1416531D01*
X2244510Y1415949D01*
X2278910D01*
Y1464945D01*
D02*
G37*
G36*
X5145466Y1543344D02*
X4916566D01*
X4913107Y1542888D01*
X4909884Y1541553D01*
X4907116Y1539429D01*
X4904992Y1536662D01*
X4903657Y1533438D01*
X4903202Y1529979D01*
Y1421079D01*
X4903657Y1417620D01*
X4904992Y1414397D01*
X4907116Y1411630D01*
X4909884Y1409506D01*
X4913107Y1408171D01*
X4916566Y1407715D01*
X5145466D01*
X5148925Y1408171D01*
X5152148Y1409506D01*
X5154916Y1411630D01*
X5157040Y1414397D01*
X5158375Y1417620D01*
X5158830Y1421079D01*
Y1529979D01*
X5158375Y1533438D01*
X5157040Y1536662D01*
X5154916Y1539429D01*
X5152148Y1541553D01*
X5148925Y1542888D01*
X5145466Y1543344D01*
D02*
G37*
G36*
X338118Y1436684D02*
X333218D01*
Y1402714D01*
X352189D01*
Y1422614D01*
X351709Y1426255D01*
X350303Y1429649D01*
X348067Y1432563D01*
X345153Y1434799D01*
X341760Y1436204D01*
X338118Y1436684D01*
D02*
G37*
G36*
X352189Y1390014D02*
X333218D01*
Y1356044D01*
X338118D01*
X341760Y1356523D01*
X345153Y1357929D01*
X348067Y1360165D01*
X350303Y1363079D01*
X351709Y1366472D01*
X352189Y1370114D01*
Y1390014D01*
D02*
G37*
G36*
X1540730Y1401126D02*
X1508830D01*
Y1349630D01*
X1557826D01*
Y1384030D01*
X1557244Y1388455D01*
X1555536Y1392578D01*
X1552819Y1396119D01*
X1549278Y1398836D01*
X1545155Y1400544D01*
X1540730Y1401126D01*
D02*
G37*
G36*
X1496130D02*
X1464230D01*
X1459805Y1400544D01*
X1455682Y1398836D01*
X1452141Y1396119D01*
X1449424Y1392578D01*
X1447716Y1388455D01*
X1447134Y1384030D01*
Y1349630D01*
X1496130D01*
Y1401126D01*
D02*
G37*
G36*
X338118Y1291684D02*
X315618D01*
X311977Y1291204D01*
X308583Y1289799D01*
X295153D01*
X291759Y1291205D01*
X288118Y1291684D01*
X265618D01*
X261977Y1291204D01*
X258583Y1289799D01*
X245153D01*
X241759Y1291205D01*
X238118Y1291684D01*
X215618D01*
X211976Y1291204D01*
X208583Y1289799D01*
X205669Y1287563D01*
X203433Y1284649D01*
X202027Y1281255D01*
X201548Y1277614D01*
Y1245551D01*
X201503Y1245214D01*
X201504Y1245212D01*
Y1178026D01*
X180603D01*
X176178Y1177444D01*
X172055Y1175736D01*
X168514Y1173019D01*
X165797Y1169478D01*
X164089Y1165355D01*
X163507Y1160930D01*
Y1084430D01*
X164089Y1080005D01*
X165797Y1075882D01*
X168514Y1072341D01*
X172055Y1069624D01*
X176178Y1067916D01*
X180603Y1067334D01*
X219898D01*
X235788Y1062001D01*
X236444Y1057028D01*
X238363Y1052394D01*
X241416Y1048414D01*
X405898Y883933D01*
Y716103D01*
X317489Y627694D01*
X314435Y623715D01*
X312516Y619080D01*
X311861Y614107D01*
X311861Y614105D01*
Y207735D01*
X311861Y207733D01*
X312516Y202760D01*
X314435Y198126D01*
X317489Y194146D01*
X464689Y46946D01*
X464690Y46945D01*
X468670Y43891D01*
X473304Y41972D01*
X478277Y41317D01*
X478279Y41317D01*
X1406783D01*
X1406785Y41317D01*
X1411758Y41972D01*
X1416392Y43891D01*
X1420372Y46945D01*
X1463432Y90006D01*
X1854318D01*
X1854371Y89785D01*
X1858148Y80667D01*
X1863305Y72252D01*
X1869714Y64747D01*
X1877219Y58338D01*
X1885634Y53181D01*
X1894751Y49405D01*
X1904348Y47101D01*
X1914187Y46326D01*
X1924025Y47101D01*
X1933622Y49405D01*
X1942740Y53181D01*
X1951155Y58338D01*
X1958659Y64747D01*
X1965069Y72252D01*
X1970225Y80667D01*
X1974002Y89785D01*
X1974055Y90006D01*
X2708139D01*
X2708141Y90005D01*
X2713114Y90660D01*
X2717748Y92580D01*
X2721727Y95633D01*
X2758456Y132362D01*
X2758457Y132363D01*
X2761510Y136342D01*
X2763430Y140977D01*
X2764085Y145949D01*
X2764084Y145951D01*
Y165722D01*
X2819270D01*
X2823695Y166304D01*
X2827818Y168012D01*
X2831359Y170729D01*
X2834076Y174270D01*
X2835784Y178393D01*
X2836366Y182818D01*
Y259318D01*
X2835784Y263743D01*
X2834076Y267866D01*
X2831359Y271407D01*
X2827818Y274124D01*
X2823695Y275832D01*
X2819270Y276414D01*
X2742770D01*
X2738345Y275832D01*
X2734222Y274124D01*
X2730681Y271407D01*
X2727964Y267866D01*
X2726256Y263743D01*
X2725674Y259318D01*
Y185057D01*
X2725655Y184918D01*
X2725656Y184916D01*
Y153908D01*
X2700182Y128434D01*
X2361095D01*
Y155751D01*
X2364939Y156515D01*
X2375974Y160261D01*
X2386426Y165415D01*
X2396115Y171890D01*
X2404877Y179573D01*
X2412561Y188335D01*
X2419035Y198024D01*
X2424189Y208476D01*
X2427935Y219512D01*
X2430209Y230941D01*
X2430971Y242570D01*
X2430209Y254199D01*
X2427935Y265628D01*
X2424189Y276664D01*
X2419035Y287116D01*
X2412561Y296805D01*
X2404877Y305567D01*
X2396115Y313250D01*
X2386426Y319725D01*
X2375974Y324879D01*
X2364939Y328625D01*
X2353509Y330898D01*
X2341880Y331661D01*
X2330252Y330898D01*
X2318822Y328625D01*
X2307787Y324879D01*
X2297335Y319725D01*
X2287645Y313250D01*
X2278884Y305567D01*
X2271200Y296805D01*
X2264725Y287116D01*
X2259571Y276664D01*
X2258619Y273859D01*
X2233234D01*
Y317885D01*
X2251370D01*
X2255468Y318425D01*
X2259288Y320007D01*
X2262567Y322523D01*
X2265084Y325803D01*
X2266666Y329622D01*
X2267205Y333721D01*
Y417721D01*
X2266666Y421819D01*
X2265084Y425638D01*
X2262567Y428918D01*
X2259288Y431434D01*
X2255468Y433016D01*
X2251370Y433556D01*
X2197370D01*
X2193271Y433016D01*
X2189452Y431434D01*
X2186173Y428918D01*
X2183656Y425638D01*
X2182074Y421819D01*
X2181535Y417721D01*
Y333721D01*
X2181996Y330217D01*
Y273786D01*
X2134675D01*
X2130250Y273204D01*
X2126127Y271496D01*
X2122586Y268779D01*
X2119870Y265238D01*
X2118161Y261115D01*
X2117579Y256690D01*
Y180190D01*
X2118161Y175765D01*
X2119870Y171642D01*
X2122586Y168101D01*
X2126127Y165384D01*
X2130250Y163676D01*
X2134675Y163094D01*
X2216175D01*
X2220600Y163676D01*
X2224723Y165384D01*
X2228264Y168101D01*
X2230981Y171642D01*
X2232689Y175765D01*
X2233271Y180190D01*
Y222621D01*
X2255207D01*
X2255825Y219512D01*
X2259571Y208476D01*
X2264725Y198024D01*
X2271200Y188335D01*
X2278884Y179573D01*
X2287645Y171890D01*
X2297335Y165415D01*
X2307787Y160261D01*
X2318822Y156515D01*
X2322666Y155751D01*
Y128434D01*
X1974055D01*
X1974002Y128655D01*
X1970225Y137773D01*
X1965069Y146188D01*
X1958659Y153693D01*
X1951155Y160102D01*
X1942740Y165259D01*
X1933622Y169035D01*
X1924025Y171339D01*
X1914187Y172114D01*
X1904348Y171339D01*
X1894751Y169035D01*
X1885634Y165259D01*
X1877219Y160102D01*
X1869714Y153693D01*
X1863305Y146188D01*
X1858148Y137773D01*
X1854371Y128655D01*
X1854318Y128434D01*
X1455474D01*
X1450501Y127780D01*
X1445867Y125860D01*
X1441887Y122807D01*
X1441886Y122806D01*
X1398826Y79746D01*
X486236D01*
X350290Y215692D01*
Y606148D01*
X438698Y694556D01*
X438699Y694557D01*
X441752Y698537D01*
X443671Y703171D01*
X444326Y708144D01*
Y891890D01*
X444327Y891892D01*
X443672Y896865D01*
X441752Y901500D01*
X438699Y905479D01*
X438698Y905480D01*
X274217Y1069960D01*
Y1086528D01*
X274218Y1086530D01*
X274199Y1086669D01*
Y1160930D01*
X273617Y1165355D01*
X271909Y1169478D01*
X269192Y1173019D01*
X265651Y1175736D01*
X261528Y1177444D01*
X257103Y1178026D01*
X239932D01*
Y1206466D01*
X252811Y1213585D01*
X255953Y1214565D01*
X258583Y1212929D01*
X258583Y1212928D01*
X261977Y1211523D01*
X265618Y1211044D01*
X288118D01*
X289873Y1211275D01*
X293563Y1210465D01*
X302893Y1204991D01*
X307654Y1200109D01*
Y1177638D01*
X306178Y1177444D01*
X302055Y1175736D01*
X298514Y1173019D01*
X295797Y1169478D01*
X294089Y1165355D01*
X293507Y1160930D01*
Y1084430D01*
X294089Y1080005D01*
X295797Y1075882D01*
X298514Y1072341D01*
X302055Y1069624D01*
X306178Y1067916D01*
X310603Y1067334D01*
X387103D01*
X391528Y1067916D01*
X395651Y1069624D01*
X399192Y1072341D01*
X401909Y1075882D01*
X403617Y1080005D01*
X404199Y1084430D01*
Y1160930D01*
X403617Y1165355D01*
X401909Y1169478D01*
X399192Y1173019D01*
X395651Y1175736D01*
X391528Y1177444D01*
X387103Y1178026D01*
X346082D01*
Y1213642D01*
X348067Y1215165D01*
X350303Y1218079D01*
X351709Y1221472D01*
X352188Y1225114D01*
Y1277614D01*
X351709Y1281255D01*
X350303Y1284649D01*
X348067Y1287563D01*
X345153Y1289799D01*
X341760Y1291204D01*
X338118Y1291684D01*
D02*
G37*
G36*
X1557826Y1336930D02*
X1508830D01*
Y1285434D01*
X1540730D01*
X1545155Y1286016D01*
X1549278Y1287725D01*
X1552819Y1290441D01*
X1555536Y1293982D01*
X1557244Y1298105D01*
X1557826Y1302530D01*
Y1336930D01*
D02*
G37*
G36*
X1496130D02*
X1447134D01*
Y1302530D01*
X1447716Y1298105D01*
X1449424Y1293982D01*
X1452141Y1290441D01*
X1455682Y1287725D01*
X1459805Y1286016D01*
X1464230Y1285434D01*
X1496130D01*
Y1336930D01*
D02*
G37*
G36*
X2861310Y1334810D02*
Y1256030D01*
X2942426D01*
X2942112Y1260825D01*
X2939933Y1271779D01*
X2936343Y1282354D01*
X2931404Y1292371D01*
X2925199Y1301658D01*
X2917835Y1310055D01*
X2909438Y1317418D01*
X2900151Y1323623D01*
X2890134Y1328563D01*
X2879559Y1332153D01*
X2868605Y1334332D01*
X2861310Y1334810D01*
D02*
G37*
G36*
X2848610D02*
X2841315Y1334332D01*
X2830361Y1332153D01*
X2819786Y1328563D01*
X2809769Y1323623D01*
X2800482Y1317418D01*
X2792085Y1310055D01*
X2784721Y1301658D01*
X2778516Y1292371D01*
X2773577Y1282354D01*
X2769987Y1271779D01*
X2767808Y1260825D01*
X2767494Y1256030D01*
X2848610D01*
Y1334810D01*
D02*
G37*
G36*
X3605906Y1347764D02*
X3377006D01*
X3373547Y1347308D01*
X3370324Y1345973D01*
X3367556Y1343849D01*
X3365432Y1341082D01*
X3364097Y1337858D01*
X3363642Y1334399D01*
Y1225499D01*
X3364097Y1222040D01*
X3365432Y1218817D01*
X3367556Y1216050D01*
X3370324Y1213926D01*
X3373547Y1212591D01*
X3377006Y1212135D01*
X3605906D01*
X3609365Y1212591D01*
X3612588Y1213926D01*
X3615356Y1216050D01*
X3617480Y1218817D01*
X3618815Y1222040D01*
X3619270Y1225499D01*
Y1334399D01*
X3618815Y1337858D01*
X3617480Y1341082D01*
X3615356Y1343849D01*
X3612588Y1345973D01*
X3609365Y1347308D01*
X3605906Y1347764D01*
D02*
G37*
G36*
X2942426Y1243330D02*
X2861310D01*
Y1164549D01*
X2868605Y1165027D01*
X2879559Y1167206D01*
X2890134Y1170796D01*
X2900151Y1175736D01*
X2909438Y1181941D01*
X2917835Y1189305D01*
X2925199Y1197702D01*
X2931404Y1206988D01*
X2936343Y1217005D01*
X2939933Y1227581D01*
X2942112Y1238535D01*
X2942426Y1243330D01*
D02*
G37*
G36*
X2848610D02*
X2767494D01*
X2767808Y1238535D01*
X2769987Y1227581D01*
X2773577Y1217005D01*
X2778516Y1206988D01*
X2784721Y1197702D01*
X2792085Y1189305D01*
X2800482Y1181941D01*
X2809769Y1175736D01*
X2819786Y1170796D01*
X2830361Y1167206D01*
X2841315Y1165027D01*
X2848610Y1164549D01*
Y1243330D01*
D02*
G37*
G36*
X1585815Y1149208D02*
X1553915D01*
Y1100211D01*
X1602911D01*
Y1132112D01*
X1602329Y1136536D01*
X1600621Y1140660D01*
X1597904Y1144200D01*
X1594363Y1146917D01*
X1590240Y1148625D01*
X1585815Y1149208D01*
D02*
G37*
G36*
X1541215D02*
X1509315D01*
X1504890Y1148625D01*
X1500767Y1146917D01*
X1497226Y1144200D01*
X1494509Y1140660D01*
X1492801Y1136536D01*
X1492219Y1132112D01*
Y1100211D01*
X1541215D01*
Y1149208D01*
D02*
G37*
G36*
X2015631Y1145402D02*
X1983731D01*
Y1093906D01*
X2032727D01*
Y1128306D01*
X2032145Y1132731D01*
X2030437Y1136854D01*
X2027720Y1140395D01*
X2024179Y1143112D01*
X2020056Y1144820D01*
X2015631Y1145402D01*
D02*
G37*
G36*
X1971031D02*
X1939131D01*
X1934706Y1144820D01*
X1930583Y1143112D01*
X1927042Y1140395D01*
X1924325Y1136854D01*
X1922617Y1132731D01*
X1922035Y1128306D01*
Y1093906D01*
X1971031D01*
Y1145402D01*
D02*
G37*
G36*
X3605906Y1144564D02*
X3377006D01*
X3373547Y1144108D01*
X3370324Y1142773D01*
X3367556Y1140649D01*
X3365432Y1137882D01*
X3364097Y1134658D01*
X3363642Y1131199D01*
Y1047314D01*
X3294972D01*
X3294970Y1047314D01*
X3289997Y1046659D01*
X3285362Y1044739D01*
X3281383Y1041686D01*
X3281382Y1041685D01*
X3254591Y1014894D01*
X3194507D01*
X3193933Y1017779D01*
X3190343Y1028355D01*
X3185404Y1038371D01*
X3179199Y1047658D01*
X3171835Y1056055D01*
X3163438Y1063419D01*
X3154151Y1069624D01*
X3144134Y1074564D01*
X3133559Y1078154D01*
X3122605Y1080332D01*
X3111460Y1081063D01*
X3106460D01*
X3095315Y1080332D01*
X3084361Y1078154D01*
X3073786Y1074564D01*
X3063769Y1069624D01*
X3054482Y1063419D01*
X3046085Y1056055D01*
X3038721Y1047658D01*
X3032516Y1038371D01*
X3027577Y1028355D01*
X3023987Y1017779D01*
X3021808Y1006825D01*
X3021077Y995680D01*
X3021808Y984535D01*
X3023987Y973581D01*
X3027577Y963005D01*
X3032516Y952989D01*
X3038721Y943702D01*
X3046085Y935305D01*
X3054482Y927941D01*
X3063769Y921736D01*
X3073786Y916796D01*
X3084361Y913206D01*
X3095315Y911028D01*
X3106460Y910297D01*
X3111460D01*
X3122605Y911028D01*
X3133559Y913206D01*
X3144134Y916796D01*
X3154151Y921736D01*
X3163438Y927941D01*
X3171835Y935305D01*
X3179199Y943702D01*
X3185404Y952989D01*
X3190343Y963005D01*
X3193933Y973581D01*
X3194507Y976466D01*
X3262548D01*
X3262550Y976465D01*
X3267524Y977120D01*
X3272158Y979040D01*
X3276137Y982093D01*
X3302929Y1008885D01*
X3442804D01*
X3442806Y1008885D01*
X3443190Y1008935D01*
X3605906D01*
X3609365Y1009391D01*
X3612588Y1010726D01*
X3615356Y1012850D01*
X3617480Y1015617D01*
X3618815Y1018840D01*
X3619270Y1022299D01*
Y1131199D01*
X3618815Y1134658D01*
X3617480Y1137882D01*
X3615356Y1140649D01*
X3612588Y1142773D01*
X3609365Y1144108D01*
X3605906Y1144564D01*
D02*
G37*
G36*
X1602911Y1087511D02*
X1553915D01*
Y1038515D01*
X1585815D01*
X1590240Y1039097D01*
X1594363Y1040806D01*
X1597904Y1043522D01*
X1600621Y1047063D01*
X1602329Y1051186D01*
X1602911Y1055611D01*
Y1087511D01*
D02*
G37*
G36*
X1541215D02*
X1492219D01*
Y1055611D01*
X1492801Y1051186D01*
X1494509Y1047063D01*
X1497226Y1043522D01*
X1500767Y1040806D01*
X1504890Y1039097D01*
X1509315Y1038515D01*
X1541215D01*
Y1087511D01*
D02*
G37*
G36*
X2032727Y1081206D02*
X1983731D01*
Y1029710D01*
X2015631D01*
X2020056Y1030292D01*
X2024179Y1032000D01*
X2027720Y1034717D01*
X2030437Y1038258D01*
X2032145Y1042381D01*
X2032727Y1046806D01*
Y1081206D01*
D02*
G37*
G36*
X1971031D02*
X1922035D01*
Y1046806D01*
X1922617Y1042381D01*
X1924325Y1038258D01*
X1927042Y1034717D01*
X1930583Y1032000D01*
X1934706Y1030292D01*
X1939131Y1029710D01*
X1971031D01*
Y1081206D01*
D02*
G37*
G36*
X5145466Y1144564D02*
X4916566D01*
X4913107Y1144108D01*
X4909884Y1142773D01*
X4907116Y1140649D01*
X4904992Y1137882D01*
X4903657Y1134658D01*
X4903202Y1131199D01*
Y1022299D01*
X4903657Y1018840D01*
X4904992Y1015617D01*
X4907116Y1012850D01*
X4909884Y1010726D01*
X4913107Y1009391D01*
X4916566Y1008935D01*
X5145466D01*
X5148925Y1009391D01*
X5152148Y1010726D01*
X5154916Y1012850D01*
X5157040Y1015617D01*
X5158375Y1018840D01*
X5158830Y1022299D01*
Y1131199D01*
X5158375Y1134658D01*
X5157040Y1137882D01*
X5154916Y1140649D01*
X5152148Y1142773D01*
X5148925Y1144108D01*
X5145466Y1144564D01*
D02*
G37*
G36*
X542440Y1024531D02*
X510540D01*
Y975535D01*
X559536D01*
Y1007435D01*
X558954Y1011860D01*
X557246Y1015983D01*
X554529Y1019524D01*
X550988Y1022241D01*
X546865Y1023949D01*
X542440Y1024531D01*
D02*
G37*
G36*
X497840D02*
X465940D01*
X461515Y1023949D01*
X457392Y1022241D01*
X453851Y1019524D01*
X451134Y1015983D01*
X449426Y1011860D01*
X448844Y1007435D01*
Y975535D01*
X497840D01*
Y1024531D01*
D02*
G37*
G36*
X2346370Y1084567D02*
X2292370D01*
X2288271Y1084027D01*
X2284452Y1082445D01*
X2281172Y1079928D01*
X2278656Y1076649D01*
X2277074Y1072830D01*
X2276534Y1068731D01*
Y969731D01*
X2277074Y965633D01*
X2278656Y961813D01*
X2281172Y958534D01*
X2284452Y956017D01*
X2288271Y954435D01*
X2292370Y953896D01*
X2346370D01*
X2350468Y954435D01*
X2354287Y956017D01*
X2357567Y958534D01*
X2360083Y961813D01*
X2361666Y965633D01*
X2362205Y969731D01*
Y1068731D01*
X2361666Y1072830D01*
X2360083Y1076649D01*
X2357567Y1079928D01*
X2354287Y1082445D01*
X2350468Y1084027D01*
X2346370Y1084567D01*
D02*
G37*
G36*
X5284959Y1144477D02*
X5208459D01*
X5204034Y1143894D01*
X5199911Y1142186D01*
X5196370Y1139469D01*
X5193654Y1135928D01*
X5191945Y1131805D01*
X5191363Y1127380D01*
Y1053119D01*
X5191345Y1052980D01*
X5191345Y1052978D01*
Y982612D01*
X5155227Y946494D01*
X5079668D01*
X5079666Y946494D01*
X5079282Y946444D01*
X4916566D01*
X4913107Y945988D01*
X4909884Y944653D01*
X4907116Y942529D01*
X4904992Y939762D01*
X4903657Y936538D01*
X4903202Y933079D01*
Y824179D01*
X4903657Y820720D01*
X4904992Y817497D01*
X4907116Y814730D01*
X4909884Y812606D01*
X4913107Y811271D01*
X4916566Y810815D01*
X5145466D01*
X5148925Y811271D01*
X5152148Y812606D01*
X5154916Y814730D01*
X5157040Y817497D01*
X5158375Y820720D01*
X5158830Y824179D01*
Y891611D01*
X5163186Y908065D01*
X5168159Y908720D01*
X5172793Y910640D01*
X5176773Y913693D01*
X5224145Y961065D01*
X5224146Y961066D01*
X5227199Y965046D01*
X5229119Y969680D01*
X5229774Y974653D01*
X5229774Y974655D01*
Y1033784D01*
X5284959D01*
X5289384Y1034366D01*
X5293508Y1036074D01*
X5297048Y1038791D01*
X5299765Y1042332D01*
X5301473Y1046455D01*
X5302056Y1050880D01*
Y1127380D01*
X5301473Y1131805D01*
X5299765Y1135928D01*
X5297048Y1139469D01*
X5293508Y1142186D01*
X5289384Y1143894D01*
X5284959Y1144477D01*
D02*
G37*
G36*
X559536Y962835D02*
X510540D01*
Y913839D01*
X542440D01*
X546865Y914421D01*
X550988Y916129D01*
X554529Y918846D01*
X557246Y922387D01*
X558954Y926510D01*
X559536Y930935D01*
Y962835D01*
D02*
G37*
G36*
X497840D02*
X448844D01*
Y930935D01*
X449426Y926510D01*
X451134Y922387D01*
X453851Y918846D01*
X457392Y916129D01*
X461515Y914421D01*
X465940Y913839D01*
X497840D01*
Y962835D01*
D02*
G37*
G36*
X1450830Y1020307D02*
X1374330D01*
X1369905Y1019724D01*
X1365782Y1018016D01*
X1362241Y1015299D01*
X1359524Y1011758D01*
X1357816Y1007635D01*
X1357234Y1003210D01*
Y926710D01*
X1357816Y922285D01*
X1359524Y918162D01*
X1362241Y914621D01*
X1365782Y911904D01*
X1369905Y910196D01*
X1374330Y909614D01*
X1450830D01*
X1455255Y910196D01*
X1459378Y911904D01*
X1462919Y914621D01*
X1465636Y918162D01*
X1467344Y922285D01*
X1467926Y926710D01*
Y934910D01*
X1493489D01*
Y926710D01*
X1494071Y922285D01*
X1495779Y918162D01*
X1498496Y914621D01*
X1502037Y911904D01*
X1506160Y910196D01*
X1510585Y909614D01*
X1587085D01*
X1591510Y910196D01*
X1595633Y911904D01*
X1599174Y914621D01*
X1601891Y918162D01*
X1603599Y922285D01*
X1604181Y926710D01*
Y1003210D01*
X1603599Y1007635D01*
X1601891Y1011758D01*
X1599174Y1015299D01*
X1595633Y1018016D01*
X1591510Y1019724D01*
X1587085Y1020306D01*
X1510585D01*
X1506160Y1019724D01*
X1502037Y1018016D01*
X1498496Y1015299D01*
X1495779Y1011758D01*
X1494071Y1007635D01*
X1493489Y1003210D01*
Y975900D01*
X1467926D01*
Y1003210D01*
X1467344Y1007635D01*
X1465636Y1011758D01*
X1462919Y1015299D01*
X1459378Y1018016D01*
X1455255Y1019724D01*
X1450830Y1020307D01*
D02*
G37*
G36*
X2015631Y868012D02*
X1983731D01*
Y816516D01*
X2032727D01*
Y850916D01*
X2032145Y855341D01*
X2030436Y859464D01*
X2027720Y863005D01*
X2024179Y865722D01*
X2020056Y867430D01*
X2015631Y868012D01*
D02*
G37*
G36*
X1971031D02*
X1939130D01*
X1934706Y867430D01*
X1930582Y865722D01*
X1927042Y863005D01*
X1924325Y859464D01*
X1922617Y855341D01*
X1922034Y850916D01*
Y816516D01*
X1971031D01*
Y868012D01*
D02*
G37*
G36*
X2857460Y1081063D02*
X2852460D01*
X2841315Y1080333D01*
X2830361Y1078154D01*
X2819786Y1074564D01*
X2809769Y1069624D01*
X2800482Y1063419D01*
X2792085Y1056055D01*
X2784721Y1047658D01*
X2778516Y1038372D01*
X2773577Y1028355D01*
X2769987Y1017779D01*
X2767808Y1006825D01*
X2767077Y995680D01*
X2767808Y984535D01*
X2769987Y973581D01*
X2773577Y963006D01*
X2778516Y952989D01*
X2784721Y943702D01*
X2792085Y935305D01*
X2800482Y927942D01*
X2809769Y921737D01*
X2819786Y916797D01*
X2830361Y913207D01*
X2841315Y911028D01*
X2852460Y910297D01*
X2857460D01*
X2868605Y911028D01*
X2879559Y913207D01*
X2890134Y916797D01*
X2900151Y921737D01*
X2901098Y922369D01*
X2970391Y853076D01*
X2970392Y853075D01*
X2974371Y850022D01*
X2979005Y848102D01*
X2983978Y847447D01*
X2983980Y847448D01*
X3363642D01*
Y824179D01*
X3364097Y820720D01*
X3365432Y817497D01*
X3367556Y814730D01*
X3370324Y812606D01*
X3373547Y811271D01*
X3377006Y810815D01*
X3605906D01*
X3609365Y811271D01*
X3612588Y812606D01*
X3615356Y814730D01*
X3617480Y817497D01*
X3618815Y820720D01*
X3619270Y824179D01*
Y933079D01*
X3618815Y936538D01*
X3617480Y939762D01*
X3615356Y942529D01*
X3612588Y944653D01*
X3609365Y945988D01*
X3605906Y946444D01*
X3377006D01*
X3373547Y945988D01*
X3370324Y944653D01*
X3367556Y942529D01*
X3365432Y939762D01*
X3364097Y936538D01*
X3363642Y933079D01*
Y885876D01*
X2991937D01*
X2928769Y949045D01*
X2931404Y952989D01*
X2936343Y963006D01*
X2939933Y973581D01*
X2942112Y984535D01*
X2942843Y995680D01*
X2942112Y1006825D01*
X2939933Y1017779D01*
X2936343Y1028355D01*
X2931404Y1038372D01*
X2925199Y1047658D01*
X2917835Y1056055D01*
X2909438Y1063419D01*
X2900151Y1069624D01*
X2890134Y1074564D01*
X2879559Y1078154D01*
X2868605Y1080333D01*
X2857460Y1081063D01*
D02*
G37*
G36*
X1898690Y1241323D02*
X1890711Y1240537D01*
X1883039Y1238210D01*
X1875969Y1234430D01*
X1869771Y1229344D01*
X1864685Y1223147D01*
X1860906Y1216076D01*
X1858579Y1208404D01*
X1857793Y1200426D01*
X1858579Y1192447D01*
X1860906Y1184775D01*
X1864685Y1177705D01*
X1869771Y1171507D01*
X1875969Y1166421D01*
X1883039Y1162642D01*
X1890711Y1160315D01*
X1898690Y1159529D01*
X1906668Y1160315D01*
X1914340Y1162642D01*
X1921411Y1166421D01*
X1927608Y1171507D01*
X1932694Y1177705D01*
X1934568Y1181212D01*
X2291740D01*
X2379985Y1092966D01*
Y821505D01*
X2373076Y814596D01*
X2343020D01*
X2342800Y814567D01*
X2292370D01*
X2288271Y814027D01*
X2284452Y812445D01*
X2281172Y809929D01*
X2278656Y806649D01*
X2277074Y802830D01*
X2276534Y798731D01*
Y699731D01*
X2277074Y695633D01*
X2278656Y691813D01*
X2281172Y688534D01*
X2284452Y686017D01*
X2288271Y684435D01*
X2292370Y683896D01*
X2346370D01*
X2350468Y684435D01*
X2354287Y686017D01*
X2357567Y688534D01*
X2360083Y691813D01*
X2361666Y695633D01*
X2362205Y699731D01*
Y776167D01*
X2381033D01*
X2381035Y776167D01*
X2386007Y776821D01*
X2390642Y778741D01*
X2394621Y781794D01*
X2412785Y799959D01*
X2412786Y799960D01*
X2415840Y803939D01*
X2417759Y808573D01*
X2418414Y813546D01*
X2418414Y813548D01*
Y1100923D01*
X2418414Y1100925D01*
X2417759Y1105898D01*
X2415840Y1110532D01*
X2412786Y1114512D01*
X2412785Y1114513D01*
X2313286Y1214013D01*
X2309306Y1217066D01*
X2304672Y1218985D01*
X2299699Y1219640D01*
X2299697Y1219640D01*
X1934568D01*
X1932694Y1223147D01*
X1927608Y1229344D01*
X1921411Y1234430D01*
X1914340Y1238210D01*
X1906668Y1240537D01*
X1898690Y1241323D01*
D02*
G37*
G36*
X2032727Y803816D02*
X1983731D01*
Y752320D01*
X2015631D01*
X2020056Y752902D01*
X2024179Y754611D01*
X2027720Y757327D01*
X2030436Y760868D01*
X2032145Y764991D01*
X2032727Y769416D01*
Y803816D01*
D02*
G37*
G36*
X1971031D02*
X1922034D01*
Y769416D01*
X1922617Y764991D01*
X1924325Y760868D01*
X1927042Y757327D01*
X1930582Y754611D01*
X1934706Y752902D01*
X1939130Y752320D01*
X1971031D01*
Y803816D01*
D02*
G37*
G36*
X1168770Y738614D02*
X1134370D01*
Y689618D01*
X1185866D01*
Y721518D01*
X1185283Y725943D01*
X1183575Y730066D01*
X1180858Y733607D01*
X1177318Y736323D01*
X1173195Y738032D01*
X1168770Y738614D01*
D02*
G37*
G36*
X1121670D02*
X1087270D01*
X1082845Y738032D01*
X1078721Y736323D01*
X1075181Y733607D01*
X1072464Y730066D01*
X1070756Y725943D01*
X1070173Y721518D01*
Y689618D01*
X1121670D01*
Y738614D01*
D02*
G37*
G36*
X1185866Y676918D02*
X1134370D01*
Y627921D01*
X1168770D01*
X1173195Y628504D01*
X1177318Y630212D01*
X1180858Y632929D01*
X1183575Y636469D01*
X1185283Y640593D01*
X1185866Y645018D01*
Y676918D01*
D02*
G37*
G36*
X1121670D02*
X1070173D01*
Y645018D01*
X1070756Y640593D01*
X1072464Y636469D01*
X1075181Y632929D01*
X1078721Y630212D01*
X1082845Y628504D01*
X1087270Y627921D01*
X1121670D01*
Y676918D01*
D02*
G37*
G36*
X784354Y586590D02*
Y507810D01*
X865471D01*
X865157Y512605D01*
X862978Y523559D01*
X859388Y534135D01*
X854448Y544151D01*
X848243Y553438D01*
X840879Y561835D01*
X832482Y569199D01*
X823196Y575404D01*
X813179Y580344D01*
X802603Y583934D01*
X791649Y586112D01*
X784354Y586590D01*
D02*
G37*
G36*
X771654D02*
X764360Y586112D01*
X753406Y583934D01*
X742830Y580344D01*
X732813Y575404D01*
X723527Y569199D01*
X715130Y561835D01*
X707766Y553438D01*
X701561Y544151D01*
X696621Y534135D01*
X693031Y523559D01*
X690852Y512605D01*
X690538Y507810D01*
X771654D01*
Y586590D01*
D02*
G37*
G36*
X865471Y495110D02*
X784354D01*
Y416330D01*
X791649Y416808D01*
X802603Y418986D01*
X813179Y422576D01*
X823196Y427516D01*
X832482Y433721D01*
X840879Y441085D01*
X848243Y449482D01*
X854448Y458769D01*
X859388Y468785D01*
X862978Y479361D01*
X865157Y490315D01*
X865471Y495110D01*
D02*
G37*
G36*
X771654D02*
X690538D01*
X690852Y490315D01*
X693031Y479361D01*
X696621Y468785D01*
X701561Y458769D01*
X707766Y449482D01*
X715130Y441085D01*
X723527Y433721D01*
X732813Y427516D01*
X742830Y422576D01*
X753406Y418986D01*
X764360Y416808D01*
X771654Y416330D01*
Y495110D01*
D02*
G37*
G36*
X995003Y771751D02*
X987024Y770965D01*
X979352Y768638D01*
X972282Y764859D01*
X966084Y759773D01*
X960998Y753576D01*
X957219Y746505D01*
X954892Y738833D01*
X954106Y730855D01*
X954892Y722876D01*
X957219Y715204D01*
X960998Y708133D01*
X966084Y701936D01*
X972282Y696850D01*
X975788Y694976D01*
Y661060D01*
X975788Y661058D01*
X976443Y656085D01*
X978363Y651451D01*
X981416Y647471D01*
X1012790Y616097D01*
Y585004D01*
X1007406Y583934D01*
X996830Y580344D01*
X986813Y575404D01*
X977527Y569199D01*
X969130Y561835D01*
X961766Y553438D01*
X955561Y544151D01*
X950621Y534135D01*
X947031Y523559D01*
X944852Y512605D01*
X944122Y501460D01*
X944852Y490315D01*
X947031Y479361D01*
X950621Y468785D01*
X955561Y458769D01*
X961766Y449482D01*
X969130Y441085D01*
X977527Y433721D01*
X986813Y427516D01*
X996830Y422576D01*
X1007406Y418986D01*
X1018360Y416808D01*
X1029504Y416077D01*
X1034504D01*
X1045649Y416808D01*
X1056603Y418986D01*
X1067179Y422576D01*
X1077196Y427516D01*
X1086482Y433721D01*
X1094879Y441085D01*
X1102243Y449482D01*
X1108448Y458769D01*
X1113388Y468785D01*
X1116978Y479361D01*
X1119157Y490315D01*
X1119887Y501460D01*
X1119157Y512605D01*
X1116978Y523559D01*
X1113388Y534135D01*
X1108448Y544151D01*
X1102243Y553438D01*
X1094879Y561835D01*
X1086482Y569199D01*
X1077196Y575404D01*
X1067179Y580344D01*
X1056603Y583934D01*
X1051219Y585004D01*
Y624054D01*
X1051219Y624056D01*
X1050564Y629029D01*
X1048644Y633663D01*
X1045591Y637643D01*
X1045590Y637643D01*
X1014217Y669017D01*
Y694976D01*
X1017724Y696850D01*
X1023921Y701936D01*
X1029007Y708133D01*
X1032786Y715204D01*
X1035113Y722876D01*
X1035899Y730855D01*
X1035113Y738833D01*
X1032786Y746505D01*
X1029007Y753576D01*
X1023921Y759773D01*
X1017724Y764859D01*
X1010653Y768638D01*
X1002981Y770965D01*
X995003Y771751D01*
D02*
G37*
G36*
X526504Y586843D02*
X521504D01*
X510360Y586112D01*
X499406Y583934D01*
X488830Y580344D01*
X478813Y575404D01*
X469527Y569199D01*
X461130Y561835D01*
X453766Y553438D01*
X447561Y544151D01*
X442621Y534135D01*
X439031Y523559D01*
X436852Y512605D01*
X436122Y501460D01*
X436852Y490315D01*
X439031Y479361D01*
X442621Y468785D01*
X447561Y458769D01*
X453766Y449482D01*
X461130Y441085D01*
X469527Y433721D01*
X478813Y427516D01*
X488830Y422576D01*
X499406Y418986D01*
X510360Y416808D01*
X521504Y416077D01*
X526504D01*
X537649Y416808D01*
X548603Y418986D01*
X559179Y422576D01*
X569196Y427516D01*
X578482Y433721D01*
X586879Y441085D01*
X594243Y449482D01*
X600448Y458769D01*
X605388Y468785D01*
X608978Y479361D01*
X611157Y490315D01*
X611887Y501460D01*
X611157Y512605D01*
X608978Y523559D01*
X605388Y534135D01*
X600448Y544151D01*
X594243Y553438D01*
X586879Y561835D01*
X578482Y569199D01*
X569196Y575404D01*
X559179Y580344D01*
X548603Y583934D01*
X537649Y586112D01*
X526504Y586843D01*
D02*
G37*
G36*
X2015631Y459146D02*
X1983731D01*
Y407650D01*
X2032727D01*
Y442050D01*
X2032145Y446475D01*
X2030436Y450598D01*
X2027720Y454139D01*
X2024179Y456856D01*
X2020056Y458564D01*
X2015631Y459146D01*
D02*
G37*
G36*
X1971031D02*
X1939130D01*
X1934706Y458564D01*
X1930582Y456856D01*
X1927042Y454139D01*
X1924325Y450598D01*
X1922617Y446475D01*
X1922034Y442050D01*
Y407650D01*
X1971031D01*
Y459146D01*
D02*
G37*
G36*
X1288504Y586843D02*
X1283504D01*
X1272360Y586112D01*
X1261406Y583934D01*
X1250830Y580344D01*
X1240813Y575404D01*
X1231527Y569199D01*
X1223130Y561835D01*
X1215766Y553438D01*
X1209561Y544151D01*
X1204621Y534135D01*
X1201031Y523559D01*
X1198852Y512605D01*
X1198122Y501460D01*
X1198852Y490315D01*
X1201031Y479361D01*
X1204621Y468785D01*
X1209561Y458769D01*
X1215766Y449482D01*
X1223130Y441085D01*
X1231527Y433721D01*
X1240813Y427516D01*
X1250830Y422576D01*
X1261406Y418986D01*
X1264852Y418301D01*
Y330619D01*
X1261406Y329934D01*
X1250830Y326344D01*
X1240813Y321404D01*
X1231527Y315199D01*
X1223130Y307835D01*
X1215766Y299438D01*
X1209561Y290151D01*
X1204621Y280135D01*
X1201031Y269559D01*
X1198852Y258605D01*
X1198122Y247460D01*
X1198852Y236315D01*
X1201031Y225361D01*
X1204621Y214785D01*
X1209561Y204769D01*
X1215766Y195482D01*
X1223130Y187085D01*
X1231527Y179721D01*
X1240813Y173516D01*
X1250830Y168576D01*
X1261406Y164986D01*
X1272360Y162808D01*
X1283504Y162077D01*
X1288504D01*
X1299649Y162808D01*
X1310603Y164986D01*
X1321179Y168576D01*
X1331196Y173516D01*
X1340482Y179721D01*
X1348879Y187085D01*
X1356243Y195482D01*
X1362448Y204769D01*
X1367388Y214785D01*
X1370978Y225361D01*
X1373157Y236315D01*
X1373887Y247460D01*
X1373157Y258605D01*
X1370978Y269559D01*
X1367388Y280135D01*
X1362448Y290151D01*
X1356243Y299438D01*
X1348879Y307835D01*
X1340482Y315199D01*
X1331196Y321404D01*
X1321179Y326344D01*
X1310967Y329810D01*
Y351403D01*
X1760454D01*
X1766421Y352189D01*
X1771982Y354492D01*
X1776758Y358156D01*
X1799773Y381171D01*
X1805500Y379434D01*
X1813479Y378648D01*
X1821457Y379434D01*
X1829129Y381761D01*
X1836200Y385541D01*
X1842397Y390627D01*
X1847483Y396824D01*
X1851262Y403895D01*
X1853590Y411567D01*
X1854376Y419545D01*
X1853590Y427524D01*
X1851262Y435196D01*
X1847483Y442266D01*
X1842397Y448464D01*
X1836200Y453550D01*
X1829129Y457329D01*
X1821457Y459656D01*
X1813479Y460442D01*
X1805500Y459656D01*
X1797828Y457329D01*
X1790758Y453550D01*
X1784560Y448464D01*
X1779474Y442266D01*
X1775695Y435196D01*
X1773368Y427524D01*
X1772582Y419545D01*
X1772613Y419228D01*
X1750903Y397518D01*
X1310967D01*
Y419110D01*
X1321179Y422576D01*
X1331196Y427516D01*
X1340482Y433721D01*
X1348879Y441085D01*
X1356243Y449482D01*
X1362448Y458769D01*
X1367388Y468785D01*
X1370978Y479361D01*
X1373157Y490315D01*
X1373887Y501460D01*
X1373157Y512605D01*
X1370978Y523559D01*
X1367388Y534135D01*
X1362448Y544151D01*
X1356243Y553438D01*
X1348879Y561835D01*
X1340482Y569199D01*
X1331196Y575404D01*
X1321179Y580344D01*
X1310603Y583934D01*
X1299649Y586112D01*
X1288504Y586843D01*
D02*
G37*
G36*
X2032727Y394950D02*
X1983731D01*
Y343454D01*
X2015631D01*
X2020056Y344036D01*
X2024179Y345744D01*
X2027720Y348461D01*
X2030436Y352002D01*
X2032145Y356125D01*
X2032727Y360550D01*
Y394950D01*
D02*
G37*
G36*
X1971031D02*
X1922034D01*
Y360550D01*
X1922617Y356125D01*
X1924325Y352002D01*
X1927042Y348461D01*
X1930582Y345744D01*
X1934706Y344036D01*
X1939130Y343454D01*
X1971031D01*
Y394950D01*
D02*
G37*
G36*
X2717880Y696495D02*
X2663880D01*
X2659782Y695956D01*
X2655963Y694374D01*
X2652683Y691857D01*
X2650167Y688578D01*
X2648584Y684759D01*
X2648045Y680660D01*
Y596660D01*
X2648584Y592562D01*
X2650167Y588743D01*
X2652683Y585463D01*
X2655963Y582947D01*
X2659782Y581364D01*
X2663880Y580825D01*
X2695316D01*
Y543189D01*
X2695315Y543187D01*
X2695970Y538214D01*
X2697890Y533579D01*
X2700943Y529600D01*
X2725656Y504887D01*
Y387219D01*
X2725656Y387217D01*
X2725674Y387084D01*
Y312818D01*
X2726256Y308393D01*
X2727964Y304270D01*
X2730681Y300729D01*
X2734222Y298012D01*
X2738345Y296304D01*
X2742770Y295722D01*
X2819270D01*
X2823695Y296304D01*
X2827818Y298012D01*
X2831359Y300729D01*
X2834076Y304270D01*
X2835784Y308393D01*
X2836366Y312818D01*
Y389318D01*
X2835784Y393743D01*
X2834076Y397866D01*
X2831359Y401407D01*
X2827818Y404124D01*
X2823695Y405832D01*
X2819270Y406414D01*
X2764085D01*
Y512844D01*
X2764085Y512846D01*
X2763430Y517819D01*
X2761511Y522453D01*
X2758458Y526433D01*
X2758457Y526433D01*
X2733744Y551146D01*
Y615008D01*
X2733745Y615010D01*
X2733716Y615230D01*
Y680660D01*
X2733176Y684759D01*
X2731594Y688578D01*
X2729078Y691857D01*
X2725798Y694374D01*
X2721979Y695956D01*
X2717880Y696495D01*
D02*
G37*
G36*
X1038354Y332590D02*
Y253810D01*
X1119471D01*
X1119157Y258605D01*
X1116978Y269559D01*
X1113388Y280135D01*
X1108448Y290151D01*
X1102243Y299438D01*
X1094879Y307835D01*
X1086482Y315199D01*
X1077196Y321404D01*
X1067179Y326344D01*
X1056603Y329934D01*
X1045649Y332112D01*
X1038354Y332590D01*
D02*
G37*
G36*
X1025654D02*
X1018360Y332112D01*
X1007406Y329934D01*
X996830Y326344D01*
X986813Y321404D01*
X977527Y315199D01*
X969130Y307835D01*
X961766Y299438D01*
X955561Y290151D01*
X950621Y280135D01*
X947031Y269559D01*
X944852Y258605D01*
X944538Y253810D01*
X1025654D01*
Y332590D01*
D02*
G37*
G36*
X2081175Y273786D02*
X2046775D01*
Y224790D01*
X2098271D01*
Y256690D01*
X2097689Y261115D01*
X2095981Y265238D01*
X2093264Y268779D01*
X2089723Y271496D01*
X2085600Y273204D01*
X2081175Y273786D01*
D02*
G37*
G36*
X2034075D02*
X1999675D01*
X1995250Y273204D01*
X1991127Y271496D01*
X1987586Y268779D01*
X1984870Y265238D01*
X1983161Y261115D01*
X1982579Y256690D01*
Y224790D01*
X2034075D01*
Y273786D01*
D02*
G37*
G36*
X2098271Y212090D02*
X2046775D01*
Y163094D01*
X2081175D01*
X2085600Y163676D01*
X2089723Y165384D01*
X2093264Y168101D01*
X2095981Y171642D01*
X2097689Y175765D01*
X2098271Y180190D01*
Y212090D01*
D02*
G37*
G36*
X2034075D02*
X1982579D01*
Y180190D01*
X1983161Y175765D01*
X1984870Y171642D01*
X1987586Y168101D01*
X1991127Y165384D01*
X1995250Y163676D01*
X1999675Y163094D01*
X2034075D01*
Y212090D01*
D02*
G37*
G36*
X1119471Y241110D02*
X1038354D01*
Y162330D01*
X1045649Y162808D01*
X1056603Y164986D01*
X1067179Y168576D01*
X1077196Y173516D01*
X1086482Y179721D01*
X1094879Y187085D01*
X1102243Y195482D01*
X1108448Y204769D01*
X1113388Y214785D01*
X1116978Y225361D01*
X1119157Y236315D01*
X1119471Y241110D01*
D02*
G37*
G36*
X1025654D02*
X944538D01*
X944852Y236315D01*
X947031Y225361D01*
X950621Y214785D01*
X955561Y204769D01*
X961766Y195482D01*
X969130Y187085D01*
X977527Y179721D01*
X986813Y173516D01*
X996830Y168576D01*
X1007406Y164986D01*
X1018360Y162808D01*
X1025654Y162330D01*
Y241110D01*
D02*
G37*
G36*
X2622880Y466495D02*
X2568880D01*
X2564782Y465956D01*
X2560963Y464374D01*
X2557683Y461857D01*
X2555167Y458578D01*
X2553584Y454759D01*
X2553045Y450660D01*
Y366660D01*
X2553584Y362562D01*
X2555167Y358742D01*
X2557683Y355463D01*
X2560963Y352946D01*
X2564782Y351364D01*
X2567699Y350980D01*
Y331624D01*
X2538730D01*
X2532506Y331011D01*
X2526521Y329195D01*
X2521006Y326247D01*
X2516171Y322279D01*
X2512203Y317445D01*
X2509255Y311929D01*
X2507439Y305944D01*
X2506827Y299720D01*
Y185420D01*
X2507439Y179196D01*
X2509255Y173211D01*
X2512203Y167695D01*
X2516171Y162861D01*
X2521006Y158893D01*
X2526521Y155945D01*
X2532506Y154129D01*
X2538730Y153516D01*
X2653030D01*
X2659254Y154129D01*
X2665239Y155945D01*
X2670755Y158893D01*
X2675590Y162861D01*
X2679557Y167695D01*
X2682505Y173211D01*
X2684321Y179196D01*
X2684934Y185420D01*
Y299720D01*
X2684321Y305944D01*
X2682505Y311929D01*
X2679557Y317445D01*
X2675590Y322279D01*
X2670755Y326247D01*
X2665239Y329195D01*
X2659254Y331011D01*
X2653030Y331624D01*
X2624061D01*
Y350980D01*
X2626979Y351364D01*
X2630798Y352946D01*
X2634078Y355463D01*
X2636594Y358742D01*
X2638176Y362562D01*
X2638716Y366660D01*
Y450660D01*
X2638176Y454759D01*
X2636594Y458578D01*
X2634078Y461857D01*
X2630798Y464374D01*
X2626979Y465956D01*
X2622880Y466495D01*
D02*
G37*
%LPD*%
G36*
X1397308Y1841414D02*
X1397309Y1841413D01*
X1401289Y1838360D01*
X1405923Y1836440D01*
X1410896Y1835785D01*
X1410898Y1835786D01*
X1435972D01*
X1443734Y1818006D01*
X1435584Y1809214D01*
X1350779D01*
X1336529Y1823464D01*
X1332550Y1826518D01*
X1327916Y1828437D01*
X1322942Y1829092D01*
X1322940Y1829092D01*
X1192696D01*
X1192639Y1829326D01*
X1188863Y1838443D01*
X1183706Y1846858D01*
X1177297Y1854363D01*
X1169792Y1860772D01*
X1161377Y1865929D01*
X1152259Y1869706D01*
X1142663Y1872009D01*
X1132824Y1872784D01*
X1122985Y1872009D01*
X1113389Y1869706D01*
X1104271Y1865929D01*
X1095856Y1860772D01*
X1088351Y1854363D01*
X1081942Y1846858D01*
X1076785Y1838443D01*
X1073009Y1829326D01*
X1070705Y1819729D01*
X1069930Y1809890D01*
X1070705Y1800052D01*
X1073009Y1790455D01*
X1076785Y1781337D01*
X1076904Y1781144D01*
X954990Y1659229D01*
X951936Y1655250D01*
X950017Y1650616D01*
X949362Y1645643D01*
X949362Y1645641D01*
Y1539760D01*
X931582Y1531998D01*
X922394Y1540516D01*
Y1705364D01*
X1011130Y1794100D01*
X1011131Y1794101D01*
X1014184Y1798080D01*
X1016104Y1802715D01*
X1016759Y1807688D01*
X1016759Y1807690D01*
Y1852944D01*
X1016980Y1852998D01*
X1026098Y1856774D01*
X1034512Y1861931D01*
X1042017Y1868340D01*
X1048426Y1875845D01*
X1053583Y1884260D01*
X1057360Y1893378D01*
X1057413Y1893599D01*
X1345124D01*
X1397308Y1841414D01*
D02*
G37*
G36*
X1329233Y1776414D02*
X1329233Y1776413D01*
X1333213Y1773360D01*
X1337847Y1771440D01*
X1342820Y1770785D01*
X1342822Y1770786D01*
X1435973D01*
X1443735Y1753006D01*
X1435584Y1744214D01*
X1332975D01*
X1328002Y1743559D01*
X1323368Y1741640D01*
X1319389Y1738587D01*
X1319388Y1738586D01*
X1315389Y1734587D01*
X1179875D01*
X1174902Y1733932D01*
X1170268Y1732012D01*
X1166289Y1728959D01*
X1166288Y1728958D01*
X1147989Y1710659D01*
X1147795Y1710777D01*
X1138677Y1714554D01*
X1129081Y1716858D01*
X1119242Y1717632D01*
X1109403Y1716858D01*
X1099807Y1714554D01*
X1090689Y1710777D01*
X1082274Y1705621D01*
X1074769Y1699211D01*
X1068360Y1691707D01*
X1063203Y1683292D01*
X1059426Y1674174D01*
X1057123Y1664577D01*
X1056348Y1654739D01*
X1057123Y1644900D01*
X1059426Y1635303D01*
X1063203Y1626185D01*
X1063322Y1625992D01*
X1019593Y1582264D01*
X1016540Y1578284D01*
X1014620Y1573650D01*
X1013965Y1568677D01*
X1013966Y1568675D01*
Y1540586D01*
X996186Y1532854D01*
X987791Y1540680D01*
Y1637684D01*
X1104077Y1753970D01*
X1104271Y1753851D01*
X1113389Y1750075D01*
X1122985Y1747771D01*
X1132824Y1746997D01*
X1142663Y1747771D01*
X1152259Y1750075D01*
X1161377Y1753851D01*
X1169792Y1759008D01*
X1177297Y1765418D01*
X1183706Y1772922D01*
X1188863Y1781337D01*
X1192639Y1790455D01*
X1192690Y1790663D01*
X1314983D01*
X1329233Y1776414D01*
D02*
G37*
G36*
X1443734Y1688006D02*
X1435584Y1679214D01*
X1422550D01*
X1422548Y1679215D01*
X1417575Y1678560D01*
X1412941Y1676640D01*
X1408961Y1673587D01*
X1408960Y1673586D01*
X1369818Y1634444D01*
X1366802Y1634327D01*
X1352126Y1635891D01*
X1349219Y1642909D01*
X1344062Y1651324D01*
X1337653Y1658829D01*
X1330148Y1665238D01*
X1321733Y1670395D01*
X1312615Y1674171D01*
X1303019Y1676475D01*
X1293180Y1677250D01*
X1283341Y1676475D01*
X1273745Y1674171D01*
X1264627Y1670395D01*
X1256212Y1665238D01*
X1248707Y1658829D01*
X1242298Y1651324D01*
X1237141Y1642909D01*
X1233365Y1633791D01*
X1231061Y1624195D01*
X1230286Y1614356D01*
X1231061Y1604517D01*
X1233365Y1594921D01*
X1237141Y1585803D01*
X1242298Y1577388D01*
X1248707Y1569883D01*
X1256212Y1563474D01*
X1264627Y1558317D01*
X1273745Y1554540D01*
X1273913Y1554500D01*
Y1530415D01*
X1273529Y1530210D01*
X1272561Y1529415D01*
X1266542Y1525811D01*
X1254818D01*
X1248799Y1529415D01*
X1247831Y1530210D01*
X1241716Y1533478D01*
X1235080Y1535491D01*
X1228180Y1536170D01*
X1221279Y1535491D01*
X1214644Y1533478D01*
X1208529Y1530210D01*
X1207560Y1529415D01*
X1201541Y1525811D01*
X1189819D01*
X1183800Y1529415D01*
X1182831Y1530210D01*
X1176716Y1533478D01*
X1170080Y1535491D01*
X1163180Y1536170D01*
X1156280Y1535491D01*
X1149644Y1533478D01*
X1143529Y1530210D01*
X1142561Y1529415D01*
X1136542Y1525811D01*
X1124818D01*
X1118799Y1529415D01*
X1117831Y1530210D01*
X1111716Y1533478D01*
X1105080Y1535491D01*
X1098180Y1536170D01*
X1091280Y1535491D01*
X1084644Y1533478D01*
X1078529Y1530210D01*
X1077560Y1529415D01*
X1071541Y1525811D01*
X1068256D01*
X1052394Y1540516D01*
Y1560718D01*
X1090495Y1598818D01*
X1090689Y1598700D01*
X1099807Y1594923D01*
X1109403Y1592619D01*
X1119242Y1591845D01*
X1129081Y1592619D01*
X1138677Y1594923D01*
X1147795Y1598700D01*
X1156210Y1603857D01*
X1163714Y1610266D01*
X1170124Y1617771D01*
X1175281Y1626185D01*
X1179057Y1635303D01*
X1181361Y1644900D01*
X1182136Y1654739D01*
X1181361Y1664577D01*
X1179057Y1674174D01*
X1175281Y1683292D01*
X1175162Y1683486D01*
X1187834Y1696158D01*
X1323346D01*
X1323348Y1696158D01*
X1328321Y1696813D01*
X1332955Y1698732D01*
X1336935Y1701786D01*
X1340935Y1705786D01*
X1435972D01*
X1443734Y1688006D01*
D02*
G37*
G36*
X2129370Y732743D02*
X2129370Y560721D01*
X2099823D01*
X2019881Y533800D01*
X1977381D01*
Y720167D01*
X2015325D01*
X2119556Y740804D01*
X2129370Y732743D01*
D02*
G37*
G36*
X3815692Y2641139D02*
Y2602062D01*
X3815306Y2601724D01*
X3706406D01*
X3702947Y2601268D01*
X3699724Y2599933D01*
X3696956Y2597809D01*
X3694832Y2595042D01*
X3693497Y2591819D01*
X3693042Y2588360D01*
Y2359459D01*
X3693497Y2356000D01*
X3694832Y2352777D01*
X3696956Y2350010D01*
X3699724Y2347886D01*
X3702947Y2346551D01*
X3706406Y2346095D01*
X3815306D01*
X3815692Y2345757D01*
Y2309362D01*
X3815692Y2309360D01*
X3816346Y2304387D01*
X3818266Y2299752D01*
X3821320Y2295773D01*
X3917466Y2199627D01*
X3917467Y2199626D01*
X3921447Y2196572D01*
X3926081Y2194653D01*
X3931054Y2193998D01*
X3931056Y2193998D01*
X4832882D01*
X4891447Y2135434D01*
X4891447Y2135433D01*
X4895427Y2132380D01*
X4900061Y2130460D01*
X4903283Y2130036D01*
X4903202Y2129419D01*
Y2094184D01*
X3922123D01*
X3673711Y2342595D01*
Y2361342D01*
X3673712Y2361344D01*
X3673057Y2366317D01*
X3671137Y2370951D01*
X3668084Y2374931D01*
X3668083Y2374931D01*
X3608859Y2434156D01*
X3604879Y2437209D01*
X3600245Y2439129D01*
X3595272Y2439784D01*
X3595270Y2439784D01*
X3391057D01*
X3391055Y2439784D01*
X3386083Y2439129D01*
X3381448Y2437209D01*
X3377469Y2434156D01*
X3377468Y2434155D01*
X3272969Y2329656D01*
X3269916Y2325677D01*
X3267996Y2321042D01*
X3267341Y2316070D01*
X3267341Y2316068D01*
Y2249302D01*
X3112184Y2094145D01*
X2515515D01*
X2515513Y2094145D01*
X2510540Y2093490D01*
X2505906Y2091571D01*
X2501926Y2088517D01*
X2501925Y2088516D01*
X2460496Y2047088D01*
X2460303Y2047206D01*
X2451185Y2050983D01*
X2441588Y2053287D01*
X2431750Y2054061D01*
X2421911Y2053287D01*
X2412314Y2050983D01*
X2403197Y2047206D01*
X2394782Y2042050D01*
X2387277Y2035640D01*
X2380868Y2028135D01*
X2375711Y2019721D01*
X2371934Y2010603D01*
X2369631Y2001006D01*
X2368856Y1991167D01*
X2369631Y1981329D01*
X2371934Y1971732D01*
X2375711Y1962614D01*
X2375830Y1962421D01*
X2327091Y1913682D01*
X2324037Y1909702D01*
X2322118Y1905068D01*
X2321463Y1900095D01*
X2321463Y1900093D01*
Y1855423D01*
X2275254Y1809214D01*
X2199628D01*
X2191866Y1826994D01*
X2200016Y1835786D01*
X2213844D01*
X2213846Y1835785D01*
X2218820Y1836440D01*
X2223454Y1838360D01*
X2227433Y1841413D01*
X2315238Y1929218D01*
X2315239Y1929219D01*
X2318292Y1933198D01*
X2320212Y1937833D01*
X2320867Y1942805D01*
X2320866Y1942807D01*
Y2031915D01*
X2321087Y2031969D01*
X2330205Y2035745D01*
X2338620Y2040902D01*
X2346125Y2047311D01*
X2352534Y2054816D01*
X2357691Y2063231D01*
X2361467Y2072349D01*
X2361521Y2072570D01*
X2450629D01*
X2450631Y2072569D01*
X2455603Y2073224D01*
X2460238Y2075144D01*
X2464217Y2078197D01*
X2502945Y2116926D01*
X3072604D01*
X3072606Y2116925D01*
X3077579Y2117580D01*
X3082213Y2119500D01*
X3086192Y2122553D01*
X3206042Y2242403D01*
X3206043Y2242403D01*
X3209096Y2246383D01*
X3211015Y2251017D01*
X3211670Y2255990D01*
X3211670Y2255992D01*
Y2295497D01*
X3573618Y2657445D01*
X3799386D01*
X3815692Y2641139D01*
D02*
G37*
G36*
X3361102Y2131959D02*
Y2048073D01*
X3325752D01*
X3325750Y2048074D01*
X3320777Y2047419D01*
X3316143Y2045499D01*
X3312163Y2042446D01*
X3312163Y2042445D01*
X3213062Y1943344D01*
X2607164D01*
X2607162Y1943345D01*
X2602189Y1942690D01*
X2597555Y1940770D01*
X2593575Y1937717D01*
X2593574Y1937716D01*
X2462283Y1806425D01*
X2459230Y1802445D01*
X2457310Y1797811D01*
X2456655Y1792838D01*
X2456655Y1792836D01*
Y1660601D01*
X2450439Y1654385D01*
X2447386Y1650405D01*
X2445466Y1645771D01*
X2444811Y1640798D01*
X2444812Y1640796D01*
Y1610939D01*
X2444591Y1610886D01*
X2435473Y1607109D01*
X2427058Y1601952D01*
X2419553Y1595543D01*
X2413144Y1588038D01*
X2407987Y1579623D01*
X2404211Y1570506D01*
X2404157Y1570285D01*
X2378912D01*
X2333810Y1615387D01*
X2329831Y1618440D01*
X2325197Y1620360D01*
X2320224Y1621015D01*
X2320222Y1621015D01*
X2278745D01*
X2226173Y1673587D01*
X2222194Y1676640D01*
X2217559Y1678560D01*
X2212586Y1679215D01*
X2212584Y1679214D01*
X2199628D01*
X2191866Y1696994D01*
X2200016Y1705786D01*
X2219847D01*
X2243319Y1682314D01*
X2243320Y1682313D01*
X2247299Y1679260D01*
X2251933Y1677341D01*
X2256906Y1676685D01*
X2256908Y1676686D01*
X2315806D01*
X2315859Y1676465D01*
X2319635Y1667347D01*
X2324792Y1658932D01*
X2331202Y1651427D01*
X2338706Y1645018D01*
X2347121Y1639861D01*
X2356239Y1636085D01*
X2365836Y1633781D01*
X2375674Y1633006D01*
X2385513Y1633781D01*
X2395110Y1636085D01*
X2404227Y1639861D01*
X2412642Y1645018D01*
X2420147Y1651427D01*
X2426556Y1658932D01*
X2431713Y1667347D01*
X2435490Y1676465D01*
X2437793Y1686061D01*
X2438568Y1695900D01*
X2437793Y1705739D01*
X2435490Y1715335D01*
X2431713Y1724453D01*
X2426556Y1732868D01*
X2420147Y1740373D01*
X2412642Y1746782D01*
X2404227Y1751939D01*
X2395110Y1755716D01*
X2394889Y1755769D01*
Y1779392D01*
X2594517Y1979020D01*
X3160400D01*
X3160402Y1979020D01*
X3165375Y1979675D01*
X3170009Y1981594D01*
X3173989Y1984648D01*
X3321686Y2132345D01*
X3360763D01*
X3361102Y2131959D01*
D02*
G37*
D10*
X2464026Y1551070D02*
D03*
X2431750Y1991167D02*
D03*
X2301652Y2091784D02*
D03*
X2375674Y1695900D02*
D03*
X1293180Y1614356D02*
D03*
X1132824Y1809890D02*
D03*
X997544Y1912813D02*
D03*
X1119242Y1654739D02*
D03*
X1813479Y952556D02*
D03*
X1914187Y109220D02*
D03*
X1540004Y683268D02*
D03*
D11*
X2781020Y351068D02*
D03*
Y221068D02*
D03*
X5246709Y1490769D02*
D03*
Y1360769D02*
D03*
X809080Y1741405D02*
D03*
Y1871405D02*
D03*
X1548835Y964960D02*
D03*
Y834960D02*
D03*
X1412580D02*
D03*
Y964960D02*
D03*
X3286760Y1688020D02*
D03*
Y1558020D02*
D03*
X5246709Y1219130D02*
D03*
Y1089130D02*
D03*
X504190Y1099185D02*
D03*
Y969185D02*
D03*
D12*
X2690880Y638660D02*
D03*
X2500880D02*
D03*
X2595880Y408660D02*
D03*
X2319370Y605721D02*
D03*
X2129370D02*
D03*
X2224370Y375721D02*
D03*
D13*
X708180Y868300D02*
D03*
X773180D02*
D03*
X838180D02*
D03*
X903180D02*
D03*
X968180D02*
D03*
X1033180D02*
D03*
X1098180D02*
D03*
X1163180D02*
D03*
X1228180D02*
D03*
X1293180D02*
D03*
X708180Y1453300D02*
D03*
X773180D02*
D03*
X838180D02*
D03*
X903180D02*
D03*
X968180D02*
D03*
X1033180D02*
D03*
X1098180D02*
D03*
X1163180D02*
D03*
X1228180D02*
D03*
X1293180D02*
D03*
D14*
X2285260Y1471295D02*
D03*
X2150261D02*
D03*
X2040425Y218440D02*
D03*
X2175425D02*
D03*
X5381631Y2299264D02*
D03*
X5246632D02*
D03*
X1263020Y683268D02*
D03*
X1128020D02*
D03*
X3092262Y2329784D02*
D03*
X2957262D02*
D03*
D15*
X1502480Y1343280D02*
D03*
Y1478280D02*
D03*
X1977381Y675167D02*
D03*
Y810166D02*
D03*
Y401300D02*
D03*
Y536300D02*
D03*
Y952556D02*
D03*
X1977381Y1087556D02*
D03*
D16*
X1522800Y1855000D02*
D03*
Y1790000D02*
D03*
Y1725000D02*
D03*
Y1660000D02*
D03*
Y1985000D02*
D03*
Y1920000D02*
D03*
Y1595000D02*
D03*
X2112800Y1985000D02*
D03*
Y1920000D02*
D03*
Y1855000D02*
D03*
Y1790000D02*
D03*
Y1725000D02*
D03*
Y1660000D02*
D03*
Y1595000D02*
D03*
D17*
X5031016Y878629D02*
D03*
Y2074969D02*
D03*
X3488916Y2278169D02*
D03*
X5031016Y1076749D02*
D03*
Y1277409D02*
D03*
Y1475529D02*
D03*
Y1678729D02*
D03*
Y1876849D02*
D03*
Y2275629D02*
D03*
X3488916Y2077509D02*
D03*
Y1879389D02*
D03*
X3491456Y1678729D02*
D03*
Y1478069D02*
D03*
Y1279949D02*
D03*
Y1076749D02*
D03*
Y878629D02*
D03*
D18*
X4761616Y2473909D02*
D03*
X4563496D02*
D03*
X4365376D02*
D03*
X4162176D02*
D03*
X3964056D02*
D03*
X3760856D02*
D03*
D19*
X502995Y1591482D02*
D03*
X428035Y1482921D02*
D03*
X809080Y1620731D02*
D03*
D20*
X906462Y2020710D02*
D03*
D21*
X1834268Y2391564D02*
D03*
X2200855D02*
D03*
D22*
X580000Y2625000D02*
D03*
X1420000D02*
D03*
X580000Y2175000D02*
D03*
X1420000D02*
D03*
D23*
X3020060Y1558290D02*
D03*
X3150060D02*
D03*
X3150039Y1691640D02*
D03*
X3020039D02*
D03*
X3156760Y1824990D02*
D03*
X3286760D02*
D03*
X354328Y1627632D02*
D03*
X224328D02*
D03*
X224327Y1757277D02*
D03*
X354327D02*
D03*
X348853Y1122680D02*
D03*
X218853D02*
D03*
X1417565Y1093861D02*
D03*
X1547565D02*
D03*
X1790178Y2146738D02*
D03*
X1660178D02*
D03*
X2082969Y2391564D02*
D03*
X1952969D02*
D03*
D24*
X2129370Y749231D02*
D03*
X2224370Y749231D02*
D03*
X2319370Y749231D02*
D03*
Y1019231D02*
D03*
X2129370D02*
D03*
D25*
X326868Y1396364D02*
D03*
X276868D02*
D03*
X226868D02*
D03*
Y1251364D02*
D03*
X276868D02*
D03*
X326868D02*
D03*
D26*
X2464026Y1551070D02*
Y1640798D01*
X2475870Y1652642D02*
Y1792838D01*
X2464026Y1640798D02*
X2475870Y1652642D01*
Y1792838D02*
X2607162Y1924130D01*
X3221021D01*
X2375674Y1695900D02*
Y1787351D01*
X2586558Y1998234D01*
X2256906Y1695900D02*
X2375674D01*
X2270786Y1601800D02*
X2320224D01*
X2212586Y1660000D02*
X2270786Y1601800D01*
X2320224D02*
X2370954Y1551070D01*
X2464026D01*
X2515513Y2074931D02*
X3120143D01*
X2431750Y1991167D02*
X2515513Y2074931D01*
X2340677Y1847464D02*
Y1900095D01*
X2431750Y1991167D01*
X2213846Y1855000D02*
X2301652Y1942805D01*
X2450631Y2091784D02*
X2494987Y2136140D01*
X2301652Y2091784D02*
X2450631D01*
X2301652Y1942805D02*
Y2091784D01*
X1376904Y1614356D02*
X1422548Y1660000D01*
X1522800D01*
X1293180Y1614356D02*
X1376904D01*
X1293127Y1614303D02*
X1293180Y1614356D01*
X1293127Y1453353D02*
Y1614303D01*
X1323348Y1715372D02*
X1332975Y1725000D01*
X1033180Y1568677D02*
X1179875Y1715372D01*
X1323348D01*
X1332975Y1725000D02*
X1522800D01*
X1293127Y1453353D02*
X1293180Y1453300D01*
X903180D02*
Y1713323D01*
X997544Y1807688D01*
Y1912813D01*
X1353083D01*
X1322942Y1809878D02*
X1342820Y1790000D01*
X1132837Y1809878D02*
X1322942D01*
X968576Y1453697D02*
Y1645643D01*
X1132824Y1809890D01*
X1353083Y1912813D02*
X1410896Y1855000D01*
X1342820Y1790000D02*
X1522800D01*
X1132824Y1809890D02*
X1132837Y1809878D01*
X968180Y1453300D02*
X968576Y1453697D01*
X2494987Y2136140D02*
X3072606D01*
X3192456Y2255990D01*
Y2303456D01*
X3286760Y1824990D02*
X3293190Y1831420D01*
X3440947D01*
X3113910Y1404019D02*
X3647659D01*
X3698240Y1454600D01*
Y1577774D01*
X3113910Y1254630D02*
Y1404019D01*
X3108960Y1249680D02*
X3113910Y1254630D01*
Y1404019D02*
Y1522140D01*
X3322910Y1521870D02*
X3447656D01*
Y1521869D02*
X3491456Y1478069D01*
X3447656Y1521869D02*
Y1521870D01*
X3286760Y1558020D02*
X3322910Y1521870D01*
X3440947Y1831420D02*
X3488916Y1879389D01*
X3150039Y1691640D02*
X3153660Y1688020D01*
X3286760D01*
X3645934Y1630079D02*
X3698240Y1577774D01*
X3540106Y1630079D02*
X3645934D01*
X2643217Y2272517D02*
X2870700Y2500000D01*
X1802546Y2272517D02*
X2643217D01*
X478277Y60532D02*
X1406785D01*
X1455474Y109220D02*
X1914187D01*
X1406785Y60532D02*
X1455474Y109220D01*
X1430396Y191674D02*
X1484218D01*
X967883Y123583D02*
X1362305D01*
X1430396Y191674D01*
X1484218D02*
X1540004Y247460D01*
X2341880Y109220D02*
Y242570D01*
X1914187Y109220D02*
X2341880D01*
X2708141D01*
X2744870Y145949D02*
Y184918D01*
X2708141Y109220D02*
X2744870Y145949D01*
X2714530Y543187D02*
Y615010D01*
X2744871Y387217D02*
Y512846D01*
X2714530Y543187D02*
X2744871Y512846D01*
Y387217D02*
X2781020Y351068D01*
X2744870Y184918D02*
X2781020Y221068D01*
X2690880Y638660D02*
X2714530Y615010D01*
X1417565Y1093861D02*
Y1200426D01*
X1337910D02*
X1417565D01*
X1619246D01*
X1228180Y1310156D02*
X1337910Y1200426D01*
X331075Y207733D02*
Y614107D01*
Y207733D02*
X478277Y60532D01*
X218853Y1122680D02*
X220718Y1124545D01*
Y1245214D01*
X226868Y1251364D01*
X283018Y1402514D02*
Y1475364D01*
X302408Y1494753D01*
X416203D02*
X428035Y1482921D01*
X302408Y1494753D02*
X416203D01*
X1219267Y2333516D02*
X1741548D01*
X906462Y2020710D02*
X1219267Y2333516D01*
X845230Y1959479D02*
X906462Y2020710D01*
X845230Y1907555D02*
Y1959479D01*
X809080Y1871405D02*
X845230Y1907555D01*
X255003Y1062001D02*
Y1086530D01*
X425112Y708144D02*
Y891892D01*
X255003Y1062001D02*
X425112Y891892D01*
X218853Y1122680D02*
X255003Y1086530D01*
X326868Y1144665D02*
Y1251364D01*
Y1144665D02*
X348853Y1122680D01*
X220718Y1624022D02*
X224328Y1627632D01*
X220718Y1402514D02*
Y1624022D01*
Y1402514D02*
X226868Y1396364D01*
X504190Y1099185D02*
X540340Y1063035D01*
X468040Y1135335D02*
X504190Y1099185D01*
X276868Y1251364D02*
X326868D01*
X428035Y1196553D02*
X468040Y1156548D01*
X428035Y1196553D02*
Y1482921D01*
X502995Y1254671D02*
Y1591482D01*
X390478D02*
X502995D01*
Y1254671D02*
X740077Y1017589D01*
X519980Y1727963D02*
X578108Y1669835D01*
X423824Y2080459D02*
X519980Y1984303D01*
Y1727963D02*
Y1984303D01*
X578108Y1272558D02*
X738977Y1111688D01*
X578108Y1272558D02*
Y1669835D01*
X614080Y1717310D02*
X634615Y1696776D01*
X614080Y1717310D02*
Y1983922D01*
X1100001Y2469843D01*
X634615Y1313453D02*
X742280Y1205788D01*
X634615Y1313453D02*
Y1696776D01*
X903180Y188286D02*
Y868300D01*
Y188286D02*
X967883Y123583D01*
X708180Y868300D02*
Y966149D01*
X540340Y1063035D02*
X611294D01*
X708180Y966149D01*
X968180Y868300D02*
Y916710D01*
X922553Y962337D02*
Y984644D01*
Y962337D02*
X968180Y916710D01*
X708180Y1994428D02*
X1105316Y2391564D01*
X708180Y1453300D02*
Y1994428D01*
X744505Y646773D02*
X795305D01*
X838180Y689648D02*
Y868300D01*
X795305Y646773D02*
X838180Y689648D01*
X650830Y553097D02*
X744505Y646773D01*
X650830Y374634D02*
Y553097D01*
X726026Y710571D02*
X773180Y757725D01*
X546852Y710571D02*
X726026D01*
X838180Y1341766D02*
X1076700Y1103246D01*
X1163180Y1068970D02*
Y1453300D01*
X1044698Y1024942D02*
X1119152D01*
X1163180Y1068970D01*
X1032004Y501460D02*
Y624056D01*
X995003Y661058D02*
X1032004Y624056D01*
X995003Y661058D02*
Y700035D01*
X995192Y700224D01*
Y730665D01*
X995003Y730855D02*
X995192Y730665D01*
X1228180Y1310156D02*
Y1453300D01*
X809080Y1539365D02*
Y1737595D01*
X773180Y1503465D02*
X809080Y1539365D01*
X354328Y1627632D02*
X390478Y1591482D01*
X331075Y614107D02*
X425112Y708144D01*
X468040Y1135335D02*
Y1156548D01*
X889609Y1017589D02*
X922553Y984644D01*
X878094Y1111688D02*
X1033180Y956602D01*
Y868300D02*
Y956602D01*
X738977Y1111688D02*
X878094D01*
X3160402Y1998234D02*
X3313727Y2151559D01*
X2586558Y1998234D02*
X3160402D01*
X3313727Y2151559D02*
X3664105D01*
X3221021Y1924130D02*
X3325750Y2028859D01*
X3440266D01*
X1741548Y2333516D02*
X1802546Y2272517D01*
X2227807Y1725000D02*
X2256906Y1695900D01*
X2112800Y1725000D02*
X2227807D01*
X2381035Y795381D02*
X2399200Y813546D01*
Y1100925D01*
X2343020Y795381D02*
X2381035D01*
X1890750Y1200426D02*
X2299699D01*
X2399200Y1100925D01*
X5194203Y1925500D02*
X5233766Y1965063D01*
X5079666Y1925500D02*
X5194203D01*
X5233766Y1965063D02*
Y2121460D01*
X5031016Y1876849D02*
X5079666Y1925500D01*
X3113910Y1522140D02*
X3150060Y1558290D01*
X2283213Y1790000D02*
X2340677Y1847464D01*
X5206207Y2149020D02*
X5233766Y2121460D01*
X1105316Y2391564D02*
X1834268D01*
X1952969D01*
X2213297D02*
X2254360Y2350501D01*
X2467201D02*
X2616700Y2500000D01*
X2254360Y2350501D02*
X2467201D01*
X2112800Y1660000D02*
X2212586D01*
X2112800Y1855000D02*
X2213846D01*
X2082969Y2391564D02*
X2213297D01*
X2112800Y1790000D02*
X2283213D01*
X3491456Y1678729D02*
X3540106Y1630079D01*
X397711Y561430D02*
X546852Y710571D01*
X524004Y247460D02*
X524004D01*
X397711Y373753D02*
X524004Y247460D01*
X397711Y373753D02*
Y561430D01*
X650830Y374634D02*
X778004Y247460D01*
X3120143Y2074931D02*
X3286556Y2241343D01*
X2656530Y940110D02*
X2715621D01*
X2883169Y772562D01*
X3654044D01*
X2319370Y771731D02*
X2343020Y795381D01*
X2319370Y749231D02*
Y771731D01*
X3664105Y2151559D02*
X4136935Y1678729D01*
X5031016D01*
X3565660Y2676659D02*
X3807345D01*
X3834906Y2309360D02*
Y2649098D01*
X3807345Y2676659D02*
X3834906Y2649098D01*
X3931054Y2213212D02*
X4840841D01*
X3834906Y2309360D02*
X3931054Y2213212D01*
X3192456Y2303456D02*
X3565660Y2676659D01*
X740077Y1017589D02*
X889609D01*
X863852Y1205788D02*
X1044698Y1024942D01*
X742280Y1205788D02*
X863852D01*
X838180Y1341766D02*
Y1453300D01*
X1660077Y2469843D02*
X1660178Y2469944D01*
X1100001Y2469843D02*
X1660077D01*
X1660178Y2146738D02*
Y2241372D01*
X1522800Y1985000D02*
X1628102D01*
X1660178Y2017076D01*
Y2146738D01*
X4905034Y2149020D02*
X5206207D01*
X423824Y2080459D02*
Y2273761D01*
X481350Y2331287D01*
Y2581350D01*
X3286556Y2241343D02*
Y2316070D01*
X3391055Y2420569D01*
X3595272D01*
X3654497Y2361344D01*
X2854960Y995680D02*
X2983978Y866662D01*
X3479489D02*
X3491456Y878629D01*
X2983978Y866662D02*
X3479489D01*
X5246709Y1490769D02*
X5375980D01*
X1287909Y374459D02*
X1287910Y374460D01*
X4840841Y2213212D02*
X4905034Y2149020D01*
X773180Y1453300D02*
Y1503465D01*
X4158891Y1277409D02*
X5031016D01*
X3654044Y772562D02*
X4158891Y1277409D01*
X3654497Y2334636D02*
Y2361344D01*
X3914164Y2074969D02*
X5031016D01*
X3654497Y2334636D02*
X3914164Y2074969D01*
X2600960Y995680D02*
X2656530Y940110D01*
X5079666Y927280D02*
X5163186D01*
X5210559Y974653D02*
Y1052980D01*
X5163186Y927280D02*
X5210559Y974653D01*
Y1052980D02*
X5246709Y1089130D01*
X580000Y2625000D02*
X1420000D01*
X525000D02*
X580000D01*
X5031016Y878629D02*
X5079666Y927280D01*
X5211609Y1325669D02*
X5246709Y1360769D01*
X5079276Y1325669D02*
X5211609D01*
X5031016Y1277409D02*
X5079276Y1325669D01*
X1033180Y1453300D02*
Y1568677D01*
X481350Y2581350D02*
X525000Y2625000D01*
X3108960Y995680D02*
X3262550D01*
X3294970Y1028099D02*
X3442806D01*
X3262550Y995680D02*
X3294970Y1028099D01*
X3442806D02*
X3491456Y1076749D01*
X354328Y1627632D02*
X354329Y1627634D01*
X354327Y1757277D02*
X354329Y1757275D01*
Y1627634D02*
Y1757275D01*
X276868Y1396364D02*
X283018Y1402514D01*
X1410896Y1855000D02*
X1522800D01*
X3440266Y2028859D02*
X3488916Y2077509D01*
X773180Y757725D02*
Y868300D01*
D27*
X2460164Y1249680D02*
X2460164D01*
X2129572Y1321733D02*
X2388111D01*
X2460164Y1249680D01*
X2460164Y1249680D02*
X2600960D01*
X1813479Y952556D02*
X1977380D01*
X1977381Y952556D01*
X1813479D02*
X1813479Y952556D01*
X1813479Y952556D02*
X1813480Y952558D01*
Y1291377D02*
X1843837Y1321733D01*
X1813480Y952558D02*
Y1291377D01*
X1977380Y952556D02*
X2006826Y982002D01*
X2129572Y1450606D02*
X2150261Y1471295D01*
X2129572Y1321733D02*
Y1450606D01*
X1843837Y1321733D02*
X2129572D01*
Y1491984D02*
X2150261Y1471295D01*
X2112800Y1595000D02*
X2120517D01*
X2129572Y1585946D01*
Y1491984D02*
Y1585946D01*
X2175425Y218440D02*
X2207615Y250630D01*
Y360921D01*
X2205225Y248240D02*
X2336210D01*
X2006826Y982002D02*
X2112070D01*
X2129370Y999302D01*
Y1019231D01*
X2460164Y1249680D02*
X2460164Y1249680D01*
X2207615Y360921D02*
X2222415Y375721D01*
X2336210Y248240D02*
X2341880Y242570D01*
D28*
X1701280Y1111911D02*
X1709220Y1119851D01*
X1701280Y802620D02*
Y1111911D01*
X1709220Y1119851D02*
Y1443440D01*
Y1763081D01*
X1581175Y802620D02*
X1701279D01*
Y501460D02*
Y802620D01*
Y501460D02*
X1945041D01*
X1540004D02*
X1701279D01*
X1813479Y583650D02*
X1813479Y583650D01*
Y952555D01*
X1709220Y1763081D02*
X2142378Y2196239D01*
X2994239D01*
X3057422Y2259421D02*
Y2297443D01*
X2994239Y2196239D02*
X3057422Y2259421D01*
X2877404Y1526124D02*
X2987894D01*
X2600960Y1249680D02*
X2877404Y1526124D01*
X2987894D02*
X3020060Y1558290D01*
X1548835Y834960D02*
X1581175Y802620D01*
X1540004Y501460D02*
Y683268D01*
X1522800Y1498600D02*
Y1595000D01*
X1502480Y1478280D02*
X1522800Y1498600D01*
X1502480Y1475780D02*
Y1478280D01*
X3052379Y1723980D02*
Y1765719D01*
X3079310Y1792650D02*
X3124420D01*
X3052379Y1765719D02*
X3079310Y1792650D01*
X3020039Y1691640D02*
X3052379Y1723980D01*
X3020039Y1558269D02*
Y1691640D01*
X3124420Y1792650D02*
X3156760Y1824990D01*
X1287910Y374460D02*
X1760454D01*
X1805539Y419545D01*
X1263020Y683268D02*
X1540004D01*
X1260520D02*
X1263020D01*
X1228180Y715608D02*
X1260520Y683268D01*
X1287909Y247460D02*
Y374459D01*
X1945041Y501460D02*
X1977381Y533800D01*
X2460164Y913528D02*
Y1249680D01*
Y913528D02*
X2531909Y841783D01*
X5031016Y2275629D02*
X5050934Y2295547D01*
X5242914D01*
X3089762Y2329784D02*
X3092262D01*
X3124653Y2499953D02*
X3124700Y2500000D01*
X3094762Y2329784D02*
X3124653Y2359675D01*
Y2499953D01*
X2673034Y841783D02*
X2818177Y696640D01*
X4308927D01*
X2531909Y841783D02*
X2673034D01*
X1534820Y1443440D02*
X1709220D01*
X4308927Y696640D02*
X4811836Y1199549D01*
X1228180Y715608D02*
Y868300D01*
X3057422Y2297443D02*
X3089762Y2329784D01*
X5281472Y2201182D02*
X5375980Y2106673D01*
Y1490769D02*
Y2106673D01*
X5347547Y1251470D02*
X5375980Y1279903D01*
Y1490769D01*
X1287909Y374460D02*
Y501459D01*
X1502480Y1475780D02*
X1534820Y1443440D01*
X5281472Y2201182D02*
Y2266924D01*
X5249132Y2299264D02*
X5281472Y2266924D01*
X4811836Y1199549D02*
X5227128D01*
X5246709Y1219130D02*
X5279049Y1251470D01*
X5227128Y1199549D02*
X5246709Y1219130D01*
X5279049Y1251470D02*
X5347547D01*
D29*
X2595880Y242570D02*
Y408660D01*
D30*
X1305545Y855935D02*
X1391605D01*
X1412580Y834960D01*
Y964960D02*
X1422135Y955405D01*
X1539280D02*
X1548835Y964960D01*
X1422135Y955405D02*
X1539280D01*
X1293180Y868300D02*
X1305545Y855935D01*
D31*
X1905099Y2603500D02*
D03*
X1651099D02*
D03*
X190500Y1968500D02*
D03*
X2139895Y2603500D02*
D03*
X190500Y2222500D02*
D03*
D32*
X1540004Y247460D02*
D03*
X2600960Y995680D02*
D03*
D33*
X1286004Y247460D02*
D03*
X1032004D02*
D03*
X778004D02*
D03*
X524004D02*
D03*
Y501460D02*
D03*
X778004D02*
D03*
X1032004D02*
D03*
X1286004D02*
D03*
X1540004D02*
D03*
X2854960Y995680D02*
D03*
X3108960Y995680D02*
D03*
Y1249680D02*
D03*
X2854960Y1249680D02*
D03*
X2600960Y1249680D02*
D03*
D34*
X2700000Y1700000D02*
D03*
X200000Y800000D02*
D03*
Y2600000D02*
D03*
X5400000D02*
D03*
Y800000D02*
D03*
D35*
X2341880Y242570D02*
D03*
X3124700Y2500000D02*
D03*
X2870700D02*
D03*
X2616700D02*
D03*
D36*
X2595880Y242570D02*
D03*
X2362700Y2500000D02*
D03*
D37*
X1303859Y1762422D02*
D03*
X950230Y1693835D02*
D03*
X1362307Y1837050D02*
D03*
X3053117Y2183190D02*
D03*
X1458572Y45780D02*
D03*
X2437980Y638660D02*
D03*
Y559020D02*
D03*
X2562860D02*
D03*
Y638660D02*
D03*
X2437980Y717144D02*
D03*
X2562860D02*
D03*
X2500880Y559020D02*
D03*
Y717144D02*
D03*
X1813479Y419545D02*
D03*
X344063Y1039480D02*
D03*
X567030Y1747452D02*
D03*
X661130Y1736799D02*
D03*
X791130Y709136D02*
D03*
X761511Y1562913D02*
D03*
X378125Y326800D02*
D03*
X471761Y702019D02*
D03*
X2437687Y2145379D02*
D03*
X2290275Y1648850D02*
D03*
X2276395Y1742950D02*
D03*
X3189533Y913712D02*
D03*
X3646621Y1218880D02*
D03*
X3218260Y1486521D02*
D03*
X3369960Y1577285D02*
D03*
X1483605Y754300D02*
D03*
X2409304Y1157359D02*
D03*
X2285260Y1388745D02*
D03*
X2372648Y1471295D02*
D03*
X2285029Y1554567D02*
D03*
X1898690Y1200426D02*
D03*
X785695Y1954605D02*
D03*
X267768Y1526652D02*
D03*
X1813479Y583650D02*
D03*
X1373504Y1677927D02*
D03*
X2838985Y883285D02*
D03*
X2839244Y747500D02*
D03*
X2060203Y810801D02*
D03*
X1894560Y1087556D02*
D03*
X2060440D02*
D03*
X1895193Y810166D02*
D03*
X1866880Y1139534D02*
D03*
X2040425Y301438D02*
D03*
X1955124Y218440D02*
D03*
X1977381Y315854D02*
D03*
X3695521Y747500D02*
D03*
X2696548Y892643D02*
D03*
X2511024Y1098711D02*
D03*
X2651966Y790923D02*
D03*
X1874619Y552320D02*
D03*
X1874759Y450600D02*
D03*
X1752139D02*
D03*
Y552320D02*
D03*
X504190Y886283D02*
D03*
X1042053Y680546D02*
D03*
X1502480Y1258159D02*
D03*
X3333216Y2104509D02*
D03*
X3787856Y2629609D02*
D03*
X3881956Y2328848D02*
D03*
X3239506Y2283967D02*
D03*
X380965Y1207662D02*
D03*
X860569Y1252838D02*
D03*
X844364Y1158738D02*
D03*
X858605Y1064638D02*
D03*
X903880Y1342604D02*
D03*
X995003Y730855D02*
D03*
X2957262Y2247099D02*
D03*
X1660178Y2469944D02*
D03*
Y2254707D02*
D03*
X3423158Y2467619D02*
D03*
X1128020Y599790D02*
D03*
X1130730Y766567D02*
D03*
X334470Y45780D02*
D03*
X483340Y1207785D02*
D03*
X5325120Y1549209D02*
D03*
X5150758Y981390D02*
D03*
X4879207Y1148689D02*
D03*
X4862680Y2595880D02*
D03*
X4857316Y2472497D02*
D03*
X3644616Y2104509D02*
D03*
X3647156Y832213D02*
D03*
X3028386Y913712D02*
D03*
X3336010Y819612D02*
D03*
X5325120Y1432330D02*
D03*
Y1302330D02*
D03*
X5163509Y1372719D02*
D03*
X4770719Y1230359D02*
D03*
X5186716Y2101970D02*
D03*
X5186708Y2220359D02*
D03*
X4865496Y2122019D02*
D03*
X1630897Y1937950D02*
D03*
X1419146Y1566000D02*
D03*
X1094960Y1563918D02*
D03*
X1015626Y1617662D02*
D03*
X1412101Y1920333D02*
D03*
X5089128Y645780D02*
D03*
X4395820D02*
D03*
X3702512D02*
D03*
X3009204D02*
D03*
X3635571Y2198609D02*
D03*
X3737462Y2318209D02*
D03*
X3665156Y2417224D02*
D03*
X2957262Y2412468D02*
D03*
X2003205Y1985139D02*
D03*
X2264340Y1837666D02*
D03*
X1866880Y1261318D02*
D03*
X1658360Y1139206D02*
D03*
Y1261645D02*
D03*
X1760080Y1153376D02*
D03*
Y1247476D02*
D03*
X856130Y1561397D02*
D03*
X870120Y970539D02*
D03*
X655738Y757621D02*
D03*
X3339580Y2200246D02*
D03*
X2871835Y2329784D02*
D03*
X1076700Y1103246D02*
D03*
X5381631Y2216294D02*
D03*
X5554208Y1164215D02*
D03*
Y2287812D02*
D03*
X497486Y108675D02*
D03*
X3807931Y2753995D02*
D03*
X3643922Y2278169D02*
D03*
X141605Y1757277D02*
D03*
X223520Y1840992D02*
D03*
X353036Y1848027D02*
D03*
X380379Y1396364D02*
D03*
X5427912Y1833440D02*
D03*
X5427498Y1373957D02*
D03*
X5467116Y2299264D02*
D03*
X55880Y1744092D02*
D03*
X1627186Y1200426D02*
D03*
X5554208Y1726014D02*
D03*
X2183366Y2753995D02*
D03*
X1790178Y2063650D02*
D03*
X2995649Y2753995D02*
D03*
X55880Y2367279D02*
D03*
X4620214Y2753995D02*
D03*
X1420000Y2085340D02*
D03*
X55880Y1120905D02*
D03*
Y201352D02*
D03*
X776990Y115501D02*
D03*
X2854197Y45780D02*
D03*
Y474555D02*
D03*
X2203704Y45780D02*
D03*
X55880Y523240D02*
D03*
X580000Y2085340D02*
D03*
X558800Y2753995D02*
D03*
X1371083D02*
D03*
X3333606Y2277714D02*
D03*
X1585595Y1343280D02*
D03*
X1419860D02*
D03*
X2059675Y401300D02*
D03*
X2112800Y2047914D02*
D03*
X1098180Y977892D02*
D03*
X2222395Y1985139D02*
D03*
X3488251Y2373519D02*
D03*
%TF.MD5,3db62eb9f7eb2d725ca6c6b0deb76544*%
M02*
