%TF.GenerationSoftware,Altium Limited,Altium Designer,20.1.8 (145)*%
G04 Layer_Color=39423*
%FSLAX45Y45*%
%MOMM*%
%TF.SameCoordinates,F0989897-1A12-473C-90C7-768902EF80F2*%
%TF.FilePolarity,Negative*%
%TF.FileFunction,Soldermask,Top*%
%TF.Part,Single*%
G01*
G75*
%TA.AperFunction,ViaPad*%
%ADD34C,3.60000*%
%TA.AperFunction,ComponentPad*%
%ADD40C,1.57600*%
G04:AMPARAMS|DCode=41|XSize=1.576mm|YSize=1.526mm|CornerRadius=0.21925mm|HoleSize=0mm|Usage=FLASHONLY|Rotation=180.000|XOffset=0mm|YOffset=0mm|HoleType=Round|Shape=RoundedRectangle|*
%AMROUNDEDRECTD41*
21,1,1.57600,1.08750,0,0,180.0*
21,1,1.13750,1.52600,0,0,180.0*
1,1,0.43850,-0.56875,0.54375*
1,1,0.43850,0.56875,0.54375*
1,1,0.43850,0.56875,-0.54375*
1,1,0.43850,-0.56875,-0.54375*
%
%ADD41ROUNDEDRECTD41*%
%ADD42O,1.57600X1.52600*%
%ADD43C,1.60000*%
G04:AMPARAMS|DCode=44|XSize=1.6mm|YSize=1.6mm|CornerRadius=0.2285mm|HoleSize=0mm|Usage=FLASHONLY|Rotation=180.000|XOffset=0mm|YOffset=0mm|HoleType=Round|Shape=RoundedRectangle|*
%AMROUNDEDRECTD44*
21,1,1.60000,1.14300,0,0,180.0*
21,1,1.14300,1.60000,0,0,180.0*
1,1,0.45700,-0.57150,0.57150*
1,1,0.45700,0.57150,0.57150*
1,1,0.45700,0.57150,-0.57150*
1,1,0.45700,-0.57150,-0.57150*
%
%ADD44ROUNDEDRECTD44*%
%TA.AperFunction,SMDPad,CuDef*%
%ADD51C,1.07600*%
G04:AMPARAMS|DCode=52|XSize=0.926mm|YSize=0.926mm|CornerRadius=0.0805mm|HoleSize=0mm|Usage=FLASHONLY|Rotation=0.000|XOffset=0mm|YOffset=0mm|HoleType=Round|Shape=RoundedRectangle|*
%AMROUNDEDRECTD52*
21,1,0.92600,0.76500,0,0,0.0*
21,1,0.76500,0.92600,0,0,0.0*
1,1,0.16100,0.38250,-0.38250*
1,1,0.16100,-0.38250,-0.38250*
1,1,0.16100,-0.38250,0.38250*
1,1,0.16100,0.38250,0.38250*
%
%ADD52ROUNDEDRECTD52*%
G04:AMPARAMS|DCode=53|XSize=0.676mm|YSize=0.976mm|CornerRadius=0.068mm|HoleSize=0mm|Usage=FLASHONLY|Rotation=0.000|XOffset=0mm|YOffset=0mm|HoleType=Round|Shape=RoundedRectangle|*
%AMROUNDEDRECTD53*
21,1,0.67600,0.84000,0,0,0.0*
21,1,0.54000,0.97600,0,0,0.0*
1,1,0.13600,0.27000,-0.42000*
1,1,0.13600,-0.27000,-0.42000*
1,1,0.13600,-0.27000,0.42000*
1,1,0.13600,0.27000,0.42000*
%
%ADD53ROUNDEDRECTD53*%
%ADD54O,0.52600X1.47600*%
G04:AMPARAMS|DCode=55|XSize=0.926mm|YSize=0.976mm|CornerRadius=0.0805mm|HoleSize=0mm|Usage=FLASHONLY|Rotation=270.000|XOffset=0mm|YOffset=0mm|HoleType=Round|Shape=RoundedRectangle|*
%AMROUNDEDRECTD55*
21,1,0.92600,0.81500,0,0,270.0*
21,1,0.76500,0.97600,0,0,270.0*
1,1,0.16100,-0.40750,-0.38250*
1,1,0.16100,-0.40750,0.38250*
1,1,0.16100,0.40750,0.38250*
1,1,0.16100,0.40750,-0.38250*
%
%ADD55ROUNDEDRECTD55*%
G04:AMPARAMS|DCode=56|XSize=0.926mm|YSize=0.976mm|CornerRadius=0.0805mm|HoleSize=0mm|Usage=FLASHONLY|Rotation=180.000|XOffset=0mm|YOffset=0mm|HoleType=Round|Shape=RoundedRectangle|*
%AMROUNDEDRECTD56*
21,1,0.92600,0.81500,0,0,180.0*
21,1,0.76500,0.97600,0,0,180.0*
1,1,0.16100,-0.38250,0.40750*
1,1,0.16100,0.38250,0.40750*
1,1,0.16100,0.38250,-0.40750*
1,1,0.16100,-0.38250,-0.40750*
%
%ADD56ROUNDEDRECTD56*%
%ADD57O,1.47600X0.52600*%
%TA.AperFunction,ConnectorPad*%
G04:AMPARAMS|DCode=58|XSize=1.176mm|YSize=2.376mm|CornerRadius=0.0435mm|HoleSize=0mm|Usage=FLASHONLY|Rotation=270.000|XOffset=0mm|YOffset=0mm|HoleType=Round|Shape=RoundedRectangle|*
%AMROUNDEDRECTD58*
21,1,1.17600,2.28900,0,0,270.0*
21,1,1.08900,2.37600,0,0,270.0*
1,1,0.08700,-1.14450,-0.54450*
1,1,0.08700,-1.14450,0.54450*
1,1,0.08700,1.14450,0.54450*
1,1,0.08700,1.14450,-0.54450*
%
%ADD58ROUNDEDRECTD58*%
G04:AMPARAMS|DCode=59|XSize=1.176mm|YSize=2.376mm|CornerRadius=0.0435mm|HoleSize=0mm|Usage=FLASHONLY|Rotation=0.000|XOffset=0mm|YOffset=0mm|HoleType=Round|Shape=RoundedRectangle|*
%AMROUNDEDRECTD59*
21,1,1.17600,2.28900,0,0,0.0*
21,1,1.08900,2.37600,0,0,0.0*
1,1,0.08700,0.54450,-1.14450*
1,1,0.08700,-0.54450,-1.14450*
1,1,0.08700,-0.54450,1.14450*
1,1,0.08700,0.54450,1.14450*
%
%ADD59ROUNDEDRECTD59*%
%TA.AperFunction,SMDPad,CuDef*%
%ADD60O,0.57600X0.82600*%
G04:AMPARAMS|DCode=61|XSize=0.826mm|YSize=0.576mm|CornerRadius=0mm|HoleSize=0mm|Usage=FLASHONLY|Rotation=45.000|XOffset=0mm|YOffset=0mm|HoleType=Round|Shape=Round|*
%AMOVALD61*
21,1,0.25000,0.57600,0.00000,0.00000,45.0*
1,1,0.57600,-0.08839,-0.08839*
1,1,0.57600,0.08839,0.08839*
%
%ADD61OVALD61*%

%ADD62O,0.82600X0.57600*%
G04:AMPARAMS|DCode=63|XSize=2.176mm|YSize=1.076mm|CornerRadius=0.088mm|HoleSize=0mm|Usage=FLASHONLY|Rotation=180.000|XOffset=0mm|YOffset=0mm|HoleType=Round|Shape=RoundedRectangle|*
%AMROUNDEDRECTD63*
21,1,2.17600,0.90000,0,0,180.0*
21,1,2.00000,1.07600,0,0,180.0*
1,1,0.17600,-1.00000,0.45000*
1,1,0.17600,1.00000,0.45000*
1,1,0.17600,1.00000,-0.45000*
1,1,0.17600,-1.00000,-0.45000*
%
%ADD63ROUNDEDRECTD63*%
G04:AMPARAMS|DCode=64|XSize=0.926mm|YSize=0.926mm|CornerRadius=0.0805mm|HoleSize=0mm|Usage=FLASHONLY|Rotation=90.000|XOffset=0mm|YOffset=0mm|HoleType=Round|Shape=RoundedRectangle|*
%AMROUNDEDRECTD64*
21,1,0.92600,0.76500,0,0,90.0*
21,1,0.76500,0.92600,0,0,90.0*
1,1,0.16100,0.38250,0.38250*
1,1,0.16100,0.38250,-0.38250*
1,1,0.16100,-0.38250,-0.38250*
1,1,0.16100,-0.38250,0.38250*
%
%ADD64ROUNDEDRECTD64*%
G04:AMPARAMS|DCode=65|XSize=0.676mm|YSize=1.126mm|CornerRadius=0.068mm|HoleSize=0mm|Usage=FLASHONLY|Rotation=180.000|XOffset=0mm|YOffset=0mm|HoleType=Round|Shape=RoundedRectangle|*
%AMROUNDEDRECTD65*
21,1,0.67600,0.99000,0,0,180.0*
21,1,0.54000,1.12600,0,0,180.0*
1,1,0.13600,-0.27000,0.49500*
1,1,0.13600,0.27000,0.49500*
1,1,0.13600,0.27000,-0.49500*
1,1,0.13600,-0.27000,-0.49500*
%
%ADD65ROUNDEDRECTD65*%
G04:AMPARAMS|DCode=66|XSize=0.326mm|YSize=0.626mm|CornerRadius=0.0505mm|HoleSize=0mm|Usage=FLASHONLY|Rotation=0.000|XOffset=0mm|YOffset=0mm|HoleType=Round|Shape=RoundedRectangle|*
%AMROUNDEDRECTD66*
21,1,0.32600,0.52500,0,0,0.0*
21,1,0.22500,0.62600,0,0,0.0*
1,1,0.10100,0.11250,-0.26250*
1,1,0.10100,-0.11250,-0.26250*
1,1,0.10100,-0.11250,0.26250*
1,1,0.10100,0.11250,0.26250*
%
%ADD66ROUNDEDRECTD66*%
D34*
X2700000Y1700000D02*
D03*
X200000Y800000D02*
D03*
Y2600000D02*
D03*
X5400000D02*
D03*
Y800000D02*
D03*
D40*
X1905099Y2603500D02*
D03*
X1651099D02*
D03*
X190500Y1968500D02*
D03*
X2139895Y2603500D02*
D03*
X190500Y2222500D02*
D03*
D41*
X1540004Y247460D02*
D03*
X2600960Y995680D02*
D03*
D42*
X1286004Y247460D02*
D03*
X1032004D02*
D03*
X778004D02*
D03*
X524004D02*
D03*
Y501460D02*
D03*
X778004D02*
D03*
X1032004D02*
D03*
X1286004D02*
D03*
X1540004D02*
D03*
X2854960Y995680D02*
D03*
X3108960Y995680D02*
D03*
Y1249680D02*
D03*
X2854960Y1249680D02*
D03*
X2600960Y1249680D02*
D03*
D43*
X2341880Y242570D02*
D03*
X3124700Y2500000D02*
D03*
X2870700D02*
D03*
X2616700D02*
D03*
D44*
X2595880Y242570D02*
D03*
X2362700Y2500000D02*
D03*
D51*
X2464026Y1551070D02*
D03*
X2431750Y1991167D02*
D03*
X2301652Y2091784D02*
D03*
X2375674Y1695900D02*
D03*
X1293180Y1614356D02*
D03*
X1132824Y1809890D02*
D03*
X997544Y1912813D02*
D03*
X1119242Y1654739D02*
D03*
X1813479Y952556D02*
D03*
X1914187Y109220D02*
D03*
X1540004Y683268D02*
D03*
D52*
X2781020Y351068D02*
D03*
Y221068D02*
D03*
X5246709Y1490769D02*
D03*
Y1360769D02*
D03*
X809080Y1741405D02*
D03*
Y1871405D02*
D03*
X1548835Y964960D02*
D03*
Y834960D02*
D03*
X1412580D02*
D03*
Y964960D02*
D03*
X3286760Y1688020D02*
D03*
Y1558020D02*
D03*
X5246709Y1219130D02*
D03*
Y1089130D02*
D03*
X504190Y1099185D02*
D03*
Y969185D02*
D03*
D53*
X2690880Y638660D02*
D03*
X2500880D02*
D03*
X2595880Y408660D02*
D03*
X2319370Y605721D02*
D03*
X2129370D02*
D03*
X2224370Y375721D02*
D03*
D54*
X708180Y868300D02*
D03*
X773180D02*
D03*
X838180D02*
D03*
X903180D02*
D03*
X968180D02*
D03*
X1033180D02*
D03*
X1098180D02*
D03*
X1163180D02*
D03*
X1228180D02*
D03*
X1293180D02*
D03*
X708180Y1453300D02*
D03*
X773180D02*
D03*
X838180D02*
D03*
X903180D02*
D03*
X968180D02*
D03*
X1033180D02*
D03*
X1098180D02*
D03*
X1163180D02*
D03*
X1228180D02*
D03*
X1293180D02*
D03*
D55*
X2285260Y1471295D02*
D03*
X2150261D02*
D03*
X2040425Y218440D02*
D03*
X2175425D02*
D03*
X5381631Y2299264D02*
D03*
X5246632D02*
D03*
X1263020Y683268D02*
D03*
X1128020D02*
D03*
X3092262Y2329784D02*
D03*
X2957262D02*
D03*
D56*
X1502480Y1343280D02*
D03*
Y1478280D02*
D03*
X1977381Y675167D02*
D03*
Y810166D02*
D03*
Y401300D02*
D03*
Y536300D02*
D03*
Y952556D02*
D03*
X1977381Y1087556D02*
D03*
D57*
X1522800Y1855000D02*
D03*
Y1790000D02*
D03*
Y1725000D02*
D03*
Y1660000D02*
D03*
Y1985000D02*
D03*
Y1920000D02*
D03*
Y1595000D02*
D03*
X2112800Y1985000D02*
D03*
Y1920000D02*
D03*
Y1855000D02*
D03*
Y1790000D02*
D03*
Y1725000D02*
D03*
Y1660000D02*
D03*
Y1595000D02*
D03*
D58*
X5031016Y878629D02*
D03*
Y2074969D02*
D03*
X3488916Y2278169D02*
D03*
X5031016Y1076749D02*
D03*
Y1277409D02*
D03*
Y1475529D02*
D03*
Y1678729D02*
D03*
Y1876849D02*
D03*
Y2275629D02*
D03*
X3488916Y2077509D02*
D03*
Y1879389D02*
D03*
X3491456Y1678729D02*
D03*
Y1478069D02*
D03*
Y1279949D02*
D03*
Y1076749D02*
D03*
Y878629D02*
D03*
D59*
X4761616Y2473909D02*
D03*
X4563496D02*
D03*
X4365376D02*
D03*
X4162176D02*
D03*
X3964056D02*
D03*
X3760856D02*
D03*
D60*
X502995Y1591482D02*
D03*
X428035Y1482921D02*
D03*
X809080Y1620731D02*
D03*
D61*
X906462Y2020710D02*
D03*
D62*
X1834268Y2391564D02*
D03*
X2200855D02*
D03*
D63*
X580000Y2625000D02*
D03*
X1420000D02*
D03*
X580000Y2175000D02*
D03*
X1420000D02*
D03*
D64*
X3020060Y1558290D02*
D03*
X3150060D02*
D03*
X3150039Y1691640D02*
D03*
X3020039D02*
D03*
X3156760Y1824990D02*
D03*
X3286760D02*
D03*
X354328Y1627632D02*
D03*
X224328D02*
D03*
X224327Y1757277D02*
D03*
X354327D02*
D03*
X348853Y1122680D02*
D03*
X218853D02*
D03*
X1417565Y1093861D02*
D03*
X1547565D02*
D03*
X1790178Y2146738D02*
D03*
X1660178D02*
D03*
X2082969Y2391564D02*
D03*
X1952969D02*
D03*
D65*
X2129370Y749231D02*
D03*
X2224370Y749231D02*
D03*
X2319370Y749231D02*
D03*
Y1019231D02*
D03*
X2129370D02*
D03*
D66*
X326868Y1396364D02*
D03*
X276868D02*
D03*
X226868D02*
D03*
Y1251364D02*
D03*
X276868D02*
D03*
X326868D02*
D03*
%TF.MD5,449baffaeab1c07fe538a903c82d2459*%
M02*
