%TF.GenerationSoftware,Altium Limited,Altium Designer,20.1.8 (145)*%
G04 Layer_Color=16711833*
%FSLAX45Y45*%
%MOMM*%
%TF.SameCoordinates,F0989897-1A12-473C-90C7-768902EF80F2*%
%TF.FilePolarity,Negative*%
%TF.FileFunction,Soldermask,Bot*%
%TF.Part,Single*%
G01*
G75*
%TA.AperFunction,ViaPad*%
%ADD34C,3.60000*%
%TA.AperFunction,ComponentPad*%
%ADD40C,1.57600*%
G04:AMPARAMS|DCode=41|XSize=1.576mm|YSize=1.526mm|CornerRadius=0.21925mm|HoleSize=0mm|Usage=FLASHONLY|Rotation=180.000|XOffset=0mm|YOffset=0mm|HoleType=Round|Shape=RoundedRectangle|*
%AMROUNDEDRECTD41*
21,1,1.57600,1.08750,0,0,180.0*
21,1,1.13750,1.52600,0,0,180.0*
1,1,0.43850,-0.56875,0.54375*
1,1,0.43850,0.56875,0.54375*
1,1,0.43850,0.56875,-0.54375*
1,1,0.43850,-0.56875,-0.54375*
%
%ADD41ROUNDEDRECTD41*%
%ADD42O,1.57600X1.52600*%
%ADD43C,1.60000*%
G04:AMPARAMS|DCode=44|XSize=1.6mm|YSize=1.6mm|CornerRadius=0.2285mm|HoleSize=0mm|Usage=FLASHONLY|Rotation=180.000|XOffset=0mm|YOffset=0mm|HoleType=Round|Shape=RoundedRectangle|*
%AMROUNDEDRECTD44*
21,1,1.60000,1.14300,0,0,180.0*
21,1,1.14300,1.60000,0,0,180.0*
1,1,0.45700,-0.57150,0.57150*
1,1,0.45700,0.57150,0.57150*
1,1,0.45700,0.57150,-0.57150*
1,1,0.45700,-0.57150,-0.57150*
%
%ADD44ROUNDEDRECTD44*%
D34*
X2700000Y1700000D02*
D03*
X200000Y800000D02*
D03*
Y2600000D02*
D03*
X5400000D02*
D03*
Y800000D02*
D03*
D40*
X1905099Y2603500D02*
D03*
X1651099D02*
D03*
X190500Y1968500D02*
D03*
X2139895Y2603500D02*
D03*
X190500Y2222500D02*
D03*
D41*
X1540004Y247460D02*
D03*
X2600960Y995680D02*
D03*
D42*
X1286004Y247460D02*
D03*
X1032004D02*
D03*
X778004D02*
D03*
X524004D02*
D03*
Y501460D02*
D03*
X778004D02*
D03*
X1032004D02*
D03*
X1286004D02*
D03*
X1540004D02*
D03*
X2854960Y995680D02*
D03*
X3108960Y995680D02*
D03*
Y1249680D02*
D03*
X2854960Y1249680D02*
D03*
X2600960Y1249680D02*
D03*
D43*
X2341880Y242570D02*
D03*
X3124700Y2500000D02*
D03*
X2870700D02*
D03*
X2616700D02*
D03*
D44*
X2595880Y242570D02*
D03*
X2362700Y2500000D02*
D03*
%TF.MD5,656d2da4b875a16b0767736d42302fd7*%
M02*
