%TF.GenerationSoftware,Altium Limited,Altium Designer,20.1.8 (145)*%
G04 Layer_Color=39423*
%FSLAX45Y45*%
%MOMM*%
%TF.SameCoordinates,5C14931A-3E48-49F5-90A4-00D45644C4A5*%
%TF.FilePolarity,Negative*%
%TF.FileFunction,Soldermask,Top*%
%TF.Part,Single*%
G01*
G75*
%TA.AperFunction,BGAPad,CuDef*%
%ADD17R,0.50000X0.50000*%
%TA.AperFunction,SMDPad,CuDef*%
%ADD19R,2.50000X1.00000*%
%TA.AperFunction,ComponentPad*%
%ADD44C,1.80320*%
%ADD45C,1.70320*%
%ADD46C,1.90320*%
%TA.AperFunction,WasherPad*%
%ADD47C,3.40320*%
%TA.AperFunction,SMDPad,CuDef*%
%ADD50C,1.20320*%
G04:AMPARAMS|DCode=51|XSize=1.0532mm|YSize=1.0532mm|CornerRadius=0.1441mm|HoleSize=0mm|Usage=FLASHONLY|Rotation=90.000|XOffset=0mm|YOffset=0mm|HoleType=Round|Shape=RoundedRectangle|*
%AMROUNDEDRECTD51*
21,1,1.05320,0.76500,0,0,90.0*
21,1,0.76500,1.05320,0,0,90.0*
1,1,0.28820,0.38250,0.38250*
1,1,0.28820,0.38250,-0.38250*
1,1,0.28820,-0.38250,-0.38250*
1,1,0.28820,-0.38250,0.38250*
%
%ADD51ROUNDEDRECTD51*%
%TA.AperFunction,ConnectorPad*%
%ADD52R,0.60320X1.00320*%
%ADD53R,1.00320X0.60320*%
%TA.AperFunction,BGAPad,CuDef*%
%ADD54R,1.65320X1.65320*%
%TA.AperFunction,SMDPad,CuDef*%
%ADD55R,0.90320X0.90320*%
%TA.AperFunction,BGAPad,CuDef*%
%ADD56R,0.65200X0.65200*%
%TA.AperFunction,SMDPad,CuDef*%
%ADD57R,0.35200X0.30200*%
%TA.AperFunction,BGAPad,CuDef*%
%ADD58R,0.65240X0.65240*%
%TA.AperFunction,SMDPad,CuDef*%
G04:AMPARAMS|DCode=59|XSize=3.4532mm|YSize=2.3532mm|CornerRadius=0.11235mm|HoleSize=0mm|Usage=FLASHONLY|Rotation=180.000|XOffset=0mm|YOffset=0mm|HoleType=Round|Shape=RoundedRectangle|*
%AMROUNDEDRECTD59*
21,1,3.45320,2.12850,0,0,180.0*
21,1,3.22850,2.35320,0,0,180.0*
1,1,0.22470,-1.61425,1.06425*
1,1,0.22470,1.61425,1.06425*
1,1,0.22470,1.61425,-1.06425*
1,1,0.22470,-1.61425,-1.06425*
%
%ADD59ROUNDEDRECTD59*%
G04:AMPARAMS|DCode=60|XSize=1.2032mm|YSize=2.3532mm|CornerRadius=0.1066mm|HoleSize=0mm|Usage=FLASHONLY|Rotation=180.000|XOffset=0mm|YOffset=0mm|HoleType=Round|Shape=RoundedRectangle|*
%AMROUNDEDRECTD60*
21,1,1.20320,2.14000,0,0,180.0*
21,1,0.99000,2.35320,0,0,180.0*
1,1,0.21320,-0.49500,1.07000*
1,1,0.21320,0.49500,1.07000*
1,1,0.21320,0.49500,-1.07000*
1,1,0.21320,-0.49500,-1.07000*
%
%ADD60ROUNDEDRECTD60*%
G04:AMPARAMS|DCode=61|XSize=1.0032mm|YSize=1.0032mm|CornerRadius=0.1416mm|HoleSize=0mm|Usage=FLASHONLY|Rotation=90.000|XOffset=0mm|YOffset=0mm|HoleType=Round|Shape=RoundedRectangle|*
%AMROUNDEDRECTD61*
21,1,1.00320,0.72000,0,0,90.0*
21,1,0.72000,1.00320,0,0,90.0*
1,1,0.28320,0.36000,0.36000*
1,1,0.28320,0.36000,-0.36000*
1,1,0.28320,-0.36000,-0.36000*
1,1,0.28320,-0.36000,0.36000*
%
%ADD61ROUNDEDRECTD61*%
G04:AMPARAMS|DCode=62|XSize=0.8032mm|YSize=1.3032mm|CornerRadius=0.1316mm|HoleSize=0mm|Usage=FLASHONLY|Rotation=270.000|XOffset=0mm|YOffset=0mm|HoleType=Round|Shape=RoundedRectangle|*
%AMROUNDEDRECTD62*
21,1,0.80320,1.04000,0,0,270.0*
21,1,0.54000,1.30320,0,0,270.0*
1,1,0.26320,-0.52000,-0.27000*
1,1,0.26320,-0.52000,0.27000*
1,1,0.26320,0.52000,0.27000*
1,1,0.26320,0.52000,-0.27000*
%
%ADD62ROUNDEDRECTD62*%
G04:AMPARAMS|DCode=63|XSize=1.0532mm|YSize=1.1032mm|CornerRadius=0.1441mm|HoleSize=0mm|Usage=FLASHONLY|Rotation=180.000|XOffset=0mm|YOffset=0mm|HoleType=Round|Shape=RoundedRectangle|*
%AMROUNDEDRECTD63*
21,1,1.05320,0.81500,0,0,180.0*
21,1,0.76500,1.10320,0,0,180.0*
1,1,0.28820,-0.38250,0.40750*
1,1,0.28820,0.38250,0.40750*
1,1,0.28820,0.38250,-0.40750*
1,1,0.28820,-0.38250,-0.40750*
%
%ADD63ROUNDEDRECTD63*%
G04:AMPARAMS|DCode=64|XSize=1.4782mm|YSize=1.1032mm|CornerRadius=0.1466mm|HoleSize=0mm|Usage=FLASHONLY|Rotation=180.000|XOffset=0mm|YOffset=0mm|HoleType=Round|Shape=RoundedRectangle|*
%AMROUNDEDRECTD64*
21,1,1.47820,0.81000,0,0,180.0*
21,1,1.18500,1.10320,0,0,180.0*
1,1,0.29320,-0.59250,0.40500*
1,1,0.29320,0.59250,0.40500*
1,1,0.29320,0.59250,-0.40500*
1,1,0.29320,-0.59250,-0.40500*
%
%ADD64ROUNDEDRECTD64*%
G04:AMPARAMS|DCode=65|XSize=1.0532mm|YSize=1.0532mm|CornerRadius=0.1441mm|HoleSize=0mm|Usage=FLASHONLY|Rotation=180.000|XOffset=0mm|YOffset=0mm|HoleType=Round|Shape=RoundedRectangle|*
%AMROUNDEDRECTD65*
21,1,1.05320,0.76500,0,0,180.0*
21,1,0.76500,1.05320,0,0,180.0*
1,1,0.28820,-0.38250,0.38250*
1,1,0.28820,0.38250,0.38250*
1,1,0.28820,0.38250,-0.38250*
1,1,0.28820,-0.38250,-0.38250*
%
%ADD65ROUNDEDRECTD65*%
G04:AMPARAMS|DCode=66|XSize=1.4782mm|YSize=1.1032mm|CornerRadius=0.1466mm|HoleSize=0mm|Usage=FLASHONLY|Rotation=270.000|XOffset=0mm|YOffset=0mm|HoleType=Round|Shape=RoundedRectangle|*
%AMROUNDEDRECTD66*
21,1,1.47820,0.81000,0,0,270.0*
21,1,1.18500,1.10320,0,0,270.0*
1,1,0.29320,-0.40500,-0.59250*
1,1,0.29320,-0.40500,0.59250*
1,1,0.29320,0.40500,0.59250*
1,1,0.29320,0.40500,-0.59250*
%
%ADD66ROUNDEDRECTD66*%
G04:AMPARAMS|DCode=67|XSize=0.7032mm|YSize=1.2532mm|CornerRadius=0.1266mm|HoleSize=0mm|Usage=FLASHONLY|Rotation=90.000|XOffset=0mm|YOffset=0mm|HoleType=Round|Shape=RoundedRectangle|*
%AMROUNDEDRECTD67*
21,1,0.70320,1.00000,0,0,90.0*
21,1,0.45000,1.25320,0,0,90.0*
1,1,0.25320,0.50000,0.22500*
1,1,0.25320,0.50000,-0.22500*
1,1,0.25320,-0.50000,-0.22500*
1,1,0.25320,-0.50000,0.22500*
%
%ADD67ROUNDEDRECTD67*%
G04:AMPARAMS|DCode=68|XSize=0.8032mm|YSize=1.3032mm|CornerRadius=0.1316mm|HoleSize=0mm|Usage=FLASHONLY|Rotation=0.000|XOffset=0mm|YOffset=0mm|HoleType=Round|Shape=RoundedRectangle|*
%AMROUNDEDRECTD68*
21,1,0.80320,1.04000,0,0,0.0*
21,1,0.54000,1.30320,0,0,0.0*
1,1,0.26320,0.27000,-0.52000*
1,1,0.26320,-0.27000,-0.52000*
1,1,0.26320,-0.27000,0.52000*
1,1,0.26320,0.27000,0.52000*
%
%ADD68ROUNDEDRECTD68*%
G36*
X5473000Y3815600D02*
Y3980600D01*
X5572000D01*
X5638000Y3914601D01*
Y3815600D01*
X5473000D01*
D02*
G37*
D17*
X3399920Y2597920D02*
D03*
X3024920D02*
D03*
X3099920Y2807920D02*
D03*
X3474920D02*
D03*
X3399920D02*
D03*
X3474920Y2597920D02*
D03*
D19*
X3249920Y2702920D02*
D03*
D44*
X6310501Y1471925D02*
D03*
Y1725925D02*
D03*
Y1979925D02*
D03*
X6056501D02*
D03*
Y1725925D02*
D03*
Y1471925D02*
D03*
D45*
X2794000Y3683000D02*
D03*
X2540000D02*
D03*
X6056487Y963925D02*
D03*
X6310487D02*
D03*
X6056487Y2487925D02*
D03*
X6310487D02*
D03*
X406400Y4749800D02*
D03*
X152400D02*
D03*
X4064000Y5080000D02*
D03*
X4318000D02*
D03*
X4826000Y2032000D02*
D03*
X5080000D02*
D03*
X2286000Y2794000D02*
D03*
Y2540000D02*
D03*
X4445000Y2921000D02*
D03*
X4699000D02*
D03*
D46*
X343154Y3947869D02*
D03*
Y3693870D02*
D03*
D47*
X5450000Y2700000D02*
D03*
X1050000D02*
D03*
X6100000Y5000000D02*
D03*
Y400000D02*
D03*
X400000D02*
D03*
D50*
X5799040Y1471925D02*
D03*
X5346700Y4826000D02*
D03*
X3731260Y2940160D02*
D03*
X3351510Y3394718D02*
D03*
X2059806D02*
D03*
X2503772Y3995019D02*
D03*
X3691685Y4100600D02*
D03*
X3950749Y2118773D02*
D03*
Y2286520D02*
D03*
D51*
X3956260Y3700600D02*
D03*
X3826260D02*
D03*
X681340Y3693870D02*
D03*
X811340D02*
D03*
X4228215Y3500600D02*
D03*
X4358215D02*
D03*
X4228210Y3300600D02*
D03*
X4358210D02*
D03*
X4228210Y3700600D02*
D03*
X4358210D02*
D03*
X4667479Y3700600D02*
D03*
X4537479D02*
D03*
X3456945Y4100600D02*
D03*
X3326945D02*
D03*
X3326945Y3900019D02*
D03*
X3456945D02*
D03*
X2887082Y4280427D02*
D03*
X2757082D02*
D03*
X3023920Y2968120D02*
D03*
X2893920D02*
D03*
X3708400Y2407920D02*
D03*
X3578400D02*
D03*
D52*
X5758000Y4290601D02*
D03*
X5678000D02*
D03*
X5598000D02*
D03*
X5518000D02*
D03*
X5438000D02*
D03*
X5358000D02*
D03*
X5278000D02*
D03*
X5198000D02*
D03*
X5118000D02*
D03*
X5038000D02*
D03*
X4958000D02*
D03*
Y3110600D02*
D03*
X5038000D02*
D03*
X5118000D02*
D03*
X5198000D02*
D03*
X5278000D02*
D03*
X5358000D02*
D03*
X5438000D02*
D03*
X5518000D02*
D03*
X5598000D02*
D03*
X5678000D02*
D03*
X5758000D02*
D03*
D53*
X4868000Y4180600D02*
D03*
Y4100600D02*
D03*
Y4020601D02*
D03*
Y3940600D02*
D03*
Y3860600D02*
D03*
Y3780601D02*
D03*
Y3700600D02*
D03*
Y3620600D02*
D03*
Y3540600D02*
D03*
Y3460600D02*
D03*
Y3380600D02*
D03*
Y3300600D02*
D03*
Y3220600D02*
D03*
X5848000D02*
D03*
Y3300600D02*
D03*
Y3380600D02*
D03*
Y3460600D02*
D03*
Y3540600D02*
D03*
Y3620600D02*
D03*
Y3700600D02*
D03*
Y3780601D02*
D03*
Y3860600D02*
D03*
Y3940600D02*
D03*
Y4020601D02*
D03*
Y4100600D02*
D03*
Y4180600D02*
D03*
D54*
X5358000Y3700600D02*
D03*
X5555500Y3503100D02*
D03*
Y3700600D02*
D03*
X5358000Y3898100D02*
D03*
X5160500D02*
D03*
Y3700600D02*
D03*
Y3503100D02*
D03*
X5358000D02*
D03*
D55*
X5853000Y4295601D02*
D03*
X4863000D02*
D03*
Y3105600D02*
D03*
X5853000D02*
D03*
D56*
X3099920Y2597920D02*
D03*
X3024920Y2807920D02*
D03*
X3174920Y2597920D02*
D03*
Y2807920D02*
D03*
X3249920Y2597920D02*
D03*
Y2807920D02*
D03*
X3324920Y2597920D02*
D03*
Y2807920D02*
D03*
D57*
X3009920Y2777920D02*
D03*
D58*
X3514920Y2702920D02*
D03*
X2984920D02*
D03*
D59*
X1338660Y4049957D02*
D03*
D60*
X1568660Y3464957D02*
D03*
X1338660D02*
D03*
X1108660D02*
D03*
D61*
X5270500Y1471925D02*
D03*
X5430500D02*
D03*
X4699000Y4826000D02*
D03*
X4859000D02*
D03*
X2642506Y3394718D02*
D03*
X2482506D02*
D03*
D62*
X811340Y4042869D02*
D03*
X811340Y3852869D02*
D03*
X561340Y3947869D02*
D03*
D63*
X5080000Y1471925D02*
D03*
Y1336925D02*
D03*
X5613400Y1471925D02*
D03*
Y1336925D02*
D03*
X2299606Y3394718D02*
D03*
Y3259718D02*
D03*
X2820306Y3394718D02*
D03*
Y3259718D02*
D03*
X4521040Y4826000D02*
D03*
Y4691000D02*
D03*
X5040911Y4826000D02*
D03*
Y4691000D02*
D03*
D64*
X885140Y3464957D02*
D03*
Y3289717D02*
D03*
X5638640Y4553881D02*
D03*
Y4729121D02*
D03*
X1795780Y3394718D02*
D03*
Y3569958D02*
D03*
X3239760Y3037717D02*
D03*
Y3212957D02*
D03*
D65*
X5438000Y4590000D02*
D03*
Y4460000D02*
D03*
X3456500Y3098800D02*
D03*
Y2968800D02*
D03*
X2701550Y3995019D02*
D03*
Y3865019D02*
D03*
X3008920Y2159004D02*
D03*
Y2289004D02*
D03*
X3200320Y2159004D02*
D03*
Y2289004D02*
D03*
D66*
X3708400Y2702920D02*
D03*
X3883640D02*
D03*
X2790771Y2702920D02*
D03*
X2615531Y2702920D02*
D03*
D67*
X3152082Y4090019D02*
D03*
Y3995019D02*
D03*
Y3900019D02*
D03*
X2887082Y3900019D02*
D03*
X2887082Y3995019D02*
D03*
Y4090019D02*
D03*
D68*
X3636260Y3358961D02*
D03*
X3826260D02*
D03*
X3731260Y3108960D02*
D03*
%TF.MD5,5ae584d7de0200d160304e17277f3fb4*%
M02*
